G04 EAGLE Gerber RS-274X export*
G75*
%MOMM*%
%FSLAX34Y34*%
%LPD*%
%INBottom Copper*%
%IPPOS*%
%AMOC8*
5,1,8,0,0,1.08239X$1,22.5*%
G01*
%ADD10R,2.540000X5.080000*%
%ADD11R,5.080000X2.540000*%
%ADD12C,1.800000*%
%ADD13C,1.600000*%
%ADD14C,0.280000*%
%ADD15C,0.254000*%
%ADD16C,0.756400*%
%ADD17C,0.300000*%

G36*
X844648Y14956D02*
X844648Y14956D01*
X844767Y14963D01*
X844805Y14976D01*
X844846Y14981D01*
X844956Y15024D01*
X845069Y15061D01*
X845104Y15083D01*
X845141Y15098D01*
X845237Y15168D01*
X845338Y15231D01*
X845366Y15261D01*
X845399Y15284D01*
X845475Y15376D01*
X845556Y15463D01*
X845576Y15498D01*
X845601Y15529D01*
X845652Y15637D01*
X845710Y15741D01*
X845720Y15781D01*
X845737Y15817D01*
X845759Y15934D01*
X845789Y16049D01*
X845793Y16110D01*
X845797Y16130D01*
X845795Y16150D01*
X845799Y16210D01*
X845799Y66210D01*
X845784Y66328D01*
X845777Y66447D01*
X845764Y66485D01*
X845759Y66526D01*
X845716Y66636D01*
X845679Y66749D01*
X845657Y66784D01*
X845642Y66821D01*
X845573Y66917D01*
X845509Y67018D01*
X845479Y67046D01*
X845456Y67079D01*
X845364Y67155D01*
X845277Y67236D01*
X845242Y67256D01*
X845211Y67281D01*
X845103Y67332D01*
X844999Y67390D01*
X844959Y67400D01*
X844923Y67417D01*
X844806Y67439D01*
X844691Y67469D01*
X844631Y67473D01*
X844611Y67477D01*
X844590Y67475D01*
X844530Y67479D01*
X754530Y67479D01*
X754412Y67464D01*
X754293Y67457D01*
X754255Y67444D01*
X754214Y67439D01*
X754104Y67396D01*
X753991Y67359D01*
X753956Y67337D01*
X753919Y67322D01*
X753823Y67253D01*
X753722Y67189D01*
X753694Y67159D01*
X753661Y67136D01*
X753586Y67044D01*
X753504Y66957D01*
X753484Y66922D01*
X753459Y66891D01*
X753408Y66783D01*
X753350Y66679D01*
X753340Y66639D01*
X753323Y66603D01*
X753301Y66486D01*
X753271Y66371D01*
X753267Y66311D01*
X753263Y66291D01*
X753265Y66270D01*
X753261Y66210D01*
X753261Y16210D01*
X753276Y16092D01*
X753283Y15973D01*
X753296Y15935D01*
X753301Y15894D01*
X753344Y15784D01*
X753381Y15671D01*
X753403Y15636D01*
X753418Y15599D01*
X753488Y15503D01*
X753551Y15402D01*
X753581Y15374D01*
X753604Y15341D01*
X753696Y15266D01*
X753783Y15184D01*
X753818Y15164D01*
X753849Y15139D01*
X753957Y15088D01*
X754061Y15030D01*
X754101Y15020D01*
X754137Y15003D01*
X754254Y14981D01*
X754369Y14951D01*
X754430Y14947D01*
X754450Y14943D01*
X754470Y14945D01*
X754530Y14941D01*
X844530Y14941D01*
X844648Y14956D01*
G37*
G36*
X94648Y14156D02*
X94648Y14156D01*
X94767Y14163D01*
X94805Y14176D01*
X94846Y14181D01*
X94956Y14224D01*
X95069Y14261D01*
X95104Y14283D01*
X95141Y14298D01*
X95237Y14368D01*
X95338Y14431D01*
X95366Y14461D01*
X95399Y14484D01*
X95475Y14576D01*
X95556Y14663D01*
X95576Y14698D01*
X95601Y14729D01*
X95652Y14837D01*
X95710Y14941D01*
X95720Y14981D01*
X95737Y15017D01*
X95759Y15134D01*
X95789Y15249D01*
X95793Y15310D01*
X95797Y15330D01*
X95795Y15350D01*
X95799Y15410D01*
X95799Y65410D01*
X95784Y65528D01*
X95777Y65647D01*
X95764Y65685D01*
X95759Y65726D01*
X95716Y65836D01*
X95679Y65949D01*
X95657Y65984D01*
X95642Y66021D01*
X95573Y66117D01*
X95509Y66218D01*
X95479Y66246D01*
X95456Y66279D01*
X95364Y66355D01*
X95277Y66436D01*
X95242Y66456D01*
X95211Y66481D01*
X95103Y66532D01*
X94999Y66590D01*
X94959Y66600D01*
X94923Y66617D01*
X94806Y66639D01*
X94691Y66669D01*
X94631Y66673D01*
X94611Y66677D01*
X94590Y66675D01*
X94530Y66679D01*
X4530Y66679D01*
X4412Y66664D01*
X4293Y66657D01*
X4255Y66644D01*
X4214Y66639D01*
X4104Y66596D01*
X3991Y66559D01*
X3956Y66537D01*
X3919Y66522D01*
X3823Y66453D01*
X3722Y66389D01*
X3694Y66359D01*
X3661Y66336D01*
X3586Y66244D01*
X3504Y66157D01*
X3484Y66122D01*
X3459Y66091D01*
X3408Y65983D01*
X3350Y65879D01*
X3340Y65839D01*
X3323Y65803D01*
X3301Y65686D01*
X3271Y65571D01*
X3267Y65511D01*
X3263Y65491D01*
X3265Y65470D01*
X3261Y65410D01*
X3261Y15410D01*
X3276Y15292D01*
X3283Y15173D01*
X3296Y15135D01*
X3301Y15094D01*
X3344Y14984D01*
X3381Y14871D01*
X3403Y14836D01*
X3418Y14799D01*
X3488Y14703D01*
X3551Y14602D01*
X3581Y14574D01*
X3604Y14541D01*
X3696Y14466D01*
X3783Y14384D01*
X3818Y14364D01*
X3849Y14339D01*
X3957Y14288D01*
X4061Y14230D01*
X4101Y14220D01*
X4137Y14203D01*
X4254Y14181D01*
X4369Y14151D01*
X4430Y14147D01*
X4450Y14143D01*
X4470Y14145D01*
X4530Y14141D01*
X94530Y14141D01*
X94648Y14156D01*
G37*
G36*
X694648Y14956D02*
X694648Y14956D01*
X694767Y14963D01*
X694805Y14976D01*
X694846Y14981D01*
X694956Y15024D01*
X695069Y15061D01*
X695104Y15083D01*
X695141Y15098D01*
X695237Y15168D01*
X695338Y15231D01*
X695366Y15261D01*
X695399Y15284D01*
X695475Y15376D01*
X695556Y15463D01*
X695576Y15498D01*
X695601Y15529D01*
X695652Y15637D01*
X695710Y15741D01*
X695720Y15781D01*
X695737Y15817D01*
X695759Y15934D01*
X695789Y16049D01*
X695793Y16110D01*
X695797Y16130D01*
X695795Y16150D01*
X695799Y16210D01*
X695799Y66210D01*
X695784Y66328D01*
X695777Y66447D01*
X695764Y66485D01*
X695759Y66526D01*
X695716Y66636D01*
X695679Y66749D01*
X695657Y66784D01*
X695642Y66821D01*
X695573Y66917D01*
X695509Y67018D01*
X695479Y67046D01*
X695456Y67079D01*
X695364Y67155D01*
X695277Y67236D01*
X695242Y67256D01*
X695211Y67281D01*
X695103Y67332D01*
X694999Y67390D01*
X694959Y67400D01*
X694923Y67417D01*
X694806Y67439D01*
X694691Y67469D01*
X694631Y67473D01*
X694611Y67477D01*
X694590Y67475D01*
X694530Y67479D01*
X654530Y67479D01*
X654412Y67464D01*
X654293Y67457D01*
X654255Y67444D01*
X654214Y67439D01*
X654104Y67396D01*
X653991Y67359D01*
X653956Y67337D01*
X653919Y67322D01*
X653823Y67253D01*
X653722Y67189D01*
X653694Y67159D01*
X653661Y67136D01*
X653586Y67044D01*
X653504Y66957D01*
X653484Y66922D01*
X653459Y66891D01*
X653408Y66783D01*
X653350Y66679D01*
X653340Y66639D01*
X653323Y66603D01*
X653301Y66486D01*
X653271Y66371D01*
X653267Y66311D01*
X653263Y66291D01*
X653265Y66270D01*
X653261Y66210D01*
X653261Y16210D01*
X653276Y16092D01*
X653283Y15973D01*
X653296Y15935D01*
X653301Y15894D01*
X653344Y15784D01*
X653381Y15671D01*
X653403Y15636D01*
X653418Y15599D01*
X653488Y15503D01*
X653551Y15402D01*
X653581Y15374D01*
X653604Y15341D01*
X653696Y15266D01*
X653783Y15184D01*
X653818Y15164D01*
X653849Y15139D01*
X653957Y15088D01*
X654061Y15030D01*
X654101Y15020D01*
X654137Y15003D01*
X654254Y14981D01*
X654369Y14951D01*
X654430Y14947D01*
X654450Y14943D01*
X654470Y14945D01*
X654530Y14941D01*
X694530Y14941D01*
X694648Y14956D01*
G37*
G36*
X194648Y14156D02*
X194648Y14156D01*
X194767Y14163D01*
X194805Y14176D01*
X194846Y14181D01*
X194956Y14224D01*
X195069Y14261D01*
X195104Y14283D01*
X195141Y14298D01*
X195237Y14368D01*
X195338Y14431D01*
X195366Y14461D01*
X195399Y14484D01*
X195475Y14576D01*
X195556Y14663D01*
X195576Y14698D01*
X195601Y14729D01*
X195652Y14837D01*
X195710Y14941D01*
X195720Y14981D01*
X195737Y15017D01*
X195759Y15134D01*
X195789Y15249D01*
X195793Y15310D01*
X195797Y15330D01*
X195795Y15350D01*
X195799Y15410D01*
X195799Y65410D01*
X195784Y65528D01*
X195777Y65647D01*
X195764Y65685D01*
X195759Y65726D01*
X195716Y65836D01*
X195679Y65949D01*
X195657Y65984D01*
X195642Y66021D01*
X195573Y66117D01*
X195509Y66218D01*
X195479Y66246D01*
X195456Y66279D01*
X195364Y66355D01*
X195277Y66436D01*
X195242Y66456D01*
X195211Y66481D01*
X195103Y66532D01*
X194999Y66590D01*
X194959Y66600D01*
X194923Y66617D01*
X194806Y66639D01*
X194691Y66669D01*
X194631Y66673D01*
X194611Y66677D01*
X194590Y66675D01*
X194530Y66679D01*
X154530Y66679D01*
X154412Y66664D01*
X154293Y66657D01*
X154255Y66644D01*
X154214Y66639D01*
X154104Y66596D01*
X153991Y66559D01*
X153956Y66537D01*
X153919Y66522D01*
X153823Y66453D01*
X153722Y66389D01*
X153694Y66359D01*
X153661Y66336D01*
X153586Y66244D01*
X153504Y66157D01*
X153484Y66122D01*
X153459Y66091D01*
X153408Y65983D01*
X153350Y65879D01*
X153340Y65839D01*
X153323Y65803D01*
X153301Y65686D01*
X153271Y65571D01*
X153267Y65511D01*
X153263Y65491D01*
X153265Y65470D01*
X153261Y65410D01*
X153261Y15410D01*
X153276Y15292D01*
X153283Y15173D01*
X153296Y15135D01*
X153301Y15094D01*
X153344Y14984D01*
X153381Y14871D01*
X153403Y14836D01*
X153418Y14799D01*
X153488Y14703D01*
X153551Y14602D01*
X153581Y14574D01*
X153604Y14541D01*
X153696Y14466D01*
X153783Y14384D01*
X153818Y14364D01*
X153849Y14339D01*
X153957Y14288D01*
X154061Y14230D01*
X154101Y14220D01*
X154137Y14203D01*
X154254Y14181D01*
X154369Y14151D01*
X154430Y14147D01*
X154450Y14143D01*
X154470Y14145D01*
X154530Y14141D01*
X194530Y14141D01*
X194648Y14156D01*
G37*
D10*
X624530Y36210D03*
X724530Y36210D03*
X224530Y45410D03*
X124530Y45410D03*
D11*
X458460Y630330D03*
X458460Y668430D03*
X459730Y512690D03*
X459730Y550790D03*
D12*
X470800Y1391500D03*
D13*
X286600Y454800D03*
X286600Y429400D03*
X214900Y898300D03*
X214900Y872900D03*
X220200Y685100D03*
X220200Y659700D03*
X352700Y1046500D03*
X352700Y1021100D03*
X682700Y605500D03*
X682700Y630900D03*
X482800Y1227900D03*
X482800Y1253300D03*
X312500Y1201800D03*
X312500Y1176400D03*
X699600Y379600D03*
X699600Y405000D03*
X26300Y299300D03*
X26300Y273900D03*
X574100Y909100D03*
X574100Y934500D03*
D12*
X381900Y1391500D03*
D14*
X335100Y429600D02*
X323900Y429600D01*
X323900Y440800D01*
X335100Y440800D01*
X335100Y429600D01*
X335100Y432260D02*
X323900Y432260D01*
X323900Y434920D02*
X335100Y434920D01*
X335100Y437580D02*
X323900Y437580D01*
X323900Y440240D02*
X335100Y440240D01*
X344090Y429600D02*
X355290Y429600D01*
X344090Y429600D02*
X344090Y440800D01*
X355290Y440800D01*
X355290Y429600D01*
X355290Y432260D02*
X344090Y432260D01*
X344090Y434920D02*
X355290Y434920D01*
X355290Y437580D02*
X344090Y437580D01*
X344090Y440240D02*
X355290Y440240D01*
X256000Y863200D02*
X244800Y863200D01*
X244800Y874400D01*
X256000Y874400D01*
X256000Y863200D01*
X256000Y865860D02*
X244800Y865860D01*
X244800Y868520D02*
X256000Y868520D01*
X256000Y871180D02*
X244800Y871180D01*
X244800Y873840D02*
X256000Y873840D01*
X264990Y863200D02*
X276190Y863200D01*
X264990Y863200D02*
X264990Y874400D01*
X276190Y874400D01*
X276190Y863200D01*
X276190Y865860D02*
X264990Y865860D01*
X264990Y868520D02*
X276190Y868520D01*
X276190Y871180D02*
X264990Y871180D01*
X264990Y873840D02*
X276190Y873840D01*
X261300Y650000D02*
X250100Y650000D01*
X250100Y661200D01*
X261300Y661200D01*
X261300Y650000D01*
X261300Y652660D02*
X250100Y652660D01*
X250100Y655320D02*
X261300Y655320D01*
X261300Y657980D02*
X250100Y657980D01*
X250100Y660640D02*
X261300Y660640D01*
X270290Y650000D02*
X281490Y650000D01*
X270290Y650000D02*
X270290Y661200D01*
X281490Y661200D01*
X281490Y650000D01*
X281490Y652660D02*
X270290Y652660D01*
X270290Y655320D02*
X281490Y655320D01*
X281490Y657980D02*
X270290Y657980D01*
X270290Y660640D02*
X281490Y660640D01*
X349300Y984600D02*
X349300Y995800D01*
X360500Y995800D01*
X360500Y984600D01*
X349300Y984600D01*
X349300Y987260D02*
X360500Y987260D01*
X360500Y989920D02*
X349300Y989920D01*
X349300Y992580D02*
X360500Y992580D01*
X360500Y995240D02*
X349300Y995240D01*
X349300Y975610D02*
X349300Y964410D01*
X349300Y975610D02*
X360500Y975610D01*
X360500Y964410D01*
X349300Y964410D01*
X349300Y967070D02*
X360500Y967070D01*
X360500Y969730D02*
X349300Y969730D01*
X349300Y972390D02*
X360500Y972390D01*
X360500Y975050D02*
X349300Y975050D01*
X641600Y627900D02*
X652800Y627900D01*
X652800Y616700D01*
X641600Y616700D01*
X641600Y627900D01*
X641600Y619360D02*
X652800Y619360D01*
X652800Y622020D02*
X641600Y622020D01*
X641600Y624680D02*
X652800Y624680D01*
X652800Y627340D02*
X641600Y627340D01*
X632610Y627900D02*
X621410Y627900D01*
X632610Y627900D02*
X632610Y616700D01*
X621410Y616700D01*
X621410Y627900D01*
X621410Y619360D02*
X632610Y619360D01*
X632610Y622020D02*
X621410Y622020D01*
X621410Y624680D02*
X632610Y624680D01*
X632610Y627340D02*
X621410Y627340D01*
X486200Y1278600D02*
X486200Y1289800D01*
X486200Y1278600D02*
X475000Y1278600D01*
X475000Y1289800D01*
X486200Y1289800D01*
X486200Y1281260D02*
X475000Y1281260D01*
X475000Y1283920D02*
X486200Y1283920D01*
X486200Y1286580D02*
X475000Y1286580D01*
X475000Y1289240D02*
X486200Y1289240D01*
X486200Y1298790D02*
X486200Y1309990D01*
X486200Y1298790D02*
X475000Y1298790D01*
X475000Y1309990D01*
X486200Y1309990D01*
X486200Y1301450D02*
X475000Y1301450D01*
X475000Y1304110D02*
X486200Y1304110D01*
X486200Y1306770D02*
X475000Y1306770D01*
X475000Y1309430D02*
X486200Y1309430D01*
X333100Y1181400D02*
X333100Y1170200D01*
X333100Y1181400D02*
X344300Y1181400D01*
X344300Y1170200D01*
X333100Y1170200D01*
X333100Y1172860D02*
X344300Y1172860D01*
X344300Y1175520D02*
X333100Y1175520D01*
X333100Y1178180D02*
X344300Y1178180D01*
X344300Y1180840D02*
X333100Y1180840D01*
X333100Y1161210D02*
X333100Y1150010D01*
X333100Y1161210D02*
X344300Y1161210D01*
X344300Y1150010D01*
X333100Y1150010D01*
X333100Y1152670D02*
X344300Y1152670D01*
X344300Y1155330D02*
X333100Y1155330D01*
X333100Y1157990D02*
X344300Y1157990D01*
X344300Y1160650D02*
X333100Y1160650D01*
X703000Y441500D02*
X703000Y430300D01*
X691800Y430300D01*
X691800Y441500D01*
X703000Y441500D01*
X703000Y432960D02*
X691800Y432960D01*
X691800Y435620D02*
X703000Y435620D01*
X703000Y438280D02*
X691800Y438280D01*
X691800Y440940D02*
X703000Y440940D01*
X703000Y450490D02*
X703000Y461690D01*
X703000Y450490D02*
X691800Y450490D01*
X691800Y461690D01*
X703000Y461690D01*
X703000Y453150D02*
X691800Y453150D01*
X691800Y455810D02*
X703000Y455810D01*
X703000Y458470D02*
X691800Y458470D01*
X691800Y461130D02*
X703000Y461130D01*
X67400Y264200D02*
X56200Y264200D01*
X56200Y275400D01*
X67400Y275400D01*
X67400Y264200D01*
X67400Y266860D02*
X56200Y266860D01*
X56200Y269520D02*
X67400Y269520D01*
X67400Y272180D02*
X56200Y272180D01*
X56200Y274840D02*
X67400Y274840D01*
X76390Y264200D02*
X87590Y264200D01*
X76390Y264200D02*
X76390Y275400D01*
X87590Y275400D01*
X87590Y264200D01*
X87590Y266860D02*
X76390Y266860D01*
X76390Y269520D02*
X87590Y269520D01*
X87590Y272180D02*
X76390Y272180D01*
X76390Y274840D02*
X87590Y274840D01*
X577500Y959800D02*
X577500Y971000D01*
X577500Y959800D02*
X566300Y959800D01*
X566300Y971000D01*
X577500Y971000D01*
X577500Y962460D02*
X566300Y962460D01*
X566300Y965120D02*
X577500Y965120D01*
X577500Y967780D02*
X566300Y967780D01*
X566300Y970440D02*
X577500Y970440D01*
X577500Y979990D02*
X577500Y991190D01*
X577500Y979990D02*
X566300Y979990D01*
X566300Y991190D01*
X577500Y991190D01*
X577500Y982650D02*
X566300Y982650D01*
X566300Y985310D02*
X577500Y985310D01*
X577500Y987970D02*
X566300Y987970D01*
X566300Y990630D02*
X577500Y990630D01*
D15*
X542000Y456090D02*
X697400Y456090D01*
X338700Y1115700D02*
X338700Y1155610D01*
X338700Y1115700D02*
X181000Y958000D01*
X181000Y886818D01*
X212192Y855626D01*
X212192Y850553D02*
X212599Y846075D01*
X212192Y845586D01*
X212192Y775192D01*
X131000Y694000D02*
X131000Y553000D01*
X104000Y526000D01*
X104000Y331000D01*
D16*
X104000Y331000D03*
X105000Y284000D03*
D15*
X381600Y284000D01*
X407000Y309400D01*
X407000Y508000D01*
X212192Y850553D02*
X212192Y855626D01*
X212192Y775192D02*
X131000Y694000D01*
D16*
X516000Y677000D03*
X516000Y751000D03*
D15*
X516000Y851600D01*
X541400Y877000D01*
X589600Y877000D01*
X615000Y902400D01*
X615000Y960190D01*
X589600Y985590D01*
X571900Y985590D01*
X516000Y677000D02*
X516000Y599000D01*
X516000Y512000D01*
X516000Y482090D01*
X542000Y456090D01*
X515310Y512690D02*
X459730Y512690D01*
X515310Y512690D02*
X516000Y512000D01*
X407000Y508000D02*
X407000Y575000D01*
X431000Y599000D01*
X516000Y599000D01*
X224530Y231470D02*
X224530Y45410D01*
X224530Y231470D02*
X224000Y232000D01*
D16*
X224000Y232000D03*
X224000Y324000D03*
D15*
X324290Y324000D01*
X349690Y349400D01*
X349690Y435200D01*
X224000Y324000D02*
X149400Y324000D01*
X124000Y349400D01*
X124000Y492000D01*
X156000Y524000D01*
X242000Y524000D01*
X275890Y557890D02*
X275890Y655600D01*
X275890Y557890D02*
X242000Y524000D01*
X270590Y800590D02*
X270590Y868800D01*
X156000Y686000D02*
X156000Y524000D01*
X156000Y686000D02*
X270590Y800590D01*
D16*
X395000Y656000D03*
X326000Y656000D03*
D15*
X276290Y656000D01*
X275890Y655600D01*
X404670Y630330D02*
X458460Y630330D01*
X395000Y640000D02*
X395000Y656000D01*
X395000Y640000D02*
X404670Y630330D01*
D17*
X381900Y1202000D02*
X381900Y1391500D01*
X381900Y1202000D02*
X381900Y1046000D01*
X381900Y897000D01*
X381900Y742000D01*
X381900Y685000D02*
X381900Y455000D01*
X380600Y898300D02*
X214900Y898300D01*
X380600Y898300D02*
X381900Y897000D01*
X381400Y1046500D02*
X352700Y1046500D01*
X381400Y1046500D02*
X381900Y1046000D01*
X381700Y1201800D02*
X312500Y1201800D01*
X381700Y1201800D02*
X381900Y1202000D01*
X356500Y299300D02*
X26300Y299300D01*
X356500Y299300D02*
X381900Y324700D01*
X381900Y455000D01*
X381700Y454800D01*
X286600Y454800D01*
X699600Y379600D02*
X730600Y379600D01*
X741000Y390000D01*
X741000Y495000D01*
X682700Y553300D02*
X682700Y605500D01*
X682700Y553300D02*
X741000Y495000D01*
X482800Y909000D02*
X482800Y1227900D01*
X482800Y909000D02*
X482800Y707800D01*
X724530Y293470D02*
X724530Y36210D01*
X724530Y293470D02*
X698000Y320000D01*
X698000Y378000D01*
X699600Y379600D01*
X704600Y605500D02*
X682700Y605500D01*
X704600Y605500D02*
X730000Y630900D01*
X730000Y675600D01*
X704600Y701000D01*
X499000Y701000D01*
X489600Y701000D01*
X482800Y707800D01*
X482900Y909100D02*
X574100Y909100D01*
X482900Y909100D02*
X482800Y909000D01*
X277100Y742000D02*
X220200Y685100D01*
X277100Y742000D02*
X381900Y742000D01*
X424570Y668430D02*
X458460Y668430D01*
X408000Y685000D02*
X381900Y685000D01*
X408000Y685000D02*
X424570Y668430D01*
X458460Y668430D02*
X490430Y668430D01*
X499000Y677000D02*
X499000Y701000D01*
X499000Y677000D02*
X490430Y668430D01*
X381900Y685000D02*
X381900Y742000D01*
D15*
X301400Y429400D02*
X286600Y429400D01*
X307200Y435200D02*
X329500Y435200D01*
X307200Y435200D02*
X301400Y429400D01*
X255700Y655600D02*
X240400Y655600D01*
X235000Y661000D01*
X221500Y661000D01*
X220200Y659700D01*
X354900Y1018900D02*
X352700Y1021100D01*
X354900Y1018900D02*
X354900Y990200D01*
X647200Y622300D02*
X659300Y622300D01*
X667900Y630900D02*
X682700Y630900D01*
X667900Y630900D02*
X659300Y622300D01*
X482800Y1253300D02*
X480600Y1255500D01*
X480600Y1284200D01*
X338100Y1176400D02*
X312500Y1176400D01*
X338100Y1176400D02*
X338700Y1175800D01*
X699600Y433700D02*
X699600Y405000D01*
X699600Y433700D02*
X697400Y435900D01*
X40100Y273900D02*
X26300Y273900D01*
X40100Y273900D02*
X45000Y269000D01*
X61000Y269000D01*
X61800Y269800D01*
X574100Y934500D02*
X574100Y947900D01*
X571900Y950100D02*
X571900Y965400D01*
X571900Y950100D02*
X574100Y947900D01*
X228100Y872900D02*
X214900Y872900D01*
X232200Y868800D02*
X250400Y868800D01*
X232200Y868800D02*
X228100Y872900D01*
X100200Y269800D02*
X81990Y269800D01*
X124530Y245470D02*
X124530Y242000D01*
X124530Y45410D01*
X124530Y245470D02*
X100200Y269800D01*
X124530Y242000D02*
X150530Y268000D01*
X491000Y581000D02*
X497000Y581000D01*
X357000Y268000D02*
X150530Y268000D01*
D16*
X497000Y581000D03*
X547000Y581000D03*
D15*
X354900Y920100D02*
X354900Y970010D01*
X354900Y920100D02*
X356000Y919000D01*
D16*
X356000Y919000D03*
X356000Y703000D03*
D15*
X356000Y478000D01*
D16*
X356000Y478000D03*
X357000Y268000D03*
D15*
X547000Y581000D02*
X547000Y676000D01*
D16*
X547000Y676000D03*
X547000Y934000D03*
D15*
X547000Y1090000D01*
X524000Y1113000D01*
X524000Y1278990D01*
X498600Y1304390D01*
X480600Y1304390D01*
X390600Y268000D02*
X357000Y268000D01*
X390600Y268000D02*
X416000Y293400D01*
X416000Y565000D01*
X431000Y580000D01*
X490000Y580000D02*
X491000Y581000D01*
X460000Y580000D02*
X431000Y580000D01*
X460000Y580000D02*
X490000Y580000D01*
X547000Y581000D02*
X622000Y581000D01*
X628000Y587000D01*
X628000Y621310D01*
X627010Y622300D01*
X459730Y579730D02*
X459730Y550790D01*
X459730Y579730D02*
X460000Y580000D01*
D16*
X466000Y720000D03*
X466000Y473000D03*
D15*
X496000Y473000D01*
X624530Y344470D02*
X624530Y36210D01*
X624530Y344470D02*
X496000Y473000D01*
X470800Y1351000D02*
X470800Y1391500D01*
X466000Y1346200D02*
X466000Y720000D01*
X466000Y1346200D02*
X470800Y1351000D01*
M02*
