G04 EAGLE Gerber RS-274X export*
G75*
%MOMM*%
%FSLAX34Y34*%
%LPD*%
%INSilkscreen Top*%
%IPPOS*%
%AMOC8*
5,1,8,0,0,1.08239X$1,22.5*%
G01*
%ADD10C,0.152400*%
%ADD11C,0.101600*%
%ADD12C,0.127000*%


D10*
X458100Y1391500D02*
X458104Y1391812D01*
X458115Y1392123D01*
X458134Y1392434D01*
X458161Y1392745D01*
X458196Y1393055D01*
X458237Y1393363D01*
X458287Y1393671D01*
X458344Y1393978D01*
X458409Y1394283D01*
X458481Y1394586D01*
X458560Y1394887D01*
X458647Y1395187D01*
X458741Y1395484D01*
X458842Y1395779D01*
X458951Y1396071D01*
X459067Y1396360D01*
X459190Y1396647D01*
X459319Y1396930D01*
X459456Y1397210D01*
X459600Y1397487D01*
X459750Y1397760D01*
X459907Y1398029D01*
X460070Y1398294D01*
X460240Y1398556D01*
X460417Y1398813D01*
X460599Y1399065D01*
X460788Y1399313D01*
X460983Y1399557D01*
X461183Y1399795D01*
X461390Y1400029D01*
X461602Y1400257D01*
X461820Y1400480D01*
X462043Y1400698D01*
X462271Y1400910D01*
X462505Y1401117D01*
X462743Y1401317D01*
X462987Y1401512D01*
X463235Y1401701D01*
X463487Y1401883D01*
X463744Y1402060D01*
X464006Y1402230D01*
X464271Y1402393D01*
X464540Y1402550D01*
X464813Y1402700D01*
X465090Y1402844D01*
X465370Y1402981D01*
X465653Y1403110D01*
X465940Y1403233D01*
X466229Y1403349D01*
X466521Y1403458D01*
X466816Y1403559D01*
X467113Y1403653D01*
X467413Y1403740D01*
X467714Y1403819D01*
X468017Y1403891D01*
X468322Y1403956D01*
X468629Y1404013D01*
X468937Y1404063D01*
X469245Y1404104D01*
X469555Y1404139D01*
X469866Y1404166D01*
X470177Y1404185D01*
X470488Y1404196D01*
X470800Y1404200D01*
X471112Y1404196D01*
X471423Y1404185D01*
X471734Y1404166D01*
X472045Y1404139D01*
X472355Y1404104D01*
X472663Y1404063D01*
X472971Y1404013D01*
X473278Y1403956D01*
X473583Y1403891D01*
X473886Y1403819D01*
X474187Y1403740D01*
X474487Y1403653D01*
X474784Y1403559D01*
X475079Y1403458D01*
X475371Y1403349D01*
X475660Y1403233D01*
X475947Y1403110D01*
X476230Y1402981D01*
X476510Y1402844D01*
X476787Y1402700D01*
X477060Y1402550D01*
X477329Y1402393D01*
X477594Y1402230D01*
X477856Y1402060D01*
X478113Y1401883D01*
X478365Y1401701D01*
X478613Y1401512D01*
X478857Y1401317D01*
X479095Y1401117D01*
X479329Y1400910D01*
X479557Y1400698D01*
X479780Y1400480D01*
X479998Y1400257D01*
X480210Y1400029D01*
X480417Y1399795D01*
X480617Y1399557D01*
X480812Y1399313D01*
X481001Y1399065D01*
X481183Y1398813D01*
X481360Y1398556D01*
X481530Y1398294D01*
X481693Y1398029D01*
X481850Y1397760D01*
X482000Y1397487D01*
X482144Y1397210D01*
X482281Y1396930D01*
X482410Y1396647D01*
X482533Y1396360D01*
X482649Y1396071D01*
X482758Y1395779D01*
X482859Y1395484D01*
X482953Y1395187D01*
X483040Y1394887D01*
X483119Y1394586D01*
X483191Y1394283D01*
X483256Y1393978D01*
X483313Y1393671D01*
X483363Y1393363D01*
X483404Y1393055D01*
X483439Y1392745D01*
X483466Y1392434D01*
X483485Y1392123D01*
X483496Y1391812D01*
X483500Y1391500D01*
X483496Y1391188D01*
X483485Y1390877D01*
X483466Y1390566D01*
X483439Y1390255D01*
X483404Y1389945D01*
X483363Y1389637D01*
X483313Y1389329D01*
X483256Y1389022D01*
X483191Y1388717D01*
X483119Y1388414D01*
X483040Y1388113D01*
X482953Y1387813D01*
X482859Y1387516D01*
X482758Y1387221D01*
X482649Y1386929D01*
X482533Y1386640D01*
X482410Y1386353D01*
X482281Y1386070D01*
X482144Y1385790D01*
X482000Y1385513D01*
X481850Y1385240D01*
X481693Y1384971D01*
X481530Y1384706D01*
X481360Y1384444D01*
X481183Y1384187D01*
X481001Y1383935D01*
X480812Y1383687D01*
X480617Y1383443D01*
X480417Y1383205D01*
X480210Y1382971D01*
X479998Y1382743D01*
X479780Y1382520D01*
X479557Y1382302D01*
X479329Y1382090D01*
X479095Y1381883D01*
X478857Y1381683D01*
X478613Y1381488D01*
X478365Y1381299D01*
X478113Y1381117D01*
X477856Y1380940D01*
X477594Y1380770D01*
X477329Y1380607D01*
X477060Y1380450D01*
X476787Y1380300D01*
X476510Y1380156D01*
X476230Y1380019D01*
X475947Y1379890D01*
X475660Y1379767D01*
X475371Y1379651D01*
X475079Y1379542D01*
X474784Y1379441D01*
X474487Y1379347D01*
X474187Y1379260D01*
X473886Y1379181D01*
X473583Y1379109D01*
X473278Y1379044D01*
X472971Y1378987D01*
X472663Y1378937D01*
X472355Y1378896D01*
X472045Y1378861D01*
X471734Y1378834D01*
X471423Y1378815D01*
X471112Y1378804D01*
X470800Y1378800D01*
X470488Y1378804D01*
X470177Y1378815D01*
X469866Y1378834D01*
X469555Y1378861D01*
X469245Y1378896D01*
X468937Y1378937D01*
X468629Y1378987D01*
X468322Y1379044D01*
X468017Y1379109D01*
X467714Y1379181D01*
X467413Y1379260D01*
X467113Y1379347D01*
X466816Y1379441D01*
X466521Y1379542D01*
X466229Y1379651D01*
X465940Y1379767D01*
X465653Y1379890D01*
X465370Y1380019D01*
X465090Y1380156D01*
X464813Y1380300D01*
X464540Y1380450D01*
X464271Y1380607D01*
X464006Y1380770D01*
X463744Y1380940D01*
X463487Y1381117D01*
X463235Y1381299D01*
X462987Y1381488D01*
X462743Y1381683D01*
X462505Y1381883D01*
X462271Y1382090D01*
X462043Y1382302D01*
X461820Y1382520D01*
X461602Y1382743D01*
X461390Y1382971D01*
X461183Y1383205D01*
X460983Y1383443D01*
X460788Y1383687D01*
X460599Y1383935D01*
X460417Y1384187D01*
X460240Y1384444D01*
X460070Y1384706D01*
X459907Y1384971D01*
X459750Y1385240D01*
X459600Y1385513D01*
X459456Y1385790D01*
X459319Y1386070D01*
X459190Y1386353D01*
X459067Y1386640D01*
X458951Y1386929D01*
X458842Y1387221D01*
X458741Y1387516D01*
X458647Y1387813D01*
X458560Y1388113D01*
X458481Y1388414D01*
X458409Y1388717D01*
X458344Y1389022D01*
X458287Y1389329D01*
X458237Y1389637D01*
X458196Y1389945D01*
X458161Y1390255D01*
X458134Y1390566D01*
X458115Y1390877D01*
X458104Y1391188D01*
X458100Y1391500D01*
D11*
X462846Y1415231D02*
X466092Y1415231D01*
X466092Y1415232D02*
X466205Y1415230D01*
X466318Y1415224D01*
X466431Y1415214D01*
X466544Y1415200D01*
X466656Y1415183D01*
X466767Y1415161D01*
X466877Y1415136D01*
X466987Y1415106D01*
X467095Y1415073D01*
X467202Y1415036D01*
X467308Y1414996D01*
X467412Y1414951D01*
X467515Y1414903D01*
X467616Y1414852D01*
X467715Y1414797D01*
X467812Y1414739D01*
X467907Y1414677D01*
X468000Y1414612D01*
X468090Y1414544D01*
X468178Y1414473D01*
X468264Y1414398D01*
X468347Y1414321D01*
X468427Y1414241D01*
X468504Y1414158D01*
X468579Y1414072D01*
X468650Y1413984D01*
X468718Y1413894D01*
X468783Y1413801D01*
X468845Y1413706D01*
X468903Y1413609D01*
X468958Y1413510D01*
X469009Y1413409D01*
X469057Y1413306D01*
X469102Y1413202D01*
X469142Y1413096D01*
X469179Y1412989D01*
X469212Y1412881D01*
X469242Y1412771D01*
X469267Y1412661D01*
X469289Y1412550D01*
X469306Y1412438D01*
X469320Y1412325D01*
X469330Y1412212D01*
X469336Y1412099D01*
X469338Y1411986D01*
X469336Y1411873D01*
X469330Y1411760D01*
X469320Y1411647D01*
X469306Y1411534D01*
X469289Y1411422D01*
X469267Y1411311D01*
X469242Y1411201D01*
X469212Y1411091D01*
X469179Y1410983D01*
X469142Y1410876D01*
X469102Y1410770D01*
X469057Y1410666D01*
X469009Y1410563D01*
X468958Y1410462D01*
X468903Y1410363D01*
X468845Y1410266D01*
X468783Y1410171D01*
X468718Y1410078D01*
X468650Y1409988D01*
X468579Y1409900D01*
X468504Y1409814D01*
X468427Y1409731D01*
X468347Y1409651D01*
X468264Y1409574D01*
X468178Y1409499D01*
X468090Y1409428D01*
X468000Y1409360D01*
X467907Y1409295D01*
X467812Y1409233D01*
X467715Y1409175D01*
X467616Y1409120D01*
X467515Y1409069D01*
X467412Y1409021D01*
X467308Y1408976D01*
X467202Y1408936D01*
X467095Y1408899D01*
X466987Y1408866D01*
X466877Y1408836D01*
X466767Y1408811D01*
X466656Y1408789D01*
X466544Y1408772D01*
X466431Y1408758D01*
X466318Y1408748D01*
X466205Y1408742D01*
X466092Y1408740D01*
X462846Y1408740D01*
X462846Y1420424D01*
X466092Y1420424D01*
X466193Y1420422D01*
X466293Y1420416D01*
X466393Y1420406D01*
X466493Y1420393D01*
X466592Y1420375D01*
X466691Y1420354D01*
X466788Y1420329D01*
X466885Y1420300D01*
X466980Y1420267D01*
X467074Y1420231D01*
X467166Y1420191D01*
X467257Y1420148D01*
X467346Y1420101D01*
X467433Y1420051D01*
X467519Y1419997D01*
X467602Y1419940D01*
X467682Y1419880D01*
X467761Y1419817D01*
X467837Y1419750D01*
X467910Y1419681D01*
X467980Y1419609D01*
X468048Y1419535D01*
X468113Y1419458D01*
X468174Y1419378D01*
X468233Y1419296D01*
X468288Y1419212D01*
X468340Y1419126D01*
X468389Y1419038D01*
X468434Y1418948D01*
X468476Y1418856D01*
X468514Y1418763D01*
X468548Y1418668D01*
X468579Y1418573D01*
X468606Y1418476D01*
X468629Y1418378D01*
X468649Y1418279D01*
X468664Y1418179D01*
X468676Y1418079D01*
X468684Y1417979D01*
X468688Y1417878D01*
X468688Y1417778D01*
X468684Y1417677D01*
X468676Y1417577D01*
X468664Y1417477D01*
X468649Y1417377D01*
X468629Y1417278D01*
X468606Y1417180D01*
X468579Y1417083D01*
X468548Y1416988D01*
X468514Y1416893D01*
X468476Y1416800D01*
X468434Y1416708D01*
X468389Y1416618D01*
X468340Y1416530D01*
X468288Y1416444D01*
X468233Y1416360D01*
X468174Y1416278D01*
X468113Y1416198D01*
X468048Y1416121D01*
X467980Y1416047D01*
X467910Y1415975D01*
X467837Y1415906D01*
X467761Y1415839D01*
X467682Y1415776D01*
X467602Y1415716D01*
X467519Y1415659D01*
X467433Y1415605D01*
X467346Y1415555D01*
X467257Y1415508D01*
X467166Y1415465D01*
X467074Y1415425D01*
X466980Y1415389D01*
X466885Y1415356D01*
X466788Y1415327D01*
X466691Y1415302D01*
X466592Y1415281D01*
X466493Y1415263D01*
X466393Y1415250D01*
X466293Y1415240D01*
X466193Y1415234D01*
X466092Y1415232D01*
D12*
X256120Y464960D02*
X256120Y459880D01*
X253580Y462420D02*
X258660Y462420D01*
D10*
X240880Y467500D02*
X197700Y467500D01*
X240880Y467500D02*
X248500Y467500D01*
X248500Y454800D01*
X248500Y429400D01*
X248500Y416700D01*
X240880Y416700D01*
X197700Y416700D01*
X248500Y454800D02*
X273900Y454800D01*
X273900Y429400D02*
X248500Y429400D01*
X197700Y416700D02*
X197081Y416708D01*
X196463Y416730D01*
X195846Y416768D01*
X195230Y416820D01*
X194615Y416888D01*
X194002Y416971D01*
X193391Y417068D01*
X192783Y417181D01*
X192177Y417308D01*
X191575Y417450D01*
X190977Y417606D01*
X190382Y417777D01*
X189792Y417962D01*
X189207Y418162D01*
X188626Y418376D01*
X188051Y418604D01*
X187482Y418846D01*
X186919Y419102D01*
X186362Y419371D01*
X185812Y419654D01*
X185269Y419950D01*
X184733Y420259D01*
X184205Y420581D01*
X183685Y420916D01*
X183173Y421264D01*
X182670Y421624D01*
X182176Y421996D01*
X181691Y422380D01*
X181216Y422776D01*
X180750Y423183D01*
X180294Y423601D01*
X179849Y424030D01*
X179414Y424471D01*
X178991Y424921D01*
X178578Y425382D01*
X178176Y425852D01*
X177787Y426333D01*
X177408Y426822D01*
X177042Y427321D01*
X176689Y427828D01*
X176347Y428344D01*
X176019Y428868D01*
X175703Y429400D01*
X175400Y429939D01*
X175111Y430486D01*
X174835Y431040D01*
X174572Y431600D01*
X174323Y432166D01*
X174088Y432738D01*
X173867Y433316D01*
X173660Y433899D01*
X173468Y434487D01*
X173290Y435079D01*
X173126Y435675D01*
X172977Y436276D01*
X172842Y436880D01*
X172723Y437486D01*
X172618Y438096D01*
X172528Y438708D01*
X172452Y439322D01*
X172392Y439938D01*
X172347Y440555D01*
X172317Y441172D01*
X172302Y441791D01*
X172302Y442409D01*
X172317Y443028D01*
X172347Y443645D01*
X172392Y444262D01*
X172452Y444878D01*
X172528Y445492D01*
X172618Y446104D01*
X172723Y446714D01*
X172842Y447320D01*
X172977Y447924D01*
X173126Y448525D01*
X173290Y449121D01*
X173468Y449713D01*
X173660Y450301D01*
X173867Y450884D01*
X174088Y451462D01*
X174323Y452034D01*
X174572Y452600D01*
X174835Y453160D01*
X175111Y453714D01*
X175400Y454261D01*
X175703Y454800D01*
X176019Y455332D01*
X176347Y455856D01*
X176689Y456372D01*
X177042Y456879D01*
X177408Y457378D01*
X177787Y457867D01*
X178176Y458348D01*
X178578Y458818D01*
X178991Y459279D01*
X179414Y459729D01*
X179849Y460170D01*
X180294Y460599D01*
X180750Y461017D01*
X181216Y461424D01*
X181691Y461820D01*
X182176Y462204D01*
X182670Y462576D01*
X183173Y462936D01*
X183685Y463284D01*
X184205Y463619D01*
X184733Y463941D01*
X185269Y464250D01*
X185812Y464546D01*
X186362Y464829D01*
X186919Y465098D01*
X187482Y465354D01*
X188051Y465596D01*
X188626Y465824D01*
X189207Y466038D01*
X189792Y466238D01*
X190382Y466423D01*
X190977Y466594D01*
X191575Y466750D01*
X192177Y466892D01*
X192783Y467019D01*
X193391Y467132D01*
X194002Y467229D01*
X194615Y467312D01*
X195230Y467380D01*
X195846Y467432D01*
X196463Y467470D01*
X197081Y467492D01*
X197700Y467500D01*
X240880Y467500D02*
X240880Y416700D01*
D11*
X172046Y470040D02*
X172046Y481724D01*
X172046Y470040D02*
X177239Y470040D01*
X181952Y470040D02*
X187145Y470040D01*
X181952Y470040D02*
X181952Y481724D01*
X187145Y481724D01*
X185847Y476531D02*
X181952Y476531D01*
X191835Y481724D02*
X191835Y470040D01*
X191835Y481724D02*
X195081Y481724D01*
X195194Y481722D01*
X195307Y481716D01*
X195420Y481706D01*
X195533Y481692D01*
X195645Y481675D01*
X195756Y481653D01*
X195866Y481628D01*
X195976Y481598D01*
X196084Y481565D01*
X196191Y481528D01*
X196297Y481488D01*
X196401Y481443D01*
X196504Y481395D01*
X196605Y481344D01*
X196704Y481289D01*
X196801Y481231D01*
X196896Y481169D01*
X196989Y481104D01*
X197079Y481036D01*
X197167Y480965D01*
X197253Y480890D01*
X197336Y480813D01*
X197416Y480733D01*
X197493Y480650D01*
X197568Y480564D01*
X197639Y480476D01*
X197707Y480386D01*
X197772Y480293D01*
X197834Y480198D01*
X197892Y480101D01*
X197947Y480002D01*
X197998Y479901D01*
X198046Y479798D01*
X198091Y479694D01*
X198131Y479588D01*
X198168Y479481D01*
X198201Y479373D01*
X198231Y479263D01*
X198256Y479153D01*
X198278Y479042D01*
X198295Y478930D01*
X198309Y478817D01*
X198319Y478704D01*
X198325Y478591D01*
X198327Y478478D01*
X198327Y473286D01*
X198325Y473173D01*
X198319Y473060D01*
X198309Y472947D01*
X198295Y472834D01*
X198278Y472722D01*
X198256Y472611D01*
X198231Y472501D01*
X198201Y472391D01*
X198168Y472283D01*
X198131Y472176D01*
X198091Y472070D01*
X198046Y471966D01*
X197998Y471863D01*
X197947Y471762D01*
X197892Y471663D01*
X197834Y471566D01*
X197772Y471471D01*
X197707Y471378D01*
X197639Y471288D01*
X197568Y471200D01*
X197493Y471114D01*
X197416Y471031D01*
X197336Y470951D01*
X197253Y470874D01*
X197167Y470799D01*
X197079Y470728D01*
X196989Y470660D01*
X196896Y470595D01*
X196801Y470533D01*
X196704Y470475D01*
X196605Y470420D01*
X196504Y470369D01*
X196401Y470321D01*
X196297Y470276D01*
X196191Y470236D01*
X196084Y470199D01*
X195976Y470166D01*
X195866Y470136D01*
X195756Y470111D01*
X195645Y470089D01*
X195533Y470072D01*
X195420Y470058D01*
X195307Y470048D01*
X195194Y470042D01*
X195081Y470040D01*
X191835Y470040D01*
X203646Y479128D02*
X206892Y481724D01*
X206892Y470040D01*
X210137Y470040D02*
X203646Y470040D01*
D12*
X184420Y903380D02*
X184420Y908460D01*
X181880Y905920D02*
X186960Y905920D01*
D10*
X169180Y911000D02*
X126000Y911000D01*
X169180Y911000D02*
X176800Y911000D01*
X176800Y898300D01*
X176800Y872900D01*
X176800Y860200D01*
X169180Y860200D01*
X126000Y860200D01*
X176800Y898300D02*
X202200Y898300D01*
X202200Y872900D02*
X176800Y872900D01*
X126000Y860200D02*
X125381Y860208D01*
X124763Y860230D01*
X124146Y860268D01*
X123530Y860320D01*
X122915Y860388D01*
X122302Y860471D01*
X121691Y860568D01*
X121083Y860681D01*
X120477Y860808D01*
X119875Y860950D01*
X119277Y861106D01*
X118682Y861277D01*
X118092Y861462D01*
X117507Y861662D01*
X116926Y861876D01*
X116351Y862104D01*
X115782Y862346D01*
X115219Y862602D01*
X114662Y862871D01*
X114112Y863154D01*
X113569Y863450D01*
X113033Y863759D01*
X112505Y864081D01*
X111985Y864416D01*
X111473Y864764D01*
X110970Y865124D01*
X110476Y865496D01*
X109991Y865880D01*
X109516Y866276D01*
X109050Y866683D01*
X108594Y867101D01*
X108149Y867530D01*
X107714Y867971D01*
X107291Y868421D01*
X106878Y868882D01*
X106476Y869352D01*
X106087Y869833D01*
X105708Y870322D01*
X105342Y870821D01*
X104989Y871328D01*
X104647Y871844D01*
X104319Y872368D01*
X104003Y872900D01*
X103700Y873439D01*
X103411Y873986D01*
X103135Y874540D01*
X102872Y875100D01*
X102623Y875666D01*
X102388Y876238D01*
X102167Y876816D01*
X101960Y877399D01*
X101768Y877987D01*
X101590Y878579D01*
X101426Y879175D01*
X101277Y879776D01*
X101142Y880380D01*
X101023Y880986D01*
X100918Y881596D01*
X100828Y882208D01*
X100752Y882822D01*
X100692Y883438D01*
X100647Y884055D01*
X100617Y884672D01*
X100602Y885291D01*
X100602Y885909D01*
X100617Y886528D01*
X100647Y887145D01*
X100692Y887762D01*
X100752Y888378D01*
X100828Y888992D01*
X100918Y889604D01*
X101023Y890214D01*
X101142Y890820D01*
X101277Y891424D01*
X101426Y892025D01*
X101590Y892621D01*
X101768Y893213D01*
X101960Y893801D01*
X102167Y894384D01*
X102388Y894962D01*
X102623Y895534D01*
X102872Y896100D01*
X103135Y896660D01*
X103411Y897214D01*
X103700Y897761D01*
X104003Y898300D01*
X104319Y898832D01*
X104647Y899356D01*
X104989Y899872D01*
X105342Y900379D01*
X105708Y900878D01*
X106087Y901367D01*
X106476Y901848D01*
X106878Y902318D01*
X107291Y902779D01*
X107714Y903229D01*
X108149Y903670D01*
X108594Y904099D01*
X109050Y904517D01*
X109516Y904924D01*
X109991Y905320D01*
X110476Y905704D01*
X110970Y906076D01*
X111473Y906436D01*
X111985Y906784D01*
X112505Y907119D01*
X113033Y907441D01*
X113569Y907750D01*
X114112Y908046D01*
X114662Y908329D01*
X115219Y908598D01*
X115782Y908854D01*
X116351Y909096D01*
X116926Y909324D01*
X117507Y909538D01*
X118092Y909738D01*
X118682Y909923D01*
X119277Y910094D01*
X119875Y910250D01*
X120477Y910392D01*
X121083Y910519D01*
X121691Y910632D01*
X122302Y910729D01*
X122915Y910812D01*
X123530Y910880D01*
X124146Y910932D01*
X124763Y910970D01*
X125381Y910992D01*
X126000Y911000D01*
X169180Y911000D02*
X169180Y860200D01*
D11*
X133346Y923540D02*
X133346Y935224D01*
X133346Y923540D02*
X138539Y923540D01*
X143252Y923540D02*
X148445Y923540D01*
X143252Y923540D02*
X143252Y935224D01*
X148445Y935224D01*
X147147Y930031D02*
X143252Y930031D01*
X153135Y935224D02*
X153135Y923540D01*
X153135Y935224D02*
X156381Y935224D01*
X156494Y935222D01*
X156607Y935216D01*
X156720Y935206D01*
X156833Y935192D01*
X156945Y935175D01*
X157056Y935153D01*
X157166Y935128D01*
X157276Y935098D01*
X157384Y935065D01*
X157491Y935028D01*
X157597Y934988D01*
X157701Y934943D01*
X157804Y934895D01*
X157905Y934844D01*
X158004Y934789D01*
X158101Y934731D01*
X158196Y934669D01*
X158289Y934604D01*
X158379Y934536D01*
X158467Y934465D01*
X158553Y934390D01*
X158636Y934313D01*
X158716Y934233D01*
X158793Y934150D01*
X158868Y934064D01*
X158939Y933976D01*
X159007Y933886D01*
X159072Y933793D01*
X159134Y933698D01*
X159192Y933601D01*
X159247Y933502D01*
X159298Y933401D01*
X159346Y933298D01*
X159391Y933194D01*
X159431Y933088D01*
X159468Y932981D01*
X159501Y932873D01*
X159531Y932763D01*
X159556Y932653D01*
X159578Y932542D01*
X159595Y932430D01*
X159609Y932317D01*
X159619Y932204D01*
X159625Y932091D01*
X159627Y931978D01*
X159627Y926786D01*
X159625Y926673D01*
X159619Y926560D01*
X159609Y926447D01*
X159595Y926334D01*
X159578Y926222D01*
X159556Y926111D01*
X159531Y926001D01*
X159501Y925891D01*
X159468Y925783D01*
X159431Y925676D01*
X159391Y925570D01*
X159346Y925466D01*
X159298Y925363D01*
X159247Y925262D01*
X159192Y925163D01*
X159134Y925066D01*
X159072Y924971D01*
X159007Y924878D01*
X158939Y924788D01*
X158868Y924700D01*
X158793Y924614D01*
X158716Y924531D01*
X158636Y924451D01*
X158553Y924374D01*
X158467Y924299D01*
X158379Y924228D01*
X158289Y924160D01*
X158196Y924095D01*
X158101Y924033D01*
X158004Y923975D01*
X157905Y923920D01*
X157804Y923869D01*
X157701Y923821D01*
X157597Y923776D01*
X157491Y923736D01*
X157384Y923699D01*
X157276Y923666D01*
X157166Y923636D01*
X157056Y923611D01*
X156945Y923589D01*
X156833Y923572D01*
X156720Y923558D01*
X156607Y923548D01*
X156494Y923542D01*
X156381Y923540D01*
X153135Y923540D01*
X164946Y932628D02*
X168192Y935224D01*
X168192Y923540D01*
X171437Y923540D02*
X164946Y923540D01*
X176377Y929382D02*
X176380Y929612D01*
X176388Y929842D01*
X176402Y930071D01*
X176421Y930300D01*
X176446Y930529D01*
X176476Y930756D01*
X176511Y930984D01*
X176552Y931210D01*
X176598Y931435D01*
X176650Y931659D01*
X176707Y931881D01*
X176769Y932103D01*
X176837Y932322D01*
X176910Y932540D01*
X176988Y932757D01*
X177071Y932971D01*
X177159Y933183D01*
X177252Y933393D01*
X177351Y933601D01*
X177350Y933601D02*
X177383Y933691D01*
X177419Y933780D01*
X177459Y933868D01*
X177503Y933953D01*
X177550Y934037D01*
X177600Y934119D01*
X177654Y934199D01*
X177710Y934276D01*
X177770Y934352D01*
X177833Y934425D01*
X177898Y934495D01*
X177967Y934563D01*
X178038Y934627D01*
X178111Y934689D01*
X178187Y934748D01*
X178265Y934804D01*
X178346Y934857D01*
X178428Y934906D01*
X178512Y934952D01*
X178599Y934995D01*
X178686Y935034D01*
X178776Y935070D01*
X178866Y935102D01*
X178958Y935130D01*
X179051Y935155D01*
X179145Y935176D01*
X179239Y935193D01*
X179334Y935207D01*
X179430Y935216D01*
X179526Y935222D01*
X179622Y935224D01*
X179718Y935222D01*
X179814Y935216D01*
X179910Y935207D01*
X180005Y935193D01*
X180099Y935176D01*
X180193Y935155D01*
X180286Y935130D01*
X180378Y935102D01*
X180468Y935070D01*
X180558Y935034D01*
X180645Y934995D01*
X180732Y934952D01*
X180816Y934906D01*
X180898Y934857D01*
X180979Y934804D01*
X181057Y934748D01*
X181133Y934689D01*
X181206Y934627D01*
X181277Y934563D01*
X181346Y934495D01*
X181411Y934425D01*
X181474Y934352D01*
X181534Y934276D01*
X181590Y934199D01*
X181644Y934119D01*
X181694Y934037D01*
X181741Y933953D01*
X181785Y933868D01*
X181825Y933780D01*
X181861Y933691D01*
X181894Y933601D01*
X181993Y933394D01*
X182086Y933184D01*
X182174Y932971D01*
X182257Y932757D01*
X182335Y932541D01*
X182408Y932323D01*
X182476Y932103D01*
X182538Y931882D01*
X182595Y931659D01*
X182647Y931435D01*
X182693Y931210D01*
X182734Y930984D01*
X182769Y930757D01*
X182799Y930529D01*
X182824Y930300D01*
X182843Y930071D01*
X182857Y929842D01*
X182865Y929612D01*
X182868Y929382D01*
X176376Y929382D02*
X176379Y929152D01*
X176387Y928922D01*
X176401Y928693D01*
X176420Y928464D01*
X176445Y928235D01*
X176475Y928007D01*
X176510Y927780D01*
X176551Y927554D01*
X176597Y927329D01*
X176649Y927105D01*
X176706Y926882D01*
X176768Y926661D01*
X176836Y926441D01*
X176909Y926223D01*
X176987Y926007D01*
X177070Y925793D01*
X177158Y925581D01*
X177251Y925370D01*
X177350Y925163D01*
X177383Y925073D01*
X177419Y924984D01*
X177460Y924896D01*
X177503Y924811D01*
X177550Y924727D01*
X177600Y924645D01*
X177654Y924565D01*
X177710Y924488D01*
X177770Y924412D01*
X177833Y924339D01*
X177898Y924269D01*
X177967Y924201D01*
X178038Y924137D01*
X178111Y924075D01*
X178187Y924016D01*
X178265Y923960D01*
X178346Y923907D01*
X178428Y923858D01*
X178512Y923812D01*
X178599Y923769D01*
X178686Y923730D01*
X178776Y923694D01*
X178866Y923662D01*
X178958Y923634D01*
X179051Y923609D01*
X179145Y923588D01*
X179239Y923571D01*
X179334Y923557D01*
X179430Y923548D01*
X179526Y923542D01*
X179622Y923540D01*
X181894Y925163D02*
X181993Y925370D01*
X182086Y925581D01*
X182174Y925793D01*
X182257Y926007D01*
X182335Y926223D01*
X182408Y926441D01*
X182476Y926661D01*
X182538Y926882D01*
X182595Y927105D01*
X182647Y927329D01*
X182693Y927554D01*
X182734Y927780D01*
X182769Y928007D01*
X182799Y928235D01*
X182824Y928464D01*
X182843Y928693D01*
X182857Y928922D01*
X182865Y929152D01*
X182868Y929382D01*
X181894Y925163D02*
X181861Y925073D01*
X181825Y924984D01*
X181785Y924896D01*
X181741Y924811D01*
X181694Y924727D01*
X181644Y924645D01*
X181590Y924565D01*
X181534Y924488D01*
X181474Y924412D01*
X181411Y924339D01*
X181346Y924269D01*
X181277Y924201D01*
X181206Y924137D01*
X181133Y924075D01*
X181057Y924016D01*
X180979Y923960D01*
X180898Y923907D01*
X180816Y923858D01*
X180732Y923812D01*
X180645Y923769D01*
X180558Y923730D01*
X180468Y923694D01*
X180378Y923662D01*
X180286Y923634D01*
X180193Y923609D01*
X180099Y923588D01*
X180005Y923571D01*
X179910Y923557D01*
X179814Y923548D01*
X179718Y923542D01*
X179622Y923540D01*
X177025Y926136D02*
X182218Y932628D01*
D12*
X189720Y695260D02*
X189720Y690180D01*
X187180Y692720D02*
X192260Y692720D01*
D10*
X174480Y697800D02*
X131300Y697800D01*
X174480Y697800D02*
X182100Y697800D01*
X182100Y685100D01*
X182100Y659700D01*
X182100Y647000D01*
X174480Y647000D01*
X131300Y647000D01*
X182100Y685100D02*
X207500Y685100D01*
X207500Y659700D02*
X182100Y659700D01*
X131300Y647000D02*
X130681Y647008D01*
X130063Y647030D01*
X129446Y647068D01*
X128830Y647120D01*
X128215Y647188D01*
X127602Y647271D01*
X126991Y647368D01*
X126383Y647481D01*
X125777Y647608D01*
X125175Y647750D01*
X124577Y647906D01*
X123982Y648077D01*
X123392Y648262D01*
X122807Y648462D01*
X122226Y648676D01*
X121651Y648904D01*
X121082Y649146D01*
X120519Y649402D01*
X119962Y649671D01*
X119412Y649954D01*
X118869Y650250D01*
X118333Y650559D01*
X117805Y650881D01*
X117285Y651216D01*
X116773Y651564D01*
X116270Y651924D01*
X115776Y652296D01*
X115291Y652680D01*
X114816Y653076D01*
X114350Y653483D01*
X113894Y653901D01*
X113449Y654330D01*
X113014Y654771D01*
X112591Y655221D01*
X112178Y655682D01*
X111776Y656152D01*
X111387Y656633D01*
X111008Y657122D01*
X110642Y657621D01*
X110289Y658128D01*
X109947Y658644D01*
X109619Y659168D01*
X109303Y659700D01*
X109000Y660239D01*
X108711Y660786D01*
X108435Y661340D01*
X108172Y661900D01*
X107923Y662466D01*
X107688Y663038D01*
X107467Y663616D01*
X107260Y664199D01*
X107068Y664787D01*
X106890Y665379D01*
X106726Y665975D01*
X106577Y666576D01*
X106442Y667180D01*
X106323Y667786D01*
X106218Y668396D01*
X106128Y669008D01*
X106052Y669622D01*
X105992Y670238D01*
X105947Y670855D01*
X105917Y671472D01*
X105902Y672091D01*
X105902Y672709D01*
X105917Y673328D01*
X105947Y673945D01*
X105992Y674562D01*
X106052Y675178D01*
X106128Y675792D01*
X106218Y676404D01*
X106323Y677014D01*
X106442Y677620D01*
X106577Y678224D01*
X106726Y678825D01*
X106890Y679421D01*
X107068Y680013D01*
X107260Y680601D01*
X107467Y681184D01*
X107688Y681762D01*
X107923Y682334D01*
X108172Y682900D01*
X108435Y683460D01*
X108711Y684014D01*
X109000Y684561D01*
X109303Y685100D01*
X109619Y685632D01*
X109947Y686156D01*
X110289Y686672D01*
X110642Y687179D01*
X111008Y687678D01*
X111387Y688167D01*
X111776Y688648D01*
X112178Y689118D01*
X112591Y689579D01*
X113014Y690029D01*
X113449Y690470D01*
X113894Y690899D01*
X114350Y691317D01*
X114816Y691724D01*
X115291Y692120D01*
X115776Y692504D01*
X116270Y692876D01*
X116773Y693236D01*
X117285Y693584D01*
X117805Y693919D01*
X118333Y694241D01*
X118869Y694550D01*
X119412Y694846D01*
X119962Y695129D01*
X120519Y695398D01*
X121082Y695654D01*
X121651Y695896D01*
X122226Y696124D01*
X122807Y696338D01*
X123392Y696538D01*
X123982Y696723D01*
X124577Y696894D01*
X125175Y697050D01*
X125777Y697192D01*
X126383Y697319D01*
X126991Y697432D01*
X127602Y697529D01*
X128215Y697612D01*
X128830Y697680D01*
X129446Y697732D01*
X130063Y697770D01*
X130681Y697792D01*
X131300Y697800D01*
X174480Y697800D02*
X174480Y647000D01*
D11*
X135646Y703340D02*
X135646Y715024D01*
X135646Y703340D02*
X140839Y703340D01*
X145552Y703340D02*
X150745Y703340D01*
X145552Y703340D02*
X145552Y715024D01*
X150745Y715024D01*
X149447Y709831D02*
X145552Y709831D01*
X155435Y715024D02*
X155435Y703340D01*
X155435Y715024D02*
X158681Y715024D01*
X158794Y715022D01*
X158907Y715016D01*
X159020Y715006D01*
X159133Y714992D01*
X159245Y714975D01*
X159356Y714953D01*
X159466Y714928D01*
X159576Y714898D01*
X159684Y714865D01*
X159791Y714828D01*
X159897Y714788D01*
X160001Y714743D01*
X160104Y714695D01*
X160205Y714644D01*
X160304Y714589D01*
X160401Y714531D01*
X160496Y714469D01*
X160589Y714404D01*
X160679Y714336D01*
X160767Y714265D01*
X160853Y714190D01*
X160936Y714113D01*
X161016Y714033D01*
X161093Y713950D01*
X161168Y713864D01*
X161239Y713776D01*
X161307Y713686D01*
X161372Y713593D01*
X161434Y713498D01*
X161492Y713401D01*
X161547Y713302D01*
X161598Y713201D01*
X161646Y713098D01*
X161691Y712994D01*
X161731Y712888D01*
X161768Y712781D01*
X161801Y712673D01*
X161831Y712563D01*
X161856Y712453D01*
X161878Y712342D01*
X161895Y712230D01*
X161909Y712117D01*
X161919Y712004D01*
X161925Y711891D01*
X161927Y711778D01*
X161927Y706586D01*
X161925Y706473D01*
X161919Y706360D01*
X161909Y706247D01*
X161895Y706134D01*
X161878Y706022D01*
X161856Y705911D01*
X161831Y705801D01*
X161801Y705691D01*
X161768Y705583D01*
X161731Y705476D01*
X161691Y705370D01*
X161646Y705266D01*
X161598Y705163D01*
X161547Y705062D01*
X161492Y704963D01*
X161434Y704866D01*
X161372Y704771D01*
X161307Y704678D01*
X161239Y704588D01*
X161168Y704500D01*
X161093Y704414D01*
X161016Y704331D01*
X160936Y704251D01*
X160853Y704174D01*
X160767Y704099D01*
X160679Y704028D01*
X160589Y703960D01*
X160496Y703895D01*
X160401Y703833D01*
X160304Y703775D01*
X160205Y703720D01*
X160104Y703669D01*
X160001Y703621D01*
X159897Y703576D01*
X159791Y703536D01*
X159684Y703499D01*
X159576Y703466D01*
X159466Y703436D01*
X159356Y703411D01*
X159245Y703389D01*
X159133Y703372D01*
X159020Y703358D01*
X158907Y703348D01*
X158794Y703342D01*
X158681Y703340D01*
X155435Y703340D01*
X170816Y715024D02*
X170923Y715022D01*
X171029Y715016D01*
X171135Y715006D01*
X171241Y714993D01*
X171347Y714975D01*
X171451Y714954D01*
X171555Y714929D01*
X171658Y714900D01*
X171759Y714868D01*
X171859Y714831D01*
X171958Y714791D01*
X172056Y714748D01*
X172152Y714701D01*
X172246Y714650D01*
X172338Y714596D01*
X172428Y714539D01*
X172516Y714479D01*
X172601Y714415D01*
X172684Y714348D01*
X172765Y714278D01*
X172843Y714206D01*
X172919Y714130D01*
X172991Y714052D01*
X173061Y713971D01*
X173128Y713888D01*
X173192Y713803D01*
X173252Y713715D01*
X173309Y713625D01*
X173363Y713533D01*
X173414Y713439D01*
X173461Y713343D01*
X173504Y713245D01*
X173544Y713146D01*
X173581Y713046D01*
X173613Y712945D01*
X173642Y712842D01*
X173667Y712738D01*
X173688Y712634D01*
X173706Y712528D01*
X173719Y712422D01*
X173729Y712316D01*
X173735Y712210D01*
X173737Y712103D01*
X170816Y715024D02*
X170695Y715022D01*
X170574Y715016D01*
X170454Y715006D01*
X170333Y714993D01*
X170214Y714975D01*
X170094Y714954D01*
X169976Y714929D01*
X169859Y714900D01*
X169742Y714867D01*
X169627Y714831D01*
X169513Y714790D01*
X169400Y714747D01*
X169288Y714699D01*
X169179Y714648D01*
X169071Y714593D01*
X168964Y714535D01*
X168860Y714474D01*
X168758Y714409D01*
X168658Y714341D01*
X168560Y714270D01*
X168464Y714196D01*
X168371Y714119D01*
X168281Y714038D01*
X168193Y713955D01*
X168108Y713869D01*
X168025Y713780D01*
X167946Y713689D01*
X167869Y713595D01*
X167796Y713499D01*
X167726Y713401D01*
X167659Y713300D01*
X167595Y713197D01*
X167535Y713092D01*
X167478Y712985D01*
X167424Y712877D01*
X167374Y712767D01*
X167328Y712655D01*
X167285Y712542D01*
X167246Y712427D01*
X172764Y709831D02*
X172843Y709908D01*
X172919Y709989D01*
X172992Y710072D01*
X173062Y710157D01*
X173129Y710245D01*
X173193Y710335D01*
X173253Y710427D01*
X173310Y710522D01*
X173364Y710618D01*
X173415Y710716D01*
X173462Y710816D01*
X173506Y710918D01*
X173546Y711021D01*
X173582Y711125D01*
X173614Y711231D01*
X173643Y711337D01*
X173668Y711445D01*
X173690Y711553D01*
X173707Y711663D01*
X173721Y711772D01*
X173730Y711882D01*
X173736Y711993D01*
X173738Y712103D01*
X172764Y709831D02*
X167246Y703340D01*
X173737Y703340D01*
D12*
X322220Y1051580D02*
X322220Y1056660D01*
X319680Y1054120D02*
X324760Y1054120D01*
D10*
X306980Y1059200D02*
X263800Y1059200D01*
X306980Y1059200D02*
X314600Y1059200D01*
X314600Y1046500D01*
X314600Y1021100D01*
X314600Y1008400D01*
X306980Y1008400D01*
X263800Y1008400D01*
X314600Y1046500D02*
X340000Y1046500D01*
X340000Y1021100D02*
X314600Y1021100D01*
X263800Y1008400D02*
X263181Y1008408D01*
X262563Y1008430D01*
X261946Y1008468D01*
X261330Y1008520D01*
X260715Y1008588D01*
X260102Y1008671D01*
X259491Y1008768D01*
X258883Y1008881D01*
X258277Y1009008D01*
X257675Y1009150D01*
X257077Y1009306D01*
X256482Y1009477D01*
X255892Y1009662D01*
X255307Y1009862D01*
X254726Y1010076D01*
X254151Y1010304D01*
X253582Y1010546D01*
X253019Y1010802D01*
X252462Y1011071D01*
X251912Y1011354D01*
X251369Y1011650D01*
X250833Y1011959D01*
X250305Y1012281D01*
X249785Y1012616D01*
X249273Y1012964D01*
X248770Y1013324D01*
X248276Y1013696D01*
X247791Y1014080D01*
X247316Y1014476D01*
X246850Y1014883D01*
X246394Y1015301D01*
X245949Y1015730D01*
X245514Y1016171D01*
X245091Y1016621D01*
X244678Y1017082D01*
X244276Y1017552D01*
X243887Y1018033D01*
X243508Y1018522D01*
X243142Y1019021D01*
X242789Y1019528D01*
X242447Y1020044D01*
X242119Y1020568D01*
X241803Y1021100D01*
X241500Y1021639D01*
X241211Y1022186D01*
X240935Y1022740D01*
X240672Y1023300D01*
X240423Y1023866D01*
X240188Y1024438D01*
X239967Y1025016D01*
X239760Y1025599D01*
X239568Y1026187D01*
X239390Y1026779D01*
X239226Y1027375D01*
X239077Y1027976D01*
X238942Y1028580D01*
X238823Y1029186D01*
X238718Y1029796D01*
X238628Y1030408D01*
X238552Y1031022D01*
X238492Y1031638D01*
X238447Y1032255D01*
X238417Y1032872D01*
X238402Y1033491D01*
X238402Y1034109D01*
X238417Y1034728D01*
X238447Y1035345D01*
X238492Y1035962D01*
X238552Y1036578D01*
X238628Y1037192D01*
X238718Y1037804D01*
X238823Y1038414D01*
X238942Y1039020D01*
X239077Y1039624D01*
X239226Y1040225D01*
X239390Y1040821D01*
X239568Y1041413D01*
X239760Y1042001D01*
X239967Y1042584D01*
X240188Y1043162D01*
X240423Y1043734D01*
X240672Y1044300D01*
X240935Y1044860D01*
X241211Y1045414D01*
X241500Y1045961D01*
X241803Y1046500D01*
X242119Y1047032D01*
X242447Y1047556D01*
X242789Y1048072D01*
X243142Y1048579D01*
X243508Y1049078D01*
X243887Y1049567D01*
X244276Y1050048D01*
X244678Y1050518D01*
X245091Y1050979D01*
X245514Y1051429D01*
X245949Y1051870D01*
X246394Y1052299D01*
X246850Y1052717D01*
X247316Y1053124D01*
X247791Y1053520D01*
X248276Y1053904D01*
X248770Y1054276D01*
X249273Y1054636D01*
X249785Y1054984D01*
X250305Y1055319D01*
X250833Y1055641D01*
X251369Y1055950D01*
X251912Y1056246D01*
X252462Y1056529D01*
X253019Y1056798D01*
X253582Y1057054D01*
X254151Y1057296D01*
X254726Y1057524D01*
X255307Y1057738D01*
X255892Y1057938D01*
X256482Y1058123D01*
X257077Y1058294D01*
X257675Y1058450D01*
X258277Y1058592D01*
X258883Y1058719D01*
X259491Y1058832D01*
X260102Y1058929D01*
X260715Y1059012D01*
X261330Y1059080D01*
X261946Y1059132D01*
X262563Y1059170D01*
X263181Y1059192D01*
X263800Y1059200D01*
X306980Y1059200D02*
X306980Y1008400D01*
D11*
X268146Y1066740D02*
X268146Y1078424D01*
X268146Y1066740D02*
X273339Y1066740D01*
X278052Y1066740D02*
X283245Y1066740D01*
X278052Y1066740D02*
X278052Y1078424D01*
X283245Y1078424D01*
X281947Y1073231D02*
X278052Y1073231D01*
X287935Y1078424D02*
X287935Y1066740D01*
X287935Y1078424D02*
X291181Y1078424D01*
X291294Y1078422D01*
X291407Y1078416D01*
X291520Y1078406D01*
X291633Y1078392D01*
X291745Y1078375D01*
X291856Y1078353D01*
X291966Y1078328D01*
X292076Y1078298D01*
X292184Y1078265D01*
X292291Y1078228D01*
X292397Y1078188D01*
X292501Y1078143D01*
X292604Y1078095D01*
X292705Y1078044D01*
X292804Y1077989D01*
X292901Y1077931D01*
X292996Y1077869D01*
X293089Y1077804D01*
X293179Y1077736D01*
X293267Y1077665D01*
X293353Y1077590D01*
X293436Y1077513D01*
X293516Y1077433D01*
X293593Y1077350D01*
X293668Y1077264D01*
X293739Y1077176D01*
X293807Y1077086D01*
X293872Y1076993D01*
X293934Y1076898D01*
X293992Y1076801D01*
X294047Y1076702D01*
X294098Y1076601D01*
X294146Y1076498D01*
X294191Y1076394D01*
X294231Y1076288D01*
X294268Y1076181D01*
X294301Y1076073D01*
X294331Y1075963D01*
X294356Y1075853D01*
X294378Y1075742D01*
X294395Y1075630D01*
X294409Y1075517D01*
X294419Y1075404D01*
X294425Y1075291D01*
X294427Y1075178D01*
X294427Y1069986D01*
X294425Y1069873D01*
X294419Y1069760D01*
X294409Y1069647D01*
X294395Y1069534D01*
X294378Y1069422D01*
X294356Y1069311D01*
X294331Y1069201D01*
X294301Y1069091D01*
X294268Y1068983D01*
X294231Y1068876D01*
X294191Y1068770D01*
X294146Y1068666D01*
X294098Y1068563D01*
X294047Y1068462D01*
X293992Y1068363D01*
X293934Y1068266D01*
X293872Y1068171D01*
X293807Y1068078D01*
X293739Y1067988D01*
X293668Y1067900D01*
X293593Y1067814D01*
X293516Y1067731D01*
X293436Y1067651D01*
X293353Y1067574D01*
X293267Y1067499D01*
X293179Y1067428D01*
X293089Y1067360D01*
X292996Y1067295D01*
X292901Y1067233D01*
X292804Y1067175D01*
X292705Y1067120D01*
X292604Y1067069D01*
X292501Y1067021D01*
X292397Y1066976D01*
X292291Y1066936D01*
X292184Y1066899D01*
X292076Y1066866D01*
X291966Y1066836D01*
X291856Y1066811D01*
X291745Y1066789D01*
X291633Y1066772D01*
X291520Y1066758D01*
X291407Y1066748D01*
X291294Y1066742D01*
X291181Y1066740D01*
X287935Y1066740D01*
X299746Y1066740D02*
X302992Y1066740D01*
X303105Y1066742D01*
X303218Y1066748D01*
X303331Y1066758D01*
X303444Y1066772D01*
X303556Y1066789D01*
X303667Y1066811D01*
X303777Y1066836D01*
X303887Y1066866D01*
X303995Y1066899D01*
X304102Y1066936D01*
X304208Y1066976D01*
X304312Y1067021D01*
X304415Y1067069D01*
X304516Y1067120D01*
X304615Y1067175D01*
X304712Y1067233D01*
X304807Y1067295D01*
X304900Y1067360D01*
X304990Y1067428D01*
X305078Y1067499D01*
X305164Y1067574D01*
X305247Y1067651D01*
X305327Y1067731D01*
X305404Y1067814D01*
X305479Y1067900D01*
X305550Y1067988D01*
X305618Y1068078D01*
X305683Y1068171D01*
X305745Y1068266D01*
X305803Y1068363D01*
X305858Y1068462D01*
X305909Y1068563D01*
X305957Y1068666D01*
X306002Y1068770D01*
X306042Y1068876D01*
X306079Y1068983D01*
X306112Y1069091D01*
X306142Y1069201D01*
X306167Y1069311D01*
X306189Y1069422D01*
X306206Y1069534D01*
X306220Y1069647D01*
X306230Y1069760D01*
X306236Y1069873D01*
X306238Y1069986D01*
X306236Y1070099D01*
X306230Y1070212D01*
X306220Y1070325D01*
X306206Y1070438D01*
X306189Y1070550D01*
X306167Y1070661D01*
X306142Y1070771D01*
X306112Y1070881D01*
X306079Y1070989D01*
X306042Y1071096D01*
X306002Y1071202D01*
X305957Y1071306D01*
X305909Y1071409D01*
X305858Y1071510D01*
X305803Y1071609D01*
X305745Y1071706D01*
X305683Y1071801D01*
X305618Y1071894D01*
X305550Y1071984D01*
X305479Y1072072D01*
X305404Y1072158D01*
X305327Y1072241D01*
X305247Y1072321D01*
X305164Y1072398D01*
X305078Y1072473D01*
X304990Y1072544D01*
X304900Y1072612D01*
X304807Y1072677D01*
X304712Y1072739D01*
X304615Y1072797D01*
X304516Y1072852D01*
X304415Y1072903D01*
X304312Y1072951D01*
X304208Y1072996D01*
X304102Y1073036D01*
X303995Y1073073D01*
X303887Y1073106D01*
X303777Y1073136D01*
X303667Y1073161D01*
X303556Y1073183D01*
X303444Y1073200D01*
X303331Y1073214D01*
X303218Y1073224D01*
X303105Y1073230D01*
X302992Y1073232D01*
X303641Y1078424D02*
X299746Y1078424D01*
X303641Y1078424D02*
X303742Y1078422D01*
X303842Y1078416D01*
X303942Y1078406D01*
X304042Y1078393D01*
X304141Y1078375D01*
X304240Y1078354D01*
X304337Y1078329D01*
X304434Y1078300D01*
X304529Y1078267D01*
X304623Y1078231D01*
X304715Y1078191D01*
X304806Y1078148D01*
X304895Y1078101D01*
X304982Y1078051D01*
X305068Y1077997D01*
X305151Y1077940D01*
X305231Y1077880D01*
X305310Y1077817D01*
X305386Y1077750D01*
X305459Y1077681D01*
X305529Y1077609D01*
X305597Y1077535D01*
X305662Y1077458D01*
X305723Y1077378D01*
X305782Y1077296D01*
X305837Y1077212D01*
X305889Y1077126D01*
X305938Y1077038D01*
X305983Y1076948D01*
X306025Y1076856D01*
X306063Y1076763D01*
X306097Y1076668D01*
X306128Y1076573D01*
X306155Y1076476D01*
X306178Y1076378D01*
X306198Y1076279D01*
X306213Y1076179D01*
X306225Y1076079D01*
X306233Y1075979D01*
X306237Y1075878D01*
X306237Y1075778D01*
X306233Y1075677D01*
X306225Y1075577D01*
X306213Y1075477D01*
X306198Y1075377D01*
X306178Y1075278D01*
X306155Y1075180D01*
X306128Y1075083D01*
X306097Y1074988D01*
X306063Y1074893D01*
X306025Y1074800D01*
X305983Y1074708D01*
X305938Y1074618D01*
X305889Y1074530D01*
X305837Y1074444D01*
X305782Y1074360D01*
X305723Y1074278D01*
X305662Y1074198D01*
X305597Y1074121D01*
X305529Y1074047D01*
X305459Y1073975D01*
X305386Y1073906D01*
X305310Y1073839D01*
X305231Y1073776D01*
X305151Y1073716D01*
X305068Y1073659D01*
X304982Y1073605D01*
X304895Y1073555D01*
X304806Y1073508D01*
X304715Y1073465D01*
X304623Y1073425D01*
X304529Y1073389D01*
X304434Y1073356D01*
X304337Y1073327D01*
X304240Y1073302D01*
X304141Y1073281D01*
X304042Y1073263D01*
X303942Y1073250D01*
X303842Y1073240D01*
X303742Y1073234D01*
X303641Y1073232D01*
X303641Y1073231D02*
X301045Y1073231D01*
D12*
X713180Y600420D02*
X713180Y595340D01*
X715720Y597880D02*
X710640Y597880D01*
D10*
X728420Y592800D02*
X771600Y592800D01*
X728420Y592800D02*
X720800Y592800D01*
X720800Y605500D01*
X720800Y630900D01*
X720800Y643600D01*
X728420Y643600D01*
X771600Y643600D01*
X720800Y605500D02*
X695400Y605500D01*
X695400Y630900D02*
X720800Y630900D01*
X771600Y643600D02*
X772219Y643592D01*
X772837Y643570D01*
X773454Y643532D01*
X774070Y643480D01*
X774685Y643412D01*
X775298Y643329D01*
X775909Y643232D01*
X776517Y643119D01*
X777123Y642992D01*
X777725Y642850D01*
X778323Y642694D01*
X778918Y642523D01*
X779508Y642338D01*
X780093Y642138D01*
X780674Y641924D01*
X781249Y641696D01*
X781818Y641454D01*
X782381Y641198D01*
X782938Y640929D01*
X783488Y640646D01*
X784031Y640350D01*
X784567Y640041D01*
X785095Y639719D01*
X785615Y639384D01*
X786127Y639036D01*
X786630Y638676D01*
X787124Y638304D01*
X787609Y637920D01*
X788084Y637524D01*
X788550Y637117D01*
X789006Y636699D01*
X789451Y636270D01*
X789886Y635829D01*
X790309Y635379D01*
X790722Y634918D01*
X791124Y634448D01*
X791513Y633967D01*
X791892Y633478D01*
X792258Y632979D01*
X792611Y632472D01*
X792953Y631956D01*
X793281Y631432D01*
X793597Y630900D01*
X793900Y630361D01*
X794189Y629814D01*
X794465Y629260D01*
X794728Y628700D01*
X794977Y628134D01*
X795212Y627562D01*
X795433Y626984D01*
X795640Y626401D01*
X795832Y625813D01*
X796010Y625221D01*
X796174Y624625D01*
X796323Y624024D01*
X796458Y623420D01*
X796577Y622814D01*
X796682Y622204D01*
X796772Y621592D01*
X796848Y620978D01*
X796908Y620362D01*
X796953Y619745D01*
X796983Y619128D01*
X796998Y618509D01*
X796998Y617891D01*
X796983Y617272D01*
X796953Y616655D01*
X796908Y616038D01*
X796848Y615422D01*
X796772Y614808D01*
X796682Y614196D01*
X796577Y613586D01*
X796458Y612980D01*
X796323Y612376D01*
X796174Y611775D01*
X796010Y611179D01*
X795832Y610587D01*
X795640Y609999D01*
X795433Y609416D01*
X795212Y608838D01*
X794977Y608266D01*
X794728Y607700D01*
X794465Y607140D01*
X794189Y606586D01*
X793900Y606039D01*
X793597Y605500D01*
X793281Y604968D01*
X792953Y604444D01*
X792611Y603928D01*
X792258Y603421D01*
X791892Y602922D01*
X791513Y602433D01*
X791124Y601952D01*
X790722Y601482D01*
X790309Y601021D01*
X789886Y600571D01*
X789451Y600130D01*
X789006Y599701D01*
X788550Y599283D01*
X788084Y598876D01*
X787609Y598480D01*
X787124Y598096D01*
X786630Y597724D01*
X786127Y597364D01*
X785615Y597016D01*
X785095Y596681D01*
X784567Y596359D01*
X784031Y596050D01*
X783488Y595754D01*
X782938Y595471D01*
X782381Y595202D01*
X781818Y594946D01*
X781249Y594704D01*
X780674Y594476D01*
X780093Y594262D01*
X779508Y594062D01*
X778918Y593877D01*
X778323Y593706D01*
X777725Y593550D01*
X777123Y593408D01*
X776517Y593281D01*
X775909Y593168D01*
X775298Y593071D01*
X774685Y592988D01*
X774070Y592920D01*
X773454Y592868D01*
X772837Y592830D01*
X772219Y592808D01*
X771600Y592800D01*
X728420Y592800D02*
X728420Y643600D01*
D11*
X725192Y653140D02*
X725192Y664824D01*
X725192Y653140D02*
X730385Y653140D01*
X735098Y653140D02*
X740291Y653140D01*
X735098Y653140D02*
X735098Y664824D01*
X740291Y664824D01*
X738993Y659631D02*
X735098Y659631D01*
X744981Y664824D02*
X744981Y653140D01*
X744981Y664824D02*
X748227Y664824D01*
X748340Y664822D01*
X748453Y664816D01*
X748566Y664806D01*
X748679Y664792D01*
X748791Y664775D01*
X748902Y664753D01*
X749012Y664728D01*
X749122Y664698D01*
X749230Y664665D01*
X749337Y664628D01*
X749443Y664588D01*
X749547Y664543D01*
X749650Y664495D01*
X749751Y664444D01*
X749850Y664389D01*
X749947Y664331D01*
X750042Y664269D01*
X750135Y664204D01*
X750225Y664136D01*
X750313Y664065D01*
X750399Y663990D01*
X750482Y663913D01*
X750562Y663833D01*
X750639Y663750D01*
X750714Y663664D01*
X750785Y663576D01*
X750853Y663486D01*
X750918Y663393D01*
X750980Y663298D01*
X751038Y663201D01*
X751093Y663102D01*
X751144Y663001D01*
X751192Y662898D01*
X751237Y662794D01*
X751277Y662688D01*
X751314Y662581D01*
X751347Y662473D01*
X751377Y662363D01*
X751402Y662253D01*
X751424Y662142D01*
X751441Y662030D01*
X751455Y661917D01*
X751465Y661804D01*
X751471Y661691D01*
X751473Y661578D01*
X751473Y656386D01*
X751471Y656273D01*
X751465Y656160D01*
X751455Y656047D01*
X751441Y655934D01*
X751424Y655822D01*
X751402Y655711D01*
X751377Y655601D01*
X751347Y655491D01*
X751314Y655383D01*
X751277Y655276D01*
X751237Y655170D01*
X751192Y655066D01*
X751144Y654963D01*
X751093Y654862D01*
X751038Y654763D01*
X750980Y654666D01*
X750918Y654571D01*
X750853Y654478D01*
X750785Y654388D01*
X750714Y654300D01*
X750639Y654214D01*
X750562Y654131D01*
X750482Y654051D01*
X750399Y653974D01*
X750313Y653899D01*
X750225Y653828D01*
X750135Y653760D01*
X750042Y653695D01*
X749947Y653633D01*
X749850Y653575D01*
X749751Y653520D01*
X749650Y653469D01*
X749547Y653421D01*
X749443Y653376D01*
X749337Y653336D01*
X749230Y653299D01*
X749122Y653266D01*
X749012Y653236D01*
X748902Y653211D01*
X748791Y653189D01*
X748679Y653172D01*
X748566Y653158D01*
X748453Y653148D01*
X748340Y653142D01*
X748227Y653140D01*
X744981Y653140D01*
X756792Y655736D02*
X759389Y664824D01*
X756792Y655736D02*
X763283Y655736D01*
X761336Y658333D02*
X761336Y653140D01*
D12*
X513280Y1217740D02*
X513280Y1222820D01*
X515820Y1220280D02*
X510740Y1220280D01*
D10*
X528520Y1215200D02*
X571700Y1215200D01*
X528520Y1215200D02*
X520900Y1215200D01*
X520900Y1227900D01*
X520900Y1253300D01*
X520900Y1266000D01*
X528520Y1266000D01*
X571700Y1266000D01*
X520900Y1227900D02*
X495500Y1227900D01*
X495500Y1253300D02*
X520900Y1253300D01*
X571700Y1266000D02*
X572319Y1265992D01*
X572937Y1265970D01*
X573554Y1265932D01*
X574170Y1265880D01*
X574785Y1265812D01*
X575398Y1265729D01*
X576009Y1265632D01*
X576617Y1265519D01*
X577223Y1265392D01*
X577825Y1265250D01*
X578423Y1265094D01*
X579018Y1264923D01*
X579608Y1264738D01*
X580193Y1264538D01*
X580774Y1264324D01*
X581349Y1264096D01*
X581918Y1263854D01*
X582481Y1263598D01*
X583038Y1263329D01*
X583588Y1263046D01*
X584131Y1262750D01*
X584667Y1262441D01*
X585195Y1262119D01*
X585715Y1261784D01*
X586227Y1261436D01*
X586730Y1261076D01*
X587224Y1260704D01*
X587709Y1260320D01*
X588184Y1259924D01*
X588650Y1259517D01*
X589106Y1259099D01*
X589551Y1258670D01*
X589986Y1258229D01*
X590409Y1257779D01*
X590822Y1257318D01*
X591224Y1256848D01*
X591613Y1256367D01*
X591992Y1255878D01*
X592358Y1255379D01*
X592711Y1254872D01*
X593053Y1254356D01*
X593381Y1253832D01*
X593697Y1253300D01*
X594000Y1252761D01*
X594289Y1252214D01*
X594565Y1251660D01*
X594828Y1251100D01*
X595077Y1250534D01*
X595312Y1249962D01*
X595533Y1249384D01*
X595740Y1248801D01*
X595932Y1248213D01*
X596110Y1247621D01*
X596274Y1247025D01*
X596423Y1246424D01*
X596558Y1245820D01*
X596677Y1245214D01*
X596782Y1244604D01*
X596872Y1243992D01*
X596948Y1243378D01*
X597008Y1242762D01*
X597053Y1242145D01*
X597083Y1241528D01*
X597098Y1240909D01*
X597098Y1240291D01*
X597083Y1239672D01*
X597053Y1239055D01*
X597008Y1238438D01*
X596948Y1237822D01*
X596872Y1237208D01*
X596782Y1236596D01*
X596677Y1235986D01*
X596558Y1235380D01*
X596423Y1234776D01*
X596274Y1234175D01*
X596110Y1233579D01*
X595932Y1232987D01*
X595740Y1232399D01*
X595533Y1231816D01*
X595312Y1231238D01*
X595077Y1230666D01*
X594828Y1230100D01*
X594565Y1229540D01*
X594289Y1228986D01*
X594000Y1228439D01*
X593697Y1227900D01*
X593381Y1227368D01*
X593053Y1226844D01*
X592711Y1226328D01*
X592358Y1225821D01*
X591992Y1225322D01*
X591613Y1224833D01*
X591224Y1224352D01*
X590822Y1223882D01*
X590409Y1223421D01*
X589986Y1222971D01*
X589551Y1222530D01*
X589106Y1222101D01*
X588650Y1221683D01*
X588184Y1221276D01*
X587709Y1220880D01*
X587224Y1220496D01*
X586730Y1220124D01*
X586227Y1219764D01*
X585715Y1219416D01*
X585195Y1219081D01*
X584667Y1218759D01*
X584131Y1218450D01*
X583588Y1218154D01*
X583038Y1217871D01*
X582481Y1217602D01*
X581918Y1217346D01*
X581349Y1217104D01*
X580774Y1216876D01*
X580193Y1216662D01*
X579608Y1216462D01*
X579018Y1216277D01*
X578423Y1216106D01*
X577825Y1215950D01*
X577223Y1215808D01*
X576617Y1215681D01*
X576009Y1215568D01*
X575398Y1215471D01*
X574785Y1215388D01*
X574170Y1215320D01*
X573554Y1215268D01*
X572937Y1215230D01*
X572319Y1215208D01*
X571700Y1215200D01*
X528520Y1215200D02*
X528520Y1266000D01*
D11*
X527292Y1273540D02*
X527292Y1285224D01*
X527292Y1273540D02*
X532485Y1273540D01*
X537198Y1273540D02*
X542391Y1273540D01*
X537198Y1273540D02*
X537198Y1285224D01*
X542391Y1285224D01*
X541093Y1280031D02*
X537198Y1280031D01*
X547081Y1285224D02*
X547081Y1273540D01*
X547081Y1285224D02*
X550327Y1285224D01*
X550440Y1285222D01*
X550553Y1285216D01*
X550666Y1285206D01*
X550779Y1285192D01*
X550891Y1285175D01*
X551002Y1285153D01*
X551112Y1285128D01*
X551222Y1285098D01*
X551330Y1285065D01*
X551437Y1285028D01*
X551543Y1284988D01*
X551647Y1284943D01*
X551750Y1284895D01*
X551851Y1284844D01*
X551950Y1284789D01*
X552047Y1284731D01*
X552142Y1284669D01*
X552235Y1284604D01*
X552325Y1284536D01*
X552413Y1284465D01*
X552499Y1284390D01*
X552582Y1284313D01*
X552662Y1284233D01*
X552739Y1284150D01*
X552814Y1284064D01*
X552885Y1283976D01*
X552953Y1283886D01*
X553018Y1283793D01*
X553080Y1283698D01*
X553138Y1283601D01*
X553193Y1283502D01*
X553244Y1283401D01*
X553292Y1283298D01*
X553337Y1283194D01*
X553377Y1283088D01*
X553414Y1282981D01*
X553447Y1282873D01*
X553477Y1282763D01*
X553502Y1282653D01*
X553524Y1282542D01*
X553541Y1282430D01*
X553555Y1282317D01*
X553565Y1282204D01*
X553571Y1282091D01*
X553573Y1281978D01*
X553573Y1276786D01*
X553571Y1276673D01*
X553565Y1276560D01*
X553555Y1276447D01*
X553541Y1276334D01*
X553524Y1276222D01*
X553502Y1276111D01*
X553477Y1276001D01*
X553447Y1275891D01*
X553414Y1275783D01*
X553377Y1275676D01*
X553337Y1275570D01*
X553292Y1275466D01*
X553244Y1275363D01*
X553193Y1275262D01*
X553138Y1275163D01*
X553080Y1275066D01*
X553018Y1274971D01*
X552953Y1274878D01*
X552885Y1274788D01*
X552814Y1274700D01*
X552739Y1274614D01*
X552662Y1274531D01*
X552582Y1274451D01*
X552499Y1274374D01*
X552413Y1274299D01*
X552325Y1274228D01*
X552235Y1274160D01*
X552142Y1274095D01*
X552047Y1274033D01*
X551950Y1273975D01*
X551851Y1273920D01*
X551750Y1273869D01*
X551647Y1273821D01*
X551543Y1273776D01*
X551437Y1273736D01*
X551330Y1273699D01*
X551222Y1273666D01*
X551112Y1273636D01*
X551002Y1273611D01*
X550891Y1273589D01*
X550779Y1273572D01*
X550666Y1273558D01*
X550553Y1273548D01*
X550440Y1273542D01*
X550327Y1273540D01*
X547081Y1273540D01*
X558892Y1273540D02*
X562787Y1273540D01*
X562886Y1273542D01*
X562986Y1273548D01*
X563085Y1273557D01*
X563183Y1273570D01*
X563281Y1273587D01*
X563379Y1273608D01*
X563475Y1273633D01*
X563570Y1273661D01*
X563664Y1273693D01*
X563757Y1273728D01*
X563849Y1273767D01*
X563939Y1273810D01*
X564027Y1273855D01*
X564114Y1273905D01*
X564198Y1273957D01*
X564281Y1274013D01*
X564361Y1274071D01*
X564439Y1274133D01*
X564514Y1274198D01*
X564587Y1274266D01*
X564657Y1274336D01*
X564725Y1274409D01*
X564790Y1274484D01*
X564852Y1274562D01*
X564910Y1274642D01*
X564966Y1274725D01*
X565018Y1274809D01*
X565068Y1274896D01*
X565113Y1274984D01*
X565156Y1275074D01*
X565195Y1275166D01*
X565230Y1275259D01*
X565262Y1275353D01*
X565290Y1275448D01*
X565315Y1275544D01*
X565336Y1275642D01*
X565353Y1275740D01*
X565366Y1275838D01*
X565375Y1275937D01*
X565381Y1276037D01*
X565383Y1276136D01*
X565383Y1277435D01*
X565381Y1277534D01*
X565375Y1277634D01*
X565366Y1277733D01*
X565353Y1277831D01*
X565336Y1277929D01*
X565315Y1278027D01*
X565290Y1278123D01*
X565262Y1278218D01*
X565230Y1278312D01*
X565195Y1278405D01*
X565156Y1278497D01*
X565113Y1278587D01*
X565068Y1278675D01*
X565018Y1278762D01*
X564966Y1278846D01*
X564910Y1278929D01*
X564852Y1279009D01*
X564790Y1279087D01*
X564725Y1279162D01*
X564657Y1279235D01*
X564587Y1279305D01*
X564514Y1279373D01*
X564439Y1279438D01*
X564361Y1279500D01*
X564281Y1279558D01*
X564198Y1279614D01*
X564114Y1279666D01*
X564027Y1279716D01*
X563939Y1279761D01*
X563849Y1279804D01*
X563757Y1279843D01*
X563664Y1279878D01*
X563570Y1279910D01*
X563475Y1279938D01*
X563379Y1279963D01*
X563281Y1279984D01*
X563183Y1280001D01*
X563085Y1280014D01*
X562986Y1280023D01*
X562886Y1280029D01*
X562787Y1280031D01*
X558892Y1280031D01*
X558892Y1285224D01*
X565383Y1285224D01*
D12*
X282020Y1211960D02*
X282020Y1206880D01*
X279480Y1209420D02*
X284560Y1209420D01*
D10*
X266780Y1214500D02*
X223600Y1214500D01*
X266780Y1214500D02*
X274400Y1214500D01*
X274400Y1201800D01*
X274400Y1176400D01*
X274400Y1163700D01*
X266780Y1163700D01*
X223600Y1163700D01*
X274400Y1201800D02*
X299800Y1201800D01*
X299800Y1176400D02*
X274400Y1176400D01*
X223600Y1163700D02*
X222981Y1163708D01*
X222363Y1163730D01*
X221746Y1163768D01*
X221130Y1163820D01*
X220515Y1163888D01*
X219902Y1163971D01*
X219291Y1164068D01*
X218683Y1164181D01*
X218077Y1164308D01*
X217475Y1164450D01*
X216877Y1164606D01*
X216282Y1164777D01*
X215692Y1164962D01*
X215107Y1165162D01*
X214526Y1165376D01*
X213951Y1165604D01*
X213382Y1165846D01*
X212819Y1166102D01*
X212262Y1166371D01*
X211712Y1166654D01*
X211169Y1166950D01*
X210633Y1167259D01*
X210105Y1167581D01*
X209585Y1167916D01*
X209073Y1168264D01*
X208570Y1168624D01*
X208076Y1168996D01*
X207591Y1169380D01*
X207116Y1169776D01*
X206650Y1170183D01*
X206194Y1170601D01*
X205749Y1171030D01*
X205314Y1171471D01*
X204891Y1171921D01*
X204478Y1172382D01*
X204076Y1172852D01*
X203687Y1173333D01*
X203308Y1173822D01*
X202942Y1174321D01*
X202589Y1174828D01*
X202247Y1175344D01*
X201919Y1175868D01*
X201603Y1176400D01*
X201300Y1176939D01*
X201011Y1177486D01*
X200735Y1178040D01*
X200472Y1178600D01*
X200223Y1179166D01*
X199988Y1179738D01*
X199767Y1180316D01*
X199560Y1180899D01*
X199368Y1181487D01*
X199190Y1182079D01*
X199026Y1182675D01*
X198877Y1183276D01*
X198742Y1183880D01*
X198623Y1184486D01*
X198518Y1185096D01*
X198428Y1185708D01*
X198352Y1186322D01*
X198292Y1186938D01*
X198247Y1187555D01*
X198217Y1188172D01*
X198202Y1188791D01*
X198202Y1189409D01*
X198217Y1190028D01*
X198247Y1190645D01*
X198292Y1191262D01*
X198352Y1191878D01*
X198428Y1192492D01*
X198518Y1193104D01*
X198623Y1193714D01*
X198742Y1194320D01*
X198877Y1194924D01*
X199026Y1195525D01*
X199190Y1196121D01*
X199368Y1196713D01*
X199560Y1197301D01*
X199767Y1197884D01*
X199988Y1198462D01*
X200223Y1199034D01*
X200472Y1199600D01*
X200735Y1200160D01*
X201011Y1200714D01*
X201300Y1201261D01*
X201603Y1201800D01*
X201919Y1202332D01*
X202247Y1202856D01*
X202589Y1203372D01*
X202942Y1203879D01*
X203308Y1204378D01*
X203687Y1204867D01*
X204076Y1205348D01*
X204478Y1205818D01*
X204891Y1206279D01*
X205314Y1206729D01*
X205749Y1207170D01*
X206194Y1207599D01*
X206650Y1208017D01*
X207116Y1208424D01*
X207591Y1208820D01*
X208076Y1209204D01*
X208570Y1209576D01*
X209073Y1209936D01*
X209585Y1210284D01*
X210105Y1210619D01*
X210633Y1210941D01*
X211169Y1211250D01*
X211712Y1211546D01*
X212262Y1211829D01*
X212819Y1212098D01*
X213382Y1212354D01*
X213951Y1212596D01*
X214526Y1212824D01*
X215107Y1213038D01*
X215692Y1213238D01*
X216282Y1213423D01*
X216877Y1213594D01*
X217475Y1213750D01*
X218077Y1213892D01*
X218683Y1214019D01*
X219291Y1214132D01*
X219902Y1214229D01*
X220515Y1214312D01*
X221130Y1214380D01*
X221746Y1214432D01*
X222363Y1214470D01*
X222981Y1214492D01*
X223600Y1214500D01*
X266780Y1214500D02*
X266780Y1163700D01*
D11*
X238946Y1221040D02*
X238946Y1232724D01*
X238946Y1221040D02*
X244139Y1221040D01*
X248852Y1221040D02*
X254045Y1221040D01*
X248852Y1221040D02*
X248852Y1232724D01*
X254045Y1232724D01*
X252747Y1227531D02*
X248852Y1227531D01*
X258735Y1232724D02*
X258735Y1221040D01*
X258735Y1232724D02*
X261981Y1232724D01*
X262094Y1232722D01*
X262207Y1232716D01*
X262320Y1232706D01*
X262433Y1232692D01*
X262545Y1232675D01*
X262656Y1232653D01*
X262766Y1232628D01*
X262876Y1232598D01*
X262984Y1232565D01*
X263091Y1232528D01*
X263197Y1232488D01*
X263301Y1232443D01*
X263404Y1232395D01*
X263505Y1232344D01*
X263604Y1232289D01*
X263701Y1232231D01*
X263796Y1232169D01*
X263889Y1232104D01*
X263979Y1232036D01*
X264067Y1231965D01*
X264153Y1231890D01*
X264236Y1231813D01*
X264316Y1231733D01*
X264393Y1231650D01*
X264468Y1231564D01*
X264539Y1231476D01*
X264607Y1231386D01*
X264672Y1231293D01*
X264734Y1231198D01*
X264792Y1231101D01*
X264847Y1231002D01*
X264898Y1230901D01*
X264946Y1230798D01*
X264991Y1230694D01*
X265031Y1230588D01*
X265068Y1230481D01*
X265101Y1230373D01*
X265131Y1230263D01*
X265156Y1230153D01*
X265178Y1230042D01*
X265195Y1229930D01*
X265209Y1229817D01*
X265219Y1229704D01*
X265225Y1229591D01*
X265227Y1229478D01*
X265227Y1224286D01*
X265225Y1224173D01*
X265219Y1224060D01*
X265209Y1223947D01*
X265195Y1223834D01*
X265178Y1223722D01*
X265156Y1223611D01*
X265131Y1223501D01*
X265101Y1223391D01*
X265068Y1223283D01*
X265031Y1223176D01*
X264991Y1223070D01*
X264946Y1222966D01*
X264898Y1222863D01*
X264847Y1222762D01*
X264792Y1222663D01*
X264734Y1222566D01*
X264672Y1222471D01*
X264607Y1222378D01*
X264539Y1222288D01*
X264468Y1222200D01*
X264393Y1222114D01*
X264316Y1222031D01*
X264236Y1221951D01*
X264153Y1221874D01*
X264067Y1221799D01*
X263979Y1221728D01*
X263889Y1221660D01*
X263796Y1221595D01*
X263701Y1221533D01*
X263604Y1221475D01*
X263505Y1221420D01*
X263404Y1221369D01*
X263301Y1221321D01*
X263197Y1221276D01*
X263091Y1221236D01*
X262984Y1221199D01*
X262876Y1221166D01*
X262766Y1221136D01*
X262656Y1221111D01*
X262545Y1221089D01*
X262433Y1221072D01*
X262320Y1221058D01*
X262207Y1221048D01*
X262094Y1221042D01*
X261981Y1221040D01*
X258735Y1221040D01*
X270546Y1227531D02*
X274441Y1227531D01*
X274540Y1227529D01*
X274640Y1227523D01*
X274739Y1227514D01*
X274837Y1227501D01*
X274935Y1227484D01*
X275033Y1227463D01*
X275129Y1227438D01*
X275224Y1227410D01*
X275318Y1227378D01*
X275411Y1227343D01*
X275503Y1227304D01*
X275593Y1227261D01*
X275681Y1227216D01*
X275768Y1227166D01*
X275852Y1227114D01*
X275935Y1227058D01*
X276015Y1227000D01*
X276093Y1226938D01*
X276168Y1226873D01*
X276241Y1226805D01*
X276311Y1226735D01*
X276379Y1226662D01*
X276444Y1226587D01*
X276506Y1226509D01*
X276564Y1226429D01*
X276620Y1226346D01*
X276672Y1226262D01*
X276722Y1226175D01*
X276767Y1226087D01*
X276810Y1225997D01*
X276849Y1225905D01*
X276884Y1225812D01*
X276916Y1225718D01*
X276944Y1225623D01*
X276969Y1225527D01*
X276990Y1225429D01*
X277007Y1225331D01*
X277020Y1225233D01*
X277029Y1225134D01*
X277035Y1225034D01*
X277037Y1224935D01*
X277037Y1224286D01*
X277038Y1224286D02*
X277036Y1224173D01*
X277030Y1224060D01*
X277020Y1223947D01*
X277006Y1223834D01*
X276989Y1223722D01*
X276967Y1223611D01*
X276942Y1223501D01*
X276912Y1223391D01*
X276879Y1223283D01*
X276842Y1223176D01*
X276802Y1223070D01*
X276757Y1222966D01*
X276709Y1222863D01*
X276658Y1222762D01*
X276603Y1222663D01*
X276545Y1222566D01*
X276483Y1222471D01*
X276418Y1222378D01*
X276350Y1222288D01*
X276279Y1222200D01*
X276204Y1222114D01*
X276127Y1222031D01*
X276047Y1221951D01*
X275964Y1221874D01*
X275878Y1221799D01*
X275790Y1221728D01*
X275700Y1221660D01*
X275607Y1221595D01*
X275512Y1221533D01*
X275415Y1221475D01*
X275316Y1221420D01*
X275215Y1221369D01*
X275112Y1221321D01*
X275008Y1221276D01*
X274902Y1221236D01*
X274795Y1221199D01*
X274687Y1221166D01*
X274577Y1221136D01*
X274467Y1221111D01*
X274356Y1221089D01*
X274244Y1221072D01*
X274131Y1221058D01*
X274018Y1221048D01*
X273905Y1221042D01*
X273792Y1221040D01*
X273679Y1221042D01*
X273566Y1221048D01*
X273453Y1221058D01*
X273340Y1221072D01*
X273228Y1221089D01*
X273117Y1221111D01*
X273007Y1221136D01*
X272897Y1221166D01*
X272789Y1221199D01*
X272682Y1221236D01*
X272576Y1221276D01*
X272472Y1221321D01*
X272369Y1221369D01*
X272268Y1221420D01*
X272169Y1221475D01*
X272072Y1221533D01*
X271977Y1221595D01*
X271884Y1221660D01*
X271794Y1221728D01*
X271706Y1221799D01*
X271620Y1221874D01*
X271537Y1221951D01*
X271457Y1222031D01*
X271380Y1222114D01*
X271305Y1222200D01*
X271234Y1222288D01*
X271166Y1222378D01*
X271101Y1222471D01*
X271039Y1222566D01*
X270981Y1222663D01*
X270926Y1222762D01*
X270875Y1222863D01*
X270827Y1222966D01*
X270782Y1223070D01*
X270742Y1223176D01*
X270705Y1223283D01*
X270672Y1223391D01*
X270642Y1223501D01*
X270617Y1223611D01*
X270595Y1223722D01*
X270578Y1223834D01*
X270564Y1223947D01*
X270554Y1224060D01*
X270548Y1224173D01*
X270546Y1224286D01*
X270546Y1227531D01*
X270548Y1227674D01*
X270554Y1227817D01*
X270564Y1227960D01*
X270578Y1228102D01*
X270595Y1228244D01*
X270617Y1228386D01*
X270642Y1228527D01*
X270672Y1228667D01*
X270705Y1228806D01*
X270742Y1228944D01*
X270783Y1229081D01*
X270827Y1229217D01*
X270876Y1229352D01*
X270928Y1229485D01*
X270983Y1229617D01*
X271043Y1229747D01*
X271106Y1229876D01*
X271172Y1230003D01*
X271242Y1230127D01*
X271315Y1230250D01*
X271392Y1230371D01*
X271472Y1230490D01*
X271555Y1230606D01*
X271641Y1230721D01*
X271730Y1230832D01*
X271823Y1230942D01*
X271918Y1231048D01*
X272017Y1231152D01*
X272118Y1231253D01*
X272222Y1231352D01*
X272328Y1231447D01*
X272438Y1231540D01*
X272549Y1231629D01*
X272664Y1231715D01*
X272780Y1231798D01*
X272899Y1231878D01*
X273020Y1231955D01*
X273142Y1232028D01*
X273267Y1232098D01*
X273394Y1232164D01*
X273523Y1232227D01*
X273653Y1232287D01*
X273785Y1232342D01*
X273918Y1232394D01*
X274053Y1232443D01*
X274189Y1232487D01*
X274326Y1232528D01*
X274464Y1232565D01*
X274603Y1232598D01*
X274743Y1232628D01*
X274884Y1232653D01*
X275026Y1232675D01*
X275168Y1232692D01*
X275310Y1232706D01*
X275453Y1232716D01*
X275596Y1232722D01*
X275739Y1232724D01*
D12*
X730080Y374520D02*
X730080Y369440D01*
X732620Y371980D02*
X727540Y371980D01*
D10*
X745320Y366900D02*
X788500Y366900D01*
X745320Y366900D02*
X737700Y366900D01*
X737700Y379600D01*
X737700Y405000D01*
X737700Y417700D01*
X745320Y417700D01*
X788500Y417700D01*
X737700Y379600D02*
X712300Y379600D01*
X712300Y405000D02*
X737700Y405000D01*
X788500Y417700D02*
X789119Y417692D01*
X789737Y417670D01*
X790354Y417632D01*
X790970Y417580D01*
X791585Y417512D01*
X792198Y417429D01*
X792809Y417332D01*
X793417Y417219D01*
X794023Y417092D01*
X794625Y416950D01*
X795223Y416794D01*
X795818Y416623D01*
X796408Y416438D01*
X796993Y416238D01*
X797574Y416024D01*
X798149Y415796D01*
X798718Y415554D01*
X799281Y415298D01*
X799838Y415029D01*
X800388Y414746D01*
X800931Y414450D01*
X801467Y414141D01*
X801995Y413819D01*
X802515Y413484D01*
X803027Y413136D01*
X803530Y412776D01*
X804024Y412404D01*
X804509Y412020D01*
X804984Y411624D01*
X805450Y411217D01*
X805906Y410799D01*
X806351Y410370D01*
X806786Y409929D01*
X807209Y409479D01*
X807622Y409018D01*
X808024Y408548D01*
X808413Y408067D01*
X808792Y407578D01*
X809158Y407079D01*
X809511Y406572D01*
X809853Y406056D01*
X810181Y405532D01*
X810497Y405000D01*
X810800Y404461D01*
X811089Y403914D01*
X811365Y403360D01*
X811628Y402800D01*
X811877Y402234D01*
X812112Y401662D01*
X812333Y401084D01*
X812540Y400501D01*
X812732Y399913D01*
X812910Y399321D01*
X813074Y398725D01*
X813223Y398124D01*
X813358Y397520D01*
X813477Y396914D01*
X813582Y396304D01*
X813672Y395692D01*
X813748Y395078D01*
X813808Y394462D01*
X813853Y393845D01*
X813883Y393228D01*
X813898Y392609D01*
X813898Y391991D01*
X813883Y391372D01*
X813853Y390755D01*
X813808Y390138D01*
X813748Y389522D01*
X813672Y388908D01*
X813582Y388296D01*
X813477Y387686D01*
X813358Y387080D01*
X813223Y386476D01*
X813074Y385875D01*
X812910Y385279D01*
X812732Y384687D01*
X812540Y384099D01*
X812333Y383516D01*
X812112Y382938D01*
X811877Y382366D01*
X811628Y381800D01*
X811365Y381240D01*
X811089Y380686D01*
X810800Y380139D01*
X810497Y379600D01*
X810181Y379068D01*
X809853Y378544D01*
X809511Y378028D01*
X809158Y377521D01*
X808792Y377022D01*
X808413Y376533D01*
X808024Y376052D01*
X807622Y375582D01*
X807209Y375121D01*
X806786Y374671D01*
X806351Y374230D01*
X805906Y373801D01*
X805450Y373383D01*
X804984Y372976D01*
X804509Y372580D01*
X804024Y372196D01*
X803530Y371824D01*
X803027Y371464D01*
X802515Y371116D01*
X801995Y370781D01*
X801467Y370459D01*
X800931Y370150D01*
X800388Y369854D01*
X799838Y369571D01*
X799281Y369302D01*
X798718Y369046D01*
X798149Y368804D01*
X797574Y368576D01*
X796993Y368362D01*
X796408Y368162D01*
X795818Y367977D01*
X795223Y367806D01*
X794625Y367650D01*
X794023Y367508D01*
X793417Y367381D01*
X792809Y367268D01*
X792198Y367171D01*
X791585Y367088D01*
X790970Y367020D01*
X790354Y366968D01*
X789737Y366930D01*
X789119Y366908D01*
X788500Y366900D01*
X745320Y366900D02*
X745320Y417700D01*
D11*
X746092Y426240D02*
X746092Y437924D01*
X746092Y426240D02*
X751285Y426240D01*
X755998Y426240D02*
X761191Y426240D01*
X755998Y426240D02*
X755998Y437924D01*
X761191Y437924D01*
X759893Y432731D02*
X755998Y432731D01*
X765881Y437924D02*
X765881Y426240D01*
X765881Y437924D02*
X769127Y437924D01*
X769240Y437922D01*
X769353Y437916D01*
X769466Y437906D01*
X769579Y437892D01*
X769691Y437875D01*
X769802Y437853D01*
X769912Y437828D01*
X770022Y437798D01*
X770130Y437765D01*
X770237Y437728D01*
X770343Y437688D01*
X770447Y437643D01*
X770550Y437595D01*
X770651Y437544D01*
X770750Y437489D01*
X770847Y437431D01*
X770942Y437369D01*
X771035Y437304D01*
X771125Y437236D01*
X771213Y437165D01*
X771299Y437090D01*
X771382Y437013D01*
X771462Y436933D01*
X771539Y436850D01*
X771614Y436764D01*
X771685Y436676D01*
X771753Y436586D01*
X771818Y436493D01*
X771880Y436398D01*
X771938Y436301D01*
X771993Y436202D01*
X772044Y436101D01*
X772092Y435998D01*
X772137Y435894D01*
X772177Y435788D01*
X772214Y435681D01*
X772247Y435573D01*
X772277Y435463D01*
X772302Y435353D01*
X772324Y435242D01*
X772341Y435130D01*
X772355Y435017D01*
X772365Y434904D01*
X772371Y434791D01*
X772373Y434678D01*
X772373Y429486D01*
X772371Y429373D01*
X772365Y429260D01*
X772355Y429147D01*
X772341Y429034D01*
X772324Y428922D01*
X772302Y428811D01*
X772277Y428701D01*
X772247Y428591D01*
X772214Y428483D01*
X772177Y428376D01*
X772137Y428270D01*
X772092Y428166D01*
X772044Y428063D01*
X771993Y427962D01*
X771938Y427863D01*
X771880Y427766D01*
X771818Y427671D01*
X771753Y427578D01*
X771685Y427488D01*
X771614Y427400D01*
X771539Y427314D01*
X771462Y427231D01*
X771382Y427151D01*
X771299Y427074D01*
X771213Y426999D01*
X771125Y426928D01*
X771035Y426860D01*
X770942Y426795D01*
X770847Y426733D01*
X770750Y426675D01*
X770651Y426620D01*
X770550Y426569D01*
X770447Y426521D01*
X770343Y426476D01*
X770237Y426436D01*
X770130Y426399D01*
X770022Y426366D01*
X769912Y426336D01*
X769802Y426311D01*
X769691Y426289D01*
X769579Y426272D01*
X769466Y426258D01*
X769353Y426248D01*
X769240Y426242D01*
X769127Y426240D01*
X765881Y426240D01*
X777692Y436626D02*
X777692Y437924D01*
X784183Y437924D01*
X780938Y426240D01*
D12*
X-4180Y309460D02*
X-4180Y304380D01*
X-6720Y306920D02*
X-1640Y306920D01*
D10*
X-19420Y312000D02*
X-62600Y312000D01*
X-19420Y312000D02*
X-11800Y312000D01*
X-11800Y299300D01*
X-11800Y273900D01*
X-11800Y261200D01*
X-19420Y261200D01*
X-62600Y261200D01*
X-11800Y299300D02*
X13600Y299300D01*
X13600Y273900D02*
X-11800Y273900D01*
X-62600Y261200D02*
X-63219Y261208D01*
X-63837Y261230D01*
X-64454Y261268D01*
X-65070Y261320D01*
X-65685Y261388D01*
X-66298Y261471D01*
X-66909Y261568D01*
X-67517Y261681D01*
X-68123Y261808D01*
X-68725Y261950D01*
X-69323Y262106D01*
X-69918Y262277D01*
X-70508Y262462D01*
X-71093Y262662D01*
X-71674Y262876D01*
X-72249Y263104D01*
X-72818Y263346D01*
X-73381Y263602D01*
X-73938Y263871D01*
X-74488Y264154D01*
X-75031Y264450D01*
X-75567Y264759D01*
X-76095Y265081D01*
X-76615Y265416D01*
X-77127Y265764D01*
X-77630Y266124D01*
X-78124Y266496D01*
X-78609Y266880D01*
X-79084Y267276D01*
X-79550Y267683D01*
X-80006Y268101D01*
X-80451Y268530D01*
X-80886Y268971D01*
X-81309Y269421D01*
X-81722Y269882D01*
X-82124Y270352D01*
X-82513Y270833D01*
X-82892Y271322D01*
X-83258Y271821D01*
X-83611Y272328D01*
X-83953Y272844D01*
X-84281Y273368D01*
X-84597Y273900D01*
X-84900Y274439D01*
X-85189Y274986D01*
X-85465Y275540D01*
X-85728Y276100D01*
X-85977Y276666D01*
X-86212Y277238D01*
X-86433Y277816D01*
X-86640Y278399D01*
X-86832Y278987D01*
X-87010Y279579D01*
X-87174Y280175D01*
X-87323Y280776D01*
X-87458Y281380D01*
X-87577Y281986D01*
X-87682Y282596D01*
X-87772Y283208D01*
X-87848Y283822D01*
X-87908Y284438D01*
X-87953Y285055D01*
X-87983Y285672D01*
X-87998Y286291D01*
X-87998Y286909D01*
X-87983Y287528D01*
X-87953Y288145D01*
X-87908Y288762D01*
X-87848Y289378D01*
X-87772Y289992D01*
X-87682Y290604D01*
X-87577Y291214D01*
X-87458Y291820D01*
X-87323Y292424D01*
X-87174Y293025D01*
X-87010Y293621D01*
X-86832Y294213D01*
X-86640Y294801D01*
X-86433Y295384D01*
X-86212Y295962D01*
X-85977Y296534D01*
X-85728Y297100D01*
X-85465Y297660D01*
X-85189Y298214D01*
X-84900Y298761D01*
X-84597Y299300D01*
X-84281Y299832D01*
X-83953Y300356D01*
X-83611Y300872D01*
X-83258Y301379D01*
X-82892Y301878D01*
X-82513Y302367D01*
X-82124Y302848D01*
X-81722Y303318D01*
X-81309Y303779D01*
X-80886Y304229D01*
X-80451Y304670D01*
X-80006Y305099D01*
X-79550Y305517D01*
X-79084Y305924D01*
X-78609Y306320D01*
X-78124Y306704D01*
X-77630Y307076D01*
X-77127Y307436D01*
X-76615Y307784D01*
X-76095Y308119D01*
X-75567Y308441D01*
X-75031Y308750D01*
X-74488Y309046D01*
X-73938Y309329D01*
X-73381Y309598D01*
X-72818Y309854D01*
X-72249Y310096D01*
X-71674Y310324D01*
X-71093Y310538D01*
X-70508Y310738D01*
X-69918Y310923D01*
X-69323Y311094D01*
X-68725Y311250D01*
X-68123Y311392D01*
X-67517Y311519D01*
X-66909Y311632D01*
X-66298Y311729D01*
X-65685Y311812D01*
X-65070Y311880D01*
X-64454Y311932D01*
X-63837Y311970D01*
X-63219Y311992D01*
X-62600Y312000D01*
X-19420Y312000D02*
X-19420Y261200D01*
D11*
X-62254Y318540D02*
X-62254Y330224D01*
X-62254Y318540D02*
X-57061Y318540D01*
X-52348Y318540D02*
X-47155Y318540D01*
X-52348Y318540D02*
X-52348Y330224D01*
X-47155Y330224D01*
X-48453Y325031D02*
X-52348Y325031D01*
X-42465Y330224D02*
X-42465Y318540D01*
X-42465Y330224D02*
X-39219Y330224D01*
X-39106Y330222D01*
X-38993Y330216D01*
X-38880Y330206D01*
X-38767Y330192D01*
X-38655Y330175D01*
X-38544Y330153D01*
X-38434Y330128D01*
X-38324Y330098D01*
X-38216Y330065D01*
X-38109Y330028D01*
X-38003Y329988D01*
X-37899Y329943D01*
X-37796Y329895D01*
X-37695Y329844D01*
X-37596Y329789D01*
X-37499Y329731D01*
X-37404Y329669D01*
X-37311Y329604D01*
X-37221Y329536D01*
X-37133Y329465D01*
X-37047Y329390D01*
X-36964Y329313D01*
X-36884Y329233D01*
X-36807Y329150D01*
X-36732Y329064D01*
X-36661Y328976D01*
X-36593Y328886D01*
X-36528Y328793D01*
X-36466Y328698D01*
X-36408Y328601D01*
X-36353Y328502D01*
X-36302Y328401D01*
X-36254Y328298D01*
X-36209Y328194D01*
X-36169Y328088D01*
X-36132Y327981D01*
X-36099Y327873D01*
X-36069Y327763D01*
X-36044Y327653D01*
X-36022Y327542D01*
X-36005Y327430D01*
X-35991Y327317D01*
X-35981Y327204D01*
X-35975Y327091D01*
X-35973Y326978D01*
X-35974Y326978D02*
X-35974Y321786D01*
X-35973Y321786D02*
X-35975Y321673D01*
X-35981Y321560D01*
X-35991Y321447D01*
X-36005Y321334D01*
X-36022Y321222D01*
X-36044Y321111D01*
X-36069Y321001D01*
X-36099Y320891D01*
X-36132Y320783D01*
X-36169Y320676D01*
X-36209Y320570D01*
X-36254Y320466D01*
X-36302Y320363D01*
X-36353Y320262D01*
X-36408Y320163D01*
X-36466Y320066D01*
X-36528Y319971D01*
X-36593Y319878D01*
X-36661Y319788D01*
X-36732Y319700D01*
X-36807Y319614D01*
X-36884Y319531D01*
X-36964Y319451D01*
X-37047Y319374D01*
X-37133Y319299D01*
X-37221Y319228D01*
X-37311Y319160D01*
X-37404Y319095D01*
X-37499Y319033D01*
X-37596Y318975D01*
X-37695Y318920D01*
X-37796Y318869D01*
X-37899Y318821D01*
X-38003Y318776D01*
X-38109Y318736D01*
X-38216Y318699D01*
X-38324Y318666D01*
X-38434Y318636D01*
X-38544Y318611D01*
X-38655Y318589D01*
X-38767Y318572D01*
X-38880Y318558D01*
X-38993Y318548D01*
X-39106Y318542D01*
X-39219Y318540D01*
X-42465Y318540D01*
X-30654Y321786D02*
X-30652Y321899D01*
X-30646Y322012D01*
X-30636Y322125D01*
X-30622Y322238D01*
X-30605Y322350D01*
X-30583Y322461D01*
X-30558Y322571D01*
X-30528Y322681D01*
X-30495Y322789D01*
X-30458Y322896D01*
X-30418Y323002D01*
X-30373Y323106D01*
X-30325Y323209D01*
X-30274Y323310D01*
X-30219Y323409D01*
X-30161Y323506D01*
X-30099Y323601D01*
X-30034Y323694D01*
X-29966Y323784D01*
X-29895Y323872D01*
X-29820Y323958D01*
X-29743Y324041D01*
X-29663Y324121D01*
X-29580Y324198D01*
X-29494Y324273D01*
X-29406Y324344D01*
X-29316Y324412D01*
X-29223Y324477D01*
X-29128Y324539D01*
X-29031Y324597D01*
X-28932Y324652D01*
X-28831Y324703D01*
X-28728Y324751D01*
X-28624Y324796D01*
X-28518Y324836D01*
X-28411Y324873D01*
X-28303Y324906D01*
X-28193Y324936D01*
X-28083Y324961D01*
X-27972Y324983D01*
X-27860Y325000D01*
X-27747Y325014D01*
X-27634Y325024D01*
X-27521Y325030D01*
X-27408Y325032D01*
X-27295Y325030D01*
X-27182Y325024D01*
X-27069Y325014D01*
X-26956Y325000D01*
X-26844Y324983D01*
X-26733Y324961D01*
X-26623Y324936D01*
X-26513Y324906D01*
X-26405Y324873D01*
X-26298Y324836D01*
X-26192Y324796D01*
X-26088Y324751D01*
X-25985Y324703D01*
X-25884Y324652D01*
X-25785Y324597D01*
X-25688Y324539D01*
X-25593Y324477D01*
X-25500Y324412D01*
X-25410Y324344D01*
X-25322Y324273D01*
X-25236Y324198D01*
X-25153Y324121D01*
X-25073Y324041D01*
X-24996Y323958D01*
X-24921Y323872D01*
X-24850Y323784D01*
X-24782Y323694D01*
X-24717Y323601D01*
X-24655Y323506D01*
X-24597Y323409D01*
X-24542Y323310D01*
X-24491Y323209D01*
X-24443Y323106D01*
X-24398Y323002D01*
X-24358Y322896D01*
X-24321Y322789D01*
X-24288Y322681D01*
X-24258Y322571D01*
X-24233Y322461D01*
X-24211Y322350D01*
X-24194Y322238D01*
X-24180Y322125D01*
X-24170Y322012D01*
X-24164Y321899D01*
X-24162Y321786D01*
X-24164Y321673D01*
X-24170Y321560D01*
X-24180Y321447D01*
X-24194Y321334D01*
X-24211Y321222D01*
X-24233Y321111D01*
X-24258Y321001D01*
X-24288Y320891D01*
X-24321Y320783D01*
X-24358Y320676D01*
X-24398Y320570D01*
X-24443Y320466D01*
X-24491Y320363D01*
X-24542Y320262D01*
X-24597Y320163D01*
X-24655Y320066D01*
X-24717Y319971D01*
X-24782Y319878D01*
X-24850Y319788D01*
X-24921Y319700D01*
X-24996Y319614D01*
X-25073Y319531D01*
X-25153Y319451D01*
X-25236Y319374D01*
X-25322Y319299D01*
X-25410Y319228D01*
X-25500Y319160D01*
X-25593Y319095D01*
X-25688Y319033D01*
X-25785Y318975D01*
X-25884Y318920D01*
X-25985Y318869D01*
X-26088Y318821D01*
X-26192Y318776D01*
X-26298Y318736D01*
X-26405Y318699D01*
X-26513Y318666D01*
X-26623Y318636D01*
X-26733Y318611D01*
X-26844Y318589D01*
X-26956Y318572D01*
X-27069Y318558D01*
X-27182Y318548D01*
X-27295Y318542D01*
X-27408Y318540D01*
X-27521Y318542D01*
X-27634Y318548D01*
X-27747Y318558D01*
X-27860Y318572D01*
X-27972Y318589D01*
X-28083Y318611D01*
X-28193Y318636D01*
X-28303Y318666D01*
X-28411Y318699D01*
X-28518Y318736D01*
X-28624Y318776D01*
X-28728Y318821D01*
X-28831Y318869D01*
X-28932Y318920D01*
X-29031Y318975D01*
X-29128Y319033D01*
X-29223Y319095D01*
X-29316Y319160D01*
X-29406Y319228D01*
X-29494Y319299D01*
X-29580Y319374D01*
X-29663Y319451D01*
X-29743Y319531D01*
X-29820Y319614D01*
X-29895Y319700D01*
X-29966Y319788D01*
X-30034Y319878D01*
X-30099Y319971D01*
X-30161Y320066D01*
X-30219Y320163D01*
X-30274Y320262D01*
X-30325Y320363D01*
X-30373Y320466D01*
X-30418Y320570D01*
X-30458Y320676D01*
X-30495Y320783D01*
X-30528Y320891D01*
X-30558Y321001D01*
X-30583Y321111D01*
X-30605Y321222D01*
X-30622Y321334D01*
X-30636Y321447D01*
X-30646Y321560D01*
X-30652Y321673D01*
X-30654Y321786D01*
X-30004Y327628D02*
X-30002Y327729D01*
X-29996Y327829D01*
X-29986Y327929D01*
X-29973Y328029D01*
X-29955Y328128D01*
X-29934Y328227D01*
X-29909Y328324D01*
X-29880Y328421D01*
X-29847Y328516D01*
X-29811Y328610D01*
X-29771Y328702D01*
X-29728Y328793D01*
X-29681Y328882D01*
X-29631Y328969D01*
X-29577Y329055D01*
X-29520Y329138D01*
X-29460Y329218D01*
X-29397Y329297D01*
X-29330Y329373D01*
X-29261Y329446D01*
X-29189Y329516D01*
X-29115Y329584D01*
X-29038Y329649D01*
X-28958Y329710D01*
X-28876Y329769D01*
X-28792Y329824D01*
X-28706Y329876D01*
X-28618Y329925D01*
X-28528Y329970D01*
X-28436Y330012D01*
X-28343Y330050D01*
X-28248Y330084D01*
X-28153Y330115D01*
X-28056Y330142D01*
X-27958Y330165D01*
X-27859Y330185D01*
X-27759Y330200D01*
X-27659Y330212D01*
X-27559Y330220D01*
X-27458Y330224D01*
X-27358Y330224D01*
X-27257Y330220D01*
X-27157Y330212D01*
X-27057Y330200D01*
X-26957Y330185D01*
X-26858Y330165D01*
X-26760Y330142D01*
X-26663Y330115D01*
X-26568Y330084D01*
X-26473Y330050D01*
X-26380Y330012D01*
X-26288Y329970D01*
X-26198Y329925D01*
X-26110Y329876D01*
X-26024Y329824D01*
X-25940Y329769D01*
X-25858Y329710D01*
X-25778Y329649D01*
X-25701Y329584D01*
X-25627Y329516D01*
X-25555Y329446D01*
X-25486Y329373D01*
X-25419Y329297D01*
X-25356Y329218D01*
X-25296Y329138D01*
X-25239Y329055D01*
X-25185Y328969D01*
X-25135Y328882D01*
X-25088Y328793D01*
X-25045Y328702D01*
X-25005Y328610D01*
X-24969Y328516D01*
X-24936Y328421D01*
X-24907Y328324D01*
X-24882Y328227D01*
X-24861Y328128D01*
X-24843Y328029D01*
X-24830Y327929D01*
X-24820Y327829D01*
X-24814Y327729D01*
X-24812Y327628D01*
X-24814Y327527D01*
X-24820Y327427D01*
X-24830Y327327D01*
X-24843Y327227D01*
X-24861Y327128D01*
X-24882Y327029D01*
X-24907Y326932D01*
X-24936Y326835D01*
X-24969Y326740D01*
X-25005Y326646D01*
X-25045Y326554D01*
X-25088Y326463D01*
X-25135Y326374D01*
X-25185Y326287D01*
X-25239Y326201D01*
X-25296Y326118D01*
X-25356Y326038D01*
X-25419Y325959D01*
X-25486Y325883D01*
X-25555Y325810D01*
X-25627Y325740D01*
X-25701Y325672D01*
X-25778Y325607D01*
X-25858Y325546D01*
X-25940Y325487D01*
X-26024Y325432D01*
X-26110Y325380D01*
X-26198Y325331D01*
X-26288Y325286D01*
X-26380Y325244D01*
X-26473Y325206D01*
X-26568Y325172D01*
X-26663Y325141D01*
X-26760Y325114D01*
X-26858Y325091D01*
X-26957Y325071D01*
X-27057Y325056D01*
X-27157Y325044D01*
X-27257Y325036D01*
X-27358Y325032D01*
X-27458Y325032D01*
X-27559Y325036D01*
X-27659Y325044D01*
X-27759Y325056D01*
X-27859Y325071D01*
X-27958Y325091D01*
X-28056Y325114D01*
X-28153Y325141D01*
X-28248Y325172D01*
X-28343Y325206D01*
X-28436Y325244D01*
X-28528Y325286D01*
X-28618Y325331D01*
X-28706Y325380D01*
X-28792Y325432D01*
X-28876Y325487D01*
X-28958Y325546D01*
X-29038Y325607D01*
X-29115Y325672D01*
X-29189Y325740D01*
X-29261Y325810D01*
X-29330Y325883D01*
X-29397Y325959D01*
X-29460Y326038D01*
X-29520Y326118D01*
X-29577Y326201D01*
X-29631Y326287D01*
X-29681Y326374D01*
X-29728Y326463D01*
X-29771Y326554D01*
X-29811Y326646D01*
X-29847Y326740D01*
X-29880Y326835D01*
X-29909Y326932D01*
X-29934Y327029D01*
X-29955Y327128D01*
X-29973Y327227D01*
X-29986Y327327D01*
X-29996Y327427D01*
X-30002Y327527D01*
X-30004Y327628D01*
D12*
X604580Y898940D02*
X604580Y904020D01*
X607120Y901480D02*
X602040Y901480D01*
D10*
X619820Y896400D02*
X663000Y896400D01*
X619820Y896400D02*
X612200Y896400D01*
X612200Y909100D01*
X612200Y934500D01*
X612200Y947200D01*
X619820Y947200D01*
X663000Y947200D01*
X612200Y909100D02*
X586800Y909100D01*
X586800Y934500D02*
X612200Y934500D01*
X663000Y947200D02*
X663619Y947192D01*
X664237Y947170D01*
X664854Y947132D01*
X665470Y947080D01*
X666085Y947012D01*
X666698Y946929D01*
X667309Y946832D01*
X667917Y946719D01*
X668523Y946592D01*
X669125Y946450D01*
X669723Y946294D01*
X670318Y946123D01*
X670908Y945938D01*
X671493Y945738D01*
X672074Y945524D01*
X672649Y945296D01*
X673218Y945054D01*
X673781Y944798D01*
X674338Y944529D01*
X674888Y944246D01*
X675431Y943950D01*
X675967Y943641D01*
X676495Y943319D01*
X677015Y942984D01*
X677527Y942636D01*
X678030Y942276D01*
X678524Y941904D01*
X679009Y941520D01*
X679484Y941124D01*
X679950Y940717D01*
X680406Y940299D01*
X680851Y939870D01*
X681286Y939429D01*
X681709Y938979D01*
X682122Y938518D01*
X682524Y938048D01*
X682913Y937567D01*
X683292Y937078D01*
X683658Y936579D01*
X684011Y936072D01*
X684353Y935556D01*
X684681Y935032D01*
X684997Y934500D01*
X685300Y933961D01*
X685589Y933414D01*
X685865Y932860D01*
X686128Y932300D01*
X686377Y931734D01*
X686612Y931162D01*
X686833Y930584D01*
X687040Y930001D01*
X687232Y929413D01*
X687410Y928821D01*
X687574Y928225D01*
X687723Y927624D01*
X687858Y927020D01*
X687977Y926414D01*
X688082Y925804D01*
X688172Y925192D01*
X688248Y924578D01*
X688308Y923962D01*
X688353Y923345D01*
X688383Y922728D01*
X688398Y922109D01*
X688398Y921491D01*
X688383Y920872D01*
X688353Y920255D01*
X688308Y919638D01*
X688248Y919022D01*
X688172Y918408D01*
X688082Y917796D01*
X687977Y917186D01*
X687858Y916580D01*
X687723Y915976D01*
X687574Y915375D01*
X687410Y914779D01*
X687232Y914187D01*
X687040Y913599D01*
X686833Y913016D01*
X686612Y912438D01*
X686377Y911866D01*
X686128Y911300D01*
X685865Y910740D01*
X685589Y910186D01*
X685300Y909639D01*
X684997Y909100D01*
X684681Y908568D01*
X684353Y908044D01*
X684011Y907528D01*
X683658Y907021D01*
X683292Y906522D01*
X682913Y906033D01*
X682524Y905552D01*
X682122Y905082D01*
X681709Y904621D01*
X681286Y904171D01*
X680851Y903730D01*
X680406Y903301D01*
X679950Y902883D01*
X679484Y902476D01*
X679009Y902080D01*
X678524Y901696D01*
X678030Y901324D01*
X677527Y900964D01*
X677015Y900616D01*
X676495Y900281D01*
X675967Y899959D01*
X675431Y899650D01*
X674888Y899354D01*
X674338Y899071D01*
X673781Y898802D01*
X673218Y898546D01*
X672649Y898304D01*
X672074Y898076D01*
X671493Y897862D01*
X670908Y897662D01*
X670318Y897477D01*
X669723Y897306D01*
X669125Y897150D01*
X668523Y897008D01*
X667917Y896881D01*
X667309Y896768D01*
X666698Y896671D01*
X666085Y896588D01*
X665470Y896520D01*
X664854Y896468D01*
X664237Y896430D01*
X663619Y896408D01*
X663000Y896400D01*
X619820Y896400D02*
X619820Y947200D01*
D11*
X616592Y954740D02*
X616592Y966424D01*
X616592Y954740D02*
X621785Y954740D01*
X626498Y954740D02*
X631691Y954740D01*
X626498Y954740D02*
X626498Y966424D01*
X631691Y966424D01*
X630393Y961231D02*
X626498Y961231D01*
X636381Y966424D02*
X636381Y954740D01*
X636381Y966424D02*
X639627Y966424D01*
X639740Y966422D01*
X639853Y966416D01*
X639966Y966406D01*
X640079Y966392D01*
X640191Y966375D01*
X640302Y966353D01*
X640412Y966328D01*
X640522Y966298D01*
X640630Y966265D01*
X640737Y966228D01*
X640843Y966188D01*
X640947Y966143D01*
X641050Y966095D01*
X641151Y966044D01*
X641250Y965989D01*
X641347Y965931D01*
X641442Y965869D01*
X641535Y965804D01*
X641625Y965736D01*
X641713Y965665D01*
X641799Y965590D01*
X641882Y965513D01*
X641962Y965433D01*
X642039Y965350D01*
X642114Y965264D01*
X642185Y965176D01*
X642253Y965086D01*
X642318Y964993D01*
X642380Y964898D01*
X642438Y964801D01*
X642493Y964702D01*
X642544Y964601D01*
X642592Y964498D01*
X642637Y964394D01*
X642677Y964288D01*
X642714Y964181D01*
X642747Y964073D01*
X642777Y963963D01*
X642802Y963853D01*
X642824Y963742D01*
X642841Y963630D01*
X642855Y963517D01*
X642865Y963404D01*
X642871Y963291D01*
X642873Y963178D01*
X642873Y957986D01*
X642871Y957873D01*
X642865Y957760D01*
X642855Y957647D01*
X642841Y957534D01*
X642824Y957422D01*
X642802Y957311D01*
X642777Y957201D01*
X642747Y957091D01*
X642714Y956983D01*
X642677Y956876D01*
X642637Y956770D01*
X642592Y956666D01*
X642544Y956563D01*
X642493Y956462D01*
X642438Y956363D01*
X642380Y956266D01*
X642318Y956171D01*
X642253Y956078D01*
X642185Y955988D01*
X642114Y955900D01*
X642039Y955814D01*
X641962Y955731D01*
X641882Y955651D01*
X641799Y955574D01*
X641713Y955499D01*
X641625Y955428D01*
X641535Y955360D01*
X641442Y955295D01*
X641347Y955233D01*
X641250Y955175D01*
X641151Y955120D01*
X641050Y955069D01*
X640947Y955021D01*
X640843Y954976D01*
X640737Y954936D01*
X640630Y954899D01*
X640522Y954866D01*
X640412Y954836D01*
X640302Y954811D01*
X640191Y954789D01*
X640079Y954772D01*
X639966Y954758D01*
X639853Y954748D01*
X639740Y954742D01*
X639627Y954740D01*
X636381Y954740D01*
X650789Y959933D02*
X654683Y959933D01*
X650789Y959933D02*
X650690Y959935D01*
X650590Y959941D01*
X650491Y959950D01*
X650393Y959963D01*
X650295Y959980D01*
X650197Y960001D01*
X650101Y960026D01*
X650006Y960054D01*
X649912Y960086D01*
X649819Y960121D01*
X649727Y960160D01*
X649637Y960203D01*
X649549Y960248D01*
X649462Y960298D01*
X649378Y960350D01*
X649295Y960406D01*
X649215Y960464D01*
X649137Y960526D01*
X649062Y960591D01*
X648989Y960659D01*
X648919Y960729D01*
X648851Y960802D01*
X648786Y960877D01*
X648724Y960955D01*
X648666Y961035D01*
X648610Y961118D01*
X648558Y961202D01*
X648508Y961289D01*
X648463Y961377D01*
X648420Y961467D01*
X648381Y961559D01*
X648346Y961652D01*
X648314Y961746D01*
X648286Y961841D01*
X648261Y961937D01*
X648240Y962035D01*
X648223Y962133D01*
X648210Y962231D01*
X648201Y962330D01*
X648195Y962430D01*
X648193Y962529D01*
X648192Y962529D02*
X648192Y963178D01*
X648194Y963291D01*
X648200Y963404D01*
X648210Y963517D01*
X648224Y963630D01*
X648241Y963742D01*
X648263Y963853D01*
X648288Y963963D01*
X648318Y964073D01*
X648351Y964181D01*
X648388Y964288D01*
X648428Y964394D01*
X648473Y964498D01*
X648521Y964601D01*
X648572Y964702D01*
X648627Y964801D01*
X648685Y964898D01*
X648747Y964993D01*
X648812Y965086D01*
X648880Y965176D01*
X648951Y965264D01*
X649026Y965350D01*
X649103Y965433D01*
X649183Y965513D01*
X649266Y965590D01*
X649352Y965665D01*
X649440Y965736D01*
X649530Y965804D01*
X649623Y965869D01*
X649718Y965931D01*
X649815Y965989D01*
X649914Y966044D01*
X650015Y966095D01*
X650118Y966143D01*
X650222Y966188D01*
X650328Y966228D01*
X650435Y966265D01*
X650543Y966298D01*
X650653Y966328D01*
X650763Y966353D01*
X650874Y966375D01*
X650986Y966392D01*
X651099Y966406D01*
X651212Y966416D01*
X651325Y966422D01*
X651438Y966424D01*
X651551Y966422D01*
X651664Y966416D01*
X651777Y966406D01*
X651890Y966392D01*
X652002Y966375D01*
X652113Y966353D01*
X652223Y966328D01*
X652333Y966298D01*
X652441Y966265D01*
X652548Y966228D01*
X652654Y966188D01*
X652758Y966143D01*
X652861Y966095D01*
X652962Y966044D01*
X653061Y965989D01*
X653158Y965931D01*
X653253Y965869D01*
X653346Y965804D01*
X653436Y965736D01*
X653524Y965665D01*
X653610Y965590D01*
X653693Y965513D01*
X653773Y965433D01*
X653850Y965350D01*
X653925Y965264D01*
X653996Y965176D01*
X654064Y965086D01*
X654129Y964993D01*
X654191Y964898D01*
X654249Y964801D01*
X654304Y964702D01*
X654355Y964601D01*
X654403Y964498D01*
X654448Y964394D01*
X654488Y964288D01*
X654525Y964181D01*
X654558Y964073D01*
X654588Y963963D01*
X654613Y963853D01*
X654635Y963742D01*
X654652Y963630D01*
X654666Y963517D01*
X654676Y963404D01*
X654682Y963291D01*
X654684Y963178D01*
X654683Y963178D02*
X654683Y959933D01*
X654684Y959933D02*
X654682Y959790D01*
X654676Y959647D01*
X654666Y959504D01*
X654652Y959362D01*
X654635Y959220D01*
X654613Y959078D01*
X654588Y958937D01*
X654558Y958797D01*
X654525Y958658D01*
X654488Y958520D01*
X654447Y958383D01*
X654403Y958247D01*
X654354Y958112D01*
X654302Y957979D01*
X654247Y957847D01*
X654187Y957717D01*
X654124Y957588D01*
X654058Y957461D01*
X653988Y957337D01*
X653915Y957214D01*
X653838Y957093D01*
X653758Y956974D01*
X653675Y956858D01*
X653589Y956743D01*
X653500Y956632D01*
X653407Y956522D01*
X653312Y956416D01*
X653213Y956312D01*
X653112Y956211D01*
X653008Y956112D01*
X652902Y956017D01*
X652792Y955924D01*
X652681Y955835D01*
X652566Y955749D01*
X652450Y955666D01*
X652331Y955586D01*
X652210Y955509D01*
X652088Y955436D01*
X651963Y955366D01*
X651836Y955300D01*
X651707Y955237D01*
X651577Y955177D01*
X651445Y955122D01*
X651312Y955070D01*
X651177Y955021D01*
X651041Y954977D01*
X650904Y954936D01*
X650766Y954899D01*
X650627Y954866D01*
X650487Y954836D01*
X650346Y954811D01*
X650204Y954789D01*
X650062Y954772D01*
X649920Y954758D01*
X649777Y954748D01*
X649634Y954742D01*
X649491Y954740D01*
D10*
X369200Y1391500D02*
X369204Y1391812D01*
X369215Y1392123D01*
X369234Y1392434D01*
X369261Y1392745D01*
X369296Y1393055D01*
X369337Y1393363D01*
X369387Y1393671D01*
X369444Y1393978D01*
X369509Y1394283D01*
X369581Y1394586D01*
X369660Y1394887D01*
X369747Y1395187D01*
X369841Y1395484D01*
X369942Y1395779D01*
X370051Y1396071D01*
X370167Y1396360D01*
X370290Y1396647D01*
X370419Y1396930D01*
X370556Y1397210D01*
X370700Y1397487D01*
X370850Y1397760D01*
X371007Y1398029D01*
X371170Y1398294D01*
X371340Y1398556D01*
X371517Y1398813D01*
X371699Y1399065D01*
X371888Y1399313D01*
X372083Y1399557D01*
X372283Y1399795D01*
X372490Y1400029D01*
X372702Y1400257D01*
X372920Y1400480D01*
X373143Y1400698D01*
X373371Y1400910D01*
X373605Y1401117D01*
X373843Y1401317D01*
X374087Y1401512D01*
X374335Y1401701D01*
X374587Y1401883D01*
X374844Y1402060D01*
X375106Y1402230D01*
X375371Y1402393D01*
X375640Y1402550D01*
X375913Y1402700D01*
X376190Y1402844D01*
X376470Y1402981D01*
X376753Y1403110D01*
X377040Y1403233D01*
X377329Y1403349D01*
X377621Y1403458D01*
X377916Y1403559D01*
X378213Y1403653D01*
X378513Y1403740D01*
X378814Y1403819D01*
X379117Y1403891D01*
X379422Y1403956D01*
X379729Y1404013D01*
X380037Y1404063D01*
X380345Y1404104D01*
X380655Y1404139D01*
X380966Y1404166D01*
X381277Y1404185D01*
X381588Y1404196D01*
X381900Y1404200D01*
X382212Y1404196D01*
X382523Y1404185D01*
X382834Y1404166D01*
X383145Y1404139D01*
X383455Y1404104D01*
X383763Y1404063D01*
X384071Y1404013D01*
X384378Y1403956D01*
X384683Y1403891D01*
X384986Y1403819D01*
X385287Y1403740D01*
X385587Y1403653D01*
X385884Y1403559D01*
X386179Y1403458D01*
X386471Y1403349D01*
X386760Y1403233D01*
X387047Y1403110D01*
X387330Y1402981D01*
X387610Y1402844D01*
X387887Y1402700D01*
X388160Y1402550D01*
X388429Y1402393D01*
X388694Y1402230D01*
X388956Y1402060D01*
X389213Y1401883D01*
X389465Y1401701D01*
X389713Y1401512D01*
X389957Y1401317D01*
X390195Y1401117D01*
X390429Y1400910D01*
X390657Y1400698D01*
X390880Y1400480D01*
X391098Y1400257D01*
X391310Y1400029D01*
X391517Y1399795D01*
X391717Y1399557D01*
X391912Y1399313D01*
X392101Y1399065D01*
X392283Y1398813D01*
X392460Y1398556D01*
X392630Y1398294D01*
X392793Y1398029D01*
X392950Y1397760D01*
X393100Y1397487D01*
X393244Y1397210D01*
X393381Y1396930D01*
X393510Y1396647D01*
X393633Y1396360D01*
X393749Y1396071D01*
X393858Y1395779D01*
X393959Y1395484D01*
X394053Y1395187D01*
X394140Y1394887D01*
X394219Y1394586D01*
X394291Y1394283D01*
X394356Y1393978D01*
X394413Y1393671D01*
X394463Y1393363D01*
X394504Y1393055D01*
X394539Y1392745D01*
X394566Y1392434D01*
X394585Y1392123D01*
X394596Y1391812D01*
X394600Y1391500D01*
X394596Y1391188D01*
X394585Y1390877D01*
X394566Y1390566D01*
X394539Y1390255D01*
X394504Y1389945D01*
X394463Y1389637D01*
X394413Y1389329D01*
X394356Y1389022D01*
X394291Y1388717D01*
X394219Y1388414D01*
X394140Y1388113D01*
X394053Y1387813D01*
X393959Y1387516D01*
X393858Y1387221D01*
X393749Y1386929D01*
X393633Y1386640D01*
X393510Y1386353D01*
X393381Y1386070D01*
X393244Y1385790D01*
X393100Y1385513D01*
X392950Y1385240D01*
X392793Y1384971D01*
X392630Y1384706D01*
X392460Y1384444D01*
X392283Y1384187D01*
X392101Y1383935D01*
X391912Y1383687D01*
X391717Y1383443D01*
X391517Y1383205D01*
X391310Y1382971D01*
X391098Y1382743D01*
X390880Y1382520D01*
X390657Y1382302D01*
X390429Y1382090D01*
X390195Y1381883D01*
X389957Y1381683D01*
X389713Y1381488D01*
X389465Y1381299D01*
X389213Y1381117D01*
X388956Y1380940D01*
X388694Y1380770D01*
X388429Y1380607D01*
X388160Y1380450D01*
X387887Y1380300D01*
X387610Y1380156D01*
X387330Y1380019D01*
X387047Y1379890D01*
X386760Y1379767D01*
X386471Y1379651D01*
X386179Y1379542D01*
X385884Y1379441D01*
X385587Y1379347D01*
X385287Y1379260D01*
X384986Y1379181D01*
X384683Y1379109D01*
X384378Y1379044D01*
X384071Y1378987D01*
X383763Y1378937D01*
X383455Y1378896D01*
X383145Y1378861D01*
X382834Y1378834D01*
X382523Y1378815D01*
X382212Y1378804D01*
X381900Y1378800D01*
X381588Y1378804D01*
X381277Y1378815D01*
X380966Y1378834D01*
X380655Y1378861D01*
X380345Y1378896D01*
X380037Y1378937D01*
X379729Y1378987D01*
X379422Y1379044D01*
X379117Y1379109D01*
X378814Y1379181D01*
X378513Y1379260D01*
X378213Y1379347D01*
X377916Y1379441D01*
X377621Y1379542D01*
X377329Y1379651D01*
X377040Y1379767D01*
X376753Y1379890D01*
X376470Y1380019D01*
X376190Y1380156D01*
X375913Y1380300D01*
X375640Y1380450D01*
X375371Y1380607D01*
X375106Y1380770D01*
X374844Y1380940D01*
X374587Y1381117D01*
X374335Y1381299D01*
X374087Y1381488D01*
X373843Y1381683D01*
X373605Y1381883D01*
X373371Y1382090D01*
X373143Y1382302D01*
X372920Y1382520D01*
X372702Y1382743D01*
X372490Y1382971D01*
X372283Y1383205D01*
X372083Y1383443D01*
X371888Y1383687D01*
X371699Y1383935D01*
X371517Y1384187D01*
X371340Y1384444D01*
X371170Y1384706D01*
X371007Y1384971D01*
X370850Y1385240D01*
X370700Y1385513D01*
X370556Y1385790D01*
X370419Y1386070D01*
X370290Y1386353D01*
X370167Y1386640D01*
X370051Y1386929D01*
X369942Y1387221D01*
X369841Y1387516D01*
X369747Y1387813D01*
X369660Y1388113D01*
X369581Y1388414D01*
X369509Y1388717D01*
X369444Y1389022D01*
X369387Y1389329D01*
X369337Y1389637D01*
X369296Y1389945D01*
X369261Y1390255D01*
X369234Y1390566D01*
X369215Y1390877D01*
X369204Y1391188D01*
X369200Y1391500D01*
D11*
X376946Y1413284D02*
X384735Y1413284D01*
X380841Y1417178D02*
X380841Y1409389D01*
M02*
