G04 EAGLE Gerber RS-274X export*
G75*
%MOMM*%
%FSLAX34Y34*%
%LPD*%
%INSilkscreen Bottom*%
%IPPOS*%
%AMOC8*
5,1,8,0,0,1.08239X$1,22.5*%
G01*
%ADD10C,0.101600*%
%ADD11C,0.152400*%
%ADD12C,0.127000*%


D10*
X38246Y72588D02*
X40843Y72588D01*
X40942Y72590D01*
X41042Y72596D01*
X41141Y72605D01*
X41239Y72618D01*
X41337Y72635D01*
X41435Y72656D01*
X41531Y72681D01*
X41626Y72709D01*
X41720Y72741D01*
X41813Y72776D01*
X41905Y72815D01*
X41995Y72858D01*
X42083Y72903D01*
X42170Y72953D01*
X42254Y73005D01*
X42337Y73061D01*
X42417Y73119D01*
X42495Y73181D01*
X42570Y73246D01*
X42643Y73314D01*
X42713Y73384D01*
X42781Y73457D01*
X42846Y73532D01*
X42908Y73610D01*
X42966Y73690D01*
X43022Y73773D01*
X43074Y73857D01*
X43124Y73944D01*
X43169Y74032D01*
X43212Y74122D01*
X43251Y74214D01*
X43286Y74307D01*
X43318Y74401D01*
X43346Y74496D01*
X43371Y74592D01*
X43392Y74690D01*
X43409Y74788D01*
X43422Y74886D01*
X43431Y74985D01*
X43437Y75085D01*
X43439Y75184D01*
X43439Y81676D01*
X43437Y81775D01*
X43431Y81875D01*
X43422Y81974D01*
X43409Y82072D01*
X43392Y82170D01*
X43371Y82268D01*
X43346Y82364D01*
X43318Y82459D01*
X43286Y82553D01*
X43251Y82646D01*
X43212Y82738D01*
X43169Y82828D01*
X43124Y82916D01*
X43074Y83003D01*
X43022Y83087D01*
X42966Y83170D01*
X42908Y83250D01*
X42846Y83328D01*
X42781Y83403D01*
X42713Y83476D01*
X42643Y83546D01*
X42570Y83614D01*
X42495Y83679D01*
X42417Y83741D01*
X42337Y83799D01*
X42254Y83855D01*
X42170Y83907D01*
X42083Y83957D01*
X41995Y84002D01*
X41905Y84045D01*
X41813Y84084D01*
X41720Y84119D01*
X41626Y84151D01*
X41531Y84179D01*
X41435Y84204D01*
X41337Y84225D01*
X41239Y84242D01*
X41141Y84255D01*
X41042Y84264D01*
X40942Y84270D01*
X40843Y84272D01*
X38246Y84272D01*
X33881Y81026D02*
X33881Y75834D01*
X33881Y81026D02*
X33879Y81139D01*
X33873Y81252D01*
X33863Y81365D01*
X33849Y81478D01*
X33832Y81590D01*
X33810Y81701D01*
X33785Y81811D01*
X33755Y81921D01*
X33722Y82029D01*
X33685Y82136D01*
X33645Y82242D01*
X33600Y82346D01*
X33552Y82449D01*
X33501Y82550D01*
X33446Y82649D01*
X33388Y82746D01*
X33326Y82841D01*
X33261Y82934D01*
X33193Y83024D01*
X33122Y83112D01*
X33047Y83198D01*
X32970Y83281D01*
X32890Y83361D01*
X32807Y83438D01*
X32721Y83513D01*
X32633Y83584D01*
X32543Y83652D01*
X32450Y83717D01*
X32355Y83779D01*
X32258Y83837D01*
X32159Y83892D01*
X32058Y83943D01*
X31955Y83991D01*
X31851Y84036D01*
X31745Y84076D01*
X31638Y84113D01*
X31530Y84146D01*
X31420Y84176D01*
X31310Y84201D01*
X31199Y84223D01*
X31087Y84240D01*
X30974Y84254D01*
X30861Y84264D01*
X30748Y84270D01*
X30635Y84272D01*
X30522Y84270D01*
X30409Y84264D01*
X30296Y84254D01*
X30183Y84240D01*
X30071Y84223D01*
X29960Y84201D01*
X29850Y84176D01*
X29740Y84146D01*
X29632Y84113D01*
X29525Y84076D01*
X29419Y84036D01*
X29315Y83991D01*
X29212Y83943D01*
X29111Y83892D01*
X29012Y83837D01*
X28915Y83779D01*
X28820Y83717D01*
X28727Y83652D01*
X28637Y83584D01*
X28549Y83513D01*
X28463Y83438D01*
X28380Y83361D01*
X28300Y83281D01*
X28223Y83198D01*
X28148Y83112D01*
X28077Y83024D01*
X28009Y82934D01*
X27944Y82841D01*
X27882Y82746D01*
X27824Y82649D01*
X27769Y82550D01*
X27718Y82449D01*
X27670Y82346D01*
X27625Y82242D01*
X27585Y82136D01*
X27548Y82029D01*
X27515Y81921D01*
X27485Y81811D01*
X27460Y81701D01*
X27438Y81590D01*
X27421Y81478D01*
X27407Y81365D01*
X27397Y81252D01*
X27391Y81139D01*
X27389Y81026D01*
X27390Y81026D02*
X27390Y75834D01*
X27389Y75834D02*
X27391Y75721D01*
X27397Y75608D01*
X27407Y75495D01*
X27421Y75382D01*
X27438Y75270D01*
X27460Y75159D01*
X27485Y75049D01*
X27515Y74939D01*
X27548Y74831D01*
X27585Y74724D01*
X27625Y74618D01*
X27670Y74514D01*
X27718Y74411D01*
X27769Y74310D01*
X27824Y74211D01*
X27882Y74114D01*
X27944Y74019D01*
X28009Y73926D01*
X28077Y73836D01*
X28148Y73748D01*
X28223Y73662D01*
X28300Y73579D01*
X28380Y73499D01*
X28463Y73422D01*
X28549Y73347D01*
X28637Y73276D01*
X28727Y73208D01*
X28820Y73143D01*
X28915Y73081D01*
X29012Y73023D01*
X29111Y72968D01*
X29212Y72917D01*
X29315Y72869D01*
X29419Y72824D01*
X29525Y72784D01*
X29632Y72747D01*
X29740Y72714D01*
X29850Y72684D01*
X29960Y72659D01*
X30071Y72637D01*
X30183Y72620D01*
X30296Y72606D01*
X30409Y72596D01*
X30522Y72590D01*
X30635Y72588D01*
X30748Y72590D01*
X30861Y72596D01*
X30974Y72606D01*
X31087Y72620D01*
X31199Y72637D01*
X31310Y72659D01*
X31420Y72684D01*
X31530Y72714D01*
X31638Y72747D01*
X31745Y72784D01*
X31851Y72824D01*
X31955Y72869D01*
X32058Y72917D01*
X32159Y72968D01*
X32258Y73023D01*
X32355Y73081D01*
X32450Y73143D01*
X32543Y73208D01*
X32633Y73276D01*
X32721Y73347D01*
X32807Y73422D01*
X32890Y73499D01*
X32970Y73579D01*
X33047Y73662D01*
X33122Y73748D01*
X33193Y73836D01*
X33261Y73926D01*
X33326Y74019D01*
X33388Y74114D01*
X33446Y74211D01*
X33501Y74310D01*
X33552Y74411D01*
X33600Y74514D01*
X33645Y74618D01*
X33685Y74724D01*
X33722Y74831D01*
X33755Y74939D01*
X33785Y75049D01*
X33810Y75159D01*
X33832Y75270D01*
X33849Y75382D01*
X33863Y75495D01*
X33873Y75608D01*
X33879Y75721D01*
X33881Y75834D01*
X22070Y72588D02*
X22070Y84272D01*
X15579Y72588D01*
X15579Y84272D01*
X10259Y81676D02*
X7014Y84272D01*
X7014Y72588D01*
X10259Y72588D02*
X3768Y72588D01*
D11*
X434330Y612550D02*
X487670Y612550D01*
X487670Y686210D01*
X434330Y686210D01*
X435600Y494910D02*
X488940Y494910D01*
X488940Y568570D01*
X435600Y568570D01*
D12*
X359050Y444090D02*
X320610Y444090D01*
X359050Y444090D02*
X359050Y426310D01*
X320610Y426310D01*
X320610Y444090D01*
D10*
X338330Y446503D02*
X338330Y458187D01*
X335085Y458187D01*
X334972Y458185D01*
X334859Y458179D01*
X334746Y458169D01*
X334633Y458155D01*
X334521Y458138D01*
X334410Y458116D01*
X334300Y458091D01*
X334190Y458061D01*
X334082Y458028D01*
X333975Y457991D01*
X333869Y457951D01*
X333765Y457906D01*
X333662Y457858D01*
X333561Y457807D01*
X333462Y457752D01*
X333365Y457694D01*
X333270Y457632D01*
X333177Y457567D01*
X333087Y457499D01*
X332999Y457428D01*
X332913Y457353D01*
X332830Y457276D01*
X332750Y457196D01*
X332673Y457113D01*
X332598Y457027D01*
X332527Y456939D01*
X332459Y456849D01*
X332394Y456756D01*
X332332Y456661D01*
X332274Y456564D01*
X332219Y456465D01*
X332168Y456364D01*
X332120Y456261D01*
X332075Y456157D01*
X332035Y456051D01*
X331998Y455944D01*
X331965Y455836D01*
X331935Y455726D01*
X331910Y455616D01*
X331888Y455505D01*
X331871Y455393D01*
X331857Y455280D01*
X331847Y455167D01*
X331841Y455054D01*
X331839Y454941D01*
X331841Y454828D01*
X331847Y454715D01*
X331857Y454602D01*
X331871Y454489D01*
X331888Y454377D01*
X331910Y454266D01*
X331935Y454156D01*
X331965Y454046D01*
X331998Y453938D01*
X332035Y453831D01*
X332075Y453725D01*
X332120Y453621D01*
X332168Y453518D01*
X332219Y453417D01*
X332274Y453318D01*
X332332Y453221D01*
X332394Y453126D01*
X332459Y453033D01*
X332527Y452943D01*
X332598Y452855D01*
X332673Y452769D01*
X332750Y452686D01*
X332830Y452606D01*
X332913Y452529D01*
X332999Y452454D01*
X333087Y452383D01*
X333177Y452315D01*
X333270Y452250D01*
X333365Y452188D01*
X333462Y452130D01*
X333561Y452075D01*
X333662Y452024D01*
X333765Y451976D01*
X333869Y451931D01*
X333975Y451891D01*
X334082Y451854D01*
X334190Y451821D01*
X334300Y451791D01*
X334410Y451766D01*
X334521Y451744D01*
X334633Y451727D01*
X334746Y451713D01*
X334859Y451703D01*
X334972Y451697D01*
X335085Y451695D01*
X335085Y451696D02*
X338330Y451696D01*
X334436Y451696D02*
X331839Y446503D01*
X326974Y455591D02*
X323729Y458187D01*
X323729Y446503D01*
X326974Y446503D02*
X320483Y446503D01*
D12*
X279950Y877690D02*
X241510Y877690D01*
X279950Y877690D02*
X279950Y859910D01*
X241510Y859910D01*
X241510Y877690D01*
D10*
X270660Y880103D02*
X270660Y891787D01*
X267415Y891787D01*
X267302Y891785D01*
X267189Y891779D01*
X267076Y891769D01*
X266963Y891755D01*
X266851Y891738D01*
X266740Y891716D01*
X266630Y891691D01*
X266520Y891661D01*
X266412Y891628D01*
X266305Y891591D01*
X266199Y891551D01*
X266095Y891506D01*
X265992Y891458D01*
X265891Y891407D01*
X265792Y891352D01*
X265695Y891294D01*
X265600Y891232D01*
X265507Y891167D01*
X265417Y891099D01*
X265329Y891028D01*
X265243Y890953D01*
X265160Y890876D01*
X265080Y890796D01*
X265003Y890713D01*
X264928Y890627D01*
X264857Y890539D01*
X264789Y890449D01*
X264724Y890356D01*
X264662Y890261D01*
X264604Y890164D01*
X264549Y890065D01*
X264498Y889964D01*
X264450Y889861D01*
X264405Y889757D01*
X264365Y889651D01*
X264328Y889544D01*
X264295Y889436D01*
X264265Y889326D01*
X264240Y889216D01*
X264218Y889105D01*
X264201Y888993D01*
X264187Y888880D01*
X264177Y888767D01*
X264171Y888654D01*
X264169Y888541D01*
X264171Y888428D01*
X264177Y888315D01*
X264187Y888202D01*
X264201Y888089D01*
X264218Y887977D01*
X264240Y887866D01*
X264265Y887756D01*
X264295Y887646D01*
X264328Y887538D01*
X264365Y887431D01*
X264405Y887325D01*
X264450Y887221D01*
X264498Y887118D01*
X264549Y887017D01*
X264604Y886918D01*
X264662Y886821D01*
X264724Y886726D01*
X264789Y886633D01*
X264857Y886543D01*
X264928Y886455D01*
X265003Y886369D01*
X265080Y886286D01*
X265160Y886206D01*
X265243Y886129D01*
X265329Y886054D01*
X265417Y885983D01*
X265507Y885915D01*
X265600Y885850D01*
X265695Y885788D01*
X265792Y885730D01*
X265891Y885675D01*
X265992Y885624D01*
X266095Y885576D01*
X266199Y885531D01*
X266305Y885491D01*
X266412Y885454D01*
X266520Y885421D01*
X266630Y885391D01*
X266740Y885366D01*
X266851Y885344D01*
X266963Y885327D01*
X267076Y885313D01*
X267189Y885303D01*
X267302Y885297D01*
X267415Y885295D01*
X267415Y885296D02*
X270660Y885296D01*
X266766Y885296D02*
X264169Y880103D01*
X259304Y889191D02*
X256059Y891787D01*
X256059Y880103D01*
X259304Y880103D02*
X252813Y880103D01*
X247875Y885945D02*
X247872Y886175D01*
X247864Y886405D01*
X247850Y886634D01*
X247831Y886863D01*
X247806Y887092D01*
X247776Y887320D01*
X247741Y887547D01*
X247700Y887773D01*
X247654Y887998D01*
X247602Y888222D01*
X247545Y888445D01*
X247483Y888666D01*
X247415Y888886D01*
X247342Y889104D01*
X247264Y889320D01*
X247181Y889534D01*
X247093Y889747D01*
X247000Y889957D01*
X246901Y890164D01*
X246868Y890254D01*
X246832Y890343D01*
X246792Y890431D01*
X246748Y890516D01*
X246701Y890600D01*
X246651Y890682D01*
X246597Y890762D01*
X246541Y890839D01*
X246481Y890915D01*
X246418Y890988D01*
X246353Y891058D01*
X246284Y891126D01*
X246213Y891190D01*
X246140Y891252D01*
X246064Y891311D01*
X245986Y891367D01*
X245905Y891420D01*
X245823Y891469D01*
X245739Y891515D01*
X245652Y891558D01*
X245565Y891597D01*
X245475Y891633D01*
X245385Y891665D01*
X245293Y891693D01*
X245200Y891718D01*
X245106Y891739D01*
X245012Y891756D01*
X244917Y891770D01*
X244821Y891779D01*
X244725Y891785D01*
X244629Y891787D01*
X244533Y891785D01*
X244437Y891779D01*
X244341Y891770D01*
X244246Y891756D01*
X244152Y891739D01*
X244058Y891718D01*
X243965Y891693D01*
X243873Y891665D01*
X243783Y891633D01*
X243693Y891597D01*
X243606Y891558D01*
X243519Y891515D01*
X243435Y891469D01*
X243353Y891420D01*
X243272Y891367D01*
X243194Y891311D01*
X243118Y891252D01*
X243045Y891190D01*
X242974Y891126D01*
X242905Y891058D01*
X242840Y890988D01*
X242777Y890915D01*
X242717Y890840D01*
X242661Y890762D01*
X242607Y890682D01*
X242557Y890600D01*
X242510Y890516D01*
X242467Y890431D01*
X242426Y890343D01*
X242390Y890254D01*
X242357Y890164D01*
X242258Y889956D01*
X242165Y889746D01*
X242077Y889534D01*
X241994Y889320D01*
X241916Y889103D01*
X241843Y888885D01*
X241775Y888666D01*
X241713Y888444D01*
X241656Y888222D01*
X241604Y887998D01*
X241558Y887773D01*
X241517Y887547D01*
X241482Y887319D01*
X241452Y887092D01*
X241427Y886863D01*
X241408Y886634D01*
X241394Y886405D01*
X241386Y886175D01*
X241383Y885945D01*
X247874Y885945D02*
X247871Y885715D01*
X247863Y885485D01*
X247849Y885256D01*
X247830Y885027D01*
X247805Y884798D01*
X247775Y884570D01*
X247740Y884343D01*
X247699Y884117D01*
X247653Y883892D01*
X247601Y883668D01*
X247544Y883445D01*
X247482Y883224D01*
X247414Y883004D01*
X247341Y882786D01*
X247263Y882570D01*
X247180Y882356D01*
X247092Y882144D01*
X246999Y881933D01*
X246900Y881726D01*
X246901Y881726D02*
X246868Y881636D01*
X246832Y881547D01*
X246791Y881459D01*
X246748Y881374D01*
X246701Y881290D01*
X246651Y881208D01*
X246597Y881128D01*
X246541Y881051D01*
X246481Y880975D01*
X246418Y880902D01*
X246353Y880832D01*
X246284Y880764D01*
X246213Y880700D01*
X246140Y880638D01*
X246064Y880579D01*
X245986Y880523D01*
X245905Y880470D01*
X245823Y880421D01*
X245739Y880375D01*
X245652Y880332D01*
X245565Y880293D01*
X245475Y880257D01*
X245385Y880225D01*
X245293Y880197D01*
X245200Y880172D01*
X245106Y880151D01*
X245012Y880134D01*
X244917Y880120D01*
X244821Y880111D01*
X244725Y880105D01*
X244629Y880103D01*
X242357Y881726D02*
X242258Y881933D01*
X242165Y882144D01*
X242077Y882356D01*
X241994Y882570D01*
X241916Y882786D01*
X241843Y883004D01*
X241775Y883224D01*
X241713Y883445D01*
X241656Y883668D01*
X241604Y883892D01*
X241558Y884117D01*
X241517Y884343D01*
X241482Y884570D01*
X241452Y884798D01*
X241427Y885027D01*
X241408Y885256D01*
X241394Y885485D01*
X241386Y885715D01*
X241383Y885945D01*
X242357Y881726D02*
X242390Y881636D01*
X242426Y881547D01*
X242467Y881459D01*
X242510Y881374D01*
X242557Y881290D01*
X242607Y881208D01*
X242661Y881128D01*
X242717Y881050D01*
X242777Y880975D01*
X242840Y880902D01*
X242905Y880832D01*
X242974Y880764D01*
X243045Y880700D01*
X243118Y880638D01*
X243194Y880579D01*
X243272Y880523D01*
X243353Y880470D01*
X243435Y880421D01*
X243519Y880375D01*
X243606Y880332D01*
X243693Y880293D01*
X243783Y880257D01*
X243873Y880225D01*
X243965Y880197D01*
X244058Y880172D01*
X244152Y880151D01*
X244246Y880134D01*
X244341Y880120D01*
X244437Y880111D01*
X244533Y880105D01*
X244629Y880103D01*
X247225Y882699D02*
X242032Y889191D01*
D12*
X246810Y664490D02*
X285250Y664490D01*
X285250Y646710D01*
X246810Y646710D01*
X246810Y664490D01*
D10*
X264530Y666903D02*
X264530Y678587D01*
X261285Y678587D01*
X261172Y678585D01*
X261059Y678579D01*
X260946Y678569D01*
X260833Y678555D01*
X260721Y678538D01*
X260610Y678516D01*
X260500Y678491D01*
X260390Y678461D01*
X260282Y678428D01*
X260175Y678391D01*
X260069Y678351D01*
X259965Y678306D01*
X259862Y678258D01*
X259761Y678207D01*
X259662Y678152D01*
X259565Y678094D01*
X259470Y678032D01*
X259377Y677967D01*
X259287Y677899D01*
X259199Y677828D01*
X259113Y677753D01*
X259030Y677676D01*
X258950Y677596D01*
X258873Y677513D01*
X258798Y677427D01*
X258727Y677339D01*
X258659Y677249D01*
X258594Y677156D01*
X258532Y677061D01*
X258474Y676964D01*
X258419Y676865D01*
X258368Y676764D01*
X258320Y676661D01*
X258275Y676557D01*
X258235Y676451D01*
X258198Y676344D01*
X258165Y676236D01*
X258135Y676126D01*
X258110Y676016D01*
X258088Y675905D01*
X258071Y675793D01*
X258057Y675680D01*
X258047Y675567D01*
X258041Y675454D01*
X258039Y675341D01*
X258041Y675228D01*
X258047Y675115D01*
X258057Y675002D01*
X258071Y674889D01*
X258088Y674777D01*
X258110Y674666D01*
X258135Y674556D01*
X258165Y674446D01*
X258198Y674338D01*
X258235Y674231D01*
X258275Y674125D01*
X258320Y674021D01*
X258368Y673918D01*
X258419Y673817D01*
X258474Y673718D01*
X258532Y673621D01*
X258594Y673526D01*
X258659Y673433D01*
X258727Y673343D01*
X258798Y673255D01*
X258873Y673169D01*
X258950Y673086D01*
X259030Y673006D01*
X259113Y672929D01*
X259199Y672854D01*
X259287Y672783D01*
X259377Y672715D01*
X259470Y672650D01*
X259565Y672588D01*
X259662Y672530D01*
X259761Y672475D01*
X259862Y672424D01*
X259965Y672376D01*
X260069Y672331D01*
X260175Y672291D01*
X260282Y672254D01*
X260390Y672221D01*
X260500Y672191D01*
X260610Y672166D01*
X260721Y672144D01*
X260833Y672127D01*
X260946Y672113D01*
X261059Y672103D01*
X261172Y672097D01*
X261285Y672095D01*
X261285Y672096D02*
X264530Y672096D01*
X260636Y672096D02*
X258039Y666903D01*
X246683Y675666D02*
X246685Y675773D01*
X246691Y675879D01*
X246701Y675985D01*
X246714Y676091D01*
X246732Y676197D01*
X246753Y676301D01*
X246778Y676405D01*
X246807Y676508D01*
X246839Y676609D01*
X246876Y676709D01*
X246916Y676808D01*
X246959Y676906D01*
X247006Y677002D01*
X247057Y677096D01*
X247111Y677188D01*
X247168Y677278D01*
X247228Y677366D01*
X247292Y677451D01*
X247359Y677534D01*
X247429Y677615D01*
X247501Y677693D01*
X247577Y677769D01*
X247655Y677841D01*
X247736Y677911D01*
X247819Y677978D01*
X247904Y678042D01*
X247992Y678102D01*
X248082Y678159D01*
X248174Y678213D01*
X248268Y678264D01*
X248364Y678311D01*
X248462Y678354D01*
X248561Y678394D01*
X248661Y678431D01*
X248762Y678463D01*
X248865Y678492D01*
X248969Y678517D01*
X249073Y678538D01*
X249179Y678556D01*
X249285Y678569D01*
X249391Y678579D01*
X249497Y678585D01*
X249604Y678587D01*
X249725Y678585D01*
X249846Y678579D01*
X249966Y678569D01*
X250087Y678556D01*
X250206Y678538D01*
X250326Y678517D01*
X250444Y678492D01*
X250561Y678463D01*
X250678Y678430D01*
X250793Y678394D01*
X250907Y678353D01*
X251020Y678310D01*
X251132Y678262D01*
X251241Y678211D01*
X251349Y678156D01*
X251456Y678098D01*
X251560Y678037D01*
X251662Y677972D01*
X251762Y677904D01*
X251860Y677833D01*
X251956Y677759D01*
X252049Y677682D01*
X252139Y677601D01*
X252227Y677518D01*
X252312Y677432D01*
X252395Y677343D01*
X252474Y677252D01*
X252551Y677158D01*
X252624Y677062D01*
X252694Y676964D01*
X252761Y676863D01*
X252825Y676760D01*
X252886Y676655D01*
X252943Y676548D01*
X252996Y676440D01*
X253046Y676330D01*
X253092Y676218D01*
X253135Y676105D01*
X253174Y675990D01*
X247657Y673394D02*
X247578Y673472D01*
X247502Y673552D01*
X247429Y673635D01*
X247359Y673721D01*
X247292Y673808D01*
X247228Y673899D01*
X247168Y673991D01*
X247110Y674085D01*
X247056Y674182D01*
X247006Y674280D01*
X246959Y674380D01*
X246915Y674481D01*
X246875Y674584D01*
X246839Y674689D01*
X246807Y674794D01*
X246778Y674901D01*
X246753Y675008D01*
X246731Y675117D01*
X246714Y675226D01*
X246700Y675335D01*
X246691Y675445D01*
X246685Y675556D01*
X246683Y675666D01*
X247657Y673394D02*
X253174Y666903D01*
X246683Y666903D01*
D12*
X363790Y960650D02*
X363790Y999090D01*
X363790Y960650D02*
X346010Y960650D01*
X346010Y999090D01*
X363790Y999090D01*
D10*
X335730Y998187D02*
X335730Y986503D01*
X335730Y998187D02*
X332485Y998187D01*
X332372Y998185D01*
X332259Y998179D01*
X332146Y998169D01*
X332033Y998155D01*
X331921Y998138D01*
X331810Y998116D01*
X331700Y998091D01*
X331590Y998061D01*
X331482Y998028D01*
X331375Y997991D01*
X331269Y997951D01*
X331165Y997906D01*
X331062Y997858D01*
X330961Y997807D01*
X330862Y997752D01*
X330765Y997694D01*
X330670Y997632D01*
X330577Y997567D01*
X330487Y997499D01*
X330399Y997428D01*
X330313Y997353D01*
X330230Y997276D01*
X330150Y997196D01*
X330073Y997113D01*
X329998Y997027D01*
X329927Y996939D01*
X329859Y996849D01*
X329794Y996756D01*
X329732Y996661D01*
X329674Y996564D01*
X329619Y996465D01*
X329568Y996364D01*
X329520Y996261D01*
X329475Y996157D01*
X329435Y996051D01*
X329398Y995944D01*
X329365Y995836D01*
X329335Y995726D01*
X329310Y995616D01*
X329288Y995505D01*
X329271Y995393D01*
X329257Y995280D01*
X329247Y995167D01*
X329241Y995054D01*
X329239Y994941D01*
X329241Y994828D01*
X329247Y994715D01*
X329257Y994602D01*
X329271Y994489D01*
X329288Y994377D01*
X329310Y994266D01*
X329335Y994156D01*
X329365Y994046D01*
X329398Y993938D01*
X329435Y993831D01*
X329475Y993725D01*
X329520Y993621D01*
X329568Y993518D01*
X329619Y993417D01*
X329674Y993318D01*
X329732Y993221D01*
X329794Y993126D01*
X329859Y993033D01*
X329927Y992943D01*
X329998Y992855D01*
X330073Y992769D01*
X330150Y992686D01*
X330230Y992606D01*
X330313Y992529D01*
X330399Y992454D01*
X330487Y992383D01*
X330577Y992315D01*
X330670Y992250D01*
X330765Y992188D01*
X330862Y992130D01*
X330961Y992075D01*
X331062Y992024D01*
X331165Y991976D01*
X331269Y991931D01*
X331375Y991891D01*
X331482Y991854D01*
X331590Y991821D01*
X331700Y991791D01*
X331810Y991766D01*
X331921Y991744D01*
X332033Y991727D01*
X332146Y991713D01*
X332259Y991703D01*
X332372Y991697D01*
X332485Y991695D01*
X332485Y991696D02*
X335730Y991696D01*
X331836Y991696D02*
X329239Y986503D01*
X324374Y986503D02*
X321129Y986503D01*
X321016Y986505D01*
X320903Y986511D01*
X320790Y986521D01*
X320677Y986535D01*
X320565Y986552D01*
X320454Y986574D01*
X320344Y986599D01*
X320234Y986629D01*
X320126Y986662D01*
X320019Y986699D01*
X319913Y986739D01*
X319809Y986784D01*
X319706Y986832D01*
X319605Y986883D01*
X319506Y986938D01*
X319409Y986996D01*
X319314Y987058D01*
X319221Y987123D01*
X319131Y987191D01*
X319043Y987262D01*
X318957Y987337D01*
X318874Y987414D01*
X318794Y987494D01*
X318717Y987577D01*
X318642Y987663D01*
X318571Y987751D01*
X318503Y987841D01*
X318438Y987934D01*
X318376Y988029D01*
X318318Y988126D01*
X318263Y988225D01*
X318212Y988326D01*
X318164Y988429D01*
X318119Y988533D01*
X318079Y988639D01*
X318042Y988746D01*
X318009Y988854D01*
X317979Y988964D01*
X317954Y989074D01*
X317932Y989185D01*
X317915Y989297D01*
X317901Y989410D01*
X317891Y989523D01*
X317885Y989636D01*
X317883Y989749D01*
X317885Y989862D01*
X317891Y989975D01*
X317901Y990088D01*
X317915Y990201D01*
X317932Y990313D01*
X317954Y990424D01*
X317979Y990534D01*
X318009Y990644D01*
X318042Y990752D01*
X318079Y990859D01*
X318119Y990965D01*
X318164Y991069D01*
X318212Y991172D01*
X318263Y991273D01*
X318318Y991372D01*
X318376Y991469D01*
X318438Y991564D01*
X318503Y991657D01*
X318571Y991747D01*
X318642Y991835D01*
X318717Y991921D01*
X318794Y992004D01*
X318874Y992084D01*
X318957Y992161D01*
X319043Y992236D01*
X319131Y992307D01*
X319221Y992375D01*
X319314Y992440D01*
X319409Y992502D01*
X319506Y992560D01*
X319605Y992615D01*
X319706Y992666D01*
X319809Y992714D01*
X319913Y992759D01*
X320019Y992799D01*
X320126Y992836D01*
X320234Y992869D01*
X320344Y992899D01*
X320454Y992924D01*
X320565Y992946D01*
X320677Y992963D01*
X320790Y992977D01*
X320903Y992987D01*
X321016Y992993D01*
X321129Y992995D01*
X320479Y998187D02*
X324374Y998187D01*
X320479Y998187D02*
X320378Y998185D01*
X320278Y998179D01*
X320178Y998169D01*
X320078Y998156D01*
X319979Y998138D01*
X319880Y998117D01*
X319783Y998092D01*
X319686Y998063D01*
X319591Y998030D01*
X319497Y997994D01*
X319405Y997954D01*
X319314Y997911D01*
X319225Y997864D01*
X319138Y997814D01*
X319052Y997760D01*
X318969Y997703D01*
X318889Y997643D01*
X318810Y997580D01*
X318734Y997513D01*
X318661Y997444D01*
X318591Y997372D01*
X318523Y997298D01*
X318458Y997221D01*
X318397Y997141D01*
X318338Y997059D01*
X318283Y996975D01*
X318231Y996889D01*
X318182Y996801D01*
X318137Y996711D01*
X318095Y996619D01*
X318057Y996526D01*
X318023Y996431D01*
X317992Y996336D01*
X317965Y996239D01*
X317942Y996141D01*
X317922Y996042D01*
X317907Y995942D01*
X317895Y995842D01*
X317887Y995742D01*
X317883Y995641D01*
X317883Y995541D01*
X317887Y995440D01*
X317895Y995340D01*
X317907Y995240D01*
X317922Y995140D01*
X317942Y995041D01*
X317965Y994943D01*
X317992Y994846D01*
X318023Y994751D01*
X318057Y994656D01*
X318095Y994563D01*
X318137Y994471D01*
X318182Y994381D01*
X318231Y994293D01*
X318283Y994207D01*
X318338Y994123D01*
X318397Y994041D01*
X318458Y993961D01*
X318523Y993884D01*
X318591Y993810D01*
X318661Y993738D01*
X318734Y993669D01*
X318810Y993602D01*
X318889Y993539D01*
X318969Y993479D01*
X319052Y993422D01*
X319138Y993368D01*
X319225Y993318D01*
X319314Y993271D01*
X319405Y993228D01*
X319497Y993188D01*
X319591Y993152D01*
X319686Y993119D01*
X319783Y993090D01*
X319880Y993065D01*
X319979Y993044D01*
X320078Y993026D01*
X320178Y993013D01*
X320278Y993003D01*
X320378Y992997D01*
X320479Y992995D01*
X320479Y992994D02*
X323076Y992994D01*
D12*
X617650Y613410D02*
X656090Y613410D01*
X617650Y613410D02*
X617650Y631190D01*
X656090Y631190D01*
X656090Y613410D01*
D10*
X640370Y637603D02*
X640370Y649287D01*
X637125Y649287D01*
X637012Y649285D01*
X636899Y649279D01*
X636786Y649269D01*
X636673Y649255D01*
X636561Y649238D01*
X636450Y649216D01*
X636340Y649191D01*
X636230Y649161D01*
X636122Y649128D01*
X636015Y649091D01*
X635909Y649051D01*
X635805Y649006D01*
X635702Y648958D01*
X635601Y648907D01*
X635502Y648852D01*
X635405Y648794D01*
X635310Y648732D01*
X635217Y648667D01*
X635127Y648599D01*
X635039Y648528D01*
X634953Y648453D01*
X634870Y648376D01*
X634790Y648296D01*
X634713Y648213D01*
X634638Y648127D01*
X634567Y648039D01*
X634499Y647949D01*
X634434Y647856D01*
X634372Y647761D01*
X634314Y647664D01*
X634259Y647565D01*
X634208Y647464D01*
X634160Y647361D01*
X634115Y647257D01*
X634075Y647151D01*
X634038Y647044D01*
X634005Y646936D01*
X633975Y646826D01*
X633950Y646716D01*
X633928Y646605D01*
X633911Y646493D01*
X633897Y646380D01*
X633887Y646267D01*
X633881Y646154D01*
X633879Y646041D01*
X633881Y645928D01*
X633887Y645815D01*
X633897Y645702D01*
X633911Y645589D01*
X633928Y645477D01*
X633950Y645366D01*
X633975Y645256D01*
X634005Y645146D01*
X634038Y645038D01*
X634075Y644931D01*
X634115Y644825D01*
X634160Y644721D01*
X634208Y644618D01*
X634259Y644517D01*
X634314Y644418D01*
X634372Y644321D01*
X634434Y644226D01*
X634499Y644133D01*
X634567Y644043D01*
X634638Y643955D01*
X634713Y643869D01*
X634790Y643786D01*
X634870Y643706D01*
X634953Y643629D01*
X635039Y643554D01*
X635127Y643483D01*
X635217Y643415D01*
X635310Y643350D01*
X635405Y643288D01*
X635502Y643230D01*
X635601Y643175D01*
X635702Y643124D01*
X635805Y643076D01*
X635909Y643031D01*
X636015Y642991D01*
X636122Y642954D01*
X636230Y642921D01*
X636340Y642891D01*
X636450Y642866D01*
X636561Y642844D01*
X636673Y642827D01*
X636786Y642813D01*
X636899Y642803D01*
X637012Y642797D01*
X637125Y642795D01*
X637125Y642796D02*
X640370Y642796D01*
X636476Y642796D02*
X633879Y637603D01*
X629014Y640199D02*
X626418Y649287D01*
X629014Y640199D02*
X622523Y640199D01*
X624470Y642796D02*
X624470Y637603D01*
D12*
X471710Y1275310D02*
X471710Y1313750D01*
X489490Y1313750D01*
X489490Y1275310D01*
X471710Y1275310D01*
D10*
X489430Y1316163D02*
X489430Y1327847D01*
X486185Y1327847D01*
X486072Y1327845D01*
X485959Y1327839D01*
X485846Y1327829D01*
X485733Y1327815D01*
X485621Y1327798D01*
X485510Y1327776D01*
X485400Y1327751D01*
X485290Y1327721D01*
X485182Y1327688D01*
X485075Y1327651D01*
X484969Y1327611D01*
X484865Y1327566D01*
X484762Y1327518D01*
X484661Y1327467D01*
X484562Y1327412D01*
X484465Y1327354D01*
X484370Y1327292D01*
X484277Y1327227D01*
X484187Y1327159D01*
X484099Y1327088D01*
X484013Y1327013D01*
X483930Y1326936D01*
X483850Y1326856D01*
X483773Y1326773D01*
X483698Y1326687D01*
X483627Y1326599D01*
X483559Y1326509D01*
X483494Y1326416D01*
X483432Y1326321D01*
X483374Y1326224D01*
X483319Y1326125D01*
X483268Y1326024D01*
X483220Y1325921D01*
X483175Y1325817D01*
X483135Y1325711D01*
X483098Y1325604D01*
X483065Y1325496D01*
X483035Y1325386D01*
X483010Y1325276D01*
X482988Y1325165D01*
X482971Y1325053D01*
X482957Y1324940D01*
X482947Y1324827D01*
X482941Y1324714D01*
X482939Y1324601D01*
X482941Y1324488D01*
X482947Y1324375D01*
X482957Y1324262D01*
X482971Y1324149D01*
X482988Y1324037D01*
X483010Y1323926D01*
X483035Y1323816D01*
X483065Y1323706D01*
X483098Y1323598D01*
X483135Y1323491D01*
X483175Y1323385D01*
X483220Y1323281D01*
X483268Y1323178D01*
X483319Y1323077D01*
X483374Y1322978D01*
X483432Y1322881D01*
X483494Y1322786D01*
X483559Y1322693D01*
X483627Y1322603D01*
X483698Y1322515D01*
X483773Y1322429D01*
X483850Y1322346D01*
X483930Y1322266D01*
X484013Y1322189D01*
X484099Y1322114D01*
X484187Y1322043D01*
X484277Y1321975D01*
X484370Y1321910D01*
X484465Y1321848D01*
X484562Y1321790D01*
X484661Y1321735D01*
X484762Y1321684D01*
X484865Y1321636D01*
X484969Y1321591D01*
X485075Y1321551D01*
X485182Y1321514D01*
X485290Y1321481D01*
X485400Y1321451D01*
X485510Y1321426D01*
X485621Y1321404D01*
X485733Y1321387D01*
X485846Y1321373D01*
X485959Y1321363D01*
X486072Y1321357D01*
X486185Y1321355D01*
X486185Y1321356D02*
X489430Y1321356D01*
X485536Y1321356D02*
X482939Y1316163D01*
X478074Y1316163D02*
X474179Y1316163D01*
X474080Y1316165D01*
X473980Y1316171D01*
X473881Y1316180D01*
X473783Y1316193D01*
X473685Y1316210D01*
X473587Y1316231D01*
X473491Y1316256D01*
X473396Y1316284D01*
X473302Y1316316D01*
X473209Y1316351D01*
X473117Y1316390D01*
X473027Y1316433D01*
X472939Y1316478D01*
X472852Y1316528D01*
X472768Y1316580D01*
X472685Y1316636D01*
X472605Y1316694D01*
X472527Y1316756D01*
X472452Y1316821D01*
X472379Y1316889D01*
X472309Y1316959D01*
X472241Y1317032D01*
X472176Y1317107D01*
X472114Y1317185D01*
X472056Y1317265D01*
X472000Y1317348D01*
X471948Y1317432D01*
X471898Y1317519D01*
X471853Y1317607D01*
X471810Y1317697D01*
X471771Y1317789D01*
X471736Y1317882D01*
X471704Y1317976D01*
X471676Y1318071D01*
X471651Y1318167D01*
X471630Y1318265D01*
X471613Y1318363D01*
X471600Y1318461D01*
X471591Y1318560D01*
X471585Y1318660D01*
X471583Y1318759D01*
X471583Y1320058D01*
X471585Y1320157D01*
X471591Y1320257D01*
X471600Y1320356D01*
X471613Y1320454D01*
X471630Y1320552D01*
X471651Y1320650D01*
X471676Y1320746D01*
X471704Y1320841D01*
X471736Y1320935D01*
X471771Y1321028D01*
X471810Y1321120D01*
X471853Y1321210D01*
X471898Y1321298D01*
X471948Y1321385D01*
X472000Y1321469D01*
X472056Y1321552D01*
X472114Y1321632D01*
X472176Y1321710D01*
X472241Y1321785D01*
X472309Y1321858D01*
X472379Y1321928D01*
X472452Y1321996D01*
X472527Y1322061D01*
X472605Y1322123D01*
X472685Y1322181D01*
X472768Y1322237D01*
X472852Y1322289D01*
X472939Y1322339D01*
X473027Y1322384D01*
X473117Y1322427D01*
X473209Y1322466D01*
X473302Y1322501D01*
X473396Y1322533D01*
X473491Y1322561D01*
X473587Y1322586D01*
X473685Y1322607D01*
X473783Y1322624D01*
X473881Y1322637D01*
X473980Y1322646D01*
X474080Y1322652D01*
X474179Y1322654D01*
X478074Y1322654D01*
X478074Y1327847D01*
X471583Y1327847D01*
D12*
X347590Y1184690D02*
X347590Y1146250D01*
X329810Y1146250D01*
X329810Y1184690D01*
X347590Y1184690D01*
D10*
X347530Y1187103D02*
X347530Y1198787D01*
X344285Y1198787D01*
X344172Y1198785D01*
X344059Y1198779D01*
X343946Y1198769D01*
X343833Y1198755D01*
X343721Y1198738D01*
X343610Y1198716D01*
X343500Y1198691D01*
X343390Y1198661D01*
X343282Y1198628D01*
X343175Y1198591D01*
X343069Y1198551D01*
X342965Y1198506D01*
X342862Y1198458D01*
X342761Y1198407D01*
X342662Y1198352D01*
X342565Y1198294D01*
X342470Y1198232D01*
X342377Y1198167D01*
X342287Y1198099D01*
X342199Y1198028D01*
X342113Y1197953D01*
X342030Y1197876D01*
X341950Y1197796D01*
X341873Y1197713D01*
X341798Y1197627D01*
X341727Y1197539D01*
X341659Y1197449D01*
X341594Y1197356D01*
X341532Y1197261D01*
X341474Y1197164D01*
X341419Y1197065D01*
X341368Y1196964D01*
X341320Y1196861D01*
X341275Y1196757D01*
X341235Y1196651D01*
X341198Y1196544D01*
X341165Y1196436D01*
X341135Y1196326D01*
X341110Y1196216D01*
X341088Y1196105D01*
X341071Y1195993D01*
X341057Y1195880D01*
X341047Y1195767D01*
X341041Y1195654D01*
X341039Y1195541D01*
X341041Y1195428D01*
X341047Y1195315D01*
X341057Y1195202D01*
X341071Y1195089D01*
X341088Y1194977D01*
X341110Y1194866D01*
X341135Y1194756D01*
X341165Y1194646D01*
X341198Y1194538D01*
X341235Y1194431D01*
X341275Y1194325D01*
X341320Y1194221D01*
X341368Y1194118D01*
X341419Y1194017D01*
X341474Y1193918D01*
X341532Y1193821D01*
X341594Y1193726D01*
X341659Y1193633D01*
X341727Y1193543D01*
X341798Y1193455D01*
X341873Y1193369D01*
X341950Y1193286D01*
X342030Y1193206D01*
X342113Y1193129D01*
X342199Y1193054D01*
X342287Y1192983D01*
X342377Y1192915D01*
X342470Y1192850D01*
X342565Y1192788D01*
X342662Y1192730D01*
X342761Y1192675D01*
X342862Y1192624D01*
X342965Y1192576D01*
X343069Y1192531D01*
X343175Y1192491D01*
X343282Y1192454D01*
X343390Y1192421D01*
X343500Y1192391D01*
X343610Y1192366D01*
X343721Y1192344D01*
X343833Y1192327D01*
X343946Y1192313D01*
X344059Y1192303D01*
X344172Y1192297D01*
X344285Y1192295D01*
X344285Y1192296D02*
X347530Y1192296D01*
X343636Y1192296D02*
X341039Y1187103D01*
X336174Y1193594D02*
X332279Y1193594D01*
X332180Y1193592D01*
X332080Y1193586D01*
X331981Y1193577D01*
X331883Y1193564D01*
X331785Y1193547D01*
X331687Y1193526D01*
X331591Y1193501D01*
X331496Y1193473D01*
X331402Y1193441D01*
X331309Y1193406D01*
X331217Y1193367D01*
X331127Y1193324D01*
X331039Y1193279D01*
X330952Y1193229D01*
X330868Y1193177D01*
X330785Y1193121D01*
X330705Y1193063D01*
X330627Y1193001D01*
X330552Y1192936D01*
X330479Y1192868D01*
X330409Y1192798D01*
X330341Y1192725D01*
X330276Y1192650D01*
X330214Y1192572D01*
X330156Y1192492D01*
X330100Y1192409D01*
X330048Y1192325D01*
X329998Y1192238D01*
X329953Y1192150D01*
X329910Y1192060D01*
X329871Y1191968D01*
X329836Y1191875D01*
X329804Y1191781D01*
X329776Y1191686D01*
X329751Y1191590D01*
X329730Y1191492D01*
X329713Y1191394D01*
X329700Y1191296D01*
X329691Y1191197D01*
X329685Y1191097D01*
X329683Y1190998D01*
X329683Y1190349D01*
X329685Y1190236D01*
X329691Y1190123D01*
X329701Y1190010D01*
X329715Y1189897D01*
X329732Y1189785D01*
X329754Y1189674D01*
X329779Y1189564D01*
X329809Y1189454D01*
X329842Y1189346D01*
X329879Y1189239D01*
X329919Y1189133D01*
X329964Y1189029D01*
X330012Y1188926D01*
X330063Y1188825D01*
X330118Y1188726D01*
X330176Y1188629D01*
X330238Y1188534D01*
X330303Y1188441D01*
X330371Y1188351D01*
X330442Y1188263D01*
X330517Y1188177D01*
X330594Y1188094D01*
X330674Y1188014D01*
X330757Y1187937D01*
X330843Y1187862D01*
X330931Y1187791D01*
X331021Y1187723D01*
X331114Y1187658D01*
X331209Y1187596D01*
X331306Y1187538D01*
X331405Y1187483D01*
X331506Y1187432D01*
X331609Y1187384D01*
X331713Y1187339D01*
X331819Y1187299D01*
X331926Y1187262D01*
X332034Y1187229D01*
X332144Y1187199D01*
X332254Y1187174D01*
X332365Y1187152D01*
X332477Y1187135D01*
X332590Y1187121D01*
X332703Y1187111D01*
X332816Y1187105D01*
X332929Y1187103D01*
X333042Y1187105D01*
X333155Y1187111D01*
X333268Y1187121D01*
X333381Y1187135D01*
X333493Y1187152D01*
X333604Y1187174D01*
X333714Y1187199D01*
X333824Y1187229D01*
X333932Y1187262D01*
X334039Y1187299D01*
X334145Y1187339D01*
X334249Y1187384D01*
X334352Y1187432D01*
X334453Y1187483D01*
X334552Y1187538D01*
X334649Y1187596D01*
X334744Y1187658D01*
X334837Y1187723D01*
X334927Y1187791D01*
X335015Y1187862D01*
X335101Y1187937D01*
X335184Y1188014D01*
X335264Y1188094D01*
X335341Y1188177D01*
X335416Y1188263D01*
X335487Y1188351D01*
X335555Y1188441D01*
X335620Y1188534D01*
X335682Y1188629D01*
X335740Y1188726D01*
X335795Y1188825D01*
X335846Y1188926D01*
X335894Y1189029D01*
X335939Y1189133D01*
X335979Y1189239D01*
X336016Y1189346D01*
X336049Y1189454D01*
X336079Y1189564D01*
X336104Y1189674D01*
X336126Y1189785D01*
X336143Y1189897D01*
X336157Y1190010D01*
X336167Y1190123D01*
X336173Y1190236D01*
X336175Y1190349D01*
X336174Y1190349D02*
X336174Y1193594D01*
X336172Y1193737D01*
X336166Y1193880D01*
X336156Y1194023D01*
X336142Y1194165D01*
X336125Y1194307D01*
X336103Y1194449D01*
X336078Y1194590D01*
X336048Y1194730D01*
X336015Y1194869D01*
X335978Y1195007D01*
X335937Y1195144D01*
X335893Y1195280D01*
X335844Y1195415D01*
X335792Y1195548D01*
X335737Y1195680D01*
X335677Y1195810D01*
X335614Y1195939D01*
X335548Y1196066D01*
X335478Y1196191D01*
X335405Y1196313D01*
X335328Y1196434D01*
X335248Y1196553D01*
X335165Y1196669D01*
X335079Y1196784D01*
X334990Y1196895D01*
X334897Y1197005D01*
X334802Y1197111D01*
X334703Y1197215D01*
X334602Y1197316D01*
X334498Y1197415D01*
X334392Y1197510D01*
X334282Y1197603D01*
X334171Y1197692D01*
X334056Y1197778D01*
X333940Y1197861D01*
X333821Y1197941D01*
X333700Y1198018D01*
X333578Y1198091D01*
X333453Y1198161D01*
X333326Y1198227D01*
X333197Y1198290D01*
X333067Y1198350D01*
X332935Y1198405D01*
X332802Y1198457D01*
X332667Y1198506D01*
X332531Y1198550D01*
X332394Y1198591D01*
X332256Y1198628D01*
X332117Y1198661D01*
X331977Y1198691D01*
X331836Y1198716D01*
X331694Y1198738D01*
X331552Y1198755D01*
X331410Y1198769D01*
X331267Y1198779D01*
X331124Y1198785D01*
X330981Y1198787D01*
D12*
X688510Y465450D02*
X688510Y427010D01*
X688510Y465450D02*
X706290Y465450D01*
X706290Y427010D01*
X688510Y427010D01*
D10*
X706230Y467863D02*
X706230Y479547D01*
X702985Y479547D01*
X702872Y479545D01*
X702759Y479539D01*
X702646Y479529D01*
X702533Y479515D01*
X702421Y479498D01*
X702310Y479476D01*
X702200Y479451D01*
X702090Y479421D01*
X701982Y479388D01*
X701875Y479351D01*
X701769Y479311D01*
X701665Y479266D01*
X701562Y479218D01*
X701461Y479167D01*
X701362Y479112D01*
X701265Y479054D01*
X701170Y478992D01*
X701077Y478927D01*
X700987Y478859D01*
X700899Y478788D01*
X700813Y478713D01*
X700730Y478636D01*
X700650Y478556D01*
X700573Y478473D01*
X700498Y478387D01*
X700427Y478299D01*
X700359Y478209D01*
X700294Y478116D01*
X700232Y478021D01*
X700174Y477924D01*
X700119Y477825D01*
X700068Y477724D01*
X700020Y477621D01*
X699975Y477517D01*
X699935Y477411D01*
X699898Y477304D01*
X699865Y477196D01*
X699835Y477086D01*
X699810Y476976D01*
X699788Y476865D01*
X699771Y476753D01*
X699757Y476640D01*
X699747Y476527D01*
X699741Y476414D01*
X699739Y476301D01*
X699741Y476188D01*
X699747Y476075D01*
X699757Y475962D01*
X699771Y475849D01*
X699788Y475737D01*
X699810Y475626D01*
X699835Y475516D01*
X699865Y475406D01*
X699898Y475298D01*
X699935Y475191D01*
X699975Y475085D01*
X700020Y474981D01*
X700068Y474878D01*
X700119Y474777D01*
X700174Y474678D01*
X700232Y474581D01*
X700294Y474486D01*
X700359Y474393D01*
X700427Y474303D01*
X700498Y474215D01*
X700573Y474129D01*
X700650Y474046D01*
X700730Y473966D01*
X700813Y473889D01*
X700899Y473814D01*
X700987Y473743D01*
X701077Y473675D01*
X701170Y473610D01*
X701265Y473548D01*
X701362Y473490D01*
X701461Y473435D01*
X701562Y473384D01*
X701665Y473336D01*
X701769Y473291D01*
X701875Y473251D01*
X701982Y473214D01*
X702090Y473181D01*
X702200Y473151D01*
X702310Y473126D01*
X702421Y473104D01*
X702533Y473087D01*
X702646Y473073D01*
X702759Y473063D01*
X702872Y473057D01*
X702985Y473055D01*
X702985Y473056D02*
X706230Y473056D01*
X702336Y473056D02*
X699739Y467863D01*
X694874Y478249D02*
X694874Y479547D01*
X688383Y479547D01*
X691629Y467863D01*
D12*
X91350Y278690D02*
X52910Y278690D01*
X91350Y278690D02*
X91350Y260910D01*
X52910Y260910D01*
X52910Y278690D01*
D10*
X70630Y281103D02*
X70630Y292787D01*
X67385Y292787D01*
X67272Y292785D01*
X67159Y292779D01*
X67046Y292769D01*
X66933Y292755D01*
X66821Y292738D01*
X66710Y292716D01*
X66600Y292691D01*
X66490Y292661D01*
X66382Y292628D01*
X66275Y292591D01*
X66169Y292551D01*
X66065Y292506D01*
X65962Y292458D01*
X65861Y292407D01*
X65762Y292352D01*
X65665Y292294D01*
X65570Y292232D01*
X65477Y292167D01*
X65387Y292099D01*
X65299Y292028D01*
X65213Y291953D01*
X65130Y291876D01*
X65050Y291796D01*
X64973Y291713D01*
X64898Y291627D01*
X64827Y291539D01*
X64759Y291449D01*
X64694Y291356D01*
X64632Y291261D01*
X64574Y291164D01*
X64519Y291065D01*
X64468Y290964D01*
X64420Y290861D01*
X64375Y290757D01*
X64335Y290651D01*
X64298Y290544D01*
X64265Y290436D01*
X64235Y290326D01*
X64210Y290216D01*
X64188Y290105D01*
X64171Y289993D01*
X64157Y289880D01*
X64147Y289767D01*
X64141Y289654D01*
X64139Y289541D01*
X64141Y289428D01*
X64147Y289315D01*
X64157Y289202D01*
X64171Y289089D01*
X64188Y288977D01*
X64210Y288866D01*
X64235Y288756D01*
X64265Y288646D01*
X64298Y288538D01*
X64335Y288431D01*
X64375Y288325D01*
X64420Y288221D01*
X64468Y288118D01*
X64519Y288017D01*
X64574Y287918D01*
X64632Y287821D01*
X64694Y287726D01*
X64759Y287633D01*
X64827Y287543D01*
X64898Y287455D01*
X64973Y287369D01*
X65050Y287286D01*
X65130Y287206D01*
X65213Y287129D01*
X65299Y287054D01*
X65387Y286983D01*
X65477Y286915D01*
X65570Y286850D01*
X65665Y286788D01*
X65762Y286730D01*
X65861Y286675D01*
X65962Y286624D01*
X66065Y286576D01*
X66169Y286531D01*
X66275Y286491D01*
X66382Y286454D01*
X66490Y286421D01*
X66600Y286391D01*
X66710Y286366D01*
X66821Y286344D01*
X66933Y286327D01*
X67046Y286313D01*
X67159Y286303D01*
X67272Y286297D01*
X67385Y286295D01*
X67385Y286296D02*
X70630Y286296D01*
X66736Y286296D02*
X64139Y281103D01*
X59275Y284349D02*
X59273Y284462D01*
X59267Y284575D01*
X59257Y284688D01*
X59243Y284801D01*
X59226Y284913D01*
X59204Y285024D01*
X59179Y285134D01*
X59149Y285244D01*
X59116Y285352D01*
X59079Y285459D01*
X59039Y285565D01*
X58994Y285669D01*
X58946Y285772D01*
X58895Y285873D01*
X58840Y285972D01*
X58782Y286069D01*
X58720Y286164D01*
X58655Y286257D01*
X58587Y286347D01*
X58516Y286435D01*
X58441Y286521D01*
X58364Y286604D01*
X58284Y286684D01*
X58201Y286761D01*
X58115Y286836D01*
X58027Y286907D01*
X57937Y286975D01*
X57844Y287040D01*
X57749Y287102D01*
X57652Y287160D01*
X57553Y287215D01*
X57452Y287266D01*
X57349Y287314D01*
X57245Y287359D01*
X57139Y287399D01*
X57032Y287436D01*
X56924Y287469D01*
X56814Y287499D01*
X56704Y287524D01*
X56593Y287546D01*
X56481Y287563D01*
X56368Y287577D01*
X56255Y287587D01*
X56142Y287593D01*
X56029Y287595D01*
X55916Y287593D01*
X55803Y287587D01*
X55690Y287577D01*
X55577Y287563D01*
X55465Y287546D01*
X55354Y287524D01*
X55244Y287499D01*
X55134Y287469D01*
X55026Y287436D01*
X54919Y287399D01*
X54813Y287359D01*
X54709Y287314D01*
X54606Y287266D01*
X54505Y287215D01*
X54406Y287160D01*
X54309Y287102D01*
X54214Y287040D01*
X54121Y286975D01*
X54031Y286907D01*
X53943Y286836D01*
X53857Y286761D01*
X53774Y286684D01*
X53694Y286604D01*
X53617Y286521D01*
X53542Y286435D01*
X53471Y286347D01*
X53403Y286257D01*
X53338Y286164D01*
X53276Y286069D01*
X53218Y285972D01*
X53163Y285873D01*
X53112Y285772D01*
X53064Y285669D01*
X53019Y285565D01*
X52979Y285459D01*
X52942Y285352D01*
X52909Y285244D01*
X52879Y285134D01*
X52854Y285024D01*
X52832Y284913D01*
X52815Y284801D01*
X52801Y284688D01*
X52791Y284575D01*
X52785Y284462D01*
X52783Y284349D01*
X52785Y284236D01*
X52791Y284123D01*
X52801Y284010D01*
X52815Y283897D01*
X52832Y283785D01*
X52854Y283674D01*
X52879Y283564D01*
X52909Y283454D01*
X52942Y283346D01*
X52979Y283239D01*
X53019Y283133D01*
X53064Y283029D01*
X53112Y282926D01*
X53163Y282825D01*
X53218Y282726D01*
X53276Y282629D01*
X53338Y282534D01*
X53403Y282441D01*
X53471Y282351D01*
X53542Y282263D01*
X53617Y282177D01*
X53694Y282094D01*
X53774Y282014D01*
X53857Y281937D01*
X53943Y281862D01*
X54031Y281791D01*
X54121Y281723D01*
X54214Y281658D01*
X54309Y281596D01*
X54406Y281538D01*
X54505Y281483D01*
X54606Y281432D01*
X54709Y281384D01*
X54813Y281339D01*
X54919Y281299D01*
X55026Y281262D01*
X55134Y281229D01*
X55244Y281199D01*
X55354Y281174D01*
X55465Y281152D01*
X55577Y281135D01*
X55690Y281121D01*
X55803Y281111D01*
X55916Y281105D01*
X56029Y281103D01*
X56142Y281105D01*
X56255Y281111D01*
X56368Y281121D01*
X56481Y281135D01*
X56593Y281152D01*
X56704Y281174D01*
X56814Y281199D01*
X56924Y281229D01*
X57032Y281262D01*
X57139Y281299D01*
X57245Y281339D01*
X57349Y281384D01*
X57452Y281432D01*
X57553Y281483D01*
X57652Y281538D01*
X57749Y281596D01*
X57844Y281658D01*
X57937Y281723D01*
X58027Y281791D01*
X58115Y281862D01*
X58201Y281937D01*
X58284Y282014D01*
X58364Y282094D01*
X58441Y282177D01*
X58516Y282263D01*
X58587Y282351D01*
X58655Y282441D01*
X58720Y282534D01*
X58782Y282629D01*
X58840Y282726D01*
X58895Y282825D01*
X58946Y282926D01*
X58994Y283029D01*
X59039Y283133D01*
X59079Y283239D01*
X59116Y283346D01*
X59149Y283454D01*
X59179Y283564D01*
X59204Y283674D01*
X59226Y283785D01*
X59243Y283897D01*
X59257Y284010D01*
X59267Y284123D01*
X59273Y284236D01*
X59275Y284349D01*
X58625Y290191D02*
X58623Y290292D01*
X58617Y290392D01*
X58607Y290492D01*
X58594Y290592D01*
X58576Y290691D01*
X58555Y290790D01*
X58530Y290887D01*
X58501Y290984D01*
X58468Y291079D01*
X58432Y291173D01*
X58392Y291265D01*
X58349Y291356D01*
X58302Y291445D01*
X58252Y291532D01*
X58198Y291618D01*
X58141Y291701D01*
X58081Y291781D01*
X58018Y291860D01*
X57951Y291936D01*
X57882Y292009D01*
X57810Y292079D01*
X57736Y292147D01*
X57659Y292212D01*
X57579Y292273D01*
X57497Y292332D01*
X57413Y292387D01*
X57327Y292439D01*
X57239Y292488D01*
X57149Y292533D01*
X57057Y292575D01*
X56964Y292613D01*
X56869Y292647D01*
X56774Y292678D01*
X56677Y292705D01*
X56579Y292728D01*
X56480Y292748D01*
X56380Y292763D01*
X56280Y292775D01*
X56180Y292783D01*
X56079Y292787D01*
X55979Y292787D01*
X55878Y292783D01*
X55778Y292775D01*
X55678Y292763D01*
X55578Y292748D01*
X55479Y292728D01*
X55381Y292705D01*
X55284Y292678D01*
X55189Y292647D01*
X55094Y292613D01*
X55001Y292575D01*
X54909Y292533D01*
X54819Y292488D01*
X54731Y292439D01*
X54645Y292387D01*
X54561Y292332D01*
X54479Y292273D01*
X54399Y292212D01*
X54322Y292147D01*
X54248Y292079D01*
X54176Y292009D01*
X54107Y291936D01*
X54040Y291860D01*
X53977Y291781D01*
X53917Y291701D01*
X53860Y291618D01*
X53806Y291532D01*
X53756Y291445D01*
X53709Y291356D01*
X53666Y291265D01*
X53626Y291173D01*
X53590Y291079D01*
X53557Y290984D01*
X53528Y290887D01*
X53503Y290790D01*
X53482Y290691D01*
X53464Y290592D01*
X53451Y290492D01*
X53441Y290392D01*
X53435Y290292D01*
X53433Y290191D01*
X53435Y290090D01*
X53441Y289990D01*
X53451Y289890D01*
X53464Y289790D01*
X53482Y289691D01*
X53503Y289592D01*
X53528Y289495D01*
X53557Y289398D01*
X53590Y289303D01*
X53626Y289209D01*
X53666Y289117D01*
X53709Y289026D01*
X53756Y288937D01*
X53806Y288850D01*
X53860Y288764D01*
X53917Y288681D01*
X53977Y288601D01*
X54040Y288522D01*
X54107Y288446D01*
X54176Y288373D01*
X54248Y288303D01*
X54322Y288235D01*
X54399Y288170D01*
X54479Y288109D01*
X54561Y288050D01*
X54645Y287995D01*
X54731Y287943D01*
X54819Y287894D01*
X54909Y287849D01*
X55001Y287807D01*
X55094Y287769D01*
X55189Y287735D01*
X55284Y287704D01*
X55381Y287677D01*
X55479Y287654D01*
X55578Y287634D01*
X55678Y287619D01*
X55778Y287607D01*
X55878Y287599D01*
X55979Y287595D01*
X56079Y287595D01*
X56180Y287599D01*
X56280Y287607D01*
X56380Y287619D01*
X56480Y287634D01*
X56579Y287654D01*
X56677Y287677D01*
X56774Y287704D01*
X56869Y287735D01*
X56964Y287769D01*
X57057Y287807D01*
X57149Y287849D01*
X57239Y287894D01*
X57327Y287943D01*
X57413Y287995D01*
X57497Y288050D01*
X57579Y288109D01*
X57659Y288170D01*
X57736Y288235D01*
X57810Y288303D01*
X57882Y288373D01*
X57951Y288446D01*
X58018Y288522D01*
X58081Y288601D01*
X58141Y288681D01*
X58198Y288764D01*
X58252Y288850D01*
X58302Y288937D01*
X58349Y289026D01*
X58392Y289117D01*
X58432Y289209D01*
X58468Y289303D01*
X58501Y289398D01*
X58530Y289495D01*
X58555Y289592D01*
X58576Y289691D01*
X58594Y289790D01*
X58607Y289890D01*
X58617Y289990D01*
X58623Y290090D01*
X58625Y290191D01*
D12*
X563010Y956510D02*
X563010Y994950D01*
X580790Y994950D01*
X580790Y956510D01*
X563010Y956510D01*
D10*
X580730Y997363D02*
X580730Y1009047D01*
X577485Y1009047D01*
X577372Y1009045D01*
X577259Y1009039D01*
X577146Y1009029D01*
X577033Y1009015D01*
X576921Y1008998D01*
X576810Y1008976D01*
X576700Y1008951D01*
X576590Y1008921D01*
X576482Y1008888D01*
X576375Y1008851D01*
X576269Y1008811D01*
X576165Y1008766D01*
X576062Y1008718D01*
X575961Y1008667D01*
X575862Y1008612D01*
X575765Y1008554D01*
X575670Y1008492D01*
X575577Y1008427D01*
X575487Y1008359D01*
X575399Y1008288D01*
X575313Y1008213D01*
X575230Y1008136D01*
X575150Y1008056D01*
X575073Y1007973D01*
X574998Y1007887D01*
X574927Y1007799D01*
X574859Y1007709D01*
X574794Y1007616D01*
X574732Y1007521D01*
X574674Y1007424D01*
X574619Y1007325D01*
X574568Y1007224D01*
X574520Y1007121D01*
X574475Y1007017D01*
X574435Y1006911D01*
X574398Y1006804D01*
X574365Y1006696D01*
X574335Y1006586D01*
X574310Y1006476D01*
X574288Y1006365D01*
X574271Y1006253D01*
X574257Y1006140D01*
X574247Y1006027D01*
X574241Y1005914D01*
X574239Y1005801D01*
X574241Y1005688D01*
X574247Y1005575D01*
X574257Y1005462D01*
X574271Y1005349D01*
X574288Y1005237D01*
X574310Y1005126D01*
X574335Y1005016D01*
X574365Y1004906D01*
X574398Y1004798D01*
X574435Y1004691D01*
X574475Y1004585D01*
X574520Y1004481D01*
X574568Y1004378D01*
X574619Y1004277D01*
X574674Y1004178D01*
X574732Y1004081D01*
X574794Y1003986D01*
X574859Y1003893D01*
X574927Y1003803D01*
X574998Y1003715D01*
X575073Y1003629D01*
X575150Y1003546D01*
X575230Y1003466D01*
X575313Y1003389D01*
X575399Y1003314D01*
X575487Y1003243D01*
X575577Y1003175D01*
X575670Y1003110D01*
X575765Y1003048D01*
X575862Y1002990D01*
X575961Y1002935D01*
X576062Y1002884D01*
X576165Y1002836D01*
X576269Y1002791D01*
X576375Y1002751D01*
X576482Y1002714D01*
X576590Y1002681D01*
X576700Y1002651D01*
X576810Y1002626D01*
X576921Y1002604D01*
X577033Y1002587D01*
X577146Y1002573D01*
X577259Y1002563D01*
X577372Y1002557D01*
X577485Y1002555D01*
X577485Y1002556D02*
X580730Y1002556D01*
X576836Y1002556D02*
X574239Y997363D01*
X566778Y1002556D02*
X562883Y1002556D01*
X566778Y1002556D02*
X566877Y1002558D01*
X566977Y1002564D01*
X567076Y1002573D01*
X567174Y1002586D01*
X567272Y1002603D01*
X567370Y1002624D01*
X567466Y1002649D01*
X567561Y1002677D01*
X567655Y1002709D01*
X567748Y1002744D01*
X567840Y1002783D01*
X567930Y1002826D01*
X568018Y1002871D01*
X568105Y1002921D01*
X568189Y1002973D01*
X568272Y1003029D01*
X568352Y1003087D01*
X568430Y1003149D01*
X568505Y1003214D01*
X568578Y1003282D01*
X568648Y1003352D01*
X568716Y1003425D01*
X568781Y1003500D01*
X568843Y1003578D01*
X568901Y1003658D01*
X568957Y1003741D01*
X569009Y1003825D01*
X569059Y1003912D01*
X569104Y1004000D01*
X569147Y1004090D01*
X569186Y1004182D01*
X569221Y1004275D01*
X569253Y1004369D01*
X569281Y1004464D01*
X569306Y1004560D01*
X569327Y1004658D01*
X569344Y1004756D01*
X569357Y1004854D01*
X569366Y1004953D01*
X569372Y1005053D01*
X569374Y1005152D01*
X569374Y1005801D01*
X569375Y1005801D02*
X569373Y1005914D01*
X569367Y1006027D01*
X569357Y1006140D01*
X569343Y1006253D01*
X569326Y1006365D01*
X569304Y1006476D01*
X569279Y1006586D01*
X569249Y1006696D01*
X569216Y1006804D01*
X569179Y1006911D01*
X569139Y1007017D01*
X569094Y1007121D01*
X569046Y1007224D01*
X568995Y1007325D01*
X568940Y1007424D01*
X568882Y1007521D01*
X568820Y1007616D01*
X568755Y1007709D01*
X568687Y1007799D01*
X568616Y1007887D01*
X568541Y1007973D01*
X568464Y1008056D01*
X568384Y1008136D01*
X568301Y1008213D01*
X568215Y1008288D01*
X568127Y1008359D01*
X568037Y1008427D01*
X567944Y1008492D01*
X567849Y1008554D01*
X567752Y1008612D01*
X567653Y1008667D01*
X567552Y1008718D01*
X567449Y1008766D01*
X567345Y1008811D01*
X567239Y1008851D01*
X567132Y1008888D01*
X567024Y1008921D01*
X566914Y1008951D01*
X566804Y1008976D01*
X566693Y1008998D01*
X566581Y1009015D01*
X566468Y1009029D01*
X566355Y1009039D01*
X566242Y1009045D01*
X566129Y1009047D01*
X566016Y1009045D01*
X565903Y1009039D01*
X565790Y1009029D01*
X565677Y1009015D01*
X565565Y1008998D01*
X565454Y1008976D01*
X565344Y1008951D01*
X565234Y1008921D01*
X565126Y1008888D01*
X565019Y1008851D01*
X564913Y1008811D01*
X564809Y1008766D01*
X564706Y1008718D01*
X564605Y1008667D01*
X564506Y1008612D01*
X564409Y1008554D01*
X564314Y1008492D01*
X564221Y1008427D01*
X564131Y1008359D01*
X564043Y1008288D01*
X563957Y1008213D01*
X563874Y1008136D01*
X563794Y1008056D01*
X563717Y1007973D01*
X563642Y1007887D01*
X563571Y1007799D01*
X563503Y1007709D01*
X563438Y1007616D01*
X563376Y1007521D01*
X563318Y1007424D01*
X563263Y1007325D01*
X563212Y1007224D01*
X563164Y1007121D01*
X563119Y1007017D01*
X563079Y1006911D01*
X563042Y1006804D01*
X563009Y1006696D01*
X562979Y1006586D01*
X562954Y1006476D01*
X562932Y1006365D01*
X562915Y1006253D01*
X562901Y1006140D01*
X562891Y1006027D01*
X562885Y1005914D01*
X562883Y1005801D01*
X562883Y1002556D01*
X562885Y1002413D01*
X562891Y1002270D01*
X562901Y1002127D01*
X562915Y1001985D01*
X562932Y1001843D01*
X562954Y1001701D01*
X562979Y1001560D01*
X563009Y1001420D01*
X563042Y1001281D01*
X563079Y1001143D01*
X563120Y1001006D01*
X563164Y1000870D01*
X563213Y1000735D01*
X563265Y1000602D01*
X563320Y1000470D01*
X563380Y1000340D01*
X563443Y1000211D01*
X563509Y1000084D01*
X563579Y999960D01*
X563652Y999837D01*
X563729Y999716D01*
X563809Y999597D01*
X563892Y999481D01*
X563978Y999366D01*
X564067Y999255D01*
X564160Y999145D01*
X564255Y999039D01*
X564354Y998935D01*
X564455Y998834D01*
X564559Y998735D01*
X564665Y998640D01*
X564775Y998547D01*
X564886Y998458D01*
X565001Y998372D01*
X565117Y998289D01*
X565236Y998209D01*
X565357Y998132D01*
X565480Y998059D01*
X565604Y997989D01*
X565731Y997923D01*
X565860Y997860D01*
X565990Y997800D01*
X566122Y997745D01*
X566255Y997693D01*
X566390Y997644D01*
X566526Y997600D01*
X566663Y997559D01*
X566801Y997522D01*
X566940Y997489D01*
X567080Y997459D01*
X567221Y997434D01*
X567363Y997412D01*
X567505Y997395D01*
X567647Y997381D01*
X567790Y997371D01*
X567933Y997365D01*
X568076Y997363D01*
M02*
