M48
;GenerationSoftware,Autodesk,EAGLE,9.6.0*%
;CreationDate,2022-01-10T06:09:43Z*%
FMAT,2
ICI,OFF
METRIC,TZ,000.000
T7C0.700
T6C0.800
T5C0.900
T4C1.000
T3C1.118
T2C3.200
T1C3.302
%
G90
M71
T1
X111281Y110773
X110519Y49247
X50771Y49247
T2
X25000Y30000
X25000Y130000
X135000Y130000
X135000Y30000
T3
X100684Y96584
X99922Y63436
X98126Y61640
X96330Y59844
X64960Y59844
X63164Y61640
X61368Y63436
X97092Y100176
X98888Y98380
T4
X77470Y8890
X82550Y8890
X82550Y15240
X77470Y15240
T5
X80264Y148082
X80264Y145542
X90424Y148082
X77724Y145542
X75184Y148082
X75184Y145542
X72644Y148082
X72644Y145542
X70104Y148082
X70104Y145542
X67564Y148082
X77724Y148082
X90424Y145542
X87884Y148082
X87884Y145542
X85344Y148082
X85344Y145542
X82804Y148082
X82804Y145542
X67564Y145542
T6
X115570Y68580
X76200Y135382
X95250Y135382
X93980Y70866
X112522Y70866
X37338Y71374
X85344Y139700
X92202Y139700
X40640Y68580
X24384Y68580
X132842Y123698
X116332Y123698
X26162Y71374
X70104Y47498
X70104Y52070
X124460Y87884
X100076Y72644
X134874Y87884
X48006Y37084
X48006Y31496
X85090Y129794
X85090Y119634
X116078Y72644
X65278Y130556
X65278Y135382
X90932Y68580
T7
X52070Y109220
X53866Y111016
X55662Y112812
X57150Y104140
X65822Y102652
X64026Y100856
X62230Y99060
X58946Y105936
X60742Y107732
M30