M48
;GenerationSoftware,Autodesk,EAGLE,9.6.0*%
;CreationDate,2021-12-23T11:21:57Z*%
FMAT,2
ICI,OFF
METRIC,TZ,000.000
T7C0.700
T6C0.800
T5C1.000
T4C1.118
T3C1.200
T2C3.100
T1C3.302
%
G90
M71
T1
X109474Y8890
T2
X5000Y95000
X155000Y95000
X155000Y5000
X5000Y5000
T3
X6350Y29210
X85062Y5076
X80062Y5076
X75062Y5076
X6350Y24130
T4
X127000Y8890
X127000Y6350
X127000Y11430
T5
X31750Y35560
X19050Y59690
X24130Y59690
X21590Y80010
X26670Y80010
X74930Y50800
X74930Y45720
X102870Y64770
X102870Y59690
X30480Y10160
X100330Y22860
X40640Y10160
X40640Y7620
X50800Y10160
X50800Y7620
X60960Y10160
X60960Y7620
X124460Y31750
X124460Y29210
X138430Y31750
X138430Y29210
X151130Y31750
X151130Y29210
X105410Y22860
X36830Y35560
X41910Y35560
X46990Y35560
X52070Y35560
X30480Y7620
X26670Y35560
X16510Y11430
X21590Y11430
X21590Y5080
X16510Y5080
T6
X18034Y23876
X52324Y52832
X59690Y52832
X59944Y84074
X53340Y84074
X71120Y90424
X81280Y90424
X128270Y28194
X135382Y28194
X142748Y31750
X147828Y31750
X145288Y40297
X145288Y35560
X70866Y12192
X82550Y12192
X99060Y12954
X88392Y12954
X104394Y14821
X104394Y19812
X62738Y49187
X62738Y52832
X88392Y87630
X93472Y87630
X120650Y72390
X132842Y72390
X24130Y75946
X31496Y75946
X17272Y62738
X17272Y57658
X83820Y30734
X83820Y35306
X69596Y55880
X88900Y55880
X37846Y66580
X80010Y13970
X66548Y13970
X78740Y52832
X69596Y52832
X104902Y40640
X92710Y40640
X96520Y33020
X90424Y33020
X74168Y75184
X74168Y67056
X54356Y63246
X54356Y74676
X91440Y69088
X91440Y73406
X18034Y29972
X145542Y58674
X56388Y64516
X56388Y74676
X118872Y76708
X155194Y76708
X43688Y10160
X43688Y1816
X145034Y93472
X131826Y93472
X54864Y10160
X54864Y2540
X149352Y91440
X128270Y91186
X30226Y45974
X30226Y55880
X42418Y41910
X22860Y41910
X100330Y38100
X90170Y38100
X51816Y48006
X70866Y48006
X129794Y34036
X116332Y34036
X90170Y26162
X55372Y26162
X152146Y61976
X152235Y73914
X50800Y27686
X50800Y33020
X91694Y7874
X65278Y7874
X27940Y6858
X27940Y32258
X64516Y94996
X64516Y82550
X137160Y64516
X149098Y64516
X62484Y84328
X62484Y95250
X27178Y83566
X31750Y83566
X60452Y89154
X36830Y89154
X120142Y58674
X49530Y45720
X20320Y35560
X20320Y38100
X20320Y40640
X20320Y43180
X20320Y45720
X20320Y48260
X20320Y50800
X12700Y50800
X12700Y48260
X12700Y45720
X12700Y43180
X12700Y40640
X12700Y38100
X12700Y35560
X49530Y62230
X99060Y80010
X74930Y16510
X77470Y16510
X80010Y16510
X82550Y16510
X82550Y24130
X80010Y24130
X77470Y24130
X74930Y24130
X11430Y66040
X13970Y66040
X16510Y66040
X19050Y66040
X21590Y66040
X24130Y66040
X26670Y66040
X26670Y73660
X24130Y73660
X21590Y73660
X19050Y73660
X16510Y73660
X13970Y73660
X11430Y73660
X132080Y78740
X134620Y78740
X137160Y78740
X139700Y78740
X142240Y78740
X144780Y78740
X147320Y78740
X149860Y78740
X149860Y86360
X147320Y86360
X144780Y86360
X142240Y86360
X139700Y86360
X137160Y86360
X134620Y86360
X132080Y86360
X96520Y80010
X118110Y62230
X101600Y80010
X104140Y80010
X106680Y80010
X109220Y80010
X111760Y80010
X114300Y80010
X114300Y87630
X111760Y87630
X109220Y87630
X106680Y87630
X104140Y87630
X101600Y87630
X99060Y87630
X96520Y87630
X66040Y80518
X68580Y80518
X71120Y80518
X73660Y80518
X76200Y80518
X78740Y80518
X81280Y80518
X83820Y80518
X83820Y88138
X81280Y88138
X78740Y88138
X76200Y88138
X73660Y88138
X71120Y88138
X68580Y88138
X66040Y88138
X34290Y78740
X36830Y78740
X39370Y78740
X41910Y78740
X44450Y78740
X46990Y78740
X49530Y78740
X52070Y78740
X52070Y86360
X49530Y86360
X46990Y86360
X44450Y86360
X41910Y86360
X39370Y86360
X36830Y86360
X34290Y86360
X113030Y62230
X115570Y62230
X120650Y62230
X123190Y62230
X125730Y62230
X128270Y62230
X128270Y69850
X125730Y69850
X123190Y69850
X120650Y69850
X118110Y69850
X115570Y69850
X113030Y69850
X134620Y67310
X137160Y67310
X139700Y67310
X142240Y67310
X144780Y67310
X147320Y67310
X149860Y67310
X149860Y74930
X147320Y74930
X144780Y74930
X142240Y74930
X139700Y74930
X137160Y74930
X134620Y74930
X77470Y39370
X74930Y39370
X72390Y39370
X69850Y39370
X67310Y39370
X64770Y39370
X62230Y39370
X59690Y39370
X59690Y31750
X62230Y31750
X64770Y31750
X67310Y31750
X69850Y31750
X72390Y31750
X74930Y31750
X77470Y31750
X113030Y35560
X110490Y35560
X107950Y35560
X105410Y35560
X102870Y35560
X100330Y35560
X97790Y27940
X100330Y27940
X102870Y27940
X105410Y27940
X107950Y27940
X110490Y27940
X113030Y27940
X67310Y55880
X67310Y58420
X67310Y60960
X67310Y63500
X67310Y66040
X67310Y68580
X67310Y71120
X59690Y71120
X59690Y68580
X59690Y66040
X59690Y63500
X59690Y60960
X59690Y58420
X59690Y55880
X81280Y58420
X83820Y58420
X86360Y58420
X88900Y58420
X91440Y58420
X93980Y58420
X96520Y58420
X96520Y66040
X93980Y66040
X91440Y66040
X88900Y66040
X86360Y66040
X83820Y66040
X81280Y66040
X49530Y69850
X46990Y69850
X44450Y69850
X41910Y69850
X39370Y69850
X36830Y69850
X34290Y69850
X34290Y62230
X36830Y62230
X39370Y62230
X41910Y62230
X44450Y62230
X46990Y62230
X97790Y35560
X33020Y17780
X35560Y17780
X38100Y17780
X40640Y17780
X43180Y17780
X45720Y17780
X48260Y17780
X50800Y17780
X50800Y25400
X48260Y25400
X45720Y25400
X43180Y25400
X40640Y25400
X38100Y25400
X35560Y25400
X33020Y25400
X49530Y53340
X46990Y53340
X44450Y53340
X41910Y53340
X39370Y53340
X36830Y53340
X34290Y53340
X34290Y45720
X36830Y45720
X39370Y45720
X41910Y45720
X44450Y45720
X46990Y45720
T7
X134620Y41910
X137160Y41910
X139700Y41910
X142240Y41910
X127000Y20320
X124460Y20320
X121920Y20320
X140970Y20320
X138430Y20320
X135890Y20320
X153670Y20320
X151130Y20320
X148590Y20320
X148590Y53340
X151130Y53340
X153670Y53340
X137160Y53340
X129540Y53340
X127000Y53340
X142240Y53340
X139700Y53340
X132080Y53340
M30