G04 EAGLE Gerber RS-274X export*
G75*
%MOMM*%
%FSLAX34Y34*%
%LPD*%
%INSilkscreen Top*%
%IPPOS*%
%AMOC8*
5,1,8,0,0,1.08239X$1,22.5*%
G01*
%ADD10C,0.127000*%
%ADD11C,0.101600*%
%ADD12C,0.152400*%


D10*
X458100Y1404200D02*
X483500Y1404200D01*
X483500Y1378800D01*
X458100Y1378800D01*
X458100Y1404200D01*
D11*
X472098Y1415009D02*
X474046Y1415009D01*
X474046Y1408518D01*
X470151Y1408518D01*
X470052Y1408520D01*
X469952Y1408526D01*
X469853Y1408535D01*
X469755Y1408548D01*
X469657Y1408565D01*
X469559Y1408586D01*
X469463Y1408611D01*
X469368Y1408639D01*
X469274Y1408671D01*
X469181Y1408706D01*
X469089Y1408745D01*
X468999Y1408788D01*
X468911Y1408833D01*
X468824Y1408883D01*
X468740Y1408935D01*
X468657Y1408991D01*
X468577Y1409049D01*
X468499Y1409111D01*
X468424Y1409176D01*
X468351Y1409244D01*
X468281Y1409314D01*
X468213Y1409387D01*
X468148Y1409462D01*
X468086Y1409540D01*
X468028Y1409620D01*
X467972Y1409703D01*
X467920Y1409787D01*
X467870Y1409874D01*
X467825Y1409962D01*
X467782Y1410052D01*
X467743Y1410144D01*
X467708Y1410237D01*
X467676Y1410331D01*
X467648Y1410426D01*
X467623Y1410522D01*
X467602Y1410620D01*
X467585Y1410718D01*
X467572Y1410816D01*
X467563Y1410915D01*
X467557Y1411015D01*
X467555Y1411114D01*
X467554Y1411114D02*
X467554Y1417606D01*
X467555Y1417606D02*
X467557Y1417705D01*
X467563Y1417805D01*
X467572Y1417904D01*
X467585Y1418002D01*
X467602Y1418100D01*
X467623Y1418198D01*
X467648Y1418294D01*
X467676Y1418389D01*
X467708Y1418483D01*
X467743Y1418576D01*
X467782Y1418668D01*
X467825Y1418758D01*
X467870Y1418846D01*
X467920Y1418933D01*
X467972Y1419017D01*
X468028Y1419100D01*
X468086Y1419180D01*
X468148Y1419258D01*
X468213Y1419333D01*
X468281Y1419406D01*
X468351Y1419476D01*
X468424Y1419544D01*
X468499Y1419609D01*
X468577Y1419671D01*
X468657Y1419729D01*
X468740Y1419785D01*
X468824Y1419837D01*
X468911Y1419887D01*
X468999Y1419932D01*
X469089Y1419975D01*
X469181Y1420014D01*
X469273Y1420049D01*
X469368Y1420081D01*
X469463Y1420109D01*
X469559Y1420134D01*
X469657Y1420155D01*
X469755Y1420172D01*
X469853Y1420185D01*
X469952Y1420194D01*
X470052Y1420200D01*
X470151Y1420202D01*
X474046Y1420202D01*
D10*
X120120Y632960D02*
X120120Y627880D01*
X117580Y630420D02*
X122660Y630420D01*
D12*
X104880Y635500D02*
X61700Y635500D01*
X104880Y635500D02*
X112500Y635500D01*
X112500Y622800D01*
X112500Y597400D01*
X112500Y584700D01*
X104880Y584700D01*
X61700Y584700D01*
X112500Y622800D02*
X137900Y622800D01*
X137900Y597400D02*
X112500Y597400D01*
X61700Y584700D02*
X61081Y584708D01*
X60463Y584730D01*
X59846Y584768D01*
X59230Y584820D01*
X58615Y584888D01*
X58002Y584971D01*
X57391Y585068D01*
X56783Y585181D01*
X56177Y585308D01*
X55575Y585450D01*
X54977Y585606D01*
X54382Y585777D01*
X53792Y585962D01*
X53207Y586162D01*
X52626Y586376D01*
X52051Y586604D01*
X51482Y586846D01*
X50919Y587102D01*
X50362Y587371D01*
X49812Y587654D01*
X49269Y587950D01*
X48733Y588259D01*
X48205Y588581D01*
X47685Y588916D01*
X47173Y589264D01*
X46670Y589624D01*
X46176Y589996D01*
X45691Y590380D01*
X45216Y590776D01*
X44750Y591183D01*
X44294Y591601D01*
X43849Y592030D01*
X43414Y592471D01*
X42991Y592921D01*
X42578Y593382D01*
X42176Y593852D01*
X41787Y594333D01*
X41408Y594822D01*
X41042Y595321D01*
X40689Y595828D01*
X40347Y596344D01*
X40019Y596868D01*
X39703Y597400D01*
X39400Y597939D01*
X39111Y598486D01*
X38835Y599040D01*
X38572Y599600D01*
X38323Y600166D01*
X38088Y600738D01*
X37867Y601316D01*
X37660Y601899D01*
X37468Y602487D01*
X37290Y603079D01*
X37126Y603675D01*
X36977Y604276D01*
X36842Y604880D01*
X36723Y605486D01*
X36618Y606096D01*
X36528Y606708D01*
X36452Y607322D01*
X36392Y607938D01*
X36347Y608555D01*
X36317Y609172D01*
X36302Y609791D01*
X36302Y610409D01*
X36317Y611028D01*
X36347Y611645D01*
X36392Y612262D01*
X36452Y612878D01*
X36528Y613492D01*
X36618Y614104D01*
X36723Y614714D01*
X36842Y615320D01*
X36977Y615924D01*
X37126Y616525D01*
X37290Y617121D01*
X37468Y617713D01*
X37660Y618301D01*
X37867Y618884D01*
X38088Y619462D01*
X38323Y620034D01*
X38572Y620600D01*
X38835Y621160D01*
X39111Y621714D01*
X39400Y622261D01*
X39703Y622800D01*
X40019Y623332D01*
X40347Y623856D01*
X40689Y624372D01*
X41042Y624879D01*
X41408Y625378D01*
X41787Y625867D01*
X42176Y626348D01*
X42578Y626818D01*
X42991Y627279D01*
X43414Y627729D01*
X43849Y628170D01*
X44294Y628599D01*
X44750Y629017D01*
X45216Y629424D01*
X45691Y629820D01*
X46176Y630204D01*
X46670Y630576D01*
X47173Y630936D01*
X47685Y631284D01*
X48205Y631619D01*
X48733Y631941D01*
X49269Y632250D01*
X49812Y632546D01*
X50362Y632829D01*
X50919Y633098D01*
X51482Y633354D01*
X52051Y633596D01*
X52626Y633824D01*
X53207Y634038D01*
X53792Y634238D01*
X54382Y634423D01*
X54977Y634594D01*
X55575Y634750D01*
X56177Y634892D01*
X56783Y635019D01*
X57391Y635132D01*
X58002Y635229D01*
X58615Y635312D01*
X59230Y635380D01*
X59846Y635432D01*
X60463Y635470D01*
X61081Y635492D01*
X61700Y635500D01*
X104880Y635500D02*
X104880Y584700D01*
D11*
X184128Y620768D02*
X184128Y632452D01*
X184128Y620768D02*
X189321Y620768D01*
X194034Y620768D02*
X199227Y620768D01*
X194034Y620768D02*
X194034Y632452D01*
X199227Y632452D01*
X197929Y627259D02*
X194034Y627259D01*
X203917Y632452D02*
X203917Y620768D01*
X203917Y632452D02*
X207163Y632452D01*
X207276Y632450D01*
X207389Y632444D01*
X207502Y632434D01*
X207615Y632420D01*
X207727Y632403D01*
X207838Y632381D01*
X207948Y632356D01*
X208058Y632326D01*
X208166Y632293D01*
X208273Y632256D01*
X208379Y632216D01*
X208483Y632171D01*
X208586Y632123D01*
X208687Y632072D01*
X208786Y632017D01*
X208883Y631959D01*
X208978Y631897D01*
X209071Y631832D01*
X209161Y631764D01*
X209249Y631693D01*
X209335Y631618D01*
X209418Y631541D01*
X209498Y631461D01*
X209575Y631378D01*
X209650Y631292D01*
X209721Y631204D01*
X209789Y631114D01*
X209854Y631021D01*
X209916Y630926D01*
X209974Y630829D01*
X210029Y630730D01*
X210080Y630629D01*
X210128Y630526D01*
X210173Y630422D01*
X210213Y630316D01*
X210250Y630209D01*
X210283Y630101D01*
X210313Y629991D01*
X210338Y629881D01*
X210360Y629770D01*
X210377Y629658D01*
X210391Y629545D01*
X210401Y629432D01*
X210407Y629319D01*
X210409Y629206D01*
X210409Y624014D01*
X210407Y623901D01*
X210401Y623788D01*
X210391Y623675D01*
X210377Y623562D01*
X210360Y623450D01*
X210338Y623339D01*
X210313Y623229D01*
X210283Y623119D01*
X210250Y623011D01*
X210213Y622904D01*
X210173Y622798D01*
X210128Y622694D01*
X210080Y622591D01*
X210029Y622490D01*
X209974Y622391D01*
X209916Y622294D01*
X209854Y622199D01*
X209789Y622106D01*
X209721Y622016D01*
X209650Y621928D01*
X209575Y621842D01*
X209498Y621759D01*
X209418Y621679D01*
X209335Y621602D01*
X209249Y621527D01*
X209161Y621456D01*
X209071Y621388D01*
X208978Y621323D01*
X208883Y621261D01*
X208786Y621203D01*
X208687Y621148D01*
X208586Y621097D01*
X208483Y621049D01*
X208379Y621004D01*
X208273Y620964D01*
X208166Y620927D01*
X208058Y620894D01*
X207948Y620864D01*
X207838Y620839D01*
X207727Y620817D01*
X207615Y620800D01*
X207502Y620786D01*
X207389Y620776D01*
X207276Y620770D01*
X207163Y620768D01*
X203917Y620768D01*
X215728Y629856D02*
X218974Y632452D01*
X218974Y620768D01*
X222219Y620768D02*
X215728Y620768D01*
D10*
X224420Y939380D02*
X224420Y944460D01*
X221880Y941920D02*
X226960Y941920D01*
D12*
X209180Y947000D02*
X166000Y947000D01*
X209180Y947000D02*
X216800Y947000D01*
X216800Y934300D01*
X216800Y908900D01*
X216800Y896200D01*
X209180Y896200D01*
X166000Y896200D01*
X216800Y934300D02*
X242200Y934300D01*
X242200Y908900D02*
X216800Y908900D01*
X166000Y896200D02*
X165381Y896208D01*
X164763Y896230D01*
X164146Y896268D01*
X163530Y896320D01*
X162915Y896388D01*
X162302Y896471D01*
X161691Y896568D01*
X161083Y896681D01*
X160477Y896808D01*
X159875Y896950D01*
X159277Y897106D01*
X158682Y897277D01*
X158092Y897462D01*
X157507Y897662D01*
X156926Y897876D01*
X156351Y898104D01*
X155782Y898346D01*
X155219Y898602D01*
X154662Y898871D01*
X154112Y899154D01*
X153569Y899450D01*
X153033Y899759D01*
X152505Y900081D01*
X151985Y900416D01*
X151473Y900764D01*
X150970Y901124D01*
X150476Y901496D01*
X149991Y901880D01*
X149516Y902276D01*
X149050Y902683D01*
X148594Y903101D01*
X148149Y903530D01*
X147714Y903971D01*
X147291Y904421D01*
X146878Y904882D01*
X146476Y905352D01*
X146087Y905833D01*
X145708Y906322D01*
X145342Y906821D01*
X144989Y907328D01*
X144647Y907844D01*
X144319Y908368D01*
X144003Y908900D01*
X143700Y909439D01*
X143411Y909986D01*
X143135Y910540D01*
X142872Y911100D01*
X142623Y911666D01*
X142388Y912238D01*
X142167Y912816D01*
X141960Y913399D01*
X141768Y913987D01*
X141590Y914579D01*
X141426Y915175D01*
X141277Y915776D01*
X141142Y916380D01*
X141023Y916986D01*
X140918Y917596D01*
X140828Y918208D01*
X140752Y918822D01*
X140692Y919438D01*
X140647Y920055D01*
X140617Y920672D01*
X140602Y921291D01*
X140602Y921909D01*
X140617Y922528D01*
X140647Y923145D01*
X140692Y923762D01*
X140752Y924378D01*
X140828Y924992D01*
X140918Y925604D01*
X141023Y926214D01*
X141142Y926820D01*
X141277Y927424D01*
X141426Y928025D01*
X141590Y928621D01*
X141768Y929213D01*
X141960Y929801D01*
X142167Y930384D01*
X142388Y930962D01*
X142623Y931534D01*
X142872Y932100D01*
X143135Y932660D01*
X143411Y933214D01*
X143700Y933761D01*
X144003Y934300D01*
X144319Y934832D01*
X144647Y935356D01*
X144989Y935872D01*
X145342Y936379D01*
X145708Y936878D01*
X146087Y937367D01*
X146476Y937848D01*
X146878Y938318D01*
X147291Y938779D01*
X147714Y939229D01*
X148149Y939670D01*
X148594Y940099D01*
X149050Y940517D01*
X149516Y940924D01*
X149991Y941320D01*
X150476Y941704D01*
X150970Y942076D01*
X151473Y942436D01*
X151985Y942784D01*
X152505Y943119D01*
X153033Y943441D01*
X153569Y943750D01*
X154112Y944046D01*
X154662Y944329D01*
X155219Y944598D01*
X155782Y944854D01*
X156351Y945096D01*
X156926Y945324D01*
X157507Y945538D01*
X158092Y945738D01*
X158682Y945923D01*
X159277Y946094D01*
X159875Y946250D01*
X160477Y946392D01*
X161083Y946519D01*
X161691Y946632D01*
X162302Y946729D01*
X162915Y946812D01*
X163530Y946880D01*
X164146Y946932D01*
X164763Y946970D01*
X165381Y946992D01*
X166000Y947000D01*
X209180Y947000D02*
X209180Y896200D01*
D11*
X288428Y932268D02*
X288428Y943952D01*
X288428Y932268D02*
X293621Y932268D01*
X298334Y932268D02*
X303527Y932268D01*
X298334Y932268D02*
X298334Y943952D01*
X303527Y943952D01*
X302229Y938759D02*
X298334Y938759D01*
X308217Y943952D02*
X308217Y932268D01*
X308217Y943952D02*
X311463Y943952D01*
X311576Y943950D01*
X311689Y943944D01*
X311802Y943934D01*
X311915Y943920D01*
X312027Y943903D01*
X312138Y943881D01*
X312248Y943856D01*
X312358Y943826D01*
X312466Y943793D01*
X312573Y943756D01*
X312679Y943716D01*
X312783Y943671D01*
X312886Y943623D01*
X312987Y943572D01*
X313086Y943517D01*
X313183Y943459D01*
X313278Y943397D01*
X313371Y943332D01*
X313461Y943264D01*
X313549Y943193D01*
X313635Y943118D01*
X313718Y943041D01*
X313798Y942961D01*
X313875Y942878D01*
X313950Y942792D01*
X314021Y942704D01*
X314089Y942614D01*
X314154Y942521D01*
X314216Y942426D01*
X314274Y942329D01*
X314329Y942230D01*
X314380Y942129D01*
X314428Y942026D01*
X314473Y941922D01*
X314513Y941816D01*
X314550Y941709D01*
X314583Y941601D01*
X314613Y941491D01*
X314638Y941381D01*
X314660Y941270D01*
X314677Y941158D01*
X314691Y941045D01*
X314701Y940932D01*
X314707Y940819D01*
X314709Y940706D01*
X314709Y935514D01*
X314707Y935401D01*
X314701Y935288D01*
X314691Y935175D01*
X314677Y935062D01*
X314660Y934950D01*
X314638Y934839D01*
X314613Y934729D01*
X314583Y934619D01*
X314550Y934511D01*
X314513Y934404D01*
X314473Y934298D01*
X314428Y934194D01*
X314380Y934091D01*
X314329Y933990D01*
X314274Y933891D01*
X314216Y933794D01*
X314154Y933699D01*
X314089Y933606D01*
X314021Y933516D01*
X313950Y933428D01*
X313875Y933342D01*
X313798Y933259D01*
X313718Y933179D01*
X313635Y933102D01*
X313549Y933027D01*
X313461Y932956D01*
X313371Y932888D01*
X313278Y932823D01*
X313183Y932761D01*
X313086Y932703D01*
X312987Y932648D01*
X312886Y932597D01*
X312783Y932549D01*
X312679Y932504D01*
X312573Y932464D01*
X312466Y932427D01*
X312358Y932394D01*
X312248Y932364D01*
X312138Y932339D01*
X312027Y932317D01*
X311915Y932300D01*
X311802Y932286D01*
X311689Y932276D01*
X311576Y932270D01*
X311463Y932268D01*
X308217Y932268D01*
X320028Y941356D02*
X323274Y943952D01*
X323274Y932268D01*
X326519Y932268D02*
X320028Y932268D01*
X331459Y938110D02*
X331462Y938340D01*
X331470Y938570D01*
X331484Y938799D01*
X331503Y939028D01*
X331528Y939257D01*
X331558Y939484D01*
X331593Y939712D01*
X331634Y939938D01*
X331680Y940163D01*
X331732Y940387D01*
X331789Y940609D01*
X331851Y940831D01*
X331919Y941050D01*
X331992Y941268D01*
X332070Y941485D01*
X332153Y941699D01*
X332241Y941911D01*
X332334Y942121D01*
X332433Y942329D01*
X332432Y942329D02*
X332465Y942419D01*
X332501Y942508D01*
X332541Y942596D01*
X332585Y942681D01*
X332632Y942765D01*
X332682Y942847D01*
X332736Y942927D01*
X332792Y943004D01*
X332852Y943080D01*
X332915Y943153D01*
X332980Y943223D01*
X333049Y943291D01*
X333120Y943355D01*
X333193Y943417D01*
X333269Y943476D01*
X333347Y943532D01*
X333428Y943585D01*
X333510Y943634D01*
X333594Y943680D01*
X333681Y943723D01*
X333768Y943762D01*
X333858Y943798D01*
X333948Y943830D01*
X334040Y943858D01*
X334133Y943883D01*
X334227Y943904D01*
X334321Y943921D01*
X334416Y943935D01*
X334512Y943944D01*
X334608Y943950D01*
X334704Y943952D01*
X334800Y943950D01*
X334896Y943944D01*
X334992Y943935D01*
X335087Y943921D01*
X335181Y943904D01*
X335275Y943883D01*
X335368Y943858D01*
X335460Y943830D01*
X335550Y943798D01*
X335640Y943762D01*
X335727Y943723D01*
X335814Y943680D01*
X335898Y943634D01*
X335980Y943585D01*
X336061Y943532D01*
X336139Y943476D01*
X336215Y943417D01*
X336288Y943355D01*
X336359Y943291D01*
X336428Y943223D01*
X336493Y943153D01*
X336556Y943080D01*
X336616Y943004D01*
X336672Y942927D01*
X336726Y942847D01*
X336776Y942765D01*
X336823Y942681D01*
X336867Y942596D01*
X336907Y942508D01*
X336943Y942419D01*
X336976Y942329D01*
X337075Y942122D01*
X337168Y941912D01*
X337256Y941699D01*
X337339Y941485D01*
X337417Y941269D01*
X337490Y941051D01*
X337558Y940831D01*
X337620Y940610D01*
X337677Y940387D01*
X337729Y940163D01*
X337775Y939938D01*
X337816Y939712D01*
X337851Y939485D01*
X337881Y939257D01*
X337906Y939028D01*
X337925Y938799D01*
X337939Y938570D01*
X337947Y938340D01*
X337950Y938110D01*
X331458Y938110D02*
X331461Y937880D01*
X331469Y937650D01*
X331483Y937421D01*
X331502Y937192D01*
X331527Y936963D01*
X331557Y936735D01*
X331592Y936508D01*
X331633Y936282D01*
X331679Y936057D01*
X331731Y935833D01*
X331788Y935610D01*
X331850Y935389D01*
X331918Y935169D01*
X331991Y934951D01*
X332069Y934735D01*
X332152Y934521D01*
X332240Y934309D01*
X332333Y934098D01*
X332432Y933891D01*
X332465Y933801D01*
X332501Y933712D01*
X332542Y933624D01*
X332585Y933539D01*
X332632Y933455D01*
X332682Y933373D01*
X332736Y933293D01*
X332792Y933216D01*
X332852Y933140D01*
X332915Y933067D01*
X332980Y932997D01*
X333049Y932929D01*
X333120Y932865D01*
X333193Y932803D01*
X333269Y932744D01*
X333347Y932688D01*
X333428Y932635D01*
X333510Y932586D01*
X333594Y932540D01*
X333681Y932497D01*
X333768Y932458D01*
X333858Y932422D01*
X333948Y932390D01*
X334040Y932362D01*
X334133Y932337D01*
X334227Y932316D01*
X334321Y932299D01*
X334416Y932285D01*
X334512Y932276D01*
X334608Y932270D01*
X334704Y932268D01*
X336976Y933891D02*
X337075Y934098D01*
X337168Y934309D01*
X337256Y934521D01*
X337339Y934735D01*
X337417Y934951D01*
X337490Y935169D01*
X337558Y935389D01*
X337620Y935610D01*
X337677Y935833D01*
X337729Y936057D01*
X337775Y936282D01*
X337816Y936508D01*
X337851Y936735D01*
X337881Y936963D01*
X337906Y937192D01*
X337925Y937421D01*
X337939Y937650D01*
X337947Y937880D01*
X337950Y938110D01*
X336976Y933891D02*
X336943Y933801D01*
X336907Y933712D01*
X336867Y933624D01*
X336823Y933539D01*
X336776Y933455D01*
X336726Y933373D01*
X336672Y933293D01*
X336616Y933216D01*
X336556Y933140D01*
X336493Y933067D01*
X336428Y932997D01*
X336359Y932929D01*
X336288Y932865D01*
X336215Y932803D01*
X336139Y932744D01*
X336061Y932688D01*
X335980Y932635D01*
X335898Y932586D01*
X335814Y932540D01*
X335727Y932497D01*
X335640Y932458D01*
X335550Y932422D01*
X335460Y932390D01*
X335368Y932362D01*
X335275Y932337D01*
X335181Y932316D01*
X335087Y932299D01*
X334992Y932285D01*
X334896Y932276D01*
X334800Y932270D01*
X334704Y932268D01*
X332107Y934864D02*
X337300Y941356D01*
D10*
X677280Y660820D02*
X677280Y655740D01*
X679820Y658280D02*
X674740Y658280D01*
D12*
X692520Y653200D02*
X735700Y653200D01*
X692520Y653200D02*
X684900Y653200D01*
X684900Y665900D01*
X684900Y691300D01*
X684900Y704000D01*
X692520Y704000D01*
X735700Y704000D01*
X684900Y665900D02*
X659500Y665900D01*
X659500Y691300D02*
X684900Y691300D01*
X735700Y704000D02*
X736319Y703992D01*
X736937Y703970D01*
X737554Y703932D01*
X738170Y703880D01*
X738785Y703812D01*
X739398Y703729D01*
X740009Y703632D01*
X740617Y703519D01*
X741223Y703392D01*
X741825Y703250D01*
X742423Y703094D01*
X743018Y702923D01*
X743608Y702738D01*
X744193Y702538D01*
X744774Y702324D01*
X745349Y702096D01*
X745918Y701854D01*
X746481Y701598D01*
X747038Y701329D01*
X747588Y701046D01*
X748131Y700750D01*
X748667Y700441D01*
X749195Y700119D01*
X749715Y699784D01*
X750227Y699436D01*
X750730Y699076D01*
X751224Y698704D01*
X751709Y698320D01*
X752184Y697924D01*
X752650Y697517D01*
X753106Y697099D01*
X753551Y696670D01*
X753986Y696229D01*
X754409Y695779D01*
X754822Y695318D01*
X755224Y694848D01*
X755613Y694367D01*
X755992Y693878D01*
X756358Y693379D01*
X756711Y692872D01*
X757053Y692356D01*
X757381Y691832D01*
X757697Y691300D01*
X758000Y690761D01*
X758289Y690214D01*
X758565Y689660D01*
X758828Y689100D01*
X759077Y688534D01*
X759312Y687962D01*
X759533Y687384D01*
X759740Y686801D01*
X759932Y686213D01*
X760110Y685621D01*
X760274Y685025D01*
X760423Y684424D01*
X760558Y683820D01*
X760677Y683214D01*
X760782Y682604D01*
X760872Y681992D01*
X760948Y681378D01*
X761008Y680762D01*
X761053Y680145D01*
X761083Y679528D01*
X761098Y678909D01*
X761098Y678291D01*
X761083Y677672D01*
X761053Y677055D01*
X761008Y676438D01*
X760948Y675822D01*
X760872Y675208D01*
X760782Y674596D01*
X760677Y673986D01*
X760558Y673380D01*
X760423Y672776D01*
X760274Y672175D01*
X760110Y671579D01*
X759932Y670987D01*
X759740Y670399D01*
X759533Y669816D01*
X759312Y669238D01*
X759077Y668666D01*
X758828Y668100D01*
X758565Y667540D01*
X758289Y666986D01*
X758000Y666439D01*
X757697Y665900D01*
X757381Y665368D01*
X757053Y664844D01*
X756711Y664328D01*
X756358Y663821D01*
X755992Y663322D01*
X755613Y662833D01*
X755224Y662352D01*
X754822Y661882D01*
X754409Y661421D01*
X753986Y660971D01*
X753551Y660530D01*
X753106Y660101D01*
X752650Y659683D01*
X752184Y659276D01*
X751709Y658880D01*
X751224Y658496D01*
X750730Y658124D01*
X750227Y657764D01*
X749715Y657416D01*
X749195Y657081D01*
X748667Y656759D01*
X748131Y656450D01*
X747588Y656154D01*
X747038Y655871D01*
X746481Y655602D01*
X745918Y655346D01*
X745349Y655104D01*
X744774Y654876D01*
X744193Y654662D01*
X743608Y654462D01*
X743018Y654277D01*
X742423Y654106D01*
X741825Y653950D01*
X741223Y653808D01*
X740617Y653681D01*
X740009Y653568D01*
X739398Y653471D01*
X738785Y653388D01*
X738170Y653320D01*
X737554Y653268D01*
X736937Y653230D01*
X736319Y653208D01*
X735700Y653200D01*
X692520Y653200D02*
X692520Y704000D01*
D11*
X575181Y667932D02*
X575181Y656248D01*
X580373Y656248D01*
X585087Y656248D02*
X590279Y656248D01*
X585087Y656248D02*
X585087Y667932D01*
X590279Y667932D01*
X588981Y662739D02*
X585087Y662739D01*
X594970Y667932D02*
X594970Y656248D01*
X594970Y667932D02*
X598215Y667932D01*
X598328Y667930D01*
X598441Y667924D01*
X598554Y667914D01*
X598667Y667900D01*
X598779Y667883D01*
X598890Y667861D01*
X599000Y667836D01*
X599110Y667806D01*
X599218Y667773D01*
X599325Y667736D01*
X599431Y667696D01*
X599535Y667651D01*
X599638Y667603D01*
X599739Y667552D01*
X599838Y667497D01*
X599935Y667439D01*
X600030Y667377D01*
X600123Y667312D01*
X600213Y667244D01*
X600301Y667173D01*
X600387Y667098D01*
X600470Y667021D01*
X600550Y666941D01*
X600627Y666858D01*
X600702Y666772D01*
X600773Y666684D01*
X600841Y666594D01*
X600906Y666501D01*
X600968Y666406D01*
X601026Y666309D01*
X601081Y666210D01*
X601132Y666109D01*
X601180Y666006D01*
X601225Y665902D01*
X601265Y665796D01*
X601302Y665689D01*
X601335Y665581D01*
X601365Y665471D01*
X601390Y665361D01*
X601412Y665250D01*
X601429Y665138D01*
X601443Y665025D01*
X601453Y664912D01*
X601459Y664799D01*
X601461Y664686D01*
X601461Y659494D01*
X601462Y659494D02*
X601460Y659381D01*
X601454Y659268D01*
X601444Y659155D01*
X601430Y659042D01*
X601413Y658930D01*
X601391Y658819D01*
X601366Y658709D01*
X601336Y658599D01*
X601303Y658491D01*
X601266Y658384D01*
X601226Y658278D01*
X601181Y658174D01*
X601133Y658071D01*
X601082Y657970D01*
X601027Y657871D01*
X600969Y657774D01*
X600907Y657679D01*
X600842Y657586D01*
X600774Y657496D01*
X600703Y657408D01*
X600628Y657322D01*
X600551Y657239D01*
X600471Y657159D01*
X600388Y657082D01*
X600302Y657007D01*
X600214Y656936D01*
X600124Y656868D01*
X600031Y656803D01*
X599936Y656741D01*
X599839Y656683D01*
X599740Y656628D01*
X599639Y656577D01*
X599536Y656529D01*
X599432Y656484D01*
X599326Y656444D01*
X599219Y656407D01*
X599111Y656374D01*
X599001Y656344D01*
X598891Y656319D01*
X598780Y656297D01*
X598668Y656280D01*
X598555Y656266D01*
X598442Y656256D01*
X598329Y656250D01*
X598216Y656248D01*
X598215Y656248D02*
X594970Y656248D01*
X610351Y667932D02*
X610458Y667930D01*
X610564Y667924D01*
X610670Y667914D01*
X610776Y667901D01*
X610882Y667883D01*
X610986Y667862D01*
X611090Y667837D01*
X611193Y667808D01*
X611294Y667776D01*
X611394Y667739D01*
X611493Y667699D01*
X611591Y667656D01*
X611687Y667609D01*
X611781Y667558D01*
X611873Y667504D01*
X611963Y667447D01*
X612051Y667387D01*
X612136Y667323D01*
X612219Y667256D01*
X612300Y667186D01*
X612378Y667114D01*
X612454Y667038D01*
X612526Y666960D01*
X612596Y666879D01*
X612663Y666796D01*
X612727Y666711D01*
X612787Y666623D01*
X612844Y666533D01*
X612898Y666441D01*
X612949Y666347D01*
X612996Y666251D01*
X613039Y666153D01*
X613079Y666054D01*
X613116Y665954D01*
X613148Y665853D01*
X613177Y665750D01*
X613202Y665646D01*
X613223Y665542D01*
X613241Y665436D01*
X613254Y665330D01*
X613264Y665224D01*
X613270Y665118D01*
X613272Y665011D01*
X610351Y667932D02*
X610230Y667930D01*
X610109Y667924D01*
X609989Y667914D01*
X609868Y667901D01*
X609749Y667883D01*
X609629Y667862D01*
X609511Y667837D01*
X609394Y667808D01*
X609277Y667775D01*
X609162Y667739D01*
X609048Y667698D01*
X608935Y667655D01*
X608823Y667607D01*
X608714Y667556D01*
X608606Y667501D01*
X608499Y667443D01*
X608395Y667382D01*
X608293Y667317D01*
X608193Y667249D01*
X608095Y667178D01*
X607999Y667104D01*
X607906Y667027D01*
X607816Y666946D01*
X607728Y666863D01*
X607643Y666777D01*
X607560Y666688D01*
X607481Y666597D01*
X607404Y666503D01*
X607331Y666407D01*
X607261Y666309D01*
X607194Y666208D01*
X607130Y666105D01*
X607070Y666000D01*
X607013Y665893D01*
X606959Y665785D01*
X606909Y665675D01*
X606863Y665563D01*
X606820Y665450D01*
X606781Y665335D01*
X612299Y662739D02*
X612378Y662816D01*
X612454Y662897D01*
X612527Y662980D01*
X612597Y663065D01*
X612664Y663153D01*
X612728Y663243D01*
X612788Y663335D01*
X612845Y663430D01*
X612899Y663526D01*
X612950Y663624D01*
X612997Y663724D01*
X613041Y663826D01*
X613081Y663929D01*
X613117Y664033D01*
X613149Y664139D01*
X613178Y664245D01*
X613203Y664353D01*
X613225Y664461D01*
X613242Y664571D01*
X613256Y664680D01*
X613265Y664790D01*
X613271Y664901D01*
X613273Y665011D01*
X612298Y662739D02*
X606781Y656248D01*
X613272Y656248D01*
D10*
X275220Y761580D02*
X275220Y766660D01*
X272680Y764120D02*
X277760Y764120D01*
D12*
X259980Y769200D02*
X216800Y769200D01*
X259980Y769200D02*
X267600Y769200D01*
X267600Y756500D01*
X267600Y731100D01*
X267600Y718400D01*
X259980Y718400D01*
X216800Y718400D01*
X267600Y756500D02*
X293000Y756500D01*
X293000Y731100D02*
X267600Y731100D01*
X216800Y718400D02*
X216181Y718408D01*
X215563Y718430D01*
X214946Y718468D01*
X214330Y718520D01*
X213715Y718588D01*
X213102Y718671D01*
X212491Y718768D01*
X211883Y718881D01*
X211277Y719008D01*
X210675Y719150D01*
X210077Y719306D01*
X209482Y719477D01*
X208892Y719662D01*
X208307Y719862D01*
X207726Y720076D01*
X207151Y720304D01*
X206582Y720546D01*
X206019Y720802D01*
X205462Y721071D01*
X204912Y721354D01*
X204369Y721650D01*
X203833Y721959D01*
X203305Y722281D01*
X202785Y722616D01*
X202273Y722964D01*
X201770Y723324D01*
X201276Y723696D01*
X200791Y724080D01*
X200316Y724476D01*
X199850Y724883D01*
X199394Y725301D01*
X198949Y725730D01*
X198514Y726171D01*
X198091Y726621D01*
X197678Y727082D01*
X197276Y727552D01*
X196887Y728033D01*
X196508Y728522D01*
X196142Y729021D01*
X195789Y729528D01*
X195447Y730044D01*
X195119Y730568D01*
X194803Y731100D01*
X194500Y731639D01*
X194211Y732186D01*
X193935Y732740D01*
X193672Y733300D01*
X193423Y733866D01*
X193188Y734438D01*
X192967Y735016D01*
X192760Y735599D01*
X192568Y736187D01*
X192390Y736779D01*
X192226Y737375D01*
X192077Y737976D01*
X191942Y738580D01*
X191823Y739186D01*
X191718Y739796D01*
X191628Y740408D01*
X191552Y741022D01*
X191492Y741638D01*
X191447Y742255D01*
X191417Y742872D01*
X191402Y743491D01*
X191402Y744109D01*
X191417Y744728D01*
X191447Y745345D01*
X191492Y745962D01*
X191552Y746578D01*
X191628Y747192D01*
X191718Y747804D01*
X191823Y748414D01*
X191942Y749020D01*
X192077Y749624D01*
X192226Y750225D01*
X192390Y750821D01*
X192568Y751413D01*
X192760Y752001D01*
X192967Y752584D01*
X193188Y753162D01*
X193423Y753734D01*
X193672Y754300D01*
X193935Y754860D01*
X194211Y755414D01*
X194500Y755961D01*
X194803Y756500D01*
X195119Y757032D01*
X195447Y757556D01*
X195789Y758072D01*
X196142Y758579D01*
X196508Y759078D01*
X196887Y759567D01*
X197276Y760048D01*
X197678Y760518D01*
X198091Y760979D01*
X198514Y761429D01*
X198949Y761870D01*
X199394Y762299D01*
X199850Y762717D01*
X200316Y763124D01*
X200791Y763520D01*
X201276Y763904D01*
X201770Y764276D01*
X202273Y764636D01*
X202785Y764984D01*
X203305Y765319D01*
X203833Y765641D01*
X204369Y765950D01*
X204912Y766246D01*
X205462Y766529D01*
X206019Y766798D01*
X206582Y767054D01*
X207151Y767296D01*
X207726Y767524D01*
X208307Y767738D01*
X208892Y767938D01*
X209482Y768123D01*
X210077Y768294D01*
X210675Y768450D01*
X211277Y768592D01*
X211883Y768719D01*
X212491Y768832D01*
X213102Y768929D01*
X213715Y769012D01*
X214330Y769080D01*
X214946Y769132D01*
X215563Y769170D01*
X216181Y769192D01*
X216800Y769200D01*
X259980Y769200D02*
X259980Y718400D01*
D11*
X339228Y754468D02*
X339228Y766152D01*
X339228Y754468D02*
X344421Y754468D01*
X349134Y754468D02*
X354327Y754468D01*
X349134Y754468D02*
X349134Y766152D01*
X354327Y766152D01*
X353029Y760959D02*
X349134Y760959D01*
X359017Y766152D02*
X359017Y754468D01*
X359017Y766152D02*
X362263Y766152D01*
X362376Y766150D01*
X362489Y766144D01*
X362602Y766134D01*
X362715Y766120D01*
X362827Y766103D01*
X362938Y766081D01*
X363048Y766056D01*
X363158Y766026D01*
X363266Y765993D01*
X363373Y765956D01*
X363479Y765916D01*
X363583Y765871D01*
X363686Y765823D01*
X363787Y765772D01*
X363886Y765717D01*
X363983Y765659D01*
X364078Y765597D01*
X364171Y765532D01*
X364261Y765464D01*
X364349Y765393D01*
X364435Y765318D01*
X364518Y765241D01*
X364598Y765161D01*
X364675Y765078D01*
X364750Y764992D01*
X364821Y764904D01*
X364889Y764814D01*
X364954Y764721D01*
X365016Y764626D01*
X365074Y764529D01*
X365129Y764430D01*
X365180Y764329D01*
X365228Y764226D01*
X365273Y764122D01*
X365313Y764016D01*
X365350Y763909D01*
X365383Y763801D01*
X365413Y763691D01*
X365438Y763581D01*
X365460Y763470D01*
X365477Y763358D01*
X365491Y763245D01*
X365501Y763132D01*
X365507Y763019D01*
X365509Y762906D01*
X365509Y757714D01*
X365507Y757601D01*
X365501Y757488D01*
X365491Y757375D01*
X365477Y757262D01*
X365460Y757150D01*
X365438Y757039D01*
X365413Y756929D01*
X365383Y756819D01*
X365350Y756711D01*
X365313Y756604D01*
X365273Y756498D01*
X365228Y756394D01*
X365180Y756291D01*
X365129Y756190D01*
X365074Y756091D01*
X365016Y755994D01*
X364954Y755899D01*
X364889Y755806D01*
X364821Y755716D01*
X364750Y755628D01*
X364675Y755542D01*
X364598Y755459D01*
X364518Y755379D01*
X364435Y755302D01*
X364349Y755227D01*
X364261Y755156D01*
X364171Y755088D01*
X364078Y755023D01*
X363983Y754961D01*
X363886Y754903D01*
X363787Y754848D01*
X363686Y754797D01*
X363583Y754749D01*
X363479Y754704D01*
X363373Y754664D01*
X363266Y754627D01*
X363158Y754594D01*
X363048Y754564D01*
X362938Y754539D01*
X362827Y754517D01*
X362715Y754500D01*
X362602Y754486D01*
X362489Y754476D01*
X362376Y754470D01*
X362263Y754468D01*
X359017Y754468D01*
X370828Y754468D02*
X374074Y754468D01*
X374187Y754470D01*
X374300Y754476D01*
X374413Y754486D01*
X374526Y754500D01*
X374638Y754517D01*
X374749Y754539D01*
X374859Y754564D01*
X374969Y754594D01*
X375077Y754627D01*
X375184Y754664D01*
X375290Y754704D01*
X375394Y754749D01*
X375497Y754797D01*
X375598Y754848D01*
X375697Y754903D01*
X375794Y754961D01*
X375889Y755023D01*
X375982Y755088D01*
X376072Y755156D01*
X376160Y755227D01*
X376246Y755302D01*
X376329Y755379D01*
X376409Y755459D01*
X376486Y755542D01*
X376561Y755628D01*
X376632Y755716D01*
X376700Y755806D01*
X376765Y755899D01*
X376827Y755994D01*
X376885Y756091D01*
X376940Y756190D01*
X376991Y756291D01*
X377039Y756394D01*
X377084Y756498D01*
X377124Y756604D01*
X377161Y756711D01*
X377194Y756819D01*
X377224Y756929D01*
X377249Y757039D01*
X377271Y757150D01*
X377288Y757262D01*
X377302Y757375D01*
X377312Y757488D01*
X377318Y757601D01*
X377320Y757714D01*
X377318Y757827D01*
X377312Y757940D01*
X377302Y758053D01*
X377288Y758166D01*
X377271Y758278D01*
X377249Y758389D01*
X377224Y758499D01*
X377194Y758609D01*
X377161Y758717D01*
X377124Y758824D01*
X377084Y758930D01*
X377039Y759034D01*
X376991Y759137D01*
X376940Y759238D01*
X376885Y759337D01*
X376827Y759434D01*
X376765Y759529D01*
X376700Y759622D01*
X376632Y759712D01*
X376561Y759800D01*
X376486Y759886D01*
X376409Y759969D01*
X376329Y760049D01*
X376246Y760126D01*
X376160Y760201D01*
X376072Y760272D01*
X375982Y760340D01*
X375889Y760405D01*
X375794Y760467D01*
X375697Y760525D01*
X375598Y760580D01*
X375497Y760631D01*
X375394Y760679D01*
X375290Y760724D01*
X375184Y760764D01*
X375077Y760801D01*
X374969Y760834D01*
X374859Y760864D01*
X374749Y760889D01*
X374638Y760911D01*
X374526Y760928D01*
X374413Y760942D01*
X374300Y760952D01*
X374187Y760958D01*
X374074Y760960D01*
X374723Y766152D02*
X370828Y766152D01*
X374723Y766152D02*
X374824Y766150D01*
X374924Y766144D01*
X375024Y766134D01*
X375124Y766121D01*
X375223Y766103D01*
X375322Y766082D01*
X375419Y766057D01*
X375516Y766028D01*
X375611Y765995D01*
X375705Y765959D01*
X375797Y765919D01*
X375888Y765876D01*
X375977Y765829D01*
X376064Y765779D01*
X376150Y765725D01*
X376233Y765668D01*
X376313Y765608D01*
X376392Y765545D01*
X376468Y765478D01*
X376541Y765409D01*
X376611Y765337D01*
X376679Y765263D01*
X376744Y765186D01*
X376805Y765106D01*
X376864Y765024D01*
X376919Y764940D01*
X376971Y764854D01*
X377020Y764766D01*
X377065Y764676D01*
X377107Y764584D01*
X377145Y764491D01*
X377179Y764396D01*
X377210Y764301D01*
X377237Y764204D01*
X377260Y764106D01*
X377280Y764007D01*
X377295Y763907D01*
X377307Y763807D01*
X377315Y763707D01*
X377319Y763606D01*
X377319Y763506D01*
X377315Y763405D01*
X377307Y763305D01*
X377295Y763205D01*
X377280Y763105D01*
X377260Y763006D01*
X377237Y762908D01*
X377210Y762811D01*
X377179Y762716D01*
X377145Y762621D01*
X377107Y762528D01*
X377065Y762436D01*
X377020Y762346D01*
X376971Y762258D01*
X376919Y762172D01*
X376864Y762088D01*
X376805Y762006D01*
X376744Y761926D01*
X376679Y761849D01*
X376611Y761775D01*
X376541Y761703D01*
X376468Y761634D01*
X376392Y761567D01*
X376313Y761504D01*
X376233Y761444D01*
X376150Y761387D01*
X376064Y761333D01*
X375977Y761283D01*
X375888Y761236D01*
X375797Y761193D01*
X375705Y761153D01*
X375611Y761117D01*
X375516Y761084D01*
X375419Y761055D01*
X375322Y761030D01*
X375223Y761009D01*
X375124Y760991D01*
X375024Y760978D01*
X374924Y760968D01*
X374824Y760962D01*
X374723Y760960D01*
X374723Y760959D02*
X372127Y760959D01*
D10*
X639180Y884340D02*
X639180Y889420D01*
X641720Y886880D02*
X636640Y886880D01*
D12*
X654420Y881800D02*
X697600Y881800D01*
X654420Y881800D02*
X646800Y881800D01*
X646800Y894500D01*
X646800Y919900D01*
X646800Y932600D01*
X654420Y932600D01*
X697600Y932600D01*
X646800Y894500D02*
X621400Y894500D01*
X621400Y919900D02*
X646800Y919900D01*
X697600Y932600D02*
X698219Y932592D01*
X698837Y932570D01*
X699454Y932532D01*
X700070Y932480D01*
X700685Y932412D01*
X701298Y932329D01*
X701909Y932232D01*
X702517Y932119D01*
X703123Y931992D01*
X703725Y931850D01*
X704323Y931694D01*
X704918Y931523D01*
X705508Y931338D01*
X706093Y931138D01*
X706674Y930924D01*
X707249Y930696D01*
X707818Y930454D01*
X708381Y930198D01*
X708938Y929929D01*
X709488Y929646D01*
X710031Y929350D01*
X710567Y929041D01*
X711095Y928719D01*
X711615Y928384D01*
X712127Y928036D01*
X712630Y927676D01*
X713124Y927304D01*
X713609Y926920D01*
X714084Y926524D01*
X714550Y926117D01*
X715006Y925699D01*
X715451Y925270D01*
X715886Y924829D01*
X716309Y924379D01*
X716722Y923918D01*
X717124Y923448D01*
X717513Y922967D01*
X717892Y922478D01*
X718258Y921979D01*
X718611Y921472D01*
X718953Y920956D01*
X719281Y920432D01*
X719597Y919900D01*
X719900Y919361D01*
X720189Y918814D01*
X720465Y918260D01*
X720728Y917700D01*
X720977Y917134D01*
X721212Y916562D01*
X721433Y915984D01*
X721640Y915401D01*
X721832Y914813D01*
X722010Y914221D01*
X722174Y913625D01*
X722323Y913024D01*
X722458Y912420D01*
X722577Y911814D01*
X722682Y911204D01*
X722772Y910592D01*
X722848Y909978D01*
X722908Y909362D01*
X722953Y908745D01*
X722983Y908128D01*
X722998Y907509D01*
X722998Y906891D01*
X722983Y906272D01*
X722953Y905655D01*
X722908Y905038D01*
X722848Y904422D01*
X722772Y903808D01*
X722682Y903196D01*
X722577Y902586D01*
X722458Y901980D01*
X722323Y901376D01*
X722174Y900775D01*
X722010Y900179D01*
X721832Y899587D01*
X721640Y898999D01*
X721433Y898416D01*
X721212Y897838D01*
X720977Y897266D01*
X720728Y896700D01*
X720465Y896140D01*
X720189Y895586D01*
X719900Y895039D01*
X719597Y894500D01*
X719281Y893968D01*
X718953Y893444D01*
X718611Y892928D01*
X718258Y892421D01*
X717892Y891922D01*
X717513Y891433D01*
X717124Y890952D01*
X716722Y890482D01*
X716309Y890021D01*
X715886Y889571D01*
X715451Y889130D01*
X715006Y888701D01*
X714550Y888283D01*
X714084Y887876D01*
X713609Y887480D01*
X713124Y887096D01*
X712630Y886724D01*
X712127Y886364D01*
X711615Y886016D01*
X711095Y885681D01*
X710567Y885359D01*
X710031Y885050D01*
X709488Y884754D01*
X708938Y884471D01*
X708381Y884202D01*
X707818Y883946D01*
X707249Y883704D01*
X706674Y883476D01*
X706093Y883262D01*
X705508Y883062D01*
X704918Y882877D01*
X704323Y882706D01*
X703725Y882550D01*
X703123Y882408D01*
X702517Y882281D01*
X701909Y882168D01*
X701298Y882071D01*
X700685Y881988D01*
X700070Y881920D01*
X699454Y881868D01*
X698837Y881830D01*
X698219Y881808D01*
X697600Y881800D01*
X654420Y881800D02*
X654420Y932600D01*
D11*
X537081Y896532D02*
X537081Y884848D01*
X542273Y884848D01*
X546987Y884848D02*
X552179Y884848D01*
X546987Y884848D02*
X546987Y896532D01*
X552179Y896532D01*
X550881Y891339D02*
X546987Y891339D01*
X556870Y896532D02*
X556870Y884848D01*
X556870Y896532D02*
X560115Y896532D01*
X560228Y896530D01*
X560341Y896524D01*
X560454Y896514D01*
X560567Y896500D01*
X560679Y896483D01*
X560790Y896461D01*
X560900Y896436D01*
X561010Y896406D01*
X561118Y896373D01*
X561225Y896336D01*
X561331Y896296D01*
X561435Y896251D01*
X561538Y896203D01*
X561639Y896152D01*
X561738Y896097D01*
X561835Y896039D01*
X561930Y895977D01*
X562023Y895912D01*
X562113Y895844D01*
X562201Y895773D01*
X562287Y895698D01*
X562370Y895621D01*
X562450Y895541D01*
X562527Y895458D01*
X562602Y895372D01*
X562673Y895284D01*
X562741Y895194D01*
X562806Y895101D01*
X562868Y895006D01*
X562926Y894909D01*
X562981Y894810D01*
X563032Y894709D01*
X563080Y894606D01*
X563125Y894502D01*
X563165Y894396D01*
X563202Y894289D01*
X563235Y894181D01*
X563265Y894071D01*
X563290Y893961D01*
X563312Y893850D01*
X563329Y893738D01*
X563343Y893625D01*
X563353Y893512D01*
X563359Y893399D01*
X563361Y893286D01*
X563361Y888094D01*
X563362Y888094D02*
X563360Y887981D01*
X563354Y887868D01*
X563344Y887755D01*
X563330Y887642D01*
X563313Y887530D01*
X563291Y887419D01*
X563266Y887309D01*
X563236Y887199D01*
X563203Y887091D01*
X563166Y886984D01*
X563126Y886878D01*
X563081Y886774D01*
X563033Y886671D01*
X562982Y886570D01*
X562927Y886471D01*
X562869Y886374D01*
X562807Y886279D01*
X562742Y886186D01*
X562674Y886096D01*
X562603Y886008D01*
X562528Y885922D01*
X562451Y885839D01*
X562371Y885759D01*
X562288Y885682D01*
X562202Y885607D01*
X562114Y885536D01*
X562024Y885468D01*
X561931Y885403D01*
X561836Y885341D01*
X561739Y885283D01*
X561640Y885228D01*
X561539Y885177D01*
X561436Y885129D01*
X561332Y885084D01*
X561226Y885044D01*
X561119Y885007D01*
X561011Y884974D01*
X560901Y884944D01*
X560791Y884919D01*
X560680Y884897D01*
X560568Y884880D01*
X560455Y884866D01*
X560342Y884856D01*
X560229Y884850D01*
X560116Y884848D01*
X560115Y884848D02*
X556870Y884848D01*
X568681Y887444D02*
X571277Y896532D01*
X568681Y887444D02*
X575172Y887444D01*
X573225Y890041D02*
X573225Y884848D01*
D10*
X550280Y1163740D02*
X550280Y1168820D01*
X552820Y1166280D02*
X547740Y1166280D01*
D12*
X565520Y1161200D02*
X608700Y1161200D01*
X565520Y1161200D02*
X557900Y1161200D01*
X557900Y1173900D01*
X557900Y1199300D01*
X557900Y1212000D01*
X565520Y1212000D01*
X608700Y1212000D01*
X557900Y1173900D02*
X532500Y1173900D01*
X532500Y1199300D02*
X557900Y1199300D01*
X608700Y1212000D02*
X609319Y1211992D01*
X609937Y1211970D01*
X610554Y1211932D01*
X611170Y1211880D01*
X611785Y1211812D01*
X612398Y1211729D01*
X613009Y1211632D01*
X613617Y1211519D01*
X614223Y1211392D01*
X614825Y1211250D01*
X615423Y1211094D01*
X616018Y1210923D01*
X616608Y1210738D01*
X617193Y1210538D01*
X617774Y1210324D01*
X618349Y1210096D01*
X618918Y1209854D01*
X619481Y1209598D01*
X620038Y1209329D01*
X620588Y1209046D01*
X621131Y1208750D01*
X621667Y1208441D01*
X622195Y1208119D01*
X622715Y1207784D01*
X623227Y1207436D01*
X623730Y1207076D01*
X624224Y1206704D01*
X624709Y1206320D01*
X625184Y1205924D01*
X625650Y1205517D01*
X626106Y1205099D01*
X626551Y1204670D01*
X626986Y1204229D01*
X627409Y1203779D01*
X627822Y1203318D01*
X628224Y1202848D01*
X628613Y1202367D01*
X628992Y1201878D01*
X629358Y1201379D01*
X629711Y1200872D01*
X630053Y1200356D01*
X630381Y1199832D01*
X630697Y1199300D01*
X631000Y1198761D01*
X631289Y1198214D01*
X631565Y1197660D01*
X631828Y1197100D01*
X632077Y1196534D01*
X632312Y1195962D01*
X632533Y1195384D01*
X632740Y1194801D01*
X632932Y1194213D01*
X633110Y1193621D01*
X633274Y1193025D01*
X633423Y1192424D01*
X633558Y1191820D01*
X633677Y1191214D01*
X633782Y1190604D01*
X633872Y1189992D01*
X633948Y1189378D01*
X634008Y1188762D01*
X634053Y1188145D01*
X634083Y1187528D01*
X634098Y1186909D01*
X634098Y1186291D01*
X634083Y1185672D01*
X634053Y1185055D01*
X634008Y1184438D01*
X633948Y1183822D01*
X633872Y1183208D01*
X633782Y1182596D01*
X633677Y1181986D01*
X633558Y1181380D01*
X633423Y1180776D01*
X633274Y1180175D01*
X633110Y1179579D01*
X632932Y1178987D01*
X632740Y1178399D01*
X632533Y1177816D01*
X632312Y1177238D01*
X632077Y1176666D01*
X631828Y1176100D01*
X631565Y1175540D01*
X631289Y1174986D01*
X631000Y1174439D01*
X630697Y1173900D01*
X630381Y1173368D01*
X630053Y1172844D01*
X629711Y1172328D01*
X629358Y1171821D01*
X628992Y1171322D01*
X628613Y1170833D01*
X628224Y1170352D01*
X627822Y1169882D01*
X627409Y1169421D01*
X626986Y1168971D01*
X626551Y1168530D01*
X626106Y1168101D01*
X625650Y1167683D01*
X625184Y1167276D01*
X624709Y1166880D01*
X624224Y1166496D01*
X623730Y1166124D01*
X623227Y1165764D01*
X622715Y1165416D01*
X622195Y1165081D01*
X621667Y1164759D01*
X621131Y1164450D01*
X620588Y1164154D01*
X620038Y1163871D01*
X619481Y1163602D01*
X618918Y1163346D01*
X618349Y1163104D01*
X617774Y1162876D01*
X617193Y1162662D01*
X616608Y1162462D01*
X616018Y1162277D01*
X615423Y1162106D01*
X614825Y1161950D01*
X614223Y1161808D01*
X613617Y1161681D01*
X613009Y1161568D01*
X612398Y1161471D01*
X611785Y1161388D01*
X611170Y1161320D01*
X610554Y1161268D01*
X609937Y1161230D01*
X609319Y1161208D01*
X608700Y1161200D01*
X565520Y1161200D02*
X565520Y1212000D01*
D11*
X448181Y1175932D02*
X448181Y1164248D01*
X453373Y1164248D01*
X458087Y1164248D02*
X463279Y1164248D01*
X458087Y1164248D02*
X458087Y1175932D01*
X463279Y1175932D01*
X461981Y1170739D02*
X458087Y1170739D01*
X467970Y1175932D02*
X467970Y1164248D01*
X467970Y1175932D02*
X471215Y1175932D01*
X471328Y1175930D01*
X471441Y1175924D01*
X471554Y1175914D01*
X471667Y1175900D01*
X471779Y1175883D01*
X471890Y1175861D01*
X472000Y1175836D01*
X472110Y1175806D01*
X472218Y1175773D01*
X472325Y1175736D01*
X472431Y1175696D01*
X472535Y1175651D01*
X472638Y1175603D01*
X472739Y1175552D01*
X472838Y1175497D01*
X472935Y1175439D01*
X473030Y1175377D01*
X473123Y1175312D01*
X473213Y1175244D01*
X473301Y1175173D01*
X473387Y1175098D01*
X473470Y1175021D01*
X473550Y1174941D01*
X473627Y1174858D01*
X473702Y1174772D01*
X473773Y1174684D01*
X473841Y1174594D01*
X473906Y1174501D01*
X473968Y1174406D01*
X474026Y1174309D01*
X474081Y1174210D01*
X474132Y1174109D01*
X474180Y1174006D01*
X474225Y1173902D01*
X474265Y1173796D01*
X474302Y1173689D01*
X474335Y1173581D01*
X474365Y1173471D01*
X474390Y1173361D01*
X474412Y1173250D01*
X474429Y1173138D01*
X474443Y1173025D01*
X474453Y1172912D01*
X474459Y1172799D01*
X474461Y1172686D01*
X474461Y1167494D01*
X474462Y1167494D02*
X474460Y1167381D01*
X474454Y1167268D01*
X474444Y1167155D01*
X474430Y1167042D01*
X474413Y1166930D01*
X474391Y1166819D01*
X474366Y1166709D01*
X474336Y1166599D01*
X474303Y1166491D01*
X474266Y1166384D01*
X474226Y1166278D01*
X474181Y1166174D01*
X474133Y1166071D01*
X474082Y1165970D01*
X474027Y1165871D01*
X473969Y1165774D01*
X473907Y1165679D01*
X473842Y1165586D01*
X473774Y1165496D01*
X473703Y1165408D01*
X473628Y1165322D01*
X473551Y1165239D01*
X473471Y1165159D01*
X473388Y1165082D01*
X473302Y1165007D01*
X473214Y1164936D01*
X473124Y1164868D01*
X473031Y1164803D01*
X472936Y1164741D01*
X472839Y1164683D01*
X472740Y1164628D01*
X472639Y1164577D01*
X472536Y1164529D01*
X472432Y1164484D01*
X472326Y1164444D01*
X472219Y1164407D01*
X472111Y1164374D01*
X472001Y1164344D01*
X471891Y1164319D01*
X471780Y1164297D01*
X471668Y1164280D01*
X471555Y1164266D01*
X471442Y1164256D01*
X471329Y1164250D01*
X471216Y1164248D01*
X471215Y1164248D02*
X467970Y1164248D01*
X479781Y1164248D02*
X483676Y1164248D01*
X483775Y1164250D01*
X483875Y1164256D01*
X483974Y1164265D01*
X484072Y1164278D01*
X484170Y1164295D01*
X484268Y1164316D01*
X484364Y1164341D01*
X484459Y1164369D01*
X484553Y1164401D01*
X484646Y1164436D01*
X484738Y1164475D01*
X484828Y1164518D01*
X484916Y1164563D01*
X485003Y1164613D01*
X485087Y1164665D01*
X485170Y1164721D01*
X485250Y1164779D01*
X485328Y1164841D01*
X485403Y1164906D01*
X485476Y1164974D01*
X485546Y1165044D01*
X485614Y1165117D01*
X485679Y1165192D01*
X485741Y1165270D01*
X485799Y1165350D01*
X485855Y1165433D01*
X485907Y1165517D01*
X485957Y1165604D01*
X486002Y1165692D01*
X486045Y1165782D01*
X486084Y1165874D01*
X486119Y1165967D01*
X486151Y1166061D01*
X486179Y1166156D01*
X486204Y1166252D01*
X486225Y1166350D01*
X486242Y1166448D01*
X486255Y1166546D01*
X486264Y1166645D01*
X486270Y1166745D01*
X486272Y1166844D01*
X486272Y1168143D01*
X486270Y1168242D01*
X486264Y1168342D01*
X486255Y1168441D01*
X486242Y1168539D01*
X486225Y1168637D01*
X486204Y1168735D01*
X486179Y1168831D01*
X486151Y1168926D01*
X486119Y1169020D01*
X486084Y1169113D01*
X486045Y1169205D01*
X486002Y1169295D01*
X485957Y1169383D01*
X485907Y1169470D01*
X485855Y1169554D01*
X485799Y1169637D01*
X485741Y1169717D01*
X485679Y1169795D01*
X485614Y1169870D01*
X485546Y1169943D01*
X485476Y1170013D01*
X485403Y1170081D01*
X485328Y1170146D01*
X485250Y1170208D01*
X485170Y1170266D01*
X485087Y1170322D01*
X485003Y1170374D01*
X484916Y1170424D01*
X484828Y1170469D01*
X484738Y1170512D01*
X484646Y1170551D01*
X484553Y1170586D01*
X484459Y1170618D01*
X484364Y1170646D01*
X484268Y1170671D01*
X484170Y1170692D01*
X484072Y1170709D01*
X483974Y1170722D01*
X483875Y1170731D01*
X483775Y1170737D01*
X483676Y1170739D01*
X479781Y1170739D01*
X479781Y1175932D01*
X486272Y1175932D01*
D10*
X326020Y1256880D02*
X326020Y1261960D01*
X323480Y1259420D02*
X328560Y1259420D01*
D12*
X310780Y1264500D02*
X267600Y1264500D01*
X310780Y1264500D02*
X318400Y1264500D01*
X318400Y1251800D01*
X318400Y1226400D01*
X318400Y1213700D01*
X310780Y1213700D01*
X267600Y1213700D01*
X318400Y1251800D02*
X343800Y1251800D01*
X343800Y1226400D02*
X318400Y1226400D01*
X267600Y1213700D02*
X266981Y1213708D01*
X266363Y1213730D01*
X265746Y1213768D01*
X265130Y1213820D01*
X264515Y1213888D01*
X263902Y1213971D01*
X263291Y1214068D01*
X262683Y1214181D01*
X262077Y1214308D01*
X261475Y1214450D01*
X260877Y1214606D01*
X260282Y1214777D01*
X259692Y1214962D01*
X259107Y1215162D01*
X258526Y1215376D01*
X257951Y1215604D01*
X257382Y1215846D01*
X256819Y1216102D01*
X256262Y1216371D01*
X255712Y1216654D01*
X255169Y1216950D01*
X254633Y1217259D01*
X254105Y1217581D01*
X253585Y1217916D01*
X253073Y1218264D01*
X252570Y1218624D01*
X252076Y1218996D01*
X251591Y1219380D01*
X251116Y1219776D01*
X250650Y1220183D01*
X250194Y1220601D01*
X249749Y1221030D01*
X249314Y1221471D01*
X248891Y1221921D01*
X248478Y1222382D01*
X248076Y1222852D01*
X247687Y1223333D01*
X247308Y1223822D01*
X246942Y1224321D01*
X246589Y1224828D01*
X246247Y1225344D01*
X245919Y1225868D01*
X245603Y1226400D01*
X245300Y1226939D01*
X245011Y1227486D01*
X244735Y1228040D01*
X244472Y1228600D01*
X244223Y1229166D01*
X243988Y1229738D01*
X243767Y1230316D01*
X243560Y1230899D01*
X243368Y1231487D01*
X243190Y1232079D01*
X243026Y1232675D01*
X242877Y1233276D01*
X242742Y1233880D01*
X242623Y1234486D01*
X242518Y1235096D01*
X242428Y1235708D01*
X242352Y1236322D01*
X242292Y1236938D01*
X242247Y1237555D01*
X242217Y1238172D01*
X242202Y1238791D01*
X242202Y1239409D01*
X242217Y1240028D01*
X242247Y1240645D01*
X242292Y1241262D01*
X242352Y1241878D01*
X242428Y1242492D01*
X242518Y1243104D01*
X242623Y1243714D01*
X242742Y1244320D01*
X242877Y1244924D01*
X243026Y1245525D01*
X243190Y1246121D01*
X243368Y1246713D01*
X243560Y1247301D01*
X243767Y1247884D01*
X243988Y1248462D01*
X244223Y1249034D01*
X244472Y1249600D01*
X244735Y1250160D01*
X245011Y1250714D01*
X245300Y1251261D01*
X245603Y1251800D01*
X245919Y1252332D01*
X246247Y1252856D01*
X246589Y1253372D01*
X246942Y1253879D01*
X247308Y1254378D01*
X247687Y1254867D01*
X248076Y1255348D01*
X248478Y1255818D01*
X248891Y1256279D01*
X249314Y1256729D01*
X249749Y1257170D01*
X250194Y1257599D01*
X250650Y1258017D01*
X251116Y1258424D01*
X251591Y1258820D01*
X252076Y1259204D01*
X252570Y1259576D01*
X253073Y1259936D01*
X253585Y1260284D01*
X254105Y1260619D01*
X254633Y1260941D01*
X255169Y1261250D01*
X255712Y1261546D01*
X256262Y1261829D01*
X256819Y1262098D01*
X257382Y1262354D01*
X257951Y1262596D01*
X258526Y1262824D01*
X259107Y1263038D01*
X259692Y1263238D01*
X260282Y1263423D01*
X260877Y1263594D01*
X261475Y1263750D01*
X262077Y1263892D01*
X262683Y1264019D01*
X263291Y1264132D01*
X263902Y1264229D01*
X264515Y1264312D01*
X265130Y1264380D01*
X265746Y1264432D01*
X266363Y1264470D01*
X266981Y1264492D01*
X267600Y1264500D01*
X310780Y1264500D02*
X310780Y1213700D01*
D11*
X390028Y1249768D02*
X390028Y1261452D01*
X390028Y1249768D02*
X395221Y1249768D01*
X399934Y1249768D02*
X405127Y1249768D01*
X399934Y1249768D02*
X399934Y1261452D01*
X405127Y1261452D01*
X403829Y1256259D02*
X399934Y1256259D01*
X409817Y1261452D02*
X409817Y1249768D01*
X409817Y1261452D02*
X413063Y1261452D01*
X413176Y1261450D01*
X413289Y1261444D01*
X413402Y1261434D01*
X413515Y1261420D01*
X413627Y1261403D01*
X413738Y1261381D01*
X413848Y1261356D01*
X413958Y1261326D01*
X414066Y1261293D01*
X414173Y1261256D01*
X414279Y1261216D01*
X414383Y1261171D01*
X414486Y1261123D01*
X414587Y1261072D01*
X414686Y1261017D01*
X414783Y1260959D01*
X414878Y1260897D01*
X414971Y1260832D01*
X415061Y1260764D01*
X415149Y1260693D01*
X415235Y1260618D01*
X415318Y1260541D01*
X415398Y1260461D01*
X415475Y1260378D01*
X415550Y1260292D01*
X415621Y1260204D01*
X415689Y1260114D01*
X415754Y1260021D01*
X415816Y1259926D01*
X415874Y1259829D01*
X415929Y1259730D01*
X415980Y1259629D01*
X416028Y1259526D01*
X416073Y1259422D01*
X416113Y1259316D01*
X416150Y1259209D01*
X416183Y1259101D01*
X416213Y1258991D01*
X416238Y1258881D01*
X416260Y1258770D01*
X416277Y1258658D01*
X416291Y1258545D01*
X416301Y1258432D01*
X416307Y1258319D01*
X416309Y1258206D01*
X416309Y1253014D01*
X416307Y1252901D01*
X416301Y1252788D01*
X416291Y1252675D01*
X416277Y1252562D01*
X416260Y1252450D01*
X416238Y1252339D01*
X416213Y1252229D01*
X416183Y1252119D01*
X416150Y1252011D01*
X416113Y1251904D01*
X416073Y1251798D01*
X416028Y1251694D01*
X415980Y1251591D01*
X415929Y1251490D01*
X415874Y1251391D01*
X415816Y1251294D01*
X415754Y1251199D01*
X415689Y1251106D01*
X415621Y1251016D01*
X415550Y1250928D01*
X415475Y1250842D01*
X415398Y1250759D01*
X415318Y1250679D01*
X415235Y1250602D01*
X415149Y1250527D01*
X415061Y1250456D01*
X414971Y1250388D01*
X414878Y1250323D01*
X414783Y1250261D01*
X414686Y1250203D01*
X414587Y1250148D01*
X414486Y1250097D01*
X414383Y1250049D01*
X414279Y1250004D01*
X414173Y1249964D01*
X414066Y1249927D01*
X413958Y1249894D01*
X413848Y1249864D01*
X413738Y1249839D01*
X413627Y1249817D01*
X413515Y1249800D01*
X413402Y1249786D01*
X413289Y1249776D01*
X413176Y1249770D01*
X413063Y1249768D01*
X409817Y1249768D01*
X421628Y1256259D02*
X425523Y1256259D01*
X425622Y1256257D01*
X425722Y1256251D01*
X425821Y1256242D01*
X425919Y1256229D01*
X426017Y1256212D01*
X426115Y1256191D01*
X426211Y1256166D01*
X426306Y1256138D01*
X426400Y1256106D01*
X426493Y1256071D01*
X426585Y1256032D01*
X426675Y1255989D01*
X426763Y1255944D01*
X426850Y1255894D01*
X426934Y1255842D01*
X427017Y1255786D01*
X427097Y1255728D01*
X427175Y1255666D01*
X427250Y1255601D01*
X427323Y1255533D01*
X427393Y1255463D01*
X427461Y1255390D01*
X427526Y1255315D01*
X427588Y1255237D01*
X427646Y1255157D01*
X427702Y1255074D01*
X427754Y1254990D01*
X427804Y1254903D01*
X427849Y1254815D01*
X427892Y1254725D01*
X427931Y1254633D01*
X427966Y1254540D01*
X427998Y1254446D01*
X428026Y1254351D01*
X428051Y1254255D01*
X428072Y1254157D01*
X428089Y1254059D01*
X428102Y1253961D01*
X428111Y1253862D01*
X428117Y1253762D01*
X428119Y1253663D01*
X428119Y1253014D01*
X428120Y1253014D02*
X428118Y1252901D01*
X428112Y1252788D01*
X428102Y1252675D01*
X428088Y1252562D01*
X428071Y1252450D01*
X428049Y1252339D01*
X428024Y1252229D01*
X427994Y1252119D01*
X427961Y1252011D01*
X427924Y1251904D01*
X427884Y1251798D01*
X427839Y1251694D01*
X427791Y1251591D01*
X427740Y1251490D01*
X427685Y1251391D01*
X427627Y1251294D01*
X427565Y1251199D01*
X427500Y1251106D01*
X427432Y1251016D01*
X427361Y1250928D01*
X427286Y1250842D01*
X427209Y1250759D01*
X427129Y1250679D01*
X427046Y1250602D01*
X426960Y1250527D01*
X426872Y1250456D01*
X426782Y1250388D01*
X426689Y1250323D01*
X426594Y1250261D01*
X426497Y1250203D01*
X426398Y1250148D01*
X426297Y1250097D01*
X426194Y1250049D01*
X426090Y1250004D01*
X425984Y1249964D01*
X425877Y1249927D01*
X425769Y1249894D01*
X425659Y1249864D01*
X425549Y1249839D01*
X425438Y1249817D01*
X425326Y1249800D01*
X425213Y1249786D01*
X425100Y1249776D01*
X424987Y1249770D01*
X424874Y1249768D01*
X424761Y1249770D01*
X424648Y1249776D01*
X424535Y1249786D01*
X424422Y1249800D01*
X424310Y1249817D01*
X424199Y1249839D01*
X424089Y1249864D01*
X423979Y1249894D01*
X423871Y1249927D01*
X423764Y1249964D01*
X423658Y1250004D01*
X423554Y1250049D01*
X423451Y1250097D01*
X423350Y1250148D01*
X423251Y1250203D01*
X423154Y1250261D01*
X423059Y1250323D01*
X422966Y1250388D01*
X422876Y1250456D01*
X422788Y1250527D01*
X422702Y1250602D01*
X422619Y1250679D01*
X422539Y1250759D01*
X422462Y1250842D01*
X422387Y1250928D01*
X422316Y1251016D01*
X422248Y1251106D01*
X422183Y1251199D01*
X422121Y1251294D01*
X422063Y1251391D01*
X422008Y1251490D01*
X421957Y1251591D01*
X421909Y1251694D01*
X421864Y1251798D01*
X421824Y1251904D01*
X421787Y1252011D01*
X421754Y1252119D01*
X421724Y1252229D01*
X421699Y1252339D01*
X421677Y1252450D01*
X421660Y1252562D01*
X421646Y1252675D01*
X421636Y1252788D01*
X421630Y1252901D01*
X421628Y1253014D01*
X421628Y1256259D01*
X421630Y1256402D01*
X421636Y1256545D01*
X421646Y1256688D01*
X421660Y1256830D01*
X421677Y1256972D01*
X421699Y1257114D01*
X421724Y1257255D01*
X421754Y1257395D01*
X421787Y1257534D01*
X421824Y1257672D01*
X421865Y1257809D01*
X421909Y1257945D01*
X421958Y1258080D01*
X422010Y1258213D01*
X422065Y1258345D01*
X422125Y1258475D01*
X422188Y1258604D01*
X422254Y1258731D01*
X422324Y1258855D01*
X422397Y1258978D01*
X422474Y1259099D01*
X422554Y1259218D01*
X422637Y1259334D01*
X422723Y1259449D01*
X422812Y1259560D01*
X422905Y1259670D01*
X423000Y1259776D01*
X423099Y1259880D01*
X423200Y1259981D01*
X423304Y1260080D01*
X423410Y1260175D01*
X423520Y1260268D01*
X423631Y1260357D01*
X423746Y1260443D01*
X423862Y1260526D01*
X423981Y1260606D01*
X424102Y1260683D01*
X424224Y1260756D01*
X424349Y1260826D01*
X424476Y1260892D01*
X424605Y1260955D01*
X424735Y1261015D01*
X424867Y1261070D01*
X425000Y1261122D01*
X425135Y1261171D01*
X425271Y1261215D01*
X425408Y1261256D01*
X425546Y1261293D01*
X425685Y1261326D01*
X425825Y1261356D01*
X425966Y1261381D01*
X426108Y1261403D01*
X426250Y1261420D01*
X426392Y1261434D01*
X426535Y1261444D01*
X426678Y1261450D01*
X426821Y1261452D01*
D10*
X601080Y419520D02*
X601080Y414440D01*
X603620Y416980D02*
X598540Y416980D01*
D12*
X616320Y411900D02*
X659500Y411900D01*
X616320Y411900D02*
X608700Y411900D01*
X608700Y424600D01*
X608700Y450000D01*
X608700Y462700D01*
X616320Y462700D01*
X659500Y462700D01*
X608700Y424600D02*
X583300Y424600D01*
X583300Y450000D02*
X608700Y450000D01*
X659500Y462700D02*
X660119Y462692D01*
X660737Y462670D01*
X661354Y462632D01*
X661970Y462580D01*
X662585Y462512D01*
X663198Y462429D01*
X663809Y462332D01*
X664417Y462219D01*
X665023Y462092D01*
X665625Y461950D01*
X666223Y461794D01*
X666818Y461623D01*
X667408Y461438D01*
X667993Y461238D01*
X668574Y461024D01*
X669149Y460796D01*
X669718Y460554D01*
X670281Y460298D01*
X670838Y460029D01*
X671388Y459746D01*
X671931Y459450D01*
X672467Y459141D01*
X672995Y458819D01*
X673515Y458484D01*
X674027Y458136D01*
X674530Y457776D01*
X675024Y457404D01*
X675509Y457020D01*
X675984Y456624D01*
X676450Y456217D01*
X676906Y455799D01*
X677351Y455370D01*
X677786Y454929D01*
X678209Y454479D01*
X678622Y454018D01*
X679024Y453548D01*
X679413Y453067D01*
X679792Y452578D01*
X680158Y452079D01*
X680511Y451572D01*
X680853Y451056D01*
X681181Y450532D01*
X681497Y450000D01*
X681800Y449461D01*
X682089Y448914D01*
X682365Y448360D01*
X682628Y447800D01*
X682877Y447234D01*
X683112Y446662D01*
X683333Y446084D01*
X683540Y445501D01*
X683732Y444913D01*
X683910Y444321D01*
X684074Y443725D01*
X684223Y443124D01*
X684358Y442520D01*
X684477Y441914D01*
X684582Y441304D01*
X684672Y440692D01*
X684748Y440078D01*
X684808Y439462D01*
X684853Y438845D01*
X684883Y438228D01*
X684898Y437609D01*
X684898Y436991D01*
X684883Y436372D01*
X684853Y435755D01*
X684808Y435138D01*
X684748Y434522D01*
X684672Y433908D01*
X684582Y433296D01*
X684477Y432686D01*
X684358Y432080D01*
X684223Y431476D01*
X684074Y430875D01*
X683910Y430279D01*
X683732Y429687D01*
X683540Y429099D01*
X683333Y428516D01*
X683112Y427938D01*
X682877Y427366D01*
X682628Y426800D01*
X682365Y426240D01*
X682089Y425686D01*
X681800Y425139D01*
X681497Y424600D01*
X681181Y424068D01*
X680853Y423544D01*
X680511Y423028D01*
X680158Y422521D01*
X679792Y422022D01*
X679413Y421533D01*
X679024Y421052D01*
X678622Y420582D01*
X678209Y420121D01*
X677786Y419671D01*
X677351Y419230D01*
X676906Y418801D01*
X676450Y418383D01*
X675984Y417976D01*
X675509Y417580D01*
X675024Y417196D01*
X674530Y416824D01*
X674027Y416464D01*
X673515Y416116D01*
X672995Y415781D01*
X672467Y415459D01*
X671931Y415150D01*
X671388Y414854D01*
X670838Y414571D01*
X670281Y414302D01*
X669718Y414046D01*
X669149Y413804D01*
X668574Y413576D01*
X667993Y413362D01*
X667408Y413162D01*
X666818Y412977D01*
X666223Y412806D01*
X665625Y412650D01*
X665023Y412508D01*
X664417Y412381D01*
X663809Y412268D01*
X663198Y412171D01*
X662585Y412088D01*
X661970Y412020D01*
X661354Y411968D01*
X660737Y411930D01*
X660119Y411908D01*
X659500Y411900D01*
X616320Y411900D02*
X616320Y462700D01*
D11*
X498981Y426632D02*
X498981Y414948D01*
X504173Y414948D01*
X508887Y414948D02*
X514079Y414948D01*
X508887Y414948D02*
X508887Y426632D01*
X514079Y426632D01*
X512781Y421439D02*
X508887Y421439D01*
X518770Y426632D02*
X518770Y414948D01*
X518770Y426632D02*
X522015Y426632D01*
X522128Y426630D01*
X522241Y426624D01*
X522354Y426614D01*
X522467Y426600D01*
X522579Y426583D01*
X522690Y426561D01*
X522800Y426536D01*
X522910Y426506D01*
X523018Y426473D01*
X523125Y426436D01*
X523231Y426396D01*
X523335Y426351D01*
X523438Y426303D01*
X523539Y426252D01*
X523638Y426197D01*
X523735Y426139D01*
X523830Y426077D01*
X523923Y426012D01*
X524013Y425944D01*
X524101Y425873D01*
X524187Y425798D01*
X524270Y425721D01*
X524350Y425641D01*
X524427Y425558D01*
X524502Y425472D01*
X524573Y425384D01*
X524641Y425294D01*
X524706Y425201D01*
X524768Y425106D01*
X524826Y425009D01*
X524881Y424910D01*
X524932Y424809D01*
X524980Y424706D01*
X525025Y424602D01*
X525065Y424496D01*
X525102Y424389D01*
X525135Y424281D01*
X525165Y424171D01*
X525190Y424061D01*
X525212Y423950D01*
X525229Y423838D01*
X525243Y423725D01*
X525253Y423612D01*
X525259Y423499D01*
X525261Y423386D01*
X525261Y418194D01*
X525262Y418194D02*
X525260Y418081D01*
X525254Y417968D01*
X525244Y417855D01*
X525230Y417742D01*
X525213Y417630D01*
X525191Y417519D01*
X525166Y417409D01*
X525136Y417299D01*
X525103Y417191D01*
X525066Y417084D01*
X525026Y416978D01*
X524981Y416874D01*
X524933Y416771D01*
X524882Y416670D01*
X524827Y416571D01*
X524769Y416474D01*
X524707Y416379D01*
X524642Y416286D01*
X524574Y416196D01*
X524503Y416108D01*
X524428Y416022D01*
X524351Y415939D01*
X524271Y415859D01*
X524188Y415782D01*
X524102Y415707D01*
X524014Y415636D01*
X523924Y415568D01*
X523831Y415503D01*
X523736Y415441D01*
X523639Y415383D01*
X523540Y415328D01*
X523439Y415277D01*
X523336Y415229D01*
X523232Y415184D01*
X523126Y415144D01*
X523019Y415107D01*
X522911Y415074D01*
X522801Y415044D01*
X522691Y415019D01*
X522580Y414997D01*
X522468Y414980D01*
X522355Y414966D01*
X522242Y414956D01*
X522129Y414950D01*
X522016Y414948D01*
X522015Y414948D02*
X518770Y414948D01*
X530581Y425334D02*
X530581Y426632D01*
X537072Y426632D01*
X533826Y414948D01*
D10*
X-4180Y309460D02*
X-4180Y304380D01*
X-6720Y306920D02*
X-1640Y306920D01*
D12*
X-19420Y312000D02*
X-62600Y312000D01*
X-19420Y312000D02*
X-11800Y312000D01*
X-11800Y299300D01*
X-11800Y273900D01*
X-11800Y261200D01*
X-19420Y261200D01*
X-62600Y261200D01*
X-11800Y299300D02*
X13600Y299300D01*
X13600Y273900D02*
X-11800Y273900D01*
X-62600Y261200D02*
X-63219Y261208D01*
X-63837Y261230D01*
X-64454Y261268D01*
X-65070Y261320D01*
X-65685Y261388D01*
X-66298Y261471D01*
X-66909Y261568D01*
X-67517Y261681D01*
X-68123Y261808D01*
X-68725Y261950D01*
X-69323Y262106D01*
X-69918Y262277D01*
X-70508Y262462D01*
X-71093Y262662D01*
X-71674Y262876D01*
X-72249Y263104D01*
X-72818Y263346D01*
X-73381Y263602D01*
X-73938Y263871D01*
X-74488Y264154D01*
X-75031Y264450D01*
X-75567Y264759D01*
X-76095Y265081D01*
X-76615Y265416D01*
X-77127Y265764D01*
X-77630Y266124D01*
X-78124Y266496D01*
X-78609Y266880D01*
X-79084Y267276D01*
X-79550Y267683D01*
X-80006Y268101D01*
X-80451Y268530D01*
X-80886Y268971D01*
X-81309Y269421D01*
X-81722Y269882D01*
X-82124Y270352D01*
X-82513Y270833D01*
X-82892Y271322D01*
X-83258Y271821D01*
X-83611Y272328D01*
X-83953Y272844D01*
X-84281Y273368D01*
X-84597Y273900D01*
X-84900Y274439D01*
X-85189Y274986D01*
X-85465Y275540D01*
X-85728Y276100D01*
X-85977Y276666D01*
X-86212Y277238D01*
X-86433Y277816D01*
X-86640Y278399D01*
X-86832Y278987D01*
X-87010Y279579D01*
X-87174Y280175D01*
X-87323Y280776D01*
X-87458Y281380D01*
X-87577Y281986D01*
X-87682Y282596D01*
X-87772Y283208D01*
X-87848Y283822D01*
X-87908Y284438D01*
X-87953Y285055D01*
X-87983Y285672D01*
X-87998Y286291D01*
X-87998Y286909D01*
X-87983Y287528D01*
X-87953Y288145D01*
X-87908Y288762D01*
X-87848Y289378D01*
X-87772Y289992D01*
X-87682Y290604D01*
X-87577Y291214D01*
X-87458Y291820D01*
X-87323Y292424D01*
X-87174Y293025D01*
X-87010Y293621D01*
X-86832Y294213D01*
X-86640Y294801D01*
X-86433Y295384D01*
X-86212Y295962D01*
X-85977Y296534D01*
X-85728Y297100D01*
X-85465Y297660D01*
X-85189Y298214D01*
X-84900Y298761D01*
X-84597Y299300D01*
X-84281Y299832D01*
X-83953Y300356D01*
X-83611Y300872D01*
X-83258Y301379D01*
X-82892Y301878D01*
X-82513Y302367D01*
X-82124Y302848D01*
X-81722Y303318D01*
X-81309Y303779D01*
X-80886Y304229D01*
X-80451Y304670D01*
X-80006Y305099D01*
X-79550Y305517D01*
X-79084Y305924D01*
X-78609Y306320D01*
X-78124Y306704D01*
X-77630Y307076D01*
X-77127Y307436D01*
X-76615Y307784D01*
X-76095Y308119D01*
X-75567Y308441D01*
X-75031Y308750D01*
X-74488Y309046D01*
X-73938Y309329D01*
X-73381Y309598D01*
X-72818Y309854D01*
X-72249Y310096D01*
X-71674Y310324D01*
X-71093Y310538D01*
X-70508Y310738D01*
X-69918Y310923D01*
X-69323Y311094D01*
X-68725Y311250D01*
X-68123Y311392D01*
X-67517Y311519D01*
X-66909Y311632D01*
X-66298Y311729D01*
X-65685Y311812D01*
X-65070Y311880D01*
X-64454Y311932D01*
X-63837Y311970D01*
X-63219Y311992D01*
X-62600Y312000D01*
X-19420Y312000D02*
X-19420Y261200D01*
D11*
X59828Y297268D02*
X59828Y308952D01*
X59828Y297268D02*
X65021Y297268D01*
X69734Y297268D02*
X74927Y297268D01*
X69734Y297268D02*
X69734Y308952D01*
X74927Y308952D01*
X73629Y303759D02*
X69734Y303759D01*
X79617Y308952D02*
X79617Y297268D01*
X79617Y308952D02*
X82863Y308952D01*
X82976Y308950D01*
X83089Y308944D01*
X83202Y308934D01*
X83315Y308920D01*
X83427Y308903D01*
X83538Y308881D01*
X83648Y308856D01*
X83758Y308826D01*
X83866Y308793D01*
X83973Y308756D01*
X84079Y308716D01*
X84183Y308671D01*
X84286Y308623D01*
X84387Y308572D01*
X84486Y308517D01*
X84583Y308459D01*
X84678Y308397D01*
X84771Y308332D01*
X84861Y308264D01*
X84949Y308193D01*
X85035Y308118D01*
X85118Y308041D01*
X85198Y307961D01*
X85275Y307878D01*
X85350Y307792D01*
X85421Y307704D01*
X85489Y307614D01*
X85554Y307521D01*
X85616Y307426D01*
X85674Y307329D01*
X85729Y307230D01*
X85780Y307129D01*
X85828Y307026D01*
X85873Y306922D01*
X85913Y306816D01*
X85950Y306709D01*
X85983Y306601D01*
X86013Y306491D01*
X86038Y306381D01*
X86060Y306270D01*
X86077Y306158D01*
X86091Y306045D01*
X86101Y305932D01*
X86107Y305819D01*
X86109Y305706D01*
X86109Y300514D01*
X86107Y300401D01*
X86101Y300288D01*
X86091Y300175D01*
X86077Y300062D01*
X86060Y299950D01*
X86038Y299839D01*
X86013Y299729D01*
X85983Y299619D01*
X85950Y299511D01*
X85913Y299404D01*
X85873Y299298D01*
X85828Y299194D01*
X85780Y299091D01*
X85729Y298990D01*
X85674Y298891D01*
X85616Y298794D01*
X85554Y298699D01*
X85489Y298606D01*
X85421Y298516D01*
X85350Y298428D01*
X85275Y298342D01*
X85198Y298259D01*
X85118Y298179D01*
X85035Y298102D01*
X84949Y298027D01*
X84861Y297956D01*
X84771Y297888D01*
X84678Y297823D01*
X84583Y297761D01*
X84486Y297703D01*
X84387Y297648D01*
X84286Y297597D01*
X84183Y297549D01*
X84079Y297504D01*
X83973Y297464D01*
X83866Y297427D01*
X83758Y297394D01*
X83648Y297364D01*
X83538Y297339D01*
X83427Y297317D01*
X83315Y297300D01*
X83202Y297286D01*
X83089Y297276D01*
X82976Y297270D01*
X82863Y297268D01*
X79617Y297268D01*
X91428Y300514D02*
X91430Y300627D01*
X91436Y300740D01*
X91446Y300853D01*
X91460Y300966D01*
X91477Y301078D01*
X91499Y301189D01*
X91524Y301299D01*
X91554Y301409D01*
X91587Y301517D01*
X91624Y301624D01*
X91664Y301730D01*
X91709Y301834D01*
X91757Y301937D01*
X91808Y302038D01*
X91863Y302137D01*
X91921Y302234D01*
X91983Y302329D01*
X92048Y302422D01*
X92116Y302512D01*
X92187Y302600D01*
X92262Y302686D01*
X92339Y302769D01*
X92419Y302849D01*
X92502Y302926D01*
X92588Y303001D01*
X92676Y303072D01*
X92766Y303140D01*
X92859Y303205D01*
X92954Y303267D01*
X93051Y303325D01*
X93150Y303380D01*
X93251Y303431D01*
X93354Y303479D01*
X93458Y303524D01*
X93564Y303564D01*
X93671Y303601D01*
X93779Y303634D01*
X93889Y303664D01*
X93999Y303689D01*
X94110Y303711D01*
X94222Y303728D01*
X94335Y303742D01*
X94448Y303752D01*
X94561Y303758D01*
X94674Y303760D01*
X94787Y303758D01*
X94900Y303752D01*
X95013Y303742D01*
X95126Y303728D01*
X95238Y303711D01*
X95349Y303689D01*
X95459Y303664D01*
X95569Y303634D01*
X95677Y303601D01*
X95784Y303564D01*
X95890Y303524D01*
X95994Y303479D01*
X96097Y303431D01*
X96198Y303380D01*
X96297Y303325D01*
X96394Y303267D01*
X96489Y303205D01*
X96582Y303140D01*
X96672Y303072D01*
X96760Y303001D01*
X96846Y302926D01*
X96929Y302849D01*
X97009Y302769D01*
X97086Y302686D01*
X97161Y302600D01*
X97232Y302512D01*
X97300Y302422D01*
X97365Y302329D01*
X97427Y302234D01*
X97485Y302137D01*
X97540Y302038D01*
X97591Y301937D01*
X97639Y301834D01*
X97684Y301730D01*
X97724Y301624D01*
X97761Y301517D01*
X97794Y301409D01*
X97824Y301299D01*
X97849Y301189D01*
X97871Y301078D01*
X97888Y300966D01*
X97902Y300853D01*
X97912Y300740D01*
X97918Y300627D01*
X97920Y300514D01*
X97918Y300401D01*
X97912Y300288D01*
X97902Y300175D01*
X97888Y300062D01*
X97871Y299950D01*
X97849Y299839D01*
X97824Y299729D01*
X97794Y299619D01*
X97761Y299511D01*
X97724Y299404D01*
X97684Y299298D01*
X97639Y299194D01*
X97591Y299091D01*
X97540Y298990D01*
X97485Y298891D01*
X97427Y298794D01*
X97365Y298699D01*
X97300Y298606D01*
X97232Y298516D01*
X97161Y298428D01*
X97086Y298342D01*
X97009Y298259D01*
X96929Y298179D01*
X96846Y298102D01*
X96760Y298027D01*
X96672Y297956D01*
X96582Y297888D01*
X96489Y297823D01*
X96394Y297761D01*
X96297Y297703D01*
X96198Y297648D01*
X96097Y297597D01*
X95994Y297549D01*
X95890Y297504D01*
X95784Y297464D01*
X95677Y297427D01*
X95569Y297394D01*
X95459Y297364D01*
X95349Y297339D01*
X95238Y297317D01*
X95126Y297300D01*
X95013Y297286D01*
X94900Y297276D01*
X94787Y297270D01*
X94674Y297268D01*
X94561Y297270D01*
X94448Y297276D01*
X94335Y297286D01*
X94222Y297300D01*
X94110Y297317D01*
X93999Y297339D01*
X93889Y297364D01*
X93779Y297394D01*
X93671Y297427D01*
X93564Y297464D01*
X93458Y297504D01*
X93354Y297549D01*
X93251Y297597D01*
X93150Y297648D01*
X93051Y297703D01*
X92954Y297761D01*
X92859Y297823D01*
X92766Y297888D01*
X92676Y297956D01*
X92588Y298027D01*
X92502Y298102D01*
X92419Y298179D01*
X92339Y298259D01*
X92262Y298342D01*
X92187Y298428D01*
X92116Y298516D01*
X92048Y298606D01*
X91983Y298699D01*
X91921Y298794D01*
X91863Y298891D01*
X91808Y298990D01*
X91757Y299091D01*
X91709Y299194D01*
X91664Y299298D01*
X91624Y299404D01*
X91587Y299511D01*
X91554Y299619D01*
X91524Y299729D01*
X91499Y299839D01*
X91477Y299950D01*
X91460Y300062D01*
X91446Y300175D01*
X91436Y300288D01*
X91430Y300401D01*
X91428Y300514D01*
X92078Y306356D02*
X92080Y306457D01*
X92086Y306557D01*
X92096Y306657D01*
X92109Y306757D01*
X92127Y306856D01*
X92148Y306955D01*
X92173Y307052D01*
X92202Y307149D01*
X92235Y307244D01*
X92271Y307338D01*
X92311Y307430D01*
X92354Y307521D01*
X92401Y307610D01*
X92451Y307697D01*
X92505Y307783D01*
X92562Y307866D01*
X92622Y307946D01*
X92685Y308025D01*
X92752Y308101D01*
X92821Y308174D01*
X92893Y308244D01*
X92967Y308312D01*
X93044Y308377D01*
X93124Y308438D01*
X93206Y308497D01*
X93290Y308552D01*
X93376Y308604D01*
X93464Y308653D01*
X93554Y308698D01*
X93646Y308740D01*
X93739Y308778D01*
X93834Y308812D01*
X93929Y308843D01*
X94026Y308870D01*
X94124Y308893D01*
X94223Y308913D01*
X94323Y308928D01*
X94423Y308940D01*
X94523Y308948D01*
X94624Y308952D01*
X94724Y308952D01*
X94825Y308948D01*
X94925Y308940D01*
X95025Y308928D01*
X95125Y308913D01*
X95224Y308893D01*
X95322Y308870D01*
X95419Y308843D01*
X95514Y308812D01*
X95609Y308778D01*
X95702Y308740D01*
X95794Y308698D01*
X95884Y308653D01*
X95972Y308604D01*
X96058Y308552D01*
X96142Y308497D01*
X96224Y308438D01*
X96304Y308377D01*
X96381Y308312D01*
X96455Y308244D01*
X96527Y308174D01*
X96596Y308101D01*
X96663Y308025D01*
X96726Y307946D01*
X96786Y307866D01*
X96843Y307783D01*
X96897Y307697D01*
X96947Y307610D01*
X96994Y307521D01*
X97037Y307430D01*
X97077Y307338D01*
X97113Y307244D01*
X97146Y307149D01*
X97175Y307052D01*
X97200Y306955D01*
X97221Y306856D01*
X97239Y306757D01*
X97252Y306657D01*
X97262Y306557D01*
X97268Y306457D01*
X97270Y306356D01*
X97268Y306255D01*
X97262Y306155D01*
X97252Y306055D01*
X97239Y305955D01*
X97221Y305856D01*
X97200Y305757D01*
X97175Y305660D01*
X97146Y305563D01*
X97113Y305468D01*
X97077Y305374D01*
X97037Y305282D01*
X96994Y305191D01*
X96947Y305102D01*
X96897Y305015D01*
X96843Y304929D01*
X96786Y304846D01*
X96726Y304766D01*
X96663Y304687D01*
X96596Y304611D01*
X96527Y304538D01*
X96455Y304468D01*
X96381Y304400D01*
X96304Y304335D01*
X96224Y304274D01*
X96142Y304215D01*
X96058Y304160D01*
X95972Y304108D01*
X95884Y304059D01*
X95794Y304014D01*
X95702Y303972D01*
X95609Y303934D01*
X95514Y303900D01*
X95419Y303869D01*
X95322Y303842D01*
X95224Y303819D01*
X95125Y303799D01*
X95025Y303784D01*
X94925Y303772D01*
X94825Y303764D01*
X94724Y303760D01*
X94624Y303760D01*
X94523Y303764D01*
X94423Y303772D01*
X94323Y303784D01*
X94223Y303799D01*
X94124Y303819D01*
X94026Y303842D01*
X93929Y303869D01*
X93834Y303900D01*
X93739Y303934D01*
X93646Y303972D01*
X93554Y304014D01*
X93464Y304059D01*
X93376Y304108D01*
X93290Y304160D01*
X93206Y304215D01*
X93124Y304274D01*
X93044Y304335D01*
X92967Y304400D01*
X92893Y304468D01*
X92821Y304538D01*
X92752Y304611D01*
X92685Y304687D01*
X92622Y304766D01*
X92562Y304846D01*
X92505Y304929D01*
X92451Y305015D01*
X92401Y305102D01*
X92354Y305191D01*
X92311Y305282D01*
X92271Y305374D01*
X92235Y305468D01*
X92202Y305563D01*
X92173Y305660D01*
X92148Y305757D01*
X92127Y305856D01*
X92109Y305955D01*
X92096Y306055D01*
X92086Y306155D01*
X92080Y306255D01*
X92078Y306356D01*
D10*
X537580Y985940D02*
X537580Y991020D01*
X540120Y988480D02*
X535040Y988480D01*
D12*
X552820Y983400D02*
X596000Y983400D01*
X552820Y983400D02*
X545200Y983400D01*
X545200Y996100D01*
X545200Y1021500D01*
X545200Y1034200D01*
X552820Y1034200D01*
X596000Y1034200D01*
X545200Y996100D02*
X519800Y996100D01*
X519800Y1021500D02*
X545200Y1021500D01*
X596000Y1034200D02*
X596619Y1034192D01*
X597237Y1034170D01*
X597854Y1034132D01*
X598470Y1034080D01*
X599085Y1034012D01*
X599698Y1033929D01*
X600309Y1033832D01*
X600917Y1033719D01*
X601523Y1033592D01*
X602125Y1033450D01*
X602723Y1033294D01*
X603318Y1033123D01*
X603908Y1032938D01*
X604493Y1032738D01*
X605074Y1032524D01*
X605649Y1032296D01*
X606218Y1032054D01*
X606781Y1031798D01*
X607338Y1031529D01*
X607888Y1031246D01*
X608431Y1030950D01*
X608967Y1030641D01*
X609495Y1030319D01*
X610015Y1029984D01*
X610527Y1029636D01*
X611030Y1029276D01*
X611524Y1028904D01*
X612009Y1028520D01*
X612484Y1028124D01*
X612950Y1027717D01*
X613406Y1027299D01*
X613851Y1026870D01*
X614286Y1026429D01*
X614709Y1025979D01*
X615122Y1025518D01*
X615524Y1025048D01*
X615913Y1024567D01*
X616292Y1024078D01*
X616658Y1023579D01*
X617011Y1023072D01*
X617353Y1022556D01*
X617681Y1022032D01*
X617997Y1021500D01*
X618300Y1020961D01*
X618589Y1020414D01*
X618865Y1019860D01*
X619128Y1019300D01*
X619377Y1018734D01*
X619612Y1018162D01*
X619833Y1017584D01*
X620040Y1017001D01*
X620232Y1016413D01*
X620410Y1015821D01*
X620574Y1015225D01*
X620723Y1014624D01*
X620858Y1014020D01*
X620977Y1013414D01*
X621082Y1012804D01*
X621172Y1012192D01*
X621248Y1011578D01*
X621308Y1010962D01*
X621353Y1010345D01*
X621383Y1009728D01*
X621398Y1009109D01*
X621398Y1008491D01*
X621383Y1007872D01*
X621353Y1007255D01*
X621308Y1006638D01*
X621248Y1006022D01*
X621172Y1005408D01*
X621082Y1004796D01*
X620977Y1004186D01*
X620858Y1003580D01*
X620723Y1002976D01*
X620574Y1002375D01*
X620410Y1001779D01*
X620232Y1001187D01*
X620040Y1000599D01*
X619833Y1000016D01*
X619612Y999438D01*
X619377Y998866D01*
X619128Y998300D01*
X618865Y997740D01*
X618589Y997186D01*
X618300Y996639D01*
X617997Y996100D01*
X617681Y995568D01*
X617353Y995044D01*
X617011Y994528D01*
X616658Y994021D01*
X616292Y993522D01*
X615913Y993033D01*
X615524Y992552D01*
X615122Y992082D01*
X614709Y991621D01*
X614286Y991171D01*
X613851Y990730D01*
X613406Y990301D01*
X612950Y989883D01*
X612484Y989476D01*
X612009Y989080D01*
X611524Y988696D01*
X611030Y988324D01*
X610527Y987964D01*
X610015Y987616D01*
X609495Y987281D01*
X608967Y986959D01*
X608431Y986650D01*
X607888Y986354D01*
X607338Y986071D01*
X606781Y985802D01*
X606218Y985546D01*
X605649Y985304D01*
X605074Y985076D01*
X604493Y984862D01*
X603908Y984662D01*
X603318Y984477D01*
X602723Y984306D01*
X602125Y984150D01*
X601523Y984008D01*
X600917Y983881D01*
X600309Y983768D01*
X599698Y983671D01*
X599085Y983588D01*
X598470Y983520D01*
X597854Y983468D01*
X597237Y983430D01*
X596619Y983408D01*
X596000Y983400D01*
X552820Y983400D02*
X552820Y1034200D01*
D11*
X435481Y998132D02*
X435481Y986448D01*
X440673Y986448D01*
X445387Y986448D02*
X450579Y986448D01*
X445387Y986448D02*
X445387Y998132D01*
X450579Y998132D01*
X449281Y992939D02*
X445387Y992939D01*
X455270Y998132D02*
X455270Y986448D01*
X455270Y998132D02*
X458515Y998132D01*
X458628Y998130D01*
X458741Y998124D01*
X458854Y998114D01*
X458967Y998100D01*
X459079Y998083D01*
X459190Y998061D01*
X459300Y998036D01*
X459410Y998006D01*
X459518Y997973D01*
X459625Y997936D01*
X459731Y997896D01*
X459835Y997851D01*
X459938Y997803D01*
X460039Y997752D01*
X460138Y997697D01*
X460235Y997639D01*
X460330Y997577D01*
X460423Y997512D01*
X460513Y997444D01*
X460601Y997373D01*
X460687Y997298D01*
X460770Y997221D01*
X460850Y997141D01*
X460927Y997058D01*
X461002Y996972D01*
X461073Y996884D01*
X461141Y996794D01*
X461206Y996701D01*
X461268Y996606D01*
X461326Y996509D01*
X461381Y996410D01*
X461432Y996309D01*
X461480Y996206D01*
X461525Y996102D01*
X461565Y995996D01*
X461602Y995889D01*
X461635Y995781D01*
X461665Y995671D01*
X461690Y995561D01*
X461712Y995450D01*
X461729Y995338D01*
X461743Y995225D01*
X461753Y995112D01*
X461759Y994999D01*
X461761Y994886D01*
X461761Y989694D01*
X461762Y989694D02*
X461760Y989581D01*
X461754Y989468D01*
X461744Y989355D01*
X461730Y989242D01*
X461713Y989130D01*
X461691Y989019D01*
X461666Y988909D01*
X461636Y988799D01*
X461603Y988691D01*
X461566Y988584D01*
X461526Y988478D01*
X461481Y988374D01*
X461433Y988271D01*
X461382Y988170D01*
X461327Y988071D01*
X461269Y987974D01*
X461207Y987879D01*
X461142Y987786D01*
X461074Y987696D01*
X461003Y987608D01*
X460928Y987522D01*
X460851Y987439D01*
X460771Y987359D01*
X460688Y987282D01*
X460602Y987207D01*
X460514Y987136D01*
X460424Y987068D01*
X460331Y987003D01*
X460236Y986941D01*
X460139Y986883D01*
X460040Y986828D01*
X459939Y986777D01*
X459836Y986729D01*
X459732Y986684D01*
X459626Y986644D01*
X459519Y986607D01*
X459411Y986574D01*
X459301Y986544D01*
X459191Y986519D01*
X459080Y986497D01*
X458968Y986480D01*
X458855Y986466D01*
X458742Y986456D01*
X458629Y986450D01*
X458516Y986448D01*
X458515Y986448D02*
X455270Y986448D01*
X469677Y991641D02*
X473572Y991641D01*
X469677Y991641D02*
X469578Y991643D01*
X469478Y991649D01*
X469379Y991658D01*
X469281Y991671D01*
X469183Y991688D01*
X469085Y991709D01*
X468989Y991734D01*
X468894Y991762D01*
X468800Y991794D01*
X468707Y991829D01*
X468615Y991868D01*
X468525Y991911D01*
X468437Y991956D01*
X468350Y992006D01*
X468266Y992058D01*
X468183Y992114D01*
X468103Y992172D01*
X468025Y992234D01*
X467950Y992299D01*
X467877Y992367D01*
X467807Y992437D01*
X467739Y992510D01*
X467674Y992585D01*
X467612Y992663D01*
X467554Y992743D01*
X467498Y992826D01*
X467446Y992910D01*
X467396Y992997D01*
X467351Y993085D01*
X467308Y993175D01*
X467269Y993267D01*
X467234Y993360D01*
X467202Y993454D01*
X467174Y993549D01*
X467149Y993645D01*
X467128Y993743D01*
X467111Y993841D01*
X467098Y993939D01*
X467089Y994038D01*
X467083Y994138D01*
X467081Y994237D01*
X467081Y994886D01*
X467080Y994886D02*
X467082Y994999D01*
X467088Y995112D01*
X467098Y995225D01*
X467112Y995338D01*
X467129Y995450D01*
X467151Y995561D01*
X467176Y995671D01*
X467206Y995781D01*
X467239Y995889D01*
X467276Y995996D01*
X467316Y996102D01*
X467361Y996206D01*
X467409Y996309D01*
X467460Y996410D01*
X467515Y996509D01*
X467573Y996606D01*
X467635Y996701D01*
X467700Y996794D01*
X467768Y996884D01*
X467839Y996972D01*
X467914Y997058D01*
X467991Y997141D01*
X468071Y997221D01*
X468154Y997298D01*
X468240Y997373D01*
X468328Y997444D01*
X468418Y997512D01*
X468511Y997577D01*
X468606Y997639D01*
X468703Y997697D01*
X468802Y997752D01*
X468903Y997803D01*
X469006Y997851D01*
X469110Y997896D01*
X469216Y997936D01*
X469323Y997973D01*
X469431Y998006D01*
X469541Y998036D01*
X469651Y998061D01*
X469762Y998083D01*
X469874Y998100D01*
X469987Y998114D01*
X470100Y998124D01*
X470213Y998130D01*
X470326Y998132D01*
X470439Y998130D01*
X470552Y998124D01*
X470665Y998114D01*
X470778Y998100D01*
X470890Y998083D01*
X471001Y998061D01*
X471111Y998036D01*
X471221Y998006D01*
X471329Y997973D01*
X471436Y997936D01*
X471542Y997896D01*
X471646Y997851D01*
X471749Y997803D01*
X471850Y997752D01*
X471949Y997697D01*
X472046Y997639D01*
X472141Y997577D01*
X472234Y997512D01*
X472324Y997444D01*
X472412Y997373D01*
X472498Y997298D01*
X472581Y997221D01*
X472661Y997141D01*
X472738Y997058D01*
X472813Y996972D01*
X472884Y996884D01*
X472952Y996794D01*
X473017Y996701D01*
X473079Y996606D01*
X473137Y996509D01*
X473192Y996410D01*
X473243Y996309D01*
X473291Y996206D01*
X473336Y996102D01*
X473376Y995996D01*
X473413Y995889D01*
X473446Y995781D01*
X473476Y995671D01*
X473501Y995561D01*
X473523Y995450D01*
X473540Y995338D01*
X473554Y995225D01*
X473564Y995112D01*
X473570Y994999D01*
X473572Y994886D01*
X473572Y991641D01*
X473570Y991498D01*
X473564Y991355D01*
X473554Y991212D01*
X473540Y991070D01*
X473523Y990928D01*
X473501Y990786D01*
X473476Y990645D01*
X473446Y990505D01*
X473413Y990366D01*
X473376Y990228D01*
X473335Y990091D01*
X473291Y989955D01*
X473242Y989820D01*
X473190Y989687D01*
X473135Y989555D01*
X473075Y989425D01*
X473012Y989296D01*
X472946Y989169D01*
X472876Y989045D01*
X472803Y988922D01*
X472726Y988801D01*
X472646Y988682D01*
X472563Y988566D01*
X472477Y988451D01*
X472388Y988340D01*
X472295Y988230D01*
X472200Y988124D01*
X472101Y988020D01*
X472000Y987919D01*
X471896Y987820D01*
X471790Y987725D01*
X471680Y987632D01*
X471569Y987543D01*
X471454Y987457D01*
X471338Y987374D01*
X471219Y987294D01*
X471098Y987217D01*
X470976Y987144D01*
X470851Y987074D01*
X470724Y987008D01*
X470595Y986945D01*
X470465Y986885D01*
X470333Y986830D01*
X470200Y986778D01*
X470065Y986729D01*
X469929Y986685D01*
X469792Y986644D01*
X469654Y986607D01*
X469515Y986574D01*
X469375Y986544D01*
X469234Y986519D01*
X469092Y986497D01*
X468950Y986480D01*
X468808Y986466D01*
X468665Y986456D01*
X468522Y986450D01*
X468379Y986448D01*
D10*
X394600Y1404200D02*
X369200Y1404200D01*
X394600Y1404200D02*
X394600Y1378800D01*
X369200Y1378800D01*
X369200Y1404200D01*
D11*
X378654Y1408518D02*
X378654Y1420202D01*
X381900Y1420202D01*
X382013Y1420200D01*
X382126Y1420194D01*
X382239Y1420184D01*
X382352Y1420170D01*
X382464Y1420153D01*
X382575Y1420131D01*
X382685Y1420106D01*
X382795Y1420076D01*
X382903Y1420043D01*
X383010Y1420006D01*
X383116Y1419966D01*
X383220Y1419921D01*
X383323Y1419873D01*
X383424Y1419822D01*
X383523Y1419767D01*
X383620Y1419709D01*
X383715Y1419647D01*
X383808Y1419582D01*
X383898Y1419514D01*
X383986Y1419443D01*
X384072Y1419368D01*
X384155Y1419291D01*
X384235Y1419211D01*
X384312Y1419128D01*
X384387Y1419042D01*
X384458Y1418954D01*
X384526Y1418864D01*
X384591Y1418771D01*
X384653Y1418676D01*
X384711Y1418579D01*
X384766Y1418480D01*
X384817Y1418379D01*
X384865Y1418276D01*
X384910Y1418172D01*
X384950Y1418066D01*
X384987Y1417959D01*
X385020Y1417851D01*
X385050Y1417741D01*
X385075Y1417631D01*
X385097Y1417520D01*
X385114Y1417408D01*
X385128Y1417295D01*
X385138Y1417182D01*
X385144Y1417069D01*
X385146Y1416956D01*
X385144Y1416843D01*
X385138Y1416730D01*
X385128Y1416617D01*
X385114Y1416504D01*
X385097Y1416392D01*
X385075Y1416281D01*
X385050Y1416171D01*
X385020Y1416061D01*
X384987Y1415953D01*
X384950Y1415846D01*
X384910Y1415740D01*
X384865Y1415636D01*
X384817Y1415533D01*
X384766Y1415432D01*
X384711Y1415333D01*
X384653Y1415236D01*
X384591Y1415141D01*
X384526Y1415048D01*
X384458Y1414958D01*
X384387Y1414870D01*
X384312Y1414784D01*
X384235Y1414701D01*
X384155Y1414621D01*
X384072Y1414544D01*
X383986Y1414469D01*
X383898Y1414398D01*
X383808Y1414330D01*
X383715Y1414265D01*
X383620Y1414203D01*
X383523Y1414145D01*
X383424Y1414090D01*
X383323Y1414039D01*
X383220Y1413991D01*
X383116Y1413946D01*
X383010Y1413906D01*
X382903Y1413869D01*
X382795Y1413836D01*
X382685Y1413806D01*
X382575Y1413781D01*
X382464Y1413759D01*
X382352Y1413742D01*
X382239Y1413728D01*
X382126Y1413718D01*
X382013Y1413712D01*
X381900Y1413710D01*
X381900Y1413711D02*
X378654Y1413711D01*
X382549Y1413711D02*
X385146Y1408518D01*
M02*
