G04 EAGLE Gerber RS-274X export*
G75*
%MOMM*%
%FSLAX34Y34*%
%LPD*%
%INSoldermask Bottom*%
%IPPOS*%
%AMOC8*
5,1,8,0,0,1.08239X$1,22.5*%
G01*
%ADD10R,2.743200X5.283200*%
%ADD11R,1.473200X0.703200*%
%ADD12C,2.003200*%
%ADD13C,1.803200*%
%ADD14C,0.480959*%


D10*
X624530Y36210D03*
X724530Y36210D03*
X224530Y45410D03*
X124530Y45410D03*
D11*
X409540Y700670D03*
X409540Y687970D03*
X409050Y620330D03*
X409050Y607630D03*
D12*
X470800Y1391500D03*
D13*
X150600Y622800D03*
X150600Y597400D03*
X254900Y934300D03*
X254900Y908900D03*
X646800Y665900D03*
X646800Y691300D03*
X305700Y756500D03*
X305700Y731100D03*
X608700Y894500D03*
X608700Y919900D03*
X519800Y1173900D03*
X519800Y1199300D03*
X356500Y1251800D03*
X356500Y1226400D03*
X570600Y424600D03*
X570600Y450000D03*
X26300Y299300D03*
X26300Y273900D03*
X507100Y996100D03*
X507100Y1021500D03*
D12*
X381900Y1391500D03*
D14*
X199111Y597589D02*
X187889Y597589D01*
X187889Y608811D01*
X199111Y608811D01*
X199111Y597589D01*
X199111Y602158D02*
X187889Y602158D01*
X187889Y606727D02*
X199111Y606727D01*
X208079Y597589D02*
X219301Y597589D01*
X208079Y597589D02*
X208079Y608811D01*
X219301Y608811D01*
X219301Y597589D01*
X219301Y602158D02*
X208079Y602158D01*
X208079Y606727D02*
X219301Y606727D01*
X284789Y899189D02*
X296011Y899189D01*
X284789Y899189D02*
X284789Y910411D01*
X296011Y910411D01*
X296011Y899189D01*
X296011Y903758D02*
X284789Y903758D01*
X284789Y908327D02*
X296011Y908327D01*
X304979Y899189D02*
X316201Y899189D01*
X304979Y899189D02*
X304979Y910411D01*
X316201Y910411D01*
X316201Y899189D01*
X316201Y903758D02*
X304979Y903758D01*
X304979Y908327D02*
X316201Y908327D01*
X605689Y701011D02*
X616911Y701011D01*
X616911Y689789D01*
X605689Y689789D01*
X605689Y701011D01*
X605689Y694358D02*
X616911Y694358D01*
X616911Y698927D02*
X605689Y698927D01*
X596721Y701011D02*
X585499Y701011D01*
X596721Y701011D02*
X596721Y689789D01*
X585499Y689789D01*
X585499Y701011D01*
X585499Y694358D02*
X596721Y694358D01*
X596721Y698927D02*
X585499Y698927D01*
X302289Y694589D02*
X302289Y705811D01*
X313511Y705811D01*
X313511Y694589D01*
X302289Y694589D01*
X302289Y699158D02*
X313511Y699158D01*
X313511Y703727D02*
X302289Y703727D01*
X302289Y685621D02*
X302289Y674399D01*
X302289Y685621D02*
X313511Y685621D01*
X313511Y674399D01*
X302289Y674399D01*
X302289Y678968D02*
X313511Y678968D01*
X313511Y683537D02*
X302289Y683537D01*
X567589Y916911D02*
X578811Y916911D01*
X578811Y905689D01*
X567589Y905689D01*
X567589Y916911D01*
X567589Y910258D02*
X578811Y910258D01*
X578811Y914827D02*
X567589Y914827D01*
X558621Y916911D02*
X547399Y916911D01*
X558621Y916911D02*
X558621Y905689D01*
X547399Y905689D01*
X547399Y916911D01*
X547399Y910258D02*
X558621Y910258D01*
X558621Y914827D02*
X547399Y914827D01*
X523211Y1224589D02*
X523211Y1235811D01*
X523211Y1224589D02*
X511989Y1224589D01*
X511989Y1235811D01*
X523211Y1235811D01*
X523211Y1229158D02*
X511989Y1229158D01*
X511989Y1233727D02*
X523211Y1233727D01*
X523211Y1244779D02*
X523211Y1256001D01*
X523211Y1244779D02*
X511989Y1244779D01*
X511989Y1256001D01*
X523211Y1256001D01*
X523211Y1249348D02*
X511989Y1249348D01*
X511989Y1253917D02*
X523211Y1253917D01*
X353089Y1188411D02*
X353089Y1177189D01*
X353089Y1188411D02*
X364311Y1188411D01*
X364311Y1177189D01*
X353089Y1177189D01*
X353089Y1181758D02*
X364311Y1181758D01*
X364311Y1186327D02*
X353089Y1186327D01*
X353089Y1168221D02*
X353089Y1156999D01*
X353089Y1168221D02*
X364311Y1168221D01*
X364311Y1156999D01*
X353089Y1156999D01*
X353089Y1161568D02*
X364311Y1161568D01*
X364311Y1166137D02*
X353089Y1166137D01*
X574011Y486511D02*
X574011Y475289D01*
X562789Y475289D01*
X562789Y486511D01*
X574011Y486511D01*
X574011Y479858D02*
X562789Y479858D01*
X562789Y484427D02*
X574011Y484427D01*
X574011Y495479D02*
X574011Y506701D01*
X574011Y495479D02*
X562789Y495479D01*
X562789Y506701D01*
X574011Y506701D01*
X574011Y500048D02*
X562789Y500048D01*
X562789Y504617D02*
X574011Y504617D01*
X67411Y264189D02*
X56189Y264189D01*
X56189Y275411D01*
X67411Y275411D01*
X67411Y264189D01*
X67411Y268758D02*
X56189Y268758D01*
X56189Y273327D02*
X67411Y273327D01*
X76379Y264189D02*
X87601Y264189D01*
X76379Y264189D02*
X76379Y275411D01*
X87601Y275411D01*
X87601Y264189D01*
X87601Y268758D02*
X76379Y268758D01*
X76379Y273327D02*
X87601Y273327D01*
X510511Y1046789D02*
X510511Y1058011D01*
X510511Y1046789D02*
X499289Y1046789D01*
X499289Y1058011D01*
X510511Y1058011D01*
X510511Y1051358D02*
X499289Y1051358D01*
X499289Y1055927D02*
X510511Y1055927D01*
X510511Y1066979D02*
X510511Y1078201D01*
X510511Y1066979D02*
X499289Y1066979D01*
X499289Y1078201D01*
X510511Y1078201D01*
X510511Y1071548D02*
X499289Y1071548D01*
X499289Y1076117D02*
X510511Y1076117D01*
D13*
X533400Y1125220D03*
X474980Y1125220D03*
X281940Y675640D03*
X281940Y947420D03*
X366130Y687970D03*
X365760Y782320D03*
X327660Y830580D03*
X391160Y830580D03*
X393700Y657860D03*
X276860Y627380D03*
X335280Y627380D03*
X393700Y797560D03*
X457200Y863600D03*
X457200Y1109980D03*
M02*
