G04 EAGLE Gerber RS-274X export*
G75*
%MOMM*%
%FSLAX34Y34*%
%LPD*%
%INSilkscreen Top*%
%IPPOS*%
%AMOC8*
5,1,8,0,0,1.08239X$1,22.5*%
G01*
%ADD10C,0.127000*%
%ADD11C,0.101600*%
%ADD12C,0.152400*%


D10*
X458100Y1404200D02*
X483500Y1404200D01*
X483500Y1378800D01*
X458100Y1378800D01*
X458100Y1404200D01*
D11*
X467554Y1415009D02*
X470800Y1415009D01*
X470800Y1415010D02*
X470913Y1415008D01*
X471026Y1415002D01*
X471139Y1414992D01*
X471252Y1414978D01*
X471364Y1414961D01*
X471475Y1414939D01*
X471585Y1414914D01*
X471695Y1414884D01*
X471803Y1414851D01*
X471910Y1414814D01*
X472016Y1414774D01*
X472120Y1414729D01*
X472223Y1414681D01*
X472324Y1414630D01*
X472423Y1414575D01*
X472520Y1414517D01*
X472615Y1414455D01*
X472708Y1414390D01*
X472798Y1414322D01*
X472886Y1414251D01*
X472972Y1414176D01*
X473055Y1414099D01*
X473135Y1414019D01*
X473212Y1413936D01*
X473287Y1413850D01*
X473358Y1413762D01*
X473426Y1413672D01*
X473491Y1413579D01*
X473553Y1413484D01*
X473611Y1413387D01*
X473666Y1413288D01*
X473717Y1413187D01*
X473765Y1413084D01*
X473810Y1412980D01*
X473850Y1412874D01*
X473887Y1412767D01*
X473920Y1412659D01*
X473950Y1412549D01*
X473975Y1412439D01*
X473997Y1412328D01*
X474014Y1412216D01*
X474028Y1412103D01*
X474038Y1411990D01*
X474044Y1411877D01*
X474046Y1411764D01*
X474044Y1411651D01*
X474038Y1411538D01*
X474028Y1411425D01*
X474014Y1411312D01*
X473997Y1411200D01*
X473975Y1411089D01*
X473950Y1410979D01*
X473920Y1410869D01*
X473887Y1410761D01*
X473850Y1410654D01*
X473810Y1410548D01*
X473765Y1410444D01*
X473717Y1410341D01*
X473666Y1410240D01*
X473611Y1410141D01*
X473553Y1410044D01*
X473491Y1409949D01*
X473426Y1409856D01*
X473358Y1409766D01*
X473287Y1409678D01*
X473212Y1409592D01*
X473135Y1409509D01*
X473055Y1409429D01*
X472972Y1409352D01*
X472886Y1409277D01*
X472798Y1409206D01*
X472708Y1409138D01*
X472615Y1409073D01*
X472520Y1409011D01*
X472423Y1408953D01*
X472324Y1408898D01*
X472223Y1408847D01*
X472120Y1408799D01*
X472016Y1408754D01*
X471910Y1408714D01*
X471803Y1408677D01*
X471695Y1408644D01*
X471585Y1408614D01*
X471475Y1408589D01*
X471364Y1408567D01*
X471252Y1408550D01*
X471139Y1408536D01*
X471026Y1408526D01*
X470913Y1408520D01*
X470800Y1408518D01*
X467554Y1408518D01*
X467554Y1420202D01*
X470800Y1420202D01*
X470901Y1420200D01*
X471001Y1420194D01*
X471101Y1420184D01*
X471201Y1420171D01*
X471300Y1420153D01*
X471399Y1420132D01*
X471496Y1420107D01*
X471593Y1420078D01*
X471688Y1420045D01*
X471782Y1420009D01*
X471874Y1419969D01*
X471965Y1419926D01*
X472054Y1419879D01*
X472141Y1419829D01*
X472227Y1419775D01*
X472310Y1419718D01*
X472390Y1419658D01*
X472469Y1419595D01*
X472545Y1419528D01*
X472618Y1419459D01*
X472688Y1419387D01*
X472756Y1419313D01*
X472821Y1419236D01*
X472882Y1419156D01*
X472941Y1419074D01*
X472996Y1418990D01*
X473048Y1418904D01*
X473097Y1418816D01*
X473142Y1418726D01*
X473184Y1418634D01*
X473222Y1418541D01*
X473256Y1418446D01*
X473287Y1418351D01*
X473314Y1418254D01*
X473337Y1418156D01*
X473357Y1418057D01*
X473372Y1417957D01*
X473384Y1417857D01*
X473392Y1417757D01*
X473396Y1417656D01*
X473396Y1417556D01*
X473392Y1417455D01*
X473384Y1417355D01*
X473372Y1417255D01*
X473357Y1417155D01*
X473337Y1417056D01*
X473314Y1416958D01*
X473287Y1416861D01*
X473256Y1416766D01*
X473222Y1416671D01*
X473184Y1416578D01*
X473142Y1416486D01*
X473097Y1416396D01*
X473048Y1416308D01*
X472996Y1416222D01*
X472941Y1416138D01*
X472882Y1416056D01*
X472821Y1415976D01*
X472756Y1415899D01*
X472688Y1415825D01*
X472618Y1415753D01*
X472545Y1415684D01*
X472469Y1415617D01*
X472390Y1415554D01*
X472310Y1415494D01*
X472227Y1415437D01*
X472141Y1415383D01*
X472054Y1415333D01*
X471965Y1415286D01*
X471874Y1415243D01*
X471782Y1415203D01*
X471688Y1415167D01*
X471593Y1415134D01*
X471496Y1415105D01*
X471399Y1415080D01*
X471300Y1415059D01*
X471201Y1415041D01*
X471101Y1415028D01*
X471001Y1415018D01*
X470901Y1415012D01*
X470800Y1415010D01*
D10*
X256120Y464960D02*
X256120Y459880D01*
X253580Y462420D02*
X258660Y462420D01*
D12*
X240880Y467500D02*
X197700Y467500D01*
X240880Y467500D02*
X248500Y467500D01*
X248500Y454800D01*
X248500Y429400D01*
X248500Y416700D01*
X240880Y416700D01*
X197700Y416700D01*
X248500Y454800D02*
X273900Y454800D01*
X273900Y429400D02*
X248500Y429400D01*
X197700Y416700D02*
X197081Y416708D01*
X196463Y416730D01*
X195846Y416768D01*
X195230Y416820D01*
X194615Y416888D01*
X194002Y416971D01*
X193391Y417068D01*
X192783Y417181D01*
X192177Y417308D01*
X191575Y417450D01*
X190977Y417606D01*
X190382Y417777D01*
X189792Y417962D01*
X189207Y418162D01*
X188626Y418376D01*
X188051Y418604D01*
X187482Y418846D01*
X186919Y419102D01*
X186362Y419371D01*
X185812Y419654D01*
X185269Y419950D01*
X184733Y420259D01*
X184205Y420581D01*
X183685Y420916D01*
X183173Y421264D01*
X182670Y421624D01*
X182176Y421996D01*
X181691Y422380D01*
X181216Y422776D01*
X180750Y423183D01*
X180294Y423601D01*
X179849Y424030D01*
X179414Y424471D01*
X178991Y424921D01*
X178578Y425382D01*
X178176Y425852D01*
X177787Y426333D01*
X177408Y426822D01*
X177042Y427321D01*
X176689Y427828D01*
X176347Y428344D01*
X176019Y428868D01*
X175703Y429400D01*
X175400Y429939D01*
X175111Y430486D01*
X174835Y431040D01*
X174572Y431600D01*
X174323Y432166D01*
X174088Y432738D01*
X173867Y433316D01*
X173660Y433899D01*
X173468Y434487D01*
X173290Y435079D01*
X173126Y435675D01*
X172977Y436276D01*
X172842Y436880D01*
X172723Y437486D01*
X172618Y438096D01*
X172528Y438708D01*
X172452Y439322D01*
X172392Y439938D01*
X172347Y440555D01*
X172317Y441172D01*
X172302Y441791D01*
X172302Y442409D01*
X172317Y443028D01*
X172347Y443645D01*
X172392Y444262D01*
X172452Y444878D01*
X172528Y445492D01*
X172618Y446104D01*
X172723Y446714D01*
X172842Y447320D01*
X172977Y447924D01*
X173126Y448525D01*
X173290Y449121D01*
X173468Y449713D01*
X173660Y450301D01*
X173867Y450884D01*
X174088Y451462D01*
X174323Y452034D01*
X174572Y452600D01*
X174835Y453160D01*
X175111Y453714D01*
X175400Y454261D01*
X175703Y454800D01*
X176019Y455332D01*
X176347Y455856D01*
X176689Y456372D01*
X177042Y456879D01*
X177408Y457378D01*
X177787Y457867D01*
X178176Y458348D01*
X178578Y458818D01*
X178991Y459279D01*
X179414Y459729D01*
X179849Y460170D01*
X180294Y460599D01*
X180750Y461017D01*
X181216Y461424D01*
X181691Y461820D01*
X182176Y462204D01*
X182670Y462576D01*
X183173Y462936D01*
X183685Y463284D01*
X184205Y463619D01*
X184733Y463941D01*
X185269Y464250D01*
X185812Y464546D01*
X186362Y464829D01*
X186919Y465098D01*
X187482Y465354D01*
X188051Y465596D01*
X188626Y465824D01*
X189207Y466038D01*
X189792Y466238D01*
X190382Y466423D01*
X190977Y466594D01*
X191575Y466750D01*
X192177Y466892D01*
X192783Y467019D01*
X193391Y467132D01*
X194002Y467229D01*
X194615Y467312D01*
X195230Y467380D01*
X195846Y467432D01*
X196463Y467470D01*
X197081Y467492D01*
X197700Y467500D01*
X240880Y467500D02*
X240880Y416700D01*
D11*
X320128Y452768D02*
X320128Y464452D01*
X320128Y452768D02*
X325321Y452768D01*
X330034Y452768D02*
X335227Y452768D01*
X330034Y452768D02*
X330034Y464452D01*
X335227Y464452D01*
X333929Y459259D02*
X330034Y459259D01*
X339917Y464452D02*
X339917Y452768D01*
X339917Y464452D02*
X343163Y464452D01*
X343276Y464450D01*
X343389Y464444D01*
X343502Y464434D01*
X343615Y464420D01*
X343727Y464403D01*
X343838Y464381D01*
X343948Y464356D01*
X344058Y464326D01*
X344166Y464293D01*
X344273Y464256D01*
X344379Y464216D01*
X344483Y464171D01*
X344586Y464123D01*
X344687Y464072D01*
X344786Y464017D01*
X344883Y463959D01*
X344978Y463897D01*
X345071Y463832D01*
X345161Y463764D01*
X345249Y463693D01*
X345335Y463618D01*
X345418Y463541D01*
X345498Y463461D01*
X345575Y463378D01*
X345650Y463292D01*
X345721Y463204D01*
X345789Y463114D01*
X345854Y463021D01*
X345916Y462926D01*
X345974Y462829D01*
X346029Y462730D01*
X346080Y462629D01*
X346128Y462526D01*
X346173Y462422D01*
X346213Y462316D01*
X346250Y462209D01*
X346283Y462101D01*
X346313Y461991D01*
X346338Y461881D01*
X346360Y461770D01*
X346377Y461658D01*
X346391Y461545D01*
X346401Y461432D01*
X346407Y461319D01*
X346409Y461206D01*
X346409Y456014D01*
X346407Y455901D01*
X346401Y455788D01*
X346391Y455675D01*
X346377Y455562D01*
X346360Y455450D01*
X346338Y455339D01*
X346313Y455229D01*
X346283Y455119D01*
X346250Y455011D01*
X346213Y454904D01*
X346173Y454798D01*
X346128Y454694D01*
X346080Y454591D01*
X346029Y454490D01*
X345974Y454391D01*
X345916Y454294D01*
X345854Y454199D01*
X345789Y454106D01*
X345721Y454016D01*
X345650Y453928D01*
X345575Y453842D01*
X345498Y453759D01*
X345418Y453679D01*
X345335Y453602D01*
X345249Y453527D01*
X345161Y453456D01*
X345071Y453388D01*
X344978Y453323D01*
X344883Y453261D01*
X344786Y453203D01*
X344687Y453148D01*
X344586Y453097D01*
X344483Y453049D01*
X344379Y453004D01*
X344273Y452964D01*
X344166Y452927D01*
X344058Y452894D01*
X343948Y452864D01*
X343838Y452839D01*
X343727Y452817D01*
X343615Y452800D01*
X343502Y452786D01*
X343389Y452776D01*
X343276Y452770D01*
X343163Y452768D01*
X339917Y452768D01*
X351728Y461856D02*
X354974Y464452D01*
X354974Y452768D01*
X358219Y452768D02*
X351728Y452768D01*
D10*
X184420Y903380D02*
X184420Y908460D01*
X181880Y905920D02*
X186960Y905920D01*
D12*
X169180Y911000D02*
X126000Y911000D01*
X169180Y911000D02*
X176800Y911000D01*
X176800Y898300D01*
X176800Y872900D01*
X176800Y860200D01*
X169180Y860200D01*
X126000Y860200D01*
X176800Y898300D02*
X202200Y898300D01*
X202200Y872900D02*
X176800Y872900D01*
X126000Y860200D02*
X125381Y860208D01*
X124763Y860230D01*
X124146Y860268D01*
X123530Y860320D01*
X122915Y860388D01*
X122302Y860471D01*
X121691Y860568D01*
X121083Y860681D01*
X120477Y860808D01*
X119875Y860950D01*
X119277Y861106D01*
X118682Y861277D01*
X118092Y861462D01*
X117507Y861662D01*
X116926Y861876D01*
X116351Y862104D01*
X115782Y862346D01*
X115219Y862602D01*
X114662Y862871D01*
X114112Y863154D01*
X113569Y863450D01*
X113033Y863759D01*
X112505Y864081D01*
X111985Y864416D01*
X111473Y864764D01*
X110970Y865124D01*
X110476Y865496D01*
X109991Y865880D01*
X109516Y866276D01*
X109050Y866683D01*
X108594Y867101D01*
X108149Y867530D01*
X107714Y867971D01*
X107291Y868421D01*
X106878Y868882D01*
X106476Y869352D01*
X106087Y869833D01*
X105708Y870322D01*
X105342Y870821D01*
X104989Y871328D01*
X104647Y871844D01*
X104319Y872368D01*
X104003Y872900D01*
X103700Y873439D01*
X103411Y873986D01*
X103135Y874540D01*
X102872Y875100D01*
X102623Y875666D01*
X102388Y876238D01*
X102167Y876816D01*
X101960Y877399D01*
X101768Y877987D01*
X101590Y878579D01*
X101426Y879175D01*
X101277Y879776D01*
X101142Y880380D01*
X101023Y880986D01*
X100918Y881596D01*
X100828Y882208D01*
X100752Y882822D01*
X100692Y883438D01*
X100647Y884055D01*
X100617Y884672D01*
X100602Y885291D01*
X100602Y885909D01*
X100617Y886528D01*
X100647Y887145D01*
X100692Y887762D01*
X100752Y888378D01*
X100828Y888992D01*
X100918Y889604D01*
X101023Y890214D01*
X101142Y890820D01*
X101277Y891424D01*
X101426Y892025D01*
X101590Y892621D01*
X101768Y893213D01*
X101960Y893801D01*
X102167Y894384D01*
X102388Y894962D01*
X102623Y895534D01*
X102872Y896100D01*
X103135Y896660D01*
X103411Y897214D01*
X103700Y897761D01*
X104003Y898300D01*
X104319Y898832D01*
X104647Y899356D01*
X104989Y899872D01*
X105342Y900379D01*
X105708Y900878D01*
X106087Y901367D01*
X106476Y901848D01*
X106878Y902318D01*
X107291Y902779D01*
X107714Y903229D01*
X108149Y903670D01*
X108594Y904099D01*
X109050Y904517D01*
X109516Y904924D01*
X109991Y905320D01*
X110476Y905704D01*
X110970Y906076D01*
X111473Y906436D01*
X111985Y906784D01*
X112505Y907119D01*
X113033Y907441D01*
X113569Y907750D01*
X114112Y908046D01*
X114662Y908329D01*
X115219Y908598D01*
X115782Y908854D01*
X116351Y909096D01*
X116926Y909324D01*
X117507Y909538D01*
X118092Y909738D01*
X118682Y909923D01*
X119277Y910094D01*
X119875Y910250D01*
X120477Y910392D01*
X121083Y910519D01*
X121691Y910632D01*
X122302Y910729D01*
X122915Y910812D01*
X123530Y910880D01*
X124146Y910932D01*
X124763Y910970D01*
X125381Y910992D01*
X126000Y911000D01*
X169180Y911000D02*
X169180Y860200D01*
D11*
X248428Y896268D02*
X248428Y907952D01*
X248428Y896268D02*
X253621Y896268D01*
X258334Y896268D02*
X263527Y896268D01*
X258334Y896268D02*
X258334Y907952D01*
X263527Y907952D01*
X262229Y902759D02*
X258334Y902759D01*
X268217Y907952D02*
X268217Y896268D01*
X268217Y907952D02*
X271463Y907952D01*
X271576Y907950D01*
X271689Y907944D01*
X271802Y907934D01*
X271915Y907920D01*
X272027Y907903D01*
X272138Y907881D01*
X272248Y907856D01*
X272358Y907826D01*
X272466Y907793D01*
X272573Y907756D01*
X272679Y907716D01*
X272783Y907671D01*
X272886Y907623D01*
X272987Y907572D01*
X273086Y907517D01*
X273183Y907459D01*
X273278Y907397D01*
X273371Y907332D01*
X273461Y907264D01*
X273549Y907193D01*
X273635Y907118D01*
X273718Y907041D01*
X273798Y906961D01*
X273875Y906878D01*
X273950Y906792D01*
X274021Y906704D01*
X274089Y906614D01*
X274154Y906521D01*
X274216Y906426D01*
X274274Y906329D01*
X274329Y906230D01*
X274380Y906129D01*
X274428Y906026D01*
X274473Y905922D01*
X274513Y905816D01*
X274550Y905709D01*
X274583Y905601D01*
X274613Y905491D01*
X274638Y905381D01*
X274660Y905270D01*
X274677Y905158D01*
X274691Y905045D01*
X274701Y904932D01*
X274707Y904819D01*
X274709Y904706D01*
X274709Y899514D01*
X274707Y899401D01*
X274701Y899288D01*
X274691Y899175D01*
X274677Y899062D01*
X274660Y898950D01*
X274638Y898839D01*
X274613Y898729D01*
X274583Y898619D01*
X274550Y898511D01*
X274513Y898404D01*
X274473Y898298D01*
X274428Y898194D01*
X274380Y898091D01*
X274329Y897990D01*
X274274Y897891D01*
X274216Y897794D01*
X274154Y897699D01*
X274089Y897606D01*
X274021Y897516D01*
X273950Y897428D01*
X273875Y897342D01*
X273798Y897259D01*
X273718Y897179D01*
X273635Y897102D01*
X273549Y897027D01*
X273461Y896956D01*
X273371Y896888D01*
X273278Y896823D01*
X273183Y896761D01*
X273086Y896703D01*
X272987Y896648D01*
X272886Y896597D01*
X272783Y896549D01*
X272679Y896504D01*
X272573Y896464D01*
X272466Y896427D01*
X272358Y896394D01*
X272248Y896364D01*
X272138Y896339D01*
X272027Y896317D01*
X271915Y896300D01*
X271802Y896286D01*
X271689Y896276D01*
X271576Y896270D01*
X271463Y896268D01*
X268217Y896268D01*
X280028Y905356D02*
X283274Y907952D01*
X283274Y896268D01*
X286519Y896268D02*
X280028Y896268D01*
X291459Y902110D02*
X291462Y902340D01*
X291470Y902570D01*
X291484Y902799D01*
X291503Y903028D01*
X291528Y903257D01*
X291558Y903484D01*
X291593Y903712D01*
X291634Y903938D01*
X291680Y904163D01*
X291732Y904387D01*
X291789Y904609D01*
X291851Y904831D01*
X291919Y905050D01*
X291992Y905268D01*
X292070Y905485D01*
X292153Y905699D01*
X292241Y905911D01*
X292334Y906121D01*
X292433Y906329D01*
X292432Y906329D02*
X292465Y906419D01*
X292501Y906508D01*
X292541Y906596D01*
X292585Y906681D01*
X292632Y906765D01*
X292682Y906847D01*
X292736Y906927D01*
X292792Y907004D01*
X292852Y907080D01*
X292915Y907153D01*
X292980Y907223D01*
X293049Y907291D01*
X293120Y907355D01*
X293193Y907417D01*
X293269Y907476D01*
X293347Y907532D01*
X293428Y907585D01*
X293510Y907634D01*
X293594Y907680D01*
X293681Y907723D01*
X293768Y907762D01*
X293858Y907798D01*
X293948Y907830D01*
X294040Y907858D01*
X294133Y907883D01*
X294227Y907904D01*
X294321Y907921D01*
X294416Y907935D01*
X294512Y907944D01*
X294608Y907950D01*
X294704Y907952D01*
X294800Y907950D01*
X294896Y907944D01*
X294992Y907935D01*
X295087Y907921D01*
X295181Y907904D01*
X295275Y907883D01*
X295368Y907858D01*
X295460Y907830D01*
X295550Y907798D01*
X295640Y907762D01*
X295727Y907723D01*
X295814Y907680D01*
X295898Y907634D01*
X295980Y907585D01*
X296061Y907532D01*
X296139Y907476D01*
X296215Y907417D01*
X296288Y907355D01*
X296359Y907291D01*
X296428Y907223D01*
X296493Y907153D01*
X296556Y907080D01*
X296616Y907004D01*
X296672Y906927D01*
X296726Y906847D01*
X296776Y906765D01*
X296823Y906681D01*
X296867Y906596D01*
X296907Y906508D01*
X296943Y906419D01*
X296976Y906329D01*
X297075Y906122D01*
X297168Y905912D01*
X297256Y905699D01*
X297339Y905485D01*
X297417Y905269D01*
X297490Y905051D01*
X297558Y904831D01*
X297620Y904610D01*
X297677Y904387D01*
X297729Y904163D01*
X297775Y903938D01*
X297816Y903712D01*
X297851Y903485D01*
X297881Y903257D01*
X297906Y903028D01*
X297925Y902799D01*
X297939Y902570D01*
X297947Y902340D01*
X297950Y902110D01*
X291458Y902110D02*
X291461Y901880D01*
X291469Y901650D01*
X291483Y901421D01*
X291502Y901192D01*
X291527Y900963D01*
X291557Y900735D01*
X291592Y900508D01*
X291633Y900282D01*
X291679Y900057D01*
X291731Y899833D01*
X291788Y899610D01*
X291850Y899389D01*
X291918Y899169D01*
X291991Y898951D01*
X292069Y898735D01*
X292152Y898521D01*
X292240Y898309D01*
X292333Y898098D01*
X292432Y897891D01*
X292465Y897801D01*
X292501Y897712D01*
X292542Y897624D01*
X292585Y897539D01*
X292632Y897455D01*
X292682Y897373D01*
X292736Y897293D01*
X292792Y897216D01*
X292852Y897140D01*
X292915Y897067D01*
X292980Y896997D01*
X293049Y896929D01*
X293120Y896865D01*
X293193Y896803D01*
X293269Y896744D01*
X293347Y896688D01*
X293428Y896635D01*
X293510Y896586D01*
X293594Y896540D01*
X293681Y896497D01*
X293768Y896458D01*
X293858Y896422D01*
X293948Y896390D01*
X294040Y896362D01*
X294133Y896337D01*
X294227Y896316D01*
X294321Y896299D01*
X294416Y896285D01*
X294512Y896276D01*
X294608Y896270D01*
X294704Y896268D01*
X296976Y897891D02*
X297075Y898098D01*
X297168Y898309D01*
X297256Y898521D01*
X297339Y898735D01*
X297417Y898951D01*
X297490Y899169D01*
X297558Y899389D01*
X297620Y899610D01*
X297677Y899833D01*
X297729Y900057D01*
X297775Y900282D01*
X297816Y900508D01*
X297851Y900735D01*
X297881Y900963D01*
X297906Y901192D01*
X297925Y901421D01*
X297939Y901650D01*
X297947Y901880D01*
X297950Y902110D01*
X296976Y897891D02*
X296943Y897801D01*
X296907Y897712D01*
X296867Y897624D01*
X296823Y897539D01*
X296776Y897455D01*
X296726Y897373D01*
X296672Y897293D01*
X296616Y897216D01*
X296556Y897140D01*
X296493Y897067D01*
X296428Y896997D01*
X296359Y896929D01*
X296288Y896865D01*
X296215Y896803D01*
X296139Y896744D01*
X296061Y896688D01*
X295980Y896635D01*
X295898Y896586D01*
X295814Y896540D01*
X295727Y896497D01*
X295640Y896458D01*
X295550Y896422D01*
X295460Y896390D01*
X295368Y896362D01*
X295275Y896337D01*
X295181Y896316D01*
X295087Y896299D01*
X294992Y896285D01*
X294896Y896276D01*
X294800Y896270D01*
X294704Y896268D01*
X292107Y898864D02*
X297300Y905356D01*
D10*
X189720Y695260D02*
X189720Y690180D01*
X187180Y692720D02*
X192260Y692720D01*
D12*
X174480Y697800D02*
X131300Y697800D01*
X174480Y697800D02*
X182100Y697800D01*
X182100Y685100D01*
X182100Y659700D01*
X182100Y647000D01*
X174480Y647000D01*
X131300Y647000D01*
X182100Y685100D02*
X207500Y685100D01*
X207500Y659700D02*
X182100Y659700D01*
X131300Y647000D02*
X130681Y647008D01*
X130063Y647030D01*
X129446Y647068D01*
X128830Y647120D01*
X128215Y647188D01*
X127602Y647271D01*
X126991Y647368D01*
X126383Y647481D01*
X125777Y647608D01*
X125175Y647750D01*
X124577Y647906D01*
X123982Y648077D01*
X123392Y648262D01*
X122807Y648462D01*
X122226Y648676D01*
X121651Y648904D01*
X121082Y649146D01*
X120519Y649402D01*
X119962Y649671D01*
X119412Y649954D01*
X118869Y650250D01*
X118333Y650559D01*
X117805Y650881D01*
X117285Y651216D01*
X116773Y651564D01*
X116270Y651924D01*
X115776Y652296D01*
X115291Y652680D01*
X114816Y653076D01*
X114350Y653483D01*
X113894Y653901D01*
X113449Y654330D01*
X113014Y654771D01*
X112591Y655221D01*
X112178Y655682D01*
X111776Y656152D01*
X111387Y656633D01*
X111008Y657122D01*
X110642Y657621D01*
X110289Y658128D01*
X109947Y658644D01*
X109619Y659168D01*
X109303Y659700D01*
X109000Y660239D01*
X108711Y660786D01*
X108435Y661340D01*
X108172Y661900D01*
X107923Y662466D01*
X107688Y663038D01*
X107467Y663616D01*
X107260Y664199D01*
X107068Y664787D01*
X106890Y665379D01*
X106726Y665975D01*
X106577Y666576D01*
X106442Y667180D01*
X106323Y667786D01*
X106218Y668396D01*
X106128Y669008D01*
X106052Y669622D01*
X105992Y670238D01*
X105947Y670855D01*
X105917Y671472D01*
X105902Y672091D01*
X105902Y672709D01*
X105917Y673328D01*
X105947Y673945D01*
X105992Y674562D01*
X106052Y675178D01*
X106128Y675792D01*
X106218Y676404D01*
X106323Y677014D01*
X106442Y677620D01*
X106577Y678224D01*
X106726Y678825D01*
X106890Y679421D01*
X107068Y680013D01*
X107260Y680601D01*
X107467Y681184D01*
X107688Y681762D01*
X107923Y682334D01*
X108172Y682900D01*
X108435Y683460D01*
X108711Y684014D01*
X109000Y684561D01*
X109303Y685100D01*
X109619Y685632D01*
X109947Y686156D01*
X110289Y686672D01*
X110642Y687179D01*
X111008Y687678D01*
X111387Y688167D01*
X111776Y688648D01*
X112178Y689118D01*
X112591Y689579D01*
X113014Y690029D01*
X113449Y690470D01*
X113894Y690899D01*
X114350Y691317D01*
X114816Y691724D01*
X115291Y692120D01*
X115776Y692504D01*
X116270Y692876D01*
X116773Y693236D01*
X117285Y693584D01*
X117805Y693919D01*
X118333Y694241D01*
X118869Y694550D01*
X119412Y694846D01*
X119962Y695129D01*
X120519Y695398D01*
X121082Y695654D01*
X121651Y695896D01*
X122226Y696124D01*
X122807Y696338D01*
X123392Y696538D01*
X123982Y696723D01*
X124577Y696894D01*
X125175Y697050D01*
X125777Y697192D01*
X126383Y697319D01*
X126991Y697432D01*
X127602Y697529D01*
X128215Y697612D01*
X128830Y697680D01*
X129446Y697732D01*
X130063Y697770D01*
X130681Y697792D01*
X131300Y697800D01*
X174480Y697800D02*
X174480Y647000D01*
D11*
X253728Y683068D02*
X253728Y694752D01*
X253728Y683068D02*
X258921Y683068D01*
X263634Y683068D02*
X268827Y683068D01*
X263634Y683068D02*
X263634Y694752D01*
X268827Y694752D01*
X267529Y689559D02*
X263634Y689559D01*
X273517Y694752D02*
X273517Y683068D01*
X273517Y694752D02*
X276763Y694752D01*
X276876Y694750D01*
X276989Y694744D01*
X277102Y694734D01*
X277215Y694720D01*
X277327Y694703D01*
X277438Y694681D01*
X277548Y694656D01*
X277658Y694626D01*
X277766Y694593D01*
X277873Y694556D01*
X277979Y694516D01*
X278083Y694471D01*
X278186Y694423D01*
X278287Y694372D01*
X278386Y694317D01*
X278483Y694259D01*
X278578Y694197D01*
X278671Y694132D01*
X278761Y694064D01*
X278849Y693993D01*
X278935Y693918D01*
X279018Y693841D01*
X279098Y693761D01*
X279175Y693678D01*
X279250Y693592D01*
X279321Y693504D01*
X279389Y693414D01*
X279454Y693321D01*
X279516Y693226D01*
X279574Y693129D01*
X279629Y693030D01*
X279680Y692929D01*
X279728Y692826D01*
X279773Y692722D01*
X279813Y692616D01*
X279850Y692509D01*
X279883Y692401D01*
X279913Y692291D01*
X279938Y692181D01*
X279960Y692070D01*
X279977Y691958D01*
X279991Y691845D01*
X280001Y691732D01*
X280007Y691619D01*
X280009Y691506D01*
X280009Y686314D01*
X280007Y686201D01*
X280001Y686088D01*
X279991Y685975D01*
X279977Y685862D01*
X279960Y685750D01*
X279938Y685639D01*
X279913Y685529D01*
X279883Y685419D01*
X279850Y685311D01*
X279813Y685204D01*
X279773Y685098D01*
X279728Y684994D01*
X279680Y684891D01*
X279629Y684790D01*
X279574Y684691D01*
X279516Y684594D01*
X279454Y684499D01*
X279389Y684406D01*
X279321Y684316D01*
X279250Y684228D01*
X279175Y684142D01*
X279098Y684059D01*
X279018Y683979D01*
X278935Y683902D01*
X278849Y683827D01*
X278761Y683756D01*
X278671Y683688D01*
X278578Y683623D01*
X278483Y683561D01*
X278386Y683503D01*
X278287Y683448D01*
X278186Y683397D01*
X278083Y683349D01*
X277979Y683304D01*
X277873Y683264D01*
X277766Y683227D01*
X277658Y683194D01*
X277548Y683164D01*
X277438Y683139D01*
X277327Y683117D01*
X277215Y683100D01*
X277102Y683086D01*
X276989Y683076D01*
X276876Y683070D01*
X276763Y683068D01*
X273517Y683068D01*
X288898Y694752D02*
X289005Y694750D01*
X289111Y694744D01*
X289217Y694734D01*
X289323Y694721D01*
X289429Y694703D01*
X289533Y694682D01*
X289637Y694657D01*
X289740Y694628D01*
X289841Y694596D01*
X289941Y694559D01*
X290040Y694519D01*
X290138Y694476D01*
X290234Y694429D01*
X290328Y694378D01*
X290420Y694324D01*
X290510Y694267D01*
X290598Y694207D01*
X290683Y694143D01*
X290766Y694076D01*
X290847Y694006D01*
X290925Y693934D01*
X291001Y693858D01*
X291073Y693780D01*
X291143Y693699D01*
X291210Y693616D01*
X291274Y693531D01*
X291334Y693443D01*
X291391Y693353D01*
X291445Y693261D01*
X291496Y693167D01*
X291543Y693071D01*
X291586Y692973D01*
X291626Y692874D01*
X291663Y692774D01*
X291695Y692673D01*
X291724Y692570D01*
X291749Y692466D01*
X291770Y692362D01*
X291788Y692256D01*
X291801Y692150D01*
X291811Y692044D01*
X291817Y691938D01*
X291819Y691831D01*
X288898Y694752D02*
X288777Y694750D01*
X288656Y694744D01*
X288536Y694734D01*
X288415Y694721D01*
X288296Y694703D01*
X288176Y694682D01*
X288058Y694657D01*
X287941Y694628D01*
X287824Y694595D01*
X287709Y694559D01*
X287595Y694518D01*
X287482Y694475D01*
X287370Y694427D01*
X287261Y694376D01*
X287153Y694321D01*
X287046Y694263D01*
X286942Y694202D01*
X286840Y694137D01*
X286740Y694069D01*
X286642Y693998D01*
X286546Y693924D01*
X286453Y693847D01*
X286363Y693766D01*
X286275Y693683D01*
X286190Y693597D01*
X286107Y693508D01*
X286028Y693417D01*
X285951Y693323D01*
X285878Y693227D01*
X285808Y693129D01*
X285741Y693028D01*
X285677Y692925D01*
X285617Y692820D01*
X285560Y692713D01*
X285506Y692605D01*
X285456Y692495D01*
X285410Y692383D01*
X285367Y692270D01*
X285328Y692155D01*
X290846Y689559D02*
X290925Y689636D01*
X291001Y689717D01*
X291074Y689800D01*
X291144Y689885D01*
X291211Y689973D01*
X291275Y690063D01*
X291335Y690155D01*
X291392Y690250D01*
X291446Y690346D01*
X291497Y690444D01*
X291544Y690544D01*
X291588Y690646D01*
X291628Y690749D01*
X291664Y690853D01*
X291696Y690959D01*
X291725Y691065D01*
X291750Y691173D01*
X291772Y691281D01*
X291789Y691391D01*
X291803Y691500D01*
X291812Y691610D01*
X291818Y691721D01*
X291820Y691831D01*
X290846Y689559D02*
X285328Y683068D01*
X291819Y683068D01*
D10*
X322220Y1051580D02*
X322220Y1056660D01*
X319680Y1054120D02*
X324760Y1054120D01*
D12*
X306980Y1059200D02*
X263800Y1059200D01*
X306980Y1059200D02*
X314600Y1059200D01*
X314600Y1046500D01*
X314600Y1021100D01*
X314600Y1008400D01*
X306980Y1008400D01*
X263800Y1008400D01*
X314600Y1046500D02*
X340000Y1046500D01*
X340000Y1021100D02*
X314600Y1021100D01*
X263800Y1008400D02*
X263181Y1008408D01*
X262563Y1008430D01*
X261946Y1008468D01*
X261330Y1008520D01*
X260715Y1008588D01*
X260102Y1008671D01*
X259491Y1008768D01*
X258883Y1008881D01*
X258277Y1009008D01*
X257675Y1009150D01*
X257077Y1009306D01*
X256482Y1009477D01*
X255892Y1009662D01*
X255307Y1009862D01*
X254726Y1010076D01*
X254151Y1010304D01*
X253582Y1010546D01*
X253019Y1010802D01*
X252462Y1011071D01*
X251912Y1011354D01*
X251369Y1011650D01*
X250833Y1011959D01*
X250305Y1012281D01*
X249785Y1012616D01*
X249273Y1012964D01*
X248770Y1013324D01*
X248276Y1013696D01*
X247791Y1014080D01*
X247316Y1014476D01*
X246850Y1014883D01*
X246394Y1015301D01*
X245949Y1015730D01*
X245514Y1016171D01*
X245091Y1016621D01*
X244678Y1017082D01*
X244276Y1017552D01*
X243887Y1018033D01*
X243508Y1018522D01*
X243142Y1019021D01*
X242789Y1019528D01*
X242447Y1020044D01*
X242119Y1020568D01*
X241803Y1021100D01*
X241500Y1021639D01*
X241211Y1022186D01*
X240935Y1022740D01*
X240672Y1023300D01*
X240423Y1023866D01*
X240188Y1024438D01*
X239967Y1025016D01*
X239760Y1025599D01*
X239568Y1026187D01*
X239390Y1026779D01*
X239226Y1027375D01*
X239077Y1027976D01*
X238942Y1028580D01*
X238823Y1029186D01*
X238718Y1029796D01*
X238628Y1030408D01*
X238552Y1031022D01*
X238492Y1031638D01*
X238447Y1032255D01*
X238417Y1032872D01*
X238402Y1033491D01*
X238402Y1034109D01*
X238417Y1034728D01*
X238447Y1035345D01*
X238492Y1035962D01*
X238552Y1036578D01*
X238628Y1037192D01*
X238718Y1037804D01*
X238823Y1038414D01*
X238942Y1039020D01*
X239077Y1039624D01*
X239226Y1040225D01*
X239390Y1040821D01*
X239568Y1041413D01*
X239760Y1042001D01*
X239967Y1042584D01*
X240188Y1043162D01*
X240423Y1043734D01*
X240672Y1044300D01*
X240935Y1044860D01*
X241211Y1045414D01*
X241500Y1045961D01*
X241803Y1046500D01*
X242119Y1047032D01*
X242447Y1047556D01*
X242789Y1048072D01*
X243142Y1048579D01*
X243508Y1049078D01*
X243887Y1049567D01*
X244276Y1050048D01*
X244678Y1050518D01*
X245091Y1050979D01*
X245514Y1051429D01*
X245949Y1051870D01*
X246394Y1052299D01*
X246850Y1052717D01*
X247316Y1053124D01*
X247791Y1053520D01*
X248276Y1053904D01*
X248770Y1054276D01*
X249273Y1054636D01*
X249785Y1054984D01*
X250305Y1055319D01*
X250833Y1055641D01*
X251369Y1055950D01*
X251912Y1056246D01*
X252462Y1056529D01*
X253019Y1056798D01*
X253582Y1057054D01*
X254151Y1057296D01*
X254726Y1057524D01*
X255307Y1057738D01*
X255892Y1057938D01*
X256482Y1058123D01*
X257077Y1058294D01*
X257675Y1058450D01*
X258277Y1058592D01*
X258883Y1058719D01*
X259491Y1058832D01*
X260102Y1058929D01*
X260715Y1059012D01*
X261330Y1059080D01*
X261946Y1059132D01*
X262563Y1059170D01*
X263181Y1059192D01*
X263800Y1059200D01*
X306980Y1059200D02*
X306980Y1008400D01*
D11*
X386228Y1044468D02*
X386228Y1056152D01*
X386228Y1044468D02*
X391421Y1044468D01*
X396134Y1044468D02*
X401327Y1044468D01*
X396134Y1044468D02*
X396134Y1056152D01*
X401327Y1056152D01*
X400029Y1050959D02*
X396134Y1050959D01*
X406017Y1056152D02*
X406017Y1044468D01*
X406017Y1056152D02*
X409263Y1056152D01*
X409376Y1056150D01*
X409489Y1056144D01*
X409602Y1056134D01*
X409715Y1056120D01*
X409827Y1056103D01*
X409938Y1056081D01*
X410048Y1056056D01*
X410158Y1056026D01*
X410266Y1055993D01*
X410373Y1055956D01*
X410479Y1055916D01*
X410583Y1055871D01*
X410686Y1055823D01*
X410787Y1055772D01*
X410886Y1055717D01*
X410983Y1055659D01*
X411078Y1055597D01*
X411171Y1055532D01*
X411261Y1055464D01*
X411349Y1055393D01*
X411435Y1055318D01*
X411518Y1055241D01*
X411598Y1055161D01*
X411675Y1055078D01*
X411750Y1054992D01*
X411821Y1054904D01*
X411889Y1054814D01*
X411954Y1054721D01*
X412016Y1054626D01*
X412074Y1054529D01*
X412129Y1054430D01*
X412180Y1054329D01*
X412228Y1054226D01*
X412273Y1054122D01*
X412313Y1054016D01*
X412350Y1053909D01*
X412383Y1053801D01*
X412413Y1053691D01*
X412438Y1053581D01*
X412460Y1053470D01*
X412477Y1053358D01*
X412491Y1053245D01*
X412501Y1053132D01*
X412507Y1053019D01*
X412509Y1052906D01*
X412509Y1047714D01*
X412507Y1047601D01*
X412501Y1047488D01*
X412491Y1047375D01*
X412477Y1047262D01*
X412460Y1047150D01*
X412438Y1047039D01*
X412413Y1046929D01*
X412383Y1046819D01*
X412350Y1046711D01*
X412313Y1046604D01*
X412273Y1046498D01*
X412228Y1046394D01*
X412180Y1046291D01*
X412129Y1046190D01*
X412074Y1046091D01*
X412016Y1045994D01*
X411954Y1045899D01*
X411889Y1045806D01*
X411821Y1045716D01*
X411750Y1045628D01*
X411675Y1045542D01*
X411598Y1045459D01*
X411518Y1045379D01*
X411435Y1045302D01*
X411349Y1045227D01*
X411261Y1045156D01*
X411171Y1045088D01*
X411078Y1045023D01*
X410983Y1044961D01*
X410886Y1044903D01*
X410787Y1044848D01*
X410686Y1044797D01*
X410583Y1044749D01*
X410479Y1044704D01*
X410373Y1044664D01*
X410266Y1044627D01*
X410158Y1044594D01*
X410048Y1044564D01*
X409938Y1044539D01*
X409827Y1044517D01*
X409715Y1044500D01*
X409602Y1044486D01*
X409489Y1044476D01*
X409376Y1044470D01*
X409263Y1044468D01*
X406017Y1044468D01*
X417828Y1044468D02*
X421074Y1044468D01*
X421187Y1044470D01*
X421300Y1044476D01*
X421413Y1044486D01*
X421526Y1044500D01*
X421638Y1044517D01*
X421749Y1044539D01*
X421859Y1044564D01*
X421969Y1044594D01*
X422077Y1044627D01*
X422184Y1044664D01*
X422290Y1044704D01*
X422394Y1044749D01*
X422497Y1044797D01*
X422598Y1044848D01*
X422697Y1044903D01*
X422794Y1044961D01*
X422889Y1045023D01*
X422982Y1045088D01*
X423072Y1045156D01*
X423160Y1045227D01*
X423246Y1045302D01*
X423329Y1045379D01*
X423409Y1045459D01*
X423486Y1045542D01*
X423561Y1045628D01*
X423632Y1045716D01*
X423700Y1045806D01*
X423765Y1045899D01*
X423827Y1045994D01*
X423885Y1046091D01*
X423940Y1046190D01*
X423991Y1046291D01*
X424039Y1046394D01*
X424084Y1046498D01*
X424124Y1046604D01*
X424161Y1046711D01*
X424194Y1046819D01*
X424224Y1046929D01*
X424249Y1047039D01*
X424271Y1047150D01*
X424288Y1047262D01*
X424302Y1047375D01*
X424312Y1047488D01*
X424318Y1047601D01*
X424320Y1047714D01*
X424318Y1047827D01*
X424312Y1047940D01*
X424302Y1048053D01*
X424288Y1048166D01*
X424271Y1048278D01*
X424249Y1048389D01*
X424224Y1048499D01*
X424194Y1048609D01*
X424161Y1048717D01*
X424124Y1048824D01*
X424084Y1048930D01*
X424039Y1049034D01*
X423991Y1049137D01*
X423940Y1049238D01*
X423885Y1049337D01*
X423827Y1049434D01*
X423765Y1049529D01*
X423700Y1049622D01*
X423632Y1049712D01*
X423561Y1049800D01*
X423486Y1049886D01*
X423409Y1049969D01*
X423329Y1050049D01*
X423246Y1050126D01*
X423160Y1050201D01*
X423072Y1050272D01*
X422982Y1050340D01*
X422889Y1050405D01*
X422794Y1050467D01*
X422697Y1050525D01*
X422598Y1050580D01*
X422497Y1050631D01*
X422394Y1050679D01*
X422290Y1050724D01*
X422184Y1050764D01*
X422077Y1050801D01*
X421969Y1050834D01*
X421859Y1050864D01*
X421749Y1050889D01*
X421638Y1050911D01*
X421526Y1050928D01*
X421413Y1050942D01*
X421300Y1050952D01*
X421187Y1050958D01*
X421074Y1050960D01*
X421723Y1056152D02*
X417828Y1056152D01*
X421723Y1056152D02*
X421824Y1056150D01*
X421924Y1056144D01*
X422024Y1056134D01*
X422124Y1056121D01*
X422223Y1056103D01*
X422322Y1056082D01*
X422419Y1056057D01*
X422516Y1056028D01*
X422611Y1055995D01*
X422705Y1055959D01*
X422797Y1055919D01*
X422888Y1055876D01*
X422977Y1055829D01*
X423064Y1055779D01*
X423150Y1055725D01*
X423233Y1055668D01*
X423313Y1055608D01*
X423392Y1055545D01*
X423468Y1055478D01*
X423541Y1055409D01*
X423611Y1055337D01*
X423679Y1055263D01*
X423744Y1055186D01*
X423805Y1055106D01*
X423864Y1055024D01*
X423919Y1054940D01*
X423971Y1054854D01*
X424020Y1054766D01*
X424065Y1054676D01*
X424107Y1054584D01*
X424145Y1054491D01*
X424179Y1054396D01*
X424210Y1054301D01*
X424237Y1054204D01*
X424260Y1054106D01*
X424280Y1054007D01*
X424295Y1053907D01*
X424307Y1053807D01*
X424315Y1053707D01*
X424319Y1053606D01*
X424319Y1053506D01*
X424315Y1053405D01*
X424307Y1053305D01*
X424295Y1053205D01*
X424280Y1053105D01*
X424260Y1053006D01*
X424237Y1052908D01*
X424210Y1052811D01*
X424179Y1052716D01*
X424145Y1052621D01*
X424107Y1052528D01*
X424065Y1052436D01*
X424020Y1052346D01*
X423971Y1052258D01*
X423919Y1052172D01*
X423864Y1052088D01*
X423805Y1052006D01*
X423744Y1051926D01*
X423679Y1051849D01*
X423611Y1051775D01*
X423541Y1051703D01*
X423468Y1051634D01*
X423392Y1051567D01*
X423313Y1051504D01*
X423233Y1051444D01*
X423150Y1051387D01*
X423064Y1051333D01*
X422977Y1051283D01*
X422888Y1051236D01*
X422797Y1051193D01*
X422705Y1051153D01*
X422611Y1051117D01*
X422516Y1051084D01*
X422419Y1051055D01*
X422322Y1051030D01*
X422223Y1051009D01*
X422124Y1050991D01*
X422024Y1050978D01*
X421924Y1050968D01*
X421824Y1050962D01*
X421723Y1050960D01*
X421723Y1050959D02*
X419127Y1050959D01*
D10*
X713180Y600420D02*
X713180Y595340D01*
X715720Y597880D02*
X710640Y597880D01*
D12*
X728420Y592800D02*
X771600Y592800D01*
X728420Y592800D02*
X720800Y592800D01*
X720800Y605500D01*
X720800Y630900D01*
X720800Y643600D01*
X728420Y643600D01*
X771600Y643600D01*
X720800Y605500D02*
X695400Y605500D01*
X695400Y630900D02*
X720800Y630900D01*
X771600Y643600D02*
X772219Y643592D01*
X772837Y643570D01*
X773454Y643532D01*
X774070Y643480D01*
X774685Y643412D01*
X775298Y643329D01*
X775909Y643232D01*
X776517Y643119D01*
X777123Y642992D01*
X777725Y642850D01*
X778323Y642694D01*
X778918Y642523D01*
X779508Y642338D01*
X780093Y642138D01*
X780674Y641924D01*
X781249Y641696D01*
X781818Y641454D01*
X782381Y641198D01*
X782938Y640929D01*
X783488Y640646D01*
X784031Y640350D01*
X784567Y640041D01*
X785095Y639719D01*
X785615Y639384D01*
X786127Y639036D01*
X786630Y638676D01*
X787124Y638304D01*
X787609Y637920D01*
X788084Y637524D01*
X788550Y637117D01*
X789006Y636699D01*
X789451Y636270D01*
X789886Y635829D01*
X790309Y635379D01*
X790722Y634918D01*
X791124Y634448D01*
X791513Y633967D01*
X791892Y633478D01*
X792258Y632979D01*
X792611Y632472D01*
X792953Y631956D01*
X793281Y631432D01*
X793597Y630900D01*
X793900Y630361D01*
X794189Y629814D01*
X794465Y629260D01*
X794728Y628700D01*
X794977Y628134D01*
X795212Y627562D01*
X795433Y626984D01*
X795640Y626401D01*
X795832Y625813D01*
X796010Y625221D01*
X796174Y624625D01*
X796323Y624024D01*
X796458Y623420D01*
X796577Y622814D01*
X796682Y622204D01*
X796772Y621592D01*
X796848Y620978D01*
X796908Y620362D01*
X796953Y619745D01*
X796983Y619128D01*
X796998Y618509D01*
X796998Y617891D01*
X796983Y617272D01*
X796953Y616655D01*
X796908Y616038D01*
X796848Y615422D01*
X796772Y614808D01*
X796682Y614196D01*
X796577Y613586D01*
X796458Y612980D01*
X796323Y612376D01*
X796174Y611775D01*
X796010Y611179D01*
X795832Y610587D01*
X795640Y609999D01*
X795433Y609416D01*
X795212Y608838D01*
X794977Y608266D01*
X794728Y607700D01*
X794465Y607140D01*
X794189Y606586D01*
X793900Y606039D01*
X793597Y605500D01*
X793281Y604968D01*
X792953Y604444D01*
X792611Y603928D01*
X792258Y603421D01*
X791892Y602922D01*
X791513Y602433D01*
X791124Y601952D01*
X790722Y601482D01*
X790309Y601021D01*
X789886Y600571D01*
X789451Y600130D01*
X789006Y599701D01*
X788550Y599283D01*
X788084Y598876D01*
X787609Y598480D01*
X787124Y598096D01*
X786630Y597724D01*
X786127Y597364D01*
X785615Y597016D01*
X785095Y596681D01*
X784567Y596359D01*
X784031Y596050D01*
X783488Y595754D01*
X782938Y595471D01*
X782381Y595202D01*
X781818Y594946D01*
X781249Y594704D01*
X780674Y594476D01*
X780093Y594262D01*
X779508Y594062D01*
X778918Y593877D01*
X778323Y593706D01*
X777725Y593550D01*
X777123Y593408D01*
X776517Y593281D01*
X775909Y593168D01*
X775298Y593071D01*
X774685Y592988D01*
X774070Y592920D01*
X773454Y592868D01*
X772837Y592830D01*
X772219Y592808D01*
X771600Y592800D01*
X728420Y592800D02*
X728420Y643600D01*
D11*
X611081Y607532D02*
X611081Y595848D01*
X616273Y595848D01*
X620987Y595848D02*
X626179Y595848D01*
X620987Y595848D02*
X620987Y607532D01*
X626179Y607532D01*
X624881Y602339D02*
X620987Y602339D01*
X630870Y607532D02*
X630870Y595848D01*
X630870Y607532D02*
X634115Y607532D01*
X634228Y607530D01*
X634341Y607524D01*
X634454Y607514D01*
X634567Y607500D01*
X634679Y607483D01*
X634790Y607461D01*
X634900Y607436D01*
X635010Y607406D01*
X635118Y607373D01*
X635225Y607336D01*
X635331Y607296D01*
X635435Y607251D01*
X635538Y607203D01*
X635639Y607152D01*
X635738Y607097D01*
X635835Y607039D01*
X635930Y606977D01*
X636023Y606912D01*
X636113Y606844D01*
X636201Y606773D01*
X636287Y606698D01*
X636370Y606621D01*
X636450Y606541D01*
X636527Y606458D01*
X636602Y606372D01*
X636673Y606284D01*
X636741Y606194D01*
X636806Y606101D01*
X636868Y606006D01*
X636926Y605909D01*
X636981Y605810D01*
X637032Y605709D01*
X637080Y605606D01*
X637125Y605502D01*
X637165Y605396D01*
X637202Y605289D01*
X637235Y605181D01*
X637265Y605071D01*
X637290Y604961D01*
X637312Y604850D01*
X637329Y604738D01*
X637343Y604625D01*
X637353Y604512D01*
X637359Y604399D01*
X637361Y604286D01*
X637361Y599094D01*
X637362Y599094D02*
X637360Y598981D01*
X637354Y598868D01*
X637344Y598755D01*
X637330Y598642D01*
X637313Y598530D01*
X637291Y598419D01*
X637266Y598309D01*
X637236Y598199D01*
X637203Y598091D01*
X637166Y597984D01*
X637126Y597878D01*
X637081Y597774D01*
X637033Y597671D01*
X636982Y597570D01*
X636927Y597471D01*
X636869Y597374D01*
X636807Y597279D01*
X636742Y597186D01*
X636674Y597096D01*
X636603Y597008D01*
X636528Y596922D01*
X636451Y596839D01*
X636371Y596759D01*
X636288Y596682D01*
X636202Y596607D01*
X636114Y596536D01*
X636024Y596468D01*
X635931Y596403D01*
X635836Y596341D01*
X635739Y596283D01*
X635640Y596228D01*
X635539Y596177D01*
X635436Y596129D01*
X635332Y596084D01*
X635226Y596044D01*
X635119Y596007D01*
X635011Y595974D01*
X634901Y595944D01*
X634791Y595919D01*
X634680Y595897D01*
X634568Y595880D01*
X634455Y595866D01*
X634342Y595856D01*
X634229Y595850D01*
X634116Y595848D01*
X634115Y595848D02*
X630870Y595848D01*
X642681Y598444D02*
X645277Y607532D01*
X642681Y598444D02*
X649172Y598444D01*
X647225Y601041D02*
X647225Y595848D01*
D10*
X513280Y1217740D02*
X513280Y1222820D01*
X515820Y1220280D02*
X510740Y1220280D01*
D12*
X528520Y1215200D02*
X571700Y1215200D01*
X528520Y1215200D02*
X520900Y1215200D01*
X520900Y1227900D01*
X520900Y1253300D01*
X520900Y1266000D01*
X528520Y1266000D01*
X571700Y1266000D01*
X520900Y1227900D02*
X495500Y1227900D01*
X495500Y1253300D02*
X520900Y1253300D01*
X571700Y1266000D02*
X572319Y1265992D01*
X572937Y1265970D01*
X573554Y1265932D01*
X574170Y1265880D01*
X574785Y1265812D01*
X575398Y1265729D01*
X576009Y1265632D01*
X576617Y1265519D01*
X577223Y1265392D01*
X577825Y1265250D01*
X578423Y1265094D01*
X579018Y1264923D01*
X579608Y1264738D01*
X580193Y1264538D01*
X580774Y1264324D01*
X581349Y1264096D01*
X581918Y1263854D01*
X582481Y1263598D01*
X583038Y1263329D01*
X583588Y1263046D01*
X584131Y1262750D01*
X584667Y1262441D01*
X585195Y1262119D01*
X585715Y1261784D01*
X586227Y1261436D01*
X586730Y1261076D01*
X587224Y1260704D01*
X587709Y1260320D01*
X588184Y1259924D01*
X588650Y1259517D01*
X589106Y1259099D01*
X589551Y1258670D01*
X589986Y1258229D01*
X590409Y1257779D01*
X590822Y1257318D01*
X591224Y1256848D01*
X591613Y1256367D01*
X591992Y1255878D01*
X592358Y1255379D01*
X592711Y1254872D01*
X593053Y1254356D01*
X593381Y1253832D01*
X593697Y1253300D01*
X594000Y1252761D01*
X594289Y1252214D01*
X594565Y1251660D01*
X594828Y1251100D01*
X595077Y1250534D01*
X595312Y1249962D01*
X595533Y1249384D01*
X595740Y1248801D01*
X595932Y1248213D01*
X596110Y1247621D01*
X596274Y1247025D01*
X596423Y1246424D01*
X596558Y1245820D01*
X596677Y1245214D01*
X596782Y1244604D01*
X596872Y1243992D01*
X596948Y1243378D01*
X597008Y1242762D01*
X597053Y1242145D01*
X597083Y1241528D01*
X597098Y1240909D01*
X597098Y1240291D01*
X597083Y1239672D01*
X597053Y1239055D01*
X597008Y1238438D01*
X596948Y1237822D01*
X596872Y1237208D01*
X596782Y1236596D01*
X596677Y1235986D01*
X596558Y1235380D01*
X596423Y1234776D01*
X596274Y1234175D01*
X596110Y1233579D01*
X595932Y1232987D01*
X595740Y1232399D01*
X595533Y1231816D01*
X595312Y1231238D01*
X595077Y1230666D01*
X594828Y1230100D01*
X594565Y1229540D01*
X594289Y1228986D01*
X594000Y1228439D01*
X593697Y1227900D01*
X593381Y1227368D01*
X593053Y1226844D01*
X592711Y1226328D01*
X592358Y1225821D01*
X591992Y1225322D01*
X591613Y1224833D01*
X591224Y1224352D01*
X590822Y1223882D01*
X590409Y1223421D01*
X589986Y1222971D01*
X589551Y1222530D01*
X589106Y1222101D01*
X588650Y1221683D01*
X588184Y1221276D01*
X587709Y1220880D01*
X587224Y1220496D01*
X586730Y1220124D01*
X586227Y1219764D01*
X585715Y1219416D01*
X585195Y1219081D01*
X584667Y1218759D01*
X584131Y1218450D01*
X583588Y1218154D01*
X583038Y1217871D01*
X582481Y1217602D01*
X581918Y1217346D01*
X581349Y1217104D01*
X580774Y1216876D01*
X580193Y1216662D01*
X579608Y1216462D01*
X579018Y1216277D01*
X578423Y1216106D01*
X577825Y1215950D01*
X577223Y1215808D01*
X576617Y1215681D01*
X576009Y1215568D01*
X575398Y1215471D01*
X574785Y1215388D01*
X574170Y1215320D01*
X573554Y1215268D01*
X572937Y1215230D01*
X572319Y1215208D01*
X571700Y1215200D01*
X528520Y1215200D02*
X528520Y1266000D01*
D11*
X411181Y1229932D02*
X411181Y1218248D01*
X416373Y1218248D01*
X421087Y1218248D02*
X426279Y1218248D01*
X421087Y1218248D02*
X421087Y1229932D01*
X426279Y1229932D01*
X424981Y1224739D02*
X421087Y1224739D01*
X430970Y1229932D02*
X430970Y1218248D01*
X430970Y1229932D02*
X434215Y1229932D01*
X434328Y1229930D01*
X434441Y1229924D01*
X434554Y1229914D01*
X434667Y1229900D01*
X434779Y1229883D01*
X434890Y1229861D01*
X435000Y1229836D01*
X435110Y1229806D01*
X435218Y1229773D01*
X435325Y1229736D01*
X435431Y1229696D01*
X435535Y1229651D01*
X435638Y1229603D01*
X435739Y1229552D01*
X435838Y1229497D01*
X435935Y1229439D01*
X436030Y1229377D01*
X436123Y1229312D01*
X436213Y1229244D01*
X436301Y1229173D01*
X436387Y1229098D01*
X436470Y1229021D01*
X436550Y1228941D01*
X436627Y1228858D01*
X436702Y1228772D01*
X436773Y1228684D01*
X436841Y1228594D01*
X436906Y1228501D01*
X436968Y1228406D01*
X437026Y1228309D01*
X437081Y1228210D01*
X437132Y1228109D01*
X437180Y1228006D01*
X437225Y1227902D01*
X437265Y1227796D01*
X437302Y1227689D01*
X437335Y1227581D01*
X437365Y1227471D01*
X437390Y1227361D01*
X437412Y1227250D01*
X437429Y1227138D01*
X437443Y1227025D01*
X437453Y1226912D01*
X437459Y1226799D01*
X437461Y1226686D01*
X437461Y1221494D01*
X437462Y1221494D02*
X437460Y1221381D01*
X437454Y1221268D01*
X437444Y1221155D01*
X437430Y1221042D01*
X437413Y1220930D01*
X437391Y1220819D01*
X437366Y1220709D01*
X437336Y1220599D01*
X437303Y1220491D01*
X437266Y1220384D01*
X437226Y1220278D01*
X437181Y1220174D01*
X437133Y1220071D01*
X437082Y1219970D01*
X437027Y1219871D01*
X436969Y1219774D01*
X436907Y1219679D01*
X436842Y1219586D01*
X436774Y1219496D01*
X436703Y1219408D01*
X436628Y1219322D01*
X436551Y1219239D01*
X436471Y1219159D01*
X436388Y1219082D01*
X436302Y1219007D01*
X436214Y1218936D01*
X436124Y1218868D01*
X436031Y1218803D01*
X435936Y1218741D01*
X435839Y1218683D01*
X435740Y1218628D01*
X435639Y1218577D01*
X435536Y1218529D01*
X435432Y1218484D01*
X435326Y1218444D01*
X435219Y1218407D01*
X435111Y1218374D01*
X435001Y1218344D01*
X434891Y1218319D01*
X434780Y1218297D01*
X434668Y1218280D01*
X434555Y1218266D01*
X434442Y1218256D01*
X434329Y1218250D01*
X434216Y1218248D01*
X434215Y1218248D02*
X430970Y1218248D01*
X442781Y1218248D02*
X446676Y1218248D01*
X446775Y1218250D01*
X446875Y1218256D01*
X446974Y1218265D01*
X447072Y1218278D01*
X447170Y1218295D01*
X447268Y1218316D01*
X447364Y1218341D01*
X447459Y1218369D01*
X447553Y1218401D01*
X447646Y1218436D01*
X447738Y1218475D01*
X447828Y1218518D01*
X447916Y1218563D01*
X448003Y1218613D01*
X448087Y1218665D01*
X448170Y1218721D01*
X448250Y1218779D01*
X448328Y1218841D01*
X448403Y1218906D01*
X448476Y1218974D01*
X448546Y1219044D01*
X448614Y1219117D01*
X448679Y1219192D01*
X448741Y1219270D01*
X448799Y1219350D01*
X448855Y1219433D01*
X448907Y1219517D01*
X448957Y1219604D01*
X449002Y1219692D01*
X449045Y1219782D01*
X449084Y1219874D01*
X449119Y1219967D01*
X449151Y1220061D01*
X449179Y1220156D01*
X449204Y1220252D01*
X449225Y1220350D01*
X449242Y1220448D01*
X449255Y1220546D01*
X449264Y1220645D01*
X449270Y1220745D01*
X449272Y1220844D01*
X449272Y1222143D01*
X449270Y1222242D01*
X449264Y1222342D01*
X449255Y1222441D01*
X449242Y1222539D01*
X449225Y1222637D01*
X449204Y1222735D01*
X449179Y1222831D01*
X449151Y1222926D01*
X449119Y1223020D01*
X449084Y1223113D01*
X449045Y1223205D01*
X449002Y1223295D01*
X448957Y1223383D01*
X448907Y1223470D01*
X448855Y1223554D01*
X448799Y1223637D01*
X448741Y1223717D01*
X448679Y1223795D01*
X448614Y1223870D01*
X448546Y1223943D01*
X448476Y1224013D01*
X448403Y1224081D01*
X448328Y1224146D01*
X448250Y1224208D01*
X448170Y1224266D01*
X448087Y1224322D01*
X448003Y1224374D01*
X447916Y1224424D01*
X447828Y1224469D01*
X447738Y1224512D01*
X447646Y1224551D01*
X447553Y1224586D01*
X447459Y1224618D01*
X447364Y1224646D01*
X447268Y1224671D01*
X447170Y1224692D01*
X447072Y1224709D01*
X446974Y1224722D01*
X446875Y1224731D01*
X446775Y1224737D01*
X446676Y1224739D01*
X442781Y1224739D01*
X442781Y1229932D01*
X449272Y1229932D01*
D10*
X282020Y1211960D02*
X282020Y1206880D01*
X279480Y1209420D02*
X284560Y1209420D01*
D12*
X266780Y1214500D02*
X223600Y1214500D01*
X266780Y1214500D02*
X274400Y1214500D01*
X274400Y1201800D01*
X274400Y1176400D01*
X274400Y1163700D01*
X266780Y1163700D01*
X223600Y1163700D01*
X274400Y1201800D02*
X299800Y1201800D01*
X299800Y1176400D02*
X274400Y1176400D01*
X223600Y1163700D02*
X222981Y1163708D01*
X222363Y1163730D01*
X221746Y1163768D01*
X221130Y1163820D01*
X220515Y1163888D01*
X219902Y1163971D01*
X219291Y1164068D01*
X218683Y1164181D01*
X218077Y1164308D01*
X217475Y1164450D01*
X216877Y1164606D01*
X216282Y1164777D01*
X215692Y1164962D01*
X215107Y1165162D01*
X214526Y1165376D01*
X213951Y1165604D01*
X213382Y1165846D01*
X212819Y1166102D01*
X212262Y1166371D01*
X211712Y1166654D01*
X211169Y1166950D01*
X210633Y1167259D01*
X210105Y1167581D01*
X209585Y1167916D01*
X209073Y1168264D01*
X208570Y1168624D01*
X208076Y1168996D01*
X207591Y1169380D01*
X207116Y1169776D01*
X206650Y1170183D01*
X206194Y1170601D01*
X205749Y1171030D01*
X205314Y1171471D01*
X204891Y1171921D01*
X204478Y1172382D01*
X204076Y1172852D01*
X203687Y1173333D01*
X203308Y1173822D01*
X202942Y1174321D01*
X202589Y1174828D01*
X202247Y1175344D01*
X201919Y1175868D01*
X201603Y1176400D01*
X201300Y1176939D01*
X201011Y1177486D01*
X200735Y1178040D01*
X200472Y1178600D01*
X200223Y1179166D01*
X199988Y1179738D01*
X199767Y1180316D01*
X199560Y1180899D01*
X199368Y1181487D01*
X199190Y1182079D01*
X199026Y1182675D01*
X198877Y1183276D01*
X198742Y1183880D01*
X198623Y1184486D01*
X198518Y1185096D01*
X198428Y1185708D01*
X198352Y1186322D01*
X198292Y1186938D01*
X198247Y1187555D01*
X198217Y1188172D01*
X198202Y1188791D01*
X198202Y1189409D01*
X198217Y1190028D01*
X198247Y1190645D01*
X198292Y1191262D01*
X198352Y1191878D01*
X198428Y1192492D01*
X198518Y1193104D01*
X198623Y1193714D01*
X198742Y1194320D01*
X198877Y1194924D01*
X199026Y1195525D01*
X199190Y1196121D01*
X199368Y1196713D01*
X199560Y1197301D01*
X199767Y1197884D01*
X199988Y1198462D01*
X200223Y1199034D01*
X200472Y1199600D01*
X200735Y1200160D01*
X201011Y1200714D01*
X201300Y1201261D01*
X201603Y1201800D01*
X201919Y1202332D01*
X202247Y1202856D01*
X202589Y1203372D01*
X202942Y1203879D01*
X203308Y1204378D01*
X203687Y1204867D01*
X204076Y1205348D01*
X204478Y1205818D01*
X204891Y1206279D01*
X205314Y1206729D01*
X205749Y1207170D01*
X206194Y1207599D01*
X206650Y1208017D01*
X207116Y1208424D01*
X207591Y1208820D01*
X208076Y1209204D01*
X208570Y1209576D01*
X209073Y1209936D01*
X209585Y1210284D01*
X210105Y1210619D01*
X210633Y1210941D01*
X211169Y1211250D01*
X211712Y1211546D01*
X212262Y1211829D01*
X212819Y1212098D01*
X213382Y1212354D01*
X213951Y1212596D01*
X214526Y1212824D01*
X215107Y1213038D01*
X215692Y1213238D01*
X216282Y1213423D01*
X216877Y1213594D01*
X217475Y1213750D01*
X218077Y1213892D01*
X218683Y1214019D01*
X219291Y1214132D01*
X219902Y1214229D01*
X220515Y1214312D01*
X221130Y1214380D01*
X221746Y1214432D01*
X222363Y1214470D01*
X222981Y1214492D01*
X223600Y1214500D01*
X266780Y1214500D02*
X266780Y1163700D01*
D11*
X346028Y1199768D02*
X346028Y1211452D01*
X346028Y1199768D02*
X351221Y1199768D01*
X355934Y1199768D02*
X361127Y1199768D01*
X355934Y1199768D02*
X355934Y1211452D01*
X361127Y1211452D01*
X359829Y1206259D02*
X355934Y1206259D01*
X365817Y1211452D02*
X365817Y1199768D01*
X365817Y1211452D02*
X369063Y1211452D01*
X369176Y1211450D01*
X369289Y1211444D01*
X369402Y1211434D01*
X369515Y1211420D01*
X369627Y1211403D01*
X369738Y1211381D01*
X369848Y1211356D01*
X369958Y1211326D01*
X370066Y1211293D01*
X370173Y1211256D01*
X370279Y1211216D01*
X370383Y1211171D01*
X370486Y1211123D01*
X370587Y1211072D01*
X370686Y1211017D01*
X370783Y1210959D01*
X370878Y1210897D01*
X370971Y1210832D01*
X371061Y1210764D01*
X371149Y1210693D01*
X371235Y1210618D01*
X371318Y1210541D01*
X371398Y1210461D01*
X371475Y1210378D01*
X371550Y1210292D01*
X371621Y1210204D01*
X371689Y1210114D01*
X371754Y1210021D01*
X371816Y1209926D01*
X371874Y1209829D01*
X371929Y1209730D01*
X371980Y1209629D01*
X372028Y1209526D01*
X372073Y1209422D01*
X372113Y1209316D01*
X372150Y1209209D01*
X372183Y1209101D01*
X372213Y1208991D01*
X372238Y1208881D01*
X372260Y1208770D01*
X372277Y1208658D01*
X372291Y1208545D01*
X372301Y1208432D01*
X372307Y1208319D01*
X372309Y1208206D01*
X372309Y1203014D01*
X372307Y1202901D01*
X372301Y1202788D01*
X372291Y1202675D01*
X372277Y1202562D01*
X372260Y1202450D01*
X372238Y1202339D01*
X372213Y1202229D01*
X372183Y1202119D01*
X372150Y1202011D01*
X372113Y1201904D01*
X372073Y1201798D01*
X372028Y1201694D01*
X371980Y1201591D01*
X371929Y1201490D01*
X371874Y1201391D01*
X371816Y1201294D01*
X371754Y1201199D01*
X371689Y1201106D01*
X371621Y1201016D01*
X371550Y1200928D01*
X371475Y1200842D01*
X371398Y1200759D01*
X371318Y1200679D01*
X371235Y1200602D01*
X371149Y1200527D01*
X371061Y1200456D01*
X370971Y1200388D01*
X370878Y1200323D01*
X370783Y1200261D01*
X370686Y1200203D01*
X370587Y1200148D01*
X370486Y1200097D01*
X370383Y1200049D01*
X370279Y1200004D01*
X370173Y1199964D01*
X370066Y1199927D01*
X369958Y1199894D01*
X369848Y1199864D01*
X369738Y1199839D01*
X369627Y1199817D01*
X369515Y1199800D01*
X369402Y1199786D01*
X369289Y1199776D01*
X369176Y1199770D01*
X369063Y1199768D01*
X365817Y1199768D01*
X377628Y1206259D02*
X381523Y1206259D01*
X381622Y1206257D01*
X381722Y1206251D01*
X381821Y1206242D01*
X381919Y1206229D01*
X382017Y1206212D01*
X382115Y1206191D01*
X382211Y1206166D01*
X382306Y1206138D01*
X382400Y1206106D01*
X382493Y1206071D01*
X382585Y1206032D01*
X382675Y1205989D01*
X382763Y1205944D01*
X382850Y1205894D01*
X382934Y1205842D01*
X383017Y1205786D01*
X383097Y1205728D01*
X383175Y1205666D01*
X383250Y1205601D01*
X383323Y1205533D01*
X383393Y1205463D01*
X383461Y1205390D01*
X383526Y1205315D01*
X383588Y1205237D01*
X383646Y1205157D01*
X383702Y1205074D01*
X383754Y1204990D01*
X383804Y1204903D01*
X383849Y1204815D01*
X383892Y1204725D01*
X383931Y1204633D01*
X383966Y1204540D01*
X383998Y1204446D01*
X384026Y1204351D01*
X384051Y1204255D01*
X384072Y1204157D01*
X384089Y1204059D01*
X384102Y1203961D01*
X384111Y1203862D01*
X384117Y1203762D01*
X384119Y1203663D01*
X384119Y1203014D01*
X384120Y1203014D02*
X384118Y1202901D01*
X384112Y1202788D01*
X384102Y1202675D01*
X384088Y1202562D01*
X384071Y1202450D01*
X384049Y1202339D01*
X384024Y1202229D01*
X383994Y1202119D01*
X383961Y1202011D01*
X383924Y1201904D01*
X383884Y1201798D01*
X383839Y1201694D01*
X383791Y1201591D01*
X383740Y1201490D01*
X383685Y1201391D01*
X383627Y1201294D01*
X383565Y1201199D01*
X383500Y1201106D01*
X383432Y1201016D01*
X383361Y1200928D01*
X383286Y1200842D01*
X383209Y1200759D01*
X383129Y1200679D01*
X383046Y1200602D01*
X382960Y1200527D01*
X382872Y1200456D01*
X382782Y1200388D01*
X382689Y1200323D01*
X382594Y1200261D01*
X382497Y1200203D01*
X382398Y1200148D01*
X382297Y1200097D01*
X382194Y1200049D01*
X382090Y1200004D01*
X381984Y1199964D01*
X381877Y1199927D01*
X381769Y1199894D01*
X381659Y1199864D01*
X381549Y1199839D01*
X381438Y1199817D01*
X381326Y1199800D01*
X381213Y1199786D01*
X381100Y1199776D01*
X380987Y1199770D01*
X380874Y1199768D01*
X380761Y1199770D01*
X380648Y1199776D01*
X380535Y1199786D01*
X380422Y1199800D01*
X380310Y1199817D01*
X380199Y1199839D01*
X380089Y1199864D01*
X379979Y1199894D01*
X379871Y1199927D01*
X379764Y1199964D01*
X379658Y1200004D01*
X379554Y1200049D01*
X379451Y1200097D01*
X379350Y1200148D01*
X379251Y1200203D01*
X379154Y1200261D01*
X379059Y1200323D01*
X378966Y1200388D01*
X378876Y1200456D01*
X378788Y1200527D01*
X378702Y1200602D01*
X378619Y1200679D01*
X378539Y1200759D01*
X378462Y1200842D01*
X378387Y1200928D01*
X378316Y1201016D01*
X378248Y1201106D01*
X378183Y1201199D01*
X378121Y1201294D01*
X378063Y1201391D01*
X378008Y1201490D01*
X377957Y1201591D01*
X377909Y1201694D01*
X377864Y1201798D01*
X377824Y1201904D01*
X377787Y1202011D01*
X377754Y1202119D01*
X377724Y1202229D01*
X377699Y1202339D01*
X377677Y1202450D01*
X377660Y1202562D01*
X377646Y1202675D01*
X377636Y1202788D01*
X377630Y1202901D01*
X377628Y1203014D01*
X377628Y1206259D01*
X377630Y1206402D01*
X377636Y1206545D01*
X377646Y1206688D01*
X377660Y1206830D01*
X377677Y1206972D01*
X377699Y1207114D01*
X377724Y1207255D01*
X377754Y1207395D01*
X377787Y1207534D01*
X377824Y1207672D01*
X377865Y1207809D01*
X377909Y1207945D01*
X377958Y1208080D01*
X378010Y1208213D01*
X378065Y1208345D01*
X378125Y1208475D01*
X378188Y1208604D01*
X378254Y1208731D01*
X378324Y1208855D01*
X378397Y1208978D01*
X378474Y1209099D01*
X378554Y1209218D01*
X378637Y1209334D01*
X378723Y1209449D01*
X378812Y1209560D01*
X378905Y1209670D01*
X379000Y1209776D01*
X379099Y1209880D01*
X379200Y1209981D01*
X379304Y1210080D01*
X379410Y1210175D01*
X379520Y1210268D01*
X379631Y1210357D01*
X379746Y1210443D01*
X379862Y1210526D01*
X379981Y1210606D01*
X380102Y1210683D01*
X380224Y1210756D01*
X380349Y1210826D01*
X380476Y1210892D01*
X380605Y1210955D01*
X380735Y1211015D01*
X380867Y1211070D01*
X381000Y1211122D01*
X381135Y1211171D01*
X381271Y1211215D01*
X381408Y1211256D01*
X381546Y1211293D01*
X381685Y1211326D01*
X381825Y1211356D01*
X381966Y1211381D01*
X382108Y1211403D01*
X382250Y1211420D01*
X382392Y1211434D01*
X382535Y1211444D01*
X382678Y1211450D01*
X382821Y1211452D01*
D10*
X730080Y374520D02*
X730080Y369440D01*
X732620Y371980D02*
X727540Y371980D01*
D12*
X745320Y366900D02*
X788500Y366900D01*
X745320Y366900D02*
X737700Y366900D01*
X737700Y379600D01*
X737700Y405000D01*
X737700Y417700D01*
X745320Y417700D01*
X788500Y417700D01*
X737700Y379600D02*
X712300Y379600D01*
X712300Y405000D02*
X737700Y405000D01*
X788500Y417700D02*
X789119Y417692D01*
X789737Y417670D01*
X790354Y417632D01*
X790970Y417580D01*
X791585Y417512D01*
X792198Y417429D01*
X792809Y417332D01*
X793417Y417219D01*
X794023Y417092D01*
X794625Y416950D01*
X795223Y416794D01*
X795818Y416623D01*
X796408Y416438D01*
X796993Y416238D01*
X797574Y416024D01*
X798149Y415796D01*
X798718Y415554D01*
X799281Y415298D01*
X799838Y415029D01*
X800388Y414746D01*
X800931Y414450D01*
X801467Y414141D01*
X801995Y413819D01*
X802515Y413484D01*
X803027Y413136D01*
X803530Y412776D01*
X804024Y412404D01*
X804509Y412020D01*
X804984Y411624D01*
X805450Y411217D01*
X805906Y410799D01*
X806351Y410370D01*
X806786Y409929D01*
X807209Y409479D01*
X807622Y409018D01*
X808024Y408548D01*
X808413Y408067D01*
X808792Y407578D01*
X809158Y407079D01*
X809511Y406572D01*
X809853Y406056D01*
X810181Y405532D01*
X810497Y405000D01*
X810800Y404461D01*
X811089Y403914D01*
X811365Y403360D01*
X811628Y402800D01*
X811877Y402234D01*
X812112Y401662D01*
X812333Y401084D01*
X812540Y400501D01*
X812732Y399913D01*
X812910Y399321D01*
X813074Y398725D01*
X813223Y398124D01*
X813358Y397520D01*
X813477Y396914D01*
X813582Y396304D01*
X813672Y395692D01*
X813748Y395078D01*
X813808Y394462D01*
X813853Y393845D01*
X813883Y393228D01*
X813898Y392609D01*
X813898Y391991D01*
X813883Y391372D01*
X813853Y390755D01*
X813808Y390138D01*
X813748Y389522D01*
X813672Y388908D01*
X813582Y388296D01*
X813477Y387686D01*
X813358Y387080D01*
X813223Y386476D01*
X813074Y385875D01*
X812910Y385279D01*
X812732Y384687D01*
X812540Y384099D01*
X812333Y383516D01*
X812112Y382938D01*
X811877Y382366D01*
X811628Y381800D01*
X811365Y381240D01*
X811089Y380686D01*
X810800Y380139D01*
X810497Y379600D01*
X810181Y379068D01*
X809853Y378544D01*
X809511Y378028D01*
X809158Y377521D01*
X808792Y377022D01*
X808413Y376533D01*
X808024Y376052D01*
X807622Y375582D01*
X807209Y375121D01*
X806786Y374671D01*
X806351Y374230D01*
X805906Y373801D01*
X805450Y373383D01*
X804984Y372976D01*
X804509Y372580D01*
X804024Y372196D01*
X803530Y371824D01*
X803027Y371464D01*
X802515Y371116D01*
X801995Y370781D01*
X801467Y370459D01*
X800931Y370150D01*
X800388Y369854D01*
X799838Y369571D01*
X799281Y369302D01*
X798718Y369046D01*
X798149Y368804D01*
X797574Y368576D01*
X796993Y368362D01*
X796408Y368162D01*
X795818Y367977D01*
X795223Y367806D01*
X794625Y367650D01*
X794023Y367508D01*
X793417Y367381D01*
X792809Y367268D01*
X792198Y367171D01*
X791585Y367088D01*
X790970Y367020D01*
X790354Y366968D01*
X789737Y366930D01*
X789119Y366908D01*
X788500Y366900D01*
X745320Y366900D02*
X745320Y417700D01*
D11*
X627981Y381632D02*
X627981Y369948D01*
X633173Y369948D01*
X637887Y369948D02*
X643079Y369948D01*
X637887Y369948D02*
X637887Y381632D01*
X643079Y381632D01*
X641781Y376439D02*
X637887Y376439D01*
X647770Y381632D02*
X647770Y369948D01*
X647770Y381632D02*
X651015Y381632D01*
X651128Y381630D01*
X651241Y381624D01*
X651354Y381614D01*
X651467Y381600D01*
X651579Y381583D01*
X651690Y381561D01*
X651800Y381536D01*
X651910Y381506D01*
X652018Y381473D01*
X652125Y381436D01*
X652231Y381396D01*
X652335Y381351D01*
X652438Y381303D01*
X652539Y381252D01*
X652638Y381197D01*
X652735Y381139D01*
X652830Y381077D01*
X652923Y381012D01*
X653013Y380944D01*
X653101Y380873D01*
X653187Y380798D01*
X653270Y380721D01*
X653350Y380641D01*
X653427Y380558D01*
X653502Y380472D01*
X653573Y380384D01*
X653641Y380294D01*
X653706Y380201D01*
X653768Y380106D01*
X653826Y380009D01*
X653881Y379910D01*
X653932Y379809D01*
X653980Y379706D01*
X654025Y379602D01*
X654065Y379496D01*
X654102Y379389D01*
X654135Y379281D01*
X654165Y379171D01*
X654190Y379061D01*
X654212Y378950D01*
X654229Y378838D01*
X654243Y378725D01*
X654253Y378612D01*
X654259Y378499D01*
X654261Y378386D01*
X654261Y373194D01*
X654262Y373194D02*
X654260Y373081D01*
X654254Y372968D01*
X654244Y372855D01*
X654230Y372742D01*
X654213Y372630D01*
X654191Y372519D01*
X654166Y372409D01*
X654136Y372299D01*
X654103Y372191D01*
X654066Y372084D01*
X654026Y371978D01*
X653981Y371874D01*
X653933Y371771D01*
X653882Y371670D01*
X653827Y371571D01*
X653769Y371474D01*
X653707Y371379D01*
X653642Y371286D01*
X653574Y371196D01*
X653503Y371108D01*
X653428Y371022D01*
X653351Y370939D01*
X653271Y370859D01*
X653188Y370782D01*
X653102Y370707D01*
X653014Y370636D01*
X652924Y370568D01*
X652831Y370503D01*
X652736Y370441D01*
X652639Y370383D01*
X652540Y370328D01*
X652439Y370277D01*
X652336Y370229D01*
X652232Y370184D01*
X652126Y370144D01*
X652019Y370107D01*
X651911Y370074D01*
X651801Y370044D01*
X651691Y370019D01*
X651580Y369997D01*
X651468Y369980D01*
X651355Y369966D01*
X651242Y369956D01*
X651129Y369950D01*
X651016Y369948D01*
X651015Y369948D02*
X647770Y369948D01*
X659581Y380334D02*
X659581Y381632D01*
X666072Y381632D01*
X662826Y369948D01*
D10*
X-4180Y309460D02*
X-4180Y304380D01*
X-6720Y306920D02*
X-1640Y306920D01*
D12*
X-19420Y312000D02*
X-62600Y312000D01*
X-19420Y312000D02*
X-11800Y312000D01*
X-11800Y299300D01*
X-11800Y273900D01*
X-11800Y261200D01*
X-19420Y261200D01*
X-62600Y261200D01*
X-11800Y299300D02*
X13600Y299300D01*
X13600Y273900D02*
X-11800Y273900D01*
X-62600Y261200D02*
X-63219Y261208D01*
X-63837Y261230D01*
X-64454Y261268D01*
X-65070Y261320D01*
X-65685Y261388D01*
X-66298Y261471D01*
X-66909Y261568D01*
X-67517Y261681D01*
X-68123Y261808D01*
X-68725Y261950D01*
X-69323Y262106D01*
X-69918Y262277D01*
X-70508Y262462D01*
X-71093Y262662D01*
X-71674Y262876D01*
X-72249Y263104D01*
X-72818Y263346D01*
X-73381Y263602D01*
X-73938Y263871D01*
X-74488Y264154D01*
X-75031Y264450D01*
X-75567Y264759D01*
X-76095Y265081D01*
X-76615Y265416D01*
X-77127Y265764D01*
X-77630Y266124D01*
X-78124Y266496D01*
X-78609Y266880D01*
X-79084Y267276D01*
X-79550Y267683D01*
X-80006Y268101D01*
X-80451Y268530D01*
X-80886Y268971D01*
X-81309Y269421D01*
X-81722Y269882D01*
X-82124Y270352D01*
X-82513Y270833D01*
X-82892Y271322D01*
X-83258Y271821D01*
X-83611Y272328D01*
X-83953Y272844D01*
X-84281Y273368D01*
X-84597Y273900D01*
X-84900Y274439D01*
X-85189Y274986D01*
X-85465Y275540D01*
X-85728Y276100D01*
X-85977Y276666D01*
X-86212Y277238D01*
X-86433Y277816D01*
X-86640Y278399D01*
X-86832Y278987D01*
X-87010Y279579D01*
X-87174Y280175D01*
X-87323Y280776D01*
X-87458Y281380D01*
X-87577Y281986D01*
X-87682Y282596D01*
X-87772Y283208D01*
X-87848Y283822D01*
X-87908Y284438D01*
X-87953Y285055D01*
X-87983Y285672D01*
X-87998Y286291D01*
X-87998Y286909D01*
X-87983Y287528D01*
X-87953Y288145D01*
X-87908Y288762D01*
X-87848Y289378D01*
X-87772Y289992D01*
X-87682Y290604D01*
X-87577Y291214D01*
X-87458Y291820D01*
X-87323Y292424D01*
X-87174Y293025D01*
X-87010Y293621D01*
X-86832Y294213D01*
X-86640Y294801D01*
X-86433Y295384D01*
X-86212Y295962D01*
X-85977Y296534D01*
X-85728Y297100D01*
X-85465Y297660D01*
X-85189Y298214D01*
X-84900Y298761D01*
X-84597Y299300D01*
X-84281Y299832D01*
X-83953Y300356D01*
X-83611Y300872D01*
X-83258Y301379D01*
X-82892Y301878D01*
X-82513Y302367D01*
X-82124Y302848D01*
X-81722Y303318D01*
X-81309Y303779D01*
X-80886Y304229D01*
X-80451Y304670D01*
X-80006Y305099D01*
X-79550Y305517D01*
X-79084Y305924D01*
X-78609Y306320D01*
X-78124Y306704D01*
X-77630Y307076D01*
X-77127Y307436D01*
X-76615Y307784D01*
X-76095Y308119D01*
X-75567Y308441D01*
X-75031Y308750D01*
X-74488Y309046D01*
X-73938Y309329D01*
X-73381Y309598D01*
X-72818Y309854D01*
X-72249Y310096D01*
X-71674Y310324D01*
X-71093Y310538D01*
X-70508Y310738D01*
X-69918Y310923D01*
X-69323Y311094D01*
X-68725Y311250D01*
X-68123Y311392D01*
X-67517Y311519D01*
X-66909Y311632D01*
X-66298Y311729D01*
X-65685Y311812D01*
X-65070Y311880D01*
X-64454Y311932D01*
X-63837Y311970D01*
X-63219Y311992D01*
X-62600Y312000D01*
X-19420Y312000D02*
X-19420Y261200D01*
D11*
X59828Y297268D02*
X59828Y308952D01*
X59828Y297268D02*
X65021Y297268D01*
X69734Y297268D02*
X74927Y297268D01*
X69734Y297268D02*
X69734Y308952D01*
X74927Y308952D01*
X73629Y303759D02*
X69734Y303759D01*
X79617Y308952D02*
X79617Y297268D01*
X79617Y308952D02*
X82863Y308952D01*
X82976Y308950D01*
X83089Y308944D01*
X83202Y308934D01*
X83315Y308920D01*
X83427Y308903D01*
X83538Y308881D01*
X83648Y308856D01*
X83758Y308826D01*
X83866Y308793D01*
X83973Y308756D01*
X84079Y308716D01*
X84183Y308671D01*
X84286Y308623D01*
X84387Y308572D01*
X84486Y308517D01*
X84583Y308459D01*
X84678Y308397D01*
X84771Y308332D01*
X84861Y308264D01*
X84949Y308193D01*
X85035Y308118D01*
X85118Y308041D01*
X85198Y307961D01*
X85275Y307878D01*
X85350Y307792D01*
X85421Y307704D01*
X85489Y307614D01*
X85554Y307521D01*
X85616Y307426D01*
X85674Y307329D01*
X85729Y307230D01*
X85780Y307129D01*
X85828Y307026D01*
X85873Y306922D01*
X85913Y306816D01*
X85950Y306709D01*
X85983Y306601D01*
X86013Y306491D01*
X86038Y306381D01*
X86060Y306270D01*
X86077Y306158D01*
X86091Y306045D01*
X86101Y305932D01*
X86107Y305819D01*
X86109Y305706D01*
X86109Y300514D01*
X86107Y300401D01*
X86101Y300288D01*
X86091Y300175D01*
X86077Y300062D01*
X86060Y299950D01*
X86038Y299839D01*
X86013Y299729D01*
X85983Y299619D01*
X85950Y299511D01*
X85913Y299404D01*
X85873Y299298D01*
X85828Y299194D01*
X85780Y299091D01*
X85729Y298990D01*
X85674Y298891D01*
X85616Y298794D01*
X85554Y298699D01*
X85489Y298606D01*
X85421Y298516D01*
X85350Y298428D01*
X85275Y298342D01*
X85198Y298259D01*
X85118Y298179D01*
X85035Y298102D01*
X84949Y298027D01*
X84861Y297956D01*
X84771Y297888D01*
X84678Y297823D01*
X84583Y297761D01*
X84486Y297703D01*
X84387Y297648D01*
X84286Y297597D01*
X84183Y297549D01*
X84079Y297504D01*
X83973Y297464D01*
X83866Y297427D01*
X83758Y297394D01*
X83648Y297364D01*
X83538Y297339D01*
X83427Y297317D01*
X83315Y297300D01*
X83202Y297286D01*
X83089Y297276D01*
X82976Y297270D01*
X82863Y297268D01*
X79617Y297268D01*
X91428Y300514D02*
X91430Y300627D01*
X91436Y300740D01*
X91446Y300853D01*
X91460Y300966D01*
X91477Y301078D01*
X91499Y301189D01*
X91524Y301299D01*
X91554Y301409D01*
X91587Y301517D01*
X91624Y301624D01*
X91664Y301730D01*
X91709Y301834D01*
X91757Y301937D01*
X91808Y302038D01*
X91863Y302137D01*
X91921Y302234D01*
X91983Y302329D01*
X92048Y302422D01*
X92116Y302512D01*
X92187Y302600D01*
X92262Y302686D01*
X92339Y302769D01*
X92419Y302849D01*
X92502Y302926D01*
X92588Y303001D01*
X92676Y303072D01*
X92766Y303140D01*
X92859Y303205D01*
X92954Y303267D01*
X93051Y303325D01*
X93150Y303380D01*
X93251Y303431D01*
X93354Y303479D01*
X93458Y303524D01*
X93564Y303564D01*
X93671Y303601D01*
X93779Y303634D01*
X93889Y303664D01*
X93999Y303689D01*
X94110Y303711D01*
X94222Y303728D01*
X94335Y303742D01*
X94448Y303752D01*
X94561Y303758D01*
X94674Y303760D01*
X94787Y303758D01*
X94900Y303752D01*
X95013Y303742D01*
X95126Y303728D01*
X95238Y303711D01*
X95349Y303689D01*
X95459Y303664D01*
X95569Y303634D01*
X95677Y303601D01*
X95784Y303564D01*
X95890Y303524D01*
X95994Y303479D01*
X96097Y303431D01*
X96198Y303380D01*
X96297Y303325D01*
X96394Y303267D01*
X96489Y303205D01*
X96582Y303140D01*
X96672Y303072D01*
X96760Y303001D01*
X96846Y302926D01*
X96929Y302849D01*
X97009Y302769D01*
X97086Y302686D01*
X97161Y302600D01*
X97232Y302512D01*
X97300Y302422D01*
X97365Y302329D01*
X97427Y302234D01*
X97485Y302137D01*
X97540Y302038D01*
X97591Y301937D01*
X97639Y301834D01*
X97684Y301730D01*
X97724Y301624D01*
X97761Y301517D01*
X97794Y301409D01*
X97824Y301299D01*
X97849Y301189D01*
X97871Y301078D01*
X97888Y300966D01*
X97902Y300853D01*
X97912Y300740D01*
X97918Y300627D01*
X97920Y300514D01*
X97918Y300401D01*
X97912Y300288D01*
X97902Y300175D01*
X97888Y300062D01*
X97871Y299950D01*
X97849Y299839D01*
X97824Y299729D01*
X97794Y299619D01*
X97761Y299511D01*
X97724Y299404D01*
X97684Y299298D01*
X97639Y299194D01*
X97591Y299091D01*
X97540Y298990D01*
X97485Y298891D01*
X97427Y298794D01*
X97365Y298699D01*
X97300Y298606D01*
X97232Y298516D01*
X97161Y298428D01*
X97086Y298342D01*
X97009Y298259D01*
X96929Y298179D01*
X96846Y298102D01*
X96760Y298027D01*
X96672Y297956D01*
X96582Y297888D01*
X96489Y297823D01*
X96394Y297761D01*
X96297Y297703D01*
X96198Y297648D01*
X96097Y297597D01*
X95994Y297549D01*
X95890Y297504D01*
X95784Y297464D01*
X95677Y297427D01*
X95569Y297394D01*
X95459Y297364D01*
X95349Y297339D01*
X95238Y297317D01*
X95126Y297300D01*
X95013Y297286D01*
X94900Y297276D01*
X94787Y297270D01*
X94674Y297268D01*
X94561Y297270D01*
X94448Y297276D01*
X94335Y297286D01*
X94222Y297300D01*
X94110Y297317D01*
X93999Y297339D01*
X93889Y297364D01*
X93779Y297394D01*
X93671Y297427D01*
X93564Y297464D01*
X93458Y297504D01*
X93354Y297549D01*
X93251Y297597D01*
X93150Y297648D01*
X93051Y297703D01*
X92954Y297761D01*
X92859Y297823D01*
X92766Y297888D01*
X92676Y297956D01*
X92588Y298027D01*
X92502Y298102D01*
X92419Y298179D01*
X92339Y298259D01*
X92262Y298342D01*
X92187Y298428D01*
X92116Y298516D01*
X92048Y298606D01*
X91983Y298699D01*
X91921Y298794D01*
X91863Y298891D01*
X91808Y298990D01*
X91757Y299091D01*
X91709Y299194D01*
X91664Y299298D01*
X91624Y299404D01*
X91587Y299511D01*
X91554Y299619D01*
X91524Y299729D01*
X91499Y299839D01*
X91477Y299950D01*
X91460Y300062D01*
X91446Y300175D01*
X91436Y300288D01*
X91430Y300401D01*
X91428Y300514D01*
X92078Y306356D02*
X92080Y306457D01*
X92086Y306557D01*
X92096Y306657D01*
X92109Y306757D01*
X92127Y306856D01*
X92148Y306955D01*
X92173Y307052D01*
X92202Y307149D01*
X92235Y307244D01*
X92271Y307338D01*
X92311Y307430D01*
X92354Y307521D01*
X92401Y307610D01*
X92451Y307697D01*
X92505Y307783D01*
X92562Y307866D01*
X92622Y307946D01*
X92685Y308025D01*
X92752Y308101D01*
X92821Y308174D01*
X92893Y308244D01*
X92967Y308312D01*
X93044Y308377D01*
X93124Y308438D01*
X93206Y308497D01*
X93290Y308552D01*
X93376Y308604D01*
X93464Y308653D01*
X93554Y308698D01*
X93646Y308740D01*
X93739Y308778D01*
X93834Y308812D01*
X93929Y308843D01*
X94026Y308870D01*
X94124Y308893D01*
X94223Y308913D01*
X94323Y308928D01*
X94423Y308940D01*
X94523Y308948D01*
X94624Y308952D01*
X94724Y308952D01*
X94825Y308948D01*
X94925Y308940D01*
X95025Y308928D01*
X95125Y308913D01*
X95224Y308893D01*
X95322Y308870D01*
X95419Y308843D01*
X95514Y308812D01*
X95609Y308778D01*
X95702Y308740D01*
X95794Y308698D01*
X95884Y308653D01*
X95972Y308604D01*
X96058Y308552D01*
X96142Y308497D01*
X96224Y308438D01*
X96304Y308377D01*
X96381Y308312D01*
X96455Y308244D01*
X96527Y308174D01*
X96596Y308101D01*
X96663Y308025D01*
X96726Y307946D01*
X96786Y307866D01*
X96843Y307783D01*
X96897Y307697D01*
X96947Y307610D01*
X96994Y307521D01*
X97037Y307430D01*
X97077Y307338D01*
X97113Y307244D01*
X97146Y307149D01*
X97175Y307052D01*
X97200Y306955D01*
X97221Y306856D01*
X97239Y306757D01*
X97252Y306657D01*
X97262Y306557D01*
X97268Y306457D01*
X97270Y306356D01*
X97268Y306255D01*
X97262Y306155D01*
X97252Y306055D01*
X97239Y305955D01*
X97221Y305856D01*
X97200Y305757D01*
X97175Y305660D01*
X97146Y305563D01*
X97113Y305468D01*
X97077Y305374D01*
X97037Y305282D01*
X96994Y305191D01*
X96947Y305102D01*
X96897Y305015D01*
X96843Y304929D01*
X96786Y304846D01*
X96726Y304766D01*
X96663Y304687D01*
X96596Y304611D01*
X96527Y304538D01*
X96455Y304468D01*
X96381Y304400D01*
X96304Y304335D01*
X96224Y304274D01*
X96142Y304215D01*
X96058Y304160D01*
X95972Y304108D01*
X95884Y304059D01*
X95794Y304014D01*
X95702Y303972D01*
X95609Y303934D01*
X95514Y303900D01*
X95419Y303869D01*
X95322Y303842D01*
X95224Y303819D01*
X95125Y303799D01*
X95025Y303784D01*
X94925Y303772D01*
X94825Y303764D01*
X94724Y303760D01*
X94624Y303760D01*
X94523Y303764D01*
X94423Y303772D01*
X94323Y303784D01*
X94223Y303799D01*
X94124Y303819D01*
X94026Y303842D01*
X93929Y303869D01*
X93834Y303900D01*
X93739Y303934D01*
X93646Y303972D01*
X93554Y304014D01*
X93464Y304059D01*
X93376Y304108D01*
X93290Y304160D01*
X93206Y304215D01*
X93124Y304274D01*
X93044Y304335D01*
X92967Y304400D01*
X92893Y304468D01*
X92821Y304538D01*
X92752Y304611D01*
X92685Y304687D01*
X92622Y304766D01*
X92562Y304846D01*
X92505Y304929D01*
X92451Y305015D01*
X92401Y305102D01*
X92354Y305191D01*
X92311Y305282D01*
X92271Y305374D01*
X92235Y305468D01*
X92202Y305563D01*
X92173Y305660D01*
X92148Y305757D01*
X92127Y305856D01*
X92109Y305955D01*
X92096Y306055D01*
X92086Y306155D01*
X92080Y306255D01*
X92078Y306356D01*
D10*
X604580Y898940D02*
X604580Y904020D01*
X607120Y901480D02*
X602040Y901480D01*
D12*
X619820Y896400D02*
X663000Y896400D01*
X619820Y896400D02*
X612200Y896400D01*
X612200Y909100D01*
X612200Y934500D01*
X612200Y947200D01*
X619820Y947200D01*
X663000Y947200D01*
X612200Y909100D02*
X586800Y909100D01*
X586800Y934500D02*
X612200Y934500D01*
X663000Y947200D02*
X663619Y947192D01*
X664237Y947170D01*
X664854Y947132D01*
X665470Y947080D01*
X666085Y947012D01*
X666698Y946929D01*
X667309Y946832D01*
X667917Y946719D01*
X668523Y946592D01*
X669125Y946450D01*
X669723Y946294D01*
X670318Y946123D01*
X670908Y945938D01*
X671493Y945738D01*
X672074Y945524D01*
X672649Y945296D01*
X673218Y945054D01*
X673781Y944798D01*
X674338Y944529D01*
X674888Y944246D01*
X675431Y943950D01*
X675967Y943641D01*
X676495Y943319D01*
X677015Y942984D01*
X677527Y942636D01*
X678030Y942276D01*
X678524Y941904D01*
X679009Y941520D01*
X679484Y941124D01*
X679950Y940717D01*
X680406Y940299D01*
X680851Y939870D01*
X681286Y939429D01*
X681709Y938979D01*
X682122Y938518D01*
X682524Y938048D01*
X682913Y937567D01*
X683292Y937078D01*
X683658Y936579D01*
X684011Y936072D01*
X684353Y935556D01*
X684681Y935032D01*
X684997Y934500D01*
X685300Y933961D01*
X685589Y933414D01*
X685865Y932860D01*
X686128Y932300D01*
X686377Y931734D01*
X686612Y931162D01*
X686833Y930584D01*
X687040Y930001D01*
X687232Y929413D01*
X687410Y928821D01*
X687574Y928225D01*
X687723Y927624D01*
X687858Y927020D01*
X687977Y926414D01*
X688082Y925804D01*
X688172Y925192D01*
X688248Y924578D01*
X688308Y923962D01*
X688353Y923345D01*
X688383Y922728D01*
X688398Y922109D01*
X688398Y921491D01*
X688383Y920872D01*
X688353Y920255D01*
X688308Y919638D01*
X688248Y919022D01*
X688172Y918408D01*
X688082Y917796D01*
X687977Y917186D01*
X687858Y916580D01*
X687723Y915976D01*
X687574Y915375D01*
X687410Y914779D01*
X687232Y914187D01*
X687040Y913599D01*
X686833Y913016D01*
X686612Y912438D01*
X686377Y911866D01*
X686128Y911300D01*
X685865Y910740D01*
X685589Y910186D01*
X685300Y909639D01*
X684997Y909100D01*
X684681Y908568D01*
X684353Y908044D01*
X684011Y907528D01*
X683658Y907021D01*
X683292Y906522D01*
X682913Y906033D01*
X682524Y905552D01*
X682122Y905082D01*
X681709Y904621D01*
X681286Y904171D01*
X680851Y903730D01*
X680406Y903301D01*
X679950Y902883D01*
X679484Y902476D01*
X679009Y902080D01*
X678524Y901696D01*
X678030Y901324D01*
X677527Y900964D01*
X677015Y900616D01*
X676495Y900281D01*
X675967Y899959D01*
X675431Y899650D01*
X674888Y899354D01*
X674338Y899071D01*
X673781Y898802D01*
X673218Y898546D01*
X672649Y898304D01*
X672074Y898076D01*
X671493Y897862D01*
X670908Y897662D01*
X670318Y897477D01*
X669723Y897306D01*
X669125Y897150D01*
X668523Y897008D01*
X667917Y896881D01*
X667309Y896768D01*
X666698Y896671D01*
X666085Y896588D01*
X665470Y896520D01*
X664854Y896468D01*
X664237Y896430D01*
X663619Y896408D01*
X663000Y896400D01*
X619820Y896400D02*
X619820Y947200D01*
D11*
X502481Y911132D02*
X502481Y899448D01*
X507673Y899448D01*
X512387Y899448D02*
X517579Y899448D01*
X512387Y899448D02*
X512387Y911132D01*
X517579Y911132D01*
X516281Y905939D02*
X512387Y905939D01*
X522270Y911132D02*
X522270Y899448D01*
X522270Y911132D02*
X525515Y911132D01*
X525628Y911130D01*
X525741Y911124D01*
X525854Y911114D01*
X525967Y911100D01*
X526079Y911083D01*
X526190Y911061D01*
X526300Y911036D01*
X526410Y911006D01*
X526518Y910973D01*
X526625Y910936D01*
X526731Y910896D01*
X526835Y910851D01*
X526938Y910803D01*
X527039Y910752D01*
X527138Y910697D01*
X527235Y910639D01*
X527330Y910577D01*
X527423Y910512D01*
X527513Y910444D01*
X527601Y910373D01*
X527687Y910298D01*
X527770Y910221D01*
X527850Y910141D01*
X527927Y910058D01*
X528002Y909972D01*
X528073Y909884D01*
X528141Y909794D01*
X528206Y909701D01*
X528268Y909606D01*
X528326Y909509D01*
X528381Y909410D01*
X528432Y909309D01*
X528480Y909206D01*
X528525Y909102D01*
X528565Y908996D01*
X528602Y908889D01*
X528635Y908781D01*
X528665Y908671D01*
X528690Y908561D01*
X528712Y908450D01*
X528729Y908338D01*
X528743Y908225D01*
X528753Y908112D01*
X528759Y907999D01*
X528761Y907886D01*
X528761Y902694D01*
X528762Y902694D02*
X528760Y902581D01*
X528754Y902468D01*
X528744Y902355D01*
X528730Y902242D01*
X528713Y902130D01*
X528691Y902019D01*
X528666Y901909D01*
X528636Y901799D01*
X528603Y901691D01*
X528566Y901584D01*
X528526Y901478D01*
X528481Y901374D01*
X528433Y901271D01*
X528382Y901170D01*
X528327Y901071D01*
X528269Y900974D01*
X528207Y900879D01*
X528142Y900786D01*
X528074Y900696D01*
X528003Y900608D01*
X527928Y900522D01*
X527851Y900439D01*
X527771Y900359D01*
X527688Y900282D01*
X527602Y900207D01*
X527514Y900136D01*
X527424Y900068D01*
X527331Y900003D01*
X527236Y899941D01*
X527139Y899883D01*
X527040Y899828D01*
X526939Y899777D01*
X526836Y899729D01*
X526732Y899684D01*
X526626Y899644D01*
X526519Y899607D01*
X526411Y899574D01*
X526301Y899544D01*
X526191Y899519D01*
X526080Y899497D01*
X525968Y899480D01*
X525855Y899466D01*
X525742Y899456D01*
X525629Y899450D01*
X525516Y899448D01*
X525515Y899448D02*
X522270Y899448D01*
X536677Y904641D02*
X540572Y904641D01*
X536677Y904641D02*
X536578Y904643D01*
X536478Y904649D01*
X536379Y904658D01*
X536281Y904671D01*
X536183Y904688D01*
X536085Y904709D01*
X535989Y904734D01*
X535894Y904762D01*
X535800Y904794D01*
X535707Y904829D01*
X535615Y904868D01*
X535525Y904911D01*
X535437Y904956D01*
X535350Y905006D01*
X535266Y905058D01*
X535183Y905114D01*
X535103Y905172D01*
X535025Y905234D01*
X534950Y905299D01*
X534877Y905367D01*
X534807Y905437D01*
X534739Y905510D01*
X534674Y905585D01*
X534612Y905663D01*
X534554Y905743D01*
X534498Y905826D01*
X534446Y905910D01*
X534396Y905997D01*
X534351Y906085D01*
X534308Y906175D01*
X534269Y906267D01*
X534234Y906360D01*
X534202Y906454D01*
X534174Y906549D01*
X534149Y906645D01*
X534128Y906743D01*
X534111Y906841D01*
X534098Y906939D01*
X534089Y907038D01*
X534083Y907138D01*
X534081Y907237D01*
X534081Y907886D01*
X534080Y907886D02*
X534082Y907999D01*
X534088Y908112D01*
X534098Y908225D01*
X534112Y908338D01*
X534129Y908450D01*
X534151Y908561D01*
X534176Y908671D01*
X534206Y908781D01*
X534239Y908889D01*
X534276Y908996D01*
X534316Y909102D01*
X534361Y909206D01*
X534409Y909309D01*
X534460Y909410D01*
X534515Y909509D01*
X534573Y909606D01*
X534635Y909701D01*
X534700Y909794D01*
X534768Y909884D01*
X534839Y909972D01*
X534914Y910058D01*
X534991Y910141D01*
X535071Y910221D01*
X535154Y910298D01*
X535240Y910373D01*
X535328Y910444D01*
X535418Y910512D01*
X535511Y910577D01*
X535606Y910639D01*
X535703Y910697D01*
X535802Y910752D01*
X535903Y910803D01*
X536006Y910851D01*
X536110Y910896D01*
X536216Y910936D01*
X536323Y910973D01*
X536431Y911006D01*
X536541Y911036D01*
X536651Y911061D01*
X536762Y911083D01*
X536874Y911100D01*
X536987Y911114D01*
X537100Y911124D01*
X537213Y911130D01*
X537326Y911132D01*
X537439Y911130D01*
X537552Y911124D01*
X537665Y911114D01*
X537778Y911100D01*
X537890Y911083D01*
X538001Y911061D01*
X538111Y911036D01*
X538221Y911006D01*
X538329Y910973D01*
X538436Y910936D01*
X538542Y910896D01*
X538646Y910851D01*
X538749Y910803D01*
X538850Y910752D01*
X538949Y910697D01*
X539046Y910639D01*
X539141Y910577D01*
X539234Y910512D01*
X539324Y910444D01*
X539412Y910373D01*
X539498Y910298D01*
X539581Y910221D01*
X539661Y910141D01*
X539738Y910058D01*
X539813Y909972D01*
X539884Y909884D01*
X539952Y909794D01*
X540017Y909701D01*
X540079Y909606D01*
X540137Y909509D01*
X540192Y909410D01*
X540243Y909309D01*
X540291Y909206D01*
X540336Y909102D01*
X540376Y908996D01*
X540413Y908889D01*
X540446Y908781D01*
X540476Y908671D01*
X540501Y908561D01*
X540523Y908450D01*
X540540Y908338D01*
X540554Y908225D01*
X540564Y908112D01*
X540570Y907999D01*
X540572Y907886D01*
X540572Y904641D01*
X540570Y904498D01*
X540564Y904355D01*
X540554Y904212D01*
X540540Y904070D01*
X540523Y903928D01*
X540501Y903786D01*
X540476Y903645D01*
X540446Y903505D01*
X540413Y903366D01*
X540376Y903228D01*
X540335Y903091D01*
X540291Y902955D01*
X540242Y902820D01*
X540190Y902687D01*
X540135Y902555D01*
X540075Y902425D01*
X540012Y902296D01*
X539946Y902169D01*
X539876Y902045D01*
X539803Y901922D01*
X539726Y901801D01*
X539646Y901682D01*
X539563Y901566D01*
X539477Y901451D01*
X539388Y901340D01*
X539295Y901230D01*
X539200Y901124D01*
X539101Y901020D01*
X539000Y900919D01*
X538896Y900820D01*
X538790Y900725D01*
X538680Y900632D01*
X538569Y900543D01*
X538454Y900457D01*
X538338Y900374D01*
X538219Y900294D01*
X538098Y900217D01*
X537976Y900144D01*
X537851Y900074D01*
X537724Y900008D01*
X537595Y899945D01*
X537465Y899885D01*
X537333Y899830D01*
X537200Y899778D01*
X537065Y899729D01*
X536929Y899685D01*
X536792Y899644D01*
X536654Y899607D01*
X536515Y899574D01*
X536375Y899544D01*
X536234Y899519D01*
X536092Y899497D01*
X535950Y899480D01*
X535808Y899466D01*
X535665Y899456D01*
X535522Y899450D01*
X535379Y899448D01*
D10*
X394600Y1404200D02*
X369200Y1404200D01*
X394600Y1404200D02*
X394600Y1378800D01*
X369200Y1378800D01*
X369200Y1404200D01*
D11*
X378005Y1413062D02*
X385795Y1413062D01*
X381900Y1416956D02*
X381900Y1409167D01*
M02*
