G04 EAGLE Gerber RS-274X export*
G75*
%MOMM*%
%FSLAX34Y34*%
%LPD*%
%INBottom Copper*%
%IPPOS*%
%AMOC8*
5,1,8,0,0,1.08239X$1,22.5*%
G01*
%ADD10R,2.540000X5.080000*%
%ADD11R,5.080000X2.540000*%
%ADD12C,1.800000*%
%ADD13C,1.600000*%
%ADD14C,0.280000*%
%ADD15C,0.254000*%
%ADD16C,0.756400*%
%ADD17C,0.300000*%

G36*
X844648Y14956D02*
X844648Y14956D01*
X844767Y14963D01*
X844805Y14976D01*
X844846Y14981D01*
X844956Y15024D01*
X845069Y15061D01*
X845104Y15083D01*
X845141Y15098D01*
X845237Y15168D01*
X845338Y15231D01*
X845366Y15261D01*
X845399Y15284D01*
X845475Y15376D01*
X845556Y15463D01*
X845576Y15498D01*
X845601Y15529D01*
X845652Y15637D01*
X845710Y15741D01*
X845720Y15781D01*
X845737Y15817D01*
X845759Y15934D01*
X845789Y16049D01*
X845793Y16110D01*
X845797Y16130D01*
X845795Y16150D01*
X845799Y16210D01*
X845799Y66210D01*
X845784Y66328D01*
X845777Y66447D01*
X845764Y66485D01*
X845759Y66526D01*
X845716Y66636D01*
X845679Y66749D01*
X845657Y66784D01*
X845642Y66821D01*
X845573Y66917D01*
X845509Y67018D01*
X845479Y67046D01*
X845456Y67079D01*
X845364Y67155D01*
X845277Y67236D01*
X845242Y67256D01*
X845211Y67281D01*
X845103Y67332D01*
X844999Y67390D01*
X844959Y67400D01*
X844923Y67417D01*
X844806Y67439D01*
X844691Y67469D01*
X844631Y67473D01*
X844611Y67477D01*
X844590Y67475D01*
X844530Y67479D01*
X754530Y67479D01*
X754412Y67464D01*
X754293Y67457D01*
X754255Y67444D01*
X754214Y67439D01*
X754104Y67396D01*
X753991Y67359D01*
X753956Y67337D01*
X753919Y67322D01*
X753823Y67253D01*
X753722Y67189D01*
X753694Y67159D01*
X753661Y67136D01*
X753586Y67044D01*
X753504Y66957D01*
X753484Y66922D01*
X753459Y66891D01*
X753408Y66783D01*
X753350Y66679D01*
X753340Y66639D01*
X753323Y66603D01*
X753301Y66486D01*
X753271Y66371D01*
X753267Y66311D01*
X753263Y66291D01*
X753265Y66270D01*
X753261Y66210D01*
X753261Y16210D01*
X753276Y16092D01*
X753283Y15973D01*
X753296Y15935D01*
X753301Y15894D01*
X753344Y15784D01*
X753381Y15671D01*
X753403Y15636D01*
X753418Y15599D01*
X753488Y15503D01*
X753551Y15402D01*
X753581Y15374D01*
X753604Y15341D01*
X753696Y15266D01*
X753783Y15184D01*
X753818Y15164D01*
X753849Y15139D01*
X753957Y15088D01*
X754061Y15030D01*
X754101Y15020D01*
X754137Y15003D01*
X754254Y14981D01*
X754369Y14951D01*
X754430Y14947D01*
X754450Y14943D01*
X754470Y14945D01*
X754530Y14941D01*
X844530Y14941D01*
X844648Y14956D01*
G37*
G36*
X94648Y14156D02*
X94648Y14156D01*
X94767Y14163D01*
X94805Y14176D01*
X94846Y14181D01*
X94956Y14224D01*
X95069Y14261D01*
X95104Y14283D01*
X95141Y14298D01*
X95237Y14368D01*
X95338Y14431D01*
X95366Y14461D01*
X95399Y14484D01*
X95475Y14576D01*
X95556Y14663D01*
X95576Y14698D01*
X95601Y14729D01*
X95652Y14837D01*
X95710Y14941D01*
X95720Y14981D01*
X95737Y15017D01*
X95759Y15134D01*
X95789Y15249D01*
X95793Y15310D01*
X95797Y15330D01*
X95795Y15350D01*
X95799Y15410D01*
X95799Y65410D01*
X95784Y65528D01*
X95777Y65647D01*
X95764Y65685D01*
X95759Y65726D01*
X95716Y65836D01*
X95679Y65949D01*
X95657Y65984D01*
X95642Y66021D01*
X95573Y66117D01*
X95509Y66218D01*
X95479Y66246D01*
X95456Y66279D01*
X95364Y66355D01*
X95277Y66436D01*
X95242Y66456D01*
X95211Y66481D01*
X95103Y66532D01*
X94999Y66590D01*
X94959Y66600D01*
X94923Y66617D01*
X94806Y66639D01*
X94691Y66669D01*
X94631Y66673D01*
X94611Y66677D01*
X94590Y66675D01*
X94530Y66679D01*
X4530Y66679D01*
X4412Y66664D01*
X4293Y66657D01*
X4255Y66644D01*
X4214Y66639D01*
X4104Y66596D01*
X3991Y66559D01*
X3956Y66537D01*
X3919Y66522D01*
X3823Y66453D01*
X3722Y66389D01*
X3694Y66359D01*
X3661Y66336D01*
X3586Y66244D01*
X3504Y66157D01*
X3484Y66122D01*
X3459Y66091D01*
X3408Y65983D01*
X3350Y65879D01*
X3340Y65839D01*
X3323Y65803D01*
X3301Y65686D01*
X3271Y65571D01*
X3267Y65511D01*
X3263Y65491D01*
X3265Y65470D01*
X3261Y65410D01*
X3261Y15410D01*
X3276Y15292D01*
X3283Y15173D01*
X3296Y15135D01*
X3301Y15094D01*
X3344Y14984D01*
X3381Y14871D01*
X3403Y14836D01*
X3418Y14799D01*
X3488Y14703D01*
X3551Y14602D01*
X3581Y14574D01*
X3604Y14541D01*
X3696Y14466D01*
X3783Y14384D01*
X3818Y14364D01*
X3849Y14339D01*
X3957Y14288D01*
X4061Y14230D01*
X4101Y14220D01*
X4137Y14203D01*
X4254Y14181D01*
X4369Y14151D01*
X4430Y14147D01*
X4450Y14143D01*
X4470Y14145D01*
X4530Y14141D01*
X94530Y14141D01*
X94648Y14156D01*
G37*
G36*
X694648Y14956D02*
X694648Y14956D01*
X694767Y14963D01*
X694805Y14976D01*
X694846Y14981D01*
X694956Y15024D01*
X695069Y15061D01*
X695104Y15083D01*
X695141Y15098D01*
X695237Y15168D01*
X695338Y15231D01*
X695366Y15261D01*
X695399Y15284D01*
X695475Y15376D01*
X695556Y15463D01*
X695576Y15498D01*
X695601Y15529D01*
X695652Y15637D01*
X695710Y15741D01*
X695720Y15781D01*
X695737Y15817D01*
X695759Y15934D01*
X695789Y16049D01*
X695793Y16110D01*
X695797Y16130D01*
X695795Y16150D01*
X695799Y16210D01*
X695799Y66210D01*
X695784Y66328D01*
X695777Y66447D01*
X695764Y66485D01*
X695759Y66526D01*
X695716Y66636D01*
X695679Y66749D01*
X695657Y66784D01*
X695642Y66821D01*
X695573Y66917D01*
X695509Y67018D01*
X695479Y67046D01*
X695456Y67079D01*
X695364Y67155D01*
X695277Y67236D01*
X695242Y67256D01*
X695211Y67281D01*
X695103Y67332D01*
X694999Y67390D01*
X694959Y67400D01*
X694923Y67417D01*
X694806Y67439D01*
X694691Y67469D01*
X694631Y67473D01*
X694611Y67477D01*
X694590Y67475D01*
X694530Y67479D01*
X654530Y67479D01*
X654412Y67464D01*
X654293Y67457D01*
X654255Y67444D01*
X654214Y67439D01*
X654104Y67396D01*
X653991Y67359D01*
X653956Y67337D01*
X653919Y67322D01*
X653823Y67253D01*
X653722Y67189D01*
X653694Y67159D01*
X653661Y67136D01*
X653586Y67044D01*
X653504Y66957D01*
X653484Y66922D01*
X653459Y66891D01*
X653408Y66783D01*
X653350Y66679D01*
X653340Y66639D01*
X653323Y66603D01*
X653301Y66486D01*
X653271Y66371D01*
X653267Y66311D01*
X653263Y66291D01*
X653265Y66270D01*
X653261Y66210D01*
X653261Y16210D01*
X653276Y16092D01*
X653283Y15973D01*
X653296Y15935D01*
X653301Y15894D01*
X653344Y15784D01*
X653381Y15671D01*
X653403Y15636D01*
X653418Y15599D01*
X653488Y15503D01*
X653551Y15402D01*
X653581Y15374D01*
X653604Y15341D01*
X653696Y15266D01*
X653783Y15184D01*
X653818Y15164D01*
X653849Y15139D01*
X653957Y15088D01*
X654061Y15030D01*
X654101Y15020D01*
X654137Y15003D01*
X654254Y14981D01*
X654369Y14951D01*
X654430Y14947D01*
X654450Y14943D01*
X654470Y14945D01*
X654530Y14941D01*
X694530Y14941D01*
X694648Y14956D01*
G37*
G36*
X194648Y14156D02*
X194648Y14156D01*
X194767Y14163D01*
X194805Y14176D01*
X194846Y14181D01*
X194956Y14224D01*
X195069Y14261D01*
X195104Y14283D01*
X195141Y14298D01*
X195237Y14368D01*
X195338Y14431D01*
X195366Y14461D01*
X195399Y14484D01*
X195475Y14576D01*
X195556Y14663D01*
X195576Y14698D01*
X195601Y14729D01*
X195652Y14837D01*
X195710Y14941D01*
X195720Y14981D01*
X195737Y15017D01*
X195759Y15134D01*
X195789Y15249D01*
X195793Y15310D01*
X195797Y15330D01*
X195795Y15350D01*
X195799Y15410D01*
X195799Y65410D01*
X195784Y65528D01*
X195777Y65647D01*
X195764Y65685D01*
X195759Y65726D01*
X195716Y65836D01*
X195679Y65949D01*
X195657Y65984D01*
X195642Y66021D01*
X195573Y66117D01*
X195509Y66218D01*
X195479Y66246D01*
X195456Y66279D01*
X195364Y66355D01*
X195277Y66436D01*
X195242Y66456D01*
X195211Y66481D01*
X195103Y66532D01*
X194999Y66590D01*
X194959Y66600D01*
X194923Y66617D01*
X194806Y66639D01*
X194691Y66669D01*
X194631Y66673D01*
X194611Y66677D01*
X194590Y66675D01*
X194530Y66679D01*
X154530Y66679D01*
X154412Y66664D01*
X154293Y66657D01*
X154255Y66644D01*
X154214Y66639D01*
X154104Y66596D01*
X153991Y66559D01*
X153956Y66537D01*
X153919Y66522D01*
X153823Y66453D01*
X153722Y66389D01*
X153694Y66359D01*
X153661Y66336D01*
X153586Y66244D01*
X153504Y66157D01*
X153484Y66122D01*
X153459Y66091D01*
X153408Y65983D01*
X153350Y65879D01*
X153340Y65839D01*
X153323Y65803D01*
X153301Y65686D01*
X153271Y65571D01*
X153267Y65511D01*
X153263Y65491D01*
X153265Y65470D01*
X153261Y65410D01*
X153261Y15410D01*
X153276Y15292D01*
X153283Y15173D01*
X153296Y15135D01*
X153301Y15094D01*
X153344Y14984D01*
X153381Y14871D01*
X153403Y14836D01*
X153418Y14799D01*
X153488Y14703D01*
X153551Y14602D01*
X153581Y14574D01*
X153604Y14541D01*
X153696Y14466D01*
X153783Y14384D01*
X153818Y14364D01*
X153849Y14339D01*
X153957Y14288D01*
X154061Y14230D01*
X154101Y14220D01*
X154137Y14203D01*
X154254Y14181D01*
X154369Y14151D01*
X154430Y14147D01*
X154450Y14143D01*
X154470Y14145D01*
X154530Y14141D01*
X194530Y14141D01*
X194648Y14156D01*
G37*
D10*
X624530Y36210D03*
X724530Y36210D03*
X224530Y45410D03*
X124530Y45410D03*
D11*
X391760Y670190D03*
X391760Y632090D03*
X391270Y549210D03*
X391270Y511110D03*
D12*
X470800Y1391500D03*
D13*
X150600Y622800D03*
X150600Y597400D03*
X254900Y934300D03*
X254900Y908900D03*
X646800Y665900D03*
X646800Y691300D03*
X305700Y756500D03*
X305700Y731100D03*
X608700Y894500D03*
X608700Y919900D03*
X519800Y1173900D03*
X519800Y1199300D03*
X356500Y1251800D03*
X356500Y1226400D03*
X570600Y424600D03*
X570600Y450000D03*
X26300Y299300D03*
X26300Y273900D03*
X507100Y996100D03*
X507100Y1021500D03*
D12*
X381900Y1391500D03*
D14*
X199100Y597600D02*
X187900Y597600D01*
X187900Y608800D01*
X199100Y608800D01*
X199100Y597600D01*
X199100Y600260D02*
X187900Y600260D01*
X187900Y602920D02*
X199100Y602920D01*
X199100Y605580D02*
X187900Y605580D01*
X187900Y608240D02*
X199100Y608240D01*
X208090Y597600D02*
X219290Y597600D01*
X208090Y597600D02*
X208090Y608800D01*
X219290Y608800D01*
X219290Y597600D01*
X219290Y600260D02*
X208090Y600260D01*
X208090Y602920D02*
X219290Y602920D01*
X219290Y605580D02*
X208090Y605580D01*
X208090Y608240D02*
X219290Y608240D01*
X284800Y899200D02*
X296000Y899200D01*
X284800Y899200D02*
X284800Y910400D01*
X296000Y910400D01*
X296000Y899200D01*
X296000Y901860D02*
X284800Y901860D01*
X284800Y904520D02*
X296000Y904520D01*
X296000Y907180D02*
X284800Y907180D01*
X284800Y909840D02*
X296000Y909840D01*
X304990Y899200D02*
X316190Y899200D01*
X304990Y899200D02*
X304990Y910400D01*
X316190Y910400D01*
X316190Y899200D01*
X316190Y901860D02*
X304990Y901860D01*
X304990Y904520D02*
X316190Y904520D01*
X316190Y907180D02*
X304990Y907180D01*
X304990Y909840D02*
X316190Y909840D01*
X605700Y701000D02*
X616900Y701000D01*
X616900Y689800D01*
X605700Y689800D01*
X605700Y701000D01*
X605700Y692460D02*
X616900Y692460D01*
X616900Y695120D02*
X605700Y695120D01*
X605700Y697780D02*
X616900Y697780D01*
X616900Y700440D02*
X605700Y700440D01*
X596710Y701000D02*
X585510Y701000D01*
X596710Y701000D02*
X596710Y689800D01*
X585510Y689800D01*
X585510Y701000D01*
X585510Y692460D02*
X596710Y692460D01*
X596710Y695120D02*
X585510Y695120D01*
X585510Y697780D02*
X596710Y697780D01*
X596710Y700440D02*
X585510Y700440D01*
X298490Y705800D02*
X298490Y694600D01*
X298490Y705800D02*
X309690Y705800D01*
X309690Y694600D01*
X298490Y694600D01*
X298490Y697260D02*
X309690Y697260D01*
X309690Y699920D02*
X298490Y699920D01*
X298490Y702580D02*
X309690Y702580D01*
X309690Y705240D02*
X298490Y705240D01*
X298490Y685610D02*
X298490Y674410D01*
X298490Y685610D02*
X309690Y685610D01*
X309690Y674410D01*
X298490Y674410D01*
X298490Y677070D02*
X309690Y677070D01*
X309690Y679730D02*
X298490Y679730D01*
X298490Y682390D02*
X309690Y682390D01*
X309690Y685050D02*
X298490Y685050D01*
X567600Y916900D02*
X578800Y916900D01*
X578800Y905700D01*
X567600Y905700D01*
X567600Y916900D01*
X567600Y908360D02*
X578800Y908360D01*
X578800Y911020D02*
X567600Y911020D01*
X567600Y913680D02*
X578800Y913680D01*
X578800Y916340D02*
X567600Y916340D01*
X558610Y916900D02*
X547410Y916900D01*
X558610Y916900D02*
X558610Y905700D01*
X547410Y905700D01*
X547410Y916900D01*
X547410Y908360D02*
X558610Y908360D01*
X558610Y911020D02*
X547410Y911020D01*
X547410Y913680D02*
X558610Y913680D01*
X558610Y916340D02*
X547410Y916340D01*
X523200Y1224600D02*
X523200Y1235800D01*
X523200Y1224600D02*
X512000Y1224600D01*
X512000Y1235800D01*
X523200Y1235800D01*
X523200Y1227260D02*
X512000Y1227260D01*
X512000Y1229920D02*
X523200Y1229920D01*
X523200Y1232580D02*
X512000Y1232580D01*
X512000Y1235240D02*
X523200Y1235240D01*
X523200Y1244790D02*
X523200Y1255990D01*
X523200Y1244790D02*
X512000Y1244790D01*
X512000Y1255990D01*
X523200Y1255990D01*
X523200Y1247450D02*
X512000Y1247450D01*
X512000Y1250110D02*
X523200Y1250110D01*
X523200Y1252770D02*
X512000Y1252770D01*
X512000Y1255430D02*
X523200Y1255430D01*
X353100Y1188400D02*
X353100Y1177200D01*
X353100Y1188400D02*
X364300Y1188400D01*
X364300Y1177200D01*
X353100Y1177200D01*
X353100Y1179860D02*
X364300Y1179860D01*
X364300Y1182520D02*
X353100Y1182520D01*
X353100Y1185180D02*
X364300Y1185180D01*
X364300Y1187840D02*
X353100Y1187840D01*
X353100Y1168210D02*
X353100Y1157010D01*
X353100Y1168210D02*
X364300Y1168210D01*
X364300Y1157010D01*
X353100Y1157010D01*
X353100Y1159670D02*
X364300Y1159670D01*
X364300Y1162330D02*
X353100Y1162330D01*
X353100Y1164990D02*
X364300Y1164990D01*
X364300Y1167650D02*
X353100Y1167650D01*
X574000Y486500D02*
X574000Y475300D01*
X562800Y475300D01*
X562800Y486500D01*
X574000Y486500D01*
X574000Y477960D02*
X562800Y477960D01*
X562800Y480620D02*
X574000Y480620D01*
X574000Y483280D02*
X562800Y483280D01*
X562800Y485940D02*
X574000Y485940D01*
X574000Y495490D02*
X574000Y506690D01*
X574000Y495490D02*
X562800Y495490D01*
X562800Y506690D01*
X574000Y506690D01*
X574000Y498150D02*
X562800Y498150D01*
X562800Y500810D02*
X574000Y500810D01*
X574000Y503470D02*
X562800Y503470D01*
X562800Y506130D02*
X574000Y506130D01*
X67400Y264200D02*
X56200Y264200D01*
X56200Y275400D01*
X67400Y275400D01*
X67400Y264200D01*
X67400Y266860D02*
X56200Y266860D01*
X56200Y269520D02*
X67400Y269520D01*
X67400Y272180D02*
X56200Y272180D01*
X56200Y274840D02*
X67400Y274840D01*
X76390Y264200D02*
X87590Y264200D01*
X76390Y264200D02*
X76390Y275400D01*
X87590Y275400D01*
X87590Y264200D01*
X87590Y266860D02*
X76390Y266860D01*
X76390Y269520D02*
X87590Y269520D01*
X87590Y272180D02*
X76390Y272180D01*
X76390Y274840D02*
X87590Y274840D01*
X510500Y1046800D02*
X510500Y1058000D01*
X510500Y1046800D02*
X499300Y1046800D01*
X499300Y1058000D01*
X510500Y1058000D01*
X510500Y1049460D02*
X499300Y1049460D01*
X499300Y1052120D02*
X510500Y1052120D01*
X510500Y1054780D02*
X499300Y1054780D01*
X499300Y1057440D02*
X510500Y1057440D01*
X510500Y1066990D02*
X510500Y1078190D01*
X510500Y1066990D02*
X499300Y1066990D01*
X499300Y1078190D01*
X510500Y1078190D01*
X510500Y1069650D02*
X499300Y1069650D01*
X499300Y1072310D02*
X510500Y1072310D01*
X510500Y1074970D02*
X499300Y1074970D01*
X499300Y1077630D02*
X510500Y1077630D01*
D15*
X724530Y733430D02*
X724530Y36210D01*
X724530Y733430D02*
X701040Y756920D01*
X650240Y756920D01*
X635000Y772160D01*
X635000Y861060D01*
X670560Y896620D02*
X670560Y977900D01*
X670560Y896620D02*
X635000Y861060D01*
X670560Y977900D02*
X551180Y1097280D01*
X551180Y1125220D02*
X535940Y1140460D01*
X535940Y1287780D01*
X469900Y1353820D01*
X469900Y1390600D01*
X470800Y1391500D01*
X551180Y1125220D02*
X551180Y1097280D01*
X624530Y345130D02*
X624530Y36210D01*
X624530Y345130D02*
X708660Y429260D01*
X708660Y721360D01*
X688340Y741680D01*
X640080Y741680D01*
X622300Y759460D01*
X622300Y881380D01*
X660400Y919480D01*
X660400Y970280D01*
X533400Y1097280D01*
X381900Y1248780D02*
X381900Y1391500D01*
X533400Y1125220D02*
X533400Y1097280D01*
D16*
X533400Y1125220D03*
X474980Y1125220D03*
D15*
X398780Y1231900D02*
X381900Y1248780D01*
X398780Y1201420D02*
X474980Y1125220D01*
X398780Y1201420D02*
X398780Y1231900D01*
X224530Y549650D02*
X224530Y45410D01*
X304090Y608190D02*
X304090Y680010D01*
X358700Y1094180D02*
X358700Y1162610D01*
X380290Y1072590D02*
X504900Y1072590D01*
X380290Y1072590D02*
X358700Y1094180D01*
X304090Y680010D02*
X299720Y675640D01*
X281940Y675640D01*
D16*
X281940Y675640D03*
X281940Y947420D03*
D15*
X281940Y1076960D01*
X299720Y1094740D01*
X358140Y1094740D01*
X358700Y1094180D01*
X304090Y680010D02*
X304090Y568250D01*
X295910Y560070D01*
X234950Y560070D01*
X224530Y549650D01*
X295910Y560070D02*
X304800Y551180D01*
X390570Y511810D02*
X391270Y511110D01*
X390570Y511810D02*
X311150Y511810D01*
X304800Y518160D01*
X304800Y551180D01*
X310590Y904800D02*
X353060Y904800D01*
X445060Y904800D01*
X451560Y911300D02*
X553010Y911300D01*
X451560Y911300D02*
X445060Y904800D01*
X213690Y724230D02*
X213690Y603200D01*
X213690Y724230D02*
X233310Y743850D01*
X353430Y743850D01*
D16*
X353430Y743850D03*
X353060Y782320D03*
D15*
X353060Y904800D01*
X353060Y782320D02*
X467360Y782320D01*
X487680Y762000D01*
X487680Y525780D01*
X512370Y501090D02*
X568400Y501090D01*
X512370Y501090D02*
X487680Y525780D01*
X391760Y632090D02*
X355970Y632090D01*
X347980Y640080D01*
X353430Y743850D02*
X373750Y743850D01*
X381000Y736600D01*
X381000Y713740D01*
X373380Y706120D01*
X355600Y706120D01*
X347980Y698500D01*
X347980Y640080D01*
D17*
X150600Y622800D02*
X150600Y739880D01*
X167220Y756500D02*
X226060Y756500D01*
X305700Y756500D01*
X167220Y756500D02*
X150600Y739880D01*
X238340Y934300D02*
X254900Y934300D01*
X238340Y934300D02*
X226060Y922020D01*
X226060Y756500D01*
X519380Y1173480D02*
X519800Y1173900D01*
X327660Y756500D02*
X305700Y756500D01*
X327660Y756500D02*
X330200Y756500D01*
X333160Y756500D01*
X507100Y996100D02*
X561340Y996100D01*
X621880Y996100D01*
X650240Y967740D01*
X676060Y424600D02*
X570600Y424600D01*
X690880Y665480D02*
X690880Y708660D01*
X690880Y665480D02*
X690880Y439420D01*
X676060Y424600D01*
X690460Y665900D02*
X646800Y665900D01*
X690460Y665900D02*
X690880Y665480D01*
X609600Y894500D02*
X608700Y894500D01*
X96520Y299300D02*
X26300Y299300D01*
X142740Y622800D02*
X150600Y622800D01*
X142740Y622800D02*
X127000Y607060D01*
X327660Y756500D02*
X327660Y830580D01*
D16*
X327660Y830580D03*
X391160Y830580D03*
D17*
X477520Y830580D01*
X510540Y797560D01*
X510540Y680720D01*
X525780Y665480D01*
X646380Y665480D01*
X646800Y665900D01*
X519800Y1094740D02*
X519800Y1173900D01*
X519800Y1094740D02*
X519800Y1039760D01*
X561340Y998220D02*
X561340Y996100D01*
X561340Y998220D02*
X519800Y1039760D01*
X127000Y329780D02*
X96520Y299300D01*
X127000Y329780D02*
X127000Y607060D01*
X609600Y739140D02*
X624840Y723900D01*
X675640Y723900D01*
X690880Y708660D01*
X609600Y893600D02*
X608700Y894500D01*
X609600Y893600D02*
X609600Y739140D01*
X609600Y894500D02*
X650240Y935140D01*
X650240Y967740D01*
X519800Y1094740D02*
X419100Y1094740D01*
X381000Y1132840D01*
X381000Y1226400D01*
X356500Y1250900D01*
X356500Y1251800D01*
X391760Y751240D02*
X391760Y670190D01*
X391760Y751240D02*
X386080Y756920D01*
X330620Y756920D01*
X330200Y756500D01*
D15*
X170680Y597400D02*
X150600Y597400D01*
X176480Y603200D02*
X193500Y603200D01*
X176480Y603200D02*
X170680Y597400D01*
X611300Y695400D02*
X627940Y695400D01*
X632460Y690880D01*
X646380Y690880D01*
X646800Y691300D01*
X304800Y700910D02*
X304800Y730200D01*
X304800Y700910D02*
X304090Y700200D01*
X304800Y730200D02*
X305700Y731100D01*
X573200Y911300D02*
X583640Y911300D01*
X592240Y919900D02*
X608700Y919900D01*
X592240Y919900D02*
X583640Y911300D01*
X519800Y1199300D02*
X519800Y1212480D01*
X517600Y1214680D02*
X517600Y1230200D01*
X517600Y1214680D02*
X519800Y1212480D01*
X358700Y1205940D02*
X358700Y1182800D01*
X358700Y1205940D02*
X355600Y1209040D01*
X355600Y1225500D01*
X356500Y1226400D01*
X568400Y480900D02*
X568400Y467920D01*
X571500Y464820D01*
X571500Y450900D01*
X570600Y450000D01*
X38520Y273900D02*
X26300Y273900D01*
X42620Y269800D02*
X61800Y269800D01*
X42620Y269800D02*
X38520Y273900D01*
X507100Y1021500D02*
X507100Y1032140D01*
X502920Y1036320D01*
X502920Y1050420D01*
X504900Y1052400D01*
X269660Y908900D02*
X254900Y908900D01*
X269660Y908900D02*
X274320Y904240D01*
X289840Y904240D01*
X290400Y904800D01*
X135180Y269800D02*
X81990Y269800D01*
X195580Y546100D02*
X276860Y627380D01*
D16*
X276860Y627380D03*
X335280Y627380D03*
D15*
X195580Y330200D02*
X135180Y269800D01*
X195580Y330200D02*
X195580Y546100D01*
D16*
X368300Y800100D03*
D15*
X457200Y863600D02*
X566420Y863600D01*
X591110Y838910D02*
X591110Y695400D01*
X591110Y838910D02*
X566420Y863600D01*
D16*
X457200Y863600D03*
X457200Y1109980D03*
D15*
X505460Y1250390D02*
X517600Y1250390D01*
X368300Y848360D02*
X368300Y800100D01*
X368300Y848360D02*
X383540Y863600D01*
X457200Y863600D01*
X457200Y1109980D02*
X485140Y1109980D01*
X495300Y1120140D01*
X495300Y1240230D01*
X505460Y1250390D01*
X391270Y549210D02*
X349950Y549210D01*
X335280Y563880D02*
X335280Y627380D01*
X335280Y563880D02*
X349950Y549210D01*
X335280Y627380D02*
X335280Y713740D01*
X342900Y721360D01*
X368300Y721360D01*
D16*
X368300Y721360D03*
M02*
