G04 EAGLE Gerber RS-274X export*
G75*
%MOMM*%
%FSLAX34Y34*%
%LPD*%
%INTop Copper*%
%IPPOS*%
%AMOC8*
5,1,8,0,0,1.08239X$1,22.5*%
G01*
%ADD10C,1.800000*%
%ADD11C,1.600000*%
%ADD12C,2.400000*%
%ADD13C,0.254000*%


D10*
X470800Y1391500D03*
D11*
X286600Y454800D03*
X286600Y429400D03*
X214900Y898300D03*
X214900Y872900D03*
X220200Y685100D03*
X220200Y659700D03*
X352700Y1046500D03*
X352700Y1021100D03*
X682700Y605500D03*
X682700Y630900D03*
X482800Y1227900D03*
X482800Y1253300D03*
X312500Y1201800D03*
X312500Y1176400D03*
X699600Y379600D03*
X699600Y405000D03*
X26300Y299300D03*
X26300Y273900D03*
X574100Y909100D03*
X574100Y934500D03*
D10*
X381900Y1391500D03*
D12*
X104000Y331000D03*
D13*
X104000Y285000D01*
X105000Y284000D01*
D12*
X105000Y284000D03*
X516000Y677000D03*
D13*
X516000Y751000D01*
D12*
X516000Y751000D03*
X224000Y232000D03*
D13*
X224000Y324000D01*
D12*
X224000Y324000D03*
X395000Y656000D03*
X326000Y656000D03*
D13*
X395000Y656000D01*
D12*
X497000Y581000D03*
D13*
X547000Y581000D01*
D12*
X547000Y581000D03*
X356000Y919000D03*
D13*
X356000Y703000D01*
D12*
X356000Y703000D03*
X356000Y478000D03*
D13*
X356000Y269000D01*
X357000Y268000D01*
D12*
X357000Y268000D03*
X547000Y676000D03*
D13*
X547000Y934000D01*
D12*
X547000Y934000D03*
X466000Y720000D03*
D13*
X465000Y719000D01*
X465000Y474000D01*
X466000Y473000D01*
D12*
X466000Y473000D03*
M02*
