G04 EAGLE Gerber RS-274X export*
G75*
%MOMM*%
%FSLAX34Y34*%
%LPD*%
%INSolderpaste Bottom*%
%IPPOS*%
%AMOC8*
5,1,8,0,0,1.08239X$1,22.5*%
G01*
%ADD10R,2.540000X5.080000*%
%ADD11R,5.080000X2.540000*%
%ADD12C,0.280000*%


D10*
X624530Y36210D03*
X724530Y36210D03*
X224530Y45410D03*
X124530Y45410D03*
D11*
X458460Y630330D03*
X458460Y668430D03*
X459730Y512690D03*
X459730Y550790D03*
D12*
X335100Y429600D02*
X323900Y429600D01*
X323900Y440800D01*
X335100Y440800D01*
X335100Y429600D01*
X335100Y432260D02*
X323900Y432260D01*
X323900Y434920D02*
X335100Y434920D01*
X335100Y437580D02*
X323900Y437580D01*
X323900Y440240D02*
X335100Y440240D01*
X344090Y429600D02*
X355290Y429600D01*
X344090Y429600D02*
X344090Y440800D01*
X355290Y440800D01*
X355290Y429600D01*
X355290Y432260D02*
X344090Y432260D01*
X344090Y434920D02*
X355290Y434920D01*
X355290Y437580D02*
X344090Y437580D01*
X344090Y440240D02*
X355290Y440240D01*
X256000Y863200D02*
X244800Y863200D01*
X244800Y874400D01*
X256000Y874400D01*
X256000Y863200D01*
X256000Y865860D02*
X244800Y865860D01*
X244800Y868520D02*
X256000Y868520D01*
X256000Y871180D02*
X244800Y871180D01*
X244800Y873840D02*
X256000Y873840D01*
X264990Y863200D02*
X276190Y863200D01*
X264990Y863200D02*
X264990Y874400D01*
X276190Y874400D01*
X276190Y863200D01*
X276190Y865860D02*
X264990Y865860D01*
X264990Y868520D02*
X276190Y868520D01*
X276190Y871180D02*
X264990Y871180D01*
X264990Y873840D02*
X276190Y873840D01*
X261300Y650000D02*
X250100Y650000D01*
X250100Y661200D01*
X261300Y661200D01*
X261300Y650000D01*
X261300Y652660D02*
X250100Y652660D01*
X250100Y655320D02*
X261300Y655320D01*
X261300Y657980D02*
X250100Y657980D01*
X250100Y660640D02*
X261300Y660640D01*
X270290Y650000D02*
X281490Y650000D01*
X270290Y650000D02*
X270290Y661200D01*
X281490Y661200D01*
X281490Y650000D01*
X281490Y652660D02*
X270290Y652660D01*
X270290Y655320D02*
X281490Y655320D01*
X281490Y657980D02*
X270290Y657980D01*
X270290Y660640D02*
X281490Y660640D01*
X349300Y984600D02*
X349300Y995800D01*
X360500Y995800D01*
X360500Y984600D01*
X349300Y984600D01*
X349300Y987260D02*
X360500Y987260D01*
X360500Y989920D02*
X349300Y989920D01*
X349300Y992580D02*
X360500Y992580D01*
X360500Y995240D02*
X349300Y995240D01*
X349300Y975610D02*
X349300Y964410D01*
X349300Y975610D02*
X360500Y975610D01*
X360500Y964410D01*
X349300Y964410D01*
X349300Y967070D02*
X360500Y967070D01*
X360500Y969730D02*
X349300Y969730D01*
X349300Y972390D02*
X360500Y972390D01*
X360500Y975050D02*
X349300Y975050D01*
X641600Y627900D02*
X652800Y627900D01*
X652800Y616700D01*
X641600Y616700D01*
X641600Y627900D01*
X641600Y619360D02*
X652800Y619360D01*
X652800Y622020D02*
X641600Y622020D01*
X641600Y624680D02*
X652800Y624680D01*
X652800Y627340D02*
X641600Y627340D01*
X632610Y627900D02*
X621410Y627900D01*
X632610Y627900D02*
X632610Y616700D01*
X621410Y616700D01*
X621410Y627900D01*
X621410Y619360D02*
X632610Y619360D01*
X632610Y622020D02*
X621410Y622020D01*
X621410Y624680D02*
X632610Y624680D01*
X632610Y627340D02*
X621410Y627340D01*
X486200Y1278600D02*
X486200Y1289800D01*
X486200Y1278600D02*
X475000Y1278600D01*
X475000Y1289800D01*
X486200Y1289800D01*
X486200Y1281260D02*
X475000Y1281260D01*
X475000Y1283920D02*
X486200Y1283920D01*
X486200Y1286580D02*
X475000Y1286580D01*
X475000Y1289240D02*
X486200Y1289240D01*
X486200Y1298790D02*
X486200Y1309990D01*
X486200Y1298790D02*
X475000Y1298790D01*
X475000Y1309990D01*
X486200Y1309990D01*
X486200Y1301450D02*
X475000Y1301450D01*
X475000Y1304110D02*
X486200Y1304110D01*
X486200Y1306770D02*
X475000Y1306770D01*
X475000Y1309430D02*
X486200Y1309430D01*
X333100Y1181400D02*
X333100Y1170200D01*
X333100Y1181400D02*
X344300Y1181400D01*
X344300Y1170200D01*
X333100Y1170200D01*
X333100Y1172860D02*
X344300Y1172860D01*
X344300Y1175520D02*
X333100Y1175520D01*
X333100Y1178180D02*
X344300Y1178180D01*
X344300Y1180840D02*
X333100Y1180840D01*
X333100Y1161210D02*
X333100Y1150010D01*
X333100Y1161210D02*
X344300Y1161210D01*
X344300Y1150010D01*
X333100Y1150010D01*
X333100Y1152670D02*
X344300Y1152670D01*
X344300Y1155330D02*
X333100Y1155330D01*
X333100Y1157990D02*
X344300Y1157990D01*
X344300Y1160650D02*
X333100Y1160650D01*
X703000Y441500D02*
X703000Y430300D01*
X691800Y430300D01*
X691800Y441500D01*
X703000Y441500D01*
X703000Y432960D02*
X691800Y432960D01*
X691800Y435620D02*
X703000Y435620D01*
X703000Y438280D02*
X691800Y438280D01*
X691800Y440940D02*
X703000Y440940D01*
X703000Y450490D02*
X703000Y461690D01*
X703000Y450490D02*
X691800Y450490D01*
X691800Y461690D01*
X703000Y461690D01*
X703000Y453150D02*
X691800Y453150D01*
X691800Y455810D02*
X703000Y455810D01*
X703000Y458470D02*
X691800Y458470D01*
X691800Y461130D02*
X703000Y461130D01*
X67400Y264200D02*
X56200Y264200D01*
X56200Y275400D01*
X67400Y275400D01*
X67400Y264200D01*
X67400Y266860D02*
X56200Y266860D01*
X56200Y269520D02*
X67400Y269520D01*
X67400Y272180D02*
X56200Y272180D01*
X56200Y274840D02*
X67400Y274840D01*
X76390Y264200D02*
X87590Y264200D01*
X76390Y264200D02*
X76390Y275400D01*
X87590Y275400D01*
X87590Y264200D01*
X87590Y266860D02*
X76390Y266860D01*
X76390Y269520D02*
X87590Y269520D01*
X87590Y272180D02*
X76390Y272180D01*
X76390Y274840D02*
X87590Y274840D01*
X577500Y959800D02*
X577500Y971000D01*
X577500Y959800D02*
X566300Y959800D01*
X566300Y971000D01*
X577500Y971000D01*
X577500Y962460D02*
X566300Y962460D01*
X566300Y965120D02*
X577500Y965120D01*
X577500Y967780D02*
X566300Y967780D01*
X566300Y970440D02*
X577500Y970440D01*
X577500Y979990D02*
X577500Y991190D01*
X577500Y979990D02*
X566300Y979990D01*
X566300Y991190D01*
X577500Y991190D01*
X577500Y982650D02*
X566300Y982650D01*
X566300Y985310D02*
X577500Y985310D01*
X577500Y987970D02*
X566300Y987970D01*
X566300Y990630D02*
X577500Y990630D01*
M02*
