M48
;GenerationSoftware,Autodesk,EAGLE,9.6.0*%
;CreationDate,2022-01-10T10:41:56Z*%
FMAT,2
ICI,OFF
METRIC,TZ,000.000
T2C0.800
T1C1.000
%
G90
M71
T1
X38190Y139150
X47080Y139150
T2
X10500Y28400
X51600Y67700
X51600Y75100
X22400Y23200
X22400Y32400
X39500Y65600
X32600Y65600
X49700Y60500
X54700Y60500
X35600Y91900
X35600Y70300
X35600Y47800
X35700Y26800
X54700Y67600
X54700Y93400
X46600Y72800
X46600Y55700
X28660Y45480
X10400Y33100
X21490Y89830
X21490Y87290
X22020Y68510
X22020Y65970
X35270Y104650
X35270Y102110
X68270Y60550
X68270Y63090
X48280Y122790
X48280Y125330
X31250Y120180
X31250Y117640
X69960Y37960
X69960Y40500
X2630Y29930
X2630Y27390
X57410Y90910
X57410Y93450
X28660Y42940
M30