G04 EAGLE Gerber RS-274X export*
G75*
%MOMM*%
%FSLAX34Y34*%
%LPD*%
%INSilkscreen Top*%
%IPPOS*%
%AMOC8*
5,1,8,0,0,1.08239X$1,22.5*%
G01*
%ADD10C,0.152400*%
%ADD11C,0.101600*%
%ADD12C,0.127000*%


D10*
X458100Y1391500D02*
X458104Y1391812D01*
X458115Y1392123D01*
X458134Y1392434D01*
X458161Y1392745D01*
X458196Y1393055D01*
X458237Y1393363D01*
X458287Y1393671D01*
X458344Y1393978D01*
X458409Y1394283D01*
X458481Y1394586D01*
X458560Y1394887D01*
X458647Y1395187D01*
X458741Y1395484D01*
X458842Y1395779D01*
X458951Y1396071D01*
X459067Y1396360D01*
X459190Y1396647D01*
X459319Y1396930D01*
X459456Y1397210D01*
X459600Y1397487D01*
X459750Y1397760D01*
X459907Y1398029D01*
X460070Y1398294D01*
X460240Y1398556D01*
X460417Y1398813D01*
X460599Y1399065D01*
X460788Y1399313D01*
X460983Y1399557D01*
X461183Y1399795D01*
X461390Y1400029D01*
X461602Y1400257D01*
X461820Y1400480D01*
X462043Y1400698D01*
X462271Y1400910D01*
X462505Y1401117D01*
X462743Y1401317D01*
X462987Y1401512D01*
X463235Y1401701D01*
X463487Y1401883D01*
X463744Y1402060D01*
X464006Y1402230D01*
X464271Y1402393D01*
X464540Y1402550D01*
X464813Y1402700D01*
X465090Y1402844D01*
X465370Y1402981D01*
X465653Y1403110D01*
X465940Y1403233D01*
X466229Y1403349D01*
X466521Y1403458D01*
X466816Y1403559D01*
X467113Y1403653D01*
X467413Y1403740D01*
X467714Y1403819D01*
X468017Y1403891D01*
X468322Y1403956D01*
X468629Y1404013D01*
X468937Y1404063D01*
X469245Y1404104D01*
X469555Y1404139D01*
X469866Y1404166D01*
X470177Y1404185D01*
X470488Y1404196D01*
X470800Y1404200D01*
X471112Y1404196D01*
X471423Y1404185D01*
X471734Y1404166D01*
X472045Y1404139D01*
X472355Y1404104D01*
X472663Y1404063D01*
X472971Y1404013D01*
X473278Y1403956D01*
X473583Y1403891D01*
X473886Y1403819D01*
X474187Y1403740D01*
X474487Y1403653D01*
X474784Y1403559D01*
X475079Y1403458D01*
X475371Y1403349D01*
X475660Y1403233D01*
X475947Y1403110D01*
X476230Y1402981D01*
X476510Y1402844D01*
X476787Y1402700D01*
X477060Y1402550D01*
X477329Y1402393D01*
X477594Y1402230D01*
X477856Y1402060D01*
X478113Y1401883D01*
X478365Y1401701D01*
X478613Y1401512D01*
X478857Y1401317D01*
X479095Y1401117D01*
X479329Y1400910D01*
X479557Y1400698D01*
X479780Y1400480D01*
X479998Y1400257D01*
X480210Y1400029D01*
X480417Y1399795D01*
X480617Y1399557D01*
X480812Y1399313D01*
X481001Y1399065D01*
X481183Y1398813D01*
X481360Y1398556D01*
X481530Y1398294D01*
X481693Y1398029D01*
X481850Y1397760D01*
X482000Y1397487D01*
X482144Y1397210D01*
X482281Y1396930D01*
X482410Y1396647D01*
X482533Y1396360D01*
X482649Y1396071D01*
X482758Y1395779D01*
X482859Y1395484D01*
X482953Y1395187D01*
X483040Y1394887D01*
X483119Y1394586D01*
X483191Y1394283D01*
X483256Y1393978D01*
X483313Y1393671D01*
X483363Y1393363D01*
X483404Y1393055D01*
X483439Y1392745D01*
X483466Y1392434D01*
X483485Y1392123D01*
X483496Y1391812D01*
X483500Y1391500D01*
X483496Y1391188D01*
X483485Y1390877D01*
X483466Y1390566D01*
X483439Y1390255D01*
X483404Y1389945D01*
X483363Y1389637D01*
X483313Y1389329D01*
X483256Y1389022D01*
X483191Y1388717D01*
X483119Y1388414D01*
X483040Y1388113D01*
X482953Y1387813D01*
X482859Y1387516D01*
X482758Y1387221D01*
X482649Y1386929D01*
X482533Y1386640D01*
X482410Y1386353D01*
X482281Y1386070D01*
X482144Y1385790D01*
X482000Y1385513D01*
X481850Y1385240D01*
X481693Y1384971D01*
X481530Y1384706D01*
X481360Y1384444D01*
X481183Y1384187D01*
X481001Y1383935D01*
X480812Y1383687D01*
X480617Y1383443D01*
X480417Y1383205D01*
X480210Y1382971D01*
X479998Y1382743D01*
X479780Y1382520D01*
X479557Y1382302D01*
X479329Y1382090D01*
X479095Y1381883D01*
X478857Y1381683D01*
X478613Y1381488D01*
X478365Y1381299D01*
X478113Y1381117D01*
X477856Y1380940D01*
X477594Y1380770D01*
X477329Y1380607D01*
X477060Y1380450D01*
X476787Y1380300D01*
X476510Y1380156D01*
X476230Y1380019D01*
X475947Y1379890D01*
X475660Y1379767D01*
X475371Y1379651D01*
X475079Y1379542D01*
X474784Y1379441D01*
X474487Y1379347D01*
X474187Y1379260D01*
X473886Y1379181D01*
X473583Y1379109D01*
X473278Y1379044D01*
X472971Y1378987D01*
X472663Y1378937D01*
X472355Y1378896D01*
X472045Y1378861D01*
X471734Y1378834D01*
X471423Y1378815D01*
X471112Y1378804D01*
X470800Y1378800D01*
X470488Y1378804D01*
X470177Y1378815D01*
X469866Y1378834D01*
X469555Y1378861D01*
X469245Y1378896D01*
X468937Y1378937D01*
X468629Y1378987D01*
X468322Y1379044D01*
X468017Y1379109D01*
X467714Y1379181D01*
X467413Y1379260D01*
X467113Y1379347D01*
X466816Y1379441D01*
X466521Y1379542D01*
X466229Y1379651D01*
X465940Y1379767D01*
X465653Y1379890D01*
X465370Y1380019D01*
X465090Y1380156D01*
X464813Y1380300D01*
X464540Y1380450D01*
X464271Y1380607D01*
X464006Y1380770D01*
X463744Y1380940D01*
X463487Y1381117D01*
X463235Y1381299D01*
X462987Y1381488D01*
X462743Y1381683D01*
X462505Y1381883D01*
X462271Y1382090D01*
X462043Y1382302D01*
X461820Y1382520D01*
X461602Y1382743D01*
X461390Y1382971D01*
X461183Y1383205D01*
X460983Y1383443D01*
X460788Y1383687D01*
X460599Y1383935D01*
X460417Y1384187D01*
X460240Y1384444D01*
X460070Y1384706D01*
X459907Y1384971D01*
X459750Y1385240D01*
X459600Y1385513D01*
X459456Y1385790D01*
X459319Y1386070D01*
X459190Y1386353D01*
X459067Y1386640D01*
X458951Y1386929D01*
X458842Y1387221D01*
X458741Y1387516D01*
X458647Y1387813D01*
X458560Y1388113D01*
X458481Y1388414D01*
X458409Y1388717D01*
X458344Y1389022D01*
X458287Y1389329D01*
X458237Y1389637D01*
X458196Y1389945D01*
X458161Y1390255D01*
X458134Y1390566D01*
X458115Y1390877D01*
X458104Y1391188D01*
X458100Y1391500D01*
D11*
X464930Y1415771D02*
X466877Y1415771D01*
X466877Y1409280D01*
X462982Y1409280D01*
X462883Y1409282D01*
X462783Y1409288D01*
X462684Y1409297D01*
X462586Y1409310D01*
X462488Y1409327D01*
X462390Y1409348D01*
X462294Y1409373D01*
X462199Y1409401D01*
X462105Y1409433D01*
X462012Y1409468D01*
X461920Y1409507D01*
X461830Y1409550D01*
X461742Y1409595D01*
X461655Y1409645D01*
X461571Y1409697D01*
X461488Y1409753D01*
X461408Y1409811D01*
X461330Y1409873D01*
X461255Y1409938D01*
X461182Y1410006D01*
X461112Y1410076D01*
X461044Y1410149D01*
X460979Y1410224D01*
X460917Y1410302D01*
X460859Y1410382D01*
X460803Y1410465D01*
X460751Y1410549D01*
X460701Y1410636D01*
X460656Y1410724D01*
X460613Y1410814D01*
X460574Y1410906D01*
X460539Y1410999D01*
X460507Y1411093D01*
X460479Y1411188D01*
X460454Y1411284D01*
X460433Y1411382D01*
X460416Y1411480D01*
X460403Y1411578D01*
X460394Y1411677D01*
X460388Y1411777D01*
X460386Y1411876D01*
X460386Y1418368D01*
X460388Y1418467D01*
X460394Y1418567D01*
X460403Y1418666D01*
X460416Y1418764D01*
X460433Y1418862D01*
X460454Y1418960D01*
X460479Y1419056D01*
X460507Y1419151D01*
X460539Y1419245D01*
X460574Y1419338D01*
X460613Y1419430D01*
X460656Y1419520D01*
X460701Y1419608D01*
X460751Y1419695D01*
X460803Y1419779D01*
X460859Y1419862D01*
X460917Y1419942D01*
X460979Y1420020D01*
X461044Y1420095D01*
X461112Y1420168D01*
X461182Y1420238D01*
X461255Y1420306D01*
X461330Y1420371D01*
X461408Y1420433D01*
X461488Y1420491D01*
X461571Y1420547D01*
X461655Y1420599D01*
X461742Y1420649D01*
X461830Y1420694D01*
X461920Y1420737D01*
X462012Y1420776D01*
X462104Y1420811D01*
X462199Y1420843D01*
X462294Y1420871D01*
X462390Y1420896D01*
X462488Y1420917D01*
X462586Y1420934D01*
X462684Y1420947D01*
X462783Y1420956D01*
X462883Y1420962D01*
X462982Y1420964D01*
X466877Y1420964D01*
D12*
X120120Y632960D02*
X120120Y627880D01*
X117580Y630420D02*
X122660Y630420D01*
D10*
X104880Y635500D02*
X61700Y635500D01*
X104880Y635500D02*
X112500Y635500D01*
X112500Y622800D01*
X112500Y597400D01*
X112500Y584700D01*
X104880Y584700D01*
X61700Y584700D01*
X112500Y622800D02*
X137900Y622800D01*
X137900Y597400D02*
X112500Y597400D01*
X61700Y584700D02*
X61081Y584708D01*
X60463Y584730D01*
X59846Y584768D01*
X59230Y584820D01*
X58615Y584888D01*
X58002Y584971D01*
X57391Y585068D01*
X56783Y585181D01*
X56177Y585308D01*
X55575Y585450D01*
X54977Y585606D01*
X54382Y585777D01*
X53792Y585962D01*
X53207Y586162D01*
X52626Y586376D01*
X52051Y586604D01*
X51482Y586846D01*
X50919Y587102D01*
X50362Y587371D01*
X49812Y587654D01*
X49269Y587950D01*
X48733Y588259D01*
X48205Y588581D01*
X47685Y588916D01*
X47173Y589264D01*
X46670Y589624D01*
X46176Y589996D01*
X45691Y590380D01*
X45216Y590776D01*
X44750Y591183D01*
X44294Y591601D01*
X43849Y592030D01*
X43414Y592471D01*
X42991Y592921D01*
X42578Y593382D01*
X42176Y593852D01*
X41787Y594333D01*
X41408Y594822D01*
X41042Y595321D01*
X40689Y595828D01*
X40347Y596344D01*
X40019Y596868D01*
X39703Y597400D01*
X39400Y597939D01*
X39111Y598486D01*
X38835Y599040D01*
X38572Y599600D01*
X38323Y600166D01*
X38088Y600738D01*
X37867Y601316D01*
X37660Y601899D01*
X37468Y602487D01*
X37290Y603079D01*
X37126Y603675D01*
X36977Y604276D01*
X36842Y604880D01*
X36723Y605486D01*
X36618Y606096D01*
X36528Y606708D01*
X36452Y607322D01*
X36392Y607938D01*
X36347Y608555D01*
X36317Y609172D01*
X36302Y609791D01*
X36302Y610409D01*
X36317Y611028D01*
X36347Y611645D01*
X36392Y612262D01*
X36452Y612878D01*
X36528Y613492D01*
X36618Y614104D01*
X36723Y614714D01*
X36842Y615320D01*
X36977Y615924D01*
X37126Y616525D01*
X37290Y617121D01*
X37468Y617713D01*
X37660Y618301D01*
X37867Y618884D01*
X38088Y619462D01*
X38323Y620034D01*
X38572Y620600D01*
X38835Y621160D01*
X39111Y621714D01*
X39400Y622261D01*
X39703Y622800D01*
X40019Y623332D01*
X40347Y623856D01*
X40689Y624372D01*
X41042Y624879D01*
X41408Y625378D01*
X41787Y625867D01*
X42176Y626348D01*
X42578Y626818D01*
X42991Y627279D01*
X43414Y627729D01*
X43849Y628170D01*
X44294Y628599D01*
X44750Y629017D01*
X45216Y629424D01*
X45691Y629820D01*
X46176Y630204D01*
X46670Y630576D01*
X47173Y630936D01*
X47685Y631284D01*
X48205Y631619D01*
X48733Y631941D01*
X49269Y632250D01*
X49812Y632546D01*
X50362Y632829D01*
X50919Y633098D01*
X51482Y633354D01*
X52051Y633596D01*
X52626Y633824D01*
X53207Y634038D01*
X53792Y634238D01*
X54382Y634423D01*
X54977Y634594D01*
X55575Y634750D01*
X56177Y634892D01*
X56783Y635019D01*
X57391Y635132D01*
X58002Y635229D01*
X58615Y635312D01*
X59230Y635380D01*
X59846Y635432D01*
X60463Y635470D01*
X61081Y635492D01*
X61700Y635500D01*
X104880Y635500D02*
X104880Y584700D01*
D11*
X61446Y643120D02*
X61446Y654804D01*
X61446Y643120D02*
X66639Y643120D01*
X71352Y643120D02*
X76545Y643120D01*
X71352Y643120D02*
X71352Y654804D01*
X76545Y654804D01*
X75247Y649611D02*
X71352Y649611D01*
X81235Y654804D02*
X81235Y643120D01*
X81235Y654804D02*
X84481Y654804D01*
X84594Y654802D01*
X84707Y654796D01*
X84820Y654786D01*
X84933Y654772D01*
X85045Y654755D01*
X85156Y654733D01*
X85266Y654708D01*
X85376Y654678D01*
X85484Y654645D01*
X85591Y654608D01*
X85697Y654568D01*
X85801Y654523D01*
X85904Y654475D01*
X86005Y654424D01*
X86104Y654369D01*
X86201Y654311D01*
X86296Y654249D01*
X86389Y654184D01*
X86479Y654116D01*
X86567Y654045D01*
X86653Y653970D01*
X86736Y653893D01*
X86816Y653813D01*
X86893Y653730D01*
X86968Y653644D01*
X87039Y653556D01*
X87107Y653466D01*
X87172Y653373D01*
X87234Y653278D01*
X87292Y653181D01*
X87347Y653082D01*
X87398Y652981D01*
X87446Y652878D01*
X87491Y652774D01*
X87531Y652668D01*
X87568Y652561D01*
X87601Y652453D01*
X87631Y652343D01*
X87656Y652233D01*
X87678Y652122D01*
X87695Y652010D01*
X87709Y651897D01*
X87719Y651784D01*
X87725Y651671D01*
X87727Y651558D01*
X87727Y646366D01*
X87725Y646253D01*
X87719Y646140D01*
X87709Y646027D01*
X87695Y645914D01*
X87678Y645802D01*
X87656Y645691D01*
X87631Y645581D01*
X87601Y645471D01*
X87568Y645363D01*
X87531Y645256D01*
X87491Y645150D01*
X87446Y645046D01*
X87398Y644943D01*
X87347Y644842D01*
X87292Y644743D01*
X87234Y644646D01*
X87172Y644551D01*
X87107Y644458D01*
X87039Y644368D01*
X86968Y644280D01*
X86893Y644194D01*
X86816Y644111D01*
X86736Y644031D01*
X86653Y643954D01*
X86567Y643879D01*
X86479Y643808D01*
X86389Y643740D01*
X86296Y643675D01*
X86201Y643613D01*
X86104Y643555D01*
X86005Y643500D01*
X85904Y643449D01*
X85801Y643401D01*
X85697Y643356D01*
X85591Y643316D01*
X85484Y643279D01*
X85376Y643246D01*
X85266Y643216D01*
X85156Y643191D01*
X85045Y643169D01*
X84933Y643152D01*
X84820Y643138D01*
X84707Y643128D01*
X84594Y643122D01*
X84481Y643120D01*
X81235Y643120D01*
X93046Y652208D02*
X96292Y654804D01*
X96292Y643120D01*
X99537Y643120D02*
X93046Y643120D01*
D12*
X224420Y939380D02*
X224420Y944460D01*
X221880Y941920D02*
X226960Y941920D01*
D10*
X209180Y947000D02*
X166000Y947000D01*
X209180Y947000D02*
X216800Y947000D01*
X216800Y934300D01*
X216800Y908900D01*
X216800Y896200D01*
X209180Y896200D01*
X166000Y896200D01*
X216800Y934300D02*
X242200Y934300D01*
X242200Y908900D02*
X216800Y908900D01*
X166000Y896200D02*
X165381Y896208D01*
X164763Y896230D01*
X164146Y896268D01*
X163530Y896320D01*
X162915Y896388D01*
X162302Y896471D01*
X161691Y896568D01*
X161083Y896681D01*
X160477Y896808D01*
X159875Y896950D01*
X159277Y897106D01*
X158682Y897277D01*
X158092Y897462D01*
X157507Y897662D01*
X156926Y897876D01*
X156351Y898104D01*
X155782Y898346D01*
X155219Y898602D01*
X154662Y898871D01*
X154112Y899154D01*
X153569Y899450D01*
X153033Y899759D01*
X152505Y900081D01*
X151985Y900416D01*
X151473Y900764D01*
X150970Y901124D01*
X150476Y901496D01*
X149991Y901880D01*
X149516Y902276D01*
X149050Y902683D01*
X148594Y903101D01*
X148149Y903530D01*
X147714Y903971D01*
X147291Y904421D01*
X146878Y904882D01*
X146476Y905352D01*
X146087Y905833D01*
X145708Y906322D01*
X145342Y906821D01*
X144989Y907328D01*
X144647Y907844D01*
X144319Y908368D01*
X144003Y908900D01*
X143700Y909439D01*
X143411Y909986D01*
X143135Y910540D01*
X142872Y911100D01*
X142623Y911666D01*
X142388Y912238D01*
X142167Y912816D01*
X141960Y913399D01*
X141768Y913987D01*
X141590Y914579D01*
X141426Y915175D01*
X141277Y915776D01*
X141142Y916380D01*
X141023Y916986D01*
X140918Y917596D01*
X140828Y918208D01*
X140752Y918822D01*
X140692Y919438D01*
X140647Y920055D01*
X140617Y920672D01*
X140602Y921291D01*
X140602Y921909D01*
X140617Y922528D01*
X140647Y923145D01*
X140692Y923762D01*
X140752Y924378D01*
X140828Y924992D01*
X140918Y925604D01*
X141023Y926214D01*
X141142Y926820D01*
X141277Y927424D01*
X141426Y928025D01*
X141590Y928621D01*
X141768Y929213D01*
X141960Y929801D01*
X142167Y930384D01*
X142388Y930962D01*
X142623Y931534D01*
X142872Y932100D01*
X143135Y932660D01*
X143411Y933214D01*
X143700Y933761D01*
X144003Y934300D01*
X144319Y934832D01*
X144647Y935356D01*
X144989Y935872D01*
X145342Y936379D01*
X145708Y936878D01*
X146087Y937367D01*
X146476Y937848D01*
X146878Y938318D01*
X147291Y938779D01*
X147714Y939229D01*
X148149Y939670D01*
X148594Y940099D01*
X149050Y940517D01*
X149516Y940924D01*
X149991Y941320D01*
X150476Y941704D01*
X150970Y942076D01*
X151473Y942436D01*
X151985Y942784D01*
X152505Y943119D01*
X153033Y943441D01*
X153569Y943750D01*
X154112Y944046D01*
X154662Y944329D01*
X155219Y944598D01*
X155782Y944854D01*
X156351Y945096D01*
X156926Y945324D01*
X157507Y945538D01*
X158092Y945738D01*
X158682Y945923D01*
X159277Y946094D01*
X159875Y946250D01*
X160477Y946392D01*
X161083Y946519D01*
X161691Y946632D01*
X162302Y946729D01*
X162915Y946812D01*
X163530Y946880D01*
X164146Y946932D01*
X164763Y946970D01*
X165381Y946992D01*
X166000Y947000D01*
X209180Y947000D02*
X209180Y896200D01*
D11*
X168286Y957160D02*
X168286Y968844D01*
X168286Y957160D02*
X173479Y957160D01*
X178192Y957160D02*
X183385Y957160D01*
X178192Y957160D02*
X178192Y968844D01*
X183385Y968844D01*
X182087Y963651D02*
X178192Y963651D01*
X188075Y968844D02*
X188075Y957160D01*
X188075Y968844D02*
X191321Y968844D01*
X191434Y968842D01*
X191547Y968836D01*
X191660Y968826D01*
X191773Y968812D01*
X191885Y968795D01*
X191996Y968773D01*
X192106Y968748D01*
X192216Y968718D01*
X192324Y968685D01*
X192431Y968648D01*
X192537Y968608D01*
X192641Y968563D01*
X192744Y968515D01*
X192845Y968464D01*
X192944Y968409D01*
X193041Y968351D01*
X193136Y968289D01*
X193229Y968224D01*
X193319Y968156D01*
X193407Y968085D01*
X193493Y968010D01*
X193576Y967933D01*
X193656Y967853D01*
X193733Y967770D01*
X193808Y967684D01*
X193879Y967596D01*
X193947Y967506D01*
X194012Y967413D01*
X194074Y967318D01*
X194132Y967221D01*
X194187Y967122D01*
X194238Y967021D01*
X194286Y966918D01*
X194331Y966814D01*
X194371Y966708D01*
X194408Y966601D01*
X194441Y966493D01*
X194471Y966383D01*
X194496Y966273D01*
X194518Y966162D01*
X194535Y966050D01*
X194549Y965937D01*
X194559Y965824D01*
X194565Y965711D01*
X194567Y965598D01*
X194567Y960406D01*
X194565Y960293D01*
X194559Y960180D01*
X194549Y960067D01*
X194535Y959954D01*
X194518Y959842D01*
X194496Y959731D01*
X194471Y959621D01*
X194441Y959511D01*
X194408Y959403D01*
X194371Y959296D01*
X194331Y959190D01*
X194286Y959086D01*
X194238Y958983D01*
X194187Y958882D01*
X194132Y958783D01*
X194074Y958686D01*
X194012Y958591D01*
X193947Y958498D01*
X193879Y958408D01*
X193808Y958320D01*
X193733Y958234D01*
X193656Y958151D01*
X193576Y958071D01*
X193493Y957994D01*
X193407Y957919D01*
X193319Y957848D01*
X193229Y957780D01*
X193136Y957715D01*
X193041Y957653D01*
X192944Y957595D01*
X192845Y957540D01*
X192744Y957489D01*
X192641Y957441D01*
X192537Y957396D01*
X192431Y957356D01*
X192324Y957319D01*
X192216Y957286D01*
X192106Y957256D01*
X191996Y957231D01*
X191885Y957209D01*
X191773Y957192D01*
X191660Y957178D01*
X191547Y957168D01*
X191434Y957162D01*
X191321Y957160D01*
X188075Y957160D01*
X199886Y966248D02*
X203132Y968844D01*
X203132Y957160D01*
X206377Y957160D02*
X199886Y957160D01*
X211317Y963002D02*
X211320Y963232D01*
X211328Y963462D01*
X211342Y963691D01*
X211361Y963920D01*
X211386Y964149D01*
X211416Y964376D01*
X211451Y964604D01*
X211492Y964830D01*
X211538Y965055D01*
X211590Y965279D01*
X211647Y965501D01*
X211709Y965723D01*
X211777Y965942D01*
X211850Y966160D01*
X211928Y966377D01*
X212011Y966591D01*
X212099Y966803D01*
X212192Y967013D01*
X212291Y967221D01*
X212290Y967221D02*
X212323Y967311D01*
X212359Y967400D01*
X212399Y967488D01*
X212443Y967573D01*
X212490Y967657D01*
X212540Y967739D01*
X212594Y967819D01*
X212650Y967896D01*
X212710Y967972D01*
X212773Y968045D01*
X212838Y968115D01*
X212907Y968183D01*
X212978Y968247D01*
X213051Y968309D01*
X213127Y968368D01*
X213205Y968424D01*
X213286Y968477D01*
X213368Y968526D01*
X213452Y968572D01*
X213539Y968615D01*
X213626Y968654D01*
X213716Y968690D01*
X213806Y968722D01*
X213898Y968750D01*
X213991Y968775D01*
X214085Y968796D01*
X214179Y968813D01*
X214274Y968827D01*
X214370Y968836D01*
X214466Y968842D01*
X214562Y968844D01*
X214658Y968842D01*
X214754Y968836D01*
X214850Y968827D01*
X214945Y968813D01*
X215039Y968796D01*
X215133Y968775D01*
X215226Y968750D01*
X215318Y968722D01*
X215408Y968690D01*
X215498Y968654D01*
X215585Y968615D01*
X215672Y968572D01*
X215756Y968526D01*
X215838Y968477D01*
X215919Y968424D01*
X215997Y968368D01*
X216073Y968309D01*
X216146Y968247D01*
X216217Y968183D01*
X216286Y968115D01*
X216351Y968045D01*
X216414Y967972D01*
X216474Y967896D01*
X216530Y967819D01*
X216584Y967739D01*
X216634Y967657D01*
X216681Y967573D01*
X216725Y967488D01*
X216765Y967400D01*
X216801Y967311D01*
X216834Y967221D01*
X216933Y967014D01*
X217026Y966804D01*
X217114Y966591D01*
X217197Y966377D01*
X217275Y966161D01*
X217348Y965943D01*
X217416Y965723D01*
X217478Y965502D01*
X217535Y965279D01*
X217587Y965055D01*
X217633Y964830D01*
X217674Y964604D01*
X217709Y964377D01*
X217739Y964149D01*
X217764Y963920D01*
X217783Y963691D01*
X217797Y963462D01*
X217805Y963232D01*
X217808Y963002D01*
X211316Y963002D02*
X211319Y962772D01*
X211327Y962542D01*
X211341Y962313D01*
X211360Y962084D01*
X211385Y961855D01*
X211415Y961627D01*
X211450Y961400D01*
X211491Y961174D01*
X211537Y960949D01*
X211589Y960725D01*
X211646Y960502D01*
X211708Y960281D01*
X211776Y960061D01*
X211849Y959843D01*
X211927Y959627D01*
X212010Y959413D01*
X212098Y959201D01*
X212191Y958990D01*
X212290Y958783D01*
X212323Y958693D01*
X212359Y958604D01*
X212400Y958516D01*
X212443Y958431D01*
X212490Y958347D01*
X212540Y958265D01*
X212594Y958185D01*
X212650Y958108D01*
X212710Y958032D01*
X212773Y957959D01*
X212838Y957889D01*
X212907Y957821D01*
X212978Y957757D01*
X213051Y957695D01*
X213127Y957636D01*
X213205Y957580D01*
X213286Y957527D01*
X213368Y957478D01*
X213452Y957432D01*
X213539Y957389D01*
X213626Y957350D01*
X213716Y957314D01*
X213806Y957282D01*
X213898Y957254D01*
X213991Y957229D01*
X214085Y957208D01*
X214179Y957191D01*
X214274Y957177D01*
X214370Y957168D01*
X214466Y957162D01*
X214562Y957160D01*
X216834Y958783D02*
X216933Y958990D01*
X217026Y959201D01*
X217114Y959413D01*
X217197Y959627D01*
X217275Y959843D01*
X217348Y960061D01*
X217416Y960281D01*
X217478Y960502D01*
X217535Y960725D01*
X217587Y960949D01*
X217633Y961174D01*
X217674Y961400D01*
X217709Y961627D01*
X217739Y961855D01*
X217764Y962084D01*
X217783Y962313D01*
X217797Y962542D01*
X217805Y962772D01*
X217808Y963002D01*
X216834Y958783D02*
X216801Y958693D01*
X216765Y958604D01*
X216725Y958516D01*
X216681Y958431D01*
X216634Y958347D01*
X216584Y958265D01*
X216530Y958185D01*
X216474Y958108D01*
X216414Y958032D01*
X216351Y957959D01*
X216286Y957889D01*
X216217Y957821D01*
X216146Y957757D01*
X216073Y957695D01*
X215997Y957636D01*
X215919Y957580D01*
X215838Y957527D01*
X215756Y957478D01*
X215672Y957432D01*
X215585Y957389D01*
X215498Y957350D01*
X215408Y957314D01*
X215318Y957282D01*
X215226Y957254D01*
X215133Y957229D01*
X215039Y957208D01*
X214945Y957191D01*
X214850Y957177D01*
X214754Y957168D01*
X214658Y957162D01*
X214562Y957160D01*
X211965Y959756D02*
X217158Y966248D01*
D12*
X677280Y660820D02*
X677280Y655740D01*
X679820Y658280D02*
X674740Y658280D01*
D10*
X692520Y653200D02*
X735700Y653200D01*
X692520Y653200D02*
X684900Y653200D01*
X684900Y665900D01*
X684900Y691300D01*
X684900Y704000D01*
X692520Y704000D01*
X735700Y704000D01*
X684900Y665900D02*
X659500Y665900D01*
X659500Y691300D02*
X684900Y691300D01*
X735700Y704000D02*
X736319Y703992D01*
X736937Y703970D01*
X737554Y703932D01*
X738170Y703880D01*
X738785Y703812D01*
X739398Y703729D01*
X740009Y703632D01*
X740617Y703519D01*
X741223Y703392D01*
X741825Y703250D01*
X742423Y703094D01*
X743018Y702923D01*
X743608Y702738D01*
X744193Y702538D01*
X744774Y702324D01*
X745349Y702096D01*
X745918Y701854D01*
X746481Y701598D01*
X747038Y701329D01*
X747588Y701046D01*
X748131Y700750D01*
X748667Y700441D01*
X749195Y700119D01*
X749715Y699784D01*
X750227Y699436D01*
X750730Y699076D01*
X751224Y698704D01*
X751709Y698320D01*
X752184Y697924D01*
X752650Y697517D01*
X753106Y697099D01*
X753551Y696670D01*
X753986Y696229D01*
X754409Y695779D01*
X754822Y695318D01*
X755224Y694848D01*
X755613Y694367D01*
X755992Y693878D01*
X756358Y693379D01*
X756711Y692872D01*
X757053Y692356D01*
X757381Y691832D01*
X757697Y691300D01*
X758000Y690761D01*
X758289Y690214D01*
X758565Y689660D01*
X758828Y689100D01*
X759077Y688534D01*
X759312Y687962D01*
X759533Y687384D01*
X759740Y686801D01*
X759932Y686213D01*
X760110Y685621D01*
X760274Y685025D01*
X760423Y684424D01*
X760558Y683820D01*
X760677Y683214D01*
X760782Y682604D01*
X760872Y681992D01*
X760948Y681378D01*
X761008Y680762D01*
X761053Y680145D01*
X761083Y679528D01*
X761098Y678909D01*
X761098Y678291D01*
X761083Y677672D01*
X761053Y677055D01*
X761008Y676438D01*
X760948Y675822D01*
X760872Y675208D01*
X760782Y674596D01*
X760677Y673986D01*
X760558Y673380D01*
X760423Y672776D01*
X760274Y672175D01*
X760110Y671579D01*
X759932Y670987D01*
X759740Y670399D01*
X759533Y669816D01*
X759312Y669238D01*
X759077Y668666D01*
X758828Y668100D01*
X758565Y667540D01*
X758289Y666986D01*
X758000Y666439D01*
X757697Y665900D01*
X757381Y665368D01*
X757053Y664844D01*
X756711Y664328D01*
X756358Y663821D01*
X755992Y663322D01*
X755613Y662833D01*
X755224Y662352D01*
X754822Y661882D01*
X754409Y661421D01*
X753986Y660971D01*
X753551Y660530D01*
X753106Y660101D01*
X752650Y659683D01*
X752184Y659276D01*
X751709Y658880D01*
X751224Y658496D01*
X750730Y658124D01*
X750227Y657764D01*
X749715Y657416D01*
X749195Y657081D01*
X748667Y656759D01*
X748131Y656450D01*
X747588Y656154D01*
X747038Y655871D01*
X746481Y655602D01*
X745918Y655346D01*
X745349Y655104D01*
X744774Y654876D01*
X744193Y654662D01*
X743608Y654462D01*
X743018Y654277D01*
X742423Y654106D01*
X741825Y653950D01*
X741223Y653808D01*
X740617Y653681D01*
X740009Y653568D01*
X739398Y653471D01*
X738785Y653388D01*
X738170Y653320D01*
X737554Y653268D01*
X736937Y653230D01*
X736319Y653208D01*
X735700Y653200D01*
X692520Y653200D02*
X692520Y704000D01*
D11*
X638292Y706540D02*
X638292Y718224D01*
X638292Y706540D02*
X643485Y706540D01*
X648198Y706540D02*
X653391Y706540D01*
X648198Y706540D02*
X648198Y718224D01*
X653391Y718224D01*
X652093Y713031D02*
X648198Y713031D01*
X658081Y718224D02*
X658081Y706540D01*
X658081Y718224D02*
X661327Y718224D01*
X661440Y718222D01*
X661553Y718216D01*
X661666Y718206D01*
X661779Y718192D01*
X661891Y718175D01*
X662002Y718153D01*
X662112Y718128D01*
X662222Y718098D01*
X662330Y718065D01*
X662437Y718028D01*
X662543Y717988D01*
X662647Y717943D01*
X662750Y717895D01*
X662851Y717844D01*
X662950Y717789D01*
X663047Y717731D01*
X663142Y717669D01*
X663235Y717604D01*
X663325Y717536D01*
X663413Y717465D01*
X663499Y717390D01*
X663582Y717313D01*
X663662Y717233D01*
X663739Y717150D01*
X663814Y717064D01*
X663885Y716976D01*
X663953Y716886D01*
X664018Y716793D01*
X664080Y716698D01*
X664138Y716601D01*
X664193Y716502D01*
X664244Y716401D01*
X664292Y716298D01*
X664337Y716194D01*
X664377Y716088D01*
X664414Y715981D01*
X664447Y715873D01*
X664477Y715763D01*
X664502Y715653D01*
X664524Y715542D01*
X664541Y715430D01*
X664555Y715317D01*
X664565Y715204D01*
X664571Y715091D01*
X664573Y714978D01*
X664573Y709786D01*
X664571Y709673D01*
X664565Y709560D01*
X664555Y709447D01*
X664541Y709334D01*
X664524Y709222D01*
X664502Y709111D01*
X664477Y709001D01*
X664447Y708891D01*
X664414Y708783D01*
X664377Y708676D01*
X664337Y708570D01*
X664292Y708466D01*
X664244Y708363D01*
X664193Y708262D01*
X664138Y708163D01*
X664080Y708066D01*
X664018Y707971D01*
X663953Y707878D01*
X663885Y707788D01*
X663814Y707700D01*
X663739Y707614D01*
X663662Y707531D01*
X663582Y707451D01*
X663499Y707374D01*
X663413Y707299D01*
X663325Y707228D01*
X663235Y707160D01*
X663142Y707095D01*
X663047Y707033D01*
X662950Y706975D01*
X662851Y706920D01*
X662750Y706869D01*
X662647Y706821D01*
X662543Y706776D01*
X662437Y706736D01*
X662330Y706699D01*
X662222Y706666D01*
X662112Y706636D01*
X662002Y706611D01*
X661891Y706589D01*
X661779Y706572D01*
X661666Y706558D01*
X661553Y706548D01*
X661440Y706542D01*
X661327Y706540D01*
X658081Y706540D01*
X673462Y718224D02*
X673569Y718222D01*
X673675Y718216D01*
X673781Y718206D01*
X673887Y718193D01*
X673993Y718175D01*
X674097Y718154D01*
X674201Y718129D01*
X674304Y718100D01*
X674405Y718068D01*
X674505Y718031D01*
X674604Y717991D01*
X674702Y717948D01*
X674798Y717901D01*
X674892Y717850D01*
X674984Y717796D01*
X675074Y717739D01*
X675162Y717679D01*
X675247Y717615D01*
X675330Y717548D01*
X675411Y717478D01*
X675489Y717406D01*
X675565Y717330D01*
X675637Y717252D01*
X675707Y717171D01*
X675774Y717088D01*
X675838Y717003D01*
X675898Y716915D01*
X675955Y716825D01*
X676009Y716733D01*
X676060Y716639D01*
X676107Y716543D01*
X676150Y716445D01*
X676190Y716346D01*
X676227Y716246D01*
X676259Y716145D01*
X676288Y716042D01*
X676313Y715938D01*
X676334Y715834D01*
X676352Y715728D01*
X676365Y715622D01*
X676375Y715516D01*
X676381Y715410D01*
X676383Y715303D01*
X673462Y718224D02*
X673341Y718222D01*
X673220Y718216D01*
X673100Y718206D01*
X672979Y718193D01*
X672860Y718175D01*
X672740Y718154D01*
X672622Y718129D01*
X672505Y718100D01*
X672388Y718067D01*
X672273Y718031D01*
X672159Y717990D01*
X672046Y717947D01*
X671934Y717899D01*
X671825Y717848D01*
X671717Y717793D01*
X671610Y717735D01*
X671506Y717674D01*
X671404Y717609D01*
X671304Y717541D01*
X671206Y717470D01*
X671110Y717396D01*
X671017Y717319D01*
X670927Y717238D01*
X670839Y717155D01*
X670754Y717069D01*
X670671Y716980D01*
X670592Y716889D01*
X670515Y716795D01*
X670442Y716699D01*
X670372Y716601D01*
X670305Y716500D01*
X670241Y716397D01*
X670181Y716292D01*
X670124Y716185D01*
X670070Y716077D01*
X670020Y715967D01*
X669974Y715855D01*
X669931Y715742D01*
X669892Y715627D01*
X675410Y713031D02*
X675489Y713108D01*
X675565Y713189D01*
X675638Y713272D01*
X675708Y713357D01*
X675775Y713445D01*
X675839Y713535D01*
X675899Y713627D01*
X675956Y713722D01*
X676010Y713818D01*
X676061Y713916D01*
X676108Y714016D01*
X676152Y714118D01*
X676192Y714221D01*
X676228Y714325D01*
X676260Y714431D01*
X676289Y714537D01*
X676314Y714645D01*
X676336Y714753D01*
X676353Y714863D01*
X676367Y714972D01*
X676376Y715082D01*
X676382Y715193D01*
X676384Y715303D01*
X675410Y713031D02*
X669892Y706540D01*
X676383Y706540D01*
D12*
X275220Y761580D02*
X275220Y766660D01*
X272680Y764120D02*
X277760Y764120D01*
D10*
X259980Y769200D02*
X216800Y769200D01*
X259980Y769200D02*
X267600Y769200D01*
X267600Y756500D01*
X267600Y731100D01*
X267600Y718400D01*
X259980Y718400D01*
X216800Y718400D01*
X267600Y756500D02*
X293000Y756500D01*
X293000Y731100D02*
X267600Y731100D01*
X216800Y718400D02*
X216181Y718408D01*
X215563Y718430D01*
X214946Y718468D01*
X214330Y718520D01*
X213715Y718588D01*
X213102Y718671D01*
X212491Y718768D01*
X211883Y718881D01*
X211277Y719008D01*
X210675Y719150D01*
X210077Y719306D01*
X209482Y719477D01*
X208892Y719662D01*
X208307Y719862D01*
X207726Y720076D01*
X207151Y720304D01*
X206582Y720546D01*
X206019Y720802D01*
X205462Y721071D01*
X204912Y721354D01*
X204369Y721650D01*
X203833Y721959D01*
X203305Y722281D01*
X202785Y722616D01*
X202273Y722964D01*
X201770Y723324D01*
X201276Y723696D01*
X200791Y724080D01*
X200316Y724476D01*
X199850Y724883D01*
X199394Y725301D01*
X198949Y725730D01*
X198514Y726171D01*
X198091Y726621D01*
X197678Y727082D01*
X197276Y727552D01*
X196887Y728033D01*
X196508Y728522D01*
X196142Y729021D01*
X195789Y729528D01*
X195447Y730044D01*
X195119Y730568D01*
X194803Y731100D01*
X194500Y731639D01*
X194211Y732186D01*
X193935Y732740D01*
X193672Y733300D01*
X193423Y733866D01*
X193188Y734438D01*
X192967Y735016D01*
X192760Y735599D01*
X192568Y736187D01*
X192390Y736779D01*
X192226Y737375D01*
X192077Y737976D01*
X191942Y738580D01*
X191823Y739186D01*
X191718Y739796D01*
X191628Y740408D01*
X191552Y741022D01*
X191492Y741638D01*
X191447Y742255D01*
X191417Y742872D01*
X191402Y743491D01*
X191402Y744109D01*
X191417Y744728D01*
X191447Y745345D01*
X191492Y745962D01*
X191552Y746578D01*
X191628Y747192D01*
X191718Y747804D01*
X191823Y748414D01*
X191942Y749020D01*
X192077Y749624D01*
X192226Y750225D01*
X192390Y750821D01*
X192568Y751413D01*
X192760Y752001D01*
X192967Y752584D01*
X193188Y753162D01*
X193423Y753734D01*
X193672Y754300D01*
X193935Y754860D01*
X194211Y755414D01*
X194500Y755961D01*
X194803Y756500D01*
X195119Y757032D01*
X195447Y757556D01*
X195789Y758072D01*
X196142Y758579D01*
X196508Y759078D01*
X196887Y759567D01*
X197276Y760048D01*
X197678Y760518D01*
X198091Y760979D01*
X198514Y761429D01*
X198949Y761870D01*
X199394Y762299D01*
X199850Y762717D01*
X200316Y763124D01*
X200791Y763520D01*
X201276Y763904D01*
X201770Y764276D01*
X202273Y764636D01*
X202785Y764984D01*
X203305Y765319D01*
X203833Y765641D01*
X204369Y765950D01*
X204912Y766246D01*
X205462Y766529D01*
X206019Y766798D01*
X206582Y767054D01*
X207151Y767296D01*
X207726Y767524D01*
X208307Y767738D01*
X208892Y767938D01*
X209482Y768123D01*
X210077Y768294D01*
X210675Y768450D01*
X211277Y768592D01*
X211883Y768719D01*
X212491Y768832D01*
X213102Y768929D01*
X213715Y769012D01*
X214330Y769080D01*
X214946Y769132D01*
X215563Y769170D01*
X216181Y769192D01*
X216800Y769200D01*
X259980Y769200D02*
X259980Y718400D01*
D11*
X216546Y779360D02*
X216546Y791044D01*
X216546Y779360D02*
X221739Y779360D01*
X226452Y779360D02*
X231645Y779360D01*
X226452Y779360D02*
X226452Y791044D01*
X231645Y791044D01*
X230347Y785851D02*
X226452Y785851D01*
X236335Y791044D02*
X236335Y779360D01*
X236335Y791044D02*
X239581Y791044D01*
X239694Y791042D01*
X239807Y791036D01*
X239920Y791026D01*
X240033Y791012D01*
X240145Y790995D01*
X240256Y790973D01*
X240366Y790948D01*
X240476Y790918D01*
X240584Y790885D01*
X240691Y790848D01*
X240797Y790808D01*
X240901Y790763D01*
X241004Y790715D01*
X241105Y790664D01*
X241204Y790609D01*
X241301Y790551D01*
X241396Y790489D01*
X241489Y790424D01*
X241579Y790356D01*
X241667Y790285D01*
X241753Y790210D01*
X241836Y790133D01*
X241916Y790053D01*
X241993Y789970D01*
X242068Y789884D01*
X242139Y789796D01*
X242207Y789706D01*
X242272Y789613D01*
X242334Y789518D01*
X242392Y789421D01*
X242447Y789322D01*
X242498Y789221D01*
X242546Y789118D01*
X242591Y789014D01*
X242631Y788908D01*
X242668Y788801D01*
X242701Y788693D01*
X242731Y788583D01*
X242756Y788473D01*
X242778Y788362D01*
X242795Y788250D01*
X242809Y788137D01*
X242819Y788024D01*
X242825Y787911D01*
X242827Y787798D01*
X242827Y782606D01*
X242825Y782493D01*
X242819Y782380D01*
X242809Y782267D01*
X242795Y782154D01*
X242778Y782042D01*
X242756Y781931D01*
X242731Y781821D01*
X242701Y781711D01*
X242668Y781603D01*
X242631Y781496D01*
X242591Y781390D01*
X242546Y781286D01*
X242498Y781183D01*
X242447Y781082D01*
X242392Y780983D01*
X242334Y780886D01*
X242272Y780791D01*
X242207Y780698D01*
X242139Y780608D01*
X242068Y780520D01*
X241993Y780434D01*
X241916Y780351D01*
X241836Y780271D01*
X241753Y780194D01*
X241667Y780119D01*
X241579Y780048D01*
X241489Y779980D01*
X241396Y779915D01*
X241301Y779853D01*
X241204Y779795D01*
X241105Y779740D01*
X241004Y779689D01*
X240901Y779641D01*
X240797Y779596D01*
X240691Y779556D01*
X240584Y779519D01*
X240476Y779486D01*
X240366Y779456D01*
X240256Y779431D01*
X240145Y779409D01*
X240033Y779392D01*
X239920Y779378D01*
X239807Y779368D01*
X239694Y779362D01*
X239581Y779360D01*
X236335Y779360D01*
X248146Y779360D02*
X251392Y779360D01*
X251505Y779362D01*
X251618Y779368D01*
X251731Y779378D01*
X251844Y779392D01*
X251956Y779409D01*
X252067Y779431D01*
X252177Y779456D01*
X252287Y779486D01*
X252395Y779519D01*
X252502Y779556D01*
X252608Y779596D01*
X252712Y779641D01*
X252815Y779689D01*
X252916Y779740D01*
X253015Y779795D01*
X253112Y779853D01*
X253207Y779915D01*
X253300Y779980D01*
X253390Y780048D01*
X253478Y780119D01*
X253564Y780194D01*
X253647Y780271D01*
X253727Y780351D01*
X253804Y780434D01*
X253879Y780520D01*
X253950Y780608D01*
X254018Y780698D01*
X254083Y780791D01*
X254145Y780886D01*
X254203Y780983D01*
X254258Y781082D01*
X254309Y781183D01*
X254357Y781286D01*
X254402Y781390D01*
X254442Y781496D01*
X254479Y781603D01*
X254512Y781711D01*
X254542Y781821D01*
X254567Y781931D01*
X254589Y782042D01*
X254606Y782154D01*
X254620Y782267D01*
X254630Y782380D01*
X254636Y782493D01*
X254638Y782606D01*
X254636Y782719D01*
X254630Y782832D01*
X254620Y782945D01*
X254606Y783058D01*
X254589Y783170D01*
X254567Y783281D01*
X254542Y783391D01*
X254512Y783501D01*
X254479Y783609D01*
X254442Y783716D01*
X254402Y783822D01*
X254357Y783926D01*
X254309Y784029D01*
X254258Y784130D01*
X254203Y784229D01*
X254145Y784326D01*
X254083Y784421D01*
X254018Y784514D01*
X253950Y784604D01*
X253879Y784692D01*
X253804Y784778D01*
X253727Y784861D01*
X253647Y784941D01*
X253564Y785018D01*
X253478Y785093D01*
X253390Y785164D01*
X253300Y785232D01*
X253207Y785297D01*
X253112Y785359D01*
X253015Y785417D01*
X252916Y785472D01*
X252815Y785523D01*
X252712Y785571D01*
X252608Y785616D01*
X252502Y785656D01*
X252395Y785693D01*
X252287Y785726D01*
X252177Y785756D01*
X252067Y785781D01*
X251956Y785803D01*
X251844Y785820D01*
X251731Y785834D01*
X251618Y785844D01*
X251505Y785850D01*
X251392Y785852D01*
X252041Y791044D02*
X248146Y791044D01*
X252041Y791044D02*
X252142Y791042D01*
X252242Y791036D01*
X252342Y791026D01*
X252442Y791013D01*
X252541Y790995D01*
X252640Y790974D01*
X252737Y790949D01*
X252834Y790920D01*
X252929Y790887D01*
X253023Y790851D01*
X253115Y790811D01*
X253206Y790768D01*
X253295Y790721D01*
X253382Y790671D01*
X253468Y790617D01*
X253551Y790560D01*
X253631Y790500D01*
X253710Y790437D01*
X253786Y790370D01*
X253859Y790301D01*
X253929Y790229D01*
X253997Y790155D01*
X254062Y790078D01*
X254123Y789998D01*
X254182Y789916D01*
X254237Y789832D01*
X254289Y789746D01*
X254338Y789658D01*
X254383Y789568D01*
X254425Y789476D01*
X254463Y789383D01*
X254497Y789288D01*
X254528Y789193D01*
X254555Y789096D01*
X254578Y788998D01*
X254598Y788899D01*
X254613Y788799D01*
X254625Y788699D01*
X254633Y788599D01*
X254637Y788498D01*
X254637Y788398D01*
X254633Y788297D01*
X254625Y788197D01*
X254613Y788097D01*
X254598Y787997D01*
X254578Y787898D01*
X254555Y787800D01*
X254528Y787703D01*
X254497Y787608D01*
X254463Y787513D01*
X254425Y787420D01*
X254383Y787328D01*
X254338Y787238D01*
X254289Y787150D01*
X254237Y787064D01*
X254182Y786980D01*
X254123Y786898D01*
X254062Y786818D01*
X253997Y786741D01*
X253929Y786667D01*
X253859Y786595D01*
X253786Y786526D01*
X253710Y786459D01*
X253631Y786396D01*
X253551Y786336D01*
X253468Y786279D01*
X253382Y786225D01*
X253295Y786175D01*
X253206Y786128D01*
X253115Y786085D01*
X253023Y786045D01*
X252929Y786009D01*
X252834Y785976D01*
X252737Y785947D01*
X252640Y785922D01*
X252541Y785901D01*
X252442Y785883D01*
X252342Y785870D01*
X252242Y785860D01*
X252142Y785854D01*
X252041Y785852D01*
X252041Y785851D02*
X249445Y785851D01*
D12*
X639180Y884340D02*
X639180Y889420D01*
X641720Y886880D02*
X636640Y886880D01*
D10*
X654420Y881800D02*
X697600Y881800D01*
X654420Y881800D02*
X646800Y881800D01*
X646800Y894500D01*
X646800Y919900D01*
X646800Y932600D01*
X654420Y932600D01*
X697600Y932600D01*
X646800Y894500D02*
X621400Y894500D01*
X621400Y919900D02*
X646800Y919900D01*
X697600Y932600D02*
X698219Y932592D01*
X698837Y932570D01*
X699454Y932532D01*
X700070Y932480D01*
X700685Y932412D01*
X701298Y932329D01*
X701909Y932232D01*
X702517Y932119D01*
X703123Y931992D01*
X703725Y931850D01*
X704323Y931694D01*
X704918Y931523D01*
X705508Y931338D01*
X706093Y931138D01*
X706674Y930924D01*
X707249Y930696D01*
X707818Y930454D01*
X708381Y930198D01*
X708938Y929929D01*
X709488Y929646D01*
X710031Y929350D01*
X710567Y929041D01*
X711095Y928719D01*
X711615Y928384D01*
X712127Y928036D01*
X712630Y927676D01*
X713124Y927304D01*
X713609Y926920D01*
X714084Y926524D01*
X714550Y926117D01*
X715006Y925699D01*
X715451Y925270D01*
X715886Y924829D01*
X716309Y924379D01*
X716722Y923918D01*
X717124Y923448D01*
X717513Y922967D01*
X717892Y922478D01*
X718258Y921979D01*
X718611Y921472D01*
X718953Y920956D01*
X719281Y920432D01*
X719597Y919900D01*
X719900Y919361D01*
X720189Y918814D01*
X720465Y918260D01*
X720728Y917700D01*
X720977Y917134D01*
X721212Y916562D01*
X721433Y915984D01*
X721640Y915401D01*
X721832Y914813D01*
X722010Y914221D01*
X722174Y913625D01*
X722323Y913024D01*
X722458Y912420D01*
X722577Y911814D01*
X722682Y911204D01*
X722772Y910592D01*
X722848Y909978D01*
X722908Y909362D01*
X722953Y908745D01*
X722983Y908128D01*
X722998Y907509D01*
X722998Y906891D01*
X722983Y906272D01*
X722953Y905655D01*
X722908Y905038D01*
X722848Y904422D01*
X722772Y903808D01*
X722682Y903196D01*
X722577Y902586D01*
X722458Y901980D01*
X722323Y901376D01*
X722174Y900775D01*
X722010Y900179D01*
X721832Y899587D01*
X721640Y898999D01*
X721433Y898416D01*
X721212Y897838D01*
X720977Y897266D01*
X720728Y896700D01*
X720465Y896140D01*
X720189Y895586D01*
X719900Y895039D01*
X719597Y894500D01*
X719281Y893968D01*
X718953Y893444D01*
X718611Y892928D01*
X718258Y892421D01*
X717892Y891922D01*
X717513Y891433D01*
X717124Y890952D01*
X716722Y890482D01*
X716309Y890021D01*
X715886Y889571D01*
X715451Y889130D01*
X715006Y888701D01*
X714550Y888283D01*
X714084Y887876D01*
X713609Y887480D01*
X713124Y887096D01*
X712630Y886724D01*
X712127Y886364D01*
X711615Y886016D01*
X711095Y885681D01*
X710567Y885359D01*
X710031Y885050D01*
X709488Y884754D01*
X708938Y884471D01*
X708381Y884202D01*
X707818Y883946D01*
X707249Y883704D01*
X706674Y883476D01*
X706093Y883262D01*
X705508Y883062D01*
X704918Y882877D01*
X704323Y882706D01*
X703725Y882550D01*
X703123Y882408D01*
X702517Y882281D01*
X701909Y882168D01*
X701298Y882071D01*
X700685Y881988D01*
X700070Y881920D01*
X699454Y881868D01*
X698837Y881830D01*
X698219Y881808D01*
X697600Y881800D01*
X654420Y881800D02*
X654420Y932600D01*
D11*
X600192Y935140D02*
X600192Y946824D01*
X600192Y935140D02*
X605385Y935140D01*
X610098Y935140D02*
X615291Y935140D01*
X610098Y935140D02*
X610098Y946824D01*
X615291Y946824D01*
X613993Y941631D02*
X610098Y941631D01*
X619981Y946824D02*
X619981Y935140D01*
X619981Y946824D02*
X623227Y946824D01*
X623340Y946822D01*
X623453Y946816D01*
X623566Y946806D01*
X623679Y946792D01*
X623791Y946775D01*
X623902Y946753D01*
X624012Y946728D01*
X624122Y946698D01*
X624230Y946665D01*
X624337Y946628D01*
X624443Y946588D01*
X624547Y946543D01*
X624650Y946495D01*
X624751Y946444D01*
X624850Y946389D01*
X624947Y946331D01*
X625042Y946269D01*
X625135Y946204D01*
X625225Y946136D01*
X625313Y946065D01*
X625399Y945990D01*
X625482Y945913D01*
X625562Y945833D01*
X625639Y945750D01*
X625714Y945664D01*
X625785Y945576D01*
X625853Y945486D01*
X625918Y945393D01*
X625980Y945298D01*
X626038Y945201D01*
X626093Y945102D01*
X626144Y945001D01*
X626192Y944898D01*
X626237Y944794D01*
X626277Y944688D01*
X626314Y944581D01*
X626347Y944473D01*
X626377Y944363D01*
X626402Y944253D01*
X626424Y944142D01*
X626441Y944030D01*
X626455Y943917D01*
X626465Y943804D01*
X626471Y943691D01*
X626473Y943578D01*
X626473Y938386D01*
X626471Y938273D01*
X626465Y938160D01*
X626455Y938047D01*
X626441Y937934D01*
X626424Y937822D01*
X626402Y937711D01*
X626377Y937601D01*
X626347Y937491D01*
X626314Y937383D01*
X626277Y937276D01*
X626237Y937170D01*
X626192Y937066D01*
X626144Y936963D01*
X626093Y936862D01*
X626038Y936763D01*
X625980Y936666D01*
X625918Y936571D01*
X625853Y936478D01*
X625785Y936388D01*
X625714Y936300D01*
X625639Y936214D01*
X625562Y936131D01*
X625482Y936051D01*
X625399Y935974D01*
X625313Y935899D01*
X625225Y935828D01*
X625135Y935760D01*
X625042Y935695D01*
X624947Y935633D01*
X624850Y935575D01*
X624751Y935520D01*
X624650Y935469D01*
X624547Y935421D01*
X624443Y935376D01*
X624337Y935336D01*
X624230Y935299D01*
X624122Y935266D01*
X624012Y935236D01*
X623902Y935211D01*
X623791Y935189D01*
X623679Y935172D01*
X623566Y935158D01*
X623453Y935148D01*
X623340Y935142D01*
X623227Y935140D01*
X619981Y935140D01*
X631792Y937736D02*
X634389Y946824D01*
X631792Y937736D02*
X638283Y937736D01*
X636336Y940333D02*
X636336Y935140D01*
D12*
X550280Y1163740D02*
X550280Y1168820D01*
X552820Y1166280D02*
X547740Y1166280D01*
D10*
X565520Y1161200D02*
X608700Y1161200D01*
X565520Y1161200D02*
X557900Y1161200D01*
X557900Y1173900D01*
X557900Y1199300D01*
X557900Y1212000D01*
X565520Y1212000D01*
X608700Y1212000D01*
X557900Y1173900D02*
X532500Y1173900D01*
X532500Y1199300D02*
X557900Y1199300D01*
X608700Y1212000D02*
X609319Y1211992D01*
X609937Y1211970D01*
X610554Y1211932D01*
X611170Y1211880D01*
X611785Y1211812D01*
X612398Y1211729D01*
X613009Y1211632D01*
X613617Y1211519D01*
X614223Y1211392D01*
X614825Y1211250D01*
X615423Y1211094D01*
X616018Y1210923D01*
X616608Y1210738D01*
X617193Y1210538D01*
X617774Y1210324D01*
X618349Y1210096D01*
X618918Y1209854D01*
X619481Y1209598D01*
X620038Y1209329D01*
X620588Y1209046D01*
X621131Y1208750D01*
X621667Y1208441D01*
X622195Y1208119D01*
X622715Y1207784D01*
X623227Y1207436D01*
X623730Y1207076D01*
X624224Y1206704D01*
X624709Y1206320D01*
X625184Y1205924D01*
X625650Y1205517D01*
X626106Y1205099D01*
X626551Y1204670D01*
X626986Y1204229D01*
X627409Y1203779D01*
X627822Y1203318D01*
X628224Y1202848D01*
X628613Y1202367D01*
X628992Y1201878D01*
X629358Y1201379D01*
X629711Y1200872D01*
X630053Y1200356D01*
X630381Y1199832D01*
X630697Y1199300D01*
X631000Y1198761D01*
X631289Y1198214D01*
X631565Y1197660D01*
X631828Y1197100D01*
X632077Y1196534D01*
X632312Y1195962D01*
X632533Y1195384D01*
X632740Y1194801D01*
X632932Y1194213D01*
X633110Y1193621D01*
X633274Y1193025D01*
X633423Y1192424D01*
X633558Y1191820D01*
X633677Y1191214D01*
X633782Y1190604D01*
X633872Y1189992D01*
X633948Y1189378D01*
X634008Y1188762D01*
X634053Y1188145D01*
X634083Y1187528D01*
X634098Y1186909D01*
X634098Y1186291D01*
X634083Y1185672D01*
X634053Y1185055D01*
X634008Y1184438D01*
X633948Y1183822D01*
X633872Y1183208D01*
X633782Y1182596D01*
X633677Y1181986D01*
X633558Y1181380D01*
X633423Y1180776D01*
X633274Y1180175D01*
X633110Y1179579D01*
X632932Y1178987D01*
X632740Y1178399D01*
X632533Y1177816D01*
X632312Y1177238D01*
X632077Y1176666D01*
X631828Y1176100D01*
X631565Y1175540D01*
X631289Y1174986D01*
X631000Y1174439D01*
X630697Y1173900D01*
X630381Y1173368D01*
X630053Y1172844D01*
X629711Y1172328D01*
X629358Y1171821D01*
X628992Y1171322D01*
X628613Y1170833D01*
X628224Y1170352D01*
X627822Y1169882D01*
X627409Y1169421D01*
X626986Y1168971D01*
X626551Y1168530D01*
X626106Y1168101D01*
X625650Y1167683D01*
X625184Y1167276D01*
X624709Y1166880D01*
X624224Y1166496D01*
X623730Y1166124D01*
X623227Y1165764D01*
X622715Y1165416D01*
X622195Y1165081D01*
X621667Y1164759D01*
X621131Y1164450D01*
X620588Y1164154D01*
X620038Y1163871D01*
X619481Y1163602D01*
X618918Y1163346D01*
X618349Y1163104D01*
X617774Y1162876D01*
X617193Y1162662D01*
X616608Y1162462D01*
X616018Y1162277D01*
X615423Y1162106D01*
X614825Y1161950D01*
X614223Y1161808D01*
X613617Y1161681D01*
X613009Y1161568D01*
X612398Y1161471D01*
X611785Y1161388D01*
X611170Y1161320D01*
X610554Y1161268D01*
X609937Y1161230D01*
X609319Y1161208D01*
X608700Y1161200D01*
X565520Y1161200D02*
X565520Y1212000D01*
D11*
X559552Y1222160D02*
X559552Y1233844D01*
X559552Y1222160D02*
X564745Y1222160D01*
X569458Y1222160D02*
X574651Y1222160D01*
X569458Y1222160D02*
X569458Y1233844D01*
X574651Y1233844D01*
X573353Y1228651D02*
X569458Y1228651D01*
X579341Y1233844D02*
X579341Y1222160D01*
X579341Y1233844D02*
X582587Y1233844D01*
X582700Y1233842D01*
X582813Y1233836D01*
X582926Y1233826D01*
X583039Y1233812D01*
X583151Y1233795D01*
X583262Y1233773D01*
X583372Y1233748D01*
X583482Y1233718D01*
X583590Y1233685D01*
X583697Y1233648D01*
X583803Y1233608D01*
X583907Y1233563D01*
X584010Y1233515D01*
X584111Y1233464D01*
X584210Y1233409D01*
X584307Y1233351D01*
X584402Y1233289D01*
X584495Y1233224D01*
X584585Y1233156D01*
X584673Y1233085D01*
X584759Y1233010D01*
X584842Y1232933D01*
X584922Y1232853D01*
X584999Y1232770D01*
X585074Y1232684D01*
X585145Y1232596D01*
X585213Y1232506D01*
X585278Y1232413D01*
X585340Y1232318D01*
X585398Y1232221D01*
X585453Y1232122D01*
X585504Y1232021D01*
X585552Y1231918D01*
X585597Y1231814D01*
X585637Y1231708D01*
X585674Y1231601D01*
X585707Y1231493D01*
X585737Y1231383D01*
X585762Y1231273D01*
X585784Y1231162D01*
X585801Y1231050D01*
X585815Y1230937D01*
X585825Y1230824D01*
X585831Y1230711D01*
X585833Y1230598D01*
X585833Y1225406D01*
X585831Y1225293D01*
X585825Y1225180D01*
X585815Y1225067D01*
X585801Y1224954D01*
X585784Y1224842D01*
X585762Y1224731D01*
X585737Y1224621D01*
X585707Y1224511D01*
X585674Y1224403D01*
X585637Y1224296D01*
X585597Y1224190D01*
X585552Y1224086D01*
X585504Y1223983D01*
X585453Y1223882D01*
X585398Y1223783D01*
X585340Y1223686D01*
X585278Y1223591D01*
X585213Y1223498D01*
X585145Y1223408D01*
X585074Y1223320D01*
X584999Y1223234D01*
X584922Y1223151D01*
X584842Y1223071D01*
X584759Y1222994D01*
X584673Y1222919D01*
X584585Y1222848D01*
X584495Y1222780D01*
X584402Y1222715D01*
X584307Y1222653D01*
X584210Y1222595D01*
X584111Y1222540D01*
X584010Y1222489D01*
X583907Y1222441D01*
X583803Y1222396D01*
X583697Y1222356D01*
X583590Y1222319D01*
X583482Y1222286D01*
X583372Y1222256D01*
X583262Y1222231D01*
X583151Y1222209D01*
X583039Y1222192D01*
X582926Y1222178D01*
X582813Y1222168D01*
X582700Y1222162D01*
X582587Y1222160D01*
X579341Y1222160D01*
X591152Y1222160D02*
X595047Y1222160D01*
X595146Y1222162D01*
X595246Y1222168D01*
X595345Y1222177D01*
X595443Y1222190D01*
X595541Y1222207D01*
X595639Y1222228D01*
X595735Y1222253D01*
X595830Y1222281D01*
X595924Y1222313D01*
X596017Y1222348D01*
X596109Y1222387D01*
X596199Y1222430D01*
X596287Y1222475D01*
X596374Y1222525D01*
X596458Y1222577D01*
X596541Y1222633D01*
X596621Y1222691D01*
X596699Y1222753D01*
X596774Y1222818D01*
X596847Y1222886D01*
X596917Y1222956D01*
X596985Y1223029D01*
X597050Y1223104D01*
X597112Y1223182D01*
X597170Y1223262D01*
X597226Y1223345D01*
X597278Y1223429D01*
X597328Y1223516D01*
X597373Y1223604D01*
X597416Y1223694D01*
X597455Y1223786D01*
X597490Y1223879D01*
X597522Y1223973D01*
X597550Y1224068D01*
X597575Y1224164D01*
X597596Y1224262D01*
X597613Y1224360D01*
X597626Y1224458D01*
X597635Y1224557D01*
X597641Y1224657D01*
X597643Y1224756D01*
X597643Y1226055D01*
X597641Y1226154D01*
X597635Y1226254D01*
X597626Y1226353D01*
X597613Y1226451D01*
X597596Y1226549D01*
X597575Y1226647D01*
X597550Y1226743D01*
X597522Y1226838D01*
X597490Y1226932D01*
X597455Y1227025D01*
X597416Y1227117D01*
X597373Y1227207D01*
X597328Y1227295D01*
X597278Y1227382D01*
X597226Y1227466D01*
X597170Y1227549D01*
X597112Y1227629D01*
X597050Y1227707D01*
X596985Y1227782D01*
X596917Y1227855D01*
X596847Y1227925D01*
X596774Y1227993D01*
X596699Y1228058D01*
X596621Y1228120D01*
X596541Y1228178D01*
X596458Y1228234D01*
X596374Y1228286D01*
X596287Y1228336D01*
X596199Y1228381D01*
X596109Y1228424D01*
X596017Y1228463D01*
X595924Y1228498D01*
X595830Y1228530D01*
X595735Y1228558D01*
X595639Y1228583D01*
X595541Y1228604D01*
X595443Y1228621D01*
X595345Y1228634D01*
X595246Y1228643D01*
X595146Y1228649D01*
X595047Y1228651D01*
X591152Y1228651D01*
X591152Y1233844D01*
X597643Y1233844D01*
D12*
X326020Y1256880D02*
X326020Y1261960D01*
X323480Y1259420D02*
X328560Y1259420D01*
D10*
X310780Y1264500D02*
X267600Y1264500D01*
X310780Y1264500D02*
X318400Y1264500D01*
X318400Y1251800D01*
X318400Y1226400D01*
X318400Y1213700D01*
X310780Y1213700D01*
X267600Y1213700D01*
X318400Y1251800D02*
X343800Y1251800D01*
X343800Y1226400D02*
X318400Y1226400D01*
X267600Y1213700D02*
X266981Y1213708D01*
X266363Y1213730D01*
X265746Y1213768D01*
X265130Y1213820D01*
X264515Y1213888D01*
X263902Y1213971D01*
X263291Y1214068D01*
X262683Y1214181D01*
X262077Y1214308D01*
X261475Y1214450D01*
X260877Y1214606D01*
X260282Y1214777D01*
X259692Y1214962D01*
X259107Y1215162D01*
X258526Y1215376D01*
X257951Y1215604D01*
X257382Y1215846D01*
X256819Y1216102D01*
X256262Y1216371D01*
X255712Y1216654D01*
X255169Y1216950D01*
X254633Y1217259D01*
X254105Y1217581D01*
X253585Y1217916D01*
X253073Y1218264D01*
X252570Y1218624D01*
X252076Y1218996D01*
X251591Y1219380D01*
X251116Y1219776D01*
X250650Y1220183D01*
X250194Y1220601D01*
X249749Y1221030D01*
X249314Y1221471D01*
X248891Y1221921D01*
X248478Y1222382D01*
X248076Y1222852D01*
X247687Y1223333D01*
X247308Y1223822D01*
X246942Y1224321D01*
X246589Y1224828D01*
X246247Y1225344D01*
X245919Y1225868D01*
X245603Y1226400D01*
X245300Y1226939D01*
X245011Y1227486D01*
X244735Y1228040D01*
X244472Y1228600D01*
X244223Y1229166D01*
X243988Y1229738D01*
X243767Y1230316D01*
X243560Y1230899D01*
X243368Y1231487D01*
X243190Y1232079D01*
X243026Y1232675D01*
X242877Y1233276D01*
X242742Y1233880D01*
X242623Y1234486D01*
X242518Y1235096D01*
X242428Y1235708D01*
X242352Y1236322D01*
X242292Y1236938D01*
X242247Y1237555D01*
X242217Y1238172D01*
X242202Y1238791D01*
X242202Y1239409D01*
X242217Y1240028D01*
X242247Y1240645D01*
X242292Y1241262D01*
X242352Y1241878D01*
X242428Y1242492D01*
X242518Y1243104D01*
X242623Y1243714D01*
X242742Y1244320D01*
X242877Y1244924D01*
X243026Y1245525D01*
X243190Y1246121D01*
X243368Y1246713D01*
X243560Y1247301D01*
X243767Y1247884D01*
X243988Y1248462D01*
X244223Y1249034D01*
X244472Y1249600D01*
X244735Y1250160D01*
X245011Y1250714D01*
X245300Y1251261D01*
X245603Y1251800D01*
X245919Y1252332D01*
X246247Y1252856D01*
X246589Y1253372D01*
X246942Y1253879D01*
X247308Y1254378D01*
X247687Y1254867D01*
X248076Y1255348D01*
X248478Y1255818D01*
X248891Y1256279D01*
X249314Y1256729D01*
X249749Y1257170D01*
X250194Y1257599D01*
X250650Y1258017D01*
X251116Y1258424D01*
X251591Y1258820D01*
X252076Y1259204D01*
X252570Y1259576D01*
X253073Y1259936D01*
X253585Y1260284D01*
X254105Y1260619D01*
X254633Y1260941D01*
X255169Y1261250D01*
X255712Y1261546D01*
X256262Y1261829D01*
X256819Y1262098D01*
X257382Y1262354D01*
X257951Y1262596D01*
X258526Y1262824D01*
X259107Y1263038D01*
X259692Y1263238D01*
X260282Y1263423D01*
X260877Y1263594D01*
X261475Y1263750D01*
X262077Y1263892D01*
X262683Y1264019D01*
X263291Y1264132D01*
X263902Y1264229D01*
X264515Y1264312D01*
X265130Y1264380D01*
X265746Y1264432D01*
X266363Y1264470D01*
X266981Y1264492D01*
X267600Y1264500D01*
X310780Y1264500D02*
X310780Y1213700D01*
D11*
X272426Y1274660D02*
X272426Y1286344D01*
X272426Y1274660D02*
X277619Y1274660D01*
X282332Y1274660D02*
X287525Y1274660D01*
X282332Y1274660D02*
X282332Y1286344D01*
X287525Y1286344D01*
X286227Y1281151D02*
X282332Y1281151D01*
X292215Y1286344D02*
X292215Y1274660D01*
X292215Y1286344D02*
X295461Y1286344D01*
X295574Y1286342D01*
X295687Y1286336D01*
X295800Y1286326D01*
X295913Y1286312D01*
X296025Y1286295D01*
X296136Y1286273D01*
X296246Y1286248D01*
X296356Y1286218D01*
X296464Y1286185D01*
X296571Y1286148D01*
X296677Y1286108D01*
X296781Y1286063D01*
X296884Y1286015D01*
X296985Y1285964D01*
X297084Y1285909D01*
X297181Y1285851D01*
X297276Y1285789D01*
X297369Y1285724D01*
X297459Y1285656D01*
X297547Y1285585D01*
X297633Y1285510D01*
X297716Y1285433D01*
X297796Y1285353D01*
X297873Y1285270D01*
X297948Y1285184D01*
X298019Y1285096D01*
X298087Y1285006D01*
X298152Y1284913D01*
X298214Y1284818D01*
X298272Y1284721D01*
X298327Y1284622D01*
X298378Y1284521D01*
X298426Y1284418D01*
X298471Y1284314D01*
X298511Y1284208D01*
X298548Y1284101D01*
X298581Y1283993D01*
X298611Y1283883D01*
X298636Y1283773D01*
X298658Y1283662D01*
X298675Y1283550D01*
X298689Y1283437D01*
X298699Y1283324D01*
X298705Y1283211D01*
X298707Y1283098D01*
X298707Y1277906D01*
X298705Y1277793D01*
X298699Y1277680D01*
X298689Y1277567D01*
X298675Y1277454D01*
X298658Y1277342D01*
X298636Y1277231D01*
X298611Y1277121D01*
X298581Y1277011D01*
X298548Y1276903D01*
X298511Y1276796D01*
X298471Y1276690D01*
X298426Y1276586D01*
X298378Y1276483D01*
X298327Y1276382D01*
X298272Y1276283D01*
X298214Y1276186D01*
X298152Y1276091D01*
X298087Y1275998D01*
X298019Y1275908D01*
X297948Y1275820D01*
X297873Y1275734D01*
X297796Y1275651D01*
X297716Y1275571D01*
X297633Y1275494D01*
X297547Y1275419D01*
X297459Y1275348D01*
X297369Y1275280D01*
X297276Y1275215D01*
X297181Y1275153D01*
X297084Y1275095D01*
X296985Y1275040D01*
X296884Y1274989D01*
X296781Y1274941D01*
X296677Y1274896D01*
X296571Y1274856D01*
X296464Y1274819D01*
X296356Y1274786D01*
X296246Y1274756D01*
X296136Y1274731D01*
X296025Y1274709D01*
X295913Y1274692D01*
X295800Y1274678D01*
X295687Y1274668D01*
X295574Y1274662D01*
X295461Y1274660D01*
X292215Y1274660D01*
X304026Y1281151D02*
X307921Y1281151D01*
X308020Y1281149D01*
X308120Y1281143D01*
X308219Y1281134D01*
X308317Y1281121D01*
X308415Y1281104D01*
X308513Y1281083D01*
X308609Y1281058D01*
X308704Y1281030D01*
X308798Y1280998D01*
X308891Y1280963D01*
X308983Y1280924D01*
X309073Y1280881D01*
X309161Y1280836D01*
X309248Y1280786D01*
X309332Y1280734D01*
X309415Y1280678D01*
X309495Y1280620D01*
X309573Y1280558D01*
X309648Y1280493D01*
X309721Y1280425D01*
X309791Y1280355D01*
X309859Y1280282D01*
X309924Y1280207D01*
X309986Y1280129D01*
X310044Y1280049D01*
X310100Y1279966D01*
X310152Y1279882D01*
X310202Y1279795D01*
X310247Y1279707D01*
X310290Y1279617D01*
X310329Y1279525D01*
X310364Y1279432D01*
X310396Y1279338D01*
X310424Y1279243D01*
X310449Y1279147D01*
X310470Y1279049D01*
X310487Y1278951D01*
X310500Y1278853D01*
X310509Y1278754D01*
X310515Y1278654D01*
X310517Y1278555D01*
X310517Y1277906D01*
X310518Y1277906D02*
X310516Y1277793D01*
X310510Y1277680D01*
X310500Y1277567D01*
X310486Y1277454D01*
X310469Y1277342D01*
X310447Y1277231D01*
X310422Y1277121D01*
X310392Y1277011D01*
X310359Y1276903D01*
X310322Y1276796D01*
X310282Y1276690D01*
X310237Y1276586D01*
X310189Y1276483D01*
X310138Y1276382D01*
X310083Y1276283D01*
X310025Y1276186D01*
X309963Y1276091D01*
X309898Y1275998D01*
X309830Y1275908D01*
X309759Y1275820D01*
X309684Y1275734D01*
X309607Y1275651D01*
X309527Y1275571D01*
X309444Y1275494D01*
X309358Y1275419D01*
X309270Y1275348D01*
X309180Y1275280D01*
X309087Y1275215D01*
X308992Y1275153D01*
X308895Y1275095D01*
X308796Y1275040D01*
X308695Y1274989D01*
X308592Y1274941D01*
X308488Y1274896D01*
X308382Y1274856D01*
X308275Y1274819D01*
X308167Y1274786D01*
X308057Y1274756D01*
X307947Y1274731D01*
X307836Y1274709D01*
X307724Y1274692D01*
X307611Y1274678D01*
X307498Y1274668D01*
X307385Y1274662D01*
X307272Y1274660D01*
X307159Y1274662D01*
X307046Y1274668D01*
X306933Y1274678D01*
X306820Y1274692D01*
X306708Y1274709D01*
X306597Y1274731D01*
X306487Y1274756D01*
X306377Y1274786D01*
X306269Y1274819D01*
X306162Y1274856D01*
X306056Y1274896D01*
X305952Y1274941D01*
X305849Y1274989D01*
X305748Y1275040D01*
X305649Y1275095D01*
X305552Y1275153D01*
X305457Y1275215D01*
X305364Y1275280D01*
X305274Y1275348D01*
X305186Y1275419D01*
X305100Y1275494D01*
X305017Y1275571D01*
X304937Y1275651D01*
X304860Y1275734D01*
X304785Y1275820D01*
X304714Y1275908D01*
X304646Y1275998D01*
X304581Y1276091D01*
X304519Y1276186D01*
X304461Y1276283D01*
X304406Y1276382D01*
X304355Y1276483D01*
X304307Y1276586D01*
X304262Y1276690D01*
X304222Y1276796D01*
X304185Y1276903D01*
X304152Y1277011D01*
X304122Y1277121D01*
X304097Y1277231D01*
X304075Y1277342D01*
X304058Y1277454D01*
X304044Y1277567D01*
X304034Y1277680D01*
X304028Y1277793D01*
X304026Y1277906D01*
X304026Y1281151D01*
X304028Y1281294D01*
X304034Y1281437D01*
X304044Y1281580D01*
X304058Y1281722D01*
X304075Y1281864D01*
X304097Y1282006D01*
X304122Y1282147D01*
X304152Y1282287D01*
X304185Y1282426D01*
X304222Y1282564D01*
X304263Y1282701D01*
X304307Y1282837D01*
X304356Y1282972D01*
X304408Y1283105D01*
X304463Y1283237D01*
X304523Y1283367D01*
X304586Y1283496D01*
X304652Y1283623D01*
X304722Y1283747D01*
X304795Y1283870D01*
X304872Y1283991D01*
X304952Y1284110D01*
X305035Y1284226D01*
X305121Y1284341D01*
X305210Y1284452D01*
X305303Y1284562D01*
X305398Y1284668D01*
X305497Y1284772D01*
X305598Y1284873D01*
X305702Y1284972D01*
X305808Y1285067D01*
X305918Y1285160D01*
X306029Y1285249D01*
X306144Y1285335D01*
X306260Y1285418D01*
X306379Y1285498D01*
X306500Y1285575D01*
X306622Y1285648D01*
X306747Y1285718D01*
X306874Y1285784D01*
X307003Y1285847D01*
X307133Y1285907D01*
X307265Y1285962D01*
X307398Y1286014D01*
X307533Y1286063D01*
X307669Y1286107D01*
X307806Y1286148D01*
X307944Y1286185D01*
X308083Y1286218D01*
X308223Y1286248D01*
X308364Y1286273D01*
X308506Y1286295D01*
X308648Y1286312D01*
X308790Y1286326D01*
X308933Y1286336D01*
X309076Y1286342D01*
X309219Y1286344D01*
D12*
X601080Y419520D02*
X601080Y414440D01*
X603620Y416980D02*
X598540Y416980D01*
D10*
X616320Y411900D02*
X659500Y411900D01*
X616320Y411900D02*
X608700Y411900D01*
X608700Y424600D01*
X608700Y450000D01*
X608700Y462700D01*
X616320Y462700D01*
X659500Y462700D01*
X608700Y424600D02*
X583300Y424600D01*
X583300Y450000D02*
X608700Y450000D01*
X659500Y462700D02*
X660119Y462692D01*
X660737Y462670D01*
X661354Y462632D01*
X661970Y462580D01*
X662585Y462512D01*
X663198Y462429D01*
X663809Y462332D01*
X664417Y462219D01*
X665023Y462092D01*
X665625Y461950D01*
X666223Y461794D01*
X666818Y461623D01*
X667408Y461438D01*
X667993Y461238D01*
X668574Y461024D01*
X669149Y460796D01*
X669718Y460554D01*
X670281Y460298D01*
X670838Y460029D01*
X671388Y459746D01*
X671931Y459450D01*
X672467Y459141D01*
X672995Y458819D01*
X673515Y458484D01*
X674027Y458136D01*
X674530Y457776D01*
X675024Y457404D01*
X675509Y457020D01*
X675984Y456624D01*
X676450Y456217D01*
X676906Y455799D01*
X677351Y455370D01*
X677786Y454929D01*
X678209Y454479D01*
X678622Y454018D01*
X679024Y453548D01*
X679413Y453067D01*
X679792Y452578D01*
X680158Y452079D01*
X680511Y451572D01*
X680853Y451056D01*
X681181Y450532D01*
X681497Y450000D01*
X681800Y449461D01*
X682089Y448914D01*
X682365Y448360D01*
X682628Y447800D01*
X682877Y447234D01*
X683112Y446662D01*
X683333Y446084D01*
X683540Y445501D01*
X683732Y444913D01*
X683910Y444321D01*
X684074Y443725D01*
X684223Y443124D01*
X684358Y442520D01*
X684477Y441914D01*
X684582Y441304D01*
X684672Y440692D01*
X684748Y440078D01*
X684808Y439462D01*
X684853Y438845D01*
X684883Y438228D01*
X684898Y437609D01*
X684898Y436991D01*
X684883Y436372D01*
X684853Y435755D01*
X684808Y435138D01*
X684748Y434522D01*
X684672Y433908D01*
X684582Y433296D01*
X684477Y432686D01*
X684358Y432080D01*
X684223Y431476D01*
X684074Y430875D01*
X683910Y430279D01*
X683732Y429687D01*
X683540Y429099D01*
X683333Y428516D01*
X683112Y427938D01*
X682877Y427366D01*
X682628Y426800D01*
X682365Y426240D01*
X682089Y425686D01*
X681800Y425139D01*
X681497Y424600D01*
X681181Y424068D01*
X680853Y423544D01*
X680511Y423028D01*
X680158Y422521D01*
X679792Y422022D01*
X679413Y421533D01*
X679024Y421052D01*
X678622Y420582D01*
X678209Y420121D01*
X677786Y419671D01*
X677351Y419230D01*
X676906Y418801D01*
X676450Y418383D01*
X675984Y417976D01*
X675509Y417580D01*
X675024Y417196D01*
X674530Y416824D01*
X674027Y416464D01*
X673515Y416116D01*
X672995Y415781D01*
X672467Y415459D01*
X671931Y415150D01*
X671388Y414854D01*
X670838Y414571D01*
X670281Y414302D01*
X669718Y414046D01*
X669149Y413804D01*
X668574Y413576D01*
X667993Y413362D01*
X667408Y413162D01*
X666818Y412977D01*
X666223Y412806D01*
X665625Y412650D01*
X665023Y412508D01*
X664417Y412381D01*
X663809Y412268D01*
X663198Y412171D01*
X662585Y412088D01*
X661970Y412020D01*
X661354Y411968D01*
X660737Y411930D01*
X660119Y411908D01*
X659500Y411900D01*
X616320Y411900D02*
X616320Y462700D01*
D11*
X615432Y472860D02*
X615432Y484544D01*
X615432Y472860D02*
X620625Y472860D01*
X625338Y472860D02*
X630531Y472860D01*
X625338Y472860D02*
X625338Y484544D01*
X630531Y484544D01*
X629233Y479351D02*
X625338Y479351D01*
X635221Y484544D02*
X635221Y472860D01*
X635221Y484544D02*
X638467Y484544D01*
X638580Y484542D01*
X638693Y484536D01*
X638806Y484526D01*
X638919Y484512D01*
X639031Y484495D01*
X639142Y484473D01*
X639252Y484448D01*
X639362Y484418D01*
X639470Y484385D01*
X639577Y484348D01*
X639683Y484308D01*
X639787Y484263D01*
X639890Y484215D01*
X639991Y484164D01*
X640090Y484109D01*
X640187Y484051D01*
X640282Y483989D01*
X640375Y483924D01*
X640465Y483856D01*
X640553Y483785D01*
X640639Y483710D01*
X640722Y483633D01*
X640802Y483553D01*
X640879Y483470D01*
X640954Y483384D01*
X641025Y483296D01*
X641093Y483206D01*
X641158Y483113D01*
X641220Y483018D01*
X641278Y482921D01*
X641333Y482822D01*
X641384Y482721D01*
X641432Y482618D01*
X641477Y482514D01*
X641517Y482408D01*
X641554Y482301D01*
X641587Y482193D01*
X641617Y482083D01*
X641642Y481973D01*
X641664Y481862D01*
X641681Y481750D01*
X641695Y481637D01*
X641705Y481524D01*
X641711Y481411D01*
X641713Y481298D01*
X641713Y476106D01*
X641711Y475993D01*
X641705Y475880D01*
X641695Y475767D01*
X641681Y475654D01*
X641664Y475542D01*
X641642Y475431D01*
X641617Y475321D01*
X641587Y475211D01*
X641554Y475103D01*
X641517Y474996D01*
X641477Y474890D01*
X641432Y474786D01*
X641384Y474683D01*
X641333Y474582D01*
X641278Y474483D01*
X641220Y474386D01*
X641158Y474291D01*
X641093Y474198D01*
X641025Y474108D01*
X640954Y474020D01*
X640879Y473934D01*
X640802Y473851D01*
X640722Y473771D01*
X640639Y473694D01*
X640553Y473619D01*
X640465Y473548D01*
X640375Y473480D01*
X640282Y473415D01*
X640187Y473353D01*
X640090Y473295D01*
X639991Y473240D01*
X639890Y473189D01*
X639787Y473141D01*
X639683Y473096D01*
X639577Y473056D01*
X639470Y473019D01*
X639362Y472986D01*
X639252Y472956D01*
X639142Y472931D01*
X639031Y472909D01*
X638919Y472892D01*
X638806Y472878D01*
X638693Y472868D01*
X638580Y472862D01*
X638467Y472860D01*
X635221Y472860D01*
X647032Y483246D02*
X647032Y484544D01*
X653523Y484544D01*
X650278Y472860D01*
D12*
X-4180Y309460D02*
X-4180Y304380D01*
X-6720Y306920D02*
X-1640Y306920D01*
D10*
X-19420Y312000D02*
X-62600Y312000D01*
X-19420Y312000D02*
X-11800Y312000D01*
X-11800Y299300D01*
X-11800Y273900D01*
X-11800Y261200D01*
X-19420Y261200D01*
X-62600Y261200D01*
X-11800Y299300D02*
X13600Y299300D01*
X13600Y273900D02*
X-11800Y273900D01*
X-62600Y261200D02*
X-63219Y261208D01*
X-63837Y261230D01*
X-64454Y261268D01*
X-65070Y261320D01*
X-65685Y261388D01*
X-66298Y261471D01*
X-66909Y261568D01*
X-67517Y261681D01*
X-68123Y261808D01*
X-68725Y261950D01*
X-69323Y262106D01*
X-69918Y262277D01*
X-70508Y262462D01*
X-71093Y262662D01*
X-71674Y262876D01*
X-72249Y263104D01*
X-72818Y263346D01*
X-73381Y263602D01*
X-73938Y263871D01*
X-74488Y264154D01*
X-75031Y264450D01*
X-75567Y264759D01*
X-76095Y265081D01*
X-76615Y265416D01*
X-77127Y265764D01*
X-77630Y266124D01*
X-78124Y266496D01*
X-78609Y266880D01*
X-79084Y267276D01*
X-79550Y267683D01*
X-80006Y268101D01*
X-80451Y268530D01*
X-80886Y268971D01*
X-81309Y269421D01*
X-81722Y269882D01*
X-82124Y270352D01*
X-82513Y270833D01*
X-82892Y271322D01*
X-83258Y271821D01*
X-83611Y272328D01*
X-83953Y272844D01*
X-84281Y273368D01*
X-84597Y273900D01*
X-84900Y274439D01*
X-85189Y274986D01*
X-85465Y275540D01*
X-85728Y276100D01*
X-85977Y276666D01*
X-86212Y277238D01*
X-86433Y277816D01*
X-86640Y278399D01*
X-86832Y278987D01*
X-87010Y279579D01*
X-87174Y280175D01*
X-87323Y280776D01*
X-87458Y281380D01*
X-87577Y281986D01*
X-87682Y282596D01*
X-87772Y283208D01*
X-87848Y283822D01*
X-87908Y284438D01*
X-87953Y285055D01*
X-87983Y285672D01*
X-87998Y286291D01*
X-87998Y286909D01*
X-87983Y287528D01*
X-87953Y288145D01*
X-87908Y288762D01*
X-87848Y289378D01*
X-87772Y289992D01*
X-87682Y290604D01*
X-87577Y291214D01*
X-87458Y291820D01*
X-87323Y292424D01*
X-87174Y293025D01*
X-87010Y293621D01*
X-86832Y294213D01*
X-86640Y294801D01*
X-86433Y295384D01*
X-86212Y295962D01*
X-85977Y296534D01*
X-85728Y297100D01*
X-85465Y297660D01*
X-85189Y298214D01*
X-84900Y298761D01*
X-84597Y299300D01*
X-84281Y299832D01*
X-83953Y300356D01*
X-83611Y300872D01*
X-83258Y301379D01*
X-82892Y301878D01*
X-82513Y302367D01*
X-82124Y302848D01*
X-81722Y303318D01*
X-81309Y303779D01*
X-80886Y304229D01*
X-80451Y304670D01*
X-80006Y305099D01*
X-79550Y305517D01*
X-79084Y305924D01*
X-78609Y306320D01*
X-78124Y306704D01*
X-77630Y307076D01*
X-77127Y307436D01*
X-76615Y307784D01*
X-76095Y308119D01*
X-75567Y308441D01*
X-75031Y308750D01*
X-74488Y309046D01*
X-73938Y309329D01*
X-73381Y309598D01*
X-72818Y309854D01*
X-72249Y310096D01*
X-71674Y310324D01*
X-71093Y310538D01*
X-70508Y310738D01*
X-69918Y310923D01*
X-69323Y311094D01*
X-68725Y311250D01*
X-68123Y311392D01*
X-67517Y311519D01*
X-66909Y311632D01*
X-66298Y311729D01*
X-65685Y311812D01*
X-65070Y311880D01*
X-64454Y311932D01*
X-63837Y311970D01*
X-63219Y311992D01*
X-62600Y312000D01*
X-19420Y312000D02*
X-19420Y261200D01*
D11*
X-57774Y317080D02*
X-57774Y328764D01*
X-57774Y317080D02*
X-52581Y317080D01*
X-47868Y317080D02*
X-42675Y317080D01*
X-47868Y317080D02*
X-47868Y328764D01*
X-42675Y328764D01*
X-43973Y323571D02*
X-47868Y323571D01*
X-37985Y328764D02*
X-37985Y317080D01*
X-37985Y328764D02*
X-34739Y328764D01*
X-34626Y328762D01*
X-34513Y328756D01*
X-34400Y328746D01*
X-34287Y328732D01*
X-34175Y328715D01*
X-34064Y328693D01*
X-33954Y328668D01*
X-33844Y328638D01*
X-33736Y328605D01*
X-33629Y328568D01*
X-33523Y328528D01*
X-33419Y328483D01*
X-33316Y328435D01*
X-33215Y328384D01*
X-33116Y328329D01*
X-33019Y328271D01*
X-32924Y328209D01*
X-32831Y328144D01*
X-32741Y328076D01*
X-32653Y328005D01*
X-32567Y327930D01*
X-32484Y327853D01*
X-32404Y327773D01*
X-32327Y327690D01*
X-32252Y327604D01*
X-32181Y327516D01*
X-32113Y327426D01*
X-32048Y327333D01*
X-31986Y327238D01*
X-31928Y327141D01*
X-31873Y327042D01*
X-31822Y326941D01*
X-31774Y326838D01*
X-31729Y326734D01*
X-31689Y326628D01*
X-31652Y326521D01*
X-31619Y326413D01*
X-31589Y326303D01*
X-31564Y326193D01*
X-31542Y326082D01*
X-31525Y325970D01*
X-31511Y325857D01*
X-31501Y325744D01*
X-31495Y325631D01*
X-31493Y325518D01*
X-31494Y325518D02*
X-31494Y320326D01*
X-31493Y320326D02*
X-31495Y320213D01*
X-31501Y320100D01*
X-31511Y319987D01*
X-31525Y319874D01*
X-31542Y319762D01*
X-31564Y319651D01*
X-31589Y319541D01*
X-31619Y319431D01*
X-31652Y319323D01*
X-31689Y319216D01*
X-31729Y319110D01*
X-31774Y319006D01*
X-31822Y318903D01*
X-31873Y318802D01*
X-31928Y318703D01*
X-31986Y318606D01*
X-32048Y318511D01*
X-32113Y318418D01*
X-32181Y318328D01*
X-32252Y318240D01*
X-32327Y318154D01*
X-32404Y318071D01*
X-32484Y317991D01*
X-32567Y317914D01*
X-32653Y317839D01*
X-32741Y317768D01*
X-32831Y317700D01*
X-32924Y317635D01*
X-33019Y317573D01*
X-33116Y317515D01*
X-33215Y317460D01*
X-33316Y317409D01*
X-33419Y317361D01*
X-33523Y317316D01*
X-33629Y317276D01*
X-33736Y317239D01*
X-33844Y317206D01*
X-33954Y317176D01*
X-34064Y317151D01*
X-34175Y317129D01*
X-34287Y317112D01*
X-34400Y317098D01*
X-34513Y317088D01*
X-34626Y317082D01*
X-34739Y317080D01*
X-37985Y317080D01*
X-26174Y320326D02*
X-26172Y320439D01*
X-26166Y320552D01*
X-26156Y320665D01*
X-26142Y320778D01*
X-26125Y320890D01*
X-26103Y321001D01*
X-26078Y321111D01*
X-26048Y321221D01*
X-26015Y321329D01*
X-25978Y321436D01*
X-25938Y321542D01*
X-25893Y321646D01*
X-25845Y321749D01*
X-25794Y321850D01*
X-25739Y321949D01*
X-25681Y322046D01*
X-25619Y322141D01*
X-25554Y322234D01*
X-25486Y322324D01*
X-25415Y322412D01*
X-25340Y322498D01*
X-25263Y322581D01*
X-25183Y322661D01*
X-25100Y322738D01*
X-25014Y322813D01*
X-24926Y322884D01*
X-24836Y322952D01*
X-24743Y323017D01*
X-24648Y323079D01*
X-24551Y323137D01*
X-24452Y323192D01*
X-24351Y323243D01*
X-24248Y323291D01*
X-24144Y323336D01*
X-24038Y323376D01*
X-23931Y323413D01*
X-23823Y323446D01*
X-23713Y323476D01*
X-23603Y323501D01*
X-23492Y323523D01*
X-23380Y323540D01*
X-23267Y323554D01*
X-23154Y323564D01*
X-23041Y323570D01*
X-22928Y323572D01*
X-22815Y323570D01*
X-22702Y323564D01*
X-22589Y323554D01*
X-22476Y323540D01*
X-22364Y323523D01*
X-22253Y323501D01*
X-22143Y323476D01*
X-22033Y323446D01*
X-21925Y323413D01*
X-21818Y323376D01*
X-21712Y323336D01*
X-21608Y323291D01*
X-21505Y323243D01*
X-21404Y323192D01*
X-21305Y323137D01*
X-21208Y323079D01*
X-21113Y323017D01*
X-21020Y322952D01*
X-20930Y322884D01*
X-20842Y322813D01*
X-20756Y322738D01*
X-20673Y322661D01*
X-20593Y322581D01*
X-20516Y322498D01*
X-20441Y322412D01*
X-20370Y322324D01*
X-20302Y322234D01*
X-20237Y322141D01*
X-20175Y322046D01*
X-20117Y321949D01*
X-20062Y321850D01*
X-20011Y321749D01*
X-19963Y321646D01*
X-19918Y321542D01*
X-19878Y321436D01*
X-19841Y321329D01*
X-19808Y321221D01*
X-19778Y321111D01*
X-19753Y321001D01*
X-19731Y320890D01*
X-19714Y320778D01*
X-19700Y320665D01*
X-19690Y320552D01*
X-19684Y320439D01*
X-19682Y320326D01*
X-19684Y320213D01*
X-19690Y320100D01*
X-19700Y319987D01*
X-19714Y319874D01*
X-19731Y319762D01*
X-19753Y319651D01*
X-19778Y319541D01*
X-19808Y319431D01*
X-19841Y319323D01*
X-19878Y319216D01*
X-19918Y319110D01*
X-19963Y319006D01*
X-20011Y318903D01*
X-20062Y318802D01*
X-20117Y318703D01*
X-20175Y318606D01*
X-20237Y318511D01*
X-20302Y318418D01*
X-20370Y318328D01*
X-20441Y318240D01*
X-20516Y318154D01*
X-20593Y318071D01*
X-20673Y317991D01*
X-20756Y317914D01*
X-20842Y317839D01*
X-20930Y317768D01*
X-21020Y317700D01*
X-21113Y317635D01*
X-21208Y317573D01*
X-21305Y317515D01*
X-21404Y317460D01*
X-21505Y317409D01*
X-21608Y317361D01*
X-21712Y317316D01*
X-21818Y317276D01*
X-21925Y317239D01*
X-22033Y317206D01*
X-22143Y317176D01*
X-22253Y317151D01*
X-22364Y317129D01*
X-22476Y317112D01*
X-22589Y317098D01*
X-22702Y317088D01*
X-22815Y317082D01*
X-22928Y317080D01*
X-23041Y317082D01*
X-23154Y317088D01*
X-23267Y317098D01*
X-23380Y317112D01*
X-23492Y317129D01*
X-23603Y317151D01*
X-23713Y317176D01*
X-23823Y317206D01*
X-23931Y317239D01*
X-24038Y317276D01*
X-24144Y317316D01*
X-24248Y317361D01*
X-24351Y317409D01*
X-24452Y317460D01*
X-24551Y317515D01*
X-24648Y317573D01*
X-24743Y317635D01*
X-24836Y317700D01*
X-24926Y317768D01*
X-25014Y317839D01*
X-25100Y317914D01*
X-25183Y317991D01*
X-25263Y318071D01*
X-25340Y318154D01*
X-25415Y318240D01*
X-25486Y318328D01*
X-25554Y318418D01*
X-25619Y318511D01*
X-25681Y318606D01*
X-25739Y318703D01*
X-25794Y318802D01*
X-25845Y318903D01*
X-25893Y319006D01*
X-25938Y319110D01*
X-25978Y319216D01*
X-26015Y319323D01*
X-26048Y319431D01*
X-26078Y319541D01*
X-26103Y319651D01*
X-26125Y319762D01*
X-26142Y319874D01*
X-26156Y319987D01*
X-26166Y320100D01*
X-26172Y320213D01*
X-26174Y320326D01*
X-25524Y326168D02*
X-25522Y326269D01*
X-25516Y326369D01*
X-25506Y326469D01*
X-25493Y326569D01*
X-25475Y326668D01*
X-25454Y326767D01*
X-25429Y326864D01*
X-25400Y326961D01*
X-25367Y327056D01*
X-25331Y327150D01*
X-25291Y327242D01*
X-25248Y327333D01*
X-25201Y327422D01*
X-25151Y327509D01*
X-25097Y327595D01*
X-25040Y327678D01*
X-24980Y327758D01*
X-24917Y327837D01*
X-24850Y327913D01*
X-24781Y327986D01*
X-24709Y328056D01*
X-24635Y328124D01*
X-24558Y328189D01*
X-24478Y328250D01*
X-24396Y328309D01*
X-24312Y328364D01*
X-24226Y328416D01*
X-24138Y328465D01*
X-24048Y328510D01*
X-23956Y328552D01*
X-23863Y328590D01*
X-23768Y328624D01*
X-23673Y328655D01*
X-23576Y328682D01*
X-23478Y328705D01*
X-23379Y328725D01*
X-23279Y328740D01*
X-23179Y328752D01*
X-23079Y328760D01*
X-22978Y328764D01*
X-22878Y328764D01*
X-22777Y328760D01*
X-22677Y328752D01*
X-22577Y328740D01*
X-22477Y328725D01*
X-22378Y328705D01*
X-22280Y328682D01*
X-22183Y328655D01*
X-22088Y328624D01*
X-21993Y328590D01*
X-21900Y328552D01*
X-21808Y328510D01*
X-21718Y328465D01*
X-21630Y328416D01*
X-21544Y328364D01*
X-21460Y328309D01*
X-21378Y328250D01*
X-21298Y328189D01*
X-21221Y328124D01*
X-21147Y328056D01*
X-21075Y327986D01*
X-21006Y327913D01*
X-20939Y327837D01*
X-20876Y327758D01*
X-20816Y327678D01*
X-20759Y327595D01*
X-20705Y327509D01*
X-20655Y327422D01*
X-20608Y327333D01*
X-20565Y327242D01*
X-20525Y327150D01*
X-20489Y327056D01*
X-20456Y326961D01*
X-20427Y326864D01*
X-20402Y326767D01*
X-20381Y326668D01*
X-20363Y326569D01*
X-20350Y326469D01*
X-20340Y326369D01*
X-20334Y326269D01*
X-20332Y326168D01*
X-20334Y326067D01*
X-20340Y325967D01*
X-20350Y325867D01*
X-20363Y325767D01*
X-20381Y325668D01*
X-20402Y325569D01*
X-20427Y325472D01*
X-20456Y325375D01*
X-20489Y325280D01*
X-20525Y325186D01*
X-20565Y325094D01*
X-20608Y325003D01*
X-20655Y324914D01*
X-20705Y324827D01*
X-20759Y324741D01*
X-20816Y324658D01*
X-20876Y324578D01*
X-20939Y324499D01*
X-21006Y324423D01*
X-21075Y324350D01*
X-21147Y324280D01*
X-21221Y324212D01*
X-21298Y324147D01*
X-21378Y324086D01*
X-21460Y324027D01*
X-21544Y323972D01*
X-21630Y323920D01*
X-21718Y323871D01*
X-21808Y323826D01*
X-21900Y323784D01*
X-21993Y323746D01*
X-22088Y323712D01*
X-22183Y323681D01*
X-22280Y323654D01*
X-22378Y323631D01*
X-22477Y323611D01*
X-22577Y323596D01*
X-22677Y323584D01*
X-22777Y323576D01*
X-22878Y323572D01*
X-22978Y323572D01*
X-23079Y323576D01*
X-23179Y323584D01*
X-23279Y323596D01*
X-23379Y323611D01*
X-23478Y323631D01*
X-23576Y323654D01*
X-23673Y323681D01*
X-23768Y323712D01*
X-23863Y323746D01*
X-23956Y323784D01*
X-24048Y323826D01*
X-24138Y323871D01*
X-24226Y323920D01*
X-24312Y323972D01*
X-24396Y324027D01*
X-24478Y324086D01*
X-24558Y324147D01*
X-24635Y324212D01*
X-24709Y324280D01*
X-24781Y324350D01*
X-24850Y324423D01*
X-24917Y324499D01*
X-24980Y324578D01*
X-25040Y324658D01*
X-25097Y324741D01*
X-25151Y324827D01*
X-25201Y324914D01*
X-25248Y325003D01*
X-25291Y325094D01*
X-25331Y325186D01*
X-25367Y325280D01*
X-25400Y325375D01*
X-25429Y325472D01*
X-25454Y325569D01*
X-25475Y325668D01*
X-25493Y325767D01*
X-25506Y325867D01*
X-25516Y325967D01*
X-25522Y326067D01*
X-25524Y326168D01*
D12*
X537580Y985940D02*
X537580Y991020D01*
X540120Y988480D02*
X535040Y988480D01*
D10*
X552820Y983400D02*
X596000Y983400D01*
X552820Y983400D02*
X545200Y983400D01*
X545200Y996100D01*
X545200Y1021500D01*
X545200Y1034200D01*
X552820Y1034200D01*
X596000Y1034200D01*
X545200Y996100D02*
X519800Y996100D01*
X519800Y1021500D02*
X545200Y1021500D01*
X596000Y1034200D02*
X596619Y1034192D01*
X597237Y1034170D01*
X597854Y1034132D01*
X598470Y1034080D01*
X599085Y1034012D01*
X599698Y1033929D01*
X600309Y1033832D01*
X600917Y1033719D01*
X601523Y1033592D01*
X602125Y1033450D01*
X602723Y1033294D01*
X603318Y1033123D01*
X603908Y1032938D01*
X604493Y1032738D01*
X605074Y1032524D01*
X605649Y1032296D01*
X606218Y1032054D01*
X606781Y1031798D01*
X607338Y1031529D01*
X607888Y1031246D01*
X608431Y1030950D01*
X608967Y1030641D01*
X609495Y1030319D01*
X610015Y1029984D01*
X610527Y1029636D01*
X611030Y1029276D01*
X611524Y1028904D01*
X612009Y1028520D01*
X612484Y1028124D01*
X612950Y1027717D01*
X613406Y1027299D01*
X613851Y1026870D01*
X614286Y1026429D01*
X614709Y1025979D01*
X615122Y1025518D01*
X615524Y1025048D01*
X615913Y1024567D01*
X616292Y1024078D01*
X616658Y1023579D01*
X617011Y1023072D01*
X617353Y1022556D01*
X617681Y1022032D01*
X617997Y1021500D01*
X618300Y1020961D01*
X618589Y1020414D01*
X618865Y1019860D01*
X619128Y1019300D01*
X619377Y1018734D01*
X619612Y1018162D01*
X619833Y1017584D01*
X620040Y1017001D01*
X620232Y1016413D01*
X620410Y1015821D01*
X620574Y1015225D01*
X620723Y1014624D01*
X620858Y1014020D01*
X620977Y1013414D01*
X621082Y1012804D01*
X621172Y1012192D01*
X621248Y1011578D01*
X621308Y1010962D01*
X621353Y1010345D01*
X621383Y1009728D01*
X621398Y1009109D01*
X621398Y1008491D01*
X621383Y1007872D01*
X621353Y1007255D01*
X621308Y1006638D01*
X621248Y1006022D01*
X621172Y1005408D01*
X621082Y1004796D01*
X620977Y1004186D01*
X620858Y1003580D01*
X620723Y1002976D01*
X620574Y1002375D01*
X620410Y1001779D01*
X620232Y1001187D01*
X620040Y1000599D01*
X619833Y1000016D01*
X619612Y999438D01*
X619377Y998866D01*
X619128Y998300D01*
X618865Y997740D01*
X618589Y997186D01*
X618300Y996639D01*
X617997Y996100D01*
X617681Y995568D01*
X617353Y995044D01*
X617011Y994528D01*
X616658Y994021D01*
X616292Y993522D01*
X615913Y993033D01*
X615524Y992552D01*
X615122Y992082D01*
X614709Y991621D01*
X614286Y991171D01*
X613851Y990730D01*
X613406Y990301D01*
X612950Y989883D01*
X612484Y989476D01*
X612009Y989080D01*
X611524Y988696D01*
X611030Y988324D01*
X610527Y987964D01*
X610015Y987616D01*
X609495Y987281D01*
X608967Y986959D01*
X608431Y986650D01*
X607888Y986354D01*
X607338Y986071D01*
X606781Y985802D01*
X606218Y985546D01*
X605649Y985304D01*
X605074Y985076D01*
X604493Y984862D01*
X603908Y984662D01*
X603318Y984477D01*
X602723Y984306D01*
X602125Y984150D01*
X601523Y984008D01*
X600917Y983881D01*
X600309Y983768D01*
X599698Y983671D01*
X599085Y983588D01*
X598470Y983520D01*
X597854Y983468D01*
X597237Y983430D01*
X596619Y983408D01*
X596000Y983400D01*
X552820Y983400D02*
X552820Y1034200D01*
D11*
X549392Y1044360D02*
X549392Y1056044D01*
X549392Y1044360D02*
X554585Y1044360D01*
X559298Y1044360D02*
X564491Y1044360D01*
X559298Y1044360D02*
X559298Y1056044D01*
X564491Y1056044D01*
X563193Y1050851D02*
X559298Y1050851D01*
X569181Y1056044D02*
X569181Y1044360D01*
X569181Y1056044D02*
X572427Y1056044D01*
X572540Y1056042D01*
X572653Y1056036D01*
X572766Y1056026D01*
X572879Y1056012D01*
X572991Y1055995D01*
X573102Y1055973D01*
X573212Y1055948D01*
X573322Y1055918D01*
X573430Y1055885D01*
X573537Y1055848D01*
X573643Y1055808D01*
X573747Y1055763D01*
X573850Y1055715D01*
X573951Y1055664D01*
X574050Y1055609D01*
X574147Y1055551D01*
X574242Y1055489D01*
X574335Y1055424D01*
X574425Y1055356D01*
X574513Y1055285D01*
X574599Y1055210D01*
X574682Y1055133D01*
X574762Y1055053D01*
X574839Y1054970D01*
X574914Y1054884D01*
X574985Y1054796D01*
X575053Y1054706D01*
X575118Y1054613D01*
X575180Y1054518D01*
X575238Y1054421D01*
X575293Y1054322D01*
X575344Y1054221D01*
X575392Y1054118D01*
X575437Y1054014D01*
X575477Y1053908D01*
X575514Y1053801D01*
X575547Y1053693D01*
X575577Y1053583D01*
X575602Y1053473D01*
X575624Y1053362D01*
X575641Y1053250D01*
X575655Y1053137D01*
X575665Y1053024D01*
X575671Y1052911D01*
X575673Y1052798D01*
X575673Y1047606D01*
X575671Y1047493D01*
X575665Y1047380D01*
X575655Y1047267D01*
X575641Y1047154D01*
X575624Y1047042D01*
X575602Y1046931D01*
X575577Y1046821D01*
X575547Y1046711D01*
X575514Y1046603D01*
X575477Y1046496D01*
X575437Y1046390D01*
X575392Y1046286D01*
X575344Y1046183D01*
X575293Y1046082D01*
X575238Y1045983D01*
X575180Y1045886D01*
X575118Y1045791D01*
X575053Y1045698D01*
X574985Y1045608D01*
X574914Y1045520D01*
X574839Y1045434D01*
X574762Y1045351D01*
X574682Y1045271D01*
X574599Y1045194D01*
X574513Y1045119D01*
X574425Y1045048D01*
X574335Y1044980D01*
X574242Y1044915D01*
X574147Y1044853D01*
X574050Y1044795D01*
X573951Y1044740D01*
X573850Y1044689D01*
X573747Y1044641D01*
X573643Y1044596D01*
X573537Y1044556D01*
X573430Y1044519D01*
X573322Y1044486D01*
X573212Y1044456D01*
X573102Y1044431D01*
X572991Y1044409D01*
X572879Y1044392D01*
X572766Y1044378D01*
X572653Y1044368D01*
X572540Y1044362D01*
X572427Y1044360D01*
X569181Y1044360D01*
X583589Y1049553D02*
X587483Y1049553D01*
X583589Y1049553D02*
X583490Y1049555D01*
X583390Y1049561D01*
X583291Y1049570D01*
X583193Y1049583D01*
X583095Y1049600D01*
X582997Y1049621D01*
X582901Y1049646D01*
X582806Y1049674D01*
X582712Y1049706D01*
X582619Y1049741D01*
X582527Y1049780D01*
X582437Y1049823D01*
X582349Y1049868D01*
X582262Y1049918D01*
X582178Y1049970D01*
X582095Y1050026D01*
X582015Y1050084D01*
X581937Y1050146D01*
X581862Y1050211D01*
X581789Y1050279D01*
X581719Y1050349D01*
X581651Y1050422D01*
X581586Y1050497D01*
X581524Y1050575D01*
X581466Y1050655D01*
X581410Y1050738D01*
X581358Y1050822D01*
X581308Y1050909D01*
X581263Y1050997D01*
X581220Y1051087D01*
X581181Y1051179D01*
X581146Y1051272D01*
X581114Y1051366D01*
X581086Y1051461D01*
X581061Y1051557D01*
X581040Y1051655D01*
X581023Y1051753D01*
X581010Y1051851D01*
X581001Y1051950D01*
X580995Y1052050D01*
X580993Y1052149D01*
X580992Y1052149D02*
X580992Y1052798D01*
X580994Y1052911D01*
X581000Y1053024D01*
X581010Y1053137D01*
X581024Y1053250D01*
X581041Y1053362D01*
X581063Y1053473D01*
X581088Y1053583D01*
X581118Y1053693D01*
X581151Y1053801D01*
X581188Y1053908D01*
X581228Y1054014D01*
X581273Y1054118D01*
X581321Y1054221D01*
X581372Y1054322D01*
X581427Y1054421D01*
X581485Y1054518D01*
X581547Y1054613D01*
X581612Y1054706D01*
X581680Y1054796D01*
X581751Y1054884D01*
X581826Y1054970D01*
X581903Y1055053D01*
X581983Y1055133D01*
X582066Y1055210D01*
X582152Y1055285D01*
X582240Y1055356D01*
X582330Y1055424D01*
X582423Y1055489D01*
X582518Y1055551D01*
X582615Y1055609D01*
X582714Y1055664D01*
X582815Y1055715D01*
X582918Y1055763D01*
X583022Y1055808D01*
X583128Y1055848D01*
X583235Y1055885D01*
X583343Y1055918D01*
X583453Y1055948D01*
X583563Y1055973D01*
X583674Y1055995D01*
X583786Y1056012D01*
X583899Y1056026D01*
X584012Y1056036D01*
X584125Y1056042D01*
X584238Y1056044D01*
X584351Y1056042D01*
X584464Y1056036D01*
X584577Y1056026D01*
X584690Y1056012D01*
X584802Y1055995D01*
X584913Y1055973D01*
X585023Y1055948D01*
X585133Y1055918D01*
X585241Y1055885D01*
X585348Y1055848D01*
X585454Y1055808D01*
X585558Y1055763D01*
X585661Y1055715D01*
X585762Y1055664D01*
X585861Y1055609D01*
X585958Y1055551D01*
X586053Y1055489D01*
X586146Y1055424D01*
X586236Y1055356D01*
X586324Y1055285D01*
X586410Y1055210D01*
X586493Y1055133D01*
X586573Y1055053D01*
X586650Y1054970D01*
X586725Y1054884D01*
X586796Y1054796D01*
X586864Y1054706D01*
X586929Y1054613D01*
X586991Y1054518D01*
X587049Y1054421D01*
X587104Y1054322D01*
X587155Y1054221D01*
X587203Y1054118D01*
X587248Y1054014D01*
X587288Y1053908D01*
X587325Y1053801D01*
X587358Y1053693D01*
X587388Y1053583D01*
X587413Y1053473D01*
X587435Y1053362D01*
X587452Y1053250D01*
X587466Y1053137D01*
X587476Y1053024D01*
X587482Y1052911D01*
X587484Y1052798D01*
X587483Y1052798D02*
X587483Y1049553D01*
X587484Y1049553D02*
X587482Y1049410D01*
X587476Y1049267D01*
X587466Y1049124D01*
X587452Y1048982D01*
X587435Y1048840D01*
X587413Y1048698D01*
X587388Y1048557D01*
X587358Y1048417D01*
X587325Y1048278D01*
X587288Y1048140D01*
X587247Y1048003D01*
X587203Y1047867D01*
X587154Y1047732D01*
X587102Y1047599D01*
X587047Y1047467D01*
X586987Y1047337D01*
X586924Y1047208D01*
X586858Y1047081D01*
X586788Y1046957D01*
X586715Y1046834D01*
X586638Y1046713D01*
X586558Y1046594D01*
X586475Y1046478D01*
X586389Y1046363D01*
X586300Y1046252D01*
X586207Y1046142D01*
X586112Y1046036D01*
X586013Y1045932D01*
X585912Y1045831D01*
X585808Y1045732D01*
X585702Y1045637D01*
X585592Y1045544D01*
X585481Y1045455D01*
X585366Y1045369D01*
X585250Y1045286D01*
X585131Y1045206D01*
X585010Y1045129D01*
X584888Y1045056D01*
X584763Y1044986D01*
X584636Y1044920D01*
X584507Y1044857D01*
X584377Y1044797D01*
X584245Y1044742D01*
X584112Y1044690D01*
X583977Y1044641D01*
X583841Y1044597D01*
X583704Y1044556D01*
X583566Y1044519D01*
X583427Y1044486D01*
X583287Y1044456D01*
X583146Y1044431D01*
X583004Y1044409D01*
X582862Y1044392D01*
X582720Y1044378D01*
X582577Y1044368D01*
X582434Y1044362D01*
X582291Y1044360D01*
D10*
X369200Y1391500D02*
X369204Y1391812D01*
X369215Y1392123D01*
X369234Y1392434D01*
X369261Y1392745D01*
X369296Y1393055D01*
X369337Y1393363D01*
X369387Y1393671D01*
X369444Y1393978D01*
X369509Y1394283D01*
X369581Y1394586D01*
X369660Y1394887D01*
X369747Y1395187D01*
X369841Y1395484D01*
X369942Y1395779D01*
X370051Y1396071D01*
X370167Y1396360D01*
X370290Y1396647D01*
X370419Y1396930D01*
X370556Y1397210D01*
X370700Y1397487D01*
X370850Y1397760D01*
X371007Y1398029D01*
X371170Y1398294D01*
X371340Y1398556D01*
X371517Y1398813D01*
X371699Y1399065D01*
X371888Y1399313D01*
X372083Y1399557D01*
X372283Y1399795D01*
X372490Y1400029D01*
X372702Y1400257D01*
X372920Y1400480D01*
X373143Y1400698D01*
X373371Y1400910D01*
X373605Y1401117D01*
X373843Y1401317D01*
X374087Y1401512D01*
X374335Y1401701D01*
X374587Y1401883D01*
X374844Y1402060D01*
X375106Y1402230D01*
X375371Y1402393D01*
X375640Y1402550D01*
X375913Y1402700D01*
X376190Y1402844D01*
X376470Y1402981D01*
X376753Y1403110D01*
X377040Y1403233D01*
X377329Y1403349D01*
X377621Y1403458D01*
X377916Y1403559D01*
X378213Y1403653D01*
X378513Y1403740D01*
X378814Y1403819D01*
X379117Y1403891D01*
X379422Y1403956D01*
X379729Y1404013D01*
X380037Y1404063D01*
X380345Y1404104D01*
X380655Y1404139D01*
X380966Y1404166D01*
X381277Y1404185D01*
X381588Y1404196D01*
X381900Y1404200D01*
X382212Y1404196D01*
X382523Y1404185D01*
X382834Y1404166D01*
X383145Y1404139D01*
X383455Y1404104D01*
X383763Y1404063D01*
X384071Y1404013D01*
X384378Y1403956D01*
X384683Y1403891D01*
X384986Y1403819D01*
X385287Y1403740D01*
X385587Y1403653D01*
X385884Y1403559D01*
X386179Y1403458D01*
X386471Y1403349D01*
X386760Y1403233D01*
X387047Y1403110D01*
X387330Y1402981D01*
X387610Y1402844D01*
X387887Y1402700D01*
X388160Y1402550D01*
X388429Y1402393D01*
X388694Y1402230D01*
X388956Y1402060D01*
X389213Y1401883D01*
X389465Y1401701D01*
X389713Y1401512D01*
X389957Y1401317D01*
X390195Y1401117D01*
X390429Y1400910D01*
X390657Y1400698D01*
X390880Y1400480D01*
X391098Y1400257D01*
X391310Y1400029D01*
X391517Y1399795D01*
X391717Y1399557D01*
X391912Y1399313D01*
X392101Y1399065D01*
X392283Y1398813D01*
X392460Y1398556D01*
X392630Y1398294D01*
X392793Y1398029D01*
X392950Y1397760D01*
X393100Y1397487D01*
X393244Y1397210D01*
X393381Y1396930D01*
X393510Y1396647D01*
X393633Y1396360D01*
X393749Y1396071D01*
X393858Y1395779D01*
X393959Y1395484D01*
X394053Y1395187D01*
X394140Y1394887D01*
X394219Y1394586D01*
X394291Y1394283D01*
X394356Y1393978D01*
X394413Y1393671D01*
X394463Y1393363D01*
X394504Y1393055D01*
X394539Y1392745D01*
X394566Y1392434D01*
X394585Y1392123D01*
X394596Y1391812D01*
X394600Y1391500D01*
X394596Y1391188D01*
X394585Y1390877D01*
X394566Y1390566D01*
X394539Y1390255D01*
X394504Y1389945D01*
X394463Y1389637D01*
X394413Y1389329D01*
X394356Y1389022D01*
X394291Y1388717D01*
X394219Y1388414D01*
X394140Y1388113D01*
X394053Y1387813D01*
X393959Y1387516D01*
X393858Y1387221D01*
X393749Y1386929D01*
X393633Y1386640D01*
X393510Y1386353D01*
X393381Y1386070D01*
X393244Y1385790D01*
X393100Y1385513D01*
X392950Y1385240D01*
X392793Y1384971D01*
X392630Y1384706D01*
X392460Y1384444D01*
X392283Y1384187D01*
X392101Y1383935D01*
X391912Y1383687D01*
X391717Y1383443D01*
X391517Y1383205D01*
X391310Y1382971D01*
X391098Y1382743D01*
X390880Y1382520D01*
X390657Y1382302D01*
X390429Y1382090D01*
X390195Y1381883D01*
X389957Y1381683D01*
X389713Y1381488D01*
X389465Y1381299D01*
X389213Y1381117D01*
X388956Y1380940D01*
X388694Y1380770D01*
X388429Y1380607D01*
X388160Y1380450D01*
X387887Y1380300D01*
X387610Y1380156D01*
X387330Y1380019D01*
X387047Y1379890D01*
X386760Y1379767D01*
X386471Y1379651D01*
X386179Y1379542D01*
X385884Y1379441D01*
X385587Y1379347D01*
X385287Y1379260D01*
X384986Y1379181D01*
X384683Y1379109D01*
X384378Y1379044D01*
X384071Y1378987D01*
X383763Y1378937D01*
X383455Y1378896D01*
X383145Y1378861D01*
X382834Y1378834D01*
X382523Y1378815D01*
X382212Y1378804D01*
X381900Y1378800D01*
X381588Y1378804D01*
X381277Y1378815D01*
X380966Y1378834D01*
X380655Y1378861D01*
X380345Y1378896D01*
X380037Y1378937D01*
X379729Y1378987D01*
X379422Y1379044D01*
X379117Y1379109D01*
X378814Y1379181D01*
X378513Y1379260D01*
X378213Y1379347D01*
X377916Y1379441D01*
X377621Y1379542D01*
X377329Y1379651D01*
X377040Y1379767D01*
X376753Y1379890D01*
X376470Y1380019D01*
X376190Y1380156D01*
X375913Y1380300D01*
X375640Y1380450D01*
X375371Y1380607D01*
X375106Y1380770D01*
X374844Y1380940D01*
X374587Y1381117D01*
X374335Y1381299D01*
X374087Y1381488D01*
X373843Y1381683D01*
X373605Y1381883D01*
X373371Y1382090D01*
X373143Y1382302D01*
X372920Y1382520D01*
X372702Y1382743D01*
X372490Y1382971D01*
X372283Y1383205D01*
X372083Y1383443D01*
X371888Y1383687D01*
X371699Y1383935D01*
X371517Y1384187D01*
X371340Y1384444D01*
X371170Y1384706D01*
X371007Y1384971D01*
X370850Y1385240D01*
X370700Y1385513D01*
X370556Y1385790D01*
X370419Y1386070D01*
X370290Y1386353D01*
X370167Y1386640D01*
X370051Y1386929D01*
X369942Y1387221D01*
X369841Y1387516D01*
X369747Y1387813D01*
X369660Y1388113D01*
X369581Y1388414D01*
X369509Y1388717D01*
X369444Y1389022D01*
X369387Y1389329D01*
X369337Y1389637D01*
X369296Y1389945D01*
X369261Y1390255D01*
X369234Y1390566D01*
X369215Y1390877D01*
X369204Y1391188D01*
X369200Y1391500D01*
D11*
X384186Y1409280D02*
X384186Y1420964D01*
X387432Y1420964D01*
X387545Y1420962D01*
X387658Y1420956D01*
X387771Y1420946D01*
X387884Y1420932D01*
X387996Y1420915D01*
X388107Y1420893D01*
X388217Y1420868D01*
X388327Y1420838D01*
X388435Y1420805D01*
X388542Y1420768D01*
X388648Y1420728D01*
X388752Y1420683D01*
X388855Y1420635D01*
X388956Y1420584D01*
X389055Y1420529D01*
X389152Y1420471D01*
X389247Y1420409D01*
X389340Y1420344D01*
X389430Y1420276D01*
X389518Y1420205D01*
X389604Y1420130D01*
X389687Y1420053D01*
X389767Y1419973D01*
X389844Y1419890D01*
X389919Y1419804D01*
X389990Y1419716D01*
X390058Y1419626D01*
X390123Y1419533D01*
X390185Y1419438D01*
X390243Y1419341D01*
X390298Y1419242D01*
X390349Y1419141D01*
X390397Y1419038D01*
X390442Y1418934D01*
X390482Y1418828D01*
X390519Y1418721D01*
X390552Y1418613D01*
X390582Y1418503D01*
X390607Y1418393D01*
X390629Y1418282D01*
X390646Y1418170D01*
X390660Y1418057D01*
X390670Y1417944D01*
X390676Y1417831D01*
X390678Y1417718D01*
X390676Y1417605D01*
X390670Y1417492D01*
X390660Y1417379D01*
X390646Y1417266D01*
X390629Y1417154D01*
X390607Y1417043D01*
X390582Y1416933D01*
X390552Y1416823D01*
X390519Y1416715D01*
X390482Y1416608D01*
X390442Y1416502D01*
X390397Y1416398D01*
X390349Y1416295D01*
X390298Y1416194D01*
X390243Y1416095D01*
X390185Y1415998D01*
X390123Y1415903D01*
X390058Y1415810D01*
X389990Y1415720D01*
X389919Y1415632D01*
X389844Y1415546D01*
X389767Y1415463D01*
X389687Y1415383D01*
X389604Y1415306D01*
X389518Y1415231D01*
X389430Y1415160D01*
X389340Y1415092D01*
X389247Y1415027D01*
X389152Y1414965D01*
X389055Y1414907D01*
X388956Y1414852D01*
X388855Y1414801D01*
X388752Y1414753D01*
X388648Y1414708D01*
X388542Y1414668D01*
X388435Y1414631D01*
X388327Y1414598D01*
X388217Y1414568D01*
X388107Y1414543D01*
X387996Y1414521D01*
X387884Y1414504D01*
X387771Y1414490D01*
X387658Y1414480D01*
X387545Y1414474D01*
X387432Y1414472D01*
X387432Y1414473D02*
X384186Y1414473D01*
X388081Y1414473D02*
X390677Y1409280D01*
M02*
