G04 EAGLE Gerber RS-274X export*
G75*
%MOMM*%
%FSLAX34Y34*%
%LPD*%
%INSilkscreen Bottom*%
%IPPOS*%
%AMOC8*
5,1,8,0,0,1.08239X$1,22.5*%
G01*
%ADD10C,0.101600*%
%ADD11C,0.152400*%
%ADD12C,0.127000*%


D10*
X38246Y72588D02*
X40843Y72588D01*
X40942Y72590D01*
X41042Y72596D01*
X41141Y72605D01*
X41239Y72618D01*
X41337Y72635D01*
X41435Y72656D01*
X41531Y72681D01*
X41626Y72709D01*
X41720Y72741D01*
X41813Y72776D01*
X41905Y72815D01*
X41995Y72858D01*
X42083Y72903D01*
X42170Y72953D01*
X42254Y73005D01*
X42337Y73061D01*
X42417Y73119D01*
X42495Y73181D01*
X42570Y73246D01*
X42643Y73314D01*
X42713Y73384D01*
X42781Y73457D01*
X42846Y73532D01*
X42908Y73610D01*
X42966Y73690D01*
X43022Y73773D01*
X43074Y73857D01*
X43124Y73944D01*
X43169Y74032D01*
X43212Y74122D01*
X43251Y74214D01*
X43286Y74307D01*
X43318Y74401D01*
X43346Y74496D01*
X43371Y74592D01*
X43392Y74690D01*
X43409Y74788D01*
X43422Y74886D01*
X43431Y74985D01*
X43437Y75085D01*
X43439Y75184D01*
X43439Y81676D01*
X43437Y81775D01*
X43431Y81875D01*
X43422Y81974D01*
X43409Y82072D01*
X43392Y82170D01*
X43371Y82268D01*
X43346Y82364D01*
X43318Y82459D01*
X43286Y82553D01*
X43251Y82646D01*
X43212Y82738D01*
X43169Y82828D01*
X43124Y82916D01*
X43074Y83003D01*
X43022Y83087D01*
X42966Y83170D01*
X42908Y83250D01*
X42846Y83328D01*
X42781Y83403D01*
X42713Y83476D01*
X42643Y83546D01*
X42570Y83614D01*
X42495Y83679D01*
X42417Y83741D01*
X42337Y83799D01*
X42254Y83855D01*
X42170Y83907D01*
X42083Y83957D01*
X41995Y84002D01*
X41905Y84045D01*
X41813Y84084D01*
X41720Y84119D01*
X41626Y84151D01*
X41531Y84179D01*
X41435Y84204D01*
X41337Y84225D01*
X41239Y84242D01*
X41141Y84255D01*
X41042Y84264D01*
X40942Y84270D01*
X40843Y84272D01*
X38246Y84272D01*
X33881Y81026D02*
X33881Y75834D01*
X33881Y81026D02*
X33879Y81139D01*
X33873Y81252D01*
X33863Y81365D01*
X33849Y81478D01*
X33832Y81590D01*
X33810Y81701D01*
X33785Y81811D01*
X33755Y81921D01*
X33722Y82029D01*
X33685Y82136D01*
X33645Y82242D01*
X33600Y82346D01*
X33552Y82449D01*
X33501Y82550D01*
X33446Y82649D01*
X33388Y82746D01*
X33326Y82841D01*
X33261Y82934D01*
X33193Y83024D01*
X33122Y83112D01*
X33047Y83198D01*
X32970Y83281D01*
X32890Y83361D01*
X32807Y83438D01*
X32721Y83513D01*
X32633Y83584D01*
X32543Y83652D01*
X32450Y83717D01*
X32355Y83779D01*
X32258Y83837D01*
X32159Y83892D01*
X32058Y83943D01*
X31955Y83991D01*
X31851Y84036D01*
X31745Y84076D01*
X31638Y84113D01*
X31530Y84146D01*
X31420Y84176D01*
X31310Y84201D01*
X31199Y84223D01*
X31087Y84240D01*
X30974Y84254D01*
X30861Y84264D01*
X30748Y84270D01*
X30635Y84272D01*
X30522Y84270D01*
X30409Y84264D01*
X30296Y84254D01*
X30183Y84240D01*
X30071Y84223D01*
X29960Y84201D01*
X29850Y84176D01*
X29740Y84146D01*
X29632Y84113D01*
X29525Y84076D01*
X29419Y84036D01*
X29315Y83991D01*
X29212Y83943D01*
X29111Y83892D01*
X29012Y83837D01*
X28915Y83779D01*
X28820Y83717D01*
X28727Y83652D01*
X28637Y83584D01*
X28549Y83513D01*
X28463Y83438D01*
X28380Y83361D01*
X28300Y83281D01*
X28223Y83198D01*
X28148Y83112D01*
X28077Y83024D01*
X28009Y82934D01*
X27944Y82841D01*
X27882Y82746D01*
X27824Y82649D01*
X27769Y82550D01*
X27718Y82449D01*
X27670Y82346D01*
X27625Y82242D01*
X27585Y82136D01*
X27548Y82029D01*
X27515Y81921D01*
X27485Y81811D01*
X27460Y81701D01*
X27438Y81590D01*
X27421Y81478D01*
X27407Y81365D01*
X27397Y81252D01*
X27391Y81139D01*
X27389Y81026D01*
X27390Y81026D02*
X27390Y75834D01*
X27389Y75834D02*
X27391Y75721D01*
X27397Y75608D01*
X27407Y75495D01*
X27421Y75382D01*
X27438Y75270D01*
X27460Y75159D01*
X27485Y75049D01*
X27515Y74939D01*
X27548Y74831D01*
X27585Y74724D01*
X27625Y74618D01*
X27670Y74514D01*
X27718Y74411D01*
X27769Y74310D01*
X27824Y74211D01*
X27882Y74114D01*
X27944Y74019D01*
X28009Y73926D01*
X28077Y73836D01*
X28148Y73748D01*
X28223Y73662D01*
X28300Y73579D01*
X28380Y73499D01*
X28463Y73422D01*
X28549Y73347D01*
X28637Y73276D01*
X28727Y73208D01*
X28820Y73143D01*
X28915Y73081D01*
X29012Y73023D01*
X29111Y72968D01*
X29212Y72917D01*
X29315Y72869D01*
X29419Y72824D01*
X29525Y72784D01*
X29632Y72747D01*
X29740Y72714D01*
X29850Y72684D01*
X29960Y72659D01*
X30071Y72637D01*
X30183Y72620D01*
X30296Y72606D01*
X30409Y72596D01*
X30522Y72590D01*
X30635Y72588D01*
X30748Y72590D01*
X30861Y72596D01*
X30974Y72606D01*
X31087Y72620D01*
X31199Y72637D01*
X31310Y72659D01*
X31420Y72684D01*
X31530Y72714D01*
X31638Y72747D01*
X31745Y72784D01*
X31851Y72824D01*
X31955Y72869D01*
X32058Y72917D01*
X32159Y72968D01*
X32258Y73023D01*
X32355Y73081D01*
X32450Y73143D01*
X32543Y73208D01*
X32633Y73276D01*
X32721Y73347D01*
X32807Y73422D01*
X32890Y73499D01*
X32970Y73579D01*
X33047Y73662D01*
X33122Y73748D01*
X33193Y73836D01*
X33261Y73926D01*
X33326Y74019D01*
X33388Y74114D01*
X33446Y74211D01*
X33501Y74310D01*
X33552Y74411D01*
X33600Y74514D01*
X33645Y74618D01*
X33685Y74724D01*
X33722Y74831D01*
X33755Y74939D01*
X33785Y75049D01*
X33810Y75159D01*
X33832Y75270D01*
X33849Y75382D01*
X33863Y75495D01*
X33873Y75608D01*
X33879Y75721D01*
X33881Y75834D01*
X22070Y72588D02*
X22070Y84272D01*
X15579Y72588D01*
X15579Y84272D01*
X10259Y81676D02*
X7014Y84272D01*
X7014Y72588D01*
X10259Y72588D02*
X3768Y72588D01*
D11*
X362550Y687970D02*
X415890Y687970D01*
X362550Y687970D02*
X362550Y614310D01*
X415890Y614310D01*
X415400Y566990D02*
X362060Y566990D01*
X362060Y493330D01*
X415400Y493330D01*
D12*
X223050Y612090D02*
X184610Y612090D01*
X223050Y612090D02*
X223050Y594310D01*
X184610Y594310D01*
X184610Y612090D01*
D10*
X212490Y619583D02*
X212490Y631267D01*
X209245Y631267D01*
X209132Y631265D01*
X209019Y631259D01*
X208906Y631249D01*
X208793Y631235D01*
X208681Y631218D01*
X208570Y631196D01*
X208460Y631171D01*
X208350Y631141D01*
X208242Y631108D01*
X208135Y631071D01*
X208029Y631031D01*
X207925Y630986D01*
X207822Y630938D01*
X207721Y630887D01*
X207622Y630832D01*
X207525Y630774D01*
X207430Y630712D01*
X207337Y630647D01*
X207247Y630579D01*
X207159Y630508D01*
X207073Y630433D01*
X206990Y630356D01*
X206910Y630276D01*
X206833Y630193D01*
X206758Y630107D01*
X206687Y630019D01*
X206619Y629929D01*
X206554Y629836D01*
X206492Y629741D01*
X206434Y629644D01*
X206379Y629545D01*
X206328Y629444D01*
X206280Y629341D01*
X206235Y629237D01*
X206195Y629131D01*
X206158Y629024D01*
X206125Y628916D01*
X206095Y628806D01*
X206070Y628696D01*
X206048Y628585D01*
X206031Y628473D01*
X206017Y628360D01*
X206007Y628247D01*
X206001Y628134D01*
X205999Y628021D01*
X206001Y627908D01*
X206007Y627795D01*
X206017Y627682D01*
X206031Y627569D01*
X206048Y627457D01*
X206070Y627346D01*
X206095Y627236D01*
X206125Y627126D01*
X206158Y627018D01*
X206195Y626911D01*
X206235Y626805D01*
X206280Y626701D01*
X206328Y626598D01*
X206379Y626497D01*
X206434Y626398D01*
X206492Y626301D01*
X206554Y626206D01*
X206619Y626113D01*
X206687Y626023D01*
X206758Y625935D01*
X206833Y625849D01*
X206910Y625766D01*
X206990Y625686D01*
X207073Y625609D01*
X207159Y625534D01*
X207247Y625463D01*
X207337Y625395D01*
X207430Y625330D01*
X207525Y625268D01*
X207622Y625210D01*
X207721Y625155D01*
X207822Y625104D01*
X207925Y625056D01*
X208029Y625011D01*
X208135Y624971D01*
X208242Y624934D01*
X208350Y624901D01*
X208460Y624871D01*
X208570Y624846D01*
X208681Y624824D01*
X208793Y624807D01*
X208906Y624793D01*
X209019Y624783D01*
X209132Y624777D01*
X209245Y624775D01*
X209245Y624776D02*
X212490Y624776D01*
X208596Y624776D02*
X205999Y619583D01*
X201134Y628671D02*
X197889Y631267D01*
X197889Y619583D01*
X201134Y619583D02*
X194643Y619583D01*
D12*
X281510Y913690D02*
X319950Y913690D01*
X319950Y895910D01*
X281510Y895910D01*
X281510Y913690D01*
D10*
X310660Y916103D02*
X310660Y927787D01*
X307415Y927787D01*
X307302Y927785D01*
X307189Y927779D01*
X307076Y927769D01*
X306963Y927755D01*
X306851Y927738D01*
X306740Y927716D01*
X306630Y927691D01*
X306520Y927661D01*
X306412Y927628D01*
X306305Y927591D01*
X306199Y927551D01*
X306095Y927506D01*
X305992Y927458D01*
X305891Y927407D01*
X305792Y927352D01*
X305695Y927294D01*
X305600Y927232D01*
X305507Y927167D01*
X305417Y927099D01*
X305329Y927028D01*
X305243Y926953D01*
X305160Y926876D01*
X305080Y926796D01*
X305003Y926713D01*
X304928Y926627D01*
X304857Y926539D01*
X304789Y926449D01*
X304724Y926356D01*
X304662Y926261D01*
X304604Y926164D01*
X304549Y926065D01*
X304498Y925964D01*
X304450Y925861D01*
X304405Y925757D01*
X304365Y925651D01*
X304328Y925544D01*
X304295Y925436D01*
X304265Y925326D01*
X304240Y925216D01*
X304218Y925105D01*
X304201Y924993D01*
X304187Y924880D01*
X304177Y924767D01*
X304171Y924654D01*
X304169Y924541D01*
X304171Y924428D01*
X304177Y924315D01*
X304187Y924202D01*
X304201Y924089D01*
X304218Y923977D01*
X304240Y923866D01*
X304265Y923756D01*
X304295Y923646D01*
X304328Y923538D01*
X304365Y923431D01*
X304405Y923325D01*
X304450Y923221D01*
X304498Y923118D01*
X304549Y923017D01*
X304604Y922918D01*
X304662Y922821D01*
X304724Y922726D01*
X304789Y922633D01*
X304857Y922543D01*
X304928Y922455D01*
X305003Y922369D01*
X305080Y922286D01*
X305160Y922206D01*
X305243Y922129D01*
X305329Y922054D01*
X305417Y921983D01*
X305507Y921915D01*
X305600Y921850D01*
X305695Y921788D01*
X305792Y921730D01*
X305891Y921675D01*
X305992Y921624D01*
X306095Y921576D01*
X306199Y921531D01*
X306305Y921491D01*
X306412Y921454D01*
X306520Y921421D01*
X306630Y921391D01*
X306740Y921366D01*
X306851Y921344D01*
X306963Y921327D01*
X307076Y921313D01*
X307189Y921303D01*
X307302Y921297D01*
X307415Y921295D01*
X307415Y921296D02*
X310660Y921296D01*
X306766Y921296D02*
X304169Y916103D01*
X299304Y925191D02*
X296059Y927787D01*
X296059Y916103D01*
X299304Y916103D02*
X292813Y916103D01*
X287875Y921945D02*
X287872Y922175D01*
X287864Y922405D01*
X287850Y922634D01*
X287831Y922863D01*
X287806Y923092D01*
X287776Y923320D01*
X287741Y923547D01*
X287700Y923773D01*
X287654Y923998D01*
X287602Y924222D01*
X287545Y924445D01*
X287483Y924666D01*
X287415Y924886D01*
X287342Y925104D01*
X287264Y925320D01*
X287181Y925534D01*
X287093Y925747D01*
X287000Y925957D01*
X286901Y926164D01*
X286868Y926254D01*
X286832Y926343D01*
X286792Y926431D01*
X286748Y926516D01*
X286701Y926600D01*
X286651Y926682D01*
X286597Y926762D01*
X286541Y926839D01*
X286481Y926915D01*
X286418Y926988D01*
X286353Y927058D01*
X286284Y927126D01*
X286213Y927190D01*
X286140Y927252D01*
X286064Y927311D01*
X285986Y927367D01*
X285905Y927420D01*
X285823Y927469D01*
X285739Y927515D01*
X285652Y927558D01*
X285565Y927597D01*
X285475Y927633D01*
X285385Y927665D01*
X285293Y927693D01*
X285200Y927718D01*
X285106Y927739D01*
X285012Y927756D01*
X284917Y927770D01*
X284821Y927779D01*
X284725Y927785D01*
X284629Y927787D01*
X284533Y927785D01*
X284437Y927779D01*
X284341Y927770D01*
X284246Y927756D01*
X284152Y927739D01*
X284058Y927718D01*
X283965Y927693D01*
X283873Y927665D01*
X283783Y927633D01*
X283693Y927597D01*
X283606Y927558D01*
X283519Y927515D01*
X283435Y927469D01*
X283353Y927420D01*
X283272Y927367D01*
X283194Y927311D01*
X283118Y927252D01*
X283045Y927190D01*
X282974Y927126D01*
X282905Y927058D01*
X282840Y926988D01*
X282777Y926915D01*
X282717Y926840D01*
X282661Y926762D01*
X282607Y926682D01*
X282557Y926600D01*
X282510Y926516D01*
X282467Y926431D01*
X282426Y926343D01*
X282390Y926254D01*
X282357Y926164D01*
X282258Y925956D01*
X282165Y925746D01*
X282077Y925534D01*
X281994Y925320D01*
X281916Y925103D01*
X281843Y924885D01*
X281775Y924666D01*
X281713Y924444D01*
X281656Y924222D01*
X281604Y923998D01*
X281558Y923773D01*
X281517Y923547D01*
X281482Y923319D01*
X281452Y923092D01*
X281427Y922863D01*
X281408Y922634D01*
X281394Y922405D01*
X281386Y922175D01*
X281383Y921945D01*
X287874Y921945D02*
X287871Y921715D01*
X287863Y921485D01*
X287849Y921256D01*
X287830Y921027D01*
X287805Y920798D01*
X287775Y920570D01*
X287740Y920343D01*
X287699Y920117D01*
X287653Y919892D01*
X287601Y919668D01*
X287544Y919445D01*
X287482Y919224D01*
X287414Y919004D01*
X287341Y918786D01*
X287263Y918570D01*
X287180Y918356D01*
X287092Y918144D01*
X286999Y917933D01*
X286900Y917726D01*
X286901Y917726D02*
X286868Y917636D01*
X286832Y917547D01*
X286791Y917459D01*
X286748Y917374D01*
X286701Y917290D01*
X286651Y917208D01*
X286597Y917128D01*
X286541Y917051D01*
X286481Y916975D01*
X286418Y916902D01*
X286353Y916832D01*
X286284Y916764D01*
X286213Y916700D01*
X286140Y916638D01*
X286064Y916579D01*
X285986Y916523D01*
X285905Y916470D01*
X285823Y916421D01*
X285739Y916375D01*
X285652Y916332D01*
X285565Y916293D01*
X285475Y916257D01*
X285385Y916225D01*
X285293Y916197D01*
X285200Y916172D01*
X285106Y916151D01*
X285012Y916134D01*
X284917Y916120D01*
X284821Y916111D01*
X284725Y916105D01*
X284629Y916103D01*
X282357Y917726D02*
X282258Y917933D01*
X282165Y918144D01*
X282077Y918356D01*
X281994Y918570D01*
X281916Y918786D01*
X281843Y919004D01*
X281775Y919224D01*
X281713Y919445D01*
X281656Y919668D01*
X281604Y919892D01*
X281558Y920117D01*
X281517Y920343D01*
X281482Y920570D01*
X281452Y920798D01*
X281427Y921027D01*
X281408Y921256D01*
X281394Y921485D01*
X281386Y921715D01*
X281383Y921945D01*
X282357Y917726D02*
X282390Y917636D01*
X282426Y917547D01*
X282467Y917459D01*
X282510Y917374D01*
X282557Y917290D01*
X282607Y917208D01*
X282661Y917128D01*
X282717Y917050D01*
X282777Y916975D01*
X282840Y916902D01*
X282905Y916832D01*
X282974Y916764D01*
X283045Y916700D01*
X283118Y916638D01*
X283194Y916579D01*
X283272Y916523D01*
X283353Y916470D01*
X283435Y916421D01*
X283519Y916375D01*
X283606Y916332D01*
X283693Y916293D01*
X283783Y916257D01*
X283873Y916225D01*
X283965Y916197D01*
X284058Y916172D01*
X284152Y916151D01*
X284246Y916134D01*
X284341Y916120D01*
X284437Y916111D01*
X284533Y916105D01*
X284629Y916103D01*
X287225Y918699D02*
X282032Y925191D01*
D12*
X581750Y686510D02*
X620190Y686510D01*
X581750Y686510D02*
X581750Y704290D01*
X620190Y704290D01*
X620190Y686510D01*
D10*
X599470Y706703D02*
X599470Y718387D01*
X596225Y718387D01*
X596112Y718385D01*
X595999Y718379D01*
X595886Y718369D01*
X595773Y718355D01*
X595661Y718338D01*
X595550Y718316D01*
X595440Y718291D01*
X595330Y718261D01*
X595222Y718228D01*
X595115Y718191D01*
X595009Y718151D01*
X594905Y718106D01*
X594802Y718058D01*
X594701Y718007D01*
X594602Y717952D01*
X594505Y717894D01*
X594410Y717832D01*
X594317Y717767D01*
X594227Y717699D01*
X594139Y717628D01*
X594053Y717553D01*
X593970Y717476D01*
X593890Y717396D01*
X593813Y717313D01*
X593738Y717227D01*
X593667Y717139D01*
X593599Y717049D01*
X593534Y716956D01*
X593472Y716861D01*
X593414Y716764D01*
X593359Y716665D01*
X593308Y716564D01*
X593260Y716461D01*
X593215Y716357D01*
X593175Y716251D01*
X593138Y716144D01*
X593105Y716036D01*
X593075Y715926D01*
X593050Y715816D01*
X593028Y715705D01*
X593011Y715593D01*
X592997Y715480D01*
X592987Y715367D01*
X592981Y715254D01*
X592979Y715141D01*
X592981Y715028D01*
X592987Y714915D01*
X592997Y714802D01*
X593011Y714689D01*
X593028Y714577D01*
X593050Y714466D01*
X593075Y714356D01*
X593105Y714246D01*
X593138Y714138D01*
X593175Y714031D01*
X593215Y713925D01*
X593260Y713821D01*
X593308Y713718D01*
X593359Y713617D01*
X593414Y713518D01*
X593472Y713421D01*
X593534Y713326D01*
X593599Y713233D01*
X593667Y713143D01*
X593738Y713055D01*
X593813Y712969D01*
X593890Y712886D01*
X593970Y712806D01*
X594053Y712729D01*
X594139Y712654D01*
X594227Y712583D01*
X594317Y712515D01*
X594410Y712450D01*
X594505Y712388D01*
X594602Y712330D01*
X594701Y712275D01*
X594802Y712224D01*
X594905Y712176D01*
X595009Y712131D01*
X595115Y712091D01*
X595222Y712054D01*
X595330Y712021D01*
X595440Y711991D01*
X595550Y711966D01*
X595661Y711944D01*
X595773Y711927D01*
X595886Y711913D01*
X595999Y711903D01*
X596112Y711897D01*
X596225Y711895D01*
X596225Y711896D02*
X599470Y711896D01*
X595576Y711896D02*
X592979Y706703D01*
X581623Y715466D02*
X581625Y715573D01*
X581631Y715679D01*
X581641Y715785D01*
X581654Y715891D01*
X581672Y715997D01*
X581693Y716101D01*
X581718Y716205D01*
X581747Y716308D01*
X581779Y716409D01*
X581816Y716509D01*
X581856Y716608D01*
X581899Y716706D01*
X581946Y716802D01*
X581997Y716896D01*
X582051Y716988D01*
X582108Y717078D01*
X582168Y717166D01*
X582232Y717251D01*
X582299Y717334D01*
X582369Y717415D01*
X582441Y717493D01*
X582517Y717569D01*
X582595Y717641D01*
X582676Y717711D01*
X582759Y717778D01*
X582844Y717842D01*
X582932Y717902D01*
X583022Y717959D01*
X583114Y718013D01*
X583208Y718064D01*
X583304Y718111D01*
X583402Y718154D01*
X583501Y718194D01*
X583601Y718231D01*
X583702Y718263D01*
X583805Y718292D01*
X583909Y718317D01*
X584013Y718338D01*
X584119Y718356D01*
X584225Y718369D01*
X584331Y718379D01*
X584437Y718385D01*
X584544Y718387D01*
X584665Y718385D01*
X584786Y718379D01*
X584906Y718369D01*
X585027Y718356D01*
X585146Y718338D01*
X585266Y718317D01*
X585384Y718292D01*
X585501Y718263D01*
X585618Y718230D01*
X585733Y718194D01*
X585847Y718153D01*
X585960Y718110D01*
X586072Y718062D01*
X586181Y718011D01*
X586289Y717956D01*
X586396Y717898D01*
X586500Y717837D01*
X586602Y717772D01*
X586702Y717704D01*
X586800Y717633D01*
X586896Y717559D01*
X586989Y717482D01*
X587079Y717401D01*
X587167Y717318D01*
X587252Y717232D01*
X587335Y717143D01*
X587414Y717052D01*
X587491Y716958D01*
X587564Y716862D01*
X587634Y716764D01*
X587701Y716663D01*
X587765Y716560D01*
X587826Y716455D01*
X587883Y716348D01*
X587936Y716240D01*
X587986Y716130D01*
X588032Y716018D01*
X588075Y715905D01*
X588114Y715790D01*
X582597Y713194D02*
X582518Y713272D01*
X582442Y713352D01*
X582369Y713435D01*
X582299Y713521D01*
X582232Y713608D01*
X582168Y713699D01*
X582108Y713791D01*
X582050Y713885D01*
X581996Y713982D01*
X581946Y714080D01*
X581899Y714180D01*
X581855Y714281D01*
X581815Y714384D01*
X581779Y714489D01*
X581747Y714594D01*
X581718Y714701D01*
X581693Y714808D01*
X581671Y714917D01*
X581654Y715026D01*
X581640Y715135D01*
X581631Y715245D01*
X581625Y715356D01*
X581623Y715466D01*
X582597Y713194D02*
X588114Y706703D01*
X581623Y706703D01*
D12*
X312980Y709090D02*
X312980Y670650D01*
X295200Y670650D01*
X295200Y709090D01*
X312980Y709090D01*
D10*
X287520Y707947D02*
X287520Y696263D01*
X287520Y707947D02*
X284275Y707947D01*
X284162Y707945D01*
X284049Y707939D01*
X283936Y707929D01*
X283823Y707915D01*
X283711Y707898D01*
X283600Y707876D01*
X283490Y707851D01*
X283380Y707821D01*
X283272Y707788D01*
X283165Y707751D01*
X283059Y707711D01*
X282955Y707666D01*
X282852Y707618D01*
X282751Y707567D01*
X282652Y707512D01*
X282555Y707454D01*
X282460Y707392D01*
X282367Y707327D01*
X282277Y707259D01*
X282189Y707188D01*
X282103Y707113D01*
X282020Y707036D01*
X281940Y706956D01*
X281863Y706873D01*
X281788Y706787D01*
X281717Y706699D01*
X281649Y706609D01*
X281584Y706516D01*
X281522Y706421D01*
X281464Y706324D01*
X281409Y706225D01*
X281358Y706124D01*
X281310Y706021D01*
X281265Y705917D01*
X281225Y705811D01*
X281188Y705704D01*
X281155Y705596D01*
X281125Y705486D01*
X281100Y705376D01*
X281078Y705265D01*
X281061Y705153D01*
X281047Y705040D01*
X281037Y704927D01*
X281031Y704814D01*
X281029Y704701D01*
X281031Y704588D01*
X281037Y704475D01*
X281047Y704362D01*
X281061Y704249D01*
X281078Y704137D01*
X281100Y704026D01*
X281125Y703916D01*
X281155Y703806D01*
X281188Y703698D01*
X281225Y703591D01*
X281265Y703485D01*
X281310Y703381D01*
X281358Y703278D01*
X281409Y703177D01*
X281464Y703078D01*
X281522Y702981D01*
X281584Y702886D01*
X281649Y702793D01*
X281717Y702703D01*
X281788Y702615D01*
X281863Y702529D01*
X281940Y702446D01*
X282020Y702366D01*
X282103Y702289D01*
X282189Y702214D01*
X282277Y702143D01*
X282367Y702075D01*
X282460Y702010D01*
X282555Y701948D01*
X282652Y701890D01*
X282751Y701835D01*
X282852Y701784D01*
X282955Y701736D01*
X283059Y701691D01*
X283165Y701651D01*
X283272Y701614D01*
X283380Y701581D01*
X283490Y701551D01*
X283600Y701526D01*
X283711Y701504D01*
X283823Y701487D01*
X283936Y701473D01*
X284049Y701463D01*
X284162Y701457D01*
X284275Y701455D01*
X284275Y701456D02*
X287520Y701456D01*
X283626Y701456D02*
X281029Y696263D01*
X276164Y696263D02*
X272919Y696263D01*
X272806Y696265D01*
X272693Y696271D01*
X272580Y696281D01*
X272467Y696295D01*
X272355Y696312D01*
X272244Y696334D01*
X272134Y696359D01*
X272024Y696389D01*
X271916Y696422D01*
X271809Y696459D01*
X271703Y696499D01*
X271599Y696544D01*
X271496Y696592D01*
X271395Y696643D01*
X271296Y696698D01*
X271199Y696756D01*
X271104Y696818D01*
X271011Y696883D01*
X270921Y696951D01*
X270833Y697022D01*
X270747Y697097D01*
X270664Y697174D01*
X270584Y697254D01*
X270507Y697337D01*
X270432Y697423D01*
X270361Y697511D01*
X270293Y697601D01*
X270228Y697694D01*
X270166Y697789D01*
X270108Y697886D01*
X270053Y697985D01*
X270002Y698086D01*
X269954Y698189D01*
X269909Y698293D01*
X269869Y698399D01*
X269832Y698506D01*
X269799Y698614D01*
X269769Y698724D01*
X269744Y698834D01*
X269722Y698945D01*
X269705Y699057D01*
X269691Y699170D01*
X269681Y699283D01*
X269675Y699396D01*
X269673Y699509D01*
X269675Y699622D01*
X269681Y699735D01*
X269691Y699848D01*
X269705Y699961D01*
X269722Y700073D01*
X269744Y700184D01*
X269769Y700294D01*
X269799Y700404D01*
X269832Y700512D01*
X269869Y700619D01*
X269909Y700725D01*
X269954Y700829D01*
X270002Y700932D01*
X270053Y701033D01*
X270108Y701132D01*
X270166Y701229D01*
X270228Y701324D01*
X270293Y701417D01*
X270361Y701507D01*
X270432Y701595D01*
X270507Y701681D01*
X270584Y701764D01*
X270664Y701844D01*
X270747Y701921D01*
X270833Y701996D01*
X270921Y702067D01*
X271011Y702135D01*
X271104Y702200D01*
X271199Y702262D01*
X271296Y702320D01*
X271395Y702375D01*
X271496Y702426D01*
X271599Y702474D01*
X271703Y702519D01*
X271809Y702559D01*
X271916Y702596D01*
X272024Y702629D01*
X272134Y702659D01*
X272244Y702684D01*
X272355Y702706D01*
X272467Y702723D01*
X272580Y702737D01*
X272693Y702747D01*
X272806Y702753D01*
X272919Y702755D01*
X272269Y707947D02*
X276164Y707947D01*
X272269Y707947D02*
X272168Y707945D01*
X272068Y707939D01*
X271968Y707929D01*
X271868Y707916D01*
X271769Y707898D01*
X271670Y707877D01*
X271573Y707852D01*
X271476Y707823D01*
X271381Y707790D01*
X271287Y707754D01*
X271195Y707714D01*
X271104Y707671D01*
X271015Y707624D01*
X270928Y707574D01*
X270842Y707520D01*
X270759Y707463D01*
X270679Y707403D01*
X270600Y707340D01*
X270524Y707273D01*
X270451Y707204D01*
X270381Y707132D01*
X270313Y707058D01*
X270248Y706981D01*
X270187Y706901D01*
X270128Y706819D01*
X270073Y706735D01*
X270021Y706649D01*
X269972Y706561D01*
X269927Y706471D01*
X269885Y706379D01*
X269847Y706286D01*
X269813Y706191D01*
X269782Y706096D01*
X269755Y705999D01*
X269732Y705901D01*
X269712Y705802D01*
X269697Y705702D01*
X269685Y705602D01*
X269677Y705502D01*
X269673Y705401D01*
X269673Y705301D01*
X269677Y705200D01*
X269685Y705100D01*
X269697Y705000D01*
X269712Y704900D01*
X269732Y704801D01*
X269755Y704703D01*
X269782Y704606D01*
X269813Y704511D01*
X269847Y704416D01*
X269885Y704323D01*
X269927Y704231D01*
X269972Y704141D01*
X270021Y704053D01*
X270073Y703967D01*
X270128Y703883D01*
X270187Y703801D01*
X270248Y703721D01*
X270313Y703644D01*
X270381Y703570D01*
X270451Y703498D01*
X270524Y703429D01*
X270600Y703362D01*
X270679Y703299D01*
X270759Y703239D01*
X270842Y703182D01*
X270928Y703128D01*
X271015Y703078D01*
X271104Y703031D01*
X271195Y702988D01*
X271287Y702948D01*
X271381Y702912D01*
X271476Y702879D01*
X271573Y702850D01*
X271670Y702825D01*
X271769Y702804D01*
X271868Y702786D01*
X271968Y702773D01*
X272068Y702763D01*
X272168Y702757D01*
X272269Y702755D01*
X272269Y702754D02*
X274866Y702754D01*
D12*
X543650Y902410D02*
X582090Y902410D01*
X543650Y902410D02*
X543650Y920190D01*
X582090Y920190D01*
X582090Y902410D01*
D10*
X561370Y922603D02*
X561370Y934287D01*
X558125Y934287D01*
X558012Y934285D01*
X557899Y934279D01*
X557786Y934269D01*
X557673Y934255D01*
X557561Y934238D01*
X557450Y934216D01*
X557340Y934191D01*
X557230Y934161D01*
X557122Y934128D01*
X557015Y934091D01*
X556909Y934051D01*
X556805Y934006D01*
X556702Y933958D01*
X556601Y933907D01*
X556502Y933852D01*
X556405Y933794D01*
X556310Y933732D01*
X556217Y933667D01*
X556127Y933599D01*
X556039Y933528D01*
X555953Y933453D01*
X555870Y933376D01*
X555790Y933296D01*
X555713Y933213D01*
X555638Y933127D01*
X555567Y933039D01*
X555499Y932949D01*
X555434Y932856D01*
X555372Y932761D01*
X555314Y932664D01*
X555259Y932565D01*
X555208Y932464D01*
X555160Y932361D01*
X555115Y932257D01*
X555075Y932151D01*
X555038Y932044D01*
X555005Y931936D01*
X554975Y931826D01*
X554950Y931716D01*
X554928Y931605D01*
X554911Y931493D01*
X554897Y931380D01*
X554887Y931267D01*
X554881Y931154D01*
X554879Y931041D01*
X554881Y930928D01*
X554887Y930815D01*
X554897Y930702D01*
X554911Y930589D01*
X554928Y930477D01*
X554950Y930366D01*
X554975Y930256D01*
X555005Y930146D01*
X555038Y930038D01*
X555075Y929931D01*
X555115Y929825D01*
X555160Y929721D01*
X555208Y929618D01*
X555259Y929517D01*
X555314Y929418D01*
X555372Y929321D01*
X555434Y929226D01*
X555499Y929133D01*
X555567Y929043D01*
X555638Y928955D01*
X555713Y928869D01*
X555790Y928786D01*
X555870Y928706D01*
X555953Y928629D01*
X556039Y928554D01*
X556127Y928483D01*
X556217Y928415D01*
X556310Y928350D01*
X556405Y928288D01*
X556502Y928230D01*
X556601Y928175D01*
X556702Y928124D01*
X556805Y928076D01*
X556909Y928031D01*
X557015Y927991D01*
X557122Y927954D01*
X557230Y927921D01*
X557340Y927891D01*
X557450Y927866D01*
X557561Y927844D01*
X557673Y927827D01*
X557786Y927813D01*
X557899Y927803D01*
X558012Y927797D01*
X558125Y927795D01*
X558125Y927796D02*
X561370Y927796D01*
X557476Y927796D02*
X554879Y922603D01*
X550014Y925199D02*
X547418Y934287D01*
X550014Y925199D02*
X543523Y925199D01*
X545470Y927796D02*
X545470Y922603D01*
D12*
X508710Y1221310D02*
X508710Y1259750D01*
X526490Y1259750D01*
X526490Y1221310D01*
X508710Y1221310D01*
D10*
X526430Y1262163D02*
X526430Y1273847D01*
X523185Y1273847D01*
X523072Y1273845D01*
X522959Y1273839D01*
X522846Y1273829D01*
X522733Y1273815D01*
X522621Y1273798D01*
X522510Y1273776D01*
X522400Y1273751D01*
X522290Y1273721D01*
X522182Y1273688D01*
X522075Y1273651D01*
X521969Y1273611D01*
X521865Y1273566D01*
X521762Y1273518D01*
X521661Y1273467D01*
X521562Y1273412D01*
X521465Y1273354D01*
X521370Y1273292D01*
X521277Y1273227D01*
X521187Y1273159D01*
X521099Y1273088D01*
X521013Y1273013D01*
X520930Y1272936D01*
X520850Y1272856D01*
X520773Y1272773D01*
X520698Y1272687D01*
X520627Y1272599D01*
X520559Y1272509D01*
X520494Y1272416D01*
X520432Y1272321D01*
X520374Y1272224D01*
X520319Y1272125D01*
X520268Y1272024D01*
X520220Y1271921D01*
X520175Y1271817D01*
X520135Y1271711D01*
X520098Y1271604D01*
X520065Y1271496D01*
X520035Y1271386D01*
X520010Y1271276D01*
X519988Y1271165D01*
X519971Y1271053D01*
X519957Y1270940D01*
X519947Y1270827D01*
X519941Y1270714D01*
X519939Y1270601D01*
X519941Y1270488D01*
X519947Y1270375D01*
X519957Y1270262D01*
X519971Y1270149D01*
X519988Y1270037D01*
X520010Y1269926D01*
X520035Y1269816D01*
X520065Y1269706D01*
X520098Y1269598D01*
X520135Y1269491D01*
X520175Y1269385D01*
X520220Y1269281D01*
X520268Y1269178D01*
X520319Y1269077D01*
X520374Y1268978D01*
X520432Y1268881D01*
X520494Y1268786D01*
X520559Y1268693D01*
X520627Y1268603D01*
X520698Y1268515D01*
X520773Y1268429D01*
X520850Y1268346D01*
X520930Y1268266D01*
X521013Y1268189D01*
X521099Y1268114D01*
X521187Y1268043D01*
X521277Y1267975D01*
X521370Y1267910D01*
X521465Y1267848D01*
X521562Y1267790D01*
X521661Y1267735D01*
X521762Y1267684D01*
X521865Y1267636D01*
X521969Y1267591D01*
X522075Y1267551D01*
X522182Y1267514D01*
X522290Y1267481D01*
X522400Y1267451D01*
X522510Y1267426D01*
X522621Y1267404D01*
X522733Y1267387D01*
X522846Y1267373D01*
X522959Y1267363D01*
X523072Y1267357D01*
X523185Y1267355D01*
X523185Y1267356D02*
X526430Y1267356D01*
X522536Y1267356D02*
X519939Y1262163D01*
X515074Y1262163D02*
X511179Y1262163D01*
X511080Y1262165D01*
X510980Y1262171D01*
X510881Y1262180D01*
X510783Y1262193D01*
X510685Y1262210D01*
X510587Y1262231D01*
X510491Y1262256D01*
X510396Y1262284D01*
X510302Y1262316D01*
X510209Y1262351D01*
X510117Y1262390D01*
X510027Y1262433D01*
X509939Y1262478D01*
X509852Y1262528D01*
X509768Y1262580D01*
X509685Y1262636D01*
X509605Y1262694D01*
X509527Y1262756D01*
X509452Y1262821D01*
X509379Y1262889D01*
X509309Y1262959D01*
X509241Y1263032D01*
X509176Y1263107D01*
X509114Y1263185D01*
X509056Y1263265D01*
X509000Y1263348D01*
X508948Y1263432D01*
X508898Y1263519D01*
X508853Y1263607D01*
X508810Y1263697D01*
X508771Y1263789D01*
X508736Y1263882D01*
X508704Y1263976D01*
X508676Y1264071D01*
X508651Y1264167D01*
X508630Y1264265D01*
X508613Y1264363D01*
X508600Y1264461D01*
X508591Y1264560D01*
X508585Y1264660D01*
X508583Y1264759D01*
X508583Y1266058D01*
X508585Y1266157D01*
X508591Y1266257D01*
X508600Y1266356D01*
X508613Y1266454D01*
X508630Y1266552D01*
X508651Y1266650D01*
X508676Y1266746D01*
X508704Y1266841D01*
X508736Y1266935D01*
X508771Y1267028D01*
X508810Y1267120D01*
X508853Y1267210D01*
X508898Y1267298D01*
X508948Y1267385D01*
X509000Y1267469D01*
X509056Y1267552D01*
X509114Y1267632D01*
X509176Y1267710D01*
X509241Y1267785D01*
X509309Y1267858D01*
X509379Y1267928D01*
X509452Y1267996D01*
X509527Y1268061D01*
X509605Y1268123D01*
X509685Y1268181D01*
X509768Y1268237D01*
X509852Y1268289D01*
X509939Y1268339D01*
X510027Y1268384D01*
X510117Y1268427D01*
X510209Y1268466D01*
X510302Y1268501D01*
X510396Y1268533D01*
X510491Y1268561D01*
X510587Y1268586D01*
X510685Y1268607D01*
X510783Y1268624D01*
X510881Y1268637D01*
X510980Y1268646D01*
X511080Y1268652D01*
X511179Y1268654D01*
X515074Y1268654D01*
X515074Y1273847D01*
X508583Y1273847D01*
D12*
X367590Y1191690D02*
X367590Y1153250D01*
X349810Y1153250D01*
X349810Y1191690D01*
X367590Y1191690D01*
D10*
X367530Y1199183D02*
X367530Y1210867D01*
X364285Y1210867D01*
X364172Y1210865D01*
X364059Y1210859D01*
X363946Y1210849D01*
X363833Y1210835D01*
X363721Y1210818D01*
X363610Y1210796D01*
X363500Y1210771D01*
X363390Y1210741D01*
X363282Y1210708D01*
X363175Y1210671D01*
X363069Y1210631D01*
X362965Y1210586D01*
X362862Y1210538D01*
X362761Y1210487D01*
X362662Y1210432D01*
X362565Y1210374D01*
X362470Y1210312D01*
X362377Y1210247D01*
X362287Y1210179D01*
X362199Y1210108D01*
X362113Y1210033D01*
X362030Y1209956D01*
X361950Y1209876D01*
X361873Y1209793D01*
X361798Y1209707D01*
X361727Y1209619D01*
X361659Y1209529D01*
X361594Y1209436D01*
X361532Y1209341D01*
X361474Y1209244D01*
X361419Y1209145D01*
X361368Y1209044D01*
X361320Y1208941D01*
X361275Y1208837D01*
X361235Y1208731D01*
X361198Y1208624D01*
X361165Y1208516D01*
X361135Y1208406D01*
X361110Y1208296D01*
X361088Y1208185D01*
X361071Y1208073D01*
X361057Y1207960D01*
X361047Y1207847D01*
X361041Y1207734D01*
X361039Y1207621D01*
X361041Y1207508D01*
X361047Y1207395D01*
X361057Y1207282D01*
X361071Y1207169D01*
X361088Y1207057D01*
X361110Y1206946D01*
X361135Y1206836D01*
X361165Y1206726D01*
X361198Y1206618D01*
X361235Y1206511D01*
X361275Y1206405D01*
X361320Y1206301D01*
X361368Y1206198D01*
X361419Y1206097D01*
X361474Y1205998D01*
X361532Y1205901D01*
X361594Y1205806D01*
X361659Y1205713D01*
X361727Y1205623D01*
X361798Y1205535D01*
X361873Y1205449D01*
X361950Y1205366D01*
X362030Y1205286D01*
X362113Y1205209D01*
X362199Y1205134D01*
X362287Y1205063D01*
X362377Y1204995D01*
X362470Y1204930D01*
X362565Y1204868D01*
X362662Y1204810D01*
X362761Y1204755D01*
X362862Y1204704D01*
X362965Y1204656D01*
X363069Y1204611D01*
X363175Y1204571D01*
X363282Y1204534D01*
X363390Y1204501D01*
X363500Y1204471D01*
X363610Y1204446D01*
X363721Y1204424D01*
X363833Y1204407D01*
X363946Y1204393D01*
X364059Y1204383D01*
X364172Y1204377D01*
X364285Y1204375D01*
X364285Y1204376D02*
X367530Y1204376D01*
X363636Y1204376D02*
X361039Y1199183D01*
X356174Y1205674D02*
X352279Y1205674D01*
X352180Y1205672D01*
X352080Y1205666D01*
X351981Y1205657D01*
X351883Y1205644D01*
X351785Y1205627D01*
X351687Y1205606D01*
X351591Y1205581D01*
X351496Y1205553D01*
X351402Y1205521D01*
X351309Y1205486D01*
X351217Y1205447D01*
X351127Y1205404D01*
X351039Y1205359D01*
X350952Y1205309D01*
X350868Y1205257D01*
X350785Y1205201D01*
X350705Y1205143D01*
X350627Y1205081D01*
X350552Y1205016D01*
X350479Y1204948D01*
X350409Y1204878D01*
X350341Y1204805D01*
X350276Y1204730D01*
X350214Y1204652D01*
X350156Y1204572D01*
X350100Y1204489D01*
X350048Y1204405D01*
X349998Y1204318D01*
X349953Y1204230D01*
X349910Y1204140D01*
X349871Y1204048D01*
X349836Y1203955D01*
X349804Y1203861D01*
X349776Y1203766D01*
X349751Y1203670D01*
X349730Y1203572D01*
X349713Y1203474D01*
X349700Y1203376D01*
X349691Y1203277D01*
X349685Y1203177D01*
X349683Y1203078D01*
X349683Y1202429D01*
X349685Y1202316D01*
X349691Y1202203D01*
X349701Y1202090D01*
X349715Y1201977D01*
X349732Y1201865D01*
X349754Y1201754D01*
X349779Y1201644D01*
X349809Y1201534D01*
X349842Y1201426D01*
X349879Y1201319D01*
X349919Y1201213D01*
X349964Y1201109D01*
X350012Y1201006D01*
X350063Y1200905D01*
X350118Y1200806D01*
X350176Y1200709D01*
X350238Y1200614D01*
X350303Y1200521D01*
X350371Y1200431D01*
X350442Y1200343D01*
X350517Y1200257D01*
X350594Y1200174D01*
X350674Y1200094D01*
X350757Y1200017D01*
X350843Y1199942D01*
X350931Y1199871D01*
X351021Y1199803D01*
X351114Y1199738D01*
X351209Y1199676D01*
X351306Y1199618D01*
X351405Y1199563D01*
X351506Y1199512D01*
X351609Y1199464D01*
X351713Y1199419D01*
X351819Y1199379D01*
X351926Y1199342D01*
X352034Y1199309D01*
X352144Y1199279D01*
X352254Y1199254D01*
X352365Y1199232D01*
X352477Y1199215D01*
X352590Y1199201D01*
X352703Y1199191D01*
X352816Y1199185D01*
X352929Y1199183D01*
X353042Y1199185D01*
X353155Y1199191D01*
X353268Y1199201D01*
X353381Y1199215D01*
X353493Y1199232D01*
X353604Y1199254D01*
X353714Y1199279D01*
X353824Y1199309D01*
X353932Y1199342D01*
X354039Y1199379D01*
X354145Y1199419D01*
X354249Y1199464D01*
X354352Y1199512D01*
X354453Y1199563D01*
X354552Y1199618D01*
X354649Y1199676D01*
X354744Y1199738D01*
X354837Y1199803D01*
X354927Y1199871D01*
X355015Y1199942D01*
X355101Y1200017D01*
X355184Y1200094D01*
X355264Y1200174D01*
X355341Y1200257D01*
X355416Y1200343D01*
X355487Y1200431D01*
X355555Y1200521D01*
X355620Y1200614D01*
X355682Y1200709D01*
X355740Y1200806D01*
X355795Y1200905D01*
X355846Y1201006D01*
X355894Y1201109D01*
X355939Y1201213D01*
X355979Y1201319D01*
X356016Y1201426D01*
X356049Y1201534D01*
X356079Y1201644D01*
X356104Y1201754D01*
X356126Y1201865D01*
X356143Y1201977D01*
X356157Y1202090D01*
X356167Y1202203D01*
X356173Y1202316D01*
X356175Y1202429D01*
X356174Y1202429D02*
X356174Y1205674D01*
X356172Y1205817D01*
X356166Y1205960D01*
X356156Y1206103D01*
X356142Y1206245D01*
X356125Y1206387D01*
X356103Y1206529D01*
X356078Y1206670D01*
X356048Y1206810D01*
X356015Y1206949D01*
X355978Y1207087D01*
X355937Y1207224D01*
X355893Y1207360D01*
X355844Y1207495D01*
X355792Y1207628D01*
X355737Y1207760D01*
X355677Y1207890D01*
X355614Y1208019D01*
X355548Y1208146D01*
X355478Y1208271D01*
X355405Y1208393D01*
X355328Y1208514D01*
X355248Y1208633D01*
X355165Y1208749D01*
X355079Y1208864D01*
X354990Y1208975D01*
X354897Y1209085D01*
X354802Y1209191D01*
X354703Y1209295D01*
X354602Y1209396D01*
X354498Y1209495D01*
X354392Y1209590D01*
X354282Y1209683D01*
X354171Y1209772D01*
X354056Y1209858D01*
X353940Y1209941D01*
X353821Y1210021D01*
X353700Y1210098D01*
X353578Y1210171D01*
X353453Y1210241D01*
X353326Y1210307D01*
X353197Y1210370D01*
X353067Y1210430D01*
X352935Y1210485D01*
X352802Y1210537D01*
X352667Y1210586D01*
X352531Y1210630D01*
X352394Y1210671D01*
X352256Y1210708D01*
X352117Y1210741D01*
X351977Y1210771D01*
X351836Y1210796D01*
X351694Y1210818D01*
X351552Y1210835D01*
X351410Y1210849D01*
X351267Y1210859D01*
X351124Y1210865D01*
X350981Y1210867D01*
D12*
X559510Y510450D02*
X559510Y472010D01*
X559510Y510450D02*
X577290Y510450D01*
X577290Y472010D01*
X559510Y472010D01*
D10*
X577230Y512863D02*
X577230Y524547D01*
X573985Y524547D01*
X573872Y524545D01*
X573759Y524539D01*
X573646Y524529D01*
X573533Y524515D01*
X573421Y524498D01*
X573310Y524476D01*
X573200Y524451D01*
X573090Y524421D01*
X572982Y524388D01*
X572875Y524351D01*
X572769Y524311D01*
X572665Y524266D01*
X572562Y524218D01*
X572461Y524167D01*
X572362Y524112D01*
X572265Y524054D01*
X572170Y523992D01*
X572077Y523927D01*
X571987Y523859D01*
X571899Y523788D01*
X571813Y523713D01*
X571730Y523636D01*
X571650Y523556D01*
X571573Y523473D01*
X571498Y523387D01*
X571427Y523299D01*
X571359Y523209D01*
X571294Y523116D01*
X571232Y523021D01*
X571174Y522924D01*
X571119Y522825D01*
X571068Y522724D01*
X571020Y522621D01*
X570975Y522517D01*
X570935Y522411D01*
X570898Y522304D01*
X570865Y522196D01*
X570835Y522086D01*
X570810Y521976D01*
X570788Y521865D01*
X570771Y521753D01*
X570757Y521640D01*
X570747Y521527D01*
X570741Y521414D01*
X570739Y521301D01*
X570741Y521188D01*
X570747Y521075D01*
X570757Y520962D01*
X570771Y520849D01*
X570788Y520737D01*
X570810Y520626D01*
X570835Y520516D01*
X570865Y520406D01*
X570898Y520298D01*
X570935Y520191D01*
X570975Y520085D01*
X571020Y519981D01*
X571068Y519878D01*
X571119Y519777D01*
X571174Y519678D01*
X571232Y519581D01*
X571294Y519486D01*
X571359Y519393D01*
X571427Y519303D01*
X571498Y519215D01*
X571573Y519129D01*
X571650Y519046D01*
X571730Y518966D01*
X571813Y518889D01*
X571899Y518814D01*
X571987Y518743D01*
X572077Y518675D01*
X572170Y518610D01*
X572265Y518548D01*
X572362Y518490D01*
X572461Y518435D01*
X572562Y518384D01*
X572665Y518336D01*
X572769Y518291D01*
X572875Y518251D01*
X572982Y518214D01*
X573090Y518181D01*
X573200Y518151D01*
X573310Y518126D01*
X573421Y518104D01*
X573533Y518087D01*
X573646Y518073D01*
X573759Y518063D01*
X573872Y518057D01*
X573985Y518055D01*
X573985Y518056D02*
X577230Y518056D01*
X573336Y518056D02*
X570739Y512863D01*
X565874Y523249D02*
X565874Y524547D01*
X559383Y524547D01*
X562629Y512863D01*
D12*
X91350Y278690D02*
X52910Y278690D01*
X91350Y278690D02*
X91350Y260910D01*
X52910Y260910D01*
X52910Y278690D01*
D10*
X70630Y281103D02*
X70630Y292787D01*
X67385Y292787D01*
X67272Y292785D01*
X67159Y292779D01*
X67046Y292769D01*
X66933Y292755D01*
X66821Y292738D01*
X66710Y292716D01*
X66600Y292691D01*
X66490Y292661D01*
X66382Y292628D01*
X66275Y292591D01*
X66169Y292551D01*
X66065Y292506D01*
X65962Y292458D01*
X65861Y292407D01*
X65762Y292352D01*
X65665Y292294D01*
X65570Y292232D01*
X65477Y292167D01*
X65387Y292099D01*
X65299Y292028D01*
X65213Y291953D01*
X65130Y291876D01*
X65050Y291796D01*
X64973Y291713D01*
X64898Y291627D01*
X64827Y291539D01*
X64759Y291449D01*
X64694Y291356D01*
X64632Y291261D01*
X64574Y291164D01*
X64519Y291065D01*
X64468Y290964D01*
X64420Y290861D01*
X64375Y290757D01*
X64335Y290651D01*
X64298Y290544D01*
X64265Y290436D01*
X64235Y290326D01*
X64210Y290216D01*
X64188Y290105D01*
X64171Y289993D01*
X64157Y289880D01*
X64147Y289767D01*
X64141Y289654D01*
X64139Y289541D01*
X64141Y289428D01*
X64147Y289315D01*
X64157Y289202D01*
X64171Y289089D01*
X64188Y288977D01*
X64210Y288866D01*
X64235Y288756D01*
X64265Y288646D01*
X64298Y288538D01*
X64335Y288431D01*
X64375Y288325D01*
X64420Y288221D01*
X64468Y288118D01*
X64519Y288017D01*
X64574Y287918D01*
X64632Y287821D01*
X64694Y287726D01*
X64759Y287633D01*
X64827Y287543D01*
X64898Y287455D01*
X64973Y287369D01*
X65050Y287286D01*
X65130Y287206D01*
X65213Y287129D01*
X65299Y287054D01*
X65387Y286983D01*
X65477Y286915D01*
X65570Y286850D01*
X65665Y286788D01*
X65762Y286730D01*
X65861Y286675D01*
X65962Y286624D01*
X66065Y286576D01*
X66169Y286531D01*
X66275Y286491D01*
X66382Y286454D01*
X66490Y286421D01*
X66600Y286391D01*
X66710Y286366D01*
X66821Y286344D01*
X66933Y286327D01*
X67046Y286313D01*
X67159Y286303D01*
X67272Y286297D01*
X67385Y286295D01*
X67385Y286296D02*
X70630Y286296D01*
X66736Y286296D02*
X64139Y281103D01*
X59275Y284349D02*
X59273Y284462D01*
X59267Y284575D01*
X59257Y284688D01*
X59243Y284801D01*
X59226Y284913D01*
X59204Y285024D01*
X59179Y285134D01*
X59149Y285244D01*
X59116Y285352D01*
X59079Y285459D01*
X59039Y285565D01*
X58994Y285669D01*
X58946Y285772D01*
X58895Y285873D01*
X58840Y285972D01*
X58782Y286069D01*
X58720Y286164D01*
X58655Y286257D01*
X58587Y286347D01*
X58516Y286435D01*
X58441Y286521D01*
X58364Y286604D01*
X58284Y286684D01*
X58201Y286761D01*
X58115Y286836D01*
X58027Y286907D01*
X57937Y286975D01*
X57844Y287040D01*
X57749Y287102D01*
X57652Y287160D01*
X57553Y287215D01*
X57452Y287266D01*
X57349Y287314D01*
X57245Y287359D01*
X57139Y287399D01*
X57032Y287436D01*
X56924Y287469D01*
X56814Y287499D01*
X56704Y287524D01*
X56593Y287546D01*
X56481Y287563D01*
X56368Y287577D01*
X56255Y287587D01*
X56142Y287593D01*
X56029Y287595D01*
X55916Y287593D01*
X55803Y287587D01*
X55690Y287577D01*
X55577Y287563D01*
X55465Y287546D01*
X55354Y287524D01*
X55244Y287499D01*
X55134Y287469D01*
X55026Y287436D01*
X54919Y287399D01*
X54813Y287359D01*
X54709Y287314D01*
X54606Y287266D01*
X54505Y287215D01*
X54406Y287160D01*
X54309Y287102D01*
X54214Y287040D01*
X54121Y286975D01*
X54031Y286907D01*
X53943Y286836D01*
X53857Y286761D01*
X53774Y286684D01*
X53694Y286604D01*
X53617Y286521D01*
X53542Y286435D01*
X53471Y286347D01*
X53403Y286257D01*
X53338Y286164D01*
X53276Y286069D01*
X53218Y285972D01*
X53163Y285873D01*
X53112Y285772D01*
X53064Y285669D01*
X53019Y285565D01*
X52979Y285459D01*
X52942Y285352D01*
X52909Y285244D01*
X52879Y285134D01*
X52854Y285024D01*
X52832Y284913D01*
X52815Y284801D01*
X52801Y284688D01*
X52791Y284575D01*
X52785Y284462D01*
X52783Y284349D01*
X52785Y284236D01*
X52791Y284123D01*
X52801Y284010D01*
X52815Y283897D01*
X52832Y283785D01*
X52854Y283674D01*
X52879Y283564D01*
X52909Y283454D01*
X52942Y283346D01*
X52979Y283239D01*
X53019Y283133D01*
X53064Y283029D01*
X53112Y282926D01*
X53163Y282825D01*
X53218Y282726D01*
X53276Y282629D01*
X53338Y282534D01*
X53403Y282441D01*
X53471Y282351D01*
X53542Y282263D01*
X53617Y282177D01*
X53694Y282094D01*
X53774Y282014D01*
X53857Y281937D01*
X53943Y281862D01*
X54031Y281791D01*
X54121Y281723D01*
X54214Y281658D01*
X54309Y281596D01*
X54406Y281538D01*
X54505Y281483D01*
X54606Y281432D01*
X54709Y281384D01*
X54813Y281339D01*
X54919Y281299D01*
X55026Y281262D01*
X55134Y281229D01*
X55244Y281199D01*
X55354Y281174D01*
X55465Y281152D01*
X55577Y281135D01*
X55690Y281121D01*
X55803Y281111D01*
X55916Y281105D01*
X56029Y281103D01*
X56142Y281105D01*
X56255Y281111D01*
X56368Y281121D01*
X56481Y281135D01*
X56593Y281152D01*
X56704Y281174D01*
X56814Y281199D01*
X56924Y281229D01*
X57032Y281262D01*
X57139Y281299D01*
X57245Y281339D01*
X57349Y281384D01*
X57452Y281432D01*
X57553Y281483D01*
X57652Y281538D01*
X57749Y281596D01*
X57844Y281658D01*
X57937Y281723D01*
X58027Y281791D01*
X58115Y281862D01*
X58201Y281937D01*
X58284Y282014D01*
X58364Y282094D01*
X58441Y282177D01*
X58516Y282263D01*
X58587Y282351D01*
X58655Y282441D01*
X58720Y282534D01*
X58782Y282629D01*
X58840Y282726D01*
X58895Y282825D01*
X58946Y282926D01*
X58994Y283029D01*
X59039Y283133D01*
X59079Y283239D01*
X59116Y283346D01*
X59149Y283454D01*
X59179Y283564D01*
X59204Y283674D01*
X59226Y283785D01*
X59243Y283897D01*
X59257Y284010D01*
X59267Y284123D01*
X59273Y284236D01*
X59275Y284349D01*
X58625Y290191D02*
X58623Y290292D01*
X58617Y290392D01*
X58607Y290492D01*
X58594Y290592D01*
X58576Y290691D01*
X58555Y290790D01*
X58530Y290887D01*
X58501Y290984D01*
X58468Y291079D01*
X58432Y291173D01*
X58392Y291265D01*
X58349Y291356D01*
X58302Y291445D01*
X58252Y291532D01*
X58198Y291618D01*
X58141Y291701D01*
X58081Y291781D01*
X58018Y291860D01*
X57951Y291936D01*
X57882Y292009D01*
X57810Y292079D01*
X57736Y292147D01*
X57659Y292212D01*
X57579Y292273D01*
X57497Y292332D01*
X57413Y292387D01*
X57327Y292439D01*
X57239Y292488D01*
X57149Y292533D01*
X57057Y292575D01*
X56964Y292613D01*
X56869Y292647D01*
X56774Y292678D01*
X56677Y292705D01*
X56579Y292728D01*
X56480Y292748D01*
X56380Y292763D01*
X56280Y292775D01*
X56180Y292783D01*
X56079Y292787D01*
X55979Y292787D01*
X55878Y292783D01*
X55778Y292775D01*
X55678Y292763D01*
X55578Y292748D01*
X55479Y292728D01*
X55381Y292705D01*
X55284Y292678D01*
X55189Y292647D01*
X55094Y292613D01*
X55001Y292575D01*
X54909Y292533D01*
X54819Y292488D01*
X54731Y292439D01*
X54645Y292387D01*
X54561Y292332D01*
X54479Y292273D01*
X54399Y292212D01*
X54322Y292147D01*
X54248Y292079D01*
X54176Y292009D01*
X54107Y291936D01*
X54040Y291860D01*
X53977Y291781D01*
X53917Y291701D01*
X53860Y291618D01*
X53806Y291532D01*
X53756Y291445D01*
X53709Y291356D01*
X53666Y291265D01*
X53626Y291173D01*
X53590Y291079D01*
X53557Y290984D01*
X53528Y290887D01*
X53503Y290790D01*
X53482Y290691D01*
X53464Y290592D01*
X53451Y290492D01*
X53441Y290392D01*
X53435Y290292D01*
X53433Y290191D01*
X53435Y290090D01*
X53441Y289990D01*
X53451Y289890D01*
X53464Y289790D01*
X53482Y289691D01*
X53503Y289592D01*
X53528Y289495D01*
X53557Y289398D01*
X53590Y289303D01*
X53626Y289209D01*
X53666Y289117D01*
X53709Y289026D01*
X53756Y288937D01*
X53806Y288850D01*
X53860Y288764D01*
X53917Y288681D01*
X53977Y288601D01*
X54040Y288522D01*
X54107Y288446D01*
X54176Y288373D01*
X54248Y288303D01*
X54322Y288235D01*
X54399Y288170D01*
X54479Y288109D01*
X54561Y288050D01*
X54645Y287995D01*
X54731Y287943D01*
X54819Y287894D01*
X54909Y287849D01*
X55001Y287807D01*
X55094Y287769D01*
X55189Y287735D01*
X55284Y287704D01*
X55381Y287677D01*
X55479Y287654D01*
X55578Y287634D01*
X55678Y287619D01*
X55778Y287607D01*
X55878Y287599D01*
X55979Y287595D01*
X56079Y287595D01*
X56180Y287599D01*
X56280Y287607D01*
X56380Y287619D01*
X56480Y287634D01*
X56579Y287654D01*
X56677Y287677D01*
X56774Y287704D01*
X56869Y287735D01*
X56964Y287769D01*
X57057Y287807D01*
X57149Y287849D01*
X57239Y287894D01*
X57327Y287943D01*
X57413Y287995D01*
X57497Y288050D01*
X57579Y288109D01*
X57659Y288170D01*
X57736Y288235D01*
X57810Y288303D01*
X57882Y288373D01*
X57951Y288446D01*
X58018Y288522D01*
X58081Y288601D01*
X58141Y288681D01*
X58198Y288764D01*
X58252Y288850D01*
X58302Y288937D01*
X58349Y289026D01*
X58392Y289117D01*
X58432Y289209D01*
X58468Y289303D01*
X58501Y289398D01*
X58530Y289495D01*
X58555Y289592D01*
X58576Y289691D01*
X58594Y289790D01*
X58607Y289890D01*
X58617Y289990D01*
X58623Y290090D01*
X58625Y290191D01*
D12*
X496010Y1043510D02*
X496010Y1081950D01*
X513790Y1081950D01*
X513790Y1043510D01*
X496010Y1043510D01*
D10*
X513730Y1089443D02*
X513730Y1101127D01*
X510485Y1101127D01*
X510372Y1101125D01*
X510259Y1101119D01*
X510146Y1101109D01*
X510033Y1101095D01*
X509921Y1101078D01*
X509810Y1101056D01*
X509700Y1101031D01*
X509590Y1101001D01*
X509482Y1100968D01*
X509375Y1100931D01*
X509269Y1100891D01*
X509165Y1100846D01*
X509062Y1100798D01*
X508961Y1100747D01*
X508862Y1100692D01*
X508765Y1100634D01*
X508670Y1100572D01*
X508577Y1100507D01*
X508487Y1100439D01*
X508399Y1100368D01*
X508313Y1100293D01*
X508230Y1100216D01*
X508150Y1100136D01*
X508073Y1100053D01*
X507998Y1099967D01*
X507927Y1099879D01*
X507859Y1099789D01*
X507794Y1099696D01*
X507732Y1099601D01*
X507674Y1099504D01*
X507619Y1099405D01*
X507568Y1099304D01*
X507520Y1099201D01*
X507475Y1099097D01*
X507435Y1098991D01*
X507398Y1098884D01*
X507365Y1098776D01*
X507335Y1098666D01*
X507310Y1098556D01*
X507288Y1098445D01*
X507271Y1098333D01*
X507257Y1098220D01*
X507247Y1098107D01*
X507241Y1097994D01*
X507239Y1097881D01*
X507241Y1097768D01*
X507247Y1097655D01*
X507257Y1097542D01*
X507271Y1097429D01*
X507288Y1097317D01*
X507310Y1097206D01*
X507335Y1097096D01*
X507365Y1096986D01*
X507398Y1096878D01*
X507435Y1096771D01*
X507475Y1096665D01*
X507520Y1096561D01*
X507568Y1096458D01*
X507619Y1096357D01*
X507674Y1096258D01*
X507732Y1096161D01*
X507794Y1096066D01*
X507859Y1095973D01*
X507927Y1095883D01*
X507998Y1095795D01*
X508073Y1095709D01*
X508150Y1095626D01*
X508230Y1095546D01*
X508313Y1095469D01*
X508399Y1095394D01*
X508487Y1095323D01*
X508577Y1095255D01*
X508670Y1095190D01*
X508765Y1095128D01*
X508862Y1095070D01*
X508961Y1095015D01*
X509062Y1094964D01*
X509165Y1094916D01*
X509269Y1094871D01*
X509375Y1094831D01*
X509482Y1094794D01*
X509590Y1094761D01*
X509700Y1094731D01*
X509810Y1094706D01*
X509921Y1094684D01*
X510033Y1094667D01*
X510146Y1094653D01*
X510259Y1094643D01*
X510372Y1094637D01*
X510485Y1094635D01*
X510485Y1094636D02*
X513730Y1094636D01*
X509836Y1094636D02*
X507239Y1089443D01*
X499778Y1094636D02*
X495883Y1094636D01*
X499778Y1094636D02*
X499877Y1094638D01*
X499977Y1094644D01*
X500076Y1094653D01*
X500174Y1094666D01*
X500272Y1094683D01*
X500370Y1094704D01*
X500466Y1094729D01*
X500561Y1094757D01*
X500655Y1094789D01*
X500748Y1094824D01*
X500840Y1094863D01*
X500930Y1094906D01*
X501018Y1094951D01*
X501105Y1095001D01*
X501189Y1095053D01*
X501272Y1095109D01*
X501352Y1095167D01*
X501430Y1095229D01*
X501505Y1095294D01*
X501578Y1095362D01*
X501648Y1095432D01*
X501716Y1095505D01*
X501781Y1095580D01*
X501843Y1095658D01*
X501901Y1095738D01*
X501957Y1095821D01*
X502009Y1095905D01*
X502059Y1095992D01*
X502104Y1096080D01*
X502147Y1096170D01*
X502186Y1096262D01*
X502221Y1096355D01*
X502253Y1096449D01*
X502281Y1096544D01*
X502306Y1096640D01*
X502327Y1096738D01*
X502344Y1096836D01*
X502357Y1096934D01*
X502366Y1097033D01*
X502372Y1097133D01*
X502374Y1097232D01*
X502374Y1097881D01*
X502375Y1097881D02*
X502373Y1097994D01*
X502367Y1098107D01*
X502357Y1098220D01*
X502343Y1098333D01*
X502326Y1098445D01*
X502304Y1098556D01*
X502279Y1098666D01*
X502249Y1098776D01*
X502216Y1098884D01*
X502179Y1098991D01*
X502139Y1099097D01*
X502094Y1099201D01*
X502046Y1099304D01*
X501995Y1099405D01*
X501940Y1099504D01*
X501882Y1099601D01*
X501820Y1099696D01*
X501755Y1099789D01*
X501687Y1099879D01*
X501616Y1099967D01*
X501541Y1100053D01*
X501464Y1100136D01*
X501384Y1100216D01*
X501301Y1100293D01*
X501215Y1100368D01*
X501127Y1100439D01*
X501037Y1100507D01*
X500944Y1100572D01*
X500849Y1100634D01*
X500752Y1100692D01*
X500653Y1100747D01*
X500552Y1100798D01*
X500449Y1100846D01*
X500345Y1100891D01*
X500239Y1100931D01*
X500132Y1100968D01*
X500024Y1101001D01*
X499914Y1101031D01*
X499804Y1101056D01*
X499693Y1101078D01*
X499581Y1101095D01*
X499468Y1101109D01*
X499355Y1101119D01*
X499242Y1101125D01*
X499129Y1101127D01*
X499016Y1101125D01*
X498903Y1101119D01*
X498790Y1101109D01*
X498677Y1101095D01*
X498565Y1101078D01*
X498454Y1101056D01*
X498344Y1101031D01*
X498234Y1101001D01*
X498126Y1100968D01*
X498019Y1100931D01*
X497913Y1100891D01*
X497809Y1100846D01*
X497706Y1100798D01*
X497605Y1100747D01*
X497506Y1100692D01*
X497409Y1100634D01*
X497314Y1100572D01*
X497221Y1100507D01*
X497131Y1100439D01*
X497043Y1100368D01*
X496957Y1100293D01*
X496874Y1100216D01*
X496794Y1100136D01*
X496717Y1100053D01*
X496642Y1099967D01*
X496571Y1099879D01*
X496503Y1099789D01*
X496438Y1099696D01*
X496376Y1099601D01*
X496318Y1099504D01*
X496263Y1099405D01*
X496212Y1099304D01*
X496164Y1099201D01*
X496119Y1099097D01*
X496079Y1098991D01*
X496042Y1098884D01*
X496009Y1098776D01*
X495979Y1098666D01*
X495954Y1098556D01*
X495932Y1098445D01*
X495915Y1098333D01*
X495901Y1098220D01*
X495891Y1098107D01*
X495885Y1097994D01*
X495883Y1097881D01*
X495883Y1094636D01*
X495885Y1094493D01*
X495891Y1094350D01*
X495901Y1094207D01*
X495915Y1094065D01*
X495932Y1093923D01*
X495954Y1093781D01*
X495979Y1093640D01*
X496009Y1093500D01*
X496042Y1093361D01*
X496079Y1093223D01*
X496120Y1093086D01*
X496164Y1092950D01*
X496213Y1092815D01*
X496265Y1092682D01*
X496320Y1092550D01*
X496380Y1092420D01*
X496443Y1092291D01*
X496509Y1092164D01*
X496579Y1092040D01*
X496652Y1091917D01*
X496729Y1091796D01*
X496809Y1091677D01*
X496892Y1091561D01*
X496978Y1091446D01*
X497067Y1091335D01*
X497160Y1091225D01*
X497255Y1091119D01*
X497354Y1091015D01*
X497455Y1090914D01*
X497559Y1090815D01*
X497665Y1090720D01*
X497775Y1090627D01*
X497886Y1090538D01*
X498001Y1090452D01*
X498117Y1090369D01*
X498236Y1090289D01*
X498357Y1090212D01*
X498479Y1090139D01*
X498604Y1090069D01*
X498731Y1090003D01*
X498860Y1089940D01*
X498990Y1089880D01*
X499122Y1089825D01*
X499255Y1089773D01*
X499390Y1089724D01*
X499526Y1089680D01*
X499663Y1089639D01*
X499801Y1089602D01*
X499940Y1089569D01*
X500080Y1089539D01*
X500221Y1089514D01*
X500363Y1089492D01*
X500505Y1089475D01*
X500647Y1089461D01*
X500790Y1089451D01*
X500933Y1089445D01*
X501076Y1089443D01*
M02*
