G04 EAGLE Gerber RS-274X export*
G75*
%MOMM*%
%FSLAX34Y34*%
%LPD*%
%INTop Copper*%
%IPPOS*%
%AMOC8*
5,1,8,0,0,1.08239X$1,22.5*%
G01*
%ADD10C,1.400000*%
%ADD11C,2.000000*%
%ADD12R,1.600000X1.600000*%
%ADD13C,1.600000*%
%ADD14C,1.676400*%
%ADD15C,0.254000*%
%ADD16C,5.500000*%


D10*
X622300Y990600D03*
X640261Y1008561D03*
X658221Y1026521D03*
X571500Y1041400D03*
X589461Y1059361D03*
X607421Y1077321D03*
X520700Y1092200D03*
X538661Y1110161D03*
X556621Y1128121D03*
D11*
X774700Y152400D03*
X825500Y152400D03*
X825500Y88900D03*
X774700Y88900D03*
D12*
X904240Y1480820D03*
D13*
X904240Y1455420D03*
X878840Y1480820D03*
X878840Y1455420D03*
X853440Y1480820D03*
X853440Y1455420D03*
X828040Y1480820D03*
X828040Y1455420D03*
X802640Y1480820D03*
X802640Y1455420D03*
X777240Y1480820D03*
X777240Y1455420D03*
X751840Y1480820D03*
X751840Y1455420D03*
X726440Y1480820D03*
X726440Y1455420D03*
X701040Y1480820D03*
X701040Y1455420D03*
X675640Y1480820D03*
X675640Y1455420D03*
D14*
X993292Y640289D02*
X1005146Y628435D01*
X987186Y610474D02*
X975332Y622328D01*
X957371Y604368D02*
X969225Y592514D01*
X655529Y604368D02*
X643675Y592514D01*
X625714Y610474D02*
X637568Y622328D01*
X619608Y640289D02*
X607754Y628435D01*
X964991Y995832D02*
X976845Y1007686D01*
X994806Y989726D02*
X982952Y977872D01*
X1000912Y959911D02*
X1012766Y971765D01*
D13*
X652780Y1305560D03*
D15*
X652780Y1353820D01*
D13*
X652780Y1353820D03*
X909320Y685800D03*
D15*
X1155700Y685800D01*
D13*
X1155700Y685800D03*
X762000Y1353820D03*
D15*
X952500Y1353820D01*
D13*
X952500Y1353820D03*
X939800Y708660D03*
D15*
X1125220Y708660D01*
D13*
X1125220Y708660D03*
X373380Y713740D03*
D15*
X261620Y713740D01*
D13*
X261620Y713740D03*
X853440Y1397000D03*
D15*
X922020Y1397000D01*
D13*
X922020Y1397000D03*
D16*
X250000Y1300000D03*
X1350000Y1300000D03*
X250000Y300000D03*
X1350000Y300000D03*
D13*
X701040Y444500D03*
X701040Y520700D03*
D15*
X701040Y444500D01*
D13*
X1244600Y878840D03*
D15*
X1348740Y878840D01*
D13*
X1348740Y878840D03*
X480060Y370840D03*
D15*
X480060Y314960D01*
D13*
X480060Y314960D03*
X850900Y1297940D03*
D15*
X850900Y1196340D01*
D13*
X850900Y1196340D03*
X1000760Y726440D03*
D15*
X1160780Y726440D01*
D13*
X1160780Y726440D03*
M02*
