G04 EAGLE Gerber RS-274X export*
G75*
%MOMM*%
%FSLAX34Y34*%
%LPD*%
%IN*%
%IPPOS*%
%AMOC8*
5,1,8,0,0,1.08239X$1,22.5*%
G01*
%ADD10C,0.254000*%


D10*
X1606226Y790106D02*
X1606226Y809894D01*
X1605740Y829677D01*
X1604769Y849442D01*
X1603313Y869177D01*
X1601374Y888871D01*
X1598951Y908511D01*
X1596048Y928085D01*
X1592665Y947583D01*
X1588804Y966991D01*
X1584468Y986299D01*
X1579660Y1005495D01*
X1574382Y1024567D01*
X1568638Y1043503D01*
X1562430Y1062293D01*
X1555764Y1080925D01*
X1548642Y1099388D01*
X1541069Y1117670D01*
X1533050Y1135762D01*
X1524589Y1153650D01*
X1515692Y1171326D01*
X1506363Y1188778D01*
X1496610Y1205996D01*
X1486436Y1222970D01*
X1475849Y1239688D01*
X1464855Y1256142D01*
X1453461Y1272321D01*
X1441673Y1288215D01*
X1429498Y1303816D01*
X1416944Y1319113D01*
X1404019Y1334097D01*
X1390729Y1348759D01*
X1377084Y1363091D01*
X1363091Y1377084D01*
X1348759Y1390729D01*
X1334097Y1404019D01*
X1319113Y1416944D01*
X1303816Y1429498D01*
X1288215Y1441673D01*
X1272321Y1453461D01*
X1256142Y1464855D01*
X1239688Y1475849D01*
X1222970Y1486436D01*
X1205996Y1496610D01*
X1188778Y1506363D01*
X1171326Y1515692D01*
X1153650Y1524589D01*
X1135762Y1533050D01*
X1117670Y1541069D01*
X1099388Y1548642D01*
X1080925Y1555764D01*
X1062293Y1562430D01*
X1043503Y1568638D01*
X1024567Y1574382D01*
X1005495Y1579660D01*
X986299Y1584468D01*
X966991Y1588804D01*
X947583Y1592665D01*
X928085Y1596048D01*
X908511Y1598951D01*
X888871Y1601374D01*
X869177Y1603313D01*
X849442Y1604769D01*
X829677Y1605740D01*
X809894Y1606226D01*
X790106Y1606226D01*
X770323Y1605740D01*
X750558Y1604769D01*
X730823Y1603313D01*
X711129Y1601374D01*
X691489Y1598951D01*
X671915Y1596048D01*
X652417Y1592665D01*
X633009Y1588804D01*
X613701Y1584468D01*
X594505Y1579660D01*
X575433Y1574382D01*
X556497Y1568638D01*
X537707Y1562430D01*
X519075Y1555764D01*
X500612Y1548642D01*
X482330Y1541069D01*
X464238Y1533050D01*
X446350Y1524589D01*
X428674Y1515692D01*
X411222Y1506363D01*
X394004Y1496610D01*
X377030Y1486436D01*
X360312Y1475849D01*
X343858Y1464855D01*
X327679Y1453461D01*
X311785Y1441673D01*
X296184Y1429498D01*
X280887Y1416944D01*
X265903Y1404019D01*
X251241Y1390729D01*
X236909Y1377084D01*
X222916Y1363091D01*
X209271Y1348759D01*
X195981Y1334097D01*
X183056Y1319113D01*
X170502Y1303816D01*
X158327Y1288215D01*
X146539Y1272321D01*
X135145Y1256142D01*
X124151Y1239688D01*
X113564Y1222970D01*
X103390Y1205996D01*
X93637Y1188778D01*
X84308Y1171326D01*
X75411Y1153650D01*
X66950Y1135762D01*
X58931Y1117670D01*
X51358Y1099388D01*
X44236Y1080925D01*
X37570Y1062293D01*
X31362Y1043503D01*
X25618Y1024567D01*
X20340Y1005495D01*
X15532Y986299D01*
X11196Y966991D01*
X7335Y947583D01*
X3952Y928085D01*
X1049Y908511D01*
X-1374Y888871D01*
X-3313Y869177D01*
X-4769Y849442D01*
X-5740Y829677D01*
X-6226Y809894D01*
X-6226Y790106D01*
X-5740Y770323D01*
X-4769Y750558D01*
X-3313Y730823D01*
X-1374Y711129D01*
X1049Y691489D01*
X3952Y671915D01*
X7335Y652417D01*
X11196Y633009D01*
X15532Y613701D01*
X20340Y594505D01*
X25618Y575433D01*
X31362Y556497D01*
X37570Y537707D01*
X44236Y519075D01*
X51358Y500612D01*
X58931Y482330D01*
X66950Y464238D01*
X75411Y446350D01*
X84308Y428674D01*
X93637Y411222D01*
X103390Y394004D01*
X113564Y377030D01*
X124151Y360312D01*
X135145Y343858D01*
X146539Y327679D01*
X158327Y311785D01*
X170502Y296184D01*
X183056Y280887D01*
X195981Y265903D01*
X209271Y251241D01*
X222916Y236909D01*
X236909Y222916D01*
X251241Y209271D01*
X265903Y195981D01*
X280887Y183056D01*
X296184Y170502D01*
X311785Y158327D01*
X327679Y146539D01*
X343858Y135145D01*
X360312Y124151D01*
X377030Y113564D01*
X394004Y103390D01*
X411222Y93637D01*
X428674Y84308D01*
X446350Y75411D01*
X464238Y66950D01*
X482330Y58931D01*
X500612Y51358D01*
X519075Y44236D01*
X537707Y37570D01*
X556497Y31362D01*
X575433Y25618D01*
X594505Y20340D01*
X613701Y15532D01*
X633009Y11196D01*
X652417Y7335D01*
X671915Y3952D01*
X691489Y1049D01*
X711129Y-1374D01*
X730823Y-3313D01*
X750558Y-4769D01*
X770323Y-5740D01*
X790106Y-6226D01*
X809894Y-6226D01*
X829677Y-5740D01*
X849442Y-4769D01*
X869177Y-3313D01*
X888871Y-1374D01*
X908511Y1049D01*
X928085Y3952D01*
X947583Y7335D01*
X966991Y11196D01*
X986299Y15532D01*
X1005495Y20340D01*
X1024567Y25618D01*
X1043503Y31362D01*
X1062293Y37570D01*
X1080925Y44236D01*
X1099388Y51358D01*
X1117670Y58931D01*
X1135762Y66950D01*
X1153650Y75411D01*
X1171326Y84308D01*
X1188778Y93637D01*
X1205996Y103390D01*
X1222970Y113564D01*
X1239688Y124151D01*
X1256142Y135145D01*
X1272321Y146539D01*
X1288215Y158327D01*
X1303816Y170502D01*
X1319113Y183056D01*
X1334097Y195981D01*
X1348759Y209271D01*
X1363091Y222916D01*
X1377084Y236909D01*
X1390729Y251241D01*
X1404019Y265903D01*
X1416944Y280887D01*
X1429498Y296184D01*
X1441673Y311785D01*
X1453461Y327679D01*
X1464855Y343858D01*
X1475849Y360312D01*
X1486436Y377030D01*
X1496610Y394004D01*
X1506363Y411222D01*
X1515692Y428674D01*
X1524589Y446350D01*
X1533050Y464238D01*
X1541069Y482330D01*
X1548642Y500612D01*
X1555764Y519075D01*
X1562430Y537707D01*
X1568638Y556497D01*
X1574382Y575433D01*
X1579660Y594505D01*
X1584468Y613701D01*
X1588804Y633009D01*
X1592665Y652417D01*
X1596048Y671915D01*
X1598951Y691489D01*
X1601374Y711129D01*
X1603313Y730823D01*
X1604769Y750558D01*
X1605740Y770323D01*
X1606226Y790106D01*
X370100Y789300D02*
X790100Y789300D01*
X790100Y369300D01*
X810100Y369300D01*
X810100Y789300D01*
X1230100Y789300D01*
X1230100Y809300D01*
X810100Y809300D01*
X810100Y1229300D01*
X790100Y1229300D01*
X790100Y809300D01*
X370100Y809300D01*
X370100Y789300D01*
X1093130Y481182D02*
X1092417Y481994D01*
X1091759Y482852D01*
X1091158Y483751D01*
X1090618Y484687D01*
X1090140Y485656D01*
X1089726Y486655D01*
X1089379Y487679D01*
X1089099Y488723D01*
X1088888Y489783D01*
X1088747Y490855D01*
X1088676Y491933D01*
X1088676Y493014D01*
X1088747Y494093D01*
X1088888Y495165D01*
X1089099Y496225D01*
X1089379Y497269D01*
X1089726Y498293D01*
X1090140Y499291D01*
X1090618Y500261D01*
X1091158Y501197D01*
X1091759Y502096D01*
X1092417Y502953D01*
X1093130Y503766D01*
X1093894Y504530D01*
X1094707Y505243D01*
X1095564Y505901D01*
X1096463Y506502D01*
X1097399Y507042D01*
X1098369Y507520D01*
X1099367Y507934D01*
X1100391Y508281D01*
X1101435Y508561D01*
X1102495Y508772D01*
X1103567Y508913D01*
X1104646Y508984D01*
X1105727Y508984D01*
X1106805Y508913D01*
X1107877Y508772D01*
X1108937Y508561D01*
X1109981Y508281D01*
X1111005Y507934D01*
X1112004Y507520D01*
X1112973Y507042D01*
X1113909Y506502D01*
X1114808Y505901D01*
X1115666Y505243D01*
X1116478Y504530D01*
X1117243Y503766D01*
X1117955Y502953D01*
X1118614Y502096D01*
X1119214Y501197D01*
X1119755Y500261D01*
X1120233Y499291D01*
X1120646Y498293D01*
X1120994Y497269D01*
X1121274Y496225D01*
X1121484Y495165D01*
X1121626Y494093D01*
X1121696Y493014D01*
X1121696Y491933D01*
X1121626Y490855D01*
X1121484Y489783D01*
X1121274Y488723D01*
X1120994Y487679D01*
X1120646Y486655D01*
X1120233Y485656D01*
X1119755Y484687D01*
X1119214Y483751D01*
X1118614Y482852D01*
X1117955Y481994D01*
X1117243Y481182D01*
X1116478Y480417D01*
X1115666Y479705D01*
X1114808Y479046D01*
X1113909Y478446D01*
X1112973Y477905D01*
X1112004Y477427D01*
X1111005Y477014D01*
X1109981Y476666D01*
X1108937Y476386D01*
X1107877Y476176D01*
X1106805Y476034D01*
X1105727Y475964D01*
X1104646Y475964D01*
X1103567Y476034D01*
X1102495Y476176D01*
X1101435Y476386D01*
X1100391Y476666D01*
X1099367Y477014D01*
X1098369Y477427D01*
X1097399Y477905D01*
X1096463Y478446D01*
X1095564Y479046D01*
X1094707Y479705D01*
X1093894Y480417D01*
X1093130Y481182D01*
X496422Y504530D02*
X497234Y505243D01*
X498092Y505901D01*
X498991Y506502D01*
X499927Y507042D01*
X500896Y507520D01*
X501895Y507934D01*
X502919Y508281D01*
X503963Y508561D01*
X505023Y508772D01*
X506095Y508913D01*
X507173Y508984D01*
X508254Y508984D01*
X509333Y508913D01*
X510405Y508772D01*
X511465Y508561D01*
X512509Y508281D01*
X513533Y507934D01*
X514531Y507520D01*
X515501Y507042D01*
X516437Y506502D01*
X517336Y505901D01*
X518193Y505243D01*
X519006Y504530D01*
X519770Y503766D01*
X520483Y502953D01*
X521141Y502096D01*
X521742Y501197D01*
X522282Y500261D01*
X522760Y499291D01*
X523174Y498293D01*
X523521Y497269D01*
X523801Y496225D01*
X524012Y495165D01*
X524153Y494093D01*
X524224Y493014D01*
X524224Y491933D01*
X524153Y490855D01*
X524012Y489783D01*
X523801Y488723D01*
X523521Y487679D01*
X523174Y486655D01*
X522760Y485656D01*
X522282Y484687D01*
X521742Y483751D01*
X521141Y482852D01*
X520483Y481994D01*
X519770Y481182D01*
X519006Y480417D01*
X518193Y479705D01*
X517336Y479046D01*
X516437Y478446D01*
X515501Y477905D01*
X514531Y477427D01*
X513533Y477014D01*
X512509Y476666D01*
X511465Y476386D01*
X510405Y476176D01*
X509333Y476034D01*
X508254Y475964D01*
X507173Y475964D01*
X506095Y476034D01*
X505023Y476176D01*
X503963Y476386D01*
X502919Y476666D01*
X501895Y477014D01*
X500896Y477427D01*
X499927Y477905D01*
X498991Y478446D01*
X498092Y479046D01*
X497234Y479705D01*
X496422Y480417D01*
X495657Y481182D01*
X494945Y481994D01*
X494286Y482852D01*
X493686Y483751D01*
X493145Y484687D01*
X492667Y485656D01*
X492254Y486655D01*
X491906Y487679D01*
X491626Y488723D01*
X491416Y489783D01*
X491274Y490855D01*
X491204Y491933D01*
X491204Y493014D01*
X491274Y494093D01*
X491416Y495165D01*
X491626Y496225D01*
X491906Y497269D01*
X492254Y498293D01*
X492667Y499291D01*
X493145Y500261D01*
X493686Y501197D01*
X494286Y502096D01*
X494945Y502953D01*
X495657Y503766D01*
X496422Y504530D01*
X1124098Y1095670D02*
X1123286Y1094957D01*
X1122428Y1094299D01*
X1121529Y1093698D01*
X1120593Y1093158D01*
X1119624Y1092680D01*
X1118625Y1092266D01*
X1117601Y1091919D01*
X1116557Y1091639D01*
X1115497Y1091428D01*
X1114425Y1091287D01*
X1113347Y1091216D01*
X1112266Y1091216D01*
X1111187Y1091287D01*
X1110115Y1091428D01*
X1109055Y1091639D01*
X1108011Y1091919D01*
X1106987Y1092266D01*
X1105989Y1092680D01*
X1105019Y1093158D01*
X1104083Y1093698D01*
X1103184Y1094299D01*
X1102327Y1094957D01*
X1101514Y1095670D01*
X1100750Y1096434D01*
X1100037Y1097247D01*
X1099379Y1098104D01*
X1098778Y1099003D01*
X1098238Y1099939D01*
X1097760Y1100909D01*
X1097346Y1101907D01*
X1096999Y1102931D01*
X1096719Y1103975D01*
X1096508Y1105035D01*
X1096367Y1106107D01*
X1096296Y1107186D01*
X1096296Y1108267D01*
X1096367Y1109345D01*
X1096508Y1110417D01*
X1096719Y1111477D01*
X1096999Y1112521D01*
X1097346Y1113545D01*
X1097760Y1114544D01*
X1098238Y1115513D01*
X1098778Y1116449D01*
X1099379Y1117348D01*
X1100037Y1118206D01*
X1100750Y1119018D01*
X1101514Y1119783D01*
X1102327Y1120495D01*
X1103184Y1121154D01*
X1104083Y1121754D01*
X1105019Y1122295D01*
X1105989Y1122773D01*
X1106987Y1123186D01*
X1108011Y1123534D01*
X1109055Y1123814D01*
X1110115Y1124024D01*
X1111187Y1124166D01*
X1112266Y1124236D01*
X1113347Y1124236D01*
X1114425Y1124166D01*
X1115497Y1124024D01*
X1116557Y1123814D01*
X1117601Y1123534D01*
X1118625Y1123186D01*
X1119624Y1122773D01*
X1120593Y1122295D01*
X1121529Y1121754D01*
X1122428Y1121154D01*
X1123286Y1120495D01*
X1124098Y1119783D01*
X1124863Y1119018D01*
X1125575Y1118206D01*
X1126234Y1117348D01*
X1126834Y1116449D01*
X1127375Y1115513D01*
X1127853Y1114544D01*
X1128266Y1113545D01*
X1128614Y1112521D01*
X1128894Y1111477D01*
X1129104Y1110417D01*
X1129246Y1109345D01*
X1129316Y1108267D01*
X1129316Y1107186D01*
X1129246Y1106107D01*
X1129104Y1105035D01*
X1128894Y1103975D01*
X1128614Y1102931D01*
X1128266Y1101907D01*
X1127853Y1100909D01*
X1127375Y1099939D01*
X1126834Y1099003D01*
X1126234Y1098104D01*
X1125575Y1097247D01*
X1124863Y1096434D01*
X1124098Y1095670D01*
M02*
