G04 EAGLE Gerber RS-274X export*
G75*
%MOMM*%
%FSLAX34Y34*%
%LPD*%
%INSolderpaste Bottom*%
%IPPOS*%
%AMOC8*
5,1,8,0,0,1.08239X$1,22.5*%
G01*
%ADD10C,0.280000*%
%ADD11R,2.540000X5.080000*%
%ADD12R,5.080000X2.540000*%


D10*
X780300Y184900D02*
X769100Y184900D01*
X769100Y196100D01*
X780300Y196100D01*
X780300Y184900D01*
X780300Y187560D02*
X769100Y187560D01*
X769100Y190220D02*
X780300Y190220D01*
X780300Y192880D02*
X769100Y192880D01*
X769100Y195540D02*
X780300Y195540D01*
X789290Y184900D02*
X800490Y184900D01*
X789290Y184900D02*
X789290Y196100D01*
X800490Y196100D01*
X800490Y184900D01*
X800490Y187560D02*
X789290Y187560D01*
X789290Y190220D02*
X800490Y190220D01*
X800490Y192880D02*
X789290Y192880D01*
X789290Y195540D02*
X800490Y195540D01*
X800620Y234200D02*
X789420Y234200D01*
X800620Y234200D02*
X800620Y223000D01*
X789420Y223000D01*
X789420Y234200D01*
X789420Y225660D02*
X800620Y225660D01*
X800620Y228320D02*
X789420Y228320D01*
X789420Y230980D02*
X800620Y230980D01*
X800620Y233640D02*
X789420Y233640D01*
X780430Y234200D02*
X769230Y234200D01*
X780430Y234200D02*
X780430Y223000D01*
X769230Y223000D01*
X769230Y234200D01*
X769230Y225660D02*
X780430Y225660D01*
X780430Y228320D02*
X769230Y228320D01*
X769230Y230980D02*
X780430Y230980D01*
X780430Y233640D02*
X769230Y233640D01*
X934200Y680200D02*
X945400Y680200D01*
X934200Y680200D02*
X934200Y691400D01*
X945400Y691400D01*
X945400Y680200D01*
X945400Y682860D02*
X934200Y682860D01*
X934200Y685520D02*
X945400Y685520D01*
X945400Y688180D02*
X934200Y688180D01*
X934200Y690840D02*
X945400Y690840D01*
X954390Y680200D02*
X965590Y680200D01*
X954390Y680200D02*
X954390Y691400D01*
X965590Y691400D01*
X965590Y680200D01*
X965590Y682860D02*
X954390Y682860D01*
X954390Y685520D02*
X965590Y685520D01*
X965590Y688180D02*
X954390Y688180D01*
X954390Y690840D02*
X965590Y690840D01*
X742200Y678700D02*
X731000Y678700D01*
X742200Y678700D02*
X742200Y667500D01*
X731000Y667500D01*
X731000Y678700D01*
X731000Y670160D02*
X742200Y670160D01*
X742200Y672820D02*
X731000Y672820D01*
X731000Y675480D02*
X742200Y675480D01*
X742200Y678140D02*
X731000Y678140D01*
X722010Y678700D02*
X710810Y678700D01*
X722010Y678700D02*
X722010Y667500D01*
X710810Y667500D01*
X710810Y678700D01*
X710810Y670160D02*
X722010Y670160D01*
X722010Y672820D02*
X710810Y672820D01*
X710810Y675480D02*
X722010Y675480D01*
X722010Y678140D02*
X710810Y678140D01*
X896100Y997700D02*
X907300Y997700D01*
X896100Y997700D02*
X896100Y1008900D01*
X907300Y1008900D01*
X907300Y997700D01*
X907300Y1000360D02*
X896100Y1000360D01*
X896100Y1003020D02*
X907300Y1003020D01*
X907300Y1005680D02*
X896100Y1005680D01*
X896100Y1008340D02*
X907300Y1008340D01*
X916290Y997700D02*
X927490Y997700D01*
X916290Y997700D02*
X916290Y1008900D01*
X927490Y1008900D01*
X927490Y997700D01*
X927490Y1000360D02*
X916290Y1000360D01*
X916290Y1003020D02*
X927490Y1003020D01*
X927490Y1005680D02*
X916290Y1005680D01*
X916290Y1008340D02*
X927490Y1008340D01*
X721880Y1005090D02*
X710680Y1005090D01*
X721880Y1005090D02*
X721880Y993890D01*
X710680Y993890D01*
X710680Y1005090D01*
X710680Y996550D02*
X721880Y996550D01*
X721880Y999210D02*
X710680Y999210D01*
X710680Y1001870D02*
X721880Y1001870D01*
X721880Y1004530D02*
X710680Y1004530D01*
X701690Y1005090D02*
X690490Y1005090D01*
X701690Y1005090D02*
X701690Y993890D01*
X690490Y993890D01*
X690490Y1005090D01*
X690490Y996550D02*
X701690Y996550D01*
X701690Y999210D02*
X690490Y999210D01*
X690490Y1001870D02*
X701690Y1001870D01*
X701690Y1004530D02*
X690490Y1004530D01*
X589800Y920000D02*
X589800Y908800D01*
X578600Y908800D01*
X578600Y920000D01*
X589800Y920000D01*
X589800Y911460D02*
X578600Y911460D01*
X578600Y914120D02*
X589800Y914120D01*
X589800Y916780D02*
X578600Y916780D01*
X578600Y919440D02*
X589800Y919440D01*
X589800Y928990D02*
X589800Y940190D01*
X589800Y928990D02*
X578600Y928990D01*
X578600Y940190D01*
X589800Y940190D01*
X589800Y931650D02*
X578600Y931650D01*
X578600Y934310D02*
X589800Y934310D01*
X589800Y936970D02*
X578600Y936970D01*
X578600Y939630D02*
X589800Y939630D01*
X526300Y920000D02*
X526300Y908800D01*
X515100Y908800D01*
X515100Y920000D01*
X526300Y920000D01*
X526300Y911460D02*
X515100Y911460D01*
X515100Y914120D02*
X526300Y914120D01*
X526300Y916780D02*
X515100Y916780D01*
X515100Y919440D02*
X526300Y919440D01*
X526300Y928990D02*
X526300Y940190D01*
X526300Y928990D02*
X515100Y928990D01*
X515100Y940190D01*
X526300Y940190D01*
X526300Y931650D02*
X515100Y931650D01*
X515100Y934310D02*
X526300Y934310D01*
X526300Y936970D02*
X515100Y936970D01*
X515100Y939630D02*
X526300Y939630D01*
X654800Y1073900D02*
X654800Y1085100D01*
X666000Y1085100D01*
X666000Y1073900D01*
X654800Y1073900D01*
X654800Y1076560D02*
X666000Y1076560D01*
X666000Y1079220D02*
X654800Y1079220D01*
X654800Y1081880D02*
X666000Y1081880D01*
X666000Y1084540D02*
X654800Y1084540D01*
X654800Y1064910D02*
X654800Y1053710D01*
X654800Y1064910D02*
X666000Y1064910D01*
X666000Y1053710D01*
X654800Y1053710D01*
X654800Y1056370D02*
X666000Y1056370D01*
X666000Y1059030D02*
X654800Y1059030D01*
X654800Y1061690D02*
X666000Y1061690D01*
X666000Y1064350D02*
X654800Y1064350D01*
X604000Y1124700D02*
X604000Y1135900D01*
X615200Y1135900D01*
X615200Y1124700D01*
X604000Y1124700D01*
X604000Y1127360D02*
X615200Y1127360D01*
X615200Y1130020D02*
X604000Y1130020D01*
X604000Y1132680D02*
X615200Y1132680D01*
X615200Y1135340D02*
X604000Y1135340D01*
X604000Y1115710D02*
X604000Y1104510D01*
X604000Y1115710D02*
X615200Y1115710D01*
X615200Y1104510D01*
X604000Y1104510D01*
X604000Y1107170D02*
X615200Y1107170D01*
X615200Y1109830D02*
X604000Y1109830D01*
X604000Y1112490D02*
X615200Y1112490D01*
X615200Y1115150D02*
X604000Y1115150D01*
X553200Y1175500D02*
X553200Y1186700D01*
X564400Y1186700D01*
X564400Y1175500D01*
X553200Y1175500D01*
X553200Y1178160D02*
X564400Y1178160D01*
X564400Y1180820D02*
X553200Y1180820D01*
X553200Y1183480D02*
X564400Y1183480D01*
X564400Y1186140D02*
X553200Y1186140D01*
X553200Y1166510D02*
X553200Y1155310D01*
X553200Y1166510D02*
X564400Y1166510D01*
X564400Y1155310D01*
X553200Y1155310D01*
X553200Y1157970D02*
X564400Y1157970D01*
X564400Y1160630D02*
X553200Y1160630D01*
X553200Y1163290D02*
X564400Y1163290D01*
X564400Y1165950D02*
X553200Y1165950D01*
D11*
X1000100Y819300D03*
X1100100Y819300D03*
D12*
X770100Y599300D03*
X770100Y499300D03*
D11*
X600100Y828500D03*
X500100Y828500D03*
D12*
X770100Y999300D03*
X770100Y1099300D03*
M02*
