G04 EAGLE Gerber RS-274X export*
G75*
%MOMM*%
%FSLAX34Y34*%
%LPD*%
%IN*%
%IPPOS*%
%AMOC8*
5,1,8,0,0,1.08239X$1,22.5*%
G01*
%ADD10C,0.254000*%


D10*
X1600000Y790182D02*
X1600000Y809818D01*
X1599518Y829448D01*
X1598555Y849060D01*
X1597110Y868643D01*
X1595185Y888184D01*
X1592782Y907673D01*
X1589901Y927096D01*
X1586544Y946443D01*
X1582713Y965702D01*
X1578411Y984860D01*
X1573639Y1003908D01*
X1568402Y1022833D01*
X1562702Y1041623D01*
X1556543Y1060268D01*
X1549928Y1078756D01*
X1542861Y1097076D01*
X1535346Y1115217D01*
X1527389Y1133169D01*
X1518994Y1150919D01*
X1510165Y1168459D01*
X1500909Y1185776D01*
X1491230Y1202861D01*
X1481135Y1219703D01*
X1470630Y1236293D01*
X1459721Y1252620D01*
X1448415Y1268674D01*
X1436717Y1284445D01*
X1424637Y1299925D01*
X1412180Y1315104D01*
X1399354Y1329973D01*
X1386168Y1344522D01*
X1372628Y1358743D01*
X1358743Y1372628D01*
X1344522Y1386168D01*
X1329973Y1399354D01*
X1315104Y1412180D01*
X1299925Y1424637D01*
X1284445Y1436717D01*
X1268674Y1448415D01*
X1252620Y1459721D01*
X1236293Y1470630D01*
X1219703Y1481135D01*
X1202861Y1491230D01*
X1185776Y1500909D01*
X1168459Y1510165D01*
X1150919Y1518994D01*
X1133169Y1527389D01*
X1115217Y1535346D01*
X1097076Y1542861D01*
X1078756Y1549928D01*
X1060268Y1556543D01*
X1041623Y1562702D01*
X1022833Y1568402D01*
X1003908Y1573639D01*
X984860Y1578411D01*
X965702Y1582713D01*
X946443Y1586544D01*
X927096Y1589901D01*
X907673Y1592782D01*
X888184Y1595185D01*
X868643Y1597110D01*
X849060Y1598555D01*
X829448Y1599518D01*
X809818Y1600000D01*
X790182Y1600000D01*
X770552Y1599518D01*
X750940Y1598555D01*
X731357Y1597110D01*
X711816Y1595185D01*
X692327Y1592782D01*
X672904Y1589901D01*
X653557Y1586544D01*
X634298Y1582713D01*
X615140Y1578411D01*
X596092Y1573639D01*
X577167Y1568402D01*
X558377Y1562702D01*
X539732Y1556543D01*
X521244Y1549928D01*
X502924Y1542861D01*
X484783Y1535346D01*
X466831Y1527389D01*
X449081Y1518994D01*
X431541Y1510165D01*
X414224Y1500909D01*
X397139Y1491230D01*
X380297Y1481135D01*
X363707Y1470630D01*
X347380Y1459721D01*
X331326Y1448415D01*
X315555Y1436717D01*
X300075Y1424637D01*
X284896Y1412180D01*
X270027Y1399354D01*
X255478Y1386168D01*
X241257Y1372628D01*
X227372Y1358743D01*
X213832Y1344522D01*
X200646Y1329973D01*
X187820Y1315104D01*
X175363Y1299925D01*
X163283Y1284445D01*
X151585Y1268674D01*
X140279Y1252620D01*
X129370Y1236293D01*
X118865Y1219703D01*
X108770Y1202861D01*
X99091Y1185776D01*
X89835Y1168459D01*
X81006Y1150919D01*
X72611Y1133169D01*
X64654Y1115217D01*
X57139Y1097076D01*
X50072Y1078756D01*
X43457Y1060268D01*
X37298Y1041623D01*
X31598Y1022833D01*
X26361Y1003908D01*
X21589Y984860D01*
X17287Y965702D01*
X13456Y946443D01*
X10099Y927096D01*
X7218Y907673D01*
X4815Y888184D01*
X2890Y868643D01*
X1445Y849060D01*
X482Y829448D01*
X0Y809818D01*
X0Y790182D01*
X482Y770552D01*
X1445Y750940D01*
X2890Y731357D01*
X4815Y711816D01*
X7218Y692327D01*
X10099Y672904D01*
X13456Y653557D01*
X17287Y634298D01*
X21589Y615140D01*
X26361Y596092D01*
X31598Y577167D01*
X37298Y558377D01*
X43457Y539732D01*
X50072Y521244D01*
X57139Y502924D01*
X64654Y484783D01*
X72611Y466831D01*
X81006Y449081D01*
X89835Y431541D01*
X99091Y414224D01*
X108770Y397139D01*
X118865Y380297D01*
X129370Y363707D01*
X140279Y347380D01*
X151585Y331326D01*
X163283Y315555D01*
X175363Y300075D01*
X187820Y284896D01*
X200646Y270027D01*
X213832Y255478D01*
X227372Y241257D01*
X241257Y227372D01*
X255478Y213832D01*
X270027Y200646D01*
X284896Y187820D01*
X300075Y175363D01*
X315555Y163283D01*
X331326Y151585D01*
X347380Y140279D01*
X363707Y129370D01*
X380297Y118865D01*
X397139Y108770D01*
X414224Y99091D01*
X431541Y89835D01*
X449081Y81006D01*
X466831Y72611D01*
X484783Y64654D01*
X502924Y57139D01*
X521244Y50072D01*
X539732Y43457D01*
X558377Y37298D01*
X577167Y31598D01*
X596092Y26361D01*
X615140Y21589D01*
X634298Y17287D01*
X653557Y13456D01*
X672904Y10099D01*
X692327Y7218D01*
X711816Y4815D01*
X731357Y2890D01*
X750940Y1445D01*
X770552Y482D01*
X790182Y0D01*
X809818Y0D01*
X829448Y482D01*
X849060Y1445D01*
X868643Y2890D01*
X888184Y4815D01*
X907673Y7218D01*
X927096Y10099D01*
X946443Y13456D01*
X965702Y17287D01*
X984860Y21589D01*
X1003908Y26361D01*
X1022833Y31598D01*
X1041623Y37298D01*
X1060268Y43457D01*
X1078756Y50072D01*
X1097076Y57139D01*
X1115217Y64654D01*
X1133169Y72611D01*
X1150919Y81006D01*
X1168459Y89835D01*
X1185776Y99091D01*
X1202861Y108770D01*
X1219703Y118865D01*
X1236293Y129370D01*
X1252620Y140279D01*
X1268674Y151585D01*
X1284445Y163283D01*
X1299925Y175363D01*
X1315104Y187820D01*
X1329973Y200646D01*
X1344522Y213832D01*
X1358743Y227372D01*
X1372628Y241257D01*
X1386168Y255478D01*
X1399354Y270027D01*
X1412180Y284896D01*
X1424637Y300075D01*
X1436717Y315555D01*
X1448415Y331326D01*
X1459721Y347380D01*
X1470630Y363707D01*
X1481135Y380297D01*
X1491230Y397139D01*
X1500909Y414224D01*
X1510165Y431541D01*
X1518994Y449081D01*
X1527389Y466831D01*
X1535346Y484783D01*
X1542861Y502924D01*
X1549928Y521244D01*
X1556543Y539732D01*
X1562702Y558377D01*
X1568402Y577167D01*
X1573639Y596092D01*
X1578411Y615140D01*
X1582713Y634298D01*
X1586544Y653557D01*
X1589901Y672904D01*
X1592782Y692327D01*
X1595185Y711816D01*
X1597110Y731357D01*
X1598555Y750940D01*
X1599518Y770552D01*
X1600000Y790182D01*
X980980Y1337310D02*
X982059Y1337239D01*
X983131Y1337098D01*
X984191Y1336887D01*
X985235Y1336608D01*
X986259Y1336260D01*
X987257Y1335846D01*
X988227Y1335368D01*
X989163Y1334828D01*
X990062Y1334227D01*
X990919Y1333569D01*
X991732Y1332857D01*
X992497Y1332092D01*
X993209Y1331279D01*
X993867Y1330422D01*
X994468Y1329523D01*
X995008Y1328587D01*
X995486Y1327617D01*
X995900Y1326619D01*
X996248Y1325595D01*
X996527Y1324551D01*
X996738Y1323491D01*
X996879Y1322419D01*
X996950Y1321340D01*
X996950Y1320260D01*
X996879Y1319181D01*
X996738Y1318109D01*
X996527Y1317049D01*
X996248Y1316005D01*
X995900Y1314981D01*
X995486Y1313983D01*
X995008Y1313013D01*
X994468Y1312077D01*
X993867Y1311178D01*
X993209Y1310321D01*
X992497Y1309508D01*
X991732Y1308744D01*
X990919Y1308031D01*
X990062Y1307373D01*
X989163Y1306772D01*
X988227Y1306232D01*
X987257Y1305754D01*
X986259Y1305340D01*
X985235Y1304992D01*
X984191Y1304713D01*
X983131Y1304502D01*
X982059Y1304361D01*
X980980Y1304290D01*
X979900Y1304290D01*
X978821Y1304361D01*
X977749Y1304502D01*
X976689Y1304713D01*
X975645Y1304992D01*
X974621Y1305340D01*
X973623Y1305754D01*
X972653Y1306232D01*
X971717Y1306772D01*
X970818Y1307373D01*
X969961Y1308031D01*
X969148Y1308744D01*
X968384Y1309508D01*
X967671Y1310321D01*
X967013Y1311178D01*
X966412Y1312077D01*
X965872Y1313013D01*
X965394Y1313983D01*
X964980Y1314981D01*
X964632Y1316005D01*
X964353Y1317049D01*
X964142Y1318109D01*
X964001Y1319181D01*
X963930Y1320260D01*
X963930Y1321340D01*
X964001Y1322419D01*
X964142Y1323491D01*
X964353Y1324551D01*
X964632Y1325595D01*
X964980Y1326619D01*
X965394Y1327617D01*
X965872Y1328587D01*
X966412Y1329523D01*
X967013Y1330422D01*
X967671Y1331279D01*
X968384Y1332092D01*
X969148Y1332857D01*
X969961Y1333569D01*
X970818Y1334227D01*
X971717Y1334828D01*
X972653Y1335368D01*
X973623Y1335846D01*
X974621Y1336260D01*
X975645Y1336608D01*
X976689Y1336887D01*
X977749Y1337098D01*
X978821Y1337239D01*
X979900Y1337310D01*
X980980Y1337310D01*
M02*
