G04 EAGLE Gerber RS-274X export*
G75*
%MOMM*%
%FSLAX34Y34*%
%LPD*%
%INSilkscreen Top*%
%IPPOS*%
%AMOC8*
5,1,8,0,0,1.08239X$1,22.5*%
G01*
%ADD10C,0.127000*%
%ADD11C,0.152400*%
%ADD12C,0.101600*%
%ADD13C,0.050800*%
%ADD14R,0.635000X0.762000*%
%ADD15R,2.794000X1.270000*%
%ADD16C,0.177800*%
%ADD17C,0.203200*%


D10*
X847902Y350520D02*
X847911Y351217D01*
X847936Y351913D01*
X847979Y352609D01*
X848039Y353303D01*
X848116Y353996D01*
X848209Y354687D01*
X848320Y355375D01*
X848448Y356060D01*
X848592Y356742D01*
X848753Y357420D01*
X848931Y358094D01*
X849125Y358764D01*
X849335Y359428D01*
X849562Y360087D01*
X849805Y360740D01*
X850064Y361387D01*
X850338Y362028D01*
X850629Y362662D01*
X850934Y363288D01*
X851255Y363907D01*
X851591Y364517D01*
X851942Y365119D01*
X852308Y365713D01*
X852688Y366297D01*
X853082Y366872D01*
X853491Y367437D01*
X853913Y367991D01*
X854348Y368536D01*
X854797Y369069D01*
X855258Y369591D01*
X855733Y370102D01*
X856220Y370600D01*
X856718Y371087D01*
X857229Y371562D01*
X857751Y372023D01*
X858284Y372472D01*
X858829Y372907D01*
X859383Y373329D01*
X859948Y373738D01*
X860523Y374132D01*
X861107Y374512D01*
X861701Y374878D01*
X862303Y375229D01*
X862913Y375565D01*
X863532Y375886D01*
X864158Y376191D01*
X864792Y376482D01*
X865433Y376756D01*
X866080Y377015D01*
X866733Y377258D01*
X867392Y377485D01*
X868056Y377695D01*
X868726Y377889D01*
X869400Y378067D01*
X870078Y378228D01*
X870760Y378372D01*
X871445Y378500D01*
X872133Y378611D01*
X872824Y378704D01*
X873517Y378781D01*
X874211Y378841D01*
X874907Y378884D01*
X875603Y378909D01*
X876300Y378918D01*
X876997Y378909D01*
X877693Y378884D01*
X878389Y378841D01*
X879083Y378781D01*
X879776Y378704D01*
X880467Y378611D01*
X881155Y378500D01*
X881840Y378372D01*
X882522Y378228D01*
X883200Y378067D01*
X883874Y377889D01*
X884544Y377695D01*
X885208Y377485D01*
X885867Y377258D01*
X886520Y377015D01*
X887167Y376756D01*
X887808Y376482D01*
X888442Y376191D01*
X889068Y375886D01*
X889687Y375565D01*
X890297Y375229D01*
X890899Y374878D01*
X891493Y374512D01*
X892077Y374132D01*
X892652Y373738D01*
X893217Y373329D01*
X893771Y372907D01*
X894316Y372472D01*
X894849Y372023D01*
X895371Y371562D01*
X895882Y371087D01*
X896380Y370600D01*
X896867Y370102D01*
X897342Y369591D01*
X897803Y369069D01*
X898252Y368536D01*
X898687Y367991D01*
X899109Y367437D01*
X899518Y366872D01*
X899912Y366297D01*
X900292Y365713D01*
X900658Y365119D01*
X901009Y364517D01*
X901345Y363907D01*
X901666Y363288D01*
X901971Y362662D01*
X902262Y362028D01*
X902536Y361387D01*
X902795Y360740D01*
X903038Y360087D01*
X903265Y359428D01*
X903475Y358764D01*
X903669Y358094D01*
X903847Y357420D01*
X904008Y356742D01*
X904152Y356060D01*
X904280Y355375D01*
X904391Y354687D01*
X904484Y353996D01*
X904561Y353303D01*
X904621Y352609D01*
X904664Y351913D01*
X904689Y351217D01*
X904698Y350520D01*
X904689Y349823D01*
X904664Y349127D01*
X904621Y348431D01*
X904561Y347737D01*
X904484Y347044D01*
X904391Y346353D01*
X904280Y345665D01*
X904152Y344980D01*
X904008Y344298D01*
X903847Y343620D01*
X903669Y342946D01*
X903475Y342276D01*
X903265Y341612D01*
X903038Y340953D01*
X902795Y340300D01*
X902536Y339653D01*
X902262Y339012D01*
X901971Y338378D01*
X901666Y337752D01*
X901345Y337133D01*
X901009Y336523D01*
X900658Y335921D01*
X900292Y335327D01*
X899912Y334743D01*
X899518Y334168D01*
X899109Y333603D01*
X898687Y333049D01*
X898252Y332504D01*
X897803Y331971D01*
X897342Y331449D01*
X896867Y330938D01*
X896380Y330440D01*
X895882Y329953D01*
X895371Y329478D01*
X894849Y329017D01*
X894316Y328568D01*
X893771Y328133D01*
X893217Y327711D01*
X892652Y327302D01*
X892077Y326908D01*
X891493Y326528D01*
X890899Y326162D01*
X890297Y325811D01*
X889687Y325475D01*
X889068Y325154D01*
X888442Y324849D01*
X887808Y324558D01*
X887167Y324284D01*
X886520Y324025D01*
X885867Y323782D01*
X885208Y323555D01*
X884544Y323345D01*
X883874Y323151D01*
X883200Y322973D01*
X882522Y322812D01*
X881840Y322668D01*
X881155Y322540D01*
X880467Y322429D01*
X879776Y322336D01*
X879083Y322259D01*
X878389Y322199D01*
X877693Y322156D01*
X876997Y322131D01*
X876300Y322122D01*
X875603Y322131D01*
X874907Y322156D01*
X874211Y322199D01*
X873517Y322259D01*
X872824Y322336D01*
X872133Y322429D01*
X871445Y322540D01*
X870760Y322668D01*
X870078Y322812D01*
X869400Y322973D01*
X868726Y323151D01*
X868056Y323345D01*
X867392Y323555D01*
X866733Y323782D01*
X866080Y324025D01*
X865433Y324284D01*
X864792Y324558D01*
X864158Y324849D01*
X863532Y325154D01*
X862913Y325475D01*
X862303Y325811D01*
X861701Y326162D01*
X861107Y326528D01*
X860523Y326908D01*
X859948Y327302D01*
X859383Y327711D01*
X858829Y328133D01*
X858284Y328568D01*
X857751Y329017D01*
X857229Y329478D01*
X856718Y329953D01*
X856220Y330440D01*
X855733Y330938D01*
X855258Y331449D01*
X854797Y331971D01*
X854348Y332504D01*
X853913Y333049D01*
X853491Y333603D01*
X853082Y334168D01*
X852688Y334743D01*
X852308Y335327D01*
X851942Y335921D01*
X851591Y336523D01*
X851255Y337133D01*
X850934Y337752D01*
X850629Y338378D01*
X850338Y339012D01*
X850064Y339653D01*
X849805Y340300D01*
X849562Y340953D01*
X849335Y341612D01*
X849125Y342276D01*
X848931Y342946D01*
X848753Y343620D01*
X848592Y344298D01*
X848448Y344980D01*
X848320Y345665D01*
X848209Y346353D01*
X848116Y347044D01*
X848039Y347737D01*
X847979Y348431D01*
X847936Y349127D01*
X847911Y349823D01*
X847902Y350520D01*
D11*
X889000Y363220D02*
X895350Y363220D01*
X889000Y363220D02*
X882650Y363220D01*
X889000Y363220D02*
X889000Y369570D01*
X889000Y363220D02*
X889000Y356870D01*
D12*
X918795Y360275D02*
X918795Y362872D01*
X918795Y360275D02*
X918793Y360176D01*
X918787Y360076D01*
X918778Y359977D01*
X918765Y359879D01*
X918748Y359781D01*
X918727Y359683D01*
X918702Y359587D01*
X918674Y359492D01*
X918642Y359398D01*
X918607Y359305D01*
X918568Y359213D01*
X918525Y359123D01*
X918480Y359035D01*
X918430Y358948D01*
X918378Y358864D01*
X918322Y358781D01*
X918264Y358701D01*
X918202Y358623D01*
X918137Y358548D01*
X918069Y358475D01*
X917999Y358405D01*
X917926Y358337D01*
X917851Y358272D01*
X917773Y358210D01*
X917693Y358152D01*
X917610Y358096D01*
X917526Y358044D01*
X917439Y357994D01*
X917351Y357949D01*
X917261Y357906D01*
X917169Y357867D01*
X917076Y357832D01*
X916982Y357800D01*
X916887Y357772D01*
X916791Y357747D01*
X916693Y357726D01*
X916595Y357709D01*
X916497Y357696D01*
X916398Y357687D01*
X916298Y357681D01*
X916199Y357679D01*
X909708Y357679D01*
X909708Y357678D02*
X909609Y357680D01*
X909509Y357686D01*
X909410Y357695D01*
X909312Y357708D01*
X909214Y357726D01*
X909116Y357746D01*
X909020Y357771D01*
X908924Y357799D01*
X908830Y357831D01*
X908737Y357866D01*
X908646Y357905D01*
X908556Y357948D01*
X908467Y357993D01*
X908381Y358043D01*
X908296Y358095D01*
X908214Y358151D01*
X908134Y358210D01*
X908056Y358271D01*
X907980Y358336D01*
X907907Y358404D01*
X907837Y358474D01*
X907769Y358547D01*
X907704Y358623D01*
X907643Y358701D01*
X907584Y358781D01*
X907528Y358863D01*
X907476Y358948D01*
X907427Y359034D01*
X907381Y359123D01*
X907338Y359213D01*
X907299Y359304D01*
X907264Y359397D01*
X907232Y359491D01*
X907204Y359587D01*
X907179Y359683D01*
X907159Y359781D01*
X907141Y359879D01*
X907128Y359977D01*
X907119Y360076D01*
X907113Y360175D01*
X907111Y360275D01*
X907111Y362872D01*
X909708Y367237D02*
X907111Y370482D01*
X918795Y370482D01*
X918795Y367237D02*
X918795Y373728D01*
D10*
X502462Y795020D02*
X502471Y795717D01*
X502496Y796413D01*
X502539Y797109D01*
X502599Y797803D01*
X502676Y798496D01*
X502769Y799187D01*
X502880Y799875D01*
X503008Y800560D01*
X503152Y801242D01*
X503313Y801920D01*
X503491Y802594D01*
X503685Y803264D01*
X503895Y803928D01*
X504122Y804587D01*
X504365Y805240D01*
X504624Y805887D01*
X504898Y806528D01*
X505189Y807162D01*
X505494Y807788D01*
X505815Y808407D01*
X506151Y809017D01*
X506502Y809619D01*
X506868Y810213D01*
X507248Y810797D01*
X507642Y811372D01*
X508051Y811937D01*
X508473Y812491D01*
X508908Y813036D01*
X509357Y813569D01*
X509818Y814091D01*
X510293Y814602D01*
X510780Y815100D01*
X511278Y815587D01*
X511789Y816062D01*
X512311Y816523D01*
X512844Y816972D01*
X513389Y817407D01*
X513943Y817829D01*
X514508Y818238D01*
X515083Y818632D01*
X515667Y819012D01*
X516261Y819378D01*
X516863Y819729D01*
X517473Y820065D01*
X518092Y820386D01*
X518718Y820691D01*
X519352Y820982D01*
X519993Y821256D01*
X520640Y821515D01*
X521293Y821758D01*
X521952Y821985D01*
X522616Y822195D01*
X523286Y822389D01*
X523960Y822567D01*
X524638Y822728D01*
X525320Y822872D01*
X526005Y823000D01*
X526693Y823111D01*
X527384Y823204D01*
X528077Y823281D01*
X528771Y823341D01*
X529467Y823384D01*
X530163Y823409D01*
X530860Y823418D01*
X531557Y823409D01*
X532253Y823384D01*
X532949Y823341D01*
X533643Y823281D01*
X534336Y823204D01*
X535027Y823111D01*
X535715Y823000D01*
X536400Y822872D01*
X537082Y822728D01*
X537760Y822567D01*
X538434Y822389D01*
X539104Y822195D01*
X539768Y821985D01*
X540427Y821758D01*
X541080Y821515D01*
X541727Y821256D01*
X542368Y820982D01*
X543002Y820691D01*
X543628Y820386D01*
X544247Y820065D01*
X544857Y819729D01*
X545459Y819378D01*
X546053Y819012D01*
X546637Y818632D01*
X547212Y818238D01*
X547777Y817829D01*
X548331Y817407D01*
X548876Y816972D01*
X549409Y816523D01*
X549931Y816062D01*
X550442Y815587D01*
X550940Y815100D01*
X551427Y814602D01*
X551902Y814091D01*
X552363Y813569D01*
X552812Y813036D01*
X553247Y812491D01*
X553669Y811937D01*
X554078Y811372D01*
X554472Y810797D01*
X554852Y810213D01*
X555218Y809619D01*
X555569Y809017D01*
X555905Y808407D01*
X556226Y807788D01*
X556531Y807162D01*
X556822Y806528D01*
X557096Y805887D01*
X557355Y805240D01*
X557598Y804587D01*
X557825Y803928D01*
X558035Y803264D01*
X558229Y802594D01*
X558407Y801920D01*
X558568Y801242D01*
X558712Y800560D01*
X558840Y799875D01*
X558951Y799187D01*
X559044Y798496D01*
X559121Y797803D01*
X559181Y797109D01*
X559224Y796413D01*
X559249Y795717D01*
X559258Y795020D01*
X559249Y794323D01*
X559224Y793627D01*
X559181Y792931D01*
X559121Y792237D01*
X559044Y791544D01*
X558951Y790853D01*
X558840Y790165D01*
X558712Y789480D01*
X558568Y788798D01*
X558407Y788120D01*
X558229Y787446D01*
X558035Y786776D01*
X557825Y786112D01*
X557598Y785453D01*
X557355Y784800D01*
X557096Y784153D01*
X556822Y783512D01*
X556531Y782878D01*
X556226Y782252D01*
X555905Y781633D01*
X555569Y781023D01*
X555218Y780421D01*
X554852Y779827D01*
X554472Y779243D01*
X554078Y778668D01*
X553669Y778103D01*
X553247Y777549D01*
X552812Y777004D01*
X552363Y776471D01*
X551902Y775949D01*
X551427Y775438D01*
X550940Y774940D01*
X550442Y774453D01*
X549931Y773978D01*
X549409Y773517D01*
X548876Y773068D01*
X548331Y772633D01*
X547777Y772211D01*
X547212Y771802D01*
X546637Y771408D01*
X546053Y771028D01*
X545459Y770662D01*
X544857Y770311D01*
X544247Y769975D01*
X543628Y769654D01*
X543002Y769349D01*
X542368Y769058D01*
X541727Y768784D01*
X541080Y768525D01*
X540427Y768282D01*
X539768Y768055D01*
X539104Y767845D01*
X538434Y767651D01*
X537760Y767473D01*
X537082Y767312D01*
X536400Y767168D01*
X535715Y767040D01*
X535027Y766929D01*
X534336Y766836D01*
X533643Y766759D01*
X532949Y766699D01*
X532253Y766656D01*
X531557Y766631D01*
X530860Y766622D01*
X530163Y766631D01*
X529467Y766656D01*
X528771Y766699D01*
X528077Y766759D01*
X527384Y766836D01*
X526693Y766929D01*
X526005Y767040D01*
X525320Y767168D01*
X524638Y767312D01*
X523960Y767473D01*
X523286Y767651D01*
X522616Y767845D01*
X521952Y768055D01*
X521293Y768282D01*
X520640Y768525D01*
X519993Y768784D01*
X519352Y769058D01*
X518718Y769349D01*
X518092Y769654D01*
X517473Y769975D01*
X516863Y770311D01*
X516261Y770662D01*
X515667Y771028D01*
X515083Y771408D01*
X514508Y771802D01*
X513943Y772211D01*
X513389Y772633D01*
X512844Y773068D01*
X512311Y773517D01*
X511789Y773978D01*
X511278Y774453D01*
X510780Y774940D01*
X510293Y775438D01*
X509818Y775949D01*
X509357Y776471D01*
X508908Y777004D01*
X508473Y777549D01*
X508051Y778103D01*
X507642Y778668D01*
X507248Y779243D01*
X506868Y779827D01*
X506502Y780421D01*
X506151Y781023D01*
X505815Y781633D01*
X505494Y782252D01*
X505189Y782878D01*
X504898Y783512D01*
X504624Y784153D01*
X504365Y784800D01*
X504122Y785453D01*
X503895Y786112D01*
X503685Y786776D01*
X503491Y787446D01*
X503313Y788120D01*
X503152Y788798D01*
X503008Y789480D01*
X502880Y790165D01*
X502769Y790853D01*
X502676Y791544D01*
X502599Y792237D01*
X502539Y792931D01*
X502496Y793627D01*
X502471Y794323D01*
X502462Y795020D01*
D11*
X518160Y807720D02*
X518160Y814070D01*
X518160Y807720D02*
X518160Y801370D01*
X518160Y807720D02*
X511810Y807720D01*
X518160Y807720D02*
X524510Y807720D01*
D12*
X512845Y825831D02*
X510248Y825831D01*
X510248Y825832D02*
X510149Y825834D01*
X510049Y825840D01*
X509950Y825849D01*
X509852Y825862D01*
X509754Y825879D01*
X509656Y825900D01*
X509560Y825925D01*
X509465Y825953D01*
X509371Y825985D01*
X509278Y826020D01*
X509186Y826059D01*
X509096Y826102D01*
X509008Y826147D01*
X508921Y826197D01*
X508837Y826249D01*
X508754Y826305D01*
X508674Y826363D01*
X508596Y826425D01*
X508521Y826490D01*
X508448Y826558D01*
X508378Y826628D01*
X508310Y826701D01*
X508245Y826776D01*
X508183Y826854D01*
X508125Y826934D01*
X508069Y827017D01*
X508017Y827101D01*
X507967Y827188D01*
X507922Y827276D01*
X507879Y827366D01*
X507840Y827458D01*
X507805Y827551D01*
X507773Y827645D01*
X507745Y827740D01*
X507720Y827836D01*
X507699Y827934D01*
X507682Y828032D01*
X507669Y828130D01*
X507660Y828229D01*
X507654Y828329D01*
X507652Y828428D01*
X507652Y834919D01*
X507654Y835018D01*
X507660Y835118D01*
X507669Y835217D01*
X507682Y835315D01*
X507699Y835413D01*
X507720Y835511D01*
X507745Y835607D01*
X507773Y835702D01*
X507805Y835796D01*
X507840Y835889D01*
X507879Y835981D01*
X507922Y836071D01*
X507967Y836159D01*
X508017Y836246D01*
X508069Y836330D01*
X508125Y836413D01*
X508183Y836493D01*
X508245Y836571D01*
X508310Y836646D01*
X508378Y836719D01*
X508448Y836789D01*
X508521Y836857D01*
X508596Y836922D01*
X508674Y836984D01*
X508754Y837042D01*
X508837Y837098D01*
X508921Y837150D01*
X509008Y837200D01*
X509096Y837245D01*
X509186Y837288D01*
X509278Y837327D01*
X509370Y837362D01*
X509465Y837394D01*
X509560Y837422D01*
X509656Y837447D01*
X509754Y837468D01*
X509852Y837485D01*
X509950Y837498D01*
X510049Y837507D01*
X510149Y837513D01*
X510248Y837515D01*
X512845Y837515D01*
X517210Y834919D02*
X520456Y837515D01*
X520456Y825831D01*
X523701Y825831D02*
X517210Y825831D01*
X532210Y837515D02*
X532317Y837513D01*
X532423Y837507D01*
X532529Y837497D01*
X532635Y837484D01*
X532741Y837466D01*
X532845Y837445D01*
X532949Y837420D01*
X533052Y837391D01*
X533153Y837359D01*
X533253Y837322D01*
X533352Y837282D01*
X533450Y837239D01*
X533546Y837192D01*
X533640Y837141D01*
X533732Y837087D01*
X533822Y837030D01*
X533910Y836970D01*
X533995Y836906D01*
X534078Y836839D01*
X534159Y836769D01*
X534237Y836697D01*
X534313Y836621D01*
X534385Y836543D01*
X534455Y836462D01*
X534522Y836379D01*
X534586Y836294D01*
X534646Y836206D01*
X534703Y836116D01*
X534757Y836024D01*
X534808Y835930D01*
X534855Y835834D01*
X534898Y835736D01*
X534938Y835637D01*
X534975Y835537D01*
X535007Y835436D01*
X535036Y835333D01*
X535061Y835229D01*
X535082Y835125D01*
X535100Y835019D01*
X535113Y834913D01*
X535123Y834807D01*
X535129Y834701D01*
X535131Y834594D01*
X532210Y837515D02*
X532089Y837513D01*
X531968Y837507D01*
X531848Y837497D01*
X531727Y837484D01*
X531608Y837466D01*
X531488Y837445D01*
X531370Y837420D01*
X531253Y837391D01*
X531136Y837358D01*
X531021Y837322D01*
X530907Y837281D01*
X530794Y837238D01*
X530682Y837190D01*
X530573Y837139D01*
X530465Y837084D01*
X530358Y837026D01*
X530254Y836965D01*
X530152Y836900D01*
X530052Y836832D01*
X529954Y836761D01*
X529858Y836687D01*
X529765Y836610D01*
X529675Y836529D01*
X529587Y836446D01*
X529502Y836360D01*
X529419Y836271D01*
X529340Y836180D01*
X529263Y836086D01*
X529190Y835990D01*
X529120Y835892D01*
X529053Y835791D01*
X528989Y835688D01*
X528929Y835583D01*
X528872Y835476D01*
X528818Y835368D01*
X528768Y835258D01*
X528722Y835146D01*
X528679Y835033D01*
X528640Y834918D01*
X534158Y832322D02*
X534237Y832399D01*
X534313Y832480D01*
X534386Y832563D01*
X534456Y832648D01*
X534523Y832736D01*
X534587Y832826D01*
X534647Y832918D01*
X534704Y833013D01*
X534758Y833109D01*
X534809Y833207D01*
X534856Y833307D01*
X534900Y833409D01*
X534940Y833512D01*
X534976Y833616D01*
X535008Y833722D01*
X535037Y833828D01*
X535062Y833936D01*
X535084Y834044D01*
X535101Y834154D01*
X535115Y834263D01*
X535124Y834373D01*
X535130Y834484D01*
X535132Y834594D01*
X534158Y832322D02*
X528640Y825831D01*
X535131Y825831D01*
D10*
X405942Y469900D02*
X405951Y470597D01*
X405976Y471293D01*
X406019Y471989D01*
X406079Y472683D01*
X406156Y473376D01*
X406249Y474067D01*
X406360Y474755D01*
X406488Y475440D01*
X406632Y476122D01*
X406793Y476800D01*
X406971Y477474D01*
X407165Y478144D01*
X407375Y478808D01*
X407602Y479467D01*
X407845Y480120D01*
X408104Y480767D01*
X408378Y481408D01*
X408669Y482042D01*
X408974Y482668D01*
X409295Y483287D01*
X409631Y483897D01*
X409982Y484499D01*
X410348Y485093D01*
X410728Y485677D01*
X411122Y486252D01*
X411531Y486817D01*
X411953Y487371D01*
X412388Y487916D01*
X412837Y488449D01*
X413298Y488971D01*
X413773Y489482D01*
X414260Y489980D01*
X414758Y490467D01*
X415269Y490942D01*
X415791Y491403D01*
X416324Y491852D01*
X416869Y492287D01*
X417423Y492709D01*
X417988Y493118D01*
X418563Y493512D01*
X419147Y493892D01*
X419741Y494258D01*
X420343Y494609D01*
X420953Y494945D01*
X421572Y495266D01*
X422198Y495571D01*
X422832Y495862D01*
X423473Y496136D01*
X424120Y496395D01*
X424773Y496638D01*
X425432Y496865D01*
X426096Y497075D01*
X426766Y497269D01*
X427440Y497447D01*
X428118Y497608D01*
X428800Y497752D01*
X429485Y497880D01*
X430173Y497991D01*
X430864Y498084D01*
X431557Y498161D01*
X432251Y498221D01*
X432947Y498264D01*
X433643Y498289D01*
X434340Y498298D01*
X435037Y498289D01*
X435733Y498264D01*
X436429Y498221D01*
X437123Y498161D01*
X437816Y498084D01*
X438507Y497991D01*
X439195Y497880D01*
X439880Y497752D01*
X440562Y497608D01*
X441240Y497447D01*
X441914Y497269D01*
X442584Y497075D01*
X443248Y496865D01*
X443907Y496638D01*
X444560Y496395D01*
X445207Y496136D01*
X445848Y495862D01*
X446482Y495571D01*
X447108Y495266D01*
X447727Y494945D01*
X448337Y494609D01*
X448939Y494258D01*
X449533Y493892D01*
X450117Y493512D01*
X450692Y493118D01*
X451257Y492709D01*
X451811Y492287D01*
X452356Y491852D01*
X452889Y491403D01*
X453411Y490942D01*
X453922Y490467D01*
X454420Y489980D01*
X454907Y489482D01*
X455382Y488971D01*
X455843Y488449D01*
X456292Y487916D01*
X456727Y487371D01*
X457149Y486817D01*
X457558Y486252D01*
X457952Y485677D01*
X458332Y485093D01*
X458698Y484499D01*
X459049Y483897D01*
X459385Y483287D01*
X459706Y482668D01*
X460011Y482042D01*
X460302Y481408D01*
X460576Y480767D01*
X460835Y480120D01*
X461078Y479467D01*
X461305Y478808D01*
X461515Y478144D01*
X461709Y477474D01*
X461887Y476800D01*
X462048Y476122D01*
X462192Y475440D01*
X462320Y474755D01*
X462431Y474067D01*
X462524Y473376D01*
X462601Y472683D01*
X462661Y471989D01*
X462704Y471293D01*
X462729Y470597D01*
X462738Y469900D01*
X462729Y469203D01*
X462704Y468507D01*
X462661Y467811D01*
X462601Y467117D01*
X462524Y466424D01*
X462431Y465733D01*
X462320Y465045D01*
X462192Y464360D01*
X462048Y463678D01*
X461887Y463000D01*
X461709Y462326D01*
X461515Y461656D01*
X461305Y460992D01*
X461078Y460333D01*
X460835Y459680D01*
X460576Y459033D01*
X460302Y458392D01*
X460011Y457758D01*
X459706Y457132D01*
X459385Y456513D01*
X459049Y455903D01*
X458698Y455301D01*
X458332Y454707D01*
X457952Y454123D01*
X457558Y453548D01*
X457149Y452983D01*
X456727Y452429D01*
X456292Y451884D01*
X455843Y451351D01*
X455382Y450829D01*
X454907Y450318D01*
X454420Y449820D01*
X453922Y449333D01*
X453411Y448858D01*
X452889Y448397D01*
X452356Y447948D01*
X451811Y447513D01*
X451257Y447091D01*
X450692Y446682D01*
X450117Y446288D01*
X449533Y445908D01*
X448939Y445542D01*
X448337Y445191D01*
X447727Y444855D01*
X447108Y444534D01*
X446482Y444229D01*
X445848Y443938D01*
X445207Y443664D01*
X444560Y443405D01*
X443907Y443162D01*
X443248Y442935D01*
X442584Y442725D01*
X441914Y442531D01*
X441240Y442353D01*
X440562Y442192D01*
X439880Y442048D01*
X439195Y441920D01*
X438507Y441809D01*
X437816Y441716D01*
X437123Y441639D01*
X436429Y441579D01*
X435733Y441536D01*
X435037Y441511D01*
X434340Y441502D01*
X433643Y441511D01*
X432947Y441536D01*
X432251Y441579D01*
X431557Y441639D01*
X430864Y441716D01*
X430173Y441809D01*
X429485Y441920D01*
X428800Y442048D01*
X428118Y442192D01*
X427440Y442353D01*
X426766Y442531D01*
X426096Y442725D01*
X425432Y442935D01*
X424773Y443162D01*
X424120Y443405D01*
X423473Y443664D01*
X422832Y443938D01*
X422198Y444229D01*
X421572Y444534D01*
X420953Y444855D01*
X420343Y445191D01*
X419741Y445542D01*
X419147Y445908D01*
X418563Y446288D01*
X417988Y446682D01*
X417423Y447091D01*
X416869Y447513D01*
X416324Y447948D01*
X415791Y448397D01*
X415269Y448858D01*
X414758Y449333D01*
X414260Y449820D01*
X413773Y450318D01*
X413298Y450829D01*
X412837Y451351D01*
X412388Y451884D01*
X411953Y452429D01*
X411531Y452983D01*
X411122Y453548D01*
X410728Y454123D01*
X410348Y454707D01*
X409982Y455301D01*
X409631Y455903D01*
X409295Y456513D01*
X408974Y457132D01*
X408669Y457758D01*
X408378Y458392D01*
X408104Y459033D01*
X407845Y459680D01*
X407602Y460333D01*
X407375Y460992D01*
X407165Y461656D01*
X406971Y462326D01*
X406793Y463000D01*
X406632Y463678D01*
X406488Y464360D01*
X406360Y465045D01*
X406249Y465733D01*
X406156Y466424D01*
X406079Y467117D01*
X406019Y467811D01*
X405976Y468507D01*
X405951Y469203D01*
X405942Y469900D01*
D11*
X421640Y482600D02*
X421640Y488950D01*
X421640Y482600D02*
X421640Y476250D01*
X421640Y482600D02*
X415290Y482600D01*
X421640Y482600D02*
X427990Y482600D01*
D12*
X416325Y500711D02*
X413728Y500711D01*
X413728Y500712D02*
X413629Y500714D01*
X413529Y500720D01*
X413430Y500729D01*
X413332Y500742D01*
X413234Y500759D01*
X413136Y500780D01*
X413040Y500805D01*
X412945Y500833D01*
X412851Y500865D01*
X412758Y500900D01*
X412666Y500939D01*
X412576Y500982D01*
X412488Y501027D01*
X412401Y501077D01*
X412317Y501129D01*
X412234Y501185D01*
X412154Y501243D01*
X412076Y501305D01*
X412001Y501370D01*
X411928Y501438D01*
X411858Y501508D01*
X411790Y501581D01*
X411725Y501656D01*
X411663Y501734D01*
X411605Y501814D01*
X411549Y501897D01*
X411497Y501981D01*
X411447Y502068D01*
X411402Y502156D01*
X411359Y502246D01*
X411320Y502338D01*
X411285Y502431D01*
X411253Y502525D01*
X411225Y502620D01*
X411200Y502716D01*
X411179Y502814D01*
X411162Y502912D01*
X411149Y503010D01*
X411140Y503109D01*
X411134Y503209D01*
X411132Y503308D01*
X411132Y509799D01*
X411134Y509898D01*
X411140Y509998D01*
X411149Y510097D01*
X411162Y510195D01*
X411179Y510293D01*
X411200Y510391D01*
X411225Y510487D01*
X411253Y510582D01*
X411285Y510676D01*
X411320Y510769D01*
X411359Y510861D01*
X411402Y510951D01*
X411447Y511039D01*
X411497Y511126D01*
X411549Y511210D01*
X411605Y511293D01*
X411663Y511373D01*
X411725Y511451D01*
X411790Y511526D01*
X411858Y511599D01*
X411928Y511669D01*
X412001Y511737D01*
X412076Y511802D01*
X412154Y511864D01*
X412234Y511922D01*
X412317Y511978D01*
X412401Y512030D01*
X412488Y512080D01*
X412576Y512125D01*
X412666Y512168D01*
X412758Y512207D01*
X412850Y512242D01*
X412945Y512274D01*
X413040Y512302D01*
X413136Y512327D01*
X413234Y512348D01*
X413332Y512365D01*
X413430Y512378D01*
X413529Y512387D01*
X413629Y512393D01*
X413728Y512395D01*
X416325Y512395D01*
X420690Y509799D02*
X423936Y512395D01*
X423936Y500711D01*
X427181Y500711D02*
X420690Y500711D01*
X432120Y500711D02*
X435366Y500711D01*
X435479Y500713D01*
X435592Y500719D01*
X435705Y500729D01*
X435818Y500743D01*
X435930Y500760D01*
X436041Y500782D01*
X436151Y500807D01*
X436261Y500837D01*
X436369Y500870D01*
X436476Y500907D01*
X436582Y500947D01*
X436686Y500992D01*
X436789Y501040D01*
X436890Y501091D01*
X436989Y501146D01*
X437086Y501204D01*
X437181Y501266D01*
X437274Y501331D01*
X437364Y501399D01*
X437452Y501470D01*
X437538Y501545D01*
X437621Y501622D01*
X437701Y501702D01*
X437778Y501785D01*
X437853Y501871D01*
X437924Y501959D01*
X437992Y502049D01*
X438057Y502142D01*
X438119Y502237D01*
X438177Y502334D01*
X438232Y502433D01*
X438283Y502534D01*
X438331Y502637D01*
X438376Y502741D01*
X438416Y502847D01*
X438453Y502954D01*
X438486Y503062D01*
X438516Y503172D01*
X438541Y503282D01*
X438563Y503393D01*
X438580Y503505D01*
X438594Y503618D01*
X438604Y503731D01*
X438610Y503844D01*
X438612Y503957D01*
X438610Y504070D01*
X438604Y504183D01*
X438594Y504296D01*
X438580Y504409D01*
X438563Y504521D01*
X438541Y504632D01*
X438516Y504742D01*
X438486Y504852D01*
X438453Y504960D01*
X438416Y505067D01*
X438376Y505173D01*
X438331Y505277D01*
X438283Y505380D01*
X438232Y505481D01*
X438177Y505580D01*
X438119Y505677D01*
X438057Y505772D01*
X437992Y505865D01*
X437924Y505955D01*
X437853Y506043D01*
X437778Y506129D01*
X437701Y506212D01*
X437621Y506292D01*
X437538Y506369D01*
X437452Y506444D01*
X437364Y506515D01*
X437274Y506583D01*
X437181Y506648D01*
X437086Y506710D01*
X436989Y506768D01*
X436890Y506823D01*
X436789Y506874D01*
X436686Y506922D01*
X436582Y506967D01*
X436476Y507007D01*
X436369Y507044D01*
X436261Y507077D01*
X436151Y507107D01*
X436041Y507132D01*
X435930Y507154D01*
X435818Y507171D01*
X435705Y507185D01*
X435592Y507195D01*
X435479Y507201D01*
X435366Y507203D01*
X436015Y512395D02*
X432120Y512395D01*
X436015Y512395D02*
X436116Y512393D01*
X436216Y512387D01*
X436316Y512377D01*
X436416Y512364D01*
X436515Y512346D01*
X436614Y512325D01*
X436711Y512300D01*
X436808Y512271D01*
X436903Y512238D01*
X436997Y512202D01*
X437089Y512162D01*
X437180Y512119D01*
X437269Y512072D01*
X437356Y512022D01*
X437442Y511968D01*
X437525Y511911D01*
X437605Y511851D01*
X437684Y511788D01*
X437760Y511721D01*
X437833Y511652D01*
X437903Y511580D01*
X437971Y511506D01*
X438036Y511429D01*
X438097Y511349D01*
X438156Y511267D01*
X438211Y511183D01*
X438263Y511097D01*
X438312Y511009D01*
X438357Y510919D01*
X438399Y510827D01*
X438437Y510734D01*
X438471Y510639D01*
X438502Y510544D01*
X438529Y510447D01*
X438552Y510349D01*
X438572Y510250D01*
X438587Y510150D01*
X438599Y510050D01*
X438607Y509950D01*
X438611Y509849D01*
X438611Y509749D01*
X438607Y509648D01*
X438599Y509548D01*
X438587Y509448D01*
X438572Y509348D01*
X438552Y509249D01*
X438529Y509151D01*
X438502Y509054D01*
X438471Y508959D01*
X438437Y508864D01*
X438399Y508771D01*
X438357Y508679D01*
X438312Y508589D01*
X438263Y508501D01*
X438211Y508415D01*
X438156Y508331D01*
X438097Y508249D01*
X438036Y508169D01*
X437971Y508092D01*
X437903Y508018D01*
X437833Y507946D01*
X437760Y507877D01*
X437684Y507810D01*
X437605Y507747D01*
X437525Y507687D01*
X437442Y507630D01*
X437356Y507576D01*
X437269Y507526D01*
X437180Y507479D01*
X437089Y507436D01*
X436997Y507396D01*
X436903Y507360D01*
X436808Y507327D01*
X436711Y507298D01*
X436614Y507273D01*
X436515Y507252D01*
X436416Y507234D01*
X436316Y507221D01*
X436216Y507211D01*
X436116Y507205D01*
X436015Y507203D01*
X436015Y507202D02*
X433418Y507202D01*
D10*
X499922Y474980D02*
X499931Y475677D01*
X499956Y476373D01*
X499999Y477069D01*
X500059Y477763D01*
X500136Y478456D01*
X500229Y479147D01*
X500340Y479835D01*
X500468Y480520D01*
X500612Y481202D01*
X500773Y481880D01*
X500951Y482554D01*
X501145Y483224D01*
X501355Y483888D01*
X501582Y484547D01*
X501825Y485200D01*
X502084Y485847D01*
X502358Y486488D01*
X502649Y487122D01*
X502954Y487748D01*
X503275Y488367D01*
X503611Y488977D01*
X503962Y489579D01*
X504328Y490173D01*
X504708Y490757D01*
X505102Y491332D01*
X505511Y491897D01*
X505933Y492451D01*
X506368Y492996D01*
X506817Y493529D01*
X507278Y494051D01*
X507753Y494562D01*
X508240Y495060D01*
X508738Y495547D01*
X509249Y496022D01*
X509771Y496483D01*
X510304Y496932D01*
X510849Y497367D01*
X511403Y497789D01*
X511968Y498198D01*
X512543Y498592D01*
X513127Y498972D01*
X513721Y499338D01*
X514323Y499689D01*
X514933Y500025D01*
X515552Y500346D01*
X516178Y500651D01*
X516812Y500942D01*
X517453Y501216D01*
X518100Y501475D01*
X518753Y501718D01*
X519412Y501945D01*
X520076Y502155D01*
X520746Y502349D01*
X521420Y502527D01*
X522098Y502688D01*
X522780Y502832D01*
X523465Y502960D01*
X524153Y503071D01*
X524844Y503164D01*
X525537Y503241D01*
X526231Y503301D01*
X526927Y503344D01*
X527623Y503369D01*
X528320Y503378D01*
X529017Y503369D01*
X529713Y503344D01*
X530409Y503301D01*
X531103Y503241D01*
X531796Y503164D01*
X532487Y503071D01*
X533175Y502960D01*
X533860Y502832D01*
X534542Y502688D01*
X535220Y502527D01*
X535894Y502349D01*
X536564Y502155D01*
X537228Y501945D01*
X537887Y501718D01*
X538540Y501475D01*
X539187Y501216D01*
X539828Y500942D01*
X540462Y500651D01*
X541088Y500346D01*
X541707Y500025D01*
X542317Y499689D01*
X542919Y499338D01*
X543513Y498972D01*
X544097Y498592D01*
X544672Y498198D01*
X545237Y497789D01*
X545791Y497367D01*
X546336Y496932D01*
X546869Y496483D01*
X547391Y496022D01*
X547902Y495547D01*
X548400Y495060D01*
X548887Y494562D01*
X549362Y494051D01*
X549823Y493529D01*
X550272Y492996D01*
X550707Y492451D01*
X551129Y491897D01*
X551538Y491332D01*
X551932Y490757D01*
X552312Y490173D01*
X552678Y489579D01*
X553029Y488977D01*
X553365Y488367D01*
X553686Y487748D01*
X553991Y487122D01*
X554282Y486488D01*
X554556Y485847D01*
X554815Y485200D01*
X555058Y484547D01*
X555285Y483888D01*
X555495Y483224D01*
X555689Y482554D01*
X555867Y481880D01*
X556028Y481202D01*
X556172Y480520D01*
X556300Y479835D01*
X556411Y479147D01*
X556504Y478456D01*
X556581Y477763D01*
X556641Y477069D01*
X556684Y476373D01*
X556709Y475677D01*
X556718Y474980D01*
X556709Y474283D01*
X556684Y473587D01*
X556641Y472891D01*
X556581Y472197D01*
X556504Y471504D01*
X556411Y470813D01*
X556300Y470125D01*
X556172Y469440D01*
X556028Y468758D01*
X555867Y468080D01*
X555689Y467406D01*
X555495Y466736D01*
X555285Y466072D01*
X555058Y465413D01*
X554815Y464760D01*
X554556Y464113D01*
X554282Y463472D01*
X553991Y462838D01*
X553686Y462212D01*
X553365Y461593D01*
X553029Y460983D01*
X552678Y460381D01*
X552312Y459787D01*
X551932Y459203D01*
X551538Y458628D01*
X551129Y458063D01*
X550707Y457509D01*
X550272Y456964D01*
X549823Y456431D01*
X549362Y455909D01*
X548887Y455398D01*
X548400Y454900D01*
X547902Y454413D01*
X547391Y453938D01*
X546869Y453477D01*
X546336Y453028D01*
X545791Y452593D01*
X545237Y452171D01*
X544672Y451762D01*
X544097Y451368D01*
X543513Y450988D01*
X542919Y450622D01*
X542317Y450271D01*
X541707Y449935D01*
X541088Y449614D01*
X540462Y449309D01*
X539828Y449018D01*
X539187Y448744D01*
X538540Y448485D01*
X537887Y448242D01*
X537228Y448015D01*
X536564Y447805D01*
X535894Y447611D01*
X535220Y447433D01*
X534542Y447272D01*
X533860Y447128D01*
X533175Y447000D01*
X532487Y446889D01*
X531796Y446796D01*
X531103Y446719D01*
X530409Y446659D01*
X529713Y446616D01*
X529017Y446591D01*
X528320Y446582D01*
X527623Y446591D01*
X526927Y446616D01*
X526231Y446659D01*
X525537Y446719D01*
X524844Y446796D01*
X524153Y446889D01*
X523465Y447000D01*
X522780Y447128D01*
X522098Y447272D01*
X521420Y447433D01*
X520746Y447611D01*
X520076Y447805D01*
X519412Y448015D01*
X518753Y448242D01*
X518100Y448485D01*
X517453Y448744D01*
X516812Y449018D01*
X516178Y449309D01*
X515552Y449614D01*
X514933Y449935D01*
X514323Y450271D01*
X513721Y450622D01*
X513127Y450988D01*
X512543Y451368D01*
X511968Y451762D01*
X511403Y452171D01*
X510849Y452593D01*
X510304Y453028D01*
X509771Y453477D01*
X509249Y453938D01*
X508738Y454413D01*
X508240Y454900D01*
X507753Y455398D01*
X507278Y455909D01*
X506817Y456431D01*
X506368Y456964D01*
X505933Y457509D01*
X505511Y458063D01*
X505102Y458628D01*
X504708Y459203D01*
X504328Y459787D01*
X503962Y460381D01*
X503611Y460983D01*
X503275Y461593D01*
X502954Y462212D01*
X502649Y462838D01*
X502358Y463472D01*
X502084Y464113D01*
X501825Y464760D01*
X501582Y465413D01*
X501355Y466072D01*
X501145Y466736D01*
X500951Y467406D01*
X500773Y468080D01*
X500612Y468758D01*
X500468Y469440D01*
X500340Y470125D01*
X500229Y470813D01*
X500136Y471504D01*
X500059Y472197D01*
X499999Y472891D01*
X499956Y473587D01*
X499931Y474283D01*
X499922Y474980D01*
D11*
X515620Y487680D02*
X515620Y494030D01*
X515620Y487680D02*
X515620Y481330D01*
X515620Y487680D02*
X509270Y487680D01*
X515620Y487680D02*
X521970Y487680D01*
D12*
X510305Y505791D02*
X507708Y505791D01*
X507708Y505792D02*
X507609Y505794D01*
X507509Y505800D01*
X507410Y505809D01*
X507312Y505822D01*
X507214Y505839D01*
X507116Y505860D01*
X507020Y505885D01*
X506925Y505913D01*
X506831Y505945D01*
X506738Y505980D01*
X506646Y506019D01*
X506556Y506062D01*
X506468Y506107D01*
X506381Y506157D01*
X506297Y506209D01*
X506214Y506265D01*
X506134Y506323D01*
X506056Y506385D01*
X505981Y506450D01*
X505908Y506518D01*
X505838Y506588D01*
X505770Y506661D01*
X505705Y506736D01*
X505643Y506814D01*
X505585Y506894D01*
X505529Y506977D01*
X505477Y507061D01*
X505427Y507148D01*
X505382Y507236D01*
X505339Y507326D01*
X505300Y507418D01*
X505265Y507511D01*
X505233Y507605D01*
X505205Y507700D01*
X505180Y507796D01*
X505159Y507894D01*
X505142Y507992D01*
X505129Y508090D01*
X505120Y508189D01*
X505114Y508289D01*
X505112Y508388D01*
X505112Y514879D01*
X505114Y514978D01*
X505120Y515078D01*
X505129Y515177D01*
X505142Y515275D01*
X505159Y515373D01*
X505180Y515471D01*
X505205Y515567D01*
X505233Y515662D01*
X505265Y515756D01*
X505300Y515849D01*
X505339Y515941D01*
X505382Y516031D01*
X505427Y516119D01*
X505477Y516206D01*
X505529Y516290D01*
X505585Y516373D01*
X505643Y516453D01*
X505705Y516531D01*
X505770Y516606D01*
X505838Y516679D01*
X505908Y516749D01*
X505981Y516817D01*
X506056Y516882D01*
X506134Y516944D01*
X506214Y517002D01*
X506297Y517058D01*
X506381Y517110D01*
X506468Y517160D01*
X506556Y517205D01*
X506646Y517248D01*
X506738Y517287D01*
X506830Y517322D01*
X506925Y517354D01*
X507020Y517382D01*
X507116Y517407D01*
X507214Y517428D01*
X507312Y517445D01*
X507410Y517458D01*
X507509Y517467D01*
X507609Y517473D01*
X507708Y517475D01*
X510305Y517475D01*
X514670Y514879D02*
X517916Y517475D01*
X517916Y505791D01*
X521161Y505791D02*
X514670Y505791D01*
X526100Y508388D02*
X528697Y517475D01*
X526100Y508388D02*
X532591Y508388D01*
X530644Y510984D02*
X530644Y505791D01*
D10*
X111302Y612140D02*
X111311Y612837D01*
X111336Y613533D01*
X111379Y614229D01*
X111439Y614923D01*
X111516Y615616D01*
X111609Y616307D01*
X111720Y616995D01*
X111848Y617680D01*
X111992Y618362D01*
X112153Y619040D01*
X112331Y619714D01*
X112525Y620384D01*
X112735Y621048D01*
X112962Y621707D01*
X113205Y622360D01*
X113464Y623007D01*
X113738Y623648D01*
X114029Y624282D01*
X114334Y624908D01*
X114655Y625527D01*
X114991Y626137D01*
X115342Y626739D01*
X115708Y627333D01*
X116088Y627917D01*
X116482Y628492D01*
X116891Y629057D01*
X117313Y629611D01*
X117748Y630156D01*
X118197Y630689D01*
X118658Y631211D01*
X119133Y631722D01*
X119620Y632220D01*
X120118Y632707D01*
X120629Y633182D01*
X121151Y633643D01*
X121684Y634092D01*
X122229Y634527D01*
X122783Y634949D01*
X123348Y635358D01*
X123923Y635752D01*
X124507Y636132D01*
X125101Y636498D01*
X125703Y636849D01*
X126313Y637185D01*
X126932Y637506D01*
X127558Y637811D01*
X128192Y638102D01*
X128833Y638376D01*
X129480Y638635D01*
X130133Y638878D01*
X130792Y639105D01*
X131456Y639315D01*
X132126Y639509D01*
X132800Y639687D01*
X133478Y639848D01*
X134160Y639992D01*
X134845Y640120D01*
X135533Y640231D01*
X136224Y640324D01*
X136917Y640401D01*
X137611Y640461D01*
X138307Y640504D01*
X139003Y640529D01*
X139700Y640538D01*
X140397Y640529D01*
X141093Y640504D01*
X141789Y640461D01*
X142483Y640401D01*
X143176Y640324D01*
X143867Y640231D01*
X144555Y640120D01*
X145240Y639992D01*
X145922Y639848D01*
X146600Y639687D01*
X147274Y639509D01*
X147944Y639315D01*
X148608Y639105D01*
X149267Y638878D01*
X149920Y638635D01*
X150567Y638376D01*
X151208Y638102D01*
X151842Y637811D01*
X152468Y637506D01*
X153087Y637185D01*
X153697Y636849D01*
X154299Y636498D01*
X154893Y636132D01*
X155477Y635752D01*
X156052Y635358D01*
X156617Y634949D01*
X157171Y634527D01*
X157716Y634092D01*
X158249Y633643D01*
X158771Y633182D01*
X159282Y632707D01*
X159780Y632220D01*
X160267Y631722D01*
X160742Y631211D01*
X161203Y630689D01*
X161652Y630156D01*
X162087Y629611D01*
X162509Y629057D01*
X162918Y628492D01*
X163312Y627917D01*
X163692Y627333D01*
X164058Y626739D01*
X164409Y626137D01*
X164745Y625527D01*
X165066Y624908D01*
X165371Y624282D01*
X165662Y623648D01*
X165936Y623007D01*
X166195Y622360D01*
X166438Y621707D01*
X166665Y621048D01*
X166875Y620384D01*
X167069Y619714D01*
X167247Y619040D01*
X167408Y618362D01*
X167552Y617680D01*
X167680Y616995D01*
X167791Y616307D01*
X167884Y615616D01*
X167961Y614923D01*
X168021Y614229D01*
X168064Y613533D01*
X168089Y612837D01*
X168098Y612140D01*
X168089Y611443D01*
X168064Y610747D01*
X168021Y610051D01*
X167961Y609357D01*
X167884Y608664D01*
X167791Y607973D01*
X167680Y607285D01*
X167552Y606600D01*
X167408Y605918D01*
X167247Y605240D01*
X167069Y604566D01*
X166875Y603896D01*
X166665Y603232D01*
X166438Y602573D01*
X166195Y601920D01*
X165936Y601273D01*
X165662Y600632D01*
X165371Y599998D01*
X165066Y599372D01*
X164745Y598753D01*
X164409Y598143D01*
X164058Y597541D01*
X163692Y596947D01*
X163312Y596363D01*
X162918Y595788D01*
X162509Y595223D01*
X162087Y594669D01*
X161652Y594124D01*
X161203Y593591D01*
X160742Y593069D01*
X160267Y592558D01*
X159780Y592060D01*
X159282Y591573D01*
X158771Y591098D01*
X158249Y590637D01*
X157716Y590188D01*
X157171Y589753D01*
X156617Y589331D01*
X156052Y588922D01*
X155477Y588528D01*
X154893Y588148D01*
X154299Y587782D01*
X153697Y587431D01*
X153087Y587095D01*
X152468Y586774D01*
X151842Y586469D01*
X151208Y586178D01*
X150567Y585904D01*
X149920Y585645D01*
X149267Y585402D01*
X148608Y585175D01*
X147944Y584965D01*
X147274Y584771D01*
X146600Y584593D01*
X145922Y584432D01*
X145240Y584288D01*
X144555Y584160D01*
X143867Y584049D01*
X143176Y583956D01*
X142483Y583879D01*
X141789Y583819D01*
X141093Y583776D01*
X140397Y583751D01*
X139700Y583742D01*
X139003Y583751D01*
X138307Y583776D01*
X137611Y583819D01*
X136917Y583879D01*
X136224Y583956D01*
X135533Y584049D01*
X134845Y584160D01*
X134160Y584288D01*
X133478Y584432D01*
X132800Y584593D01*
X132126Y584771D01*
X131456Y584965D01*
X130792Y585175D01*
X130133Y585402D01*
X129480Y585645D01*
X128833Y585904D01*
X128192Y586178D01*
X127558Y586469D01*
X126932Y586774D01*
X126313Y587095D01*
X125703Y587431D01*
X125101Y587782D01*
X124507Y588148D01*
X123923Y588528D01*
X123348Y588922D01*
X122783Y589331D01*
X122229Y589753D01*
X121684Y590188D01*
X121151Y590637D01*
X120629Y591098D01*
X120118Y591573D01*
X119620Y592060D01*
X119133Y592558D01*
X118658Y593069D01*
X118197Y593591D01*
X117748Y594124D01*
X117313Y594669D01*
X116891Y595223D01*
X116482Y595788D01*
X116088Y596363D01*
X115708Y596947D01*
X115342Y597541D01*
X114991Y598143D01*
X114655Y598753D01*
X114334Y599372D01*
X114029Y599998D01*
X113738Y600632D01*
X113464Y601273D01*
X113205Y601920D01*
X112962Y602573D01*
X112735Y603232D01*
X112525Y603896D01*
X112331Y604566D01*
X112153Y605240D01*
X111992Y605918D01*
X111848Y606600D01*
X111720Y607285D01*
X111609Y607973D01*
X111516Y608664D01*
X111439Y609357D01*
X111379Y610051D01*
X111336Y610747D01*
X111311Y611443D01*
X111302Y612140D01*
D11*
X152400Y599440D02*
X152400Y593090D01*
X152400Y599440D02*
X152400Y605790D01*
X152400Y599440D02*
X158750Y599440D01*
X152400Y599440D02*
X146050Y599440D01*
D12*
X127922Y556945D02*
X125325Y556945D01*
X125226Y556947D01*
X125126Y556953D01*
X125027Y556962D01*
X124929Y556975D01*
X124831Y556992D01*
X124733Y557013D01*
X124637Y557038D01*
X124542Y557066D01*
X124448Y557098D01*
X124355Y557133D01*
X124263Y557172D01*
X124173Y557215D01*
X124085Y557260D01*
X123998Y557310D01*
X123914Y557362D01*
X123831Y557418D01*
X123751Y557476D01*
X123673Y557538D01*
X123598Y557603D01*
X123525Y557671D01*
X123455Y557741D01*
X123387Y557814D01*
X123322Y557889D01*
X123260Y557967D01*
X123202Y558047D01*
X123146Y558130D01*
X123094Y558214D01*
X123044Y558301D01*
X122999Y558389D01*
X122956Y558479D01*
X122917Y558571D01*
X122882Y558664D01*
X122850Y558758D01*
X122822Y558853D01*
X122797Y558949D01*
X122776Y559047D01*
X122759Y559145D01*
X122746Y559243D01*
X122737Y559342D01*
X122731Y559442D01*
X122729Y559541D01*
X122729Y566032D01*
X122731Y566131D01*
X122737Y566231D01*
X122746Y566330D01*
X122759Y566428D01*
X122776Y566526D01*
X122797Y566624D01*
X122822Y566720D01*
X122850Y566815D01*
X122882Y566909D01*
X122917Y567002D01*
X122956Y567094D01*
X122999Y567184D01*
X123044Y567272D01*
X123094Y567359D01*
X123146Y567443D01*
X123202Y567526D01*
X123260Y567606D01*
X123322Y567684D01*
X123387Y567759D01*
X123455Y567832D01*
X123525Y567902D01*
X123598Y567970D01*
X123673Y568035D01*
X123751Y568097D01*
X123831Y568155D01*
X123914Y568211D01*
X123998Y568263D01*
X124085Y568313D01*
X124173Y568358D01*
X124263Y568401D01*
X124355Y568440D01*
X124447Y568475D01*
X124542Y568507D01*
X124637Y568535D01*
X124733Y568560D01*
X124831Y568581D01*
X124929Y568598D01*
X125027Y568611D01*
X125126Y568620D01*
X125226Y568626D01*
X125325Y568628D01*
X125325Y568629D02*
X127922Y568629D01*
X132287Y566032D02*
X135532Y568629D01*
X135532Y556945D01*
X132287Y556945D02*
X138778Y556945D01*
X143717Y567331D02*
X143717Y568629D01*
X150208Y568629D01*
X146962Y556945D01*
D10*
X263702Y622300D02*
X263711Y622997D01*
X263736Y623693D01*
X263779Y624389D01*
X263839Y625083D01*
X263916Y625776D01*
X264009Y626467D01*
X264120Y627155D01*
X264248Y627840D01*
X264392Y628522D01*
X264553Y629200D01*
X264731Y629874D01*
X264925Y630544D01*
X265135Y631208D01*
X265362Y631867D01*
X265605Y632520D01*
X265864Y633167D01*
X266138Y633808D01*
X266429Y634442D01*
X266734Y635068D01*
X267055Y635687D01*
X267391Y636297D01*
X267742Y636899D01*
X268108Y637493D01*
X268488Y638077D01*
X268882Y638652D01*
X269291Y639217D01*
X269713Y639771D01*
X270148Y640316D01*
X270597Y640849D01*
X271058Y641371D01*
X271533Y641882D01*
X272020Y642380D01*
X272518Y642867D01*
X273029Y643342D01*
X273551Y643803D01*
X274084Y644252D01*
X274629Y644687D01*
X275183Y645109D01*
X275748Y645518D01*
X276323Y645912D01*
X276907Y646292D01*
X277501Y646658D01*
X278103Y647009D01*
X278713Y647345D01*
X279332Y647666D01*
X279958Y647971D01*
X280592Y648262D01*
X281233Y648536D01*
X281880Y648795D01*
X282533Y649038D01*
X283192Y649265D01*
X283856Y649475D01*
X284526Y649669D01*
X285200Y649847D01*
X285878Y650008D01*
X286560Y650152D01*
X287245Y650280D01*
X287933Y650391D01*
X288624Y650484D01*
X289317Y650561D01*
X290011Y650621D01*
X290707Y650664D01*
X291403Y650689D01*
X292100Y650698D01*
X292797Y650689D01*
X293493Y650664D01*
X294189Y650621D01*
X294883Y650561D01*
X295576Y650484D01*
X296267Y650391D01*
X296955Y650280D01*
X297640Y650152D01*
X298322Y650008D01*
X299000Y649847D01*
X299674Y649669D01*
X300344Y649475D01*
X301008Y649265D01*
X301667Y649038D01*
X302320Y648795D01*
X302967Y648536D01*
X303608Y648262D01*
X304242Y647971D01*
X304868Y647666D01*
X305487Y647345D01*
X306097Y647009D01*
X306699Y646658D01*
X307293Y646292D01*
X307877Y645912D01*
X308452Y645518D01*
X309017Y645109D01*
X309571Y644687D01*
X310116Y644252D01*
X310649Y643803D01*
X311171Y643342D01*
X311682Y642867D01*
X312180Y642380D01*
X312667Y641882D01*
X313142Y641371D01*
X313603Y640849D01*
X314052Y640316D01*
X314487Y639771D01*
X314909Y639217D01*
X315318Y638652D01*
X315712Y638077D01*
X316092Y637493D01*
X316458Y636899D01*
X316809Y636297D01*
X317145Y635687D01*
X317466Y635068D01*
X317771Y634442D01*
X318062Y633808D01*
X318336Y633167D01*
X318595Y632520D01*
X318838Y631867D01*
X319065Y631208D01*
X319275Y630544D01*
X319469Y629874D01*
X319647Y629200D01*
X319808Y628522D01*
X319952Y627840D01*
X320080Y627155D01*
X320191Y626467D01*
X320284Y625776D01*
X320361Y625083D01*
X320421Y624389D01*
X320464Y623693D01*
X320489Y622997D01*
X320498Y622300D01*
X320489Y621603D01*
X320464Y620907D01*
X320421Y620211D01*
X320361Y619517D01*
X320284Y618824D01*
X320191Y618133D01*
X320080Y617445D01*
X319952Y616760D01*
X319808Y616078D01*
X319647Y615400D01*
X319469Y614726D01*
X319275Y614056D01*
X319065Y613392D01*
X318838Y612733D01*
X318595Y612080D01*
X318336Y611433D01*
X318062Y610792D01*
X317771Y610158D01*
X317466Y609532D01*
X317145Y608913D01*
X316809Y608303D01*
X316458Y607701D01*
X316092Y607107D01*
X315712Y606523D01*
X315318Y605948D01*
X314909Y605383D01*
X314487Y604829D01*
X314052Y604284D01*
X313603Y603751D01*
X313142Y603229D01*
X312667Y602718D01*
X312180Y602220D01*
X311682Y601733D01*
X311171Y601258D01*
X310649Y600797D01*
X310116Y600348D01*
X309571Y599913D01*
X309017Y599491D01*
X308452Y599082D01*
X307877Y598688D01*
X307293Y598308D01*
X306699Y597942D01*
X306097Y597591D01*
X305487Y597255D01*
X304868Y596934D01*
X304242Y596629D01*
X303608Y596338D01*
X302967Y596064D01*
X302320Y595805D01*
X301667Y595562D01*
X301008Y595335D01*
X300344Y595125D01*
X299674Y594931D01*
X299000Y594753D01*
X298322Y594592D01*
X297640Y594448D01*
X296955Y594320D01*
X296267Y594209D01*
X295576Y594116D01*
X294883Y594039D01*
X294189Y593979D01*
X293493Y593936D01*
X292797Y593911D01*
X292100Y593902D01*
X291403Y593911D01*
X290707Y593936D01*
X290011Y593979D01*
X289317Y594039D01*
X288624Y594116D01*
X287933Y594209D01*
X287245Y594320D01*
X286560Y594448D01*
X285878Y594592D01*
X285200Y594753D01*
X284526Y594931D01*
X283856Y595125D01*
X283192Y595335D01*
X282533Y595562D01*
X281880Y595805D01*
X281233Y596064D01*
X280592Y596338D01*
X279958Y596629D01*
X279332Y596934D01*
X278713Y597255D01*
X278103Y597591D01*
X277501Y597942D01*
X276907Y598308D01*
X276323Y598688D01*
X275748Y599082D01*
X275183Y599491D01*
X274629Y599913D01*
X274084Y600348D01*
X273551Y600797D01*
X273029Y601258D01*
X272518Y601733D01*
X272020Y602220D01*
X271533Y602718D01*
X271058Y603229D01*
X270597Y603751D01*
X270148Y604284D01*
X269713Y604829D01*
X269291Y605383D01*
X268882Y605948D01*
X268488Y606523D01*
X268108Y607107D01*
X267742Y607701D01*
X267391Y608303D01*
X267055Y608913D01*
X266734Y609532D01*
X266429Y610158D01*
X266138Y610792D01*
X265864Y611433D01*
X265605Y612080D01*
X265362Y612733D01*
X265135Y613392D01*
X264925Y614056D01*
X264731Y614726D01*
X264553Y615400D01*
X264392Y616078D01*
X264248Y616760D01*
X264120Y617445D01*
X264009Y618133D01*
X263916Y618824D01*
X263839Y619517D01*
X263779Y620211D01*
X263736Y620907D01*
X263711Y621603D01*
X263702Y622300D01*
D11*
X279400Y635000D02*
X279400Y641350D01*
X279400Y635000D02*
X279400Y628650D01*
X279400Y635000D02*
X273050Y635000D01*
X279400Y635000D02*
X285750Y635000D01*
D12*
X274085Y653111D02*
X271488Y653111D01*
X271488Y653112D02*
X271389Y653114D01*
X271289Y653120D01*
X271190Y653129D01*
X271092Y653142D01*
X270994Y653159D01*
X270896Y653180D01*
X270800Y653205D01*
X270705Y653233D01*
X270611Y653265D01*
X270518Y653300D01*
X270426Y653339D01*
X270336Y653382D01*
X270248Y653427D01*
X270161Y653477D01*
X270077Y653529D01*
X269994Y653585D01*
X269914Y653643D01*
X269836Y653705D01*
X269761Y653770D01*
X269688Y653838D01*
X269618Y653908D01*
X269550Y653981D01*
X269485Y654056D01*
X269423Y654134D01*
X269365Y654214D01*
X269309Y654297D01*
X269257Y654381D01*
X269207Y654468D01*
X269162Y654556D01*
X269119Y654646D01*
X269080Y654738D01*
X269045Y654831D01*
X269013Y654925D01*
X268985Y655020D01*
X268960Y655116D01*
X268939Y655214D01*
X268922Y655312D01*
X268909Y655410D01*
X268900Y655509D01*
X268894Y655609D01*
X268892Y655708D01*
X268892Y662199D01*
X268894Y662298D01*
X268900Y662398D01*
X268909Y662497D01*
X268922Y662595D01*
X268939Y662693D01*
X268960Y662791D01*
X268985Y662887D01*
X269013Y662982D01*
X269045Y663076D01*
X269080Y663169D01*
X269119Y663261D01*
X269162Y663351D01*
X269207Y663439D01*
X269257Y663526D01*
X269309Y663610D01*
X269365Y663693D01*
X269423Y663773D01*
X269485Y663851D01*
X269550Y663926D01*
X269618Y663999D01*
X269688Y664069D01*
X269761Y664137D01*
X269836Y664202D01*
X269914Y664264D01*
X269994Y664322D01*
X270077Y664378D01*
X270161Y664430D01*
X270248Y664480D01*
X270336Y664525D01*
X270426Y664568D01*
X270518Y664607D01*
X270610Y664642D01*
X270705Y664674D01*
X270800Y664702D01*
X270896Y664727D01*
X270994Y664748D01*
X271092Y664765D01*
X271190Y664778D01*
X271289Y664787D01*
X271389Y664793D01*
X271488Y664795D01*
X274085Y664795D01*
X278450Y662199D02*
X281696Y664795D01*
X281696Y653111D01*
X284941Y653111D02*
X278450Y653111D01*
X289880Y656357D02*
X289882Y656470D01*
X289888Y656583D01*
X289898Y656696D01*
X289912Y656809D01*
X289929Y656921D01*
X289951Y657032D01*
X289976Y657142D01*
X290006Y657252D01*
X290039Y657360D01*
X290076Y657467D01*
X290116Y657573D01*
X290161Y657677D01*
X290209Y657780D01*
X290260Y657881D01*
X290315Y657980D01*
X290373Y658077D01*
X290435Y658172D01*
X290500Y658265D01*
X290568Y658355D01*
X290639Y658443D01*
X290714Y658529D01*
X290791Y658612D01*
X290871Y658692D01*
X290954Y658769D01*
X291040Y658844D01*
X291128Y658915D01*
X291218Y658983D01*
X291311Y659048D01*
X291406Y659110D01*
X291503Y659168D01*
X291602Y659223D01*
X291703Y659274D01*
X291806Y659322D01*
X291910Y659367D01*
X292016Y659407D01*
X292123Y659444D01*
X292231Y659477D01*
X292341Y659507D01*
X292451Y659532D01*
X292562Y659554D01*
X292674Y659571D01*
X292787Y659585D01*
X292900Y659595D01*
X293013Y659601D01*
X293126Y659603D01*
X293239Y659601D01*
X293352Y659595D01*
X293465Y659585D01*
X293578Y659571D01*
X293690Y659554D01*
X293801Y659532D01*
X293911Y659507D01*
X294021Y659477D01*
X294129Y659444D01*
X294236Y659407D01*
X294342Y659367D01*
X294446Y659322D01*
X294549Y659274D01*
X294650Y659223D01*
X294749Y659168D01*
X294846Y659110D01*
X294941Y659048D01*
X295034Y658983D01*
X295124Y658915D01*
X295212Y658844D01*
X295298Y658769D01*
X295381Y658692D01*
X295461Y658612D01*
X295538Y658529D01*
X295613Y658443D01*
X295684Y658355D01*
X295752Y658265D01*
X295817Y658172D01*
X295879Y658077D01*
X295937Y657980D01*
X295992Y657881D01*
X296043Y657780D01*
X296091Y657677D01*
X296136Y657573D01*
X296176Y657467D01*
X296213Y657360D01*
X296246Y657252D01*
X296276Y657142D01*
X296301Y657032D01*
X296323Y656921D01*
X296340Y656809D01*
X296354Y656696D01*
X296364Y656583D01*
X296370Y656470D01*
X296372Y656357D01*
X296370Y656244D01*
X296364Y656131D01*
X296354Y656018D01*
X296340Y655905D01*
X296323Y655793D01*
X296301Y655682D01*
X296276Y655572D01*
X296246Y655462D01*
X296213Y655354D01*
X296176Y655247D01*
X296136Y655141D01*
X296091Y655037D01*
X296043Y654934D01*
X295992Y654833D01*
X295937Y654734D01*
X295879Y654637D01*
X295817Y654542D01*
X295752Y654449D01*
X295684Y654359D01*
X295613Y654271D01*
X295538Y654185D01*
X295461Y654102D01*
X295381Y654022D01*
X295298Y653945D01*
X295212Y653870D01*
X295124Y653799D01*
X295034Y653731D01*
X294941Y653666D01*
X294846Y653604D01*
X294749Y653546D01*
X294650Y653491D01*
X294549Y653440D01*
X294446Y653392D01*
X294342Y653347D01*
X294236Y653307D01*
X294129Y653270D01*
X294021Y653237D01*
X293911Y653207D01*
X293801Y653182D01*
X293690Y653160D01*
X293578Y653143D01*
X293465Y653129D01*
X293352Y653119D01*
X293239Y653113D01*
X293126Y653111D01*
X293013Y653113D01*
X292900Y653119D01*
X292787Y653129D01*
X292674Y653143D01*
X292562Y653160D01*
X292451Y653182D01*
X292341Y653207D01*
X292231Y653237D01*
X292123Y653270D01*
X292016Y653307D01*
X291910Y653347D01*
X291806Y653392D01*
X291703Y653440D01*
X291602Y653491D01*
X291503Y653546D01*
X291406Y653604D01*
X291311Y653666D01*
X291218Y653731D01*
X291128Y653799D01*
X291040Y653870D01*
X290954Y653945D01*
X290871Y654022D01*
X290791Y654102D01*
X290714Y654185D01*
X290639Y654271D01*
X290568Y654359D01*
X290500Y654449D01*
X290435Y654542D01*
X290373Y654637D01*
X290315Y654734D01*
X290260Y654833D01*
X290209Y654934D01*
X290161Y655037D01*
X290116Y655141D01*
X290076Y655247D01*
X290039Y655354D01*
X290006Y655462D01*
X289976Y655572D01*
X289951Y655682D01*
X289929Y655793D01*
X289912Y655905D01*
X289898Y656018D01*
X289888Y656131D01*
X289882Y656244D01*
X289880Y656357D01*
X290530Y662199D02*
X290532Y662300D01*
X290538Y662400D01*
X290548Y662500D01*
X290561Y662600D01*
X290579Y662699D01*
X290600Y662798D01*
X290625Y662895D01*
X290654Y662992D01*
X290687Y663087D01*
X290723Y663181D01*
X290763Y663273D01*
X290806Y663364D01*
X290853Y663453D01*
X290903Y663540D01*
X290957Y663626D01*
X291014Y663709D01*
X291074Y663789D01*
X291137Y663868D01*
X291204Y663944D01*
X291273Y664017D01*
X291345Y664087D01*
X291419Y664155D01*
X291496Y664220D01*
X291576Y664281D01*
X291658Y664340D01*
X291742Y664395D01*
X291828Y664447D01*
X291916Y664496D01*
X292006Y664541D01*
X292098Y664583D01*
X292191Y664621D01*
X292286Y664655D01*
X292381Y664686D01*
X292478Y664713D01*
X292576Y664736D01*
X292675Y664756D01*
X292775Y664771D01*
X292875Y664783D01*
X292975Y664791D01*
X293076Y664795D01*
X293176Y664795D01*
X293277Y664791D01*
X293377Y664783D01*
X293477Y664771D01*
X293577Y664756D01*
X293676Y664736D01*
X293774Y664713D01*
X293871Y664686D01*
X293966Y664655D01*
X294061Y664621D01*
X294154Y664583D01*
X294246Y664541D01*
X294336Y664496D01*
X294424Y664447D01*
X294510Y664395D01*
X294594Y664340D01*
X294676Y664281D01*
X294756Y664220D01*
X294833Y664155D01*
X294907Y664087D01*
X294979Y664017D01*
X295048Y663944D01*
X295115Y663868D01*
X295178Y663789D01*
X295238Y663709D01*
X295295Y663626D01*
X295349Y663540D01*
X295399Y663453D01*
X295446Y663364D01*
X295489Y663273D01*
X295529Y663181D01*
X295565Y663087D01*
X295598Y662992D01*
X295627Y662895D01*
X295652Y662798D01*
X295673Y662699D01*
X295691Y662600D01*
X295704Y662500D01*
X295714Y662400D01*
X295720Y662300D01*
X295722Y662199D01*
X295720Y662098D01*
X295714Y661998D01*
X295704Y661898D01*
X295691Y661798D01*
X295673Y661699D01*
X295652Y661600D01*
X295627Y661503D01*
X295598Y661406D01*
X295565Y661311D01*
X295529Y661217D01*
X295489Y661125D01*
X295446Y661034D01*
X295399Y660945D01*
X295349Y660858D01*
X295295Y660772D01*
X295238Y660689D01*
X295178Y660609D01*
X295115Y660530D01*
X295048Y660454D01*
X294979Y660381D01*
X294907Y660311D01*
X294833Y660243D01*
X294756Y660178D01*
X294676Y660117D01*
X294594Y660058D01*
X294510Y660003D01*
X294424Y659951D01*
X294336Y659902D01*
X294246Y659857D01*
X294154Y659815D01*
X294061Y659777D01*
X293966Y659743D01*
X293871Y659712D01*
X293774Y659685D01*
X293676Y659662D01*
X293577Y659642D01*
X293477Y659627D01*
X293377Y659615D01*
X293277Y659607D01*
X293176Y659603D01*
X293076Y659603D01*
X292975Y659607D01*
X292875Y659615D01*
X292775Y659627D01*
X292675Y659642D01*
X292576Y659662D01*
X292478Y659685D01*
X292381Y659712D01*
X292286Y659743D01*
X292191Y659777D01*
X292098Y659815D01*
X292006Y659857D01*
X291916Y659902D01*
X291828Y659951D01*
X291742Y660003D01*
X291658Y660058D01*
X291576Y660117D01*
X291496Y660178D01*
X291419Y660243D01*
X291345Y660311D01*
X291273Y660381D01*
X291204Y660454D01*
X291137Y660530D01*
X291074Y660609D01*
X291014Y660689D01*
X290957Y660772D01*
X290903Y660858D01*
X290853Y660945D01*
X290806Y661034D01*
X290763Y661125D01*
X290723Y661217D01*
X290687Y661311D01*
X290654Y661406D01*
X290625Y661503D01*
X290600Y661600D01*
X290579Y661699D01*
X290561Y661798D01*
X290548Y661898D01*
X290538Y661998D01*
X290532Y662098D01*
X290530Y662199D01*
D10*
X896162Y767080D02*
X896171Y767777D01*
X896196Y768473D01*
X896239Y769169D01*
X896299Y769863D01*
X896376Y770556D01*
X896469Y771247D01*
X896580Y771935D01*
X896708Y772620D01*
X896852Y773302D01*
X897013Y773980D01*
X897191Y774654D01*
X897385Y775324D01*
X897595Y775988D01*
X897822Y776647D01*
X898065Y777300D01*
X898324Y777947D01*
X898598Y778588D01*
X898889Y779222D01*
X899194Y779848D01*
X899515Y780467D01*
X899851Y781077D01*
X900202Y781679D01*
X900568Y782273D01*
X900948Y782857D01*
X901342Y783432D01*
X901751Y783997D01*
X902173Y784551D01*
X902608Y785096D01*
X903057Y785629D01*
X903518Y786151D01*
X903993Y786662D01*
X904480Y787160D01*
X904978Y787647D01*
X905489Y788122D01*
X906011Y788583D01*
X906544Y789032D01*
X907089Y789467D01*
X907643Y789889D01*
X908208Y790298D01*
X908783Y790692D01*
X909367Y791072D01*
X909961Y791438D01*
X910563Y791789D01*
X911173Y792125D01*
X911792Y792446D01*
X912418Y792751D01*
X913052Y793042D01*
X913693Y793316D01*
X914340Y793575D01*
X914993Y793818D01*
X915652Y794045D01*
X916316Y794255D01*
X916986Y794449D01*
X917660Y794627D01*
X918338Y794788D01*
X919020Y794932D01*
X919705Y795060D01*
X920393Y795171D01*
X921084Y795264D01*
X921777Y795341D01*
X922471Y795401D01*
X923167Y795444D01*
X923863Y795469D01*
X924560Y795478D01*
X925257Y795469D01*
X925953Y795444D01*
X926649Y795401D01*
X927343Y795341D01*
X928036Y795264D01*
X928727Y795171D01*
X929415Y795060D01*
X930100Y794932D01*
X930782Y794788D01*
X931460Y794627D01*
X932134Y794449D01*
X932804Y794255D01*
X933468Y794045D01*
X934127Y793818D01*
X934780Y793575D01*
X935427Y793316D01*
X936068Y793042D01*
X936702Y792751D01*
X937328Y792446D01*
X937947Y792125D01*
X938557Y791789D01*
X939159Y791438D01*
X939753Y791072D01*
X940337Y790692D01*
X940912Y790298D01*
X941477Y789889D01*
X942031Y789467D01*
X942576Y789032D01*
X943109Y788583D01*
X943631Y788122D01*
X944142Y787647D01*
X944640Y787160D01*
X945127Y786662D01*
X945602Y786151D01*
X946063Y785629D01*
X946512Y785096D01*
X946947Y784551D01*
X947369Y783997D01*
X947778Y783432D01*
X948172Y782857D01*
X948552Y782273D01*
X948918Y781679D01*
X949269Y781077D01*
X949605Y780467D01*
X949926Y779848D01*
X950231Y779222D01*
X950522Y778588D01*
X950796Y777947D01*
X951055Y777300D01*
X951298Y776647D01*
X951525Y775988D01*
X951735Y775324D01*
X951929Y774654D01*
X952107Y773980D01*
X952268Y773302D01*
X952412Y772620D01*
X952540Y771935D01*
X952651Y771247D01*
X952744Y770556D01*
X952821Y769863D01*
X952881Y769169D01*
X952924Y768473D01*
X952949Y767777D01*
X952958Y767080D01*
X952949Y766383D01*
X952924Y765687D01*
X952881Y764991D01*
X952821Y764297D01*
X952744Y763604D01*
X952651Y762913D01*
X952540Y762225D01*
X952412Y761540D01*
X952268Y760858D01*
X952107Y760180D01*
X951929Y759506D01*
X951735Y758836D01*
X951525Y758172D01*
X951298Y757513D01*
X951055Y756860D01*
X950796Y756213D01*
X950522Y755572D01*
X950231Y754938D01*
X949926Y754312D01*
X949605Y753693D01*
X949269Y753083D01*
X948918Y752481D01*
X948552Y751887D01*
X948172Y751303D01*
X947778Y750728D01*
X947369Y750163D01*
X946947Y749609D01*
X946512Y749064D01*
X946063Y748531D01*
X945602Y748009D01*
X945127Y747498D01*
X944640Y747000D01*
X944142Y746513D01*
X943631Y746038D01*
X943109Y745577D01*
X942576Y745128D01*
X942031Y744693D01*
X941477Y744271D01*
X940912Y743862D01*
X940337Y743468D01*
X939753Y743088D01*
X939159Y742722D01*
X938557Y742371D01*
X937947Y742035D01*
X937328Y741714D01*
X936702Y741409D01*
X936068Y741118D01*
X935427Y740844D01*
X934780Y740585D01*
X934127Y740342D01*
X933468Y740115D01*
X932804Y739905D01*
X932134Y739711D01*
X931460Y739533D01*
X930782Y739372D01*
X930100Y739228D01*
X929415Y739100D01*
X928727Y738989D01*
X928036Y738896D01*
X927343Y738819D01*
X926649Y738759D01*
X925953Y738716D01*
X925257Y738691D01*
X924560Y738682D01*
X923863Y738691D01*
X923167Y738716D01*
X922471Y738759D01*
X921777Y738819D01*
X921084Y738896D01*
X920393Y738989D01*
X919705Y739100D01*
X919020Y739228D01*
X918338Y739372D01*
X917660Y739533D01*
X916986Y739711D01*
X916316Y739905D01*
X915652Y740115D01*
X914993Y740342D01*
X914340Y740585D01*
X913693Y740844D01*
X913052Y741118D01*
X912418Y741409D01*
X911792Y741714D01*
X911173Y742035D01*
X910563Y742371D01*
X909961Y742722D01*
X909367Y743088D01*
X908783Y743468D01*
X908208Y743862D01*
X907643Y744271D01*
X907089Y744693D01*
X906544Y745128D01*
X906011Y745577D01*
X905489Y746038D01*
X904978Y746513D01*
X904480Y747000D01*
X903993Y747498D01*
X903518Y748009D01*
X903057Y748531D01*
X902608Y749064D01*
X902173Y749609D01*
X901751Y750163D01*
X901342Y750728D01*
X900948Y751303D01*
X900568Y751887D01*
X900202Y752481D01*
X899851Y753083D01*
X899515Y753693D01*
X899194Y754312D01*
X898889Y754938D01*
X898598Y755572D01*
X898324Y756213D01*
X898065Y756860D01*
X897822Y757513D01*
X897595Y758172D01*
X897385Y758836D01*
X897191Y759506D01*
X897013Y760180D01*
X896852Y760858D01*
X896708Y761540D01*
X896580Y762225D01*
X896469Y762913D01*
X896376Y763604D01*
X896299Y764297D01*
X896239Y764991D01*
X896196Y765687D01*
X896171Y766383D01*
X896162Y767080D01*
D11*
X937260Y779780D02*
X943610Y779780D01*
X937260Y779780D02*
X930910Y779780D01*
X937260Y779780D02*
X937260Y786130D01*
X937260Y779780D02*
X937260Y773430D01*
D12*
X901228Y792574D02*
X898631Y792574D01*
X898532Y792576D01*
X898432Y792582D01*
X898333Y792591D01*
X898235Y792604D01*
X898137Y792621D01*
X898039Y792642D01*
X897943Y792667D01*
X897848Y792695D01*
X897754Y792727D01*
X897661Y792762D01*
X897569Y792801D01*
X897479Y792844D01*
X897391Y792889D01*
X897304Y792939D01*
X897220Y792991D01*
X897137Y793047D01*
X897057Y793105D01*
X896979Y793167D01*
X896904Y793232D01*
X896831Y793300D01*
X896761Y793370D01*
X896693Y793443D01*
X896628Y793518D01*
X896566Y793596D01*
X896508Y793676D01*
X896452Y793759D01*
X896400Y793843D01*
X896350Y793930D01*
X896305Y794018D01*
X896262Y794108D01*
X896223Y794200D01*
X896188Y794293D01*
X896156Y794387D01*
X896128Y794482D01*
X896103Y794578D01*
X896082Y794676D01*
X896065Y794774D01*
X896052Y794872D01*
X896043Y794971D01*
X896037Y795071D01*
X896035Y795170D01*
X896035Y801662D01*
X896037Y801761D01*
X896043Y801861D01*
X896052Y801960D01*
X896065Y802058D01*
X896082Y802156D01*
X896103Y802254D01*
X896128Y802350D01*
X896156Y802445D01*
X896188Y802539D01*
X896223Y802632D01*
X896262Y802724D01*
X896305Y802814D01*
X896350Y802902D01*
X896400Y802989D01*
X896452Y803073D01*
X896508Y803156D01*
X896566Y803236D01*
X896628Y803314D01*
X896693Y803389D01*
X896761Y803462D01*
X896831Y803532D01*
X896904Y803600D01*
X896979Y803665D01*
X897057Y803727D01*
X897137Y803785D01*
X897220Y803841D01*
X897304Y803893D01*
X897391Y803943D01*
X897479Y803988D01*
X897569Y804031D01*
X897661Y804070D01*
X897753Y804105D01*
X897848Y804137D01*
X897943Y804165D01*
X898039Y804190D01*
X898137Y804211D01*
X898235Y804228D01*
X898333Y804241D01*
X898432Y804250D01*
X898532Y804256D01*
X898631Y804258D01*
X901228Y804258D01*
X905593Y792574D02*
X908839Y792574D01*
X908952Y792576D01*
X909065Y792582D01*
X909178Y792592D01*
X909291Y792606D01*
X909403Y792623D01*
X909514Y792645D01*
X909624Y792670D01*
X909734Y792700D01*
X909842Y792733D01*
X909949Y792770D01*
X910055Y792810D01*
X910159Y792855D01*
X910262Y792903D01*
X910363Y792954D01*
X910462Y793009D01*
X910559Y793067D01*
X910654Y793129D01*
X910747Y793194D01*
X910837Y793262D01*
X910925Y793333D01*
X911011Y793408D01*
X911094Y793485D01*
X911174Y793565D01*
X911251Y793648D01*
X911326Y793734D01*
X911397Y793822D01*
X911465Y793912D01*
X911530Y794005D01*
X911592Y794100D01*
X911650Y794197D01*
X911705Y794296D01*
X911756Y794397D01*
X911804Y794500D01*
X911849Y794604D01*
X911889Y794710D01*
X911926Y794817D01*
X911959Y794925D01*
X911989Y795035D01*
X912014Y795145D01*
X912036Y795256D01*
X912053Y795368D01*
X912067Y795481D01*
X912077Y795594D01*
X912083Y795707D01*
X912085Y795820D01*
X912083Y795933D01*
X912077Y796046D01*
X912067Y796159D01*
X912053Y796272D01*
X912036Y796384D01*
X912014Y796495D01*
X911989Y796605D01*
X911959Y796715D01*
X911926Y796823D01*
X911889Y796930D01*
X911849Y797036D01*
X911804Y797140D01*
X911756Y797243D01*
X911705Y797344D01*
X911650Y797443D01*
X911592Y797540D01*
X911530Y797635D01*
X911465Y797728D01*
X911397Y797818D01*
X911326Y797906D01*
X911251Y797992D01*
X911174Y798075D01*
X911094Y798155D01*
X911011Y798232D01*
X910925Y798307D01*
X910837Y798378D01*
X910747Y798446D01*
X910654Y798511D01*
X910559Y798573D01*
X910462Y798631D01*
X910363Y798686D01*
X910262Y798737D01*
X910159Y798785D01*
X910055Y798830D01*
X909949Y798870D01*
X909842Y798907D01*
X909734Y798940D01*
X909624Y798970D01*
X909514Y798995D01*
X909403Y799017D01*
X909291Y799034D01*
X909178Y799048D01*
X909065Y799058D01*
X908952Y799064D01*
X908839Y799066D01*
X909488Y804258D02*
X905593Y804258D01*
X909488Y804258D02*
X909589Y804256D01*
X909689Y804250D01*
X909789Y804240D01*
X909889Y804227D01*
X909988Y804209D01*
X910087Y804188D01*
X910184Y804163D01*
X910281Y804134D01*
X910376Y804101D01*
X910470Y804065D01*
X910562Y804025D01*
X910653Y803982D01*
X910742Y803935D01*
X910829Y803885D01*
X910915Y803831D01*
X910998Y803774D01*
X911078Y803714D01*
X911157Y803651D01*
X911233Y803584D01*
X911306Y803515D01*
X911376Y803443D01*
X911444Y803369D01*
X911509Y803292D01*
X911570Y803212D01*
X911629Y803130D01*
X911684Y803046D01*
X911736Y802960D01*
X911785Y802872D01*
X911830Y802782D01*
X911872Y802690D01*
X911910Y802597D01*
X911944Y802502D01*
X911975Y802407D01*
X912002Y802310D01*
X912025Y802212D01*
X912045Y802113D01*
X912060Y802013D01*
X912072Y801913D01*
X912080Y801813D01*
X912084Y801712D01*
X912084Y801612D01*
X912080Y801511D01*
X912072Y801411D01*
X912060Y801311D01*
X912045Y801211D01*
X912025Y801112D01*
X912002Y801014D01*
X911975Y800917D01*
X911944Y800822D01*
X911910Y800727D01*
X911872Y800634D01*
X911830Y800542D01*
X911785Y800452D01*
X911736Y800364D01*
X911684Y800278D01*
X911629Y800194D01*
X911570Y800112D01*
X911509Y800032D01*
X911444Y799955D01*
X911376Y799881D01*
X911306Y799809D01*
X911233Y799740D01*
X911157Y799673D01*
X911078Y799610D01*
X910998Y799550D01*
X910915Y799493D01*
X910829Y799439D01*
X910742Y799389D01*
X910653Y799342D01*
X910562Y799299D01*
X910470Y799259D01*
X910376Y799223D01*
X910281Y799190D01*
X910184Y799161D01*
X910087Y799136D01*
X909988Y799115D01*
X909889Y799097D01*
X909789Y799084D01*
X909689Y799074D01*
X909589Y799068D01*
X909488Y799066D01*
X909488Y799065D02*
X906891Y799065D01*
D10*
X1073962Y767080D02*
X1073971Y767777D01*
X1073996Y768473D01*
X1074039Y769169D01*
X1074099Y769863D01*
X1074176Y770556D01*
X1074269Y771247D01*
X1074380Y771935D01*
X1074508Y772620D01*
X1074652Y773302D01*
X1074813Y773980D01*
X1074991Y774654D01*
X1075185Y775324D01*
X1075395Y775988D01*
X1075622Y776647D01*
X1075865Y777300D01*
X1076124Y777947D01*
X1076398Y778588D01*
X1076689Y779222D01*
X1076994Y779848D01*
X1077315Y780467D01*
X1077651Y781077D01*
X1078002Y781679D01*
X1078368Y782273D01*
X1078748Y782857D01*
X1079142Y783432D01*
X1079551Y783997D01*
X1079973Y784551D01*
X1080408Y785096D01*
X1080857Y785629D01*
X1081318Y786151D01*
X1081793Y786662D01*
X1082280Y787160D01*
X1082778Y787647D01*
X1083289Y788122D01*
X1083811Y788583D01*
X1084344Y789032D01*
X1084889Y789467D01*
X1085443Y789889D01*
X1086008Y790298D01*
X1086583Y790692D01*
X1087167Y791072D01*
X1087761Y791438D01*
X1088363Y791789D01*
X1088973Y792125D01*
X1089592Y792446D01*
X1090218Y792751D01*
X1090852Y793042D01*
X1091493Y793316D01*
X1092140Y793575D01*
X1092793Y793818D01*
X1093452Y794045D01*
X1094116Y794255D01*
X1094786Y794449D01*
X1095460Y794627D01*
X1096138Y794788D01*
X1096820Y794932D01*
X1097505Y795060D01*
X1098193Y795171D01*
X1098884Y795264D01*
X1099577Y795341D01*
X1100271Y795401D01*
X1100967Y795444D01*
X1101663Y795469D01*
X1102360Y795478D01*
X1103057Y795469D01*
X1103753Y795444D01*
X1104449Y795401D01*
X1105143Y795341D01*
X1105836Y795264D01*
X1106527Y795171D01*
X1107215Y795060D01*
X1107900Y794932D01*
X1108582Y794788D01*
X1109260Y794627D01*
X1109934Y794449D01*
X1110604Y794255D01*
X1111268Y794045D01*
X1111927Y793818D01*
X1112580Y793575D01*
X1113227Y793316D01*
X1113868Y793042D01*
X1114502Y792751D01*
X1115128Y792446D01*
X1115747Y792125D01*
X1116357Y791789D01*
X1116959Y791438D01*
X1117553Y791072D01*
X1118137Y790692D01*
X1118712Y790298D01*
X1119277Y789889D01*
X1119831Y789467D01*
X1120376Y789032D01*
X1120909Y788583D01*
X1121431Y788122D01*
X1121942Y787647D01*
X1122440Y787160D01*
X1122927Y786662D01*
X1123402Y786151D01*
X1123863Y785629D01*
X1124312Y785096D01*
X1124747Y784551D01*
X1125169Y783997D01*
X1125578Y783432D01*
X1125972Y782857D01*
X1126352Y782273D01*
X1126718Y781679D01*
X1127069Y781077D01*
X1127405Y780467D01*
X1127726Y779848D01*
X1128031Y779222D01*
X1128322Y778588D01*
X1128596Y777947D01*
X1128855Y777300D01*
X1129098Y776647D01*
X1129325Y775988D01*
X1129535Y775324D01*
X1129729Y774654D01*
X1129907Y773980D01*
X1130068Y773302D01*
X1130212Y772620D01*
X1130340Y771935D01*
X1130451Y771247D01*
X1130544Y770556D01*
X1130621Y769863D01*
X1130681Y769169D01*
X1130724Y768473D01*
X1130749Y767777D01*
X1130758Y767080D01*
X1130749Y766383D01*
X1130724Y765687D01*
X1130681Y764991D01*
X1130621Y764297D01*
X1130544Y763604D01*
X1130451Y762913D01*
X1130340Y762225D01*
X1130212Y761540D01*
X1130068Y760858D01*
X1129907Y760180D01*
X1129729Y759506D01*
X1129535Y758836D01*
X1129325Y758172D01*
X1129098Y757513D01*
X1128855Y756860D01*
X1128596Y756213D01*
X1128322Y755572D01*
X1128031Y754938D01*
X1127726Y754312D01*
X1127405Y753693D01*
X1127069Y753083D01*
X1126718Y752481D01*
X1126352Y751887D01*
X1125972Y751303D01*
X1125578Y750728D01*
X1125169Y750163D01*
X1124747Y749609D01*
X1124312Y749064D01*
X1123863Y748531D01*
X1123402Y748009D01*
X1122927Y747498D01*
X1122440Y747000D01*
X1121942Y746513D01*
X1121431Y746038D01*
X1120909Y745577D01*
X1120376Y745128D01*
X1119831Y744693D01*
X1119277Y744271D01*
X1118712Y743862D01*
X1118137Y743468D01*
X1117553Y743088D01*
X1116959Y742722D01*
X1116357Y742371D01*
X1115747Y742035D01*
X1115128Y741714D01*
X1114502Y741409D01*
X1113868Y741118D01*
X1113227Y740844D01*
X1112580Y740585D01*
X1111927Y740342D01*
X1111268Y740115D01*
X1110604Y739905D01*
X1109934Y739711D01*
X1109260Y739533D01*
X1108582Y739372D01*
X1107900Y739228D01*
X1107215Y739100D01*
X1106527Y738989D01*
X1105836Y738896D01*
X1105143Y738819D01*
X1104449Y738759D01*
X1103753Y738716D01*
X1103057Y738691D01*
X1102360Y738682D01*
X1101663Y738691D01*
X1100967Y738716D01*
X1100271Y738759D01*
X1099577Y738819D01*
X1098884Y738896D01*
X1098193Y738989D01*
X1097505Y739100D01*
X1096820Y739228D01*
X1096138Y739372D01*
X1095460Y739533D01*
X1094786Y739711D01*
X1094116Y739905D01*
X1093452Y740115D01*
X1092793Y740342D01*
X1092140Y740585D01*
X1091493Y740844D01*
X1090852Y741118D01*
X1090218Y741409D01*
X1089592Y741714D01*
X1088973Y742035D01*
X1088363Y742371D01*
X1087761Y742722D01*
X1087167Y743088D01*
X1086583Y743468D01*
X1086008Y743862D01*
X1085443Y744271D01*
X1084889Y744693D01*
X1084344Y745128D01*
X1083811Y745577D01*
X1083289Y746038D01*
X1082778Y746513D01*
X1082280Y747000D01*
X1081793Y747498D01*
X1081318Y748009D01*
X1080857Y748531D01*
X1080408Y749064D01*
X1079973Y749609D01*
X1079551Y750163D01*
X1079142Y750728D01*
X1078748Y751303D01*
X1078368Y751887D01*
X1078002Y752481D01*
X1077651Y753083D01*
X1077315Y753693D01*
X1076994Y754312D01*
X1076689Y754938D01*
X1076398Y755572D01*
X1076124Y756213D01*
X1075865Y756860D01*
X1075622Y757513D01*
X1075395Y758172D01*
X1075185Y758836D01*
X1074991Y759506D01*
X1074813Y760180D01*
X1074652Y760858D01*
X1074508Y761540D01*
X1074380Y762225D01*
X1074269Y762913D01*
X1074176Y763604D01*
X1074099Y764297D01*
X1074039Y764991D01*
X1073996Y765687D01*
X1073971Y766383D01*
X1073962Y767080D01*
D11*
X1115060Y779780D02*
X1121410Y779780D01*
X1115060Y779780D02*
X1108710Y779780D01*
X1115060Y779780D02*
X1115060Y786130D01*
X1115060Y779780D02*
X1115060Y773430D01*
D12*
X1079028Y792574D02*
X1076431Y792574D01*
X1076332Y792576D01*
X1076232Y792582D01*
X1076133Y792591D01*
X1076035Y792604D01*
X1075937Y792621D01*
X1075839Y792642D01*
X1075743Y792667D01*
X1075648Y792695D01*
X1075554Y792727D01*
X1075461Y792762D01*
X1075369Y792801D01*
X1075279Y792844D01*
X1075191Y792889D01*
X1075104Y792939D01*
X1075020Y792991D01*
X1074937Y793047D01*
X1074857Y793105D01*
X1074779Y793167D01*
X1074704Y793232D01*
X1074631Y793300D01*
X1074561Y793370D01*
X1074493Y793443D01*
X1074428Y793518D01*
X1074366Y793596D01*
X1074308Y793676D01*
X1074252Y793759D01*
X1074200Y793843D01*
X1074150Y793930D01*
X1074105Y794018D01*
X1074062Y794108D01*
X1074023Y794200D01*
X1073988Y794293D01*
X1073956Y794387D01*
X1073928Y794482D01*
X1073903Y794578D01*
X1073882Y794676D01*
X1073865Y794774D01*
X1073852Y794872D01*
X1073843Y794971D01*
X1073837Y795071D01*
X1073835Y795170D01*
X1073835Y801662D01*
X1073837Y801761D01*
X1073843Y801861D01*
X1073852Y801960D01*
X1073865Y802058D01*
X1073882Y802156D01*
X1073903Y802254D01*
X1073928Y802350D01*
X1073956Y802445D01*
X1073988Y802539D01*
X1074023Y802632D01*
X1074062Y802724D01*
X1074105Y802814D01*
X1074150Y802902D01*
X1074200Y802989D01*
X1074252Y803073D01*
X1074308Y803156D01*
X1074366Y803236D01*
X1074428Y803314D01*
X1074493Y803389D01*
X1074561Y803462D01*
X1074631Y803532D01*
X1074704Y803600D01*
X1074779Y803665D01*
X1074857Y803727D01*
X1074937Y803785D01*
X1075020Y803841D01*
X1075104Y803893D01*
X1075191Y803943D01*
X1075279Y803988D01*
X1075369Y804031D01*
X1075461Y804070D01*
X1075553Y804105D01*
X1075648Y804137D01*
X1075743Y804165D01*
X1075839Y804190D01*
X1075937Y804211D01*
X1076035Y804228D01*
X1076133Y804241D01*
X1076232Y804250D01*
X1076332Y804256D01*
X1076431Y804258D01*
X1079028Y804258D01*
X1085990Y804258D02*
X1083393Y795170D01*
X1089884Y795170D01*
X1087937Y797767D02*
X1087937Y792574D01*
D10*
X490220Y147320D02*
X485140Y147320D01*
X487680Y144780D02*
X487680Y149860D01*
D11*
X482600Y132080D02*
X482600Y88900D01*
X482600Y132080D02*
X482600Y139700D01*
X495300Y139700D01*
X520700Y139700D01*
X533400Y139700D01*
X533400Y132080D01*
X533400Y88900D01*
X495300Y139700D02*
X495300Y165100D01*
X520700Y165100D02*
X520700Y139700D01*
X533400Y88900D02*
X533392Y88281D01*
X533370Y87663D01*
X533332Y87046D01*
X533280Y86430D01*
X533212Y85815D01*
X533129Y85202D01*
X533032Y84591D01*
X532919Y83983D01*
X532792Y83377D01*
X532650Y82775D01*
X532494Y82177D01*
X532323Y81582D01*
X532138Y80992D01*
X531938Y80407D01*
X531724Y79826D01*
X531496Y79251D01*
X531254Y78682D01*
X530998Y78119D01*
X530729Y77562D01*
X530446Y77012D01*
X530150Y76469D01*
X529841Y75933D01*
X529519Y75405D01*
X529184Y74885D01*
X528836Y74373D01*
X528476Y73870D01*
X528104Y73376D01*
X527720Y72891D01*
X527324Y72416D01*
X526917Y71950D01*
X526499Y71494D01*
X526070Y71049D01*
X525629Y70614D01*
X525179Y70191D01*
X524718Y69778D01*
X524248Y69376D01*
X523767Y68987D01*
X523278Y68608D01*
X522779Y68242D01*
X522272Y67889D01*
X521756Y67547D01*
X521232Y67219D01*
X520700Y66903D01*
X520161Y66600D01*
X519614Y66311D01*
X519060Y66035D01*
X518500Y65772D01*
X517934Y65523D01*
X517362Y65288D01*
X516784Y65067D01*
X516201Y64860D01*
X515613Y64668D01*
X515021Y64490D01*
X514425Y64326D01*
X513824Y64177D01*
X513220Y64042D01*
X512614Y63923D01*
X512004Y63818D01*
X511392Y63728D01*
X510778Y63652D01*
X510162Y63592D01*
X509545Y63547D01*
X508928Y63517D01*
X508309Y63502D01*
X507691Y63502D01*
X507072Y63517D01*
X506455Y63547D01*
X505838Y63592D01*
X505222Y63652D01*
X504608Y63728D01*
X503996Y63818D01*
X503386Y63923D01*
X502780Y64042D01*
X502176Y64177D01*
X501575Y64326D01*
X500979Y64490D01*
X500387Y64668D01*
X499799Y64860D01*
X499216Y65067D01*
X498638Y65288D01*
X498066Y65523D01*
X497500Y65772D01*
X496940Y66035D01*
X496386Y66311D01*
X495839Y66600D01*
X495300Y66903D01*
X494768Y67219D01*
X494244Y67547D01*
X493728Y67889D01*
X493221Y68242D01*
X492722Y68608D01*
X492233Y68987D01*
X491752Y69376D01*
X491282Y69778D01*
X490821Y70191D01*
X490371Y70614D01*
X489930Y71049D01*
X489501Y71494D01*
X489083Y71950D01*
X488676Y72416D01*
X488280Y72891D01*
X487896Y73376D01*
X487524Y73870D01*
X487164Y74373D01*
X486816Y74885D01*
X486481Y75405D01*
X486159Y75933D01*
X485850Y76469D01*
X485554Y77012D01*
X485271Y77562D01*
X485002Y78119D01*
X484746Y78682D01*
X484504Y79251D01*
X484276Y79826D01*
X484062Y80407D01*
X483862Y80992D01*
X483677Y81582D01*
X483506Y82177D01*
X483350Y82775D01*
X483208Y83377D01*
X483081Y83983D01*
X482968Y84591D01*
X482871Y85202D01*
X482788Y85815D01*
X482720Y86430D01*
X482668Y87046D01*
X482630Y87663D01*
X482608Y88281D01*
X482600Y88900D01*
X482600Y132080D02*
X533400Y132080D01*
D12*
X480587Y152673D02*
X468903Y152673D01*
X480587Y152673D02*
X480587Y157866D01*
X480587Y162579D02*
X480587Y167772D01*
X480587Y162579D02*
X468903Y162579D01*
X468903Y167772D01*
X474096Y166474D02*
X474096Y162579D01*
X468903Y172462D02*
X480587Y172462D01*
X468903Y172462D02*
X468903Y175708D01*
X468905Y175821D01*
X468911Y175934D01*
X468921Y176047D01*
X468935Y176160D01*
X468952Y176272D01*
X468974Y176383D01*
X468999Y176493D01*
X469029Y176603D01*
X469062Y176711D01*
X469099Y176818D01*
X469139Y176924D01*
X469184Y177028D01*
X469232Y177131D01*
X469283Y177232D01*
X469338Y177331D01*
X469396Y177428D01*
X469458Y177523D01*
X469523Y177616D01*
X469591Y177706D01*
X469662Y177794D01*
X469737Y177880D01*
X469814Y177963D01*
X469894Y178043D01*
X469977Y178120D01*
X470063Y178195D01*
X470151Y178266D01*
X470241Y178334D01*
X470334Y178399D01*
X470429Y178461D01*
X470526Y178519D01*
X470625Y178574D01*
X470726Y178625D01*
X470829Y178673D01*
X470933Y178718D01*
X471039Y178758D01*
X471146Y178795D01*
X471254Y178828D01*
X471364Y178858D01*
X471474Y178883D01*
X471585Y178905D01*
X471697Y178922D01*
X471810Y178936D01*
X471923Y178946D01*
X472036Y178952D01*
X472149Y178954D01*
X477341Y178954D01*
X477454Y178952D01*
X477567Y178946D01*
X477680Y178936D01*
X477793Y178922D01*
X477905Y178905D01*
X478016Y178883D01*
X478126Y178858D01*
X478236Y178828D01*
X478344Y178795D01*
X478451Y178758D01*
X478557Y178718D01*
X478661Y178673D01*
X478764Y178625D01*
X478865Y178574D01*
X478964Y178519D01*
X479061Y178461D01*
X479156Y178399D01*
X479249Y178334D01*
X479339Y178266D01*
X479427Y178195D01*
X479513Y178120D01*
X479596Y178043D01*
X479676Y177963D01*
X479753Y177880D01*
X479828Y177794D01*
X479899Y177706D01*
X479967Y177616D01*
X480032Y177523D01*
X480094Y177428D01*
X480152Y177331D01*
X480207Y177232D01*
X480258Y177131D01*
X480306Y177028D01*
X480351Y176924D01*
X480391Y176818D01*
X480428Y176711D01*
X480461Y176603D01*
X480491Y176493D01*
X480516Y176383D01*
X480538Y176272D01*
X480555Y176160D01*
X480569Y176047D01*
X480579Y175934D01*
X480585Y175821D01*
X480587Y175708D01*
X480587Y172462D01*
X471499Y184273D02*
X468903Y187519D01*
X480587Y187519D01*
X480587Y190764D02*
X480587Y184273D01*
D10*
X612140Y109220D02*
X617220Y109220D01*
X614680Y106680D02*
X614680Y111760D01*
D11*
X609600Y93980D02*
X609600Y50800D01*
X609600Y93980D02*
X609600Y101600D01*
X622300Y101600D01*
X647700Y101600D01*
X660400Y101600D01*
X660400Y93980D01*
X660400Y50800D01*
X622300Y101600D02*
X622300Y127000D01*
X647700Y127000D02*
X647700Y101600D01*
X660400Y50800D02*
X660392Y50181D01*
X660370Y49563D01*
X660332Y48946D01*
X660280Y48330D01*
X660212Y47715D01*
X660129Y47102D01*
X660032Y46491D01*
X659919Y45883D01*
X659792Y45277D01*
X659650Y44675D01*
X659494Y44077D01*
X659323Y43482D01*
X659138Y42892D01*
X658938Y42307D01*
X658724Y41726D01*
X658496Y41151D01*
X658254Y40582D01*
X657998Y40019D01*
X657729Y39462D01*
X657446Y38912D01*
X657150Y38369D01*
X656841Y37833D01*
X656519Y37305D01*
X656184Y36785D01*
X655836Y36273D01*
X655476Y35770D01*
X655104Y35276D01*
X654720Y34791D01*
X654324Y34316D01*
X653917Y33850D01*
X653499Y33394D01*
X653070Y32949D01*
X652629Y32514D01*
X652179Y32091D01*
X651718Y31678D01*
X651248Y31276D01*
X650767Y30887D01*
X650278Y30508D01*
X649779Y30142D01*
X649272Y29789D01*
X648756Y29447D01*
X648232Y29119D01*
X647700Y28803D01*
X647161Y28500D01*
X646614Y28211D01*
X646060Y27935D01*
X645500Y27672D01*
X644934Y27423D01*
X644362Y27188D01*
X643784Y26967D01*
X643201Y26760D01*
X642613Y26568D01*
X642021Y26390D01*
X641425Y26226D01*
X640824Y26077D01*
X640220Y25942D01*
X639614Y25823D01*
X639004Y25718D01*
X638392Y25628D01*
X637778Y25552D01*
X637162Y25492D01*
X636545Y25447D01*
X635928Y25417D01*
X635309Y25402D01*
X634691Y25402D01*
X634072Y25417D01*
X633455Y25447D01*
X632838Y25492D01*
X632222Y25552D01*
X631608Y25628D01*
X630996Y25718D01*
X630386Y25823D01*
X629780Y25942D01*
X629176Y26077D01*
X628575Y26226D01*
X627979Y26390D01*
X627387Y26568D01*
X626799Y26760D01*
X626216Y26967D01*
X625638Y27188D01*
X625066Y27423D01*
X624500Y27672D01*
X623940Y27935D01*
X623386Y28211D01*
X622839Y28500D01*
X622300Y28803D01*
X621768Y29119D01*
X621244Y29447D01*
X620728Y29789D01*
X620221Y30142D01*
X619722Y30508D01*
X619233Y30887D01*
X618752Y31276D01*
X618282Y31678D01*
X617821Y32091D01*
X617371Y32514D01*
X616930Y32949D01*
X616501Y33394D01*
X616083Y33850D01*
X615676Y34316D01*
X615280Y34791D01*
X614896Y35276D01*
X614524Y35770D01*
X614164Y36273D01*
X613816Y36785D01*
X613481Y37305D01*
X613159Y37833D01*
X612850Y38369D01*
X612554Y38912D01*
X612271Y39462D01*
X612002Y40019D01*
X611746Y40582D01*
X611504Y41151D01*
X611276Y41726D01*
X611062Y42307D01*
X610862Y42892D01*
X610677Y43482D01*
X610506Y44077D01*
X610350Y44675D01*
X610208Y45277D01*
X610081Y45883D01*
X609968Y46491D01*
X609871Y47102D01*
X609788Y47715D01*
X609720Y48330D01*
X609668Y48946D01*
X609630Y49563D01*
X609608Y50181D01*
X609600Y50800D01*
X609600Y93980D02*
X660400Y93980D01*
D12*
X607587Y114573D02*
X595903Y114573D01*
X607587Y114573D02*
X607587Y119766D01*
X607587Y124479D02*
X607587Y129672D01*
X607587Y124479D02*
X595903Y124479D01*
X595903Y129672D01*
X601096Y128374D02*
X601096Y124479D01*
X595903Y134362D02*
X607587Y134362D01*
X595903Y134362D02*
X595903Y137608D01*
X595905Y137721D01*
X595911Y137834D01*
X595921Y137947D01*
X595935Y138060D01*
X595952Y138172D01*
X595974Y138283D01*
X595999Y138393D01*
X596029Y138503D01*
X596062Y138611D01*
X596099Y138718D01*
X596139Y138824D01*
X596184Y138928D01*
X596232Y139031D01*
X596283Y139132D01*
X596338Y139231D01*
X596396Y139328D01*
X596458Y139423D01*
X596523Y139516D01*
X596591Y139606D01*
X596662Y139694D01*
X596737Y139780D01*
X596814Y139863D01*
X596894Y139943D01*
X596977Y140020D01*
X597063Y140095D01*
X597151Y140166D01*
X597241Y140234D01*
X597334Y140299D01*
X597429Y140361D01*
X597526Y140419D01*
X597625Y140474D01*
X597726Y140525D01*
X597829Y140573D01*
X597933Y140618D01*
X598039Y140658D01*
X598146Y140695D01*
X598254Y140728D01*
X598364Y140758D01*
X598474Y140783D01*
X598585Y140805D01*
X598697Y140822D01*
X598810Y140836D01*
X598923Y140846D01*
X599036Y140852D01*
X599149Y140854D01*
X604341Y140854D01*
X604454Y140852D01*
X604567Y140846D01*
X604680Y140836D01*
X604793Y140822D01*
X604905Y140805D01*
X605016Y140783D01*
X605126Y140758D01*
X605236Y140728D01*
X605344Y140695D01*
X605451Y140658D01*
X605557Y140618D01*
X605661Y140573D01*
X605764Y140525D01*
X605865Y140474D01*
X605964Y140419D01*
X606061Y140361D01*
X606156Y140299D01*
X606249Y140234D01*
X606339Y140166D01*
X606427Y140095D01*
X606513Y140020D01*
X606596Y139943D01*
X606676Y139863D01*
X606753Y139780D01*
X606828Y139694D01*
X606899Y139606D01*
X606967Y139516D01*
X607032Y139423D01*
X607094Y139328D01*
X607152Y139231D01*
X607207Y139132D01*
X607258Y139031D01*
X607306Y138928D01*
X607351Y138824D01*
X607391Y138718D01*
X607428Y138611D01*
X607461Y138503D01*
X607491Y138393D01*
X607516Y138283D01*
X607538Y138172D01*
X607555Y138060D01*
X607569Y137947D01*
X607579Y137834D01*
X607585Y137721D01*
X607587Y137608D01*
X607587Y134362D01*
X595903Y149743D02*
X595905Y149850D01*
X595911Y149956D01*
X595921Y150062D01*
X595934Y150168D01*
X595952Y150274D01*
X595973Y150378D01*
X595998Y150482D01*
X596027Y150585D01*
X596059Y150686D01*
X596096Y150786D01*
X596136Y150885D01*
X596179Y150983D01*
X596226Y151079D01*
X596277Y151173D01*
X596331Y151265D01*
X596388Y151355D01*
X596448Y151443D01*
X596512Y151528D01*
X596579Y151611D01*
X596649Y151692D01*
X596721Y151770D01*
X596797Y151846D01*
X596875Y151918D01*
X596956Y151988D01*
X597039Y152055D01*
X597124Y152119D01*
X597212Y152179D01*
X597302Y152236D01*
X597394Y152290D01*
X597488Y152341D01*
X597584Y152388D01*
X597682Y152431D01*
X597781Y152471D01*
X597881Y152508D01*
X597982Y152540D01*
X598085Y152569D01*
X598189Y152594D01*
X598293Y152615D01*
X598399Y152633D01*
X598505Y152646D01*
X598611Y152656D01*
X598717Y152662D01*
X598824Y152664D01*
X595903Y149743D02*
X595905Y149622D01*
X595911Y149501D01*
X595921Y149381D01*
X595934Y149260D01*
X595952Y149141D01*
X595973Y149021D01*
X595998Y148903D01*
X596027Y148786D01*
X596060Y148669D01*
X596096Y148554D01*
X596137Y148440D01*
X596180Y148327D01*
X596228Y148215D01*
X596279Y148106D01*
X596334Y147998D01*
X596392Y147891D01*
X596453Y147787D01*
X596518Y147685D01*
X596586Y147585D01*
X596657Y147487D01*
X596731Y147391D01*
X596808Y147298D01*
X596889Y147208D01*
X596972Y147120D01*
X597058Y147035D01*
X597147Y146952D01*
X597238Y146873D01*
X597332Y146796D01*
X597428Y146723D01*
X597526Y146653D01*
X597627Y146586D01*
X597730Y146522D01*
X597835Y146462D01*
X597942Y146404D01*
X598050Y146351D01*
X598160Y146301D01*
X598272Y146255D01*
X598385Y146212D01*
X598500Y146173D01*
X601096Y151690D02*
X601018Y151769D01*
X600938Y151845D01*
X600855Y151918D01*
X600769Y151988D01*
X600682Y152055D01*
X600591Y152119D01*
X600499Y152179D01*
X600405Y152237D01*
X600308Y152291D01*
X600210Y152341D01*
X600110Y152388D01*
X600009Y152432D01*
X599906Y152472D01*
X599801Y152508D01*
X599696Y152540D01*
X599589Y152569D01*
X599482Y152594D01*
X599373Y152616D01*
X599264Y152633D01*
X599155Y152647D01*
X599045Y152656D01*
X598934Y152662D01*
X598824Y152664D01*
X601096Y151691D02*
X607587Y146173D01*
X607587Y152664D01*
D10*
X942340Y109220D02*
X947420Y109220D01*
X944880Y106680D02*
X944880Y111760D01*
D11*
X939800Y93980D02*
X939800Y50800D01*
X939800Y93980D02*
X939800Y101600D01*
X952500Y101600D01*
X977900Y101600D01*
X990600Y101600D01*
X990600Y93980D01*
X990600Y50800D01*
X952500Y101600D02*
X952500Y127000D01*
X977900Y127000D02*
X977900Y101600D01*
X990600Y50800D02*
X990592Y50181D01*
X990570Y49563D01*
X990532Y48946D01*
X990480Y48330D01*
X990412Y47715D01*
X990329Y47102D01*
X990232Y46491D01*
X990119Y45883D01*
X989992Y45277D01*
X989850Y44675D01*
X989694Y44077D01*
X989523Y43482D01*
X989338Y42892D01*
X989138Y42307D01*
X988924Y41726D01*
X988696Y41151D01*
X988454Y40582D01*
X988198Y40019D01*
X987929Y39462D01*
X987646Y38912D01*
X987350Y38369D01*
X987041Y37833D01*
X986719Y37305D01*
X986384Y36785D01*
X986036Y36273D01*
X985676Y35770D01*
X985304Y35276D01*
X984920Y34791D01*
X984524Y34316D01*
X984117Y33850D01*
X983699Y33394D01*
X983270Y32949D01*
X982829Y32514D01*
X982379Y32091D01*
X981918Y31678D01*
X981448Y31276D01*
X980967Y30887D01*
X980478Y30508D01*
X979979Y30142D01*
X979472Y29789D01*
X978956Y29447D01*
X978432Y29119D01*
X977900Y28803D01*
X977361Y28500D01*
X976814Y28211D01*
X976260Y27935D01*
X975700Y27672D01*
X975134Y27423D01*
X974562Y27188D01*
X973984Y26967D01*
X973401Y26760D01*
X972813Y26568D01*
X972221Y26390D01*
X971625Y26226D01*
X971024Y26077D01*
X970420Y25942D01*
X969814Y25823D01*
X969204Y25718D01*
X968592Y25628D01*
X967978Y25552D01*
X967362Y25492D01*
X966745Y25447D01*
X966128Y25417D01*
X965509Y25402D01*
X964891Y25402D01*
X964272Y25417D01*
X963655Y25447D01*
X963038Y25492D01*
X962422Y25552D01*
X961808Y25628D01*
X961196Y25718D01*
X960586Y25823D01*
X959980Y25942D01*
X959376Y26077D01*
X958775Y26226D01*
X958179Y26390D01*
X957587Y26568D01*
X956999Y26760D01*
X956416Y26967D01*
X955838Y27188D01*
X955266Y27423D01*
X954700Y27672D01*
X954140Y27935D01*
X953586Y28211D01*
X953039Y28500D01*
X952500Y28803D01*
X951968Y29119D01*
X951444Y29447D01*
X950928Y29789D01*
X950421Y30142D01*
X949922Y30508D01*
X949433Y30887D01*
X948952Y31276D01*
X948482Y31678D01*
X948021Y32091D01*
X947571Y32514D01*
X947130Y32949D01*
X946701Y33394D01*
X946283Y33850D01*
X945876Y34316D01*
X945480Y34791D01*
X945096Y35276D01*
X944724Y35770D01*
X944364Y36273D01*
X944016Y36785D01*
X943681Y37305D01*
X943359Y37833D01*
X943050Y38369D01*
X942754Y38912D01*
X942471Y39462D01*
X942202Y40019D01*
X941946Y40582D01*
X941704Y41151D01*
X941476Y41726D01*
X941262Y42307D01*
X941062Y42892D01*
X940877Y43482D01*
X940706Y44077D01*
X940550Y44675D01*
X940408Y45277D01*
X940281Y45883D01*
X940168Y46491D01*
X940071Y47102D01*
X939988Y47715D01*
X939920Y48330D01*
X939868Y48946D01*
X939830Y49563D01*
X939808Y50181D01*
X939800Y50800D01*
X939800Y93980D02*
X990600Y93980D01*
D12*
X937787Y114573D02*
X926103Y114573D01*
X937787Y114573D02*
X937787Y119766D01*
X937787Y124479D02*
X937787Y129672D01*
X937787Y124479D02*
X926103Y124479D01*
X926103Y129672D01*
X931296Y128374D02*
X931296Y124479D01*
X926103Y134362D02*
X937787Y134362D01*
X926103Y134362D02*
X926103Y137608D01*
X926105Y137721D01*
X926111Y137834D01*
X926121Y137947D01*
X926135Y138060D01*
X926152Y138172D01*
X926174Y138283D01*
X926199Y138393D01*
X926229Y138503D01*
X926262Y138611D01*
X926299Y138718D01*
X926339Y138824D01*
X926384Y138928D01*
X926432Y139031D01*
X926483Y139132D01*
X926538Y139231D01*
X926596Y139328D01*
X926658Y139423D01*
X926723Y139516D01*
X926791Y139606D01*
X926862Y139694D01*
X926937Y139780D01*
X927014Y139863D01*
X927094Y139943D01*
X927177Y140020D01*
X927263Y140095D01*
X927351Y140166D01*
X927441Y140234D01*
X927534Y140299D01*
X927629Y140361D01*
X927726Y140419D01*
X927825Y140474D01*
X927926Y140525D01*
X928029Y140573D01*
X928133Y140618D01*
X928239Y140658D01*
X928346Y140695D01*
X928454Y140728D01*
X928564Y140758D01*
X928674Y140783D01*
X928785Y140805D01*
X928897Y140822D01*
X929010Y140836D01*
X929123Y140846D01*
X929236Y140852D01*
X929349Y140854D01*
X934541Y140854D01*
X934654Y140852D01*
X934767Y140846D01*
X934880Y140836D01*
X934993Y140822D01*
X935105Y140805D01*
X935216Y140783D01*
X935326Y140758D01*
X935436Y140728D01*
X935544Y140695D01*
X935651Y140658D01*
X935757Y140618D01*
X935861Y140573D01*
X935964Y140525D01*
X936065Y140474D01*
X936164Y140419D01*
X936261Y140361D01*
X936356Y140299D01*
X936449Y140234D01*
X936539Y140166D01*
X936627Y140095D01*
X936713Y140020D01*
X936796Y139943D01*
X936876Y139863D01*
X936953Y139780D01*
X937028Y139694D01*
X937099Y139606D01*
X937167Y139516D01*
X937232Y139423D01*
X937294Y139328D01*
X937352Y139231D01*
X937407Y139132D01*
X937458Y139031D01*
X937506Y138928D01*
X937551Y138824D01*
X937591Y138718D01*
X937628Y138611D01*
X937661Y138503D01*
X937691Y138393D01*
X937716Y138283D01*
X937738Y138172D01*
X937755Y138060D01*
X937769Y137947D01*
X937779Y137834D01*
X937785Y137721D01*
X937787Y137608D01*
X937787Y134362D01*
X937787Y146173D02*
X937787Y149419D01*
X937785Y149532D01*
X937779Y149645D01*
X937769Y149758D01*
X937755Y149871D01*
X937738Y149983D01*
X937716Y150094D01*
X937691Y150204D01*
X937661Y150314D01*
X937628Y150422D01*
X937591Y150529D01*
X937551Y150635D01*
X937506Y150739D01*
X937458Y150842D01*
X937407Y150943D01*
X937352Y151042D01*
X937294Y151139D01*
X937232Y151234D01*
X937167Y151327D01*
X937099Y151417D01*
X937028Y151505D01*
X936953Y151591D01*
X936876Y151674D01*
X936796Y151754D01*
X936713Y151831D01*
X936627Y151906D01*
X936539Y151977D01*
X936449Y152045D01*
X936356Y152110D01*
X936261Y152172D01*
X936164Y152230D01*
X936065Y152285D01*
X935964Y152336D01*
X935861Y152384D01*
X935757Y152429D01*
X935651Y152469D01*
X935544Y152506D01*
X935436Y152539D01*
X935326Y152569D01*
X935216Y152594D01*
X935105Y152616D01*
X934993Y152633D01*
X934880Y152647D01*
X934767Y152657D01*
X934654Y152663D01*
X934541Y152665D01*
X934428Y152663D01*
X934315Y152657D01*
X934202Y152647D01*
X934089Y152633D01*
X933977Y152616D01*
X933866Y152594D01*
X933756Y152569D01*
X933646Y152539D01*
X933538Y152506D01*
X933431Y152469D01*
X933325Y152429D01*
X933221Y152384D01*
X933118Y152336D01*
X933017Y152285D01*
X932918Y152230D01*
X932821Y152172D01*
X932726Y152110D01*
X932633Y152045D01*
X932543Y151977D01*
X932455Y151906D01*
X932369Y151831D01*
X932286Y151754D01*
X932206Y151674D01*
X932129Y151591D01*
X932054Y151505D01*
X931983Y151417D01*
X931915Y151327D01*
X931850Y151234D01*
X931788Y151139D01*
X931730Y151042D01*
X931675Y150943D01*
X931624Y150842D01*
X931576Y150739D01*
X931531Y150635D01*
X931491Y150529D01*
X931454Y150422D01*
X931421Y150314D01*
X931391Y150204D01*
X931366Y150094D01*
X931344Y149983D01*
X931327Y149871D01*
X931313Y149758D01*
X931303Y149645D01*
X931297Y149532D01*
X931295Y149419D01*
X926103Y150068D02*
X926103Y146173D01*
X926103Y150068D02*
X926105Y150169D01*
X926111Y150269D01*
X926121Y150369D01*
X926134Y150469D01*
X926152Y150568D01*
X926173Y150667D01*
X926198Y150764D01*
X926227Y150861D01*
X926260Y150956D01*
X926296Y151050D01*
X926336Y151142D01*
X926379Y151233D01*
X926426Y151322D01*
X926476Y151409D01*
X926530Y151495D01*
X926587Y151578D01*
X926647Y151658D01*
X926710Y151737D01*
X926777Y151813D01*
X926846Y151886D01*
X926918Y151956D01*
X926992Y152024D01*
X927069Y152089D01*
X927149Y152150D01*
X927231Y152209D01*
X927315Y152264D01*
X927401Y152316D01*
X927489Y152365D01*
X927579Y152410D01*
X927671Y152452D01*
X927764Y152490D01*
X927859Y152524D01*
X927954Y152555D01*
X928051Y152582D01*
X928149Y152605D01*
X928248Y152625D01*
X928348Y152640D01*
X928448Y152652D01*
X928548Y152660D01*
X928649Y152664D01*
X928749Y152664D01*
X928850Y152660D01*
X928950Y152652D01*
X929050Y152640D01*
X929150Y152625D01*
X929249Y152605D01*
X929347Y152582D01*
X929444Y152555D01*
X929539Y152524D01*
X929634Y152490D01*
X929727Y152452D01*
X929819Y152410D01*
X929909Y152365D01*
X929997Y152316D01*
X930083Y152264D01*
X930167Y152209D01*
X930249Y152150D01*
X930329Y152089D01*
X930406Y152024D01*
X930480Y151956D01*
X930552Y151886D01*
X930621Y151813D01*
X930688Y151737D01*
X930751Y151658D01*
X930811Y151578D01*
X930868Y151495D01*
X930922Y151409D01*
X930972Y151322D01*
X931019Y151233D01*
X931062Y151142D01*
X931102Y151050D01*
X931138Y150956D01*
X931171Y150861D01*
X931200Y150764D01*
X931225Y150667D01*
X931246Y150568D01*
X931264Y150469D01*
X931277Y150369D01*
X931287Y150269D01*
X931293Y150169D01*
X931295Y150068D01*
X931296Y150068D02*
X931296Y147472D01*
D10*
X1069340Y147320D02*
X1074420Y147320D01*
X1071880Y144780D02*
X1071880Y149860D01*
D11*
X1066800Y132080D02*
X1066800Y88900D01*
X1066800Y132080D02*
X1066800Y139700D01*
X1079500Y139700D01*
X1104900Y139700D01*
X1117600Y139700D01*
X1117600Y132080D01*
X1117600Y88900D01*
X1079500Y139700D02*
X1079500Y165100D01*
X1104900Y165100D02*
X1104900Y139700D01*
X1117600Y88900D02*
X1117592Y88281D01*
X1117570Y87663D01*
X1117532Y87046D01*
X1117480Y86430D01*
X1117412Y85815D01*
X1117329Y85202D01*
X1117232Y84591D01*
X1117119Y83983D01*
X1116992Y83377D01*
X1116850Y82775D01*
X1116694Y82177D01*
X1116523Y81582D01*
X1116338Y80992D01*
X1116138Y80407D01*
X1115924Y79826D01*
X1115696Y79251D01*
X1115454Y78682D01*
X1115198Y78119D01*
X1114929Y77562D01*
X1114646Y77012D01*
X1114350Y76469D01*
X1114041Y75933D01*
X1113719Y75405D01*
X1113384Y74885D01*
X1113036Y74373D01*
X1112676Y73870D01*
X1112304Y73376D01*
X1111920Y72891D01*
X1111524Y72416D01*
X1111117Y71950D01*
X1110699Y71494D01*
X1110270Y71049D01*
X1109829Y70614D01*
X1109379Y70191D01*
X1108918Y69778D01*
X1108448Y69376D01*
X1107967Y68987D01*
X1107478Y68608D01*
X1106979Y68242D01*
X1106472Y67889D01*
X1105956Y67547D01*
X1105432Y67219D01*
X1104900Y66903D01*
X1104361Y66600D01*
X1103814Y66311D01*
X1103260Y66035D01*
X1102700Y65772D01*
X1102134Y65523D01*
X1101562Y65288D01*
X1100984Y65067D01*
X1100401Y64860D01*
X1099813Y64668D01*
X1099221Y64490D01*
X1098625Y64326D01*
X1098024Y64177D01*
X1097420Y64042D01*
X1096814Y63923D01*
X1096204Y63818D01*
X1095592Y63728D01*
X1094978Y63652D01*
X1094362Y63592D01*
X1093745Y63547D01*
X1093128Y63517D01*
X1092509Y63502D01*
X1091891Y63502D01*
X1091272Y63517D01*
X1090655Y63547D01*
X1090038Y63592D01*
X1089422Y63652D01*
X1088808Y63728D01*
X1088196Y63818D01*
X1087586Y63923D01*
X1086980Y64042D01*
X1086376Y64177D01*
X1085775Y64326D01*
X1085179Y64490D01*
X1084587Y64668D01*
X1083999Y64860D01*
X1083416Y65067D01*
X1082838Y65288D01*
X1082266Y65523D01*
X1081700Y65772D01*
X1081140Y66035D01*
X1080586Y66311D01*
X1080039Y66600D01*
X1079500Y66903D01*
X1078968Y67219D01*
X1078444Y67547D01*
X1077928Y67889D01*
X1077421Y68242D01*
X1076922Y68608D01*
X1076433Y68987D01*
X1075952Y69376D01*
X1075482Y69778D01*
X1075021Y70191D01*
X1074571Y70614D01*
X1074130Y71049D01*
X1073701Y71494D01*
X1073283Y71950D01*
X1072876Y72416D01*
X1072480Y72891D01*
X1072096Y73376D01*
X1071724Y73870D01*
X1071364Y74373D01*
X1071016Y74885D01*
X1070681Y75405D01*
X1070359Y75933D01*
X1070050Y76469D01*
X1069754Y77012D01*
X1069471Y77562D01*
X1069202Y78119D01*
X1068946Y78682D01*
X1068704Y79251D01*
X1068476Y79826D01*
X1068262Y80407D01*
X1068062Y80992D01*
X1067877Y81582D01*
X1067706Y82177D01*
X1067550Y82775D01*
X1067408Y83377D01*
X1067281Y83983D01*
X1067168Y84591D01*
X1067071Y85202D01*
X1066988Y85815D01*
X1066920Y86430D01*
X1066868Y87046D01*
X1066830Y87663D01*
X1066808Y88281D01*
X1066800Y88900D01*
X1066800Y132080D02*
X1117600Y132080D01*
D12*
X1064787Y152673D02*
X1053103Y152673D01*
X1064787Y152673D02*
X1064787Y157866D01*
X1064787Y162579D02*
X1064787Y167772D01*
X1064787Y162579D02*
X1053103Y162579D01*
X1053103Y167772D01*
X1058296Y166474D02*
X1058296Y162579D01*
X1053103Y172462D02*
X1064787Y172462D01*
X1053103Y172462D02*
X1053103Y175708D01*
X1053105Y175821D01*
X1053111Y175934D01*
X1053121Y176047D01*
X1053135Y176160D01*
X1053152Y176272D01*
X1053174Y176383D01*
X1053199Y176493D01*
X1053229Y176603D01*
X1053262Y176711D01*
X1053299Y176818D01*
X1053339Y176924D01*
X1053384Y177028D01*
X1053432Y177131D01*
X1053483Y177232D01*
X1053538Y177331D01*
X1053596Y177428D01*
X1053658Y177523D01*
X1053723Y177616D01*
X1053791Y177706D01*
X1053862Y177794D01*
X1053937Y177880D01*
X1054014Y177963D01*
X1054094Y178043D01*
X1054177Y178120D01*
X1054263Y178195D01*
X1054351Y178266D01*
X1054441Y178334D01*
X1054534Y178399D01*
X1054629Y178461D01*
X1054726Y178519D01*
X1054825Y178574D01*
X1054926Y178625D01*
X1055029Y178673D01*
X1055133Y178718D01*
X1055239Y178758D01*
X1055346Y178795D01*
X1055454Y178828D01*
X1055564Y178858D01*
X1055674Y178883D01*
X1055785Y178905D01*
X1055897Y178922D01*
X1056010Y178936D01*
X1056123Y178946D01*
X1056236Y178952D01*
X1056349Y178954D01*
X1061541Y178954D01*
X1061654Y178952D01*
X1061767Y178946D01*
X1061880Y178936D01*
X1061993Y178922D01*
X1062105Y178905D01*
X1062216Y178883D01*
X1062326Y178858D01*
X1062436Y178828D01*
X1062544Y178795D01*
X1062651Y178758D01*
X1062757Y178718D01*
X1062861Y178673D01*
X1062964Y178625D01*
X1063065Y178574D01*
X1063164Y178519D01*
X1063261Y178461D01*
X1063356Y178399D01*
X1063449Y178334D01*
X1063539Y178266D01*
X1063627Y178195D01*
X1063713Y178120D01*
X1063796Y178043D01*
X1063876Y177963D01*
X1063953Y177880D01*
X1064028Y177794D01*
X1064099Y177706D01*
X1064167Y177616D01*
X1064232Y177523D01*
X1064294Y177428D01*
X1064352Y177331D01*
X1064407Y177232D01*
X1064458Y177131D01*
X1064506Y177028D01*
X1064551Y176924D01*
X1064591Y176818D01*
X1064628Y176711D01*
X1064661Y176603D01*
X1064691Y176493D01*
X1064716Y176383D01*
X1064738Y176272D01*
X1064755Y176160D01*
X1064769Y176047D01*
X1064779Y175934D01*
X1064785Y175821D01*
X1064787Y175708D01*
X1064787Y172462D01*
X1062191Y184273D02*
X1053103Y186870D01*
X1062191Y184273D02*
X1062191Y190764D01*
X1059594Y188817D02*
X1064787Y188817D01*
D10*
X1104900Y1268730D02*
X1104900Y1372870D01*
X946150Y1372870D02*
X946150Y1268730D01*
X980440Y1372870D02*
X1104900Y1372870D01*
X980440Y1372870D02*
X980440Y1363980D01*
X965200Y1363980D01*
X965200Y1372870D01*
X946150Y1372870D01*
X980440Y1268730D02*
X1104900Y1268730D01*
X980440Y1268730D02*
X980440Y1277620D01*
X965200Y1277620D01*
X965200Y1268730D01*
X946150Y1268730D01*
D13*
X1098550Y1275080D02*
X1098550Y1366520D01*
X1016000Y1366520D01*
X1016000Y1275080D01*
X1098550Y1275080D01*
D10*
X962406Y1320800D02*
X962411Y1321243D01*
X962428Y1321685D01*
X962455Y1322127D01*
X962493Y1322568D01*
X962542Y1323008D01*
X962601Y1323446D01*
X962672Y1323883D01*
X962753Y1324318D01*
X962844Y1324751D01*
X962946Y1325182D01*
X963059Y1325610D01*
X963183Y1326035D01*
X963316Y1326457D01*
X963460Y1326875D01*
X963614Y1327290D01*
X963779Y1327701D01*
X963953Y1328108D01*
X964137Y1328511D01*
X964332Y1328908D01*
X964535Y1329301D01*
X964749Y1329689D01*
X964972Y1330071D01*
X965204Y1330448D01*
X965445Y1330819D01*
X965696Y1331184D01*
X965955Y1331543D01*
X966223Y1331895D01*
X966500Y1332241D01*
X966784Y1332579D01*
X967078Y1332911D01*
X967379Y1333235D01*
X967688Y1333552D01*
X968005Y1333861D01*
X968329Y1334162D01*
X968661Y1334456D01*
X968999Y1334740D01*
X969345Y1335017D01*
X969697Y1335285D01*
X970056Y1335544D01*
X970421Y1335795D01*
X970792Y1336036D01*
X971169Y1336268D01*
X971551Y1336491D01*
X971939Y1336705D01*
X972332Y1336908D01*
X972729Y1337103D01*
X973132Y1337287D01*
X973539Y1337461D01*
X973950Y1337626D01*
X974365Y1337780D01*
X974783Y1337924D01*
X975205Y1338057D01*
X975630Y1338181D01*
X976058Y1338294D01*
X976489Y1338396D01*
X976922Y1338487D01*
X977357Y1338568D01*
X977794Y1338639D01*
X978232Y1338698D01*
X978672Y1338747D01*
X979113Y1338785D01*
X979555Y1338812D01*
X979997Y1338829D01*
X980440Y1338834D01*
X980883Y1338829D01*
X981325Y1338812D01*
X981767Y1338785D01*
X982208Y1338747D01*
X982648Y1338698D01*
X983086Y1338639D01*
X983523Y1338568D01*
X983958Y1338487D01*
X984391Y1338396D01*
X984822Y1338294D01*
X985250Y1338181D01*
X985675Y1338057D01*
X986097Y1337924D01*
X986515Y1337780D01*
X986930Y1337626D01*
X987341Y1337461D01*
X987748Y1337287D01*
X988151Y1337103D01*
X988548Y1336908D01*
X988941Y1336705D01*
X989329Y1336491D01*
X989711Y1336268D01*
X990088Y1336036D01*
X990459Y1335795D01*
X990824Y1335544D01*
X991183Y1335285D01*
X991535Y1335017D01*
X991881Y1334740D01*
X992219Y1334456D01*
X992551Y1334162D01*
X992875Y1333861D01*
X993192Y1333552D01*
X993501Y1333235D01*
X993802Y1332911D01*
X994096Y1332579D01*
X994380Y1332241D01*
X994657Y1331895D01*
X994925Y1331543D01*
X995184Y1331184D01*
X995435Y1330819D01*
X995676Y1330448D01*
X995908Y1330071D01*
X996131Y1329689D01*
X996345Y1329301D01*
X996548Y1328908D01*
X996743Y1328511D01*
X996927Y1328108D01*
X997101Y1327701D01*
X997266Y1327290D01*
X997420Y1326875D01*
X997564Y1326457D01*
X997697Y1326035D01*
X997821Y1325610D01*
X997934Y1325182D01*
X998036Y1324751D01*
X998127Y1324318D01*
X998208Y1323883D01*
X998279Y1323446D01*
X998338Y1323008D01*
X998387Y1322568D01*
X998425Y1322127D01*
X998452Y1321685D01*
X998469Y1321243D01*
X998474Y1320800D01*
X998469Y1320357D01*
X998452Y1319915D01*
X998425Y1319473D01*
X998387Y1319032D01*
X998338Y1318592D01*
X998279Y1318154D01*
X998208Y1317717D01*
X998127Y1317282D01*
X998036Y1316849D01*
X997934Y1316418D01*
X997821Y1315990D01*
X997697Y1315565D01*
X997564Y1315143D01*
X997420Y1314725D01*
X997266Y1314310D01*
X997101Y1313899D01*
X996927Y1313492D01*
X996743Y1313089D01*
X996548Y1312692D01*
X996345Y1312299D01*
X996131Y1311911D01*
X995908Y1311529D01*
X995676Y1311152D01*
X995435Y1310781D01*
X995184Y1310416D01*
X994925Y1310057D01*
X994657Y1309705D01*
X994380Y1309359D01*
X994096Y1309021D01*
X993802Y1308689D01*
X993501Y1308365D01*
X993192Y1308048D01*
X992875Y1307739D01*
X992551Y1307438D01*
X992219Y1307144D01*
X991881Y1306860D01*
X991535Y1306583D01*
X991183Y1306315D01*
X990824Y1306056D01*
X990459Y1305805D01*
X990088Y1305564D01*
X989711Y1305332D01*
X989329Y1305109D01*
X988941Y1304895D01*
X988548Y1304692D01*
X988151Y1304497D01*
X987748Y1304313D01*
X987341Y1304139D01*
X986930Y1303974D01*
X986515Y1303820D01*
X986097Y1303676D01*
X985675Y1303543D01*
X985250Y1303419D01*
X984822Y1303306D01*
X984391Y1303204D01*
X983958Y1303113D01*
X983523Y1303032D01*
X983086Y1302961D01*
X982648Y1302902D01*
X982208Y1302853D01*
X981767Y1302815D01*
X981325Y1302788D01*
X980883Y1302771D01*
X980440Y1302766D01*
X979997Y1302771D01*
X979555Y1302788D01*
X979113Y1302815D01*
X978672Y1302853D01*
X978232Y1302902D01*
X977794Y1302961D01*
X977357Y1303032D01*
X976922Y1303113D01*
X976489Y1303204D01*
X976058Y1303306D01*
X975630Y1303419D01*
X975205Y1303543D01*
X974783Y1303676D01*
X974365Y1303820D01*
X973950Y1303974D01*
X973539Y1304139D01*
X973132Y1304313D01*
X972729Y1304497D01*
X972332Y1304692D01*
X971939Y1304895D01*
X971551Y1305109D01*
X971169Y1305332D01*
X970792Y1305564D01*
X970421Y1305805D01*
X970056Y1306056D01*
X969697Y1306315D01*
X969345Y1306583D01*
X968999Y1306860D01*
X968661Y1307144D01*
X968329Y1307438D01*
X968005Y1307739D01*
X967688Y1308048D01*
X967379Y1308365D01*
X967078Y1308689D01*
X966784Y1309021D01*
X966500Y1309359D01*
X966223Y1309705D01*
X965955Y1310057D01*
X965696Y1310416D01*
X965445Y1310781D01*
X965204Y1311152D01*
X964972Y1311529D01*
X964749Y1311911D01*
X964535Y1312299D01*
X964332Y1312692D01*
X964137Y1313089D01*
X963953Y1313492D01*
X963779Y1313899D01*
X963614Y1314310D01*
X963460Y1314725D01*
X963316Y1315143D01*
X963183Y1315565D01*
X963059Y1315990D01*
X962946Y1316418D01*
X962844Y1316849D01*
X962753Y1317282D01*
X962672Y1317717D01*
X962601Y1318154D01*
X962542Y1318592D01*
X962493Y1319032D01*
X962455Y1319473D01*
X962428Y1319915D01*
X962411Y1320357D01*
X962406Y1320800D01*
X1004189Y1279864D02*
X1012825Y1276985D01*
X1012825Y1282742D02*
X1004189Y1279864D01*
X1010666Y1282023D02*
X1010666Y1277705D01*
X1006108Y1286380D02*
X1004189Y1288779D01*
X1012825Y1288779D01*
X1012825Y1286380D02*
X1012825Y1291178D01*
X1005149Y1295296D02*
X1004189Y1295296D01*
X1004189Y1300093D01*
X1012825Y1297694D01*
X1012825Y1303651D02*
X1012825Y1304131D01*
X1012825Y1303651D02*
X1012345Y1303651D01*
X1012345Y1304131D01*
X1012825Y1304131D01*
X1014744Y1303412D01*
X1012825Y1307777D02*
X1012825Y1310656D01*
X1012823Y1310742D01*
X1012817Y1310828D01*
X1012808Y1310914D01*
X1012794Y1310999D01*
X1012777Y1311083D01*
X1012756Y1311167D01*
X1012731Y1311249D01*
X1012703Y1311330D01*
X1012671Y1311410D01*
X1012635Y1311489D01*
X1012596Y1311565D01*
X1012553Y1311640D01*
X1012508Y1311713D01*
X1012459Y1311784D01*
X1012406Y1311852D01*
X1012351Y1311919D01*
X1012293Y1311982D01*
X1012232Y1312043D01*
X1012169Y1312101D01*
X1012102Y1312156D01*
X1012034Y1312209D01*
X1011963Y1312258D01*
X1011890Y1312303D01*
X1011815Y1312346D01*
X1011739Y1312385D01*
X1011660Y1312421D01*
X1011580Y1312453D01*
X1011499Y1312481D01*
X1011417Y1312506D01*
X1011333Y1312527D01*
X1011249Y1312544D01*
X1011164Y1312558D01*
X1011078Y1312567D01*
X1010992Y1312573D01*
X1010906Y1312575D01*
X1009946Y1312575D01*
X1009860Y1312573D01*
X1009774Y1312567D01*
X1009688Y1312558D01*
X1009603Y1312544D01*
X1009519Y1312527D01*
X1009435Y1312506D01*
X1009353Y1312481D01*
X1009272Y1312453D01*
X1009192Y1312421D01*
X1009113Y1312385D01*
X1009037Y1312346D01*
X1008962Y1312303D01*
X1008889Y1312258D01*
X1008818Y1312209D01*
X1008750Y1312156D01*
X1008683Y1312101D01*
X1008620Y1312043D01*
X1008559Y1311982D01*
X1008501Y1311919D01*
X1008446Y1311852D01*
X1008394Y1311784D01*
X1008344Y1311713D01*
X1008299Y1311640D01*
X1008256Y1311565D01*
X1008217Y1311489D01*
X1008181Y1311410D01*
X1008149Y1311330D01*
X1008121Y1311249D01*
X1008096Y1311167D01*
X1008075Y1311083D01*
X1008058Y1310999D01*
X1008044Y1310914D01*
X1008035Y1310828D01*
X1008029Y1310742D01*
X1008027Y1310656D01*
X1008027Y1307777D01*
X1004189Y1307777D01*
X1004189Y1312575D01*
X1007068Y1317104D02*
X1012825Y1317104D01*
X1007068Y1317104D02*
X1007068Y1321422D01*
X1007070Y1321497D01*
X1007076Y1321572D01*
X1007086Y1321647D01*
X1007099Y1321721D01*
X1007117Y1321794D01*
X1007138Y1321867D01*
X1007164Y1321938D01*
X1007192Y1322007D01*
X1007225Y1322075D01*
X1007261Y1322142D01*
X1007300Y1322206D01*
X1007343Y1322268D01*
X1007389Y1322328D01*
X1007438Y1322385D01*
X1007489Y1322440D01*
X1007544Y1322491D01*
X1007601Y1322540D01*
X1007661Y1322586D01*
X1007723Y1322629D01*
X1007788Y1322668D01*
X1007854Y1322704D01*
X1007922Y1322737D01*
X1007991Y1322765D01*
X1008062Y1322791D01*
X1008135Y1322812D01*
X1008208Y1322830D01*
X1008282Y1322843D01*
X1008357Y1322853D01*
X1008432Y1322859D01*
X1008507Y1322861D01*
X1012825Y1322861D01*
X1012825Y1319983D02*
X1007068Y1319983D01*
X1007068Y1327803D02*
X1012825Y1327803D01*
X1007068Y1327803D02*
X1007068Y1332121D01*
X1007070Y1332196D01*
X1007076Y1332271D01*
X1007086Y1332346D01*
X1007099Y1332420D01*
X1007117Y1332493D01*
X1007138Y1332566D01*
X1007164Y1332637D01*
X1007192Y1332706D01*
X1007225Y1332774D01*
X1007261Y1332841D01*
X1007300Y1332905D01*
X1007343Y1332967D01*
X1007389Y1333027D01*
X1007438Y1333084D01*
X1007489Y1333139D01*
X1007544Y1333190D01*
X1007601Y1333239D01*
X1007661Y1333285D01*
X1007723Y1333328D01*
X1007788Y1333367D01*
X1007854Y1333403D01*
X1007922Y1333436D01*
X1007991Y1333464D01*
X1008062Y1333490D01*
X1008135Y1333511D01*
X1008208Y1333529D01*
X1008282Y1333542D01*
X1008357Y1333552D01*
X1008432Y1333558D01*
X1008507Y1333560D01*
X1012825Y1333560D01*
X1012825Y1330681D02*
X1007068Y1330681D01*
D14*
X1136015Y1346200D03*
X1136015Y1320800D03*
X1136015Y1295400D03*
D15*
X1118870Y1295400D03*
X1118870Y1320800D03*
X1118870Y1346200D03*
D16*
X939419Y1380109D02*
X939419Y1387221D01*
X939421Y1387353D01*
X939427Y1387484D01*
X939437Y1387616D01*
X939450Y1387747D01*
X939468Y1387877D01*
X939489Y1388007D01*
X939514Y1388137D01*
X939543Y1388265D01*
X939576Y1388393D01*
X939613Y1388519D01*
X939653Y1388645D01*
X939697Y1388769D01*
X939745Y1388892D01*
X939796Y1389013D01*
X939851Y1389133D01*
X939909Y1389251D01*
X939971Y1389367D01*
X940037Y1389481D01*
X940105Y1389594D01*
X940177Y1389704D01*
X940252Y1389812D01*
X940331Y1389918D01*
X940412Y1390022D01*
X940497Y1390123D01*
X940584Y1390221D01*
X940675Y1390317D01*
X940768Y1390410D01*
X940864Y1390501D01*
X940962Y1390588D01*
X941063Y1390673D01*
X941167Y1390754D01*
X941273Y1390833D01*
X941381Y1390908D01*
X941491Y1390980D01*
X941604Y1391048D01*
X941718Y1391114D01*
X941834Y1391176D01*
X941952Y1391234D01*
X942072Y1391289D01*
X942193Y1391340D01*
X942316Y1391388D01*
X942440Y1391432D01*
X942566Y1391472D01*
X942692Y1391509D01*
X942820Y1391542D01*
X942948Y1391571D01*
X943078Y1391596D01*
X943208Y1391617D01*
X943338Y1391635D01*
X943469Y1391648D01*
X943601Y1391658D01*
X943732Y1391664D01*
X943864Y1391666D01*
X943996Y1391664D01*
X944127Y1391658D01*
X944259Y1391648D01*
X944390Y1391635D01*
X944520Y1391617D01*
X944650Y1391596D01*
X944780Y1391571D01*
X944908Y1391542D01*
X945036Y1391509D01*
X945162Y1391472D01*
X945288Y1391432D01*
X945412Y1391388D01*
X945535Y1391340D01*
X945656Y1391289D01*
X945776Y1391234D01*
X945894Y1391176D01*
X946010Y1391114D01*
X946124Y1391048D01*
X946237Y1390980D01*
X946347Y1390908D01*
X946455Y1390833D01*
X946561Y1390754D01*
X946665Y1390673D01*
X946766Y1390588D01*
X946864Y1390501D01*
X946960Y1390410D01*
X947053Y1390317D01*
X947144Y1390221D01*
X947231Y1390123D01*
X947316Y1390022D01*
X947397Y1389918D01*
X947476Y1389812D01*
X947551Y1389704D01*
X947623Y1389594D01*
X947691Y1389481D01*
X947757Y1389367D01*
X947819Y1389251D01*
X947877Y1389133D01*
X947932Y1389013D01*
X947983Y1388892D01*
X948031Y1388769D01*
X948075Y1388645D01*
X948115Y1388519D01*
X948152Y1388393D01*
X948185Y1388265D01*
X948214Y1388137D01*
X948239Y1388007D01*
X948260Y1387877D01*
X948278Y1387747D01*
X948291Y1387616D01*
X948301Y1387484D01*
X948307Y1387353D01*
X948309Y1387221D01*
X948309Y1380109D01*
X948307Y1379977D01*
X948301Y1379846D01*
X948291Y1379714D01*
X948278Y1379583D01*
X948260Y1379453D01*
X948239Y1379323D01*
X948214Y1379193D01*
X948185Y1379065D01*
X948152Y1378937D01*
X948115Y1378811D01*
X948075Y1378685D01*
X948031Y1378561D01*
X947983Y1378438D01*
X947932Y1378317D01*
X947877Y1378197D01*
X947819Y1378079D01*
X947757Y1377963D01*
X947691Y1377849D01*
X947623Y1377736D01*
X947551Y1377626D01*
X947476Y1377518D01*
X947397Y1377412D01*
X947316Y1377308D01*
X947231Y1377207D01*
X947144Y1377109D01*
X947053Y1377013D01*
X946960Y1376920D01*
X946864Y1376829D01*
X946766Y1376742D01*
X946665Y1376657D01*
X946561Y1376576D01*
X946455Y1376497D01*
X946347Y1376422D01*
X946237Y1376350D01*
X946124Y1376282D01*
X946010Y1376216D01*
X945894Y1376154D01*
X945776Y1376096D01*
X945656Y1376041D01*
X945535Y1375990D01*
X945412Y1375942D01*
X945288Y1375898D01*
X945162Y1375858D01*
X945036Y1375821D01*
X944908Y1375788D01*
X944780Y1375759D01*
X944650Y1375734D01*
X944520Y1375713D01*
X944390Y1375695D01*
X944259Y1375682D01*
X944127Y1375672D01*
X943996Y1375666D01*
X943864Y1375664D01*
X943732Y1375666D01*
X943601Y1375672D01*
X943469Y1375682D01*
X943338Y1375695D01*
X943208Y1375713D01*
X943078Y1375734D01*
X942948Y1375759D01*
X942820Y1375788D01*
X942692Y1375821D01*
X942566Y1375858D01*
X942440Y1375898D01*
X942316Y1375942D01*
X942193Y1375990D01*
X942072Y1376041D01*
X941952Y1376096D01*
X941834Y1376154D01*
X941718Y1376216D01*
X941604Y1376282D01*
X941491Y1376350D01*
X941381Y1376422D01*
X941273Y1376497D01*
X941167Y1376576D01*
X941063Y1376657D01*
X940962Y1376742D01*
X940864Y1376829D01*
X940768Y1376920D01*
X940675Y1377013D01*
X940584Y1377109D01*
X940497Y1377207D01*
X940412Y1377308D01*
X940331Y1377412D01*
X940252Y1377518D01*
X940177Y1377626D01*
X940105Y1377736D01*
X940037Y1377849D01*
X939971Y1377963D01*
X939909Y1378079D01*
X939851Y1378197D01*
X939796Y1378317D01*
X939745Y1378438D01*
X939697Y1378561D01*
X939653Y1378685D01*
X939613Y1378811D01*
X939576Y1378937D01*
X939543Y1379065D01*
X939514Y1379193D01*
X939489Y1379323D01*
X939468Y1379453D01*
X939450Y1379583D01*
X939437Y1379714D01*
X939427Y1379846D01*
X939421Y1379977D01*
X939419Y1380109D01*
X946531Y1379220D02*
X950087Y1375664D01*
X954650Y1388110D02*
X959095Y1391666D01*
X959095Y1375664D01*
X954650Y1375664D02*
X963540Y1375664D01*
D10*
X614266Y1263229D02*
X614266Y1212429D01*
X436466Y1212429D01*
X436466Y1263229D02*
X614266Y1263229D01*
X436466Y1263229D02*
X436466Y1250529D01*
X436466Y1225129D02*
X436466Y1212429D01*
X436466Y1225129D02*
X436773Y1225133D01*
X437080Y1225144D01*
X437386Y1225162D01*
X437692Y1225188D01*
X437997Y1225222D01*
X438301Y1225262D01*
X438604Y1225310D01*
X438906Y1225366D01*
X439206Y1225428D01*
X439505Y1225498D01*
X439802Y1225575D01*
X440098Y1225659D01*
X440391Y1225751D01*
X440681Y1225849D01*
X440969Y1225954D01*
X441255Y1226067D01*
X441538Y1226186D01*
X441818Y1226312D01*
X442095Y1226444D01*
X442368Y1226584D01*
X442638Y1226730D01*
X442904Y1226882D01*
X443167Y1227041D01*
X443426Y1227206D01*
X443680Y1227377D01*
X443931Y1227554D01*
X444177Y1227738D01*
X444419Y1227927D01*
X444655Y1228122D01*
X444888Y1228323D01*
X445115Y1228529D01*
X445337Y1228741D01*
X445554Y1228958D01*
X445766Y1229180D01*
X445972Y1229407D01*
X446173Y1229640D01*
X446368Y1229876D01*
X446557Y1230118D01*
X446741Y1230364D01*
X446918Y1230615D01*
X447089Y1230869D01*
X447254Y1231128D01*
X447413Y1231391D01*
X447565Y1231657D01*
X447711Y1231927D01*
X447851Y1232200D01*
X447983Y1232477D01*
X448109Y1232757D01*
X448228Y1233040D01*
X448341Y1233326D01*
X448446Y1233614D01*
X448544Y1233904D01*
X448636Y1234197D01*
X448720Y1234493D01*
X448797Y1234790D01*
X448867Y1235089D01*
X448929Y1235389D01*
X448985Y1235691D01*
X449033Y1235994D01*
X449073Y1236298D01*
X449107Y1236603D01*
X449133Y1236909D01*
X449151Y1237215D01*
X449162Y1237522D01*
X449166Y1237829D01*
X449162Y1238136D01*
X449151Y1238443D01*
X449133Y1238749D01*
X449107Y1239055D01*
X449073Y1239360D01*
X449033Y1239664D01*
X448985Y1239967D01*
X448929Y1240269D01*
X448867Y1240569D01*
X448797Y1240868D01*
X448720Y1241165D01*
X448636Y1241461D01*
X448544Y1241754D01*
X448446Y1242044D01*
X448341Y1242332D01*
X448228Y1242618D01*
X448109Y1242901D01*
X447983Y1243181D01*
X447851Y1243458D01*
X447711Y1243731D01*
X447565Y1244001D01*
X447413Y1244267D01*
X447254Y1244530D01*
X447089Y1244789D01*
X446918Y1245043D01*
X446741Y1245294D01*
X446557Y1245540D01*
X446368Y1245782D01*
X446173Y1246018D01*
X445972Y1246251D01*
X445766Y1246478D01*
X445554Y1246700D01*
X445337Y1246917D01*
X445115Y1247129D01*
X444888Y1247335D01*
X444655Y1247536D01*
X444419Y1247731D01*
X444177Y1247920D01*
X443931Y1248104D01*
X443680Y1248281D01*
X443426Y1248452D01*
X443167Y1248617D01*
X442904Y1248776D01*
X442638Y1248928D01*
X442368Y1249074D01*
X442095Y1249214D01*
X441818Y1249346D01*
X441538Y1249472D01*
X441255Y1249591D01*
X440969Y1249704D01*
X440681Y1249809D01*
X440391Y1249907D01*
X440098Y1249999D01*
X439802Y1250083D01*
X439505Y1250160D01*
X439206Y1250230D01*
X438906Y1250292D01*
X438604Y1250348D01*
X438301Y1250396D01*
X437997Y1250436D01*
X437692Y1250470D01*
X437386Y1250496D01*
X437080Y1250514D01*
X436773Y1250525D01*
X436466Y1250529D01*
D12*
X427958Y1289968D02*
X427958Y1298407D01*
X427958Y1289968D02*
X427960Y1289855D01*
X427966Y1289742D01*
X427976Y1289629D01*
X427990Y1289516D01*
X428007Y1289404D01*
X428029Y1289293D01*
X428054Y1289183D01*
X428084Y1289073D01*
X428117Y1288965D01*
X428154Y1288858D01*
X428194Y1288752D01*
X428239Y1288648D01*
X428287Y1288545D01*
X428338Y1288444D01*
X428393Y1288345D01*
X428451Y1288248D01*
X428513Y1288153D01*
X428578Y1288060D01*
X428646Y1287970D01*
X428717Y1287882D01*
X428792Y1287796D01*
X428869Y1287713D01*
X428949Y1287633D01*
X429032Y1287556D01*
X429118Y1287481D01*
X429206Y1287410D01*
X429296Y1287342D01*
X429389Y1287277D01*
X429484Y1287215D01*
X429581Y1287157D01*
X429680Y1287102D01*
X429781Y1287051D01*
X429884Y1287003D01*
X429988Y1286958D01*
X430094Y1286918D01*
X430201Y1286881D01*
X430309Y1286848D01*
X430419Y1286818D01*
X430529Y1286793D01*
X430640Y1286771D01*
X430752Y1286754D01*
X430865Y1286740D01*
X430978Y1286730D01*
X431091Y1286724D01*
X431204Y1286722D01*
X431317Y1286724D01*
X431430Y1286730D01*
X431543Y1286740D01*
X431656Y1286754D01*
X431768Y1286771D01*
X431879Y1286793D01*
X431989Y1286818D01*
X432099Y1286848D01*
X432207Y1286881D01*
X432314Y1286918D01*
X432420Y1286958D01*
X432524Y1287003D01*
X432627Y1287051D01*
X432728Y1287102D01*
X432827Y1287157D01*
X432924Y1287215D01*
X433019Y1287277D01*
X433112Y1287342D01*
X433202Y1287410D01*
X433290Y1287481D01*
X433376Y1287556D01*
X433459Y1287633D01*
X433539Y1287713D01*
X433616Y1287796D01*
X433691Y1287882D01*
X433762Y1287970D01*
X433830Y1288060D01*
X433895Y1288153D01*
X433957Y1288248D01*
X434015Y1288345D01*
X434070Y1288444D01*
X434121Y1288545D01*
X434169Y1288648D01*
X434214Y1288752D01*
X434254Y1288858D01*
X434291Y1288965D01*
X434324Y1289073D01*
X434354Y1289183D01*
X434379Y1289293D01*
X434401Y1289404D01*
X434418Y1289516D01*
X434432Y1289629D01*
X434442Y1289742D01*
X434448Y1289855D01*
X434450Y1289968D01*
X434449Y1289968D02*
X434449Y1298407D01*
X439769Y1295810D02*
X443015Y1298407D01*
X443015Y1286723D01*
X446260Y1286723D02*
X439769Y1286723D01*
X451199Y1289319D02*
X453796Y1298407D01*
X451199Y1289319D02*
X457690Y1289319D01*
X455743Y1291916D02*
X455743Y1286723D01*
D10*
X1430020Y678180D02*
X1430020Y627380D01*
X1277620Y627380D01*
X1277620Y678180D02*
X1430020Y678180D01*
X1277620Y678180D02*
X1277620Y665480D01*
X1277620Y640080D02*
X1277620Y627380D01*
X1277620Y640080D02*
X1277927Y640084D01*
X1278234Y640095D01*
X1278540Y640113D01*
X1278846Y640139D01*
X1279151Y640173D01*
X1279455Y640213D01*
X1279758Y640261D01*
X1280060Y640317D01*
X1280360Y640379D01*
X1280659Y640449D01*
X1280956Y640526D01*
X1281252Y640610D01*
X1281545Y640702D01*
X1281835Y640800D01*
X1282123Y640905D01*
X1282409Y641018D01*
X1282692Y641137D01*
X1282972Y641263D01*
X1283249Y641395D01*
X1283522Y641535D01*
X1283792Y641681D01*
X1284058Y641833D01*
X1284321Y641992D01*
X1284580Y642157D01*
X1284834Y642328D01*
X1285085Y642505D01*
X1285331Y642689D01*
X1285573Y642878D01*
X1285809Y643073D01*
X1286042Y643274D01*
X1286269Y643480D01*
X1286491Y643692D01*
X1286708Y643909D01*
X1286920Y644131D01*
X1287126Y644358D01*
X1287327Y644591D01*
X1287522Y644827D01*
X1287711Y645069D01*
X1287895Y645315D01*
X1288072Y645566D01*
X1288243Y645820D01*
X1288408Y646079D01*
X1288567Y646342D01*
X1288719Y646608D01*
X1288865Y646878D01*
X1289005Y647151D01*
X1289137Y647428D01*
X1289263Y647708D01*
X1289382Y647991D01*
X1289495Y648277D01*
X1289600Y648565D01*
X1289698Y648855D01*
X1289790Y649148D01*
X1289874Y649444D01*
X1289951Y649741D01*
X1290021Y650040D01*
X1290083Y650340D01*
X1290139Y650642D01*
X1290187Y650945D01*
X1290227Y651249D01*
X1290261Y651554D01*
X1290287Y651860D01*
X1290305Y652166D01*
X1290316Y652473D01*
X1290320Y652780D01*
X1290316Y653087D01*
X1290305Y653394D01*
X1290287Y653700D01*
X1290261Y654006D01*
X1290227Y654311D01*
X1290187Y654615D01*
X1290139Y654918D01*
X1290083Y655220D01*
X1290021Y655520D01*
X1289951Y655819D01*
X1289874Y656116D01*
X1289790Y656412D01*
X1289698Y656705D01*
X1289600Y656995D01*
X1289495Y657283D01*
X1289382Y657569D01*
X1289263Y657852D01*
X1289137Y658132D01*
X1289005Y658409D01*
X1288865Y658682D01*
X1288719Y658952D01*
X1288567Y659218D01*
X1288408Y659481D01*
X1288243Y659740D01*
X1288072Y659994D01*
X1287895Y660245D01*
X1287711Y660491D01*
X1287522Y660733D01*
X1287327Y660969D01*
X1287126Y661202D01*
X1286920Y661429D01*
X1286708Y661651D01*
X1286491Y661868D01*
X1286269Y662080D01*
X1286042Y662286D01*
X1285809Y662487D01*
X1285573Y662682D01*
X1285331Y662871D01*
X1285085Y663055D01*
X1284834Y663232D01*
X1284580Y663403D01*
X1284321Y663568D01*
X1284058Y663727D01*
X1283792Y663879D01*
X1283522Y664025D01*
X1283249Y664165D01*
X1282972Y664297D01*
X1282692Y664423D01*
X1282409Y664542D01*
X1282123Y664655D01*
X1281835Y664760D01*
X1281545Y664858D01*
X1281252Y664950D01*
X1280956Y665034D01*
X1280659Y665111D01*
X1280360Y665181D01*
X1280060Y665243D01*
X1279758Y665299D01*
X1279455Y665347D01*
X1279151Y665387D01*
X1278846Y665421D01*
X1278540Y665447D01*
X1278234Y665465D01*
X1277927Y665476D01*
X1277620Y665480D01*
D12*
X1269112Y704920D02*
X1269112Y713358D01*
X1269112Y704920D02*
X1269114Y704807D01*
X1269120Y704694D01*
X1269130Y704581D01*
X1269144Y704468D01*
X1269161Y704356D01*
X1269183Y704245D01*
X1269208Y704135D01*
X1269238Y704025D01*
X1269271Y703917D01*
X1269308Y703810D01*
X1269348Y703704D01*
X1269393Y703600D01*
X1269441Y703497D01*
X1269492Y703396D01*
X1269547Y703297D01*
X1269605Y703200D01*
X1269667Y703105D01*
X1269732Y703012D01*
X1269800Y702922D01*
X1269871Y702834D01*
X1269946Y702748D01*
X1270023Y702665D01*
X1270103Y702585D01*
X1270186Y702508D01*
X1270272Y702433D01*
X1270360Y702362D01*
X1270450Y702294D01*
X1270543Y702229D01*
X1270638Y702167D01*
X1270735Y702109D01*
X1270834Y702054D01*
X1270935Y702003D01*
X1271038Y701955D01*
X1271142Y701910D01*
X1271248Y701870D01*
X1271355Y701833D01*
X1271463Y701800D01*
X1271573Y701770D01*
X1271683Y701745D01*
X1271794Y701723D01*
X1271906Y701706D01*
X1272019Y701692D01*
X1272132Y701682D01*
X1272245Y701676D01*
X1272358Y701674D01*
X1272471Y701676D01*
X1272584Y701682D01*
X1272697Y701692D01*
X1272810Y701706D01*
X1272922Y701723D01*
X1273033Y701745D01*
X1273143Y701770D01*
X1273253Y701800D01*
X1273361Y701833D01*
X1273468Y701870D01*
X1273574Y701910D01*
X1273678Y701955D01*
X1273781Y702003D01*
X1273882Y702054D01*
X1273981Y702109D01*
X1274078Y702167D01*
X1274173Y702229D01*
X1274266Y702294D01*
X1274356Y702362D01*
X1274444Y702433D01*
X1274530Y702508D01*
X1274613Y702585D01*
X1274693Y702665D01*
X1274770Y702748D01*
X1274845Y702834D01*
X1274916Y702922D01*
X1274984Y703012D01*
X1275049Y703105D01*
X1275111Y703200D01*
X1275169Y703297D01*
X1275224Y703396D01*
X1275275Y703497D01*
X1275323Y703600D01*
X1275368Y703704D01*
X1275408Y703810D01*
X1275445Y703917D01*
X1275478Y704025D01*
X1275508Y704135D01*
X1275533Y704245D01*
X1275555Y704356D01*
X1275572Y704468D01*
X1275586Y704581D01*
X1275596Y704694D01*
X1275602Y704807D01*
X1275604Y704920D01*
X1275603Y704920D02*
X1275603Y713358D01*
X1280923Y710762D02*
X1284169Y713358D01*
X1284169Y701674D01*
X1287414Y701674D02*
X1280923Y701674D01*
X1292353Y708165D02*
X1296248Y708165D01*
X1296347Y708163D01*
X1296447Y708157D01*
X1296546Y708148D01*
X1296644Y708135D01*
X1296742Y708118D01*
X1296840Y708097D01*
X1296936Y708072D01*
X1297031Y708044D01*
X1297125Y708012D01*
X1297218Y707977D01*
X1297310Y707938D01*
X1297400Y707895D01*
X1297488Y707850D01*
X1297575Y707800D01*
X1297659Y707748D01*
X1297742Y707692D01*
X1297822Y707634D01*
X1297900Y707572D01*
X1297975Y707507D01*
X1298048Y707439D01*
X1298118Y707369D01*
X1298186Y707296D01*
X1298251Y707221D01*
X1298313Y707143D01*
X1298371Y707063D01*
X1298427Y706980D01*
X1298479Y706896D01*
X1298529Y706809D01*
X1298574Y706721D01*
X1298617Y706631D01*
X1298656Y706539D01*
X1298691Y706446D01*
X1298723Y706352D01*
X1298751Y706257D01*
X1298776Y706161D01*
X1298797Y706063D01*
X1298814Y705965D01*
X1298827Y705867D01*
X1298836Y705768D01*
X1298842Y705668D01*
X1298844Y705569D01*
X1298844Y704920D01*
X1298842Y704807D01*
X1298836Y704694D01*
X1298826Y704581D01*
X1298812Y704468D01*
X1298795Y704356D01*
X1298773Y704245D01*
X1298748Y704135D01*
X1298718Y704025D01*
X1298685Y703917D01*
X1298648Y703810D01*
X1298608Y703704D01*
X1298563Y703600D01*
X1298515Y703497D01*
X1298464Y703396D01*
X1298409Y703297D01*
X1298351Y703200D01*
X1298289Y703105D01*
X1298224Y703012D01*
X1298156Y702922D01*
X1298085Y702834D01*
X1298010Y702748D01*
X1297933Y702665D01*
X1297853Y702585D01*
X1297770Y702508D01*
X1297684Y702433D01*
X1297596Y702362D01*
X1297506Y702294D01*
X1297413Y702229D01*
X1297318Y702167D01*
X1297221Y702109D01*
X1297122Y702054D01*
X1297021Y702003D01*
X1296918Y701955D01*
X1296814Y701910D01*
X1296708Y701870D01*
X1296601Y701833D01*
X1296493Y701800D01*
X1296383Y701770D01*
X1296273Y701745D01*
X1296162Y701723D01*
X1296050Y701706D01*
X1295937Y701692D01*
X1295824Y701682D01*
X1295711Y701676D01*
X1295598Y701674D01*
X1295485Y701676D01*
X1295372Y701682D01*
X1295259Y701692D01*
X1295146Y701706D01*
X1295034Y701723D01*
X1294923Y701745D01*
X1294813Y701770D01*
X1294703Y701800D01*
X1294595Y701833D01*
X1294488Y701870D01*
X1294382Y701910D01*
X1294278Y701955D01*
X1294175Y702003D01*
X1294074Y702054D01*
X1293975Y702109D01*
X1293878Y702167D01*
X1293783Y702229D01*
X1293690Y702294D01*
X1293600Y702362D01*
X1293512Y702433D01*
X1293426Y702508D01*
X1293343Y702585D01*
X1293263Y702665D01*
X1293186Y702748D01*
X1293111Y702834D01*
X1293040Y702922D01*
X1292972Y703012D01*
X1292907Y703105D01*
X1292845Y703200D01*
X1292787Y703297D01*
X1292732Y703396D01*
X1292681Y703497D01*
X1292633Y703600D01*
X1292588Y703704D01*
X1292548Y703810D01*
X1292511Y703917D01*
X1292478Y704025D01*
X1292448Y704135D01*
X1292423Y704245D01*
X1292401Y704356D01*
X1292384Y704468D01*
X1292370Y704581D01*
X1292360Y704694D01*
X1292354Y704807D01*
X1292352Y704920D01*
X1292353Y704920D02*
X1292353Y708165D01*
X1292355Y708308D01*
X1292361Y708451D01*
X1292371Y708594D01*
X1292385Y708736D01*
X1292402Y708878D01*
X1292424Y709020D01*
X1292449Y709161D01*
X1292479Y709301D01*
X1292512Y709440D01*
X1292549Y709578D01*
X1292590Y709715D01*
X1292634Y709851D01*
X1292683Y709986D01*
X1292735Y710119D01*
X1292790Y710251D01*
X1292850Y710381D01*
X1292913Y710510D01*
X1292979Y710637D01*
X1293049Y710761D01*
X1293122Y710884D01*
X1293199Y711005D01*
X1293279Y711124D01*
X1293362Y711240D01*
X1293448Y711355D01*
X1293537Y711466D01*
X1293630Y711576D01*
X1293725Y711682D01*
X1293824Y711786D01*
X1293925Y711887D01*
X1294029Y711986D01*
X1294135Y712081D01*
X1294245Y712174D01*
X1294356Y712263D01*
X1294471Y712349D01*
X1294587Y712432D01*
X1294706Y712512D01*
X1294827Y712589D01*
X1294949Y712662D01*
X1295074Y712732D01*
X1295201Y712798D01*
X1295330Y712861D01*
X1295460Y712921D01*
X1295592Y712976D01*
X1295725Y713028D01*
X1295860Y713077D01*
X1295996Y713121D01*
X1296133Y713162D01*
X1296271Y713199D01*
X1296410Y713232D01*
X1296550Y713262D01*
X1296691Y713287D01*
X1296833Y713309D01*
X1296975Y713326D01*
X1297117Y713340D01*
X1297260Y713350D01*
X1297403Y713356D01*
X1297546Y713358D01*
D10*
X698500Y685800D02*
X698500Y635000D01*
X698500Y685800D02*
X876300Y685800D01*
X876300Y635000D02*
X698500Y635000D01*
X876300Y635000D02*
X876300Y647700D01*
X876300Y673100D02*
X876300Y685800D01*
X876300Y673100D02*
X875993Y673096D01*
X875686Y673085D01*
X875380Y673067D01*
X875074Y673041D01*
X874769Y673007D01*
X874465Y672967D01*
X874162Y672919D01*
X873860Y672863D01*
X873560Y672801D01*
X873261Y672731D01*
X872964Y672654D01*
X872668Y672570D01*
X872375Y672478D01*
X872085Y672380D01*
X871797Y672275D01*
X871511Y672162D01*
X871228Y672043D01*
X870948Y671917D01*
X870671Y671785D01*
X870398Y671645D01*
X870128Y671499D01*
X869862Y671347D01*
X869599Y671188D01*
X869340Y671023D01*
X869086Y670852D01*
X868835Y670675D01*
X868589Y670491D01*
X868347Y670302D01*
X868111Y670107D01*
X867878Y669906D01*
X867651Y669700D01*
X867429Y669488D01*
X867212Y669271D01*
X867000Y669049D01*
X866794Y668822D01*
X866593Y668589D01*
X866398Y668353D01*
X866209Y668111D01*
X866025Y667865D01*
X865848Y667614D01*
X865677Y667360D01*
X865512Y667101D01*
X865353Y666838D01*
X865201Y666572D01*
X865055Y666302D01*
X864915Y666029D01*
X864783Y665752D01*
X864657Y665472D01*
X864538Y665189D01*
X864425Y664903D01*
X864320Y664615D01*
X864222Y664325D01*
X864130Y664032D01*
X864046Y663736D01*
X863969Y663439D01*
X863899Y663140D01*
X863837Y662840D01*
X863781Y662538D01*
X863733Y662235D01*
X863693Y661931D01*
X863659Y661626D01*
X863633Y661320D01*
X863615Y661014D01*
X863604Y660707D01*
X863600Y660400D01*
X863604Y660093D01*
X863615Y659786D01*
X863633Y659480D01*
X863659Y659174D01*
X863693Y658869D01*
X863733Y658565D01*
X863781Y658262D01*
X863837Y657960D01*
X863899Y657660D01*
X863969Y657361D01*
X864046Y657064D01*
X864130Y656768D01*
X864222Y656475D01*
X864320Y656185D01*
X864425Y655897D01*
X864538Y655611D01*
X864657Y655328D01*
X864783Y655048D01*
X864915Y654771D01*
X865055Y654498D01*
X865201Y654228D01*
X865353Y653962D01*
X865512Y653699D01*
X865677Y653440D01*
X865848Y653186D01*
X866025Y652935D01*
X866209Y652689D01*
X866398Y652447D01*
X866593Y652211D01*
X866794Y651978D01*
X867000Y651751D01*
X867212Y651529D01*
X867429Y651312D01*
X867651Y651100D01*
X867878Y650894D01*
X868111Y650693D01*
X868347Y650498D01*
X868589Y650309D01*
X868835Y650125D01*
X869086Y649948D01*
X869340Y649777D01*
X869599Y649612D01*
X869862Y649453D01*
X870128Y649301D01*
X870398Y649155D01*
X870671Y649015D01*
X870948Y648883D01*
X871228Y648757D01*
X871511Y648638D01*
X871797Y648525D01*
X872085Y648420D01*
X872375Y648322D01*
X872668Y648230D01*
X872964Y648146D01*
X873261Y648069D01*
X873560Y647999D01*
X873860Y647937D01*
X874162Y647881D01*
X874465Y647833D01*
X874769Y647793D01*
X875074Y647759D01*
X875380Y647733D01*
X875686Y647715D01*
X875993Y647704D01*
X876300Y647700D01*
D12*
X689992Y712540D02*
X689992Y720978D01*
X689992Y712540D02*
X689994Y712427D01*
X690000Y712314D01*
X690010Y712201D01*
X690024Y712088D01*
X690041Y711976D01*
X690063Y711865D01*
X690088Y711755D01*
X690118Y711645D01*
X690151Y711537D01*
X690188Y711430D01*
X690228Y711324D01*
X690273Y711220D01*
X690321Y711117D01*
X690372Y711016D01*
X690427Y710917D01*
X690485Y710820D01*
X690547Y710725D01*
X690612Y710632D01*
X690680Y710542D01*
X690751Y710454D01*
X690826Y710368D01*
X690903Y710285D01*
X690983Y710205D01*
X691066Y710128D01*
X691152Y710053D01*
X691240Y709982D01*
X691330Y709914D01*
X691423Y709849D01*
X691518Y709787D01*
X691615Y709729D01*
X691714Y709674D01*
X691815Y709623D01*
X691918Y709575D01*
X692022Y709530D01*
X692128Y709490D01*
X692235Y709453D01*
X692343Y709420D01*
X692453Y709390D01*
X692563Y709365D01*
X692674Y709343D01*
X692786Y709326D01*
X692899Y709312D01*
X693012Y709302D01*
X693125Y709296D01*
X693238Y709294D01*
X693351Y709296D01*
X693464Y709302D01*
X693577Y709312D01*
X693690Y709326D01*
X693802Y709343D01*
X693913Y709365D01*
X694023Y709390D01*
X694133Y709420D01*
X694241Y709453D01*
X694348Y709490D01*
X694454Y709530D01*
X694558Y709575D01*
X694661Y709623D01*
X694762Y709674D01*
X694861Y709729D01*
X694958Y709787D01*
X695053Y709849D01*
X695146Y709914D01*
X695236Y709982D01*
X695324Y710053D01*
X695410Y710128D01*
X695493Y710205D01*
X695573Y710285D01*
X695650Y710368D01*
X695725Y710454D01*
X695796Y710542D01*
X695864Y710632D01*
X695929Y710725D01*
X695991Y710820D01*
X696049Y710917D01*
X696104Y711016D01*
X696155Y711117D01*
X696203Y711220D01*
X696248Y711324D01*
X696288Y711430D01*
X696325Y711537D01*
X696358Y711645D01*
X696388Y711755D01*
X696413Y711865D01*
X696435Y711976D01*
X696452Y712088D01*
X696466Y712201D01*
X696476Y712314D01*
X696482Y712427D01*
X696484Y712540D01*
X696483Y712540D02*
X696483Y720978D01*
X705373Y720978D02*
X705480Y720976D01*
X705586Y720970D01*
X705692Y720960D01*
X705798Y720947D01*
X705904Y720929D01*
X706008Y720908D01*
X706112Y720883D01*
X706215Y720854D01*
X706316Y720822D01*
X706416Y720785D01*
X706515Y720745D01*
X706613Y720702D01*
X706709Y720655D01*
X706803Y720604D01*
X706895Y720550D01*
X706985Y720493D01*
X707073Y720433D01*
X707158Y720369D01*
X707241Y720302D01*
X707322Y720232D01*
X707400Y720160D01*
X707476Y720084D01*
X707548Y720006D01*
X707618Y719925D01*
X707685Y719842D01*
X707749Y719757D01*
X707809Y719669D01*
X707866Y719579D01*
X707920Y719487D01*
X707971Y719393D01*
X708018Y719297D01*
X708061Y719199D01*
X708101Y719100D01*
X708138Y719000D01*
X708170Y718899D01*
X708199Y718796D01*
X708224Y718692D01*
X708245Y718588D01*
X708263Y718482D01*
X708276Y718376D01*
X708286Y718270D01*
X708292Y718164D01*
X708294Y718057D01*
X705373Y720978D02*
X705252Y720976D01*
X705131Y720970D01*
X705011Y720960D01*
X704890Y720947D01*
X704771Y720929D01*
X704651Y720908D01*
X704533Y720883D01*
X704416Y720854D01*
X704299Y720821D01*
X704184Y720785D01*
X704070Y720744D01*
X703957Y720701D01*
X703845Y720653D01*
X703736Y720602D01*
X703628Y720547D01*
X703521Y720489D01*
X703417Y720428D01*
X703315Y720363D01*
X703215Y720295D01*
X703117Y720224D01*
X703021Y720150D01*
X702928Y720073D01*
X702838Y719992D01*
X702750Y719909D01*
X702665Y719823D01*
X702582Y719734D01*
X702503Y719643D01*
X702426Y719549D01*
X702353Y719453D01*
X702283Y719355D01*
X702216Y719254D01*
X702152Y719151D01*
X702092Y719046D01*
X702035Y718939D01*
X701981Y718831D01*
X701931Y718721D01*
X701885Y718609D01*
X701842Y718496D01*
X701803Y718381D01*
X707321Y715785D02*
X707400Y715862D01*
X707476Y715943D01*
X707549Y716026D01*
X707619Y716111D01*
X707686Y716199D01*
X707750Y716289D01*
X707810Y716381D01*
X707867Y716476D01*
X707921Y716572D01*
X707972Y716670D01*
X708019Y716770D01*
X708063Y716872D01*
X708103Y716975D01*
X708139Y717079D01*
X708171Y717185D01*
X708200Y717291D01*
X708225Y717399D01*
X708247Y717507D01*
X708264Y717617D01*
X708278Y717726D01*
X708287Y717836D01*
X708293Y717947D01*
X708295Y718057D01*
X707320Y715785D02*
X701803Y709294D01*
X708294Y709294D01*
D10*
X1168400Y360680D02*
X1168400Y309880D01*
X1016000Y309880D01*
X1016000Y360680D02*
X1168400Y360680D01*
X1016000Y360680D02*
X1016000Y347980D01*
X1016000Y322580D02*
X1016000Y309880D01*
X1016000Y322580D02*
X1016307Y322584D01*
X1016614Y322595D01*
X1016920Y322613D01*
X1017226Y322639D01*
X1017531Y322673D01*
X1017835Y322713D01*
X1018138Y322761D01*
X1018440Y322817D01*
X1018740Y322879D01*
X1019039Y322949D01*
X1019336Y323026D01*
X1019632Y323110D01*
X1019925Y323202D01*
X1020215Y323300D01*
X1020503Y323405D01*
X1020789Y323518D01*
X1021072Y323637D01*
X1021352Y323763D01*
X1021629Y323895D01*
X1021902Y324035D01*
X1022172Y324181D01*
X1022438Y324333D01*
X1022701Y324492D01*
X1022960Y324657D01*
X1023214Y324828D01*
X1023465Y325005D01*
X1023711Y325189D01*
X1023953Y325378D01*
X1024189Y325573D01*
X1024422Y325774D01*
X1024649Y325980D01*
X1024871Y326192D01*
X1025088Y326409D01*
X1025300Y326631D01*
X1025506Y326858D01*
X1025707Y327091D01*
X1025902Y327327D01*
X1026091Y327569D01*
X1026275Y327815D01*
X1026452Y328066D01*
X1026623Y328320D01*
X1026788Y328579D01*
X1026947Y328842D01*
X1027099Y329108D01*
X1027245Y329378D01*
X1027385Y329651D01*
X1027517Y329928D01*
X1027643Y330208D01*
X1027762Y330491D01*
X1027875Y330777D01*
X1027980Y331065D01*
X1028078Y331355D01*
X1028170Y331648D01*
X1028254Y331944D01*
X1028331Y332241D01*
X1028401Y332540D01*
X1028463Y332840D01*
X1028519Y333142D01*
X1028567Y333445D01*
X1028607Y333749D01*
X1028641Y334054D01*
X1028667Y334360D01*
X1028685Y334666D01*
X1028696Y334973D01*
X1028700Y335280D01*
X1028696Y335587D01*
X1028685Y335894D01*
X1028667Y336200D01*
X1028641Y336506D01*
X1028607Y336811D01*
X1028567Y337115D01*
X1028519Y337418D01*
X1028463Y337720D01*
X1028401Y338020D01*
X1028331Y338319D01*
X1028254Y338616D01*
X1028170Y338912D01*
X1028078Y339205D01*
X1027980Y339495D01*
X1027875Y339783D01*
X1027762Y340069D01*
X1027643Y340352D01*
X1027517Y340632D01*
X1027385Y340909D01*
X1027245Y341182D01*
X1027099Y341452D01*
X1026947Y341718D01*
X1026788Y341981D01*
X1026623Y342240D01*
X1026452Y342494D01*
X1026275Y342745D01*
X1026091Y342991D01*
X1025902Y343233D01*
X1025707Y343469D01*
X1025506Y343702D01*
X1025300Y343929D01*
X1025088Y344151D01*
X1024871Y344368D01*
X1024649Y344580D01*
X1024422Y344786D01*
X1024189Y344987D01*
X1023953Y345182D01*
X1023711Y345371D01*
X1023465Y345555D01*
X1023214Y345732D01*
X1022960Y345903D01*
X1022701Y346068D01*
X1022438Y346227D01*
X1022172Y346379D01*
X1021902Y346525D01*
X1021629Y346665D01*
X1021352Y346797D01*
X1021072Y346923D01*
X1020789Y347042D01*
X1020503Y347155D01*
X1020215Y347260D01*
X1019925Y347358D01*
X1019632Y347450D01*
X1019336Y347534D01*
X1019039Y347611D01*
X1018740Y347681D01*
X1018440Y347743D01*
X1018138Y347799D01*
X1017835Y347847D01*
X1017531Y347887D01*
X1017226Y347921D01*
X1016920Y347947D01*
X1016614Y347965D01*
X1016307Y347976D01*
X1016000Y347980D01*
D12*
X1158606Y286386D02*
X1158606Y277948D01*
X1158605Y277948D02*
X1158607Y277835D01*
X1158613Y277722D01*
X1158623Y277609D01*
X1158637Y277496D01*
X1158654Y277384D01*
X1158676Y277273D01*
X1158701Y277163D01*
X1158731Y277053D01*
X1158764Y276945D01*
X1158801Y276838D01*
X1158841Y276732D01*
X1158886Y276628D01*
X1158934Y276525D01*
X1158985Y276424D01*
X1159040Y276325D01*
X1159098Y276228D01*
X1159160Y276133D01*
X1159225Y276040D01*
X1159293Y275950D01*
X1159364Y275862D01*
X1159439Y275776D01*
X1159516Y275693D01*
X1159596Y275613D01*
X1159679Y275536D01*
X1159765Y275461D01*
X1159853Y275390D01*
X1159943Y275322D01*
X1160036Y275257D01*
X1160131Y275195D01*
X1160228Y275137D01*
X1160327Y275082D01*
X1160428Y275031D01*
X1160531Y274983D01*
X1160635Y274938D01*
X1160741Y274898D01*
X1160848Y274861D01*
X1160956Y274828D01*
X1161066Y274798D01*
X1161176Y274773D01*
X1161287Y274751D01*
X1161399Y274734D01*
X1161512Y274720D01*
X1161625Y274710D01*
X1161738Y274704D01*
X1161851Y274702D01*
X1161964Y274704D01*
X1162077Y274710D01*
X1162190Y274720D01*
X1162303Y274734D01*
X1162415Y274751D01*
X1162526Y274773D01*
X1162636Y274798D01*
X1162746Y274828D01*
X1162854Y274861D01*
X1162961Y274898D01*
X1163067Y274938D01*
X1163171Y274983D01*
X1163274Y275031D01*
X1163375Y275082D01*
X1163474Y275137D01*
X1163571Y275195D01*
X1163666Y275257D01*
X1163759Y275322D01*
X1163849Y275390D01*
X1163937Y275461D01*
X1164023Y275536D01*
X1164106Y275613D01*
X1164186Y275693D01*
X1164263Y275776D01*
X1164338Y275862D01*
X1164409Y275950D01*
X1164477Y276040D01*
X1164542Y276133D01*
X1164604Y276228D01*
X1164662Y276325D01*
X1164717Y276424D01*
X1164768Y276525D01*
X1164816Y276628D01*
X1164861Y276732D01*
X1164901Y276838D01*
X1164938Y276945D01*
X1164971Y277053D01*
X1165001Y277163D01*
X1165026Y277273D01*
X1165048Y277384D01*
X1165065Y277496D01*
X1165079Y277609D01*
X1165089Y277722D01*
X1165095Y277835D01*
X1165097Y277948D01*
X1165097Y286386D01*
X1170417Y274702D02*
X1173662Y274702D01*
X1173775Y274704D01*
X1173888Y274710D01*
X1174001Y274720D01*
X1174114Y274734D01*
X1174226Y274751D01*
X1174337Y274773D01*
X1174447Y274798D01*
X1174557Y274828D01*
X1174665Y274861D01*
X1174772Y274898D01*
X1174878Y274938D01*
X1174982Y274983D01*
X1175085Y275031D01*
X1175186Y275082D01*
X1175285Y275137D01*
X1175382Y275195D01*
X1175477Y275257D01*
X1175570Y275322D01*
X1175660Y275390D01*
X1175748Y275461D01*
X1175834Y275536D01*
X1175917Y275613D01*
X1175997Y275693D01*
X1176074Y275776D01*
X1176149Y275862D01*
X1176220Y275950D01*
X1176288Y276040D01*
X1176353Y276133D01*
X1176415Y276228D01*
X1176473Y276325D01*
X1176528Y276424D01*
X1176579Y276525D01*
X1176627Y276628D01*
X1176672Y276732D01*
X1176712Y276838D01*
X1176749Y276945D01*
X1176782Y277053D01*
X1176812Y277163D01*
X1176837Y277273D01*
X1176859Y277384D01*
X1176876Y277496D01*
X1176890Y277609D01*
X1176900Y277722D01*
X1176906Y277835D01*
X1176908Y277948D01*
X1176906Y278061D01*
X1176900Y278174D01*
X1176890Y278287D01*
X1176876Y278400D01*
X1176859Y278512D01*
X1176837Y278623D01*
X1176812Y278733D01*
X1176782Y278843D01*
X1176749Y278951D01*
X1176712Y279058D01*
X1176672Y279164D01*
X1176627Y279268D01*
X1176579Y279371D01*
X1176528Y279472D01*
X1176473Y279571D01*
X1176415Y279668D01*
X1176353Y279763D01*
X1176288Y279856D01*
X1176220Y279946D01*
X1176149Y280034D01*
X1176074Y280120D01*
X1175997Y280203D01*
X1175917Y280283D01*
X1175834Y280360D01*
X1175748Y280435D01*
X1175660Y280506D01*
X1175570Y280574D01*
X1175477Y280639D01*
X1175382Y280701D01*
X1175285Y280759D01*
X1175186Y280814D01*
X1175085Y280865D01*
X1174982Y280913D01*
X1174878Y280958D01*
X1174772Y280998D01*
X1174665Y281035D01*
X1174557Y281068D01*
X1174447Y281098D01*
X1174337Y281123D01*
X1174226Y281145D01*
X1174114Y281162D01*
X1174001Y281176D01*
X1173888Y281186D01*
X1173775Y281192D01*
X1173662Y281194D01*
X1174312Y286386D02*
X1170417Y286386D01*
X1174312Y286386D02*
X1174413Y286384D01*
X1174513Y286378D01*
X1174613Y286368D01*
X1174713Y286355D01*
X1174812Y286337D01*
X1174911Y286316D01*
X1175008Y286291D01*
X1175105Y286262D01*
X1175200Y286229D01*
X1175294Y286193D01*
X1175386Y286153D01*
X1175477Y286110D01*
X1175566Y286063D01*
X1175653Y286013D01*
X1175739Y285959D01*
X1175822Y285902D01*
X1175902Y285842D01*
X1175981Y285779D01*
X1176057Y285712D01*
X1176130Y285643D01*
X1176200Y285571D01*
X1176268Y285497D01*
X1176333Y285420D01*
X1176394Y285340D01*
X1176453Y285258D01*
X1176508Y285174D01*
X1176560Y285088D01*
X1176609Y285000D01*
X1176654Y284910D01*
X1176696Y284818D01*
X1176734Y284725D01*
X1176768Y284630D01*
X1176799Y284535D01*
X1176826Y284438D01*
X1176849Y284340D01*
X1176869Y284241D01*
X1176884Y284141D01*
X1176896Y284041D01*
X1176904Y283941D01*
X1176908Y283840D01*
X1176908Y283740D01*
X1176904Y283639D01*
X1176896Y283539D01*
X1176884Y283439D01*
X1176869Y283339D01*
X1176849Y283240D01*
X1176826Y283142D01*
X1176799Y283045D01*
X1176768Y282950D01*
X1176734Y282855D01*
X1176696Y282762D01*
X1176654Y282670D01*
X1176609Y282580D01*
X1176560Y282492D01*
X1176508Y282406D01*
X1176453Y282322D01*
X1176394Y282240D01*
X1176333Y282160D01*
X1176268Y282083D01*
X1176200Y282009D01*
X1176130Y281937D01*
X1176057Y281868D01*
X1175981Y281801D01*
X1175902Y281738D01*
X1175822Y281678D01*
X1175739Y281621D01*
X1175653Y281567D01*
X1175566Y281517D01*
X1175477Y281470D01*
X1175386Y281427D01*
X1175294Y281387D01*
X1175200Y281351D01*
X1175105Y281318D01*
X1175008Y281289D01*
X1174911Y281264D01*
X1174812Y281243D01*
X1174713Y281225D01*
X1174613Y281212D01*
X1174513Y281202D01*
X1174413Y281196D01*
X1174312Y281194D01*
X1174312Y281193D02*
X1171715Y281193D01*
D10*
X774700Y1041400D02*
X723900Y1041400D01*
X774700Y1041400D02*
X774700Y889000D01*
X723900Y889000D02*
X723900Y1041400D01*
X723900Y889000D02*
X736600Y889000D01*
X762000Y889000D02*
X774700Y889000D01*
X762000Y889000D02*
X761996Y889307D01*
X761985Y889614D01*
X761967Y889920D01*
X761941Y890226D01*
X761907Y890531D01*
X761867Y890835D01*
X761819Y891138D01*
X761763Y891440D01*
X761701Y891740D01*
X761631Y892039D01*
X761554Y892336D01*
X761470Y892632D01*
X761378Y892925D01*
X761280Y893215D01*
X761175Y893503D01*
X761062Y893789D01*
X760943Y894072D01*
X760817Y894352D01*
X760685Y894629D01*
X760545Y894902D01*
X760399Y895172D01*
X760247Y895438D01*
X760088Y895701D01*
X759923Y895960D01*
X759752Y896214D01*
X759575Y896465D01*
X759391Y896711D01*
X759202Y896953D01*
X759007Y897189D01*
X758806Y897422D01*
X758600Y897649D01*
X758388Y897871D01*
X758171Y898088D01*
X757949Y898300D01*
X757722Y898506D01*
X757489Y898707D01*
X757253Y898902D01*
X757011Y899091D01*
X756765Y899275D01*
X756514Y899452D01*
X756260Y899623D01*
X756001Y899788D01*
X755738Y899947D01*
X755472Y900099D01*
X755202Y900245D01*
X754929Y900385D01*
X754652Y900517D01*
X754372Y900643D01*
X754089Y900762D01*
X753803Y900875D01*
X753515Y900980D01*
X753225Y901078D01*
X752932Y901170D01*
X752636Y901254D01*
X752339Y901331D01*
X752040Y901401D01*
X751740Y901463D01*
X751438Y901519D01*
X751135Y901567D01*
X750831Y901607D01*
X750526Y901641D01*
X750220Y901667D01*
X749914Y901685D01*
X749607Y901696D01*
X749300Y901700D01*
X748993Y901696D01*
X748686Y901685D01*
X748380Y901667D01*
X748074Y901641D01*
X747769Y901607D01*
X747465Y901567D01*
X747162Y901519D01*
X746860Y901463D01*
X746560Y901401D01*
X746261Y901331D01*
X745964Y901254D01*
X745668Y901170D01*
X745375Y901078D01*
X745085Y900980D01*
X744797Y900875D01*
X744511Y900762D01*
X744228Y900643D01*
X743948Y900517D01*
X743671Y900385D01*
X743398Y900245D01*
X743128Y900099D01*
X742862Y899947D01*
X742599Y899788D01*
X742340Y899623D01*
X742086Y899452D01*
X741835Y899275D01*
X741589Y899091D01*
X741347Y898902D01*
X741111Y898707D01*
X740878Y898506D01*
X740651Y898300D01*
X740429Y898088D01*
X740212Y897871D01*
X740000Y897649D01*
X739794Y897422D01*
X739593Y897189D01*
X739398Y896953D01*
X739209Y896711D01*
X739025Y896465D01*
X738848Y896214D01*
X738677Y895960D01*
X738512Y895701D01*
X738353Y895438D01*
X738201Y895172D01*
X738055Y894902D01*
X737915Y894629D01*
X737783Y894352D01*
X737657Y894072D01*
X737538Y893789D01*
X737425Y893503D01*
X737320Y893215D01*
X737222Y892925D01*
X737130Y892632D01*
X737046Y892336D01*
X736969Y892039D01*
X736899Y891740D01*
X736837Y891440D01*
X736781Y891138D01*
X736733Y890835D01*
X736693Y890531D01*
X736659Y890226D01*
X736633Y889920D01*
X736615Y889614D01*
X736604Y889307D01*
X736600Y889000D01*
D12*
X702692Y1055440D02*
X702692Y1063878D01*
X702692Y1055440D02*
X702694Y1055327D01*
X702700Y1055214D01*
X702710Y1055101D01*
X702724Y1054988D01*
X702741Y1054876D01*
X702763Y1054765D01*
X702788Y1054655D01*
X702818Y1054545D01*
X702851Y1054437D01*
X702888Y1054330D01*
X702928Y1054224D01*
X702973Y1054120D01*
X703021Y1054017D01*
X703072Y1053916D01*
X703127Y1053817D01*
X703185Y1053720D01*
X703247Y1053625D01*
X703312Y1053532D01*
X703380Y1053442D01*
X703451Y1053354D01*
X703526Y1053268D01*
X703603Y1053185D01*
X703683Y1053105D01*
X703766Y1053028D01*
X703852Y1052953D01*
X703940Y1052882D01*
X704030Y1052814D01*
X704123Y1052749D01*
X704218Y1052687D01*
X704315Y1052629D01*
X704414Y1052574D01*
X704515Y1052523D01*
X704618Y1052475D01*
X704722Y1052430D01*
X704828Y1052390D01*
X704935Y1052353D01*
X705043Y1052320D01*
X705153Y1052290D01*
X705263Y1052265D01*
X705374Y1052243D01*
X705486Y1052226D01*
X705599Y1052212D01*
X705712Y1052202D01*
X705825Y1052196D01*
X705938Y1052194D01*
X706051Y1052196D01*
X706164Y1052202D01*
X706277Y1052212D01*
X706390Y1052226D01*
X706502Y1052243D01*
X706613Y1052265D01*
X706723Y1052290D01*
X706833Y1052320D01*
X706941Y1052353D01*
X707048Y1052390D01*
X707154Y1052430D01*
X707258Y1052475D01*
X707361Y1052523D01*
X707462Y1052574D01*
X707561Y1052629D01*
X707658Y1052687D01*
X707753Y1052749D01*
X707846Y1052814D01*
X707936Y1052882D01*
X708024Y1052953D01*
X708110Y1053028D01*
X708193Y1053105D01*
X708273Y1053185D01*
X708350Y1053268D01*
X708425Y1053354D01*
X708496Y1053442D01*
X708564Y1053532D01*
X708629Y1053625D01*
X708691Y1053720D01*
X708749Y1053817D01*
X708804Y1053916D01*
X708855Y1054017D01*
X708903Y1054120D01*
X708948Y1054224D01*
X708988Y1054330D01*
X709025Y1054437D01*
X709058Y1054545D01*
X709088Y1054655D01*
X709113Y1054765D01*
X709135Y1054876D01*
X709152Y1054988D01*
X709166Y1055101D01*
X709176Y1055214D01*
X709182Y1055327D01*
X709184Y1055440D01*
X709183Y1055440D02*
X709183Y1063878D01*
X717099Y1063878D02*
X714503Y1054790D01*
X720994Y1054790D01*
X719047Y1057387D02*
X719047Y1052194D01*
D10*
X1127760Y886460D02*
X1127760Y835660D01*
X975360Y835660D01*
X975360Y886460D02*
X1127760Y886460D01*
X975360Y886460D02*
X975360Y873760D01*
X975360Y848360D02*
X975360Y835660D01*
X975360Y848360D02*
X975667Y848364D01*
X975974Y848375D01*
X976280Y848393D01*
X976586Y848419D01*
X976891Y848453D01*
X977195Y848493D01*
X977498Y848541D01*
X977800Y848597D01*
X978100Y848659D01*
X978399Y848729D01*
X978696Y848806D01*
X978992Y848890D01*
X979285Y848982D01*
X979575Y849080D01*
X979863Y849185D01*
X980149Y849298D01*
X980432Y849417D01*
X980712Y849543D01*
X980989Y849675D01*
X981262Y849815D01*
X981532Y849961D01*
X981798Y850113D01*
X982061Y850272D01*
X982320Y850437D01*
X982574Y850608D01*
X982825Y850785D01*
X983071Y850969D01*
X983313Y851158D01*
X983549Y851353D01*
X983782Y851554D01*
X984009Y851760D01*
X984231Y851972D01*
X984448Y852189D01*
X984660Y852411D01*
X984866Y852638D01*
X985067Y852871D01*
X985262Y853107D01*
X985451Y853349D01*
X985635Y853595D01*
X985812Y853846D01*
X985983Y854100D01*
X986148Y854359D01*
X986307Y854622D01*
X986459Y854888D01*
X986605Y855158D01*
X986745Y855431D01*
X986877Y855708D01*
X987003Y855988D01*
X987122Y856271D01*
X987235Y856557D01*
X987340Y856845D01*
X987438Y857135D01*
X987530Y857428D01*
X987614Y857724D01*
X987691Y858021D01*
X987761Y858320D01*
X987823Y858620D01*
X987879Y858922D01*
X987927Y859225D01*
X987967Y859529D01*
X988001Y859834D01*
X988027Y860140D01*
X988045Y860446D01*
X988056Y860753D01*
X988060Y861060D01*
X988056Y861367D01*
X988045Y861674D01*
X988027Y861980D01*
X988001Y862286D01*
X987967Y862591D01*
X987927Y862895D01*
X987879Y863198D01*
X987823Y863500D01*
X987761Y863800D01*
X987691Y864099D01*
X987614Y864396D01*
X987530Y864692D01*
X987438Y864985D01*
X987340Y865275D01*
X987235Y865563D01*
X987122Y865849D01*
X987003Y866132D01*
X986877Y866412D01*
X986745Y866689D01*
X986605Y866962D01*
X986459Y867232D01*
X986307Y867498D01*
X986148Y867761D01*
X985983Y868020D01*
X985812Y868274D01*
X985635Y868525D01*
X985451Y868771D01*
X985262Y869013D01*
X985067Y869249D01*
X984866Y869482D01*
X984660Y869709D01*
X984448Y869931D01*
X984231Y870148D01*
X984009Y870360D01*
X983782Y870566D01*
X983549Y870767D01*
X983313Y870962D01*
X983071Y871151D01*
X982825Y871335D01*
X982574Y871512D01*
X982320Y871683D01*
X982061Y871848D01*
X981798Y872007D01*
X981532Y872159D01*
X981262Y872305D01*
X980989Y872445D01*
X980712Y872577D01*
X980432Y872703D01*
X980149Y872822D01*
X979863Y872935D01*
X979575Y873040D01*
X979285Y873138D01*
X978992Y873230D01*
X978696Y873314D01*
X978399Y873391D01*
X978100Y873461D01*
X977800Y873523D01*
X977498Y873579D01*
X977195Y873627D01*
X976891Y873667D01*
X976586Y873701D01*
X976280Y873727D01*
X975974Y873745D01*
X975667Y873756D01*
X975360Y873760D01*
D12*
X966852Y913200D02*
X966852Y921638D01*
X966852Y913200D02*
X966854Y913087D01*
X966860Y912974D01*
X966870Y912861D01*
X966884Y912748D01*
X966901Y912636D01*
X966923Y912525D01*
X966948Y912415D01*
X966978Y912305D01*
X967011Y912197D01*
X967048Y912090D01*
X967088Y911984D01*
X967133Y911880D01*
X967181Y911777D01*
X967232Y911676D01*
X967287Y911577D01*
X967345Y911480D01*
X967407Y911385D01*
X967472Y911292D01*
X967540Y911202D01*
X967611Y911114D01*
X967686Y911028D01*
X967763Y910945D01*
X967843Y910865D01*
X967926Y910788D01*
X968012Y910713D01*
X968100Y910642D01*
X968190Y910574D01*
X968283Y910509D01*
X968378Y910447D01*
X968475Y910389D01*
X968574Y910334D01*
X968675Y910283D01*
X968778Y910235D01*
X968882Y910190D01*
X968988Y910150D01*
X969095Y910113D01*
X969203Y910080D01*
X969313Y910050D01*
X969423Y910025D01*
X969534Y910003D01*
X969646Y909986D01*
X969759Y909972D01*
X969872Y909962D01*
X969985Y909956D01*
X970098Y909954D01*
X970211Y909956D01*
X970324Y909962D01*
X970437Y909972D01*
X970550Y909986D01*
X970662Y910003D01*
X970773Y910025D01*
X970883Y910050D01*
X970993Y910080D01*
X971101Y910113D01*
X971208Y910150D01*
X971314Y910190D01*
X971418Y910235D01*
X971521Y910283D01*
X971622Y910334D01*
X971721Y910389D01*
X971818Y910447D01*
X971913Y910509D01*
X972006Y910574D01*
X972096Y910642D01*
X972184Y910713D01*
X972270Y910788D01*
X972353Y910865D01*
X972433Y910945D01*
X972510Y911028D01*
X972585Y911114D01*
X972656Y911202D01*
X972724Y911292D01*
X972789Y911385D01*
X972851Y911480D01*
X972909Y911577D01*
X972964Y911676D01*
X973015Y911777D01*
X973063Y911880D01*
X973108Y911984D01*
X973148Y912090D01*
X973185Y912197D01*
X973218Y912305D01*
X973248Y912415D01*
X973273Y912525D01*
X973295Y912636D01*
X973312Y912748D01*
X973326Y912861D01*
X973336Y912974D01*
X973342Y913087D01*
X973344Y913200D01*
X973343Y913200D02*
X973343Y921638D01*
X978663Y909954D02*
X982558Y909954D01*
X982657Y909956D01*
X982757Y909962D01*
X982856Y909971D01*
X982954Y909984D01*
X983052Y910001D01*
X983150Y910022D01*
X983246Y910047D01*
X983341Y910075D01*
X983435Y910107D01*
X983528Y910142D01*
X983620Y910181D01*
X983710Y910224D01*
X983798Y910269D01*
X983885Y910319D01*
X983969Y910371D01*
X984052Y910427D01*
X984132Y910485D01*
X984210Y910547D01*
X984285Y910612D01*
X984358Y910680D01*
X984428Y910750D01*
X984496Y910823D01*
X984561Y910898D01*
X984623Y910976D01*
X984681Y911056D01*
X984737Y911139D01*
X984789Y911223D01*
X984839Y911310D01*
X984884Y911398D01*
X984927Y911488D01*
X984966Y911580D01*
X985001Y911673D01*
X985033Y911767D01*
X985061Y911862D01*
X985086Y911958D01*
X985107Y912056D01*
X985124Y912154D01*
X985137Y912252D01*
X985146Y912351D01*
X985152Y912451D01*
X985154Y912550D01*
X985154Y913849D01*
X985152Y913948D01*
X985146Y914048D01*
X985137Y914147D01*
X985124Y914245D01*
X985107Y914343D01*
X985086Y914441D01*
X985061Y914537D01*
X985033Y914632D01*
X985001Y914726D01*
X984966Y914819D01*
X984927Y914911D01*
X984884Y915001D01*
X984839Y915089D01*
X984789Y915176D01*
X984737Y915260D01*
X984681Y915343D01*
X984623Y915423D01*
X984561Y915501D01*
X984496Y915576D01*
X984428Y915649D01*
X984358Y915719D01*
X984285Y915787D01*
X984210Y915852D01*
X984132Y915914D01*
X984052Y915972D01*
X983969Y916028D01*
X983885Y916080D01*
X983798Y916130D01*
X983710Y916175D01*
X983620Y916218D01*
X983528Y916257D01*
X983435Y916292D01*
X983341Y916324D01*
X983246Y916352D01*
X983150Y916377D01*
X983052Y916398D01*
X982954Y916415D01*
X982856Y916428D01*
X982757Y916437D01*
X982657Y916443D01*
X982558Y916445D01*
X978663Y916445D01*
X978663Y921638D01*
X985154Y921638D01*
D17*
X884119Y51863D02*
X717119Y51863D01*
X717119Y31863D02*
X728119Y31863D01*
X717119Y31863D02*
X717119Y51863D01*
X728119Y50863D02*
X728119Y31863D01*
X717119Y71863D02*
X884119Y71863D01*
X884119Y142863D02*
X717119Y142863D01*
X771619Y-13137D02*
X771619Y-48137D01*
X829619Y-48137D02*
X829619Y-13137D01*
X766619Y-10137D02*
X766619Y50863D01*
X766619Y-10137D02*
X771619Y-13137D01*
X829619Y-13137D02*
X834619Y-10137D01*
X834619Y50863D01*
X829619Y-13137D02*
X771619Y-13137D01*
X771619Y-48137D02*
X829619Y-48137D01*
X717119Y51863D02*
X717119Y142863D01*
X884119Y142863D02*
X884119Y51863D01*
X833619Y-1137D02*
X767619Y-6387D01*
X767619Y-1387D02*
X833619Y3863D01*
X833619Y8863D02*
X767619Y3613D01*
X767619Y8613D02*
X833619Y13863D01*
X833619Y18863D02*
X767619Y13613D01*
X767619Y18613D02*
X833619Y23863D01*
X833619Y28863D02*
X767619Y23613D01*
X767619Y28613D02*
X833619Y33863D01*
X833619Y38863D02*
X767619Y33613D01*
X767619Y38613D02*
X833619Y43863D01*
X833619Y48863D02*
X767619Y43613D01*
X769869Y-11387D02*
X833619Y-6137D01*
D12*
X720506Y145657D02*
X716611Y157341D01*
X724401Y157341D02*
X720506Y145657D01*
X729145Y145657D02*
X729145Y157341D01*
X732390Y157341D01*
X732503Y157339D01*
X732616Y157333D01*
X732729Y157323D01*
X732842Y157309D01*
X732954Y157292D01*
X733065Y157270D01*
X733175Y157245D01*
X733285Y157215D01*
X733393Y157182D01*
X733500Y157145D01*
X733606Y157105D01*
X733710Y157060D01*
X733813Y157012D01*
X733914Y156961D01*
X734013Y156906D01*
X734110Y156848D01*
X734205Y156786D01*
X734298Y156721D01*
X734388Y156653D01*
X734476Y156582D01*
X734562Y156507D01*
X734645Y156430D01*
X734725Y156350D01*
X734802Y156267D01*
X734877Y156181D01*
X734948Y156093D01*
X735016Y156003D01*
X735081Y155910D01*
X735143Y155815D01*
X735201Y155718D01*
X735256Y155619D01*
X735307Y155518D01*
X735355Y155415D01*
X735400Y155311D01*
X735440Y155205D01*
X735477Y155098D01*
X735510Y154990D01*
X735540Y154880D01*
X735565Y154770D01*
X735587Y154659D01*
X735604Y154547D01*
X735618Y154434D01*
X735628Y154321D01*
X735634Y154208D01*
X735636Y154095D01*
X735634Y153982D01*
X735628Y153869D01*
X735618Y153756D01*
X735604Y153643D01*
X735587Y153531D01*
X735565Y153420D01*
X735540Y153310D01*
X735510Y153200D01*
X735477Y153092D01*
X735440Y152985D01*
X735400Y152879D01*
X735355Y152775D01*
X735307Y152672D01*
X735256Y152571D01*
X735201Y152472D01*
X735143Y152375D01*
X735081Y152280D01*
X735016Y152187D01*
X734948Y152097D01*
X734877Y152009D01*
X734802Y151923D01*
X734725Y151840D01*
X734645Y151760D01*
X734562Y151683D01*
X734476Y151608D01*
X734388Y151537D01*
X734298Y151469D01*
X734205Y151404D01*
X734110Y151342D01*
X734013Y151284D01*
X733914Y151229D01*
X733813Y151178D01*
X733710Y151130D01*
X733606Y151085D01*
X733500Y151045D01*
X733393Y151008D01*
X733285Y150975D01*
X733175Y150945D01*
X733065Y150920D01*
X732954Y150898D01*
X732842Y150881D01*
X732729Y150867D01*
X732616Y150857D01*
X732503Y150851D01*
X732390Y150849D01*
X732390Y150850D02*
X729145Y150850D01*
X733040Y150850D02*
X735636Y145657D01*
X740501Y154744D02*
X743747Y157341D01*
X743747Y145657D01*
X746992Y145657D02*
X740501Y145657D01*
D10*
X113340Y749310D02*
X13340Y749310D01*
X13340Y849310D01*
X113340Y849310D01*
X113340Y749310D01*
X38100Y838200D02*
X25400Y838200D01*
X38100Y838200D02*
X38100Y812800D01*
X25400Y812800D01*
D12*
X13213Y851723D02*
X13213Y863407D01*
X16459Y863407D01*
X16572Y863405D01*
X16685Y863399D01*
X16798Y863389D01*
X16911Y863375D01*
X17023Y863358D01*
X17134Y863336D01*
X17244Y863311D01*
X17354Y863281D01*
X17462Y863248D01*
X17569Y863211D01*
X17675Y863171D01*
X17779Y863126D01*
X17882Y863078D01*
X17983Y863027D01*
X18082Y862972D01*
X18179Y862914D01*
X18274Y862852D01*
X18367Y862787D01*
X18457Y862719D01*
X18545Y862648D01*
X18631Y862573D01*
X18714Y862496D01*
X18794Y862416D01*
X18871Y862333D01*
X18946Y862247D01*
X19017Y862159D01*
X19085Y862069D01*
X19150Y861976D01*
X19212Y861881D01*
X19270Y861784D01*
X19325Y861685D01*
X19376Y861584D01*
X19424Y861481D01*
X19469Y861377D01*
X19509Y861271D01*
X19546Y861164D01*
X19579Y861056D01*
X19609Y860946D01*
X19634Y860836D01*
X19656Y860725D01*
X19673Y860613D01*
X19687Y860500D01*
X19697Y860387D01*
X19703Y860274D01*
X19705Y860161D01*
X19703Y860048D01*
X19697Y859935D01*
X19687Y859822D01*
X19673Y859709D01*
X19656Y859597D01*
X19634Y859486D01*
X19609Y859376D01*
X19579Y859266D01*
X19546Y859158D01*
X19509Y859051D01*
X19469Y858945D01*
X19424Y858841D01*
X19376Y858738D01*
X19325Y858637D01*
X19270Y858538D01*
X19212Y858441D01*
X19150Y858346D01*
X19085Y858253D01*
X19017Y858163D01*
X18946Y858075D01*
X18871Y857989D01*
X18794Y857906D01*
X18714Y857826D01*
X18631Y857749D01*
X18545Y857674D01*
X18457Y857603D01*
X18367Y857535D01*
X18274Y857470D01*
X18179Y857408D01*
X18082Y857350D01*
X17983Y857295D01*
X17882Y857244D01*
X17779Y857196D01*
X17675Y857151D01*
X17569Y857111D01*
X17462Y857074D01*
X17354Y857041D01*
X17244Y857011D01*
X17134Y856986D01*
X17023Y856964D01*
X16911Y856947D01*
X16798Y856933D01*
X16685Y856923D01*
X16572Y856917D01*
X16459Y856915D01*
X16459Y856916D02*
X13213Y856916D01*
X24093Y860811D02*
X27338Y863407D01*
X27338Y851723D01*
X24093Y851723D02*
X30584Y851723D01*
D10*
X635660Y1422400D02*
X965860Y1422400D01*
X635660Y1422400D02*
X635660Y1574800D01*
X902360Y1574800D01*
X927760Y1574800D01*
X965860Y1574800D01*
X965860Y1422400D01*
X915060Y1562100D02*
X927760Y1574800D01*
X915060Y1562100D02*
X902360Y1574800D01*
D12*
X970178Y1540186D02*
X981862Y1540186D01*
X981862Y1541484D02*
X981862Y1538887D01*
X970178Y1538887D02*
X970178Y1541484D01*
X970178Y1546465D02*
X981862Y1546465D01*
X970178Y1546465D02*
X970178Y1549710D01*
X970180Y1549823D01*
X970186Y1549936D01*
X970196Y1550049D01*
X970210Y1550162D01*
X970227Y1550274D01*
X970249Y1550385D01*
X970274Y1550495D01*
X970304Y1550605D01*
X970337Y1550713D01*
X970374Y1550820D01*
X970414Y1550926D01*
X970459Y1551030D01*
X970507Y1551133D01*
X970558Y1551234D01*
X970613Y1551333D01*
X970671Y1551430D01*
X970733Y1551525D01*
X970798Y1551618D01*
X970866Y1551708D01*
X970937Y1551796D01*
X971012Y1551882D01*
X971089Y1551965D01*
X971169Y1552045D01*
X971252Y1552122D01*
X971338Y1552197D01*
X971426Y1552268D01*
X971516Y1552336D01*
X971609Y1552401D01*
X971704Y1552463D01*
X971801Y1552521D01*
X971900Y1552576D01*
X972001Y1552627D01*
X972104Y1552675D01*
X972208Y1552720D01*
X972314Y1552760D01*
X972421Y1552797D01*
X972529Y1552830D01*
X972639Y1552860D01*
X972749Y1552885D01*
X972860Y1552907D01*
X972972Y1552924D01*
X973085Y1552938D01*
X973198Y1552948D01*
X973311Y1552954D01*
X973424Y1552956D01*
X978616Y1552956D01*
X978616Y1552957D02*
X978729Y1552955D01*
X978842Y1552949D01*
X978955Y1552939D01*
X979068Y1552925D01*
X979180Y1552908D01*
X979291Y1552886D01*
X979401Y1552861D01*
X979511Y1552831D01*
X979619Y1552798D01*
X979726Y1552761D01*
X979832Y1552721D01*
X979936Y1552676D01*
X980039Y1552628D01*
X980140Y1552577D01*
X980239Y1552522D01*
X980336Y1552464D01*
X980431Y1552402D01*
X980524Y1552337D01*
X980614Y1552269D01*
X980702Y1552198D01*
X980788Y1552123D01*
X980871Y1552046D01*
X980951Y1551966D01*
X981028Y1551883D01*
X981103Y1551797D01*
X981174Y1551709D01*
X981242Y1551619D01*
X981307Y1551526D01*
X981369Y1551431D01*
X981427Y1551334D01*
X981482Y1551235D01*
X981533Y1551134D01*
X981581Y1551031D01*
X981626Y1550927D01*
X981666Y1550821D01*
X981703Y1550714D01*
X981736Y1550606D01*
X981766Y1550496D01*
X981791Y1550386D01*
X981813Y1550275D01*
X981830Y1550163D01*
X981844Y1550050D01*
X981854Y1549937D01*
X981860Y1549824D01*
X981862Y1549711D01*
X981862Y1549710D02*
X981862Y1546465D01*
X981862Y1560839D02*
X981862Y1563436D01*
X981862Y1560839D02*
X981860Y1560740D01*
X981854Y1560640D01*
X981845Y1560541D01*
X981832Y1560443D01*
X981815Y1560345D01*
X981794Y1560247D01*
X981769Y1560151D01*
X981741Y1560056D01*
X981709Y1559962D01*
X981674Y1559869D01*
X981635Y1559777D01*
X981592Y1559687D01*
X981547Y1559599D01*
X981497Y1559512D01*
X981445Y1559428D01*
X981389Y1559345D01*
X981331Y1559265D01*
X981269Y1559187D01*
X981204Y1559112D01*
X981136Y1559039D01*
X981066Y1558969D01*
X980993Y1558901D01*
X980918Y1558836D01*
X980840Y1558774D01*
X980760Y1558716D01*
X980677Y1558660D01*
X980593Y1558608D01*
X980506Y1558558D01*
X980418Y1558513D01*
X980328Y1558470D01*
X980236Y1558431D01*
X980143Y1558396D01*
X980049Y1558364D01*
X979954Y1558336D01*
X979858Y1558311D01*
X979760Y1558290D01*
X979662Y1558273D01*
X979564Y1558260D01*
X979465Y1558251D01*
X979365Y1558245D01*
X979266Y1558243D01*
X972774Y1558243D01*
X972774Y1558242D02*
X972675Y1558244D01*
X972575Y1558250D01*
X972476Y1558259D01*
X972378Y1558272D01*
X972280Y1558290D01*
X972182Y1558310D01*
X972086Y1558335D01*
X971990Y1558363D01*
X971896Y1558395D01*
X971803Y1558430D01*
X971712Y1558469D01*
X971622Y1558512D01*
X971533Y1558557D01*
X971447Y1558607D01*
X971362Y1558659D01*
X971280Y1558715D01*
X971200Y1558774D01*
X971122Y1558835D01*
X971046Y1558900D01*
X970973Y1558968D01*
X970903Y1559038D01*
X970835Y1559111D01*
X970770Y1559187D01*
X970709Y1559265D01*
X970650Y1559345D01*
X970594Y1559427D01*
X970542Y1559512D01*
X970493Y1559598D01*
X970447Y1559687D01*
X970404Y1559777D01*
X970365Y1559868D01*
X970330Y1559961D01*
X970298Y1560055D01*
X970270Y1560151D01*
X970245Y1560247D01*
X970225Y1560345D01*
X970207Y1560443D01*
X970194Y1560541D01*
X970185Y1560640D01*
X970179Y1560739D01*
X970177Y1560839D01*
X970178Y1560839D02*
X970178Y1563436D01*
X972774Y1567801D02*
X970178Y1571046D01*
X981862Y1571046D01*
X981862Y1567801D02*
X981862Y1574292D01*
M02*
