M48
;GenerationSoftware,Autodesk,EAGLE,9.6.0*%
;CreationDate,2022-01-10T02:50:36Z*%
FMAT,2
ICI,OFF
METRIC,TZ,000.000
T6C0.800
T5C0.900
T4C1.118
T3C1.200
T2C3.200
T1C3.302
%
G90
M71
T1
X98044Y132080
T2
X25000Y30000
X135000Y30000
X25000Y130000
X135000Y130000
T3
X6350Y77470
X75062Y8886
X80062Y8886
X85062Y8886
X6350Y82550
T4
X115570Y129540
X115570Y132080
X115570Y134620
T5
X68646Y144780
X91506Y147320
X91506Y144780
X88966Y147320
X88966Y144780
X86426Y147320
X86426Y144780
X83886Y147320
X83886Y144780
X81346Y147320
X81346Y144780
X78806Y147320
X78806Y144780
X76266Y147320
X76266Y144780
X73726Y147320
X73726Y144780
X71186Y147320
X71186Y144780
X68646Y147320
T6
X37338Y86360
X23876Y86360
X51562Y69342
X61976Y69342
X86106Y76454
X86106Y80518
X95536Y120218
X91186Y120142
X89154Y110744
X89154Y93472
X71120Y46990
X76962Y46990
X24892Y56134
X33020Y56134
X65532Y41148
X78486Y41148
X70866Y36830
X70866Y30226
X100076Y96266
X100076Y108712
X102362Y110998
X129286Y110998
X68834Y42672
X68834Y50800
X83820Y140208
X98552Y140208
X118110Y40132
X121158Y40132
X106680Y26162
X123444Y26162
X62738Y100584
X33274Y100584
X53086Y29210
X44704Y29210
X73660Y138684
X81280Y138684
X91694Y129286
X79248Y129286
X87950Y131252
X78813Y131245
X78613Y133223
X86299Y133223
X117602Y90678
X126746Y90678
X55626Y29210
X55626Y16002
X148844Y105918
X102108Y105918
X87884Y28956
X58928Y28956
X138430Y115824
X92456Y115824
X68834Y19304
X91440Y19558
X74930Y133096
X74930Y115316
X64008Y55118
X64008Y46990
X47244Y89916
X47244Y92456
X44450Y89916
X44450Y76708
X50546Y76200
X61976Y76200
X32004Y110490
X32004Y127508
X56388Y85090
X56134Y92456
X40386Y50292
X29210Y50292
X40132Y42926
X32512Y42926
X87122Y110490
X87122Y99314
X107442Y93472
X126746Y93472
X126492Y101854
X101600Y101854
X82804Y104394
X82804Y108966
X135128Y80772
X145542Y80772
X115570Y59182
X130302Y59182
X20574Y64262
X20574Y48006
X150876Y97282
X136398Y97028
X28956Y117856
X28956Y126238
X94996Y118110
X107696Y118110
X76111Y123698
X99568Y123698
X35306Y103378
X35306Y115316
X38100Y38100
X38100Y33782
X57404Y116078
X71882Y116078
X53340Y73152
X19812Y83058
X25654Y83058
X36068Y73152
X87630Y36322
X87630Y33782
X51816Y79502
X54356Y79502
X42164Y46990
X44704Y46990
X51562Y47498
X54102Y47498
X15240Y61214
X12700Y61214
X27940Y62230
X30480Y62230
X92456Y77978
X92456Y75438
X110236Y77978
X110236Y75438
X49530Y17780
X52070Y17780
X62230Y13970
X64770Y13970
X95250Y13970
X97790Y13970
X107950Y17780
X110490Y17780
X28448Y73914
X28448Y77470
X18034Y91694
X43647Y119973
X46187Y119973
X48727Y119973
X51267Y119973
X53807Y119973
X56347Y119973
X58887Y119973
X61427Y119973
X61427Y127593
X58887Y127593
X56347Y127593
X53807Y127593
X51267Y127593
X48727Y127593
X46187Y127593
X43647Y127593
X127762Y61468
X130302Y61468
X132842Y61468
X135382Y61468
X137922Y61468
X140462Y61468
X143002Y61468
X143002Y69088
X140462Y69088
X137922Y69088
X135382Y69088
X132842Y69088
X130302Y69088
X127762Y69088
X87630Y69850
X85090Y69850
X82550Y69850
X80010Y69850
X77470Y69850
X74930Y69850
X72390Y69850
X69850Y69850
X69850Y62230
X72390Y62230
X74930Y62230
X77470Y62230
X80010Y62230
X82550Y62230
X18034Y98044
X87630Y62230
X101600Y29718
X104140Y29718
X106680Y29718
X109220Y29718
X111760Y29718
X114300Y29718
X116840Y29718
X116840Y37338
X114300Y37338
X111760Y37338
X109220Y37338
X106680Y37338
X104140Y37338
X101600Y37338
X78740Y88900
X78740Y91440
X78740Y93980
X78740Y96520
X78740Y99060
X78740Y101600
X78740Y104140
X71120Y104140
X71120Y101600
X71120Y99060
X71120Y96520
X71120Y93980
X71120Y91440
X71120Y88900
X97536Y82296
X100076Y82296
X102616Y82296
X105156Y82296
X85090Y62230
X110236Y82296
X112776Y82296
X112776Y89916
X110236Y89916
X107696Y89916
X105156Y89916
X102616Y89916
X100076Y89916
X97536Y89916
X71628Y130302
X71628Y118872
X78994Y50800
X90424Y50800
X72390Y82296
X86106Y82296
X132080Y113030
X138176Y113030
X129032Y73406
X144183Y73406
X105156Y80264
X125222Y80264
X94742Y39624
X94669Y42853
X61468Y36830
X67310Y36830
X42672Y70104
X36068Y70104
X23876Y81026
X19812Y81026
X14478Y86614
X6350Y86614
X22606Y64262
X33782Y64262
X107696Y82296
M30