G04 EAGLE Gerber RS-274X export*
G75*
%MOMM*%
%FSLAX34Y34*%
%LPD*%
%IN*%
%IPPOS*%
%AMOC8*
5,1,8,0,0,1.08239X$1,22.5*%
G01*
%ADD10C,0.254000*%


D10*
X0Y0D02*
X1600000Y0D01*
X1600000Y1000000D01*
X0Y1000000D01*
X0Y0D01*
X1095280Y105410D02*
X1096359Y105339D01*
X1097431Y105198D01*
X1098491Y104987D01*
X1099535Y104708D01*
X1100559Y104360D01*
X1101557Y103946D01*
X1102527Y103468D01*
X1103463Y102928D01*
X1104362Y102327D01*
X1105219Y101669D01*
X1106032Y100957D01*
X1106797Y100192D01*
X1107509Y99379D01*
X1108167Y98522D01*
X1108768Y97623D01*
X1109308Y96687D01*
X1109786Y95717D01*
X1110200Y94719D01*
X1110548Y93695D01*
X1110827Y92651D01*
X1111038Y91591D01*
X1111179Y90519D01*
X1111250Y89440D01*
X1111250Y88360D01*
X1111179Y87281D01*
X1111038Y86209D01*
X1110827Y85149D01*
X1110548Y84105D01*
X1110200Y83081D01*
X1109786Y82083D01*
X1109308Y81113D01*
X1108768Y80177D01*
X1108167Y79278D01*
X1107509Y78421D01*
X1106797Y77608D01*
X1106032Y76844D01*
X1105219Y76131D01*
X1104362Y75473D01*
X1103463Y74872D01*
X1102527Y74332D01*
X1101557Y73854D01*
X1100559Y73440D01*
X1099535Y73092D01*
X1098491Y72813D01*
X1097431Y72602D01*
X1096359Y72461D01*
X1095280Y72390D01*
X1094200Y72390D01*
X1093121Y72461D01*
X1092049Y72602D01*
X1090989Y72813D01*
X1089945Y73092D01*
X1088921Y73440D01*
X1087923Y73854D01*
X1086953Y74332D01*
X1086017Y74872D01*
X1085118Y75473D01*
X1084261Y76131D01*
X1083448Y76844D01*
X1082684Y77608D01*
X1081971Y78421D01*
X1081313Y79278D01*
X1080712Y80177D01*
X1080172Y81113D01*
X1079694Y82083D01*
X1079280Y83081D01*
X1078932Y84105D01*
X1078653Y85149D01*
X1078442Y86209D01*
X1078301Y87281D01*
X1078230Y88360D01*
X1078230Y89440D01*
X1078301Y90519D01*
X1078442Y91591D01*
X1078653Y92651D01*
X1078932Y93695D01*
X1079280Y94719D01*
X1079694Y95717D01*
X1080172Y96687D01*
X1080712Y97623D01*
X1081313Y98522D01*
X1081971Y99379D01*
X1082684Y100192D01*
X1083448Y100957D01*
X1084261Y101669D01*
X1085118Y102327D01*
X1086017Y102928D01*
X1086953Y103468D01*
X1087923Y103946D01*
X1088921Y104360D01*
X1089945Y104708D01*
X1090989Y104987D01*
X1092049Y105198D01*
X1093121Y105339D01*
X1094200Y105410D01*
X1095280Y105410D01*
M02*
