G04 EAGLE Gerber RS-274X export*
G75*
%MOMM*%
%FSLAX34Y34*%
%LPD*%
%INSolderpaste Bottom*%
%IPPOS*%
%AMOC8*
5,1,8,0,0,1.08239X$1,22.5*%
G01*
%ADD10C,0.280000*%
%ADD11R,1.500000X1.500000*%


D10*
X221500Y170700D02*
X221500Y159500D01*
X210300Y159500D01*
X210300Y170700D01*
X221500Y170700D01*
X221500Y162160D02*
X210300Y162160D01*
X210300Y164820D02*
X221500Y164820D01*
X221500Y167480D02*
X210300Y167480D01*
X210300Y170140D02*
X221500Y170140D01*
X221500Y184900D02*
X221500Y196100D01*
X221500Y184900D02*
X210300Y184900D01*
X210300Y196100D01*
X221500Y196100D01*
X221500Y187560D02*
X210300Y187560D01*
X210300Y190220D02*
X221500Y190220D01*
X221500Y192880D02*
X210300Y192880D01*
X210300Y195540D02*
X221500Y195540D01*
X145300Y814820D02*
X134100Y814820D01*
X134100Y826020D01*
X145300Y826020D01*
X145300Y814820D01*
X145300Y817480D02*
X134100Y817480D01*
X134100Y820140D02*
X145300Y820140D01*
X145300Y822800D02*
X134100Y822800D01*
X134100Y825460D02*
X145300Y825460D01*
X159500Y814820D02*
X170700Y814820D01*
X159500Y814820D02*
X159500Y826020D01*
X170700Y826020D01*
X170700Y814820D01*
X170700Y817480D02*
X159500Y817480D01*
X159500Y820140D02*
X170700Y820140D01*
X170700Y822800D02*
X159500Y822800D01*
X159500Y825460D02*
X170700Y825460D01*
X810780Y361200D02*
X810780Y350000D01*
X799580Y350000D01*
X799580Y361200D01*
X810780Y361200D01*
X810780Y352660D02*
X799580Y352660D01*
X799580Y355320D02*
X810780Y355320D01*
X810780Y357980D02*
X799580Y357980D01*
X799580Y360640D02*
X810780Y360640D01*
X810780Y375400D02*
X810780Y386600D01*
X810780Y375400D02*
X799580Y375400D01*
X799580Y386600D01*
X810780Y386600D01*
X810780Y378060D02*
X799580Y378060D01*
X799580Y380720D02*
X810780Y380720D01*
X810780Y383380D02*
X799580Y383380D01*
X799580Y386040D02*
X810780Y386040D01*
X1340600Y718300D02*
X1340600Y729500D01*
X1351800Y729500D01*
X1351800Y718300D01*
X1340600Y718300D01*
X1340600Y720960D02*
X1351800Y720960D01*
X1351800Y723620D02*
X1340600Y723620D01*
X1340600Y726280D02*
X1351800Y726280D01*
X1351800Y728940D02*
X1340600Y728940D01*
X1340600Y704100D02*
X1340600Y692900D01*
X1340600Y704100D02*
X1351800Y704100D01*
X1351800Y692900D01*
X1340600Y692900D01*
X1340600Y695560D02*
X1351800Y695560D01*
X1351800Y698220D02*
X1340600Y698220D01*
X1340600Y700880D02*
X1351800Y700880D01*
X1351800Y703540D02*
X1340600Y703540D01*
X170700Y691400D02*
X159500Y691400D01*
X170700Y691400D02*
X170700Y680200D01*
X159500Y680200D01*
X159500Y691400D01*
X159500Y682860D02*
X170700Y682860D01*
X170700Y685520D02*
X159500Y685520D01*
X159500Y688180D02*
X170700Y688180D01*
X170700Y690840D02*
X159500Y690840D01*
X145300Y691400D02*
X134100Y691400D01*
X145300Y691400D02*
X145300Y680200D01*
X134100Y680200D01*
X134100Y691400D01*
X134100Y682860D02*
X145300Y682860D01*
X145300Y685520D02*
X134100Y685520D01*
X134100Y688180D02*
X145300Y688180D01*
X145300Y690840D02*
X134100Y690840D01*
X858000Y233160D02*
X869200Y233160D01*
X858000Y233160D02*
X858000Y244360D01*
X869200Y244360D01*
X869200Y233160D01*
X869200Y235820D02*
X858000Y235820D01*
X858000Y238480D02*
X869200Y238480D01*
X869200Y241140D02*
X858000Y241140D01*
X858000Y243800D02*
X869200Y243800D01*
X883400Y233160D02*
X894600Y233160D01*
X883400Y233160D02*
X883400Y244360D01*
X894600Y244360D01*
X894600Y233160D01*
X894600Y235820D02*
X883400Y235820D01*
X883400Y238480D02*
X894600Y238480D01*
X894600Y241140D02*
X883400Y241140D01*
X883400Y243800D02*
X894600Y243800D01*
X412000Y207760D02*
X400800Y207760D01*
X400800Y218960D01*
X412000Y218960D01*
X412000Y207760D01*
X412000Y210420D02*
X400800Y210420D01*
X400800Y213080D02*
X412000Y213080D01*
X412000Y215740D02*
X400800Y215740D01*
X400800Y218400D02*
X412000Y218400D01*
X426200Y207760D02*
X437400Y207760D01*
X426200Y207760D02*
X426200Y218960D01*
X437400Y218960D01*
X437400Y207760D01*
X437400Y210420D02*
X426200Y210420D01*
X426200Y213080D02*
X437400Y213080D01*
X437400Y215740D02*
X426200Y215740D01*
X426200Y218400D02*
X437400Y218400D01*
X1353300Y812280D02*
X1364500Y812280D01*
X1353300Y812280D02*
X1353300Y823480D01*
X1364500Y823480D01*
X1364500Y812280D01*
X1364500Y814940D02*
X1353300Y814940D01*
X1353300Y817600D02*
X1364500Y817600D01*
X1364500Y820260D02*
X1353300Y820260D01*
X1353300Y822920D02*
X1364500Y822920D01*
X1378700Y812280D02*
X1389900Y812280D01*
X1378700Y812280D02*
X1378700Y823480D01*
X1389900Y823480D01*
X1389900Y812280D01*
X1389900Y814940D02*
X1378700Y814940D01*
X1378700Y817600D02*
X1389900Y817600D01*
X1389900Y820260D02*
X1378700Y820260D01*
X1378700Y822920D02*
X1389900Y822920D01*
X818400Y935240D02*
X807200Y935240D01*
X818400Y935240D02*
X818400Y924040D01*
X807200Y924040D01*
X807200Y935240D01*
X807200Y926700D02*
X818400Y926700D01*
X818400Y929360D02*
X807200Y929360D01*
X807200Y932020D02*
X818400Y932020D01*
X818400Y934680D02*
X807200Y934680D01*
X793000Y935240D02*
X781800Y935240D01*
X793000Y935240D02*
X793000Y924040D01*
X781800Y924040D01*
X781800Y935240D01*
X781800Y926700D02*
X793000Y926700D01*
X793000Y929360D02*
X781800Y929360D01*
X781800Y932020D02*
X793000Y932020D01*
X793000Y934680D02*
X781800Y934680D01*
X271260Y244360D02*
X271260Y233160D01*
X271260Y244360D02*
X282460Y244360D01*
X282460Y233160D01*
X271260Y233160D01*
X271260Y235820D02*
X282460Y235820D01*
X282460Y238480D02*
X271260Y238480D01*
X271260Y241140D02*
X282460Y241140D01*
X282460Y243800D02*
X271260Y243800D01*
X271260Y218960D02*
X271260Y207760D01*
X271260Y218960D02*
X282460Y218960D01*
X282460Y207760D01*
X271260Y207760D01*
X271260Y210420D02*
X282460Y210420D01*
X282460Y213080D02*
X271260Y213080D01*
X271260Y215740D02*
X282460Y215740D01*
X282460Y218400D02*
X271260Y218400D01*
X165620Y350000D02*
X165620Y361200D01*
X165620Y350000D02*
X154420Y350000D01*
X154420Y361200D01*
X165620Y361200D01*
X165620Y352660D02*
X154420Y352660D01*
X154420Y355320D02*
X165620Y355320D01*
X165620Y357980D02*
X154420Y357980D01*
X154420Y360640D02*
X165620Y360640D01*
X165620Y375400D02*
X165620Y386600D01*
X165620Y375400D02*
X154420Y375400D01*
X154420Y386600D01*
X165620Y386600D01*
X165620Y378060D02*
X154420Y378060D01*
X154420Y380720D02*
X165620Y380720D01*
X165620Y383380D02*
X154420Y383380D01*
X154420Y386040D02*
X165620Y386040D01*
X1061200Y896100D02*
X1072400Y896100D01*
X1061200Y896100D02*
X1061200Y907300D01*
X1072400Y907300D01*
X1072400Y896100D01*
X1072400Y898760D02*
X1061200Y898760D01*
X1061200Y901420D02*
X1072400Y901420D01*
X1072400Y904080D02*
X1061200Y904080D01*
X1061200Y906740D02*
X1072400Y906740D01*
X1086600Y896100D02*
X1097800Y896100D01*
X1086600Y896100D02*
X1086600Y907300D01*
X1097800Y907300D01*
X1097800Y896100D01*
X1097800Y898760D02*
X1086600Y898760D01*
X1086600Y901420D02*
X1097800Y901420D01*
X1097800Y904080D02*
X1086600Y904080D01*
X1086600Y906740D02*
X1097800Y906740D01*
X86880Y742200D02*
X86880Y731000D01*
X75680Y731000D01*
X75680Y742200D01*
X86880Y742200D01*
X86880Y733660D02*
X75680Y733660D01*
X75680Y736320D02*
X86880Y736320D01*
X86880Y738980D02*
X75680Y738980D01*
X75680Y741640D02*
X86880Y741640D01*
X86880Y756400D02*
X86880Y767600D01*
X86880Y756400D02*
X75680Y756400D01*
X75680Y767600D01*
X86880Y767600D01*
X86880Y759060D02*
X75680Y759060D01*
X75680Y761720D02*
X86880Y761720D01*
X86880Y764380D02*
X75680Y764380D01*
X75680Y767040D02*
X86880Y767040D01*
X632980Y564400D02*
X632980Y553200D01*
X621780Y553200D01*
X621780Y564400D01*
X632980Y564400D01*
X632980Y555860D02*
X621780Y555860D01*
X621780Y558520D02*
X632980Y558520D01*
X632980Y561180D02*
X621780Y561180D01*
X621780Y563840D02*
X632980Y563840D01*
X632980Y578600D02*
X632980Y589800D01*
X632980Y578600D02*
X621780Y578600D01*
X621780Y589800D01*
X632980Y589800D01*
X632980Y581260D02*
X621780Y581260D01*
X621780Y583920D02*
X632980Y583920D01*
X632980Y586580D02*
X621780Y586580D01*
X621780Y589240D02*
X632980Y589240D01*
X1124700Y670040D02*
X1124700Y681240D01*
X1135900Y681240D01*
X1135900Y670040D01*
X1124700Y670040D01*
X1124700Y672700D02*
X1135900Y672700D01*
X1135900Y675360D02*
X1124700Y675360D01*
X1124700Y678020D02*
X1135900Y678020D01*
X1135900Y680680D02*
X1124700Y680680D01*
X1124700Y655840D02*
X1124700Y644640D01*
X1124700Y655840D02*
X1135900Y655840D01*
X1135900Y644640D01*
X1124700Y644640D01*
X1124700Y647300D02*
X1135900Y647300D01*
X1135900Y649960D02*
X1124700Y649960D01*
X1124700Y652620D02*
X1135900Y652620D01*
X1135900Y655280D02*
X1124700Y655280D01*
X940320Y893560D02*
X929120Y893560D01*
X929120Y904760D01*
X940320Y904760D01*
X940320Y893560D01*
X940320Y896220D02*
X929120Y896220D01*
X929120Y898880D02*
X940320Y898880D01*
X940320Y901540D02*
X929120Y901540D01*
X929120Y904200D02*
X940320Y904200D01*
X954520Y893560D02*
X965720Y893560D01*
X954520Y893560D02*
X954520Y904760D01*
X965720Y904760D01*
X965720Y893560D01*
X965720Y896220D02*
X954520Y896220D01*
X954520Y898880D02*
X965720Y898880D01*
X965720Y901540D02*
X954520Y901540D01*
X954520Y904200D02*
X965720Y904200D01*
X1124700Y234200D02*
X1135900Y234200D01*
X1135900Y223000D01*
X1124700Y223000D01*
X1124700Y234200D01*
X1124700Y225660D02*
X1135900Y225660D01*
X1135900Y228320D02*
X1124700Y228320D01*
X1124700Y230980D02*
X1135900Y230980D01*
X1135900Y233640D02*
X1124700Y233640D01*
X1110500Y234200D02*
X1099300Y234200D01*
X1110500Y234200D02*
X1110500Y223000D01*
X1099300Y223000D01*
X1099300Y234200D01*
X1099300Y225660D02*
X1110500Y225660D01*
X1110500Y228320D02*
X1099300Y228320D01*
X1099300Y230980D02*
X1110500Y230980D01*
X1110500Y233640D02*
X1099300Y233640D01*
X500900Y485660D02*
X489700Y485660D01*
X500900Y485660D02*
X500900Y474460D01*
X489700Y474460D01*
X489700Y485660D01*
X489700Y477120D02*
X500900Y477120D01*
X500900Y479780D02*
X489700Y479780D01*
X489700Y482440D02*
X500900Y482440D01*
X500900Y485100D02*
X489700Y485100D01*
X475500Y485660D02*
X464300Y485660D01*
X475500Y485660D02*
X475500Y474460D01*
X464300Y474460D01*
X464300Y485660D01*
X464300Y477120D02*
X475500Y477120D01*
X475500Y479780D02*
X464300Y479780D01*
X464300Y482440D02*
X475500Y482440D01*
X475500Y485100D02*
X464300Y485100D01*
D11*
X927100Y177800D03*
X927100Y210800D03*
X635000Y152400D03*
X635000Y185400D03*
X609600Y152400D03*
X609600Y185400D03*
X1028700Y850900D03*
X995700Y850900D03*
X1028700Y901700D03*
X995700Y901700D03*
X990600Y762000D03*
X957600Y762000D03*
X1041400Y762000D03*
X1074400Y762000D03*
X1117600Y762000D03*
X1150600Y762000D03*
X876300Y177800D03*
X876300Y210800D03*
X444500Y647700D03*
X477500Y647700D03*
X444500Y723900D03*
X477500Y723900D03*
X444500Y673100D03*
X477500Y673100D03*
X1234440Y574040D03*
X1234440Y541040D03*
X1422400Y635000D03*
X1455400Y635000D03*
X1447800Y723900D03*
X1480800Y723900D03*
X584200Y152400D03*
X584200Y185400D03*
D10*
X705600Y235700D02*
X705600Y246900D01*
X716800Y246900D01*
X716800Y235700D01*
X705600Y235700D01*
X705600Y238360D02*
X716800Y238360D01*
X716800Y241020D02*
X705600Y241020D01*
X705600Y243680D02*
X716800Y243680D01*
X716800Y246340D02*
X705600Y246340D01*
X705600Y222900D02*
X705600Y211700D01*
X705600Y222900D02*
X716800Y222900D01*
X716800Y211700D01*
X705600Y211700D01*
X705600Y214360D02*
X716800Y214360D01*
X716800Y217020D02*
X705600Y217020D01*
X705600Y219680D02*
X716800Y219680D01*
X716800Y222340D02*
X705600Y222340D01*
X934200Y475500D02*
X945400Y475500D01*
X945400Y464300D01*
X934200Y464300D01*
X934200Y475500D01*
X934200Y466960D02*
X945400Y466960D01*
X945400Y469620D02*
X934200Y469620D01*
X934200Y472280D02*
X945400Y472280D01*
X945400Y474940D02*
X934200Y474940D01*
X921400Y475500D02*
X910200Y475500D01*
X921400Y475500D02*
X921400Y464300D01*
X910200Y464300D01*
X910200Y475500D01*
X910200Y466960D02*
X921400Y466960D01*
X921400Y469620D02*
X910200Y469620D01*
X910200Y472280D02*
X921400Y472280D01*
X921400Y474940D02*
X910200Y474940D01*
X907300Y412000D02*
X907300Y400800D01*
X896100Y400800D01*
X896100Y412000D01*
X907300Y412000D01*
X907300Y403460D02*
X896100Y403460D01*
X896100Y406120D02*
X907300Y406120D01*
X907300Y408780D02*
X896100Y408780D01*
X896100Y411440D02*
X907300Y411440D01*
X907300Y424800D02*
X907300Y436000D01*
X907300Y424800D02*
X896100Y424800D01*
X896100Y436000D01*
X907300Y436000D01*
X907300Y427460D02*
X896100Y427460D01*
X896100Y430120D02*
X907300Y430120D01*
X907300Y432780D02*
X896100Y432780D01*
X896100Y435440D02*
X907300Y435440D01*
X1174000Y502400D02*
X1174000Y513600D01*
X1174000Y502400D02*
X1162800Y502400D01*
X1162800Y513600D01*
X1174000Y513600D01*
X1174000Y505060D02*
X1162800Y505060D01*
X1162800Y507720D02*
X1174000Y507720D01*
X1174000Y510380D02*
X1162800Y510380D01*
X1162800Y513040D02*
X1174000Y513040D01*
X1174000Y526400D02*
X1174000Y537600D01*
X1174000Y526400D02*
X1162800Y526400D01*
X1162800Y537600D01*
X1174000Y537600D01*
X1174000Y529060D02*
X1162800Y529060D01*
X1162800Y531720D02*
X1174000Y531720D01*
X1174000Y534380D02*
X1162800Y534380D01*
X1162800Y537040D02*
X1174000Y537040D01*
X881900Y475500D02*
X870700Y475500D01*
X881900Y475500D02*
X881900Y464300D01*
X870700Y464300D01*
X870700Y475500D01*
X870700Y466960D02*
X881900Y466960D01*
X881900Y469620D02*
X870700Y469620D01*
X870700Y472280D02*
X881900Y472280D01*
X881900Y474940D02*
X870700Y474940D01*
X857900Y475500D02*
X846700Y475500D01*
X857900Y475500D02*
X857900Y464300D01*
X846700Y464300D01*
X846700Y475500D01*
X846700Y466960D02*
X857900Y466960D01*
X857900Y469620D02*
X846700Y469620D01*
X846700Y472280D02*
X857900Y472280D01*
X857900Y474940D02*
X846700Y474940D01*
X832600Y555740D02*
X832600Y566940D01*
X843800Y566940D01*
X843800Y555740D01*
X832600Y555740D01*
X832600Y558400D02*
X843800Y558400D01*
X843800Y561060D02*
X832600Y561060D01*
X832600Y563720D02*
X843800Y563720D01*
X843800Y566380D02*
X832600Y566380D01*
X832600Y542940D02*
X832600Y531740D01*
X832600Y542940D02*
X843800Y542940D01*
X843800Y531740D01*
X832600Y531740D01*
X832600Y534400D02*
X843800Y534400D01*
X843800Y537060D02*
X832600Y537060D01*
X832600Y539720D02*
X843800Y539720D01*
X843800Y542380D02*
X832600Y542380D01*
X908800Y615200D02*
X920000Y615200D01*
X920000Y604000D01*
X908800Y604000D01*
X908800Y615200D01*
X908800Y606660D02*
X920000Y606660D01*
X920000Y609320D02*
X908800Y609320D01*
X908800Y611980D02*
X920000Y611980D01*
X920000Y614640D02*
X908800Y614640D01*
X896000Y615200D02*
X884800Y615200D01*
X896000Y615200D02*
X896000Y604000D01*
X884800Y604000D01*
X884800Y615200D01*
X884800Y606660D02*
X896000Y606660D01*
X896000Y609320D02*
X884800Y609320D01*
X884800Y611980D02*
X896000Y611980D01*
X896000Y614640D02*
X884800Y614640D01*
X908800Y640600D02*
X920000Y640600D01*
X920000Y629400D01*
X908800Y629400D01*
X908800Y640600D01*
X908800Y632060D02*
X920000Y632060D01*
X920000Y634720D02*
X908800Y634720D01*
X908800Y637380D02*
X920000Y637380D01*
X920000Y640040D02*
X908800Y640040D01*
X896000Y640600D02*
X884800Y640600D01*
X896000Y640600D02*
X896000Y629400D01*
X884800Y629400D01*
X884800Y640600D01*
X884800Y632060D02*
X896000Y632060D01*
X896000Y634720D02*
X884800Y634720D01*
X884800Y637380D02*
X896000Y637380D01*
X896000Y640040D02*
X884800Y640040D01*
X159500Y196100D02*
X159500Y184900D01*
X159500Y196100D02*
X170700Y196100D01*
X170700Y184900D01*
X159500Y184900D01*
X159500Y187560D02*
X170700Y187560D01*
X170700Y190220D02*
X159500Y190220D01*
X159500Y192880D02*
X170700Y192880D01*
X170700Y195540D02*
X159500Y195540D01*
X159500Y172100D02*
X159500Y160900D01*
X159500Y172100D02*
X170700Y172100D01*
X170700Y160900D01*
X159500Y160900D01*
X159500Y163560D02*
X170700Y163560D01*
X170700Y166220D02*
X159500Y166220D01*
X159500Y168880D02*
X170700Y168880D01*
X170700Y171540D02*
X159500Y171540D01*
X579640Y81800D02*
X579640Y70600D01*
X568440Y70600D01*
X568440Y81800D01*
X579640Y81800D01*
X579640Y73260D02*
X568440Y73260D01*
X568440Y75920D02*
X579640Y75920D01*
X579640Y78580D02*
X568440Y78580D01*
X568440Y81240D02*
X579640Y81240D01*
X579640Y94600D02*
X579640Y105800D01*
X579640Y94600D02*
X568440Y94600D01*
X568440Y105800D01*
X579640Y105800D01*
X579640Y97260D02*
X568440Y97260D01*
X568440Y99920D02*
X579640Y99920D01*
X579640Y102580D02*
X568440Y102580D01*
X568440Y105240D02*
X579640Y105240D01*
X362700Y426200D02*
X362700Y437400D01*
X373900Y437400D01*
X373900Y426200D01*
X362700Y426200D01*
X362700Y428860D02*
X373900Y428860D01*
X373900Y431520D02*
X362700Y431520D01*
X362700Y434180D02*
X373900Y434180D01*
X373900Y436840D02*
X362700Y436840D01*
X362700Y413400D02*
X362700Y402200D01*
X362700Y413400D02*
X373900Y413400D01*
X373900Y402200D01*
X362700Y402200D01*
X362700Y404860D02*
X373900Y404860D01*
X373900Y407520D02*
X362700Y407520D01*
X362700Y410180D02*
X373900Y410180D01*
X373900Y412840D02*
X362700Y412840D01*
X997700Y57900D02*
X1008900Y57900D01*
X997700Y57900D02*
X997700Y69100D01*
X1008900Y69100D01*
X1008900Y57900D01*
X1008900Y60560D02*
X997700Y60560D01*
X997700Y63220D02*
X1008900Y63220D01*
X1008900Y65880D02*
X997700Y65880D01*
X997700Y68540D02*
X1008900Y68540D01*
X1021700Y57900D02*
X1032900Y57900D01*
X1021700Y57900D02*
X1021700Y69100D01*
X1032900Y69100D01*
X1032900Y57900D01*
X1032900Y60560D02*
X1021700Y60560D01*
X1021700Y63220D02*
X1032900Y63220D01*
X1032900Y65880D02*
X1021700Y65880D01*
X1021700Y68540D02*
X1032900Y68540D01*
X464300Y426200D02*
X464300Y437400D01*
X475500Y437400D01*
X475500Y426200D01*
X464300Y426200D01*
X464300Y428860D02*
X475500Y428860D01*
X475500Y431520D02*
X464300Y431520D01*
X464300Y434180D02*
X475500Y434180D01*
X475500Y436840D02*
X464300Y436840D01*
X464300Y413400D02*
X464300Y402200D01*
X464300Y413400D02*
X475500Y413400D01*
X475500Y402200D01*
X464300Y402200D01*
X464300Y404860D02*
X475500Y404860D01*
X475500Y407520D02*
X464300Y407520D01*
X464300Y410180D02*
X475500Y410180D01*
X475500Y412840D02*
X464300Y412840D01*
X261100Y413500D02*
X261100Y424700D01*
X272300Y424700D01*
X272300Y413500D01*
X261100Y413500D01*
X261100Y416160D02*
X272300Y416160D01*
X272300Y418820D02*
X261100Y418820D01*
X261100Y421480D02*
X272300Y421480D01*
X272300Y424140D02*
X261100Y424140D01*
X261100Y400700D02*
X261100Y389500D01*
X261100Y400700D02*
X272300Y400700D01*
X272300Y389500D01*
X261100Y389500D01*
X261100Y392160D02*
X272300Y392160D01*
X272300Y394820D02*
X261100Y394820D01*
X261100Y397480D02*
X272300Y397480D01*
X272300Y400140D02*
X261100Y400140D01*
X1162800Y197600D02*
X1174000Y197600D01*
X1162800Y197600D02*
X1162800Y208800D01*
X1174000Y208800D01*
X1174000Y197600D01*
X1174000Y200260D02*
X1162800Y200260D01*
X1162800Y202920D02*
X1174000Y202920D01*
X1174000Y205580D02*
X1162800Y205580D01*
X1162800Y208240D02*
X1174000Y208240D01*
X1186800Y197600D02*
X1198000Y197600D01*
X1186800Y197600D02*
X1186800Y208800D01*
X1198000Y208800D01*
X1198000Y197600D01*
X1198000Y200260D02*
X1186800Y200260D01*
X1186800Y202920D02*
X1198000Y202920D01*
X1198000Y205580D02*
X1186800Y205580D01*
X1186800Y208240D02*
X1198000Y208240D01*
X1239000Y261100D02*
X1239000Y272300D01*
X1250200Y272300D01*
X1250200Y261100D01*
X1239000Y261100D01*
X1239000Y263760D02*
X1250200Y263760D01*
X1250200Y266420D02*
X1239000Y266420D01*
X1239000Y269080D02*
X1250200Y269080D01*
X1250200Y271740D02*
X1239000Y271740D01*
X1239000Y248300D02*
X1239000Y237100D01*
X1239000Y248300D02*
X1250200Y248300D01*
X1250200Y237100D01*
X1239000Y237100D01*
X1239000Y239760D02*
X1250200Y239760D01*
X1250200Y242420D02*
X1239000Y242420D01*
X1239000Y245080D02*
X1250200Y245080D01*
X1250200Y247740D02*
X1239000Y247740D01*
X1364500Y145300D02*
X1364500Y134100D01*
X1353300Y134100D01*
X1353300Y145300D01*
X1364500Y145300D01*
X1364500Y136760D02*
X1353300Y136760D01*
X1353300Y139420D02*
X1364500Y139420D01*
X1364500Y142080D02*
X1353300Y142080D01*
X1353300Y144740D02*
X1364500Y144740D01*
X1364500Y158100D02*
X1364500Y169300D01*
X1364500Y158100D02*
X1353300Y158100D01*
X1353300Y169300D01*
X1364500Y169300D01*
X1364500Y160760D02*
X1353300Y160760D01*
X1353300Y163420D02*
X1364500Y163420D01*
X1364500Y166080D02*
X1353300Y166080D01*
X1353300Y168740D02*
X1364500Y168740D01*
X1378700Y261100D02*
X1378700Y272300D01*
X1389900Y272300D01*
X1389900Y261100D01*
X1378700Y261100D01*
X1378700Y263760D02*
X1389900Y263760D01*
X1389900Y266420D02*
X1378700Y266420D01*
X1378700Y269080D02*
X1389900Y269080D01*
X1389900Y271740D02*
X1378700Y271740D01*
X1378700Y248300D02*
X1378700Y237100D01*
X1378700Y248300D02*
X1389900Y248300D01*
X1389900Y237100D01*
X1378700Y237100D01*
X1378700Y239760D02*
X1389900Y239760D01*
X1389900Y242420D02*
X1378700Y242420D01*
X1378700Y245080D02*
X1389900Y245080D01*
X1389900Y247740D02*
X1378700Y247740D01*
X1491500Y158000D02*
X1491500Y146800D01*
X1480300Y146800D01*
X1480300Y158000D01*
X1491500Y158000D01*
X1491500Y149460D02*
X1480300Y149460D01*
X1480300Y152120D02*
X1491500Y152120D01*
X1491500Y154780D02*
X1480300Y154780D01*
X1480300Y157440D02*
X1491500Y157440D01*
X1491500Y170800D02*
X1491500Y182000D01*
X1491500Y170800D02*
X1480300Y170800D01*
X1480300Y182000D01*
X1491500Y182000D01*
X1491500Y173460D02*
X1480300Y173460D01*
X1480300Y176120D02*
X1491500Y176120D01*
X1491500Y178780D02*
X1480300Y178780D01*
X1480300Y181440D02*
X1491500Y181440D01*
X1505700Y261100D02*
X1505700Y272300D01*
X1516900Y272300D01*
X1516900Y261100D01*
X1505700Y261100D01*
X1505700Y263760D02*
X1516900Y263760D01*
X1516900Y266420D02*
X1505700Y266420D01*
X1505700Y269080D02*
X1516900Y269080D01*
X1516900Y271740D02*
X1505700Y271740D01*
X1505700Y248300D02*
X1505700Y237100D01*
X1505700Y248300D02*
X1516900Y248300D01*
X1516900Y237100D01*
X1505700Y237100D01*
X1505700Y239760D02*
X1516900Y239760D01*
X1516900Y242420D02*
X1505700Y242420D01*
X1505700Y245080D02*
X1516900Y245080D01*
X1516900Y247740D02*
X1505700Y247740D01*
X1428000Y451600D02*
X1428000Y462800D01*
X1428000Y451600D02*
X1416800Y451600D01*
X1416800Y462800D01*
X1428000Y462800D01*
X1428000Y454260D02*
X1416800Y454260D01*
X1416800Y456920D02*
X1428000Y456920D01*
X1428000Y459580D02*
X1416800Y459580D01*
X1416800Y462240D02*
X1428000Y462240D01*
X1428000Y475600D02*
X1428000Y486800D01*
X1428000Y475600D02*
X1416800Y475600D01*
X1416800Y486800D01*
X1428000Y486800D01*
X1428000Y478260D02*
X1416800Y478260D01*
X1416800Y480920D02*
X1428000Y480920D01*
X1428000Y483580D02*
X1416800Y483580D01*
X1416800Y486240D02*
X1428000Y486240D01*
X1402600Y462800D02*
X1402600Y451600D01*
X1391400Y451600D01*
X1391400Y462800D01*
X1402600Y462800D01*
X1402600Y454260D02*
X1391400Y454260D01*
X1391400Y456920D02*
X1402600Y456920D01*
X1402600Y459580D02*
X1391400Y459580D01*
X1391400Y462240D02*
X1402600Y462240D01*
X1402600Y475600D02*
X1402600Y486800D01*
X1402600Y475600D02*
X1391400Y475600D01*
X1391400Y486800D01*
X1402600Y486800D01*
X1402600Y478260D02*
X1391400Y478260D01*
X1391400Y480920D02*
X1402600Y480920D01*
X1402600Y483580D02*
X1391400Y483580D01*
X1391400Y486240D02*
X1402600Y486240D01*
X1174000Y412000D02*
X1174000Y400800D01*
X1162800Y400800D01*
X1162800Y412000D01*
X1174000Y412000D01*
X1174000Y403460D02*
X1162800Y403460D01*
X1162800Y406120D02*
X1174000Y406120D01*
X1174000Y408780D02*
X1162800Y408780D01*
X1162800Y411440D02*
X1174000Y411440D01*
X1174000Y424800D02*
X1174000Y436000D01*
X1174000Y424800D02*
X1162800Y424800D01*
X1162800Y436000D01*
X1174000Y436000D01*
X1174000Y427460D02*
X1162800Y427460D01*
X1162800Y430120D02*
X1174000Y430120D01*
X1174000Y432780D02*
X1162800Y432780D01*
X1162800Y435440D02*
X1174000Y435440D01*
X1351800Y451600D02*
X1351800Y462800D01*
X1351800Y451600D02*
X1340600Y451600D01*
X1340600Y462800D01*
X1351800Y462800D01*
X1351800Y454260D02*
X1340600Y454260D01*
X1340600Y456920D02*
X1351800Y456920D01*
X1351800Y459580D02*
X1340600Y459580D01*
X1340600Y462240D02*
X1351800Y462240D01*
X1351800Y475600D02*
X1351800Y486800D01*
X1351800Y475600D02*
X1340600Y475600D01*
X1340600Y486800D01*
X1351800Y486800D01*
X1351800Y478260D02*
X1340600Y478260D01*
X1340600Y480920D02*
X1351800Y480920D01*
X1351800Y483580D02*
X1340600Y483580D01*
X1340600Y486240D02*
X1351800Y486240D01*
X1531100Y591300D02*
X1531100Y602500D01*
X1542300Y602500D01*
X1542300Y591300D01*
X1531100Y591300D01*
X1531100Y593960D02*
X1542300Y593960D01*
X1542300Y596620D02*
X1531100Y596620D01*
X1531100Y599280D02*
X1542300Y599280D01*
X1542300Y601940D02*
X1531100Y601940D01*
X1531100Y578500D02*
X1531100Y567300D01*
X1531100Y578500D02*
X1542300Y578500D01*
X1542300Y567300D01*
X1531100Y567300D01*
X1531100Y569960D02*
X1542300Y569960D01*
X1542300Y572620D02*
X1531100Y572620D01*
X1531100Y575280D02*
X1542300Y575280D01*
X1542300Y577940D02*
X1531100Y577940D01*
X1416800Y591300D02*
X1416800Y602500D01*
X1428000Y602500D01*
X1428000Y591300D01*
X1416800Y591300D01*
X1416800Y593960D02*
X1428000Y593960D01*
X1428000Y596620D02*
X1416800Y596620D01*
X1416800Y599280D02*
X1428000Y599280D01*
X1428000Y601940D02*
X1416800Y601940D01*
X1416800Y578500D02*
X1416800Y567300D01*
X1416800Y578500D02*
X1428000Y578500D01*
X1428000Y567300D01*
X1416800Y567300D01*
X1416800Y569960D02*
X1428000Y569960D01*
X1428000Y572620D02*
X1416800Y572620D01*
X1416800Y575280D02*
X1428000Y575280D01*
X1428000Y577940D02*
X1416800Y577940D01*
X1315200Y591300D02*
X1315200Y602500D01*
X1326400Y602500D01*
X1326400Y591300D01*
X1315200Y591300D01*
X1315200Y593960D02*
X1326400Y593960D01*
X1326400Y596620D02*
X1315200Y596620D01*
X1315200Y599280D02*
X1326400Y599280D01*
X1326400Y601940D02*
X1315200Y601940D01*
X1315200Y578500D02*
X1315200Y567300D01*
X1315200Y578500D02*
X1326400Y578500D01*
X1326400Y567300D01*
X1315200Y567300D01*
X1315200Y569960D02*
X1326400Y569960D01*
X1326400Y572620D02*
X1315200Y572620D01*
X1315200Y575280D02*
X1326400Y575280D01*
X1326400Y577940D02*
X1315200Y577940D01*
X119900Y578600D02*
X119900Y589800D01*
X119900Y578600D02*
X108700Y578600D01*
X108700Y589800D01*
X119900Y589800D01*
X119900Y581260D02*
X108700Y581260D01*
X108700Y583920D02*
X119900Y583920D01*
X119900Y586580D02*
X108700Y586580D01*
X108700Y589240D02*
X119900Y589240D01*
X119900Y602600D02*
X119900Y613800D01*
X119900Y602600D02*
X108700Y602600D01*
X108700Y613800D01*
X119900Y613800D01*
X119900Y605260D02*
X108700Y605260D01*
X108700Y607920D02*
X119900Y607920D01*
X119900Y610580D02*
X108700Y610580D01*
X108700Y613240D02*
X119900Y613240D01*
X145300Y589800D02*
X145300Y578600D01*
X134100Y578600D01*
X134100Y589800D01*
X145300Y589800D01*
X145300Y581260D02*
X134100Y581260D01*
X134100Y583920D02*
X145300Y583920D01*
X145300Y586580D02*
X134100Y586580D01*
X134100Y589240D02*
X145300Y589240D01*
X145300Y602600D02*
X145300Y613800D01*
X145300Y602600D02*
X134100Y602600D01*
X134100Y613800D01*
X145300Y613800D01*
X145300Y605260D02*
X134100Y605260D01*
X134100Y607920D02*
X145300Y607920D01*
X145300Y610580D02*
X134100Y610580D01*
X134100Y613240D02*
X145300Y613240D01*
X134100Y781800D02*
X134100Y793000D01*
X145300Y793000D01*
X145300Y781800D01*
X134100Y781800D01*
X134100Y784460D02*
X145300Y784460D01*
X145300Y787120D02*
X134100Y787120D01*
X134100Y789780D02*
X145300Y789780D01*
X145300Y792440D02*
X134100Y792440D01*
X134100Y769000D02*
X134100Y757800D01*
X134100Y769000D02*
X145300Y769000D01*
X145300Y757800D01*
X134100Y757800D01*
X134100Y760460D02*
X145300Y760460D01*
X145300Y763120D02*
X134100Y763120D01*
X134100Y765780D02*
X145300Y765780D01*
X145300Y768440D02*
X134100Y768440D01*
X159500Y781800D02*
X159500Y793000D01*
X170700Y793000D01*
X170700Y781800D01*
X159500Y781800D01*
X159500Y784460D02*
X170700Y784460D01*
X170700Y787120D02*
X159500Y787120D01*
X159500Y789780D02*
X170700Y789780D01*
X170700Y792440D02*
X159500Y792440D01*
X159500Y769000D02*
X159500Y757800D01*
X159500Y769000D02*
X170700Y769000D01*
X170700Y757800D01*
X159500Y757800D01*
X159500Y760460D02*
X170700Y760460D01*
X170700Y763120D02*
X159500Y763120D01*
X159500Y765780D02*
X170700Y765780D01*
X170700Y768440D02*
X159500Y768440D01*
X1061200Y921500D02*
X1072400Y921500D01*
X1061200Y921500D02*
X1061200Y932700D01*
X1072400Y932700D01*
X1072400Y921500D01*
X1072400Y924160D02*
X1061200Y924160D01*
X1061200Y926820D02*
X1072400Y926820D01*
X1072400Y929480D02*
X1061200Y929480D01*
X1061200Y932140D02*
X1072400Y932140D01*
X1085200Y921500D02*
X1096400Y921500D01*
X1085200Y921500D02*
X1085200Y932700D01*
X1096400Y932700D01*
X1096400Y921500D01*
X1096400Y924160D02*
X1085200Y924160D01*
X1085200Y926820D02*
X1096400Y926820D01*
X1096400Y929480D02*
X1085200Y929480D01*
X1085200Y932140D02*
X1096400Y932140D01*
X551700Y894600D02*
X551700Y883400D01*
X540500Y883400D01*
X540500Y894600D01*
X551700Y894600D01*
X551700Y886060D02*
X540500Y886060D01*
X540500Y888720D02*
X551700Y888720D01*
X551700Y891380D02*
X540500Y891380D01*
X540500Y894040D02*
X551700Y894040D01*
X551700Y907400D02*
X551700Y918600D01*
X551700Y907400D02*
X540500Y907400D01*
X540500Y918600D01*
X551700Y918600D01*
X551700Y910060D02*
X540500Y910060D01*
X540500Y912720D02*
X551700Y912720D01*
X551700Y915380D02*
X540500Y915380D01*
X540500Y918040D02*
X551700Y918040D01*
X1137400Y475500D02*
X1148600Y475500D01*
X1148600Y464300D01*
X1137400Y464300D01*
X1137400Y475500D01*
X1137400Y466960D02*
X1148600Y466960D01*
X1148600Y469620D02*
X1137400Y469620D01*
X1137400Y472280D02*
X1148600Y472280D01*
X1148600Y474940D02*
X1137400Y474940D01*
X1124600Y475500D02*
X1113400Y475500D01*
X1124600Y475500D02*
X1124600Y464300D01*
X1113400Y464300D01*
X1113400Y475500D01*
X1113400Y466960D02*
X1124600Y466960D01*
X1124600Y469620D02*
X1113400Y469620D01*
X1113400Y472280D02*
X1124600Y472280D01*
X1124600Y474940D02*
X1113400Y474940D01*
X526300Y920000D02*
X515100Y920000D01*
X526300Y920000D02*
X526300Y908800D01*
X515100Y908800D01*
X515100Y920000D01*
X515100Y911460D02*
X526300Y911460D01*
X526300Y914120D02*
X515100Y914120D01*
X515100Y916780D02*
X526300Y916780D01*
X526300Y919440D02*
X515100Y919440D01*
X502300Y920000D02*
X491100Y920000D01*
X502300Y920000D02*
X502300Y908800D01*
X491100Y908800D01*
X491100Y920000D01*
X491100Y911460D02*
X502300Y911460D01*
X502300Y914120D02*
X491100Y914120D01*
X491100Y916780D02*
X502300Y916780D01*
X502300Y919440D02*
X491100Y919440D01*
X475500Y894600D02*
X475500Y883400D01*
X464300Y883400D01*
X464300Y894600D01*
X475500Y894600D01*
X475500Y886060D02*
X464300Y886060D01*
X464300Y888720D02*
X475500Y888720D01*
X475500Y891380D02*
X464300Y891380D01*
X464300Y894040D02*
X475500Y894040D01*
X475500Y907400D02*
X475500Y918600D01*
X475500Y907400D02*
X464300Y907400D01*
X464300Y918600D01*
X475500Y918600D01*
X475500Y910060D02*
X464300Y910060D01*
X464300Y912720D02*
X475500Y912720D01*
X475500Y915380D02*
X464300Y915380D01*
X464300Y918040D02*
X475500Y918040D01*
X450100Y920000D02*
X438900Y920000D01*
X450100Y920000D02*
X450100Y908800D01*
X438900Y908800D01*
X438900Y920000D01*
X438900Y911460D02*
X450100Y911460D01*
X450100Y914120D02*
X438900Y914120D01*
X438900Y916780D02*
X450100Y916780D01*
X450100Y919440D02*
X438900Y919440D01*
X426100Y920000D02*
X414900Y920000D01*
X426100Y920000D02*
X426100Y908800D01*
X414900Y908800D01*
X414900Y920000D01*
X414900Y911460D02*
X426100Y911460D01*
X426100Y914120D02*
X414900Y914120D01*
X414900Y916780D02*
X426100Y916780D01*
X426100Y919440D02*
X414900Y919440D01*
X399300Y894600D02*
X399300Y883400D01*
X388100Y883400D01*
X388100Y894600D01*
X399300Y894600D01*
X399300Y886060D02*
X388100Y886060D01*
X388100Y888720D02*
X399300Y888720D01*
X399300Y891380D02*
X388100Y891380D01*
X388100Y894040D02*
X399300Y894040D01*
X399300Y907400D02*
X399300Y918600D01*
X399300Y907400D02*
X388100Y907400D01*
X388100Y918600D01*
X399300Y918600D01*
X399300Y910060D02*
X388100Y910060D01*
X388100Y912720D02*
X399300Y912720D01*
X399300Y915380D02*
X388100Y915380D01*
X388100Y918040D02*
X399300Y918040D01*
X373900Y920000D02*
X362700Y920000D01*
X373900Y920000D02*
X373900Y908800D01*
X362700Y908800D01*
X362700Y920000D01*
X362700Y911460D02*
X373900Y911460D01*
X373900Y914120D02*
X362700Y914120D01*
X362700Y916780D02*
X373900Y916780D01*
X373900Y919440D02*
X362700Y919440D01*
X349900Y920000D02*
X338700Y920000D01*
X349900Y920000D02*
X349900Y908800D01*
X338700Y908800D01*
X338700Y920000D01*
X338700Y911460D02*
X349900Y911460D01*
X349900Y914120D02*
X338700Y914120D01*
X338700Y916780D02*
X349900Y916780D01*
X349900Y919440D02*
X338700Y919440D01*
X323100Y894600D02*
X323100Y883400D01*
X311900Y883400D01*
X311900Y894600D01*
X323100Y894600D01*
X323100Y886060D02*
X311900Y886060D01*
X311900Y888720D02*
X323100Y888720D01*
X323100Y891380D02*
X311900Y891380D01*
X311900Y894040D02*
X323100Y894040D01*
X323100Y907400D02*
X323100Y918600D01*
X323100Y907400D02*
X311900Y907400D01*
X311900Y918600D01*
X323100Y918600D01*
X323100Y910060D02*
X311900Y910060D01*
X311900Y912720D02*
X323100Y912720D01*
X323100Y915380D02*
X311900Y915380D01*
X311900Y918040D02*
X323100Y918040D01*
X565900Y908800D02*
X577100Y908800D01*
X565900Y908800D02*
X565900Y920000D01*
X577100Y920000D01*
X577100Y908800D01*
X577100Y911460D02*
X565900Y911460D01*
X565900Y914120D02*
X577100Y914120D01*
X577100Y916780D02*
X565900Y916780D01*
X565900Y919440D02*
X577100Y919440D01*
X589900Y908800D02*
X601100Y908800D01*
X589900Y908800D02*
X589900Y920000D01*
X601100Y920000D01*
X601100Y908800D01*
X601100Y911460D02*
X589900Y911460D01*
X589900Y914120D02*
X601100Y914120D01*
X601100Y916780D02*
X589900Y916780D01*
X589900Y919440D02*
X601100Y919440D01*
X145300Y705600D02*
X134100Y705600D01*
X134100Y716800D01*
X145300Y716800D01*
X145300Y705600D01*
X145300Y708260D02*
X134100Y708260D01*
X134100Y710920D02*
X145300Y710920D01*
X145300Y713580D02*
X134100Y713580D01*
X134100Y716240D02*
X145300Y716240D01*
X158100Y705600D02*
X169300Y705600D01*
X158100Y705600D02*
X158100Y716800D01*
X169300Y716800D01*
X169300Y705600D01*
X169300Y708260D02*
X158100Y708260D01*
X158100Y710920D02*
X169300Y710920D01*
X169300Y713580D02*
X158100Y713580D01*
X158100Y716240D02*
X169300Y716240D01*
X451600Y207760D02*
X462800Y207760D01*
X451600Y207760D02*
X451600Y218960D01*
X462800Y218960D01*
X462800Y207760D01*
X462800Y210420D02*
X451600Y210420D01*
X451600Y213080D02*
X462800Y213080D01*
X462800Y215740D02*
X451600Y215740D01*
X451600Y218400D02*
X462800Y218400D01*
X475600Y207760D02*
X486800Y207760D01*
X475600Y207760D02*
X475600Y218960D01*
X486800Y218960D01*
X486800Y207760D01*
X486800Y210420D02*
X475600Y210420D01*
X475600Y213080D02*
X486800Y213080D01*
X486800Y215740D02*
X475600Y215740D01*
X475600Y218400D02*
X486800Y218400D01*
X1097800Y400800D02*
X1097800Y412000D01*
X1097800Y400800D02*
X1086600Y400800D01*
X1086600Y412000D01*
X1097800Y412000D01*
X1097800Y403460D02*
X1086600Y403460D01*
X1086600Y406120D02*
X1097800Y406120D01*
X1097800Y408780D02*
X1086600Y408780D01*
X1086600Y411440D02*
X1097800Y411440D01*
X1097800Y424800D02*
X1097800Y436000D01*
X1097800Y424800D02*
X1086600Y424800D01*
X1086600Y436000D01*
X1097800Y436000D01*
X1097800Y427460D02*
X1086600Y427460D01*
X1086600Y430120D02*
X1097800Y430120D01*
X1097800Y432780D02*
X1086600Y432780D01*
X1086600Y435440D02*
X1097800Y435440D01*
X1072400Y475500D02*
X1061200Y475500D01*
X1072400Y475500D02*
X1072400Y464300D01*
X1061200Y464300D01*
X1061200Y475500D01*
X1061200Y466960D02*
X1072400Y466960D01*
X1072400Y469620D02*
X1061200Y469620D01*
X1061200Y472280D02*
X1072400Y472280D01*
X1072400Y474940D02*
X1061200Y474940D01*
X1048400Y475500D02*
X1037200Y475500D01*
X1048400Y475500D02*
X1048400Y464300D01*
X1037200Y464300D01*
X1037200Y475500D01*
X1037200Y466960D02*
X1048400Y466960D01*
X1048400Y469620D02*
X1037200Y469620D01*
X1037200Y472280D02*
X1048400Y472280D01*
X1048400Y474940D02*
X1037200Y474940D01*
X1021600Y412000D02*
X1021600Y400800D01*
X1010400Y400800D01*
X1010400Y412000D01*
X1021600Y412000D01*
X1021600Y403460D02*
X1010400Y403460D01*
X1010400Y406120D02*
X1021600Y406120D01*
X1021600Y408780D02*
X1010400Y408780D01*
X1010400Y411440D02*
X1021600Y411440D01*
X1021600Y424800D02*
X1021600Y436000D01*
X1021600Y424800D02*
X1010400Y424800D01*
X1010400Y436000D01*
X1021600Y436000D01*
X1021600Y427460D02*
X1010400Y427460D01*
X1010400Y430120D02*
X1021600Y430120D01*
X1021600Y432780D02*
X1010400Y432780D01*
X1010400Y435440D02*
X1021600Y435440D01*
X1008900Y475500D02*
X997700Y475500D01*
X1008900Y475500D02*
X1008900Y464300D01*
X997700Y464300D01*
X997700Y475500D01*
X997700Y466960D02*
X1008900Y466960D01*
X1008900Y469620D02*
X997700Y469620D01*
X997700Y472280D02*
X1008900Y472280D01*
X1008900Y474940D02*
X997700Y474940D01*
X984900Y475500D02*
X973700Y475500D01*
X984900Y475500D02*
X984900Y464300D01*
X973700Y464300D01*
X973700Y475500D01*
X973700Y466960D02*
X984900Y466960D01*
X984900Y469620D02*
X973700Y469620D01*
X973700Y472280D02*
X984900Y472280D01*
X984900Y474940D02*
X973700Y474940D01*
X970800Y412000D02*
X970800Y400800D01*
X959600Y400800D01*
X959600Y412000D01*
X970800Y412000D01*
X970800Y403460D02*
X959600Y403460D01*
X959600Y406120D02*
X970800Y406120D01*
X970800Y408780D02*
X959600Y408780D01*
X959600Y411440D02*
X970800Y411440D01*
X970800Y424800D02*
X970800Y436000D01*
X970800Y424800D02*
X959600Y424800D01*
X959600Y436000D01*
X970800Y436000D01*
X970800Y427460D02*
X959600Y427460D01*
X959600Y430120D02*
X970800Y430120D01*
X970800Y432780D02*
X959600Y432780D01*
X959600Y435440D02*
X970800Y435440D01*
X424700Y761480D02*
X413500Y761480D01*
X413500Y772680D01*
X424700Y772680D01*
X424700Y761480D01*
X424700Y764140D02*
X413500Y764140D01*
X413500Y766800D02*
X424700Y766800D01*
X424700Y769460D02*
X413500Y769460D01*
X413500Y772120D02*
X424700Y772120D01*
X438900Y761480D02*
X450100Y761480D01*
X438900Y761480D02*
X438900Y772680D01*
X450100Y772680D01*
X450100Y761480D01*
X450100Y764140D02*
X438900Y764140D01*
X438900Y766800D02*
X450100Y766800D01*
X450100Y769460D02*
X438900Y769460D01*
X438900Y772120D02*
X450100Y772120D01*
M02*
