G04 EAGLE Gerber RS-274X export*
G75*
%MOMM*%
%FSLAX34Y34*%
%LPD*%
%INSoldermask Bottom*%
%IPPOS*%
%AMOC8*
5,1,8,0,0,1.08239X$1,22.5*%
G01*
%ADD10C,2.203200*%
%ADD11C,0.480959*%
%ADD12R,1.703200X1.703200*%
%ADD13R,1.603200X1.603200*%
%ADD14C,1.603200*%
%ADD15C,1.879600*%
%ADD16C,3.505200*%
%ADD17R,1.803200X1.803200*%
%ADD18C,1.803200*%
%ADD19C,2.387600*%
%ADD20C,1.409600*%
%ADD21C,5.703200*%


D10*
X1003300Y228600D03*
X1054100Y228600D03*
D11*
X221511Y170711D02*
X221511Y159489D01*
X210289Y159489D01*
X210289Y170711D01*
X221511Y170711D01*
X221511Y164058D02*
X210289Y164058D01*
X210289Y168627D02*
X221511Y168627D01*
X221511Y184889D02*
X221511Y196111D01*
X221511Y184889D02*
X210289Y184889D01*
X210289Y196111D01*
X221511Y196111D01*
X221511Y189458D02*
X210289Y189458D01*
X210289Y194027D02*
X221511Y194027D01*
X145311Y814809D02*
X134089Y814809D01*
X134089Y826031D01*
X145311Y826031D01*
X145311Y814809D01*
X145311Y819378D02*
X134089Y819378D01*
X134089Y823947D02*
X145311Y823947D01*
X159489Y814809D02*
X170711Y814809D01*
X159489Y814809D02*
X159489Y826031D01*
X170711Y826031D01*
X170711Y814809D01*
X170711Y819378D02*
X159489Y819378D01*
X159489Y823947D02*
X170711Y823947D01*
D10*
X368300Y355600D03*
X419100Y355600D03*
X469900Y355600D03*
X520700Y355600D03*
X266700Y355600D03*
X317500Y355600D03*
D11*
X810791Y361211D02*
X810791Y349989D01*
X799569Y349989D01*
X799569Y361211D01*
X810791Y361211D01*
X810791Y354558D02*
X799569Y354558D01*
X799569Y359127D02*
X810791Y359127D01*
X810791Y375389D02*
X810791Y386611D01*
X810791Y375389D02*
X799569Y375389D01*
X799569Y386611D01*
X810791Y386611D01*
X810791Y379958D02*
X799569Y379958D01*
X799569Y384527D02*
X810791Y384527D01*
X1340589Y718289D02*
X1340589Y729511D01*
X1351811Y729511D01*
X1351811Y718289D01*
X1340589Y718289D01*
X1340589Y722858D02*
X1351811Y722858D01*
X1351811Y727427D02*
X1340589Y727427D01*
X1340589Y704111D02*
X1340589Y692889D01*
X1340589Y704111D02*
X1351811Y704111D01*
X1351811Y692889D01*
X1340589Y692889D01*
X1340589Y697458D02*
X1351811Y697458D01*
X1351811Y702027D02*
X1340589Y702027D01*
D10*
X190500Y596900D03*
X241300Y596900D03*
X215900Y800100D03*
X266700Y800100D03*
D11*
X170711Y691411D02*
X159489Y691411D01*
X170711Y691411D02*
X170711Y680189D01*
X159489Y680189D01*
X159489Y691411D01*
X159489Y684758D02*
X170711Y684758D01*
X170711Y689327D02*
X159489Y689327D01*
X145311Y691411D02*
X134089Y691411D01*
X145311Y691411D02*
X145311Y680189D01*
X134089Y680189D01*
X134089Y691411D01*
X134089Y684758D02*
X145311Y684758D01*
X145311Y689327D02*
X134089Y689327D01*
X857989Y233149D02*
X869211Y233149D01*
X857989Y233149D02*
X857989Y244371D01*
X869211Y244371D01*
X869211Y233149D01*
X869211Y237718D02*
X857989Y237718D01*
X857989Y242287D02*
X869211Y242287D01*
X883389Y233149D02*
X894611Y233149D01*
X883389Y233149D02*
X883389Y244371D01*
X894611Y244371D01*
X894611Y233149D01*
X894611Y237718D02*
X883389Y237718D01*
X883389Y242287D02*
X894611Y242287D01*
X412011Y207749D02*
X400789Y207749D01*
X400789Y218971D01*
X412011Y218971D01*
X412011Y207749D01*
X412011Y212318D02*
X400789Y212318D01*
X400789Y216887D02*
X412011Y216887D01*
X426189Y207749D02*
X437411Y207749D01*
X426189Y207749D02*
X426189Y218971D01*
X437411Y218971D01*
X437411Y207749D01*
X437411Y212318D02*
X426189Y212318D01*
X426189Y216887D02*
X437411Y216887D01*
X1353289Y812269D02*
X1364511Y812269D01*
X1353289Y812269D02*
X1353289Y823491D01*
X1364511Y823491D01*
X1364511Y812269D01*
X1364511Y816838D02*
X1353289Y816838D01*
X1353289Y821407D02*
X1364511Y821407D01*
X1378689Y812269D02*
X1389911Y812269D01*
X1378689Y812269D02*
X1378689Y823491D01*
X1389911Y823491D01*
X1389911Y812269D01*
X1389911Y816838D02*
X1378689Y816838D01*
X1378689Y821407D02*
X1389911Y821407D01*
X818411Y935251D02*
X807189Y935251D01*
X818411Y935251D02*
X818411Y924029D01*
X807189Y924029D01*
X807189Y935251D01*
X807189Y928598D02*
X818411Y928598D01*
X818411Y933167D02*
X807189Y933167D01*
X793011Y935251D02*
X781789Y935251D01*
X793011Y935251D02*
X793011Y924029D01*
X781789Y924029D01*
X781789Y935251D01*
X781789Y928598D02*
X793011Y928598D01*
X793011Y933167D02*
X781789Y933167D01*
X271249Y244371D02*
X271249Y233149D01*
X271249Y244371D02*
X282471Y244371D01*
X282471Y233149D01*
X271249Y233149D01*
X271249Y237718D02*
X282471Y237718D01*
X282471Y242287D02*
X271249Y242287D01*
X271249Y218971D02*
X271249Y207749D01*
X271249Y218971D02*
X282471Y218971D01*
X282471Y207749D01*
X271249Y207749D01*
X271249Y212318D02*
X282471Y212318D01*
X282471Y216887D02*
X271249Y216887D01*
X165631Y349989D02*
X165631Y361211D01*
X165631Y349989D02*
X154409Y349989D01*
X154409Y361211D01*
X165631Y361211D01*
X165631Y354558D02*
X154409Y354558D01*
X154409Y359127D02*
X165631Y359127D01*
X165631Y375389D02*
X165631Y386611D01*
X165631Y375389D02*
X154409Y375389D01*
X154409Y386611D01*
X165631Y386611D01*
X165631Y379958D02*
X154409Y379958D01*
X154409Y384527D02*
X165631Y384527D01*
X1061189Y896089D02*
X1072411Y896089D01*
X1061189Y896089D02*
X1061189Y907311D01*
X1072411Y907311D01*
X1072411Y896089D01*
X1072411Y900658D02*
X1061189Y900658D01*
X1061189Y905227D02*
X1072411Y905227D01*
X1086589Y896089D02*
X1097811Y896089D01*
X1086589Y896089D02*
X1086589Y907311D01*
X1097811Y907311D01*
X1097811Y896089D01*
X1097811Y900658D02*
X1086589Y900658D01*
X1086589Y905227D02*
X1097811Y905227D01*
X86891Y742211D02*
X86891Y730989D01*
X75669Y730989D01*
X75669Y742211D01*
X86891Y742211D01*
X86891Y735558D02*
X75669Y735558D01*
X75669Y740127D02*
X86891Y740127D01*
X86891Y756389D02*
X86891Y767611D01*
X86891Y756389D02*
X75669Y756389D01*
X75669Y767611D01*
X86891Y767611D01*
X86891Y760958D02*
X75669Y760958D01*
X75669Y765527D02*
X86891Y765527D01*
D10*
X749300Y508000D03*
X749300Y457200D03*
X1028700Y647700D03*
X1028700Y596900D03*
D11*
X632991Y564411D02*
X632991Y553189D01*
X621769Y553189D01*
X621769Y564411D01*
X632991Y564411D01*
X632991Y557758D02*
X621769Y557758D01*
X621769Y562327D02*
X632991Y562327D01*
X632991Y578589D02*
X632991Y589811D01*
X632991Y578589D02*
X621769Y578589D01*
X621769Y589811D01*
X632991Y589811D01*
X632991Y583158D02*
X621769Y583158D01*
X621769Y587727D02*
X632991Y587727D01*
X1124689Y670029D02*
X1124689Y681251D01*
X1135911Y681251D01*
X1135911Y670029D01*
X1124689Y670029D01*
X1124689Y674598D02*
X1135911Y674598D01*
X1135911Y679167D02*
X1124689Y679167D01*
X1124689Y655851D02*
X1124689Y644629D01*
X1124689Y655851D02*
X1135911Y655851D01*
X1135911Y644629D01*
X1124689Y644629D01*
X1124689Y649198D02*
X1135911Y649198D01*
X1135911Y653767D02*
X1124689Y653767D01*
X940331Y893549D02*
X929109Y893549D01*
X929109Y904771D01*
X940331Y904771D01*
X940331Y893549D01*
X940331Y898118D02*
X929109Y898118D01*
X929109Y902687D02*
X940331Y902687D01*
X954509Y893549D02*
X965731Y893549D01*
X954509Y893549D02*
X954509Y904771D01*
X965731Y904771D01*
X965731Y893549D01*
X965731Y898118D02*
X954509Y898118D01*
X954509Y902687D02*
X965731Y902687D01*
X1124689Y234211D02*
X1135911Y234211D01*
X1135911Y222989D01*
X1124689Y222989D01*
X1124689Y234211D01*
X1124689Y227558D02*
X1135911Y227558D01*
X1135911Y232127D02*
X1124689Y232127D01*
X1110511Y234211D02*
X1099289Y234211D01*
X1110511Y234211D02*
X1110511Y222989D01*
X1099289Y222989D01*
X1099289Y234211D01*
X1099289Y227558D02*
X1110511Y227558D01*
X1110511Y232127D02*
X1099289Y232127D01*
X500911Y485671D02*
X489689Y485671D01*
X500911Y485671D02*
X500911Y474449D01*
X489689Y474449D01*
X489689Y485671D01*
X489689Y479018D02*
X500911Y479018D01*
X500911Y483587D02*
X489689Y483587D01*
X475511Y485671D02*
X464289Y485671D01*
X475511Y485671D02*
X475511Y474449D01*
X464289Y474449D01*
X464289Y485671D01*
X464289Y479018D02*
X475511Y479018D01*
X475511Y483587D02*
X464289Y483587D01*
D12*
X927100Y177800D03*
X927100Y210800D03*
X635000Y152400D03*
X635000Y185400D03*
X609600Y152400D03*
X609600Y185400D03*
X1028700Y850900D03*
X995700Y850900D03*
X1028700Y901700D03*
X995700Y901700D03*
X990600Y762000D03*
X957600Y762000D03*
X1041400Y762000D03*
X1074400Y762000D03*
X1117600Y762000D03*
X1150600Y762000D03*
X876300Y177800D03*
X876300Y210800D03*
X444500Y647700D03*
X477500Y647700D03*
X444500Y723900D03*
X477500Y723900D03*
X444500Y673100D03*
X477500Y673100D03*
X1234440Y574040D03*
X1234440Y541040D03*
X1422400Y635000D03*
X1455400Y635000D03*
X1447800Y723900D03*
X1480800Y723900D03*
X584200Y152400D03*
X584200Y185400D03*
D10*
X304800Y101600D03*
X304800Y76200D03*
X406400Y101600D03*
X406400Y76200D03*
X508000Y101600D03*
X508000Y76200D03*
X609600Y101600D03*
X609600Y76200D03*
X1244600Y317500D03*
X1244600Y292100D03*
X1384300Y317500D03*
X1384300Y292100D03*
X1511300Y317500D03*
X1511300Y292100D03*
D13*
X1346200Y419100D03*
D14*
X1371600Y419100D03*
X1397000Y419100D03*
X1422400Y419100D03*
D15*
X1278382Y63500D02*
X1261618Y63500D01*
X1261618Y88900D02*
X1278382Y88900D01*
X1278382Y114300D02*
X1261618Y114300D01*
D16*
X1094740Y88900D03*
D14*
X1270000Y203200D03*
X1244600Y203200D03*
X1219200Y203200D03*
X1409700Y203200D03*
X1384300Y203200D03*
X1358900Y203200D03*
X1536700Y203200D03*
X1511300Y203200D03*
X1485900Y203200D03*
X1485900Y533400D03*
X1511300Y533400D03*
X1536700Y533400D03*
X1371600Y533400D03*
X1397000Y533400D03*
X1422400Y533400D03*
X1270000Y533400D03*
X1295400Y533400D03*
X1320800Y533400D03*
D11*
X705589Y246911D02*
X705589Y235689D01*
X705589Y246911D02*
X716811Y246911D01*
X716811Y235689D01*
X705589Y235689D01*
X705589Y240258D02*
X716811Y240258D01*
X716811Y244827D02*
X705589Y244827D01*
X705589Y222911D02*
X705589Y211689D01*
X705589Y222911D02*
X716811Y222911D01*
X716811Y211689D01*
X705589Y211689D01*
X705589Y216258D02*
X716811Y216258D01*
X716811Y220827D02*
X705589Y220827D01*
X934189Y475511D02*
X945411Y475511D01*
X945411Y464289D01*
X934189Y464289D01*
X934189Y475511D01*
X934189Y468858D02*
X945411Y468858D01*
X945411Y473427D02*
X934189Y473427D01*
X921411Y475511D02*
X910189Y475511D01*
X921411Y475511D02*
X921411Y464289D01*
X910189Y464289D01*
X910189Y475511D01*
X910189Y468858D02*
X921411Y468858D01*
X921411Y473427D02*
X910189Y473427D01*
X907311Y412011D02*
X907311Y400789D01*
X896089Y400789D01*
X896089Y412011D01*
X907311Y412011D01*
X907311Y405358D02*
X896089Y405358D01*
X896089Y409927D02*
X907311Y409927D01*
X907311Y424789D02*
X907311Y436011D01*
X907311Y424789D02*
X896089Y424789D01*
X896089Y436011D01*
X907311Y436011D01*
X907311Y429358D02*
X896089Y429358D01*
X896089Y433927D02*
X907311Y433927D01*
X1174011Y502389D02*
X1174011Y513611D01*
X1174011Y502389D02*
X1162789Y502389D01*
X1162789Y513611D01*
X1174011Y513611D01*
X1174011Y506958D02*
X1162789Y506958D01*
X1162789Y511527D02*
X1174011Y511527D01*
X1174011Y526389D02*
X1174011Y537611D01*
X1174011Y526389D02*
X1162789Y526389D01*
X1162789Y537611D01*
X1174011Y537611D01*
X1174011Y530958D02*
X1162789Y530958D01*
X1162789Y535527D02*
X1174011Y535527D01*
X881911Y475511D02*
X870689Y475511D01*
X881911Y475511D02*
X881911Y464289D01*
X870689Y464289D01*
X870689Y475511D01*
X870689Y468858D02*
X881911Y468858D01*
X881911Y473427D02*
X870689Y473427D01*
X857911Y475511D02*
X846689Y475511D01*
X857911Y475511D02*
X857911Y464289D01*
X846689Y464289D01*
X846689Y475511D01*
X846689Y468858D02*
X857911Y468858D01*
X857911Y473427D02*
X846689Y473427D01*
X832589Y555729D02*
X832589Y566951D01*
X843811Y566951D01*
X843811Y555729D01*
X832589Y555729D01*
X832589Y560298D02*
X843811Y560298D01*
X843811Y564867D02*
X832589Y564867D01*
X832589Y542951D02*
X832589Y531729D01*
X832589Y542951D02*
X843811Y542951D01*
X843811Y531729D01*
X832589Y531729D01*
X832589Y536298D02*
X843811Y536298D01*
X843811Y540867D02*
X832589Y540867D01*
X908789Y615211D02*
X920011Y615211D01*
X920011Y603989D01*
X908789Y603989D01*
X908789Y615211D01*
X908789Y608558D02*
X920011Y608558D01*
X920011Y613127D02*
X908789Y613127D01*
X896011Y615211D02*
X884789Y615211D01*
X896011Y615211D02*
X896011Y603989D01*
X884789Y603989D01*
X884789Y615211D01*
X884789Y608558D02*
X896011Y608558D01*
X896011Y613127D02*
X884789Y613127D01*
X908789Y640611D02*
X920011Y640611D01*
X920011Y629389D01*
X908789Y629389D01*
X908789Y640611D01*
X908789Y633958D02*
X920011Y633958D01*
X920011Y638527D02*
X908789Y638527D01*
X896011Y640611D02*
X884789Y640611D01*
X896011Y640611D02*
X896011Y629389D01*
X884789Y629389D01*
X884789Y640611D01*
X884789Y633958D02*
X896011Y633958D01*
X896011Y638527D02*
X884789Y638527D01*
X159489Y196111D02*
X159489Y184889D01*
X159489Y196111D02*
X170711Y196111D01*
X170711Y184889D01*
X159489Y184889D01*
X159489Y189458D02*
X170711Y189458D01*
X170711Y194027D02*
X159489Y194027D01*
X159489Y172111D02*
X159489Y160889D01*
X159489Y172111D02*
X170711Y172111D01*
X170711Y160889D01*
X159489Y160889D01*
X159489Y165458D02*
X170711Y165458D01*
X170711Y170027D02*
X159489Y170027D01*
X579651Y81811D02*
X579651Y70589D01*
X568429Y70589D01*
X568429Y81811D01*
X579651Y81811D01*
X579651Y75158D02*
X568429Y75158D01*
X568429Y79727D02*
X579651Y79727D01*
X579651Y94589D02*
X579651Y105811D01*
X579651Y94589D02*
X568429Y94589D01*
X568429Y105811D01*
X579651Y105811D01*
X579651Y99158D02*
X568429Y99158D01*
X568429Y103727D02*
X579651Y103727D01*
X362689Y426189D02*
X362689Y437411D01*
X373911Y437411D01*
X373911Y426189D01*
X362689Y426189D01*
X362689Y430758D02*
X373911Y430758D01*
X373911Y435327D02*
X362689Y435327D01*
X362689Y413411D02*
X362689Y402189D01*
X362689Y413411D02*
X373911Y413411D01*
X373911Y402189D01*
X362689Y402189D01*
X362689Y406758D02*
X373911Y406758D01*
X373911Y411327D02*
X362689Y411327D01*
X997689Y57889D02*
X1008911Y57889D01*
X997689Y57889D02*
X997689Y69111D01*
X1008911Y69111D01*
X1008911Y57889D01*
X1008911Y62458D02*
X997689Y62458D01*
X997689Y67027D02*
X1008911Y67027D01*
X1021689Y57889D02*
X1032911Y57889D01*
X1021689Y57889D02*
X1021689Y69111D01*
X1032911Y69111D01*
X1032911Y57889D01*
X1032911Y62458D02*
X1021689Y62458D01*
X1021689Y67027D02*
X1032911Y67027D01*
X464289Y426189D02*
X464289Y437411D01*
X475511Y437411D01*
X475511Y426189D01*
X464289Y426189D01*
X464289Y430758D02*
X475511Y430758D01*
X475511Y435327D02*
X464289Y435327D01*
X464289Y413411D02*
X464289Y402189D01*
X464289Y413411D02*
X475511Y413411D01*
X475511Y402189D01*
X464289Y402189D01*
X464289Y406758D02*
X475511Y406758D01*
X475511Y411327D02*
X464289Y411327D01*
X261089Y413489D02*
X261089Y424711D01*
X272311Y424711D01*
X272311Y413489D01*
X261089Y413489D01*
X261089Y418058D02*
X272311Y418058D01*
X272311Y422627D02*
X261089Y422627D01*
X261089Y400711D02*
X261089Y389489D01*
X261089Y400711D02*
X272311Y400711D01*
X272311Y389489D01*
X261089Y389489D01*
X261089Y394058D02*
X272311Y394058D01*
X272311Y398627D02*
X261089Y398627D01*
X1162789Y197589D02*
X1174011Y197589D01*
X1162789Y197589D02*
X1162789Y208811D01*
X1174011Y208811D01*
X1174011Y197589D01*
X1174011Y202158D02*
X1162789Y202158D01*
X1162789Y206727D02*
X1174011Y206727D01*
X1186789Y197589D02*
X1198011Y197589D01*
X1186789Y197589D02*
X1186789Y208811D01*
X1198011Y208811D01*
X1198011Y197589D01*
X1198011Y202158D02*
X1186789Y202158D01*
X1186789Y206727D02*
X1198011Y206727D01*
X1238989Y261089D02*
X1238989Y272311D01*
X1250211Y272311D01*
X1250211Y261089D01*
X1238989Y261089D01*
X1238989Y265658D02*
X1250211Y265658D01*
X1250211Y270227D02*
X1238989Y270227D01*
X1238989Y248311D02*
X1238989Y237089D01*
X1238989Y248311D02*
X1250211Y248311D01*
X1250211Y237089D01*
X1238989Y237089D01*
X1238989Y241658D02*
X1250211Y241658D01*
X1250211Y246227D02*
X1238989Y246227D01*
X1364511Y145311D02*
X1364511Y134089D01*
X1353289Y134089D01*
X1353289Y145311D01*
X1364511Y145311D01*
X1364511Y138658D02*
X1353289Y138658D01*
X1353289Y143227D02*
X1364511Y143227D01*
X1364511Y158089D02*
X1364511Y169311D01*
X1364511Y158089D02*
X1353289Y158089D01*
X1353289Y169311D01*
X1364511Y169311D01*
X1364511Y162658D02*
X1353289Y162658D01*
X1353289Y167227D02*
X1364511Y167227D01*
X1378689Y261089D02*
X1378689Y272311D01*
X1389911Y272311D01*
X1389911Y261089D01*
X1378689Y261089D01*
X1378689Y265658D02*
X1389911Y265658D01*
X1389911Y270227D02*
X1378689Y270227D01*
X1378689Y248311D02*
X1378689Y237089D01*
X1378689Y248311D02*
X1389911Y248311D01*
X1389911Y237089D01*
X1378689Y237089D01*
X1378689Y241658D02*
X1389911Y241658D01*
X1389911Y246227D02*
X1378689Y246227D01*
X1491511Y158011D02*
X1491511Y146789D01*
X1480289Y146789D01*
X1480289Y158011D01*
X1491511Y158011D01*
X1491511Y151358D02*
X1480289Y151358D01*
X1480289Y155927D02*
X1491511Y155927D01*
X1491511Y170789D02*
X1491511Y182011D01*
X1491511Y170789D02*
X1480289Y170789D01*
X1480289Y182011D01*
X1491511Y182011D01*
X1491511Y175358D02*
X1480289Y175358D01*
X1480289Y179927D02*
X1491511Y179927D01*
X1505689Y261089D02*
X1505689Y272311D01*
X1516911Y272311D01*
X1516911Y261089D01*
X1505689Y261089D01*
X1505689Y265658D02*
X1516911Y265658D01*
X1516911Y270227D02*
X1505689Y270227D01*
X1505689Y248311D02*
X1505689Y237089D01*
X1505689Y248311D02*
X1516911Y248311D01*
X1516911Y237089D01*
X1505689Y237089D01*
X1505689Y241658D02*
X1516911Y241658D01*
X1516911Y246227D02*
X1505689Y246227D01*
X1428011Y451589D02*
X1428011Y462811D01*
X1428011Y451589D02*
X1416789Y451589D01*
X1416789Y462811D01*
X1428011Y462811D01*
X1428011Y456158D02*
X1416789Y456158D01*
X1416789Y460727D02*
X1428011Y460727D01*
X1428011Y475589D02*
X1428011Y486811D01*
X1428011Y475589D02*
X1416789Y475589D01*
X1416789Y486811D01*
X1428011Y486811D01*
X1428011Y480158D02*
X1416789Y480158D01*
X1416789Y484727D02*
X1428011Y484727D01*
X1402611Y462811D02*
X1402611Y451589D01*
X1391389Y451589D01*
X1391389Y462811D01*
X1402611Y462811D01*
X1402611Y456158D02*
X1391389Y456158D01*
X1391389Y460727D02*
X1402611Y460727D01*
X1402611Y475589D02*
X1402611Y486811D01*
X1402611Y475589D02*
X1391389Y475589D01*
X1391389Y486811D01*
X1402611Y486811D01*
X1402611Y480158D02*
X1391389Y480158D01*
X1391389Y484727D02*
X1402611Y484727D01*
X1174011Y412011D02*
X1174011Y400789D01*
X1162789Y400789D01*
X1162789Y412011D01*
X1174011Y412011D01*
X1174011Y405358D02*
X1162789Y405358D01*
X1162789Y409927D02*
X1174011Y409927D01*
X1174011Y424789D02*
X1174011Y436011D01*
X1174011Y424789D02*
X1162789Y424789D01*
X1162789Y436011D01*
X1174011Y436011D01*
X1174011Y429358D02*
X1162789Y429358D01*
X1162789Y433927D02*
X1174011Y433927D01*
X1351811Y451589D02*
X1351811Y462811D01*
X1351811Y451589D02*
X1340589Y451589D01*
X1340589Y462811D01*
X1351811Y462811D01*
X1351811Y456158D02*
X1340589Y456158D01*
X1340589Y460727D02*
X1351811Y460727D01*
X1351811Y475589D02*
X1351811Y486811D01*
X1351811Y475589D02*
X1340589Y475589D01*
X1340589Y486811D01*
X1351811Y486811D01*
X1351811Y480158D02*
X1340589Y480158D01*
X1340589Y484727D02*
X1351811Y484727D01*
X1531089Y591289D02*
X1531089Y602511D01*
X1542311Y602511D01*
X1542311Y591289D01*
X1531089Y591289D01*
X1531089Y595858D02*
X1542311Y595858D01*
X1542311Y600427D02*
X1531089Y600427D01*
X1531089Y578511D02*
X1531089Y567289D01*
X1531089Y578511D02*
X1542311Y578511D01*
X1542311Y567289D01*
X1531089Y567289D01*
X1531089Y571858D02*
X1542311Y571858D01*
X1542311Y576427D02*
X1531089Y576427D01*
X1416789Y591289D02*
X1416789Y602511D01*
X1428011Y602511D01*
X1428011Y591289D01*
X1416789Y591289D01*
X1416789Y595858D02*
X1428011Y595858D01*
X1428011Y600427D02*
X1416789Y600427D01*
X1416789Y578511D02*
X1416789Y567289D01*
X1416789Y578511D02*
X1428011Y578511D01*
X1428011Y567289D01*
X1416789Y567289D01*
X1416789Y571858D02*
X1428011Y571858D01*
X1428011Y576427D02*
X1416789Y576427D01*
X1315189Y591289D02*
X1315189Y602511D01*
X1326411Y602511D01*
X1326411Y591289D01*
X1315189Y591289D01*
X1315189Y595858D02*
X1326411Y595858D01*
X1326411Y600427D02*
X1315189Y600427D01*
X1315189Y578511D02*
X1315189Y567289D01*
X1315189Y578511D02*
X1326411Y578511D01*
X1326411Y567289D01*
X1315189Y567289D01*
X1315189Y571858D02*
X1326411Y571858D01*
X1326411Y576427D02*
X1315189Y576427D01*
X119911Y578589D02*
X119911Y589811D01*
X119911Y578589D02*
X108689Y578589D01*
X108689Y589811D01*
X119911Y589811D01*
X119911Y583158D02*
X108689Y583158D01*
X108689Y587727D02*
X119911Y587727D01*
X119911Y602589D02*
X119911Y613811D01*
X119911Y602589D02*
X108689Y602589D01*
X108689Y613811D01*
X119911Y613811D01*
X119911Y607158D02*
X108689Y607158D01*
X108689Y611727D02*
X119911Y611727D01*
X145311Y589811D02*
X145311Y578589D01*
X134089Y578589D01*
X134089Y589811D01*
X145311Y589811D01*
X145311Y583158D02*
X134089Y583158D01*
X134089Y587727D02*
X145311Y587727D01*
X145311Y602589D02*
X145311Y613811D01*
X145311Y602589D02*
X134089Y602589D01*
X134089Y613811D01*
X145311Y613811D01*
X145311Y607158D02*
X134089Y607158D01*
X134089Y611727D02*
X145311Y611727D01*
X134089Y781789D02*
X134089Y793011D01*
X145311Y793011D01*
X145311Y781789D01*
X134089Y781789D01*
X134089Y786358D02*
X145311Y786358D01*
X145311Y790927D02*
X134089Y790927D01*
X134089Y769011D02*
X134089Y757789D01*
X134089Y769011D02*
X145311Y769011D01*
X145311Y757789D01*
X134089Y757789D01*
X134089Y762358D02*
X145311Y762358D01*
X145311Y766927D02*
X134089Y766927D01*
X159489Y781789D02*
X159489Y793011D01*
X170711Y793011D01*
X170711Y781789D01*
X159489Y781789D01*
X159489Y786358D02*
X170711Y786358D01*
X170711Y790927D02*
X159489Y790927D01*
X159489Y769011D02*
X159489Y757789D01*
X159489Y769011D02*
X170711Y769011D01*
X170711Y757789D01*
X159489Y757789D01*
X159489Y762358D02*
X170711Y762358D01*
X170711Y766927D02*
X159489Y766927D01*
X1061189Y921489D02*
X1072411Y921489D01*
X1061189Y921489D02*
X1061189Y932711D01*
X1072411Y932711D01*
X1072411Y921489D01*
X1072411Y926058D02*
X1061189Y926058D01*
X1061189Y930627D02*
X1072411Y930627D01*
X1085189Y921489D02*
X1096411Y921489D01*
X1085189Y921489D02*
X1085189Y932711D01*
X1096411Y932711D01*
X1096411Y921489D01*
X1096411Y926058D02*
X1085189Y926058D01*
X1085189Y930627D02*
X1096411Y930627D01*
X551711Y894611D02*
X551711Y883389D01*
X540489Y883389D01*
X540489Y894611D01*
X551711Y894611D01*
X551711Y887958D02*
X540489Y887958D01*
X540489Y892527D02*
X551711Y892527D01*
X551711Y907389D02*
X551711Y918611D01*
X551711Y907389D02*
X540489Y907389D01*
X540489Y918611D01*
X551711Y918611D01*
X551711Y911958D02*
X540489Y911958D01*
X540489Y916527D02*
X551711Y916527D01*
X1137389Y475511D02*
X1148611Y475511D01*
X1148611Y464289D01*
X1137389Y464289D01*
X1137389Y475511D01*
X1137389Y468858D02*
X1148611Y468858D01*
X1148611Y473427D02*
X1137389Y473427D01*
X1124611Y475511D02*
X1113389Y475511D01*
X1124611Y475511D02*
X1124611Y464289D01*
X1113389Y464289D01*
X1113389Y475511D01*
X1113389Y468858D02*
X1124611Y468858D01*
X1124611Y473427D02*
X1113389Y473427D01*
X526311Y920011D02*
X515089Y920011D01*
X526311Y920011D02*
X526311Y908789D01*
X515089Y908789D01*
X515089Y920011D01*
X515089Y913358D02*
X526311Y913358D01*
X526311Y917927D02*
X515089Y917927D01*
X502311Y920011D02*
X491089Y920011D01*
X502311Y920011D02*
X502311Y908789D01*
X491089Y908789D01*
X491089Y920011D01*
X491089Y913358D02*
X502311Y913358D01*
X502311Y917927D02*
X491089Y917927D01*
X475511Y894611D02*
X475511Y883389D01*
X464289Y883389D01*
X464289Y894611D01*
X475511Y894611D01*
X475511Y887958D02*
X464289Y887958D01*
X464289Y892527D02*
X475511Y892527D01*
X475511Y907389D02*
X475511Y918611D01*
X475511Y907389D02*
X464289Y907389D01*
X464289Y918611D01*
X475511Y918611D01*
X475511Y911958D02*
X464289Y911958D01*
X464289Y916527D02*
X475511Y916527D01*
X450111Y920011D02*
X438889Y920011D01*
X450111Y920011D02*
X450111Y908789D01*
X438889Y908789D01*
X438889Y920011D01*
X438889Y913358D02*
X450111Y913358D01*
X450111Y917927D02*
X438889Y917927D01*
X426111Y920011D02*
X414889Y920011D01*
X426111Y920011D02*
X426111Y908789D01*
X414889Y908789D01*
X414889Y920011D01*
X414889Y913358D02*
X426111Y913358D01*
X426111Y917927D02*
X414889Y917927D01*
X399311Y894611D02*
X399311Y883389D01*
X388089Y883389D01*
X388089Y894611D01*
X399311Y894611D01*
X399311Y887958D02*
X388089Y887958D01*
X388089Y892527D02*
X399311Y892527D01*
X399311Y907389D02*
X399311Y918611D01*
X399311Y907389D02*
X388089Y907389D01*
X388089Y918611D01*
X399311Y918611D01*
X399311Y911958D02*
X388089Y911958D01*
X388089Y916527D02*
X399311Y916527D01*
X373911Y920011D02*
X362689Y920011D01*
X373911Y920011D02*
X373911Y908789D01*
X362689Y908789D01*
X362689Y920011D01*
X362689Y913358D02*
X373911Y913358D01*
X373911Y917927D02*
X362689Y917927D01*
X349911Y920011D02*
X338689Y920011D01*
X349911Y920011D02*
X349911Y908789D01*
X338689Y908789D01*
X338689Y920011D01*
X338689Y913358D02*
X349911Y913358D01*
X349911Y917927D02*
X338689Y917927D01*
X323111Y894611D02*
X323111Y883389D01*
X311889Y883389D01*
X311889Y894611D01*
X323111Y894611D01*
X323111Y887958D02*
X311889Y887958D01*
X311889Y892527D02*
X323111Y892527D01*
X323111Y907389D02*
X323111Y918611D01*
X323111Y907389D02*
X311889Y907389D01*
X311889Y918611D01*
X323111Y918611D01*
X323111Y911958D02*
X311889Y911958D01*
X311889Y916527D02*
X323111Y916527D01*
X565889Y908789D02*
X577111Y908789D01*
X565889Y908789D02*
X565889Y920011D01*
X577111Y920011D01*
X577111Y908789D01*
X577111Y913358D02*
X565889Y913358D01*
X565889Y917927D02*
X577111Y917927D01*
X589889Y908789D02*
X601111Y908789D01*
X589889Y908789D02*
X589889Y920011D01*
X601111Y920011D01*
X601111Y908789D01*
X601111Y913358D02*
X589889Y913358D01*
X589889Y917927D02*
X601111Y917927D01*
X145311Y705589D02*
X134089Y705589D01*
X134089Y716811D01*
X145311Y716811D01*
X145311Y705589D01*
X145311Y710158D02*
X134089Y710158D01*
X134089Y714727D02*
X145311Y714727D01*
X158089Y705589D02*
X169311Y705589D01*
X158089Y705589D02*
X158089Y716811D01*
X169311Y716811D01*
X169311Y705589D01*
X169311Y710158D02*
X158089Y710158D01*
X158089Y714727D02*
X169311Y714727D01*
X451589Y207749D02*
X462811Y207749D01*
X451589Y207749D02*
X451589Y218971D01*
X462811Y218971D01*
X462811Y207749D01*
X462811Y212318D02*
X451589Y212318D01*
X451589Y216887D02*
X462811Y216887D01*
X475589Y207749D02*
X486811Y207749D01*
X475589Y207749D02*
X475589Y218971D01*
X486811Y218971D01*
X486811Y207749D01*
X486811Y212318D02*
X475589Y212318D01*
X475589Y216887D02*
X486811Y216887D01*
X1097811Y400789D02*
X1097811Y412011D01*
X1097811Y400789D02*
X1086589Y400789D01*
X1086589Y412011D01*
X1097811Y412011D01*
X1097811Y405358D02*
X1086589Y405358D01*
X1086589Y409927D02*
X1097811Y409927D01*
X1097811Y424789D02*
X1097811Y436011D01*
X1097811Y424789D02*
X1086589Y424789D01*
X1086589Y436011D01*
X1097811Y436011D01*
X1097811Y429358D02*
X1086589Y429358D01*
X1086589Y433927D02*
X1097811Y433927D01*
X1072411Y475511D02*
X1061189Y475511D01*
X1072411Y475511D02*
X1072411Y464289D01*
X1061189Y464289D01*
X1061189Y475511D01*
X1061189Y468858D02*
X1072411Y468858D01*
X1072411Y473427D02*
X1061189Y473427D01*
X1048411Y475511D02*
X1037189Y475511D01*
X1048411Y475511D02*
X1048411Y464289D01*
X1037189Y464289D01*
X1037189Y475511D01*
X1037189Y468858D02*
X1048411Y468858D01*
X1048411Y473427D02*
X1037189Y473427D01*
X1021611Y412011D02*
X1021611Y400789D01*
X1010389Y400789D01*
X1010389Y412011D01*
X1021611Y412011D01*
X1021611Y405358D02*
X1010389Y405358D01*
X1010389Y409927D02*
X1021611Y409927D01*
X1021611Y424789D02*
X1021611Y436011D01*
X1021611Y424789D02*
X1010389Y424789D01*
X1010389Y436011D01*
X1021611Y436011D01*
X1021611Y429358D02*
X1010389Y429358D01*
X1010389Y433927D02*
X1021611Y433927D01*
X1008911Y475511D02*
X997689Y475511D01*
X1008911Y475511D02*
X1008911Y464289D01*
X997689Y464289D01*
X997689Y475511D01*
X997689Y468858D02*
X1008911Y468858D01*
X1008911Y473427D02*
X997689Y473427D01*
X984911Y475511D02*
X973689Y475511D01*
X984911Y475511D02*
X984911Y464289D01*
X973689Y464289D01*
X973689Y475511D01*
X973689Y468858D02*
X984911Y468858D01*
X984911Y473427D02*
X973689Y473427D01*
X970811Y412011D02*
X970811Y400789D01*
X959589Y400789D01*
X959589Y412011D01*
X970811Y412011D01*
X970811Y405358D02*
X959589Y405358D01*
X959589Y409927D02*
X970811Y409927D01*
X970811Y424789D02*
X970811Y436011D01*
X970811Y424789D02*
X959589Y424789D01*
X959589Y436011D01*
X970811Y436011D01*
X970811Y429358D02*
X959589Y429358D01*
X959589Y433927D02*
X970811Y433927D01*
D10*
X165100Y114300D03*
X215900Y114300D03*
X215900Y50800D03*
X165100Y50800D03*
D17*
X749300Y165100D03*
D18*
X774700Y165100D03*
X800100Y165100D03*
X825500Y165100D03*
X825500Y241300D03*
X800100Y241300D03*
X774700Y241300D03*
X749300Y241300D03*
D17*
X114300Y660400D03*
D18*
X139700Y660400D03*
X165100Y660400D03*
X190500Y660400D03*
X215900Y660400D03*
X241300Y660400D03*
X266700Y660400D03*
X266700Y736600D03*
X241300Y736600D03*
X215900Y736600D03*
X190500Y736600D03*
X165100Y736600D03*
X139700Y736600D03*
X114300Y736600D03*
D17*
X1320800Y787400D03*
D18*
X1346200Y787400D03*
X1371600Y787400D03*
X1397000Y787400D03*
X1422400Y787400D03*
X1447800Y787400D03*
X1473200Y787400D03*
X1498600Y787400D03*
X1498600Y863600D03*
X1473200Y863600D03*
X1447800Y863600D03*
X1422400Y863600D03*
X1397000Y863600D03*
X1371600Y863600D03*
X1346200Y863600D03*
X1320800Y863600D03*
D17*
X965200Y800100D03*
D18*
X990600Y800100D03*
X1016000Y800100D03*
X1041400Y800100D03*
X1066800Y800100D03*
X1092200Y800100D03*
X1117600Y800100D03*
X1143000Y800100D03*
X1143000Y876300D03*
X1117600Y876300D03*
X1092200Y876300D03*
X1066800Y876300D03*
X1041400Y876300D03*
X1016000Y876300D03*
X990600Y876300D03*
X965200Y876300D03*
D17*
X660400Y805180D03*
D18*
X685800Y805180D03*
X711200Y805180D03*
X736600Y805180D03*
X762000Y805180D03*
X787400Y805180D03*
X812800Y805180D03*
X838200Y805180D03*
X838200Y881380D03*
X812800Y881380D03*
X787400Y881380D03*
X762000Y881380D03*
X736600Y881380D03*
X711200Y881380D03*
X685800Y881380D03*
X660400Y881380D03*
D17*
X342900Y787400D03*
D18*
X368300Y787400D03*
X393700Y787400D03*
X419100Y787400D03*
X444500Y787400D03*
X469900Y787400D03*
X495300Y787400D03*
X520700Y787400D03*
X520700Y863600D03*
X495300Y863600D03*
X469900Y863600D03*
X444500Y863600D03*
X419100Y863600D03*
X393700Y863600D03*
X368300Y863600D03*
X342900Y863600D03*
D17*
X1130300Y622300D03*
D18*
X1155700Y622300D03*
X1181100Y622300D03*
X1206500Y622300D03*
X1231900Y622300D03*
X1257300Y622300D03*
X1282700Y622300D03*
X1282700Y698500D03*
X1257300Y698500D03*
X1231900Y698500D03*
X1206500Y698500D03*
X1181100Y698500D03*
X1155700Y698500D03*
X1130300Y698500D03*
D17*
X1346200Y673100D03*
D18*
X1371600Y673100D03*
X1397000Y673100D03*
X1422400Y673100D03*
X1447800Y673100D03*
X1473200Y673100D03*
X1498600Y673100D03*
X1498600Y749300D03*
X1473200Y749300D03*
X1447800Y749300D03*
X1422400Y749300D03*
X1397000Y749300D03*
X1371600Y749300D03*
X1346200Y749300D03*
D17*
X774700Y393700D03*
D18*
X749300Y393700D03*
X723900Y393700D03*
X698500Y393700D03*
X673100Y393700D03*
X647700Y393700D03*
X622300Y393700D03*
X596900Y393700D03*
X596900Y317500D03*
X622300Y317500D03*
X647700Y317500D03*
X673100Y317500D03*
X698500Y317500D03*
X723900Y317500D03*
X749300Y317500D03*
X774700Y317500D03*
D17*
X1130300Y355600D03*
D18*
X1104900Y355600D03*
X1079500Y355600D03*
X1054100Y355600D03*
X1028700Y355600D03*
X1003300Y355600D03*
X977900Y355600D03*
X977900Y279400D03*
X1003300Y279400D03*
X1028700Y279400D03*
X1054100Y279400D03*
X1079500Y279400D03*
X1104900Y279400D03*
X1130300Y279400D03*
D17*
X673100Y558800D03*
D18*
X673100Y584200D03*
X673100Y609600D03*
X673100Y635000D03*
X673100Y660400D03*
X673100Y685800D03*
X673100Y711200D03*
X596900Y711200D03*
X596900Y685800D03*
X596900Y660400D03*
X596900Y635000D03*
X596900Y609600D03*
X596900Y584200D03*
X596900Y558800D03*
D17*
X812800Y584200D03*
D18*
X838200Y584200D03*
X863600Y584200D03*
X889000Y584200D03*
X914400Y584200D03*
X939800Y584200D03*
X965200Y584200D03*
X965200Y660400D03*
X939800Y660400D03*
X914400Y660400D03*
X889000Y660400D03*
X863600Y660400D03*
X838200Y660400D03*
X812800Y660400D03*
D17*
X495300Y698500D03*
D18*
X469900Y698500D03*
X444500Y698500D03*
X419100Y698500D03*
X393700Y698500D03*
X368300Y698500D03*
X342900Y698500D03*
X342900Y622300D03*
X368300Y622300D03*
X393700Y622300D03*
X419100Y622300D03*
X444500Y622300D03*
X469900Y622300D03*
X495300Y622300D03*
D17*
X330200Y177800D03*
D18*
X355600Y177800D03*
X381000Y177800D03*
X406400Y177800D03*
X431800Y177800D03*
X457200Y177800D03*
X482600Y177800D03*
X508000Y177800D03*
X508000Y254000D03*
X482600Y254000D03*
X457200Y254000D03*
X431800Y254000D03*
X406400Y254000D03*
X381000Y254000D03*
X355600Y254000D03*
X330200Y254000D03*
D17*
X495300Y533400D03*
D18*
X469900Y533400D03*
X444500Y533400D03*
X419100Y533400D03*
X393700Y533400D03*
X368300Y533400D03*
X342900Y533400D03*
X342900Y457200D03*
X368300Y457200D03*
X393700Y457200D03*
X419100Y457200D03*
X444500Y457200D03*
X469900Y457200D03*
X495300Y457200D03*
D17*
X203200Y355600D03*
D18*
X203200Y381000D03*
X203200Y406400D03*
X203200Y431800D03*
X203200Y457200D03*
X203200Y482600D03*
X203200Y508000D03*
X127000Y508000D03*
X127000Y482600D03*
X127000Y457200D03*
X127000Y431800D03*
X127000Y406400D03*
X127000Y381000D03*
X127000Y355600D03*
D19*
X750619Y50763D03*
X800619Y50763D03*
X850619Y50763D03*
D11*
X424711Y761469D02*
X413489Y761469D01*
X413489Y772691D01*
X424711Y772691D01*
X424711Y761469D01*
X424711Y766038D02*
X413489Y766038D01*
X413489Y770607D02*
X424711Y770607D01*
X438889Y761469D02*
X450111Y761469D01*
X438889Y761469D02*
X438889Y772691D01*
X450111Y772691D01*
X450111Y761469D01*
X450111Y766038D02*
X438889Y766038D01*
X438889Y770607D02*
X450111Y770607D01*
D10*
X63500Y292100D03*
X63500Y241300D03*
D18*
X180340Y299720D03*
X180340Y238760D03*
X523240Y528320D03*
X596900Y528320D03*
X599440Y840740D03*
X533400Y840740D03*
X711200Y904240D03*
X812800Y904240D03*
X1282700Y281940D03*
X1353820Y281940D03*
X1427480Y317500D03*
X1478280Y317500D03*
X1452880Y402970D03*
X1452880Y355600D03*
X708660Y121920D03*
X825500Y121920D03*
X990600Y129540D03*
X883920Y129540D03*
X1043940Y148210D03*
X1043940Y198120D03*
X627380Y491870D03*
X627380Y528320D03*
X883920Y876300D03*
X934720Y876300D03*
X1206500Y723900D03*
X1328420Y723900D03*
X241300Y759460D03*
X314960Y759460D03*
X172720Y627380D03*
X172720Y576580D03*
X838200Y307340D03*
X838200Y353060D03*
X695960Y558800D03*
X889000Y558800D03*
D20*
X378460Y665798D03*
D18*
X800100Y139700D03*
X665480Y139700D03*
X787400Y528320D03*
X695960Y528320D03*
X1049020Y406400D03*
X927100Y406400D03*
X965200Y330200D03*
X904240Y330200D03*
X741680Y751840D03*
X741680Y670560D03*
X543560Y632460D03*
X543560Y746760D03*
X914400Y690880D03*
X914400Y734060D03*
X1201420Y586740D03*
X1455420Y586740D03*
X563880Y645160D03*
X563880Y746760D03*
X1188720Y767080D03*
X1551940Y767080D03*
X436880Y101600D03*
X436880Y18160D03*
X1450340Y934720D03*
X1318260Y934720D03*
X548640Y101600D03*
X548640Y25400D03*
X1493520Y914400D03*
X1282700Y911860D03*
X302260Y459740D03*
X302260Y558800D03*
X424180Y419100D03*
X228600Y419100D03*
X1003300Y381000D03*
X901700Y381000D03*
X518160Y480060D03*
X708660Y480060D03*
X1297940Y340360D03*
X1163320Y340360D03*
X901700Y261620D03*
X553720Y261620D03*
X1521460Y619760D03*
X1522350Y739140D03*
X508000Y276860D03*
X508000Y330200D03*
X916940Y78740D03*
X652780Y78740D03*
X279400Y68580D03*
X279400Y322580D03*
X645160Y949960D03*
X645160Y825500D03*
X1371600Y645160D03*
X1490980Y645160D03*
X624840Y843280D03*
X624840Y952500D03*
X271780Y835660D03*
X317500Y835660D03*
X604520Y891540D03*
X368300Y891540D03*
D21*
X50000Y950000D03*
X1550000Y950000D03*
X1550000Y50000D03*
X50000Y50000D03*
M02*
