G04 EAGLE Gerber RS-274X export*
G75*
%MOMM*%
%FSLAX34Y34*%
%LPD*%
%INSoldermask Bottom*%
%IPPOS*%
%AMOC8*
5,1,8,0,0,1.08239X$1,22.5*%
G01*
%ADD10C,1.803200*%
%ADD11C,0.480959*%
%ADD12R,1.703200X1.703200*%
%ADD13C,1.879600*%
%ADD14C,3.505200*%
%ADD15R,0.838200X2.703200*%
%ADD16R,1.803200X1.803200*%
%ADD17C,0.640219*%
%ADD18C,2.387600*%
%ADD19C,2.203200*%
%ADD20C,0.959600*%
%ADD21C,5.703200*%


D10*
X876300Y363220D03*
X876300Y337820D03*
D11*
X332209Y705589D02*
X332209Y716811D01*
X343431Y716811D01*
X343431Y705589D01*
X332209Y705589D01*
X332209Y710158D02*
X343431Y710158D01*
X343431Y714727D02*
X332209Y714727D01*
X332209Y696621D02*
X332209Y685399D01*
X332209Y696621D02*
X343431Y696621D01*
X343431Y685399D01*
X332209Y685399D01*
X332209Y689968D02*
X343431Y689968D01*
X343431Y694537D02*
X332209Y694537D01*
D10*
X518160Y795020D03*
X543560Y795020D03*
X421640Y469900D03*
X447040Y469900D03*
X515620Y474980D03*
X541020Y474980D03*
D11*
X909851Y616689D02*
X909851Y627911D01*
X909851Y616689D02*
X898629Y616689D01*
X898629Y627911D01*
X909851Y627911D01*
X909851Y621258D02*
X898629Y621258D01*
X898629Y625827D02*
X909851Y625827D01*
X909851Y636879D02*
X909851Y648101D01*
X909851Y636879D02*
X898629Y636879D01*
X898629Y648101D01*
X909851Y648101D01*
X909851Y641448D02*
X898629Y641448D01*
X898629Y646017D02*
X909851Y646017D01*
X1246609Y685269D02*
X1246609Y696491D01*
X1257831Y696491D01*
X1257831Y685269D01*
X1246609Y685269D01*
X1246609Y689838D02*
X1257831Y689838D01*
X1257831Y694407D02*
X1246609Y694407D01*
X1246609Y676301D02*
X1246609Y665079D01*
X1246609Y676301D02*
X1257831Y676301D01*
X1257831Y665079D01*
X1246609Y665079D01*
X1246609Y669648D02*
X1257831Y669648D01*
X1257831Y674217D02*
X1246609Y674217D01*
D10*
X152400Y612140D03*
X127000Y612140D03*
X279400Y622300D03*
X304800Y622300D03*
D11*
X146789Y667489D02*
X146789Y678711D01*
X158011Y678711D01*
X158011Y667489D01*
X146789Y667489D01*
X146789Y672058D02*
X158011Y672058D01*
X158011Y676627D02*
X146789Y676627D01*
X146789Y658521D02*
X146789Y647299D01*
X146789Y658521D02*
X158011Y658521D01*
X158011Y647299D01*
X146789Y647299D01*
X146789Y651868D02*
X158011Y651868D01*
X158011Y656437D02*
X146789Y656437D01*
X729511Y417091D02*
X729511Y405869D01*
X718289Y405869D01*
X718289Y417091D01*
X729511Y417091D01*
X729511Y410438D02*
X718289Y410438D01*
X718289Y415007D02*
X729511Y415007D01*
X729511Y426059D02*
X729511Y437281D01*
X729511Y426059D02*
X718289Y426059D01*
X718289Y437281D01*
X729511Y437281D01*
X729511Y430628D02*
X718289Y430628D01*
X718289Y435197D02*
X729511Y435197D01*
X427251Y323111D02*
X427251Y311889D01*
X416029Y311889D01*
X416029Y323111D01*
X427251Y323111D01*
X427251Y316458D02*
X416029Y316458D01*
X416029Y321027D02*
X427251Y321027D01*
X427251Y332079D02*
X427251Y343301D01*
X427251Y332079D02*
X416029Y332079D01*
X416029Y343301D01*
X427251Y343301D01*
X427251Y336648D02*
X416029Y336648D01*
X416029Y341217D02*
X427251Y341217D01*
X1001291Y367769D02*
X1001291Y378991D01*
X1001291Y367769D02*
X990069Y367769D01*
X990069Y378991D01*
X1001291Y378991D01*
X1001291Y372338D02*
X990069Y372338D01*
X990069Y376907D02*
X1001291Y376907D01*
X1001291Y387959D02*
X1001291Y399181D01*
X1001291Y387959D02*
X990069Y387959D01*
X990069Y399181D01*
X1001291Y399181D01*
X1001291Y392528D02*
X990069Y392528D01*
X990069Y397097D02*
X1001291Y397097D01*
X883389Y1231369D02*
X883389Y1242591D01*
X894611Y1242591D01*
X894611Y1231369D01*
X883389Y1231369D01*
X883389Y1235938D02*
X894611Y1235938D01*
X894611Y1240507D02*
X883389Y1240507D01*
X883389Y1222401D02*
X883389Y1211179D01*
X883389Y1222401D02*
X894611Y1222401D01*
X894611Y1211179D01*
X883389Y1211179D01*
X883389Y1215748D02*
X894611Y1215748D01*
X894611Y1220317D02*
X883389Y1220317D01*
X589811Y373911D02*
X589811Y362689D01*
X578589Y362689D01*
X578589Y373911D01*
X589811Y373911D01*
X589811Y367258D02*
X578589Y367258D01*
X578589Y371827D02*
X589811Y371827D01*
X589811Y382879D02*
X589811Y394101D01*
X589811Y382879D02*
X578589Y382879D01*
X578589Y394101D01*
X589811Y394101D01*
X589811Y387448D02*
X578589Y387448D01*
X578589Y392017D02*
X589811Y392017D01*
X212829Y974829D02*
X212829Y986051D01*
X224051Y986051D01*
X224051Y974829D01*
X212829Y974829D01*
X212829Y979398D02*
X224051Y979398D01*
X224051Y983967D02*
X212829Y983967D01*
X212829Y965861D02*
X212829Y954639D01*
X212829Y965861D02*
X224051Y965861D01*
X224051Y954639D01*
X212829Y954639D01*
X212829Y959208D02*
X224051Y959208D01*
X224051Y963777D02*
X212829Y963777D01*
X1292329Y1147549D02*
X1303551Y1147549D01*
X1292329Y1147549D02*
X1292329Y1158771D01*
X1303551Y1158771D01*
X1303551Y1147549D01*
X1303551Y1152118D02*
X1292329Y1152118D01*
X1292329Y1156687D02*
X1303551Y1156687D01*
X1312519Y1147549D02*
X1323741Y1147549D01*
X1312519Y1147549D02*
X1312519Y1158771D01*
X1323741Y1158771D01*
X1323741Y1147549D01*
X1323741Y1152118D02*
X1312519Y1152118D01*
X1312519Y1156687D02*
X1323741Y1156687D01*
X391899Y820951D02*
X391899Y809729D01*
X391899Y820951D02*
X403121Y820951D01*
X403121Y809729D01*
X391899Y809729D01*
X391899Y814298D02*
X403121Y814298D01*
X403121Y818867D02*
X391899Y818867D01*
X391899Y800761D02*
X391899Y789539D01*
X391899Y800761D02*
X403121Y800761D01*
X403121Y789539D01*
X391899Y789539D01*
X391899Y794108D02*
X403121Y794108D01*
X403121Y798677D02*
X391899Y798677D01*
D10*
X924560Y779780D03*
X924560Y754380D03*
X1102360Y779780D03*
X1102360Y754380D03*
D11*
X716811Y866671D02*
X705589Y866671D01*
X716811Y866671D02*
X716811Y855449D01*
X705589Y855449D01*
X705589Y866671D01*
X705589Y860018D02*
X716811Y860018D01*
X716811Y864587D02*
X705589Y864587D01*
X696621Y866671D02*
X685399Y866671D01*
X696621Y866671D02*
X696621Y855449D01*
X685399Y855449D01*
X685399Y866671D01*
X685399Y860018D02*
X696621Y860018D01*
X696621Y864587D02*
X685399Y864587D01*
X896089Y828571D02*
X896089Y817349D01*
X896089Y828571D02*
X907311Y828571D01*
X907311Y817349D01*
X896089Y817349D01*
X896089Y821918D02*
X907311Y821918D01*
X907311Y826487D02*
X896089Y826487D01*
X896089Y808381D02*
X896089Y797159D01*
X896089Y808381D02*
X907311Y808381D01*
X907311Y797159D01*
X896089Y797159D01*
X896089Y801728D02*
X907311Y801728D01*
X907311Y806297D02*
X896089Y806297D01*
X1267991Y1106909D02*
X1267991Y1118131D01*
X1267991Y1106909D02*
X1256769Y1106909D01*
X1256769Y1118131D01*
X1267991Y1118131D01*
X1267991Y1111478D02*
X1256769Y1111478D01*
X1256769Y1116047D02*
X1267991Y1116047D01*
X1267991Y1127099D02*
X1267991Y1138321D01*
X1267991Y1127099D02*
X1256769Y1127099D01*
X1256769Y1138321D01*
X1267991Y1138321D01*
X1267991Y1131668D02*
X1256769Y1131668D01*
X1256769Y1136237D02*
X1267991Y1136237D01*
X1412771Y935251D02*
X1412771Y924029D01*
X1401549Y924029D01*
X1401549Y935251D01*
X1412771Y935251D01*
X1412771Y928598D02*
X1401549Y928598D01*
X1401549Y933167D02*
X1412771Y933167D01*
X1412771Y944219D02*
X1412771Y955441D01*
X1412771Y944219D02*
X1401549Y944219D01*
X1401549Y955441D01*
X1412771Y955441D01*
X1412771Y948788D02*
X1401549Y948788D01*
X1401549Y953357D02*
X1412771Y953357D01*
X492021Y697761D02*
X492021Y686539D01*
X480799Y686539D01*
X480799Y697761D01*
X492021Y697761D01*
X492021Y691108D02*
X480799Y691108D01*
X480799Y695677D02*
X492021Y695677D01*
X492021Y706729D02*
X492021Y717951D01*
X492021Y706729D02*
X480799Y706729D01*
X480799Y717951D01*
X492021Y717951D01*
X492021Y711298D02*
X480799Y711298D01*
X480799Y715867D02*
X492021Y715867D01*
D12*
X748030Y229870D03*
X748030Y262870D03*
X582930Y1004570D03*
X549930Y1004570D03*
X582930Y1042670D03*
X549930Y1042670D03*
X1193800Y1196340D03*
X1226800Y1196340D03*
X1259840Y1153160D03*
X1226840Y1153160D03*
X1236980Y1013460D03*
X1236980Y980460D03*
X1198880Y1013460D03*
X1198880Y980460D03*
X1160780Y1013460D03*
X1160780Y980460D03*
X800100Y317500D03*
X800100Y350500D03*
X406400Y965200D03*
X439400Y965200D03*
X406400Y1003300D03*
X439400Y1003300D03*
X406400Y1041400D03*
X439400Y1041400D03*
X1328420Y576580D03*
X1328420Y543580D03*
X1353820Y576580D03*
X1353820Y543580D03*
X1379220Y718820D03*
X1379220Y751820D03*
X582930Y966470D03*
X549930Y966470D03*
D10*
X495300Y177800D03*
X520700Y177800D03*
X622300Y139700D03*
X647700Y139700D03*
X952500Y139700D03*
X977900Y139700D03*
X1079500Y177800D03*
X1104900Y177800D03*
D13*
X1147318Y1295400D02*
X1164082Y1295400D01*
X1164082Y1320800D02*
X1147318Y1320800D01*
X1147318Y1346200D02*
X1164082Y1346200D01*
D14*
X980440Y1320800D03*
D11*
X743689Y437411D02*
X743689Y426189D01*
X743689Y437411D02*
X754911Y437411D01*
X754911Y426189D01*
X743689Y426189D01*
X743689Y430758D02*
X754911Y430758D01*
X754911Y435327D02*
X743689Y435327D01*
X743689Y417221D02*
X743689Y405999D01*
X743689Y417221D02*
X754911Y417221D01*
X754911Y405999D01*
X743689Y405999D01*
X743689Y410568D02*
X754911Y410568D01*
X754911Y415137D02*
X743689Y415137D01*
X1040869Y457731D02*
X1052091Y457731D01*
X1052091Y446509D01*
X1040869Y446509D01*
X1040869Y457731D01*
X1040869Y451078D02*
X1052091Y451078D01*
X1052091Y455647D02*
X1040869Y455647D01*
X1031901Y457731D02*
X1020679Y457731D01*
X1031901Y457731D02*
X1031901Y446509D01*
X1020679Y446509D01*
X1020679Y457731D01*
X1020679Y451078D02*
X1031901Y451078D01*
X1031901Y455647D02*
X1020679Y455647D01*
X1008911Y437411D02*
X1008911Y426189D01*
X997689Y426189D01*
X997689Y437411D01*
X1008911Y437411D01*
X1008911Y430758D02*
X997689Y430758D01*
X997689Y435327D02*
X1008911Y435327D01*
X1008911Y446379D02*
X1008911Y457601D01*
X1008911Y446379D02*
X997689Y446379D01*
X997689Y457601D01*
X1008911Y457601D01*
X1008911Y450948D02*
X997689Y450948D01*
X997689Y455517D02*
X1008911Y455517D01*
X1255291Y466829D02*
X1255291Y478051D01*
X1255291Y466829D02*
X1244069Y466829D01*
X1244069Y478051D01*
X1255291Y478051D01*
X1255291Y471398D02*
X1244069Y471398D01*
X1244069Y475967D02*
X1255291Y475967D01*
X1255291Y487019D02*
X1255291Y498241D01*
X1255291Y487019D02*
X1244069Y487019D01*
X1244069Y498241D01*
X1255291Y498241D01*
X1255291Y491588D02*
X1244069Y491588D01*
X1244069Y496157D02*
X1255291Y496157D01*
X986051Y457731D02*
X974829Y457731D01*
X986051Y457731D02*
X986051Y446509D01*
X974829Y446509D01*
X974829Y457731D01*
X974829Y451078D02*
X986051Y451078D01*
X986051Y455647D02*
X974829Y455647D01*
X965861Y457731D02*
X954639Y457731D01*
X965861Y457731D02*
X965861Y446509D01*
X954639Y446509D01*
X954639Y457731D01*
X954639Y451078D02*
X965861Y451078D01*
X965861Y455647D02*
X954639Y455647D01*
X995149Y781789D02*
X1006371Y781789D01*
X995149Y781789D02*
X995149Y793011D01*
X1006371Y793011D01*
X1006371Y781789D01*
X1006371Y786358D02*
X995149Y786358D01*
X995149Y790927D02*
X1006371Y790927D01*
X1015339Y781789D02*
X1026561Y781789D01*
X1015339Y781789D02*
X1015339Y793011D01*
X1026561Y793011D01*
X1026561Y781789D01*
X1026561Y786358D02*
X1015339Y786358D01*
X1015339Y790927D02*
X1026561Y790927D01*
X1071349Y853971D02*
X1082571Y853971D01*
X1082571Y842749D01*
X1071349Y842749D01*
X1071349Y853971D01*
X1071349Y847318D02*
X1082571Y847318D01*
X1082571Y851887D02*
X1071349Y851887D01*
X1062381Y853971D02*
X1051159Y853971D01*
X1062381Y853971D02*
X1062381Y842749D01*
X1051159Y842749D01*
X1051159Y853971D01*
X1051159Y847318D02*
X1062381Y847318D01*
X1062381Y851887D02*
X1051159Y851887D01*
X1071349Y879371D02*
X1082571Y879371D01*
X1082571Y868149D01*
X1071349Y868149D01*
X1071349Y879371D01*
X1071349Y872718D02*
X1082571Y872718D01*
X1082571Y877287D02*
X1071349Y877287D01*
X1062381Y879371D02*
X1051159Y879371D01*
X1062381Y879371D02*
X1062381Y868149D01*
X1051159Y868149D01*
X1051159Y879371D01*
X1051159Y872718D02*
X1062381Y872718D01*
X1062381Y877287D02*
X1051159Y877287D01*
X526311Y231671D02*
X526311Y220449D01*
X515089Y220449D01*
X515089Y231671D01*
X526311Y231671D01*
X526311Y225018D02*
X515089Y225018D01*
X515089Y229587D02*
X526311Y229587D01*
X526311Y240639D02*
X526311Y251861D01*
X526311Y240639D02*
X515089Y240639D01*
X515089Y251861D01*
X526311Y251861D01*
X526311Y245208D02*
X515089Y245208D01*
X515089Y249777D02*
X526311Y249777D01*
X525249Y860529D02*
X525249Y871751D01*
X536471Y871751D01*
X536471Y860529D01*
X525249Y860529D01*
X525249Y865098D02*
X536471Y865098D01*
X536471Y869667D02*
X525249Y869667D01*
X525249Y851561D02*
X525249Y840339D01*
X525249Y851561D02*
X536471Y851561D01*
X536471Y840339D01*
X525249Y840339D01*
X525249Y844908D02*
X536471Y844908D01*
X536471Y849477D02*
X525249Y849477D01*
X1226289Y1301011D02*
X1237511Y1301011D01*
X1237511Y1289789D01*
X1226289Y1289789D01*
X1226289Y1301011D01*
X1226289Y1294358D02*
X1237511Y1294358D01*
X1237511Y1298927D02*
X1226289Y1298927D01*
X1217321Y1301011D02*
X1206099Y1301011D01*
X1217321Y1301011D02*
X1217321Y1289789D01*
X1206099Y1289789D01*
X1206099Y1301011D01*
X1206099Y1294358D02*
X1217321Y1294358D01*
X1217321Y1298927D02*
X1206099Y1298927D01*
X431269Y546631D02*
X431269Y535409D01*
X431269Y546631D02*
X442491Y546631D01*
X442491Y535409D01*
X431269Y535409D01*
X431269Y539978D02*
X442491Y539978D01*
X442491Y544547D02*
X431269Y544547D01*
X431269Y526441D02*
X431269Y515219D01*
X431269Y526441D02*
X442491Y526441D01*
X442491Y515219D01*
X431269Y515219D01*
X431269Y519788D02*
X442491Y519788D01*
X442491Y524357D02*
X431269Y524357D01*
X522709Y537949D02*
X522709Y549171D01*
X533931Y549171D01*
X533931Y537949D01*
X522709Y537949D01*
X522709Y542518D02*
X533931Y542518D01*
X533931Y547087D02*
X522709Y547087D01*
X522709Y528981D02*
X522709Y517759D01*
X522709Y528981D02*
X533931Y528981D01*
X533931Y517759D01*
X522709Y517759D01*
X522709Y522328D02*
X533931Y522328D01*
X533931Y526897D02*
X522709Y526897D01*
X1255291Y437411D02*
X1255291Y426189D01*
X1244069Y426189D01*
X1244069Y437411D01*
X1255291Y437411D01*
X1255291Y430758D02*
X1244069Y430758D01*
X1244069Y435327D02*
X1255291Y435327D01*
X1255291Y446379D02*
X1255291Y457601D01*
X1255291Y446379D02*
X1244069Y446379D01*
X1244069Y457601D01*
X1255291Y457601D01*
X1255291Y450948D02*
X1244069Y450948D01*
X1244069Y455517D02*
X1255291Y455517D01*
X246911Y583669D02*
X246911Y594891D01*
X246911Y583669D02*
X235689Y583669D01*
X235689Y594891D01*
X246911Y594891D01*
X246911Y588238D02*
X235689Y588238D01*
X235689Y592807D02*
X246911Y592807D01*
X246911Y603859D02*
X246911Y615081D01*
X246911Y603859D02*
X235689Y603859D01*
X235689Y615081D01*
X246911Y615081D01*
X246911Y608428D02*
X235689Y608428D01*
X235689Y612997D02*
X246911Y612997D01*
X210289Y615211D02*
X210289Y603989D01*
X210289Y615211D02*
X221511Y615211D01*
X221511Y603989D01*
X210289Y603989D01*
X210289Y608558D02*
X221511Y608558D01*
X221511Y613127D02*
X210289Y613127D01*
X210289Y595021D02*
X210289Y583799D01*
X210289Y595021D02*
X221511Y595021D01*
X221511Y583799D01*
X210289Y583799D01*
X210289Y588368D02*
X221511Y588368D01*
X221511Y592937D02*
X210289Y592937D01*
X278869Y710669D02*
X278869Y721891D01*
X290091Y721891D01*
X290091Y710669D01*
X278869Y710669D01*
X278869Y715238D02*
X290091Y715238D01*
X290091Y719807D02*
X278869Y719807D01*
X278869Y701701D02*
X278869Y690479D01*
X278869Y701701D02*
X290091Y701701D01*
X290091Y690479D01*
X278869Y690479D01*
X278869Y695048D02*
X290091Y695048D01*
X290091Y699617D02*
X278869Y699617D01*
X304269Y710669D02*
X304269Y721891D01*
X315491Y721891D01*
X315491Y710669D01*
X304269Y710669D01*
X304269Y715238D02*
X315491Y715238D01*
X315491Y719807D02*
X304269Y719807D01*
X304269Y701701D02*
X304269Y690479D01*
X304269Y701701D02*
X315491Y701701D01*
X315491Y690479D01*
X304269Y690479D01*
X304269Y695048D02*
X315491Y695048D01*
X315491Y699617D02*
X304269Y699617D01*
X1292329Y1172949D02*
X1303551Y1172949D01*
X1292329Y1172949D02*
X1292329Y1184171D01*
X1303551Y1184171D01*
X1303551Y1172949D01*
X1303551Y1177518D02*
X1292329Y1177518D01*
X1292329Y1182087D02*
X1303551Y1182087D01*
X1312519Y1172949D02*
X1323741Y1172949D01*
X1312519Y1172949D02*
X1312519Y1184171D01*
X1323741Y1184171D01*
X1323741Y1172949D01*
X1323741Y1177518D02*
X1312519Y1177518D01*
X1312519Y1182087D02*
X1323741Y1182087D01*
X645277Y1295718D02*
X645277Y1306940D01*
X645277Y1295718D02*
X634055Y1295718D01*
X634055Y1306940D01*
X645277Y1306940D01*
X645277Y1300287D02*
X634055Y1300287D01*
X634055Y1304856D02*
X645277Y1304856D01*
X645277Y1315908D02*
X645277Y1327130D01*
X645277Y1315908D02*
X634055Y1315908D01*
X634055Y1327130D01*
X645277Y1327130D01*
X645277Y1320477D02*
X634055Y1320477D01*
X634055Y1325046D02*
X645277Y1325046D01*
X1223749Y457731D02*
X1234971Y457731D01*
X1234971Y446509D01*
X1223749Y446509D01*
X1223749Y457731D01*
X1223749Y451078D02*
X1234971Y451078D01*
X1234971Y455647D02*
X1223749Y455647D01*
X1214781Y457731D02*
X1203559Y457731D01*
X1214781Y457731D02*
X1214781Y446509D01*
X1203559Y446509D01*
X1203559Y457731D01*
X1203559Y451078D02*
X1214781Y451078D01*
X1214781Y455647D02*
X1203559Y455647D01*
X617337Y1327260D02*
X606115Y1327260D01*
X617337Y1327260D02*
X617337Y1316038D01*
X606115Y1316038D01*
X606115Y1327260D01*
X606115Y1320607D02*
X617337Y1320607D01*
X617337Y1325176D02*
X606115Y1325176D01*
X597147Y1327260D02*
X585925Y1327260D01*
X597147Y1327260D02*
X597147Y1316038D01*
X585925Y1316038D01*
X585925Y1327260D01*
X585925Y1320607D02*
X597147Y1320607D01*
X597147Y1325176D02*
X585925Y1325176D01*
X569077Y1306940D02*
X569077Y1295718D01*
X557855Y1295718D01*
X557855Y1306940D01*
X569077Y1306940D01*
X569077Y1300287D02*
X557855Y1300287D01*
X557855Y1304856D02*
X569077Y1304856D01*
X569077Y1315908D02*
X569077Y1327130D01*
X569077Y1315908D02*
X557855Y1315908D01*
X557855Y1327130D01*
X569077Y1327130D01*
X569077Y1320477D02*
X557855Y1320477D01*
X557855Y1325046D02*
X569077Y1325046D01*
X541137Y1327260D02*
X529915Y1327260D01*
X541137Y1327260D02*
X541137Y1316038D01*
X529915Y1316038D01*
X529915Y1327260D01*
X529915Y1320607D02*
X541137Y1320607D01*
X541137Y1325176D02*
X529915Y1325176D01*
X520947Y1327260D02*
X509725Y1327260D01*
X520947Y1327260D02*
X520947Y1316038D01*
X509725Y1316038D01*
X509725Y1327260D01*
X509725Y1320607D02*
X520947Y1320607D01*
X520947Y1325176D02*
X509725Y1325176D01*
X492877Y1306940D02*
X492877Y1295718D01*
X481655Y1295718D01*
X481655Y1306940D01*
X492877Y1306940D01*
X492877Y1300287D02*
X481655Y1300287D01*
X481655Y1304856D02*
X492877Y1304856D01*
X492877Y1315908D02*
X492877Y1327130D01*
X492877Y1315908D02*
X481655Y1315908D01*
X481655Y1327130D01*
X492877Y1327130D01*
X492877Y1320477D02*
X481655Y1320477D01*
X481655Y1325046D02*
X492877Y1325046D01*
X464937Y1327260D02*
X453715Y1327260D01*
X464937Y1327260D02*
X464937Y1316038D01*
X453715Y1316038D01*
X453715Y1327260D01*
X453715Y1320607D02*
X464937Y1320607D01*
X464937Y1325176D02*
X453715Y1325176D01*
X444747Y1327260D02*
X433525Y1327260D01*
X444747Y1327260D02*
X444747Y1316038D01*
X433525Y1316038D01*
X433525Y1327260D01*
X433525Y1320607D02*
X444747Y1320607D01*
X444747Y1325176D02*
X433525Y1325176D01*
X416677Y1306940D02*
X416677Y1295718D01*
X405455Y1295718D01*
X405455Y1306940D01*
X416677Y1306940D01*
X416677Y1300287D02*
X405455Y1300287D01*
X405455Y1304856D02*
X416677Y1304856D01*
X416677Y1315908D02*
X416677Y1327130D01*
X416677Y1315908D02*
X405455Y1315908D01*
X405455Y1327130D01*
X416677Y1327130D01*
X416677Y1320477D02*
X405455Y1320477D01*
X405455Y1325046D02*
X416677Y1325046D01*
X661995Y1316038D02*
X673217Y1316038D01*
X661995Y1316038D02*
X661995Y1327260D01*
X673217Y1327260D01*
X673217Y1316038D01*
X673217Y1320607D02*
X661995Y1320607D01*
X661995Y1325176D02*
X673217Y1325176D01*
X682185Y1316038D02*
X693407Y1316038D01*
X682185Y1316038D02*
X682185Y1327260D01*
X693407Y1327260D01*
X693407Y1316038D01*
X693407Y1320607D02*
X682185Y1320607D01*
X682185Y1325176D02*
X693407Y1325176D01*
X427251Y373911D02*
X427251Y362689D01*
X416029Y362689D01*
X416029Y373911D01*
X427251Y373911D01*
X427251Y367258D02*
X416029Y367258D01*
X416029Y371827D02*
X427251Y371827D01*
X427251Y382879D02*
X427251Y394101D01*
X427251Y382879D02*
X416029Y382879D01*
X416029Y394101D01*
X427251Y394101D01*
X427251Y387448D02*
X416029Y387448D01*
X416029Y392017D02*
X427251Y392017D01*
X1194331Y426189D02*
X1194331Y437411D01*
X1194331Y426189D02*
X1183109Y426189D01*
X1183109Y437411D01*
X1194331Y437411D01*
X1194331Y430758D02*
X1183109Y430758D01*
X1183109Y435327D02*
X1194331Y435327D01*
X1194331Y446379D02*
X1194331Y457601D01*
X1194331Y446379D02*
X1183109Y446379D01*
X1183109Y457601D01*
X1194331Y457601D01*
X1194331Y450948D02*
X1183109Y450948D01*
X1183109Y455517D02*
X1194331Y455517D01*
X1174011Y457731D02*
X1162789Y457731D01*
X1174011Y457731D02*
X1174011Y446509D01*
X1162789Y446509D01*
X1162789Y457731D01*
X1162789Y451078D02*
X1174011Y451078D01*
X1174011Y455647D02*
X1162789Y455647D01*
X1153821Y457731D02*
X1142599Y457731D01*
X1153821Y457731D02*
X1153821Y446509D01*
X1142599Y446509D01*
X1142599Y457731D01*
X1142599Y451078D02*
X1153821Y451078D01*
X1153821Y455647D02*
X1142599Y455647D01*
X1133371Y437411D02*
X1133371Y426189D01*
X1122149Y426189D01*
X1122149Y437411D01*
X1133371Y437411D01*
X1133371Y430758D02*
X1122149Y430758D01*
X1122149Y435327D02*
X1133371Y435327D01*
X1133371Y446379D02*
X1133371Y457601D01*
X1133371Y446379D02*
X1122149Y446379D01*
X1122149Y457601D01*
X1133371Y457601D01*
X1133371Y450948D02*
X1122149Y450948D01*
X1122149Y455517D02*
X1133371Y455517D01*
X1113051Y457731D02*
X1101829Y457731D01*
X1113051Y457731D02*
X1113051Y446509D01*
X1101829Y446509D01*
X1101829Y457731D01*
X1101829Y451078D02*
X1113051Y451078D01*
X1113051Y455647D02*
X1101829Y455647D01*
X1092861Y457731D02*
X1081639Y457731D01*
X1092861Y457731D02*
X1092861Y446509D01*
X1081639Y446509D01*
X1081639Y457731D01*
X1081639Y451078D02*
X1092861Y451078D01*
X1092861Y455647D02*
X1081639Y455647D01*
X1072411Y437411D02*
X1072411Y426189D01*
X1061189Y426189D01*
X1061189Y437411D01*
X1072411Y437411D01*
X1072411Y430758D02*
X1061189Y430758D01*
X1061189Y435327D02*
X1072411Y435327D01*
X1072411Y446379D02*
X1072411Y457601D01*
X1072411Y446379D02*
X1061189Y446379D01*
X1061189Y457601D01*
X1072411Y457601D01*
X1072411Y450948D02*
X1061189Y450948D01*
X1061189Y455517D02*
X1072411Y455517D01*
D15*
X762000Y317500D03*
X749300Y317500D03*
X736600Y317500D03*
X723900Y317500D03*
X723900Y368300D03*
X736600Y368300D03*
X749300Y368300D03*
X762000Y368300D03*
X256540Y673100D03*
X243840Y673100D03*
X231140Y673100D03*
X218440Y673100D03*
X205740Y673100D03*
X193040Y673100D03*
X180340Y673100D03*
X180340Y723900D03*
X193040Y723900D03*
X205740Y723900D03*
X218440Y723900D03*
X231140Y723900D03*
X243840Y723900D03*
X256540Y723900D03*
X1389380Y878840D03*
X1376680Y878840D03*
X1363980Y878840D03*
X1351280Y878840D03*
X1338580Y878840D03*
X1325880Y878840D03*
X1313180Y878840D03*
X1300480Y878840D03*
X1300480Y929640D03*
X1313180Y929640D03*
X1325880Y929640D03*
X1338580Y929640D03*
X1351280Y929640D03*
X1363980Y929640D03*
X1376680Y929640D03*
X1389380Y929640D03*
X1239520Y1061720D03*
X1226820Y1061720D03*
X1214120Y1061720D03*
X1201420Y1061720D03*
X1188720Y1061720D03*
X1176020Y1061720D03*
X1163320Y1061720D03*
X1150620Y1061720D03*
X1150620Y1112520D03*
X1163320Y1112520D03*
X1176020Y1112520D03*
X1188720Y1112520D03*
X1201420Y1112520D03*
X1214120Y1112520D03*
X1226820Y1112520D03*
X1239520Y1112520D03*
X866140Y1186180D03*
X853440Y1186180D03*
X840740Y1186180D03*
X828040Y1186180D03*
X815340Y1186180D03*
X802640Y1186180D03*
X789940Y1186180D03*
X777240Y1186180D03*
X777240Y1236980D03*
X789940Y1236980D03*
X802640Y1236980D03*
X815340Y1236980D03*
X828040Y1236980D03*
X840740Y1236980D03*
X853440Y1236980D03*
X866140Y1236980D03*
D16*
X436466Y1199729D03*
D10*
X461866Y1199729D03*
X487266Y1199729D03*
X512666Y1199729D03*
X538066Y1199729D03*
X563466Y1199729D03*
X588866Y1199729D03*
X614266Y1199729D03*
X614266Y1275929D03*
X588866Y1275929D03*
X563466Y1275929D03*
X538066Y1275929D03*
X512666Y1275929D03*
X487266Y1275929D03*
X461866Y1275929D03*
X436466Y1275929D03*
D15*
X988060Y1061720D03*
X975360Y1061720D03*
X962660Y1061720D03*
X949960Y1061720D03*
X937260Y1061720D03*
X924560Y1061720D03*
X911860Y1061720D03*
X911860Y1112520D03*
X924560Y1112520D03*
X937260Y1112520D03*
X949960Y1112520D03*
X962660Y1112520D03*
X975360Y1112520D03*
X988060Y1112520D03*
D16*
X1277620Y614680D03*
D10*
X1303020Y614680D03*
X1328420Y614680D03*
X1353820Y614680D03*
X1379220Y614680D03*
X1404620Y614680D03*
X1430020Y614680D03*
X1430020Y690880D03*
X1404620Y690880D03*
X1379220Y690880D03*
X1353820Y690880D03*
X1328420Y690880D03*
X1303020Y690880D03*
X1277620Y690880D03*
D16*
X876300Y698500D03*
D10*
X850900Y698500D03*
X825500Y698500D03*
X800100Y698500D03*
X774700Y698500D03*
X749300Y698500D03*
X723900Y698500D03*
X698500Y698500D03*
X698500Y622300D03*
X723900Y622300D03*
X749300Y622300D03*
X774700Y622300D03*
X800100Y622300D03*
X825500Y622300D03*
X850900Y622300D03*
X876300Y622300D03*
D16*
X1016000Y297180D03*
D10*
X1041400Y297180D03*
X1066800Y297180D03*
X1092200Y297180D03*
X1117600Y297180D03*
X1143000Y297180D03*
X1168400Y297180D03*
X1168400Y373380D03*
X1143000Y373380D03*
X1117600Y373380D03*
X1092200Y373380D03*
X1066800Y373380D03*
X1041400Y373380D03*
X1016000Y373380D03*
D16*
X787400Y889000D03*
D10*
X787400Y914400D03*
X787400Y939800D03*
X787400Y965200D03*
X787400Y990600D03*
X787400Y1016000D03*
X787400Y1041400D03*
X711200Y1041400D03*
X711200Y1016000D03*
X711200Y990600D03*
X711200Y965200D03*
X711200Y939800D03*
X711200Y914400D03*
X711200Y889000D03*
D16*
X975360Y822960D03*
D10*
X1000760Y822960D03*
X1026160Y822960D03*
X1051560Y822960D03*
X1076960Y822960D03*
X1102360Y822960D03*
X1127760Y822960D03*
X1127760Y899160D03*
X1102360Y899160D03*
X1076960Y899160D03*
X1051560Y899160D03*
X1026160Y899160D03*
X1000760Y899160D03*
X975360Y899160D03*
D15*
X236220Y1031240D03*
X248920Y1031240D03*
X261620Y1031240D03*
X274320Y1031240D03*
X287020Y1031240D03*
X299720Y1031240D03*
X312420Y1031240D03*
X312420Y980440D03*
X299720Y980440D03*
X287020Y980440D03*
X274320Y980440D03*
X261620Y980440D03*
X248920Y980440D03*
X236220Y980440D03*
X556260Y317500D03*
X543560Y317500D03*
X530860Y317500D03*
X518160Y317500D03*
X505460Y317500D03*
X492760Y317500D03*
X480060Y317500D03*
X467360Y317500D03*
X467360Y368300D03*
X480060Y368300D03*
X492760Y368300D03*
X505460Y368300D03*
X518160Y368300D03*
X530860Y368300D03*
X543560Y368300D03*
X556260Y368300D03*
D17*
X419805Y855825D02*
X419805Y876455D01*
X420935Y876455D01*
X420935Y855825D01*
X419805Y855825D01*
X419805Y861907D02*
X420935Y861907D01*
X420935Y867989D02*
X419805Y867989D01*
X419805Y874071D02*
X420935Y874071D01*
X432505Y876455D02*
X432505Y855825D01*
X432505Y876455D02*
X433635Y876455D01*
X433635Y855825D01*
X432505Y855825D01*
X432505Y861907D02*
X433635Y861907D01*
X433635Y867989D02*
X432505Y867989D01*
X432505Y874071D02*
X433635Y874071D01*
X445205Y876455D02*
X445205Y855825D01*
X445205Y876455D02*
X446335Y876455D01*
X446335Y855825D01*
X445205Y855825D01*
X445205Y861907D02*
X446335Y861907D01*
X446335Y867989D02*
X445205Y867989D01*
X445205Y874071D02*
X446335Y874071D01*
X457905Y876455D02*
X457905Y855825D01*
X457905Y876455D02*
X459035Y876455D01*
X459035Y855825D01*
X457905Y855825D01*
X457905Y861907D02*
X459035Y861907D01*
X459035Y867989D02*
X457905Y867989D01*
X457905Y874071D02*
X459035Y874071D01*
X496005Y826555D02*
X496005Y805925D01*
X496005Y826555D02*
X497135Y826555D01*
X497135Y805925D01*
X496005Y805925D01*
X496005Y812007D02*
X497135Y812007D01*
X497135Y818089D02*
X496005Y818089D01*
X496005Y824171D02*
X497135Y824171D01*
X496005Y856725D02*
X496005Y877355D01*
X497135Y877355D01*
X497135Y856725D01*
X496005Y856725D01*
X496005Y862807D02*
X497135Y862807D01*
X497135Y868889D02*
X496005Y868889D01*
X496005Y874971D02*
X497135Y874971D01*
X483305Y877355D02*
X483305Y856725D01*
X483305Y877355D02*
X484435Y877355D01*
X484435Y856725D01*
X483305Y856725D01*
X483305Y862807D02*
X484435Y862807D01*
X484435Y868889D02*
X483305Y868889D01*
X483305Y874971D02*
X484435Y874971D01*
X470605Y877355D02*
X470605Y856725D01*
X470605Y877355D02*
X471735Y877355D01*
X471735Y856725D01*
X470605Y856725D01*
X470605Y862807D02*
X471735Y862807D01*
X471735Y868889D02*
X470605Y868889D01*
X470605Y874971D02*
X471735Y874971D01*
X483305Y826555D02*
X483305Y805925D01*
X483305Y826555D02*
X484435Y826555D01*
X484435Y805925D01*
X483305Y805925D01*
X483305Y812007D02*
X484435Y812007D01*
X484435Y818089D02*
X483305Y818089D01*
X483305Y824171D02*
X484435Y824171D01*
X470605Y826555D02*
X470605Y805925D01*
X470605Y826555D02*
X471735Y826555D01*
X471735Y805925D01*
X470605Y805925D01*
X470605Y812007D02*
X471735Y812007D01*
X471735Y818089D02*
X470605Y818089D01*
X470605Y824171D02*
X471735Y824171D01*
X457905Y826555D02*
X457905Y805925D01*
X457905Y826555D02*
X459035Y826555D01*
X459035Y805925D01*
X457905Y805925D01*
X457905Y812007D02*
X459035Y812007D01*
X459035Y818089D02*
X457905Y818089D01*
X457905Y824171D02*
X459035Y824171D01*
X445205Y826555D02*
X445205Y805925D01*
X445205Y826555D02*
X446335Y826555D01*
X446335Y805925D01*
X445205Y805925D01*
X445205Y812007D02*
X446335Y812007D01*
X446335Y818089D02*
X445205Y818089D01*
X445205Y824171D02*
X446335Y824171D01*
X432505Y826555D02*
X432505Y805925D01*
X432505Y826555D02*
X433635Y826555D01*
X433635Y805925D01*
X432505Y805925D01*
X432505Y812007D02*
X433635Y812007D01*
X433635Y818089D02*
X432505Y818089D01*
X432505Y824171D02*
X433635Y824171D01*
X419805Y826555D02*
X419805Y805925D01*
X419805Y826555D02*
X420935Y826555D01*
X420935Y805925D01*
X419805Y805925D01*
X419805Y812007D02*
X420935Y812007D01*
X420935Y818089D02*
X419805Y818089D01*
X419805Y824171D02*
X420935Y824171D01*
X486975Y624995D02*
X486975Y604365D01*
X485845Y604365D01*
X485845Y624995D01*
X486975Y624995D01*
X486975Y610447D02*
X485845Y610447D01*
X485845Y616529D02*
X486975Y616529D01*
X486975Y622611D02*
X485845Y622611D01*
X474275Y624995D02*
X474275Y604365D01*
X473145Y604365D01*
X473145Y624995D01*
X474275Y624995D01*
X474275Y610447D02*
X473145Y610447D01*
X473145Y616529D02*
X474275Y616529D01*
X474275Y622611D02*
X473145Y622611D01*
X461575Y624995D02*
X461575Y604365D01*
X460445Y604365D01*
X460445Y624995D01*
X461575Y624995D01*
X461575Y610447D02*
X460445Y610447D01*
X460445Y616529D02*
X461575Y616529D01*
X461575Y622611D02*
X460445Y622611D01*
X448875Y624995D02*
X448875Y604365D01*
X447745Y604365D01*
X447745Y624995D01*
X448875Y624995D01*
X448875Y610447D02*
X447745Y610447D01*
X447745Y616529D02*
X448875Y616529D01*
X448875Y622611D02*
X447745Y622611D01*
X410775Y654265D02*
X410775Y674895D01*
X410775Y654265D02*
X409645Y654265D01*
X409645Y674895D01*
X410775Y674895D01*
X410775Y660347D02*
X409645Y660347D01*
X409645Y666429D02*
X410775Y666429D01*
X410775Y672511D02*
X409645Y672511D01*
X410775Y624095D02*
X410775Y603465D01*
X409645Y603465D01*
X409645Y624095D01*
X410775Y624095D01*
X410775Y609547D02*
X409645Y609547D01*
X409645Y615629D02*
X410775Y615629D01*
X410775Y621711D02*
X409645Y621711D01*
X423475Y624095D02*
X423475Y603465D01*
X422345Y603465D01*
X422345Y624095D01*
X423475Y624095D01*
X423475Y609547D02*
X422345Y609547D01*
X422345Y615629D02*
X423475Y615629D01*
X423475Y621711D02*
X422345Y621711D01*
X436175Y624095D02*
X436175Y603465D01*
X435045Y603465D01*
X435045Y624095D01*
X436175Y624095D01*
X436175Y609547D02*
X435045Y609547D01*
X435045Y615629D02*
X436175Y615629D01*
X436175Y621711D02*
X435045Y621711D01*
X423475Y654265D02*
X423475Y674895D01*
X423475Y654265D02*
X422345Y654265D01*
X422345Y674895D01*
X423475Y674895D01*
X423475Y660347D02*
X422345Y660347D01*
X422345Y666429D02*
X423475Y666429D01*
X423475Y672511D02*
X422345Y672511D01*
X436175Y674895D02*
X436175Y654265D01*
X435045Y654265D01*
X435045Y674895D01*
X436175Y674895D01*
X436175Y660347D02*
X435045Y660347D01*
X435045Y666429D02*
X436175Y666429D01*
X436175Y672511D02*
X435045Y672511D01*
X448875Y674895D02*
X448875Y654265D01*
X447745Y654265D01*
X447745Y674895D01*
X448875Y674895D01*
X448875Y660347D02*
X447745Y660347D01*
X447745Y666429D02*
X448875Y666429D01*
X448875Y672511D02*
X447745Y672511D01*
X461575Y674895D02*
X461575Y654265D01*
X460445Y654265D01*
X460445Y674895D01*
X461575Y674895D01*
X461575Y660347D02*
X460445Y660347D01*
X460445Y666429D02*
X461575Y666429D01*
X461575Y672511D02*
X460445Y672511D01*
X474275Y674895D02*
X474275Y654265D01*
X473145Y654265D01*
X473145Y674895D01*
X474275Y674895D01*
X474275Y660347D02*
X473145Y660347D01*
X473145Y666429D02*
X474275Y666429D01*
X474275Y672511D02*
X473145Y672511D01*
X486975Y674895D02*
X486975Y654265D01*
X485845Y654265D01*
X485845Y674895D01*
X486975Y674895D01*
X486975Y660347D02*
X485845Y660347D01*
X485845Y666429D02*
X486975Y666429D01*
X486975Y672511D02*
X485845Y672511D01*
D18*
X750619Y88863D03*
X800619Y88863D03*
X850619Y88863D03*
D11*
X518277Y1173798D02*
X507055Y1173798D01*
X507055Y1185020D01*
X518277Y1185020D01*
X518277Y1173798D01*
X518277Y1178367D02*
X507055Y1178367D01*
X507055Y1182936D02*
X518277Y1182936D01*
X527245Y1173798D02*
X538467Y1173798D01*
X527245Y1173798D02*
X527245Y1185020D01*
X538467Y1185020D01*
X538467Y1173798D01*
X538467Y1178367D02*
X527245Y1178367D01*
X527245Y1182936D02*
X538467Y1182936D01*
D19*
X63500Y825500D03*
X63500Y774700D03*
D16*
X915060Y1473200D03*
D10*
X915060Y1447800D03*
X889660Y1473200D03*
X889660Y1447800D03*
X864260Y1473200D03*
X864260Y1447800D03*
X838860Y1473200D03*
X838860Y1447800D03*
X813460Y1473200D03*
X813460Y1447800D03*
X788060Y1473200D03*
X788060Y1447800D03*
X762660Y1473200D03*
X762660Y1447800D03*
X737260Y1473200D03*
X737260Y1447800D03*
X711860Y1473200D03*
X711860Y1447800D03*
X686460Y1473200D03*
X686460Y1447800D03*
D11*
X518691Y970811D02*
X518691Y959589D01*
X507469Y959589D01*
X507469Y970811D01*
X518691Y970811D01*
X518691Y964158D02*
X507469Y964158D01*
X507469Y968727D02*
X518691Y968727D01*
X518691Y979779D02*
X518691Y991001D01*
X518691Y979779D02*
X507469Y979779D01*
X507469Y991001D01*
X518691Y991001D01*
X518691Y984348D02*
X507469Y984348D01*
X507469Y988917D02*
X518691Y988917D01*
X469369Y997689D02*
X469369Y1008911D01*
X480591Y1008911D01*
X480591Y997689D01*
X469369Y997689D01*
X469369Y1002258D02*
X480591Y1002258D01*
X480591Y1006827D02*
X469369Y1006827D01*
X469369Y988721D02*
X469369Y977499D01*
X469369Y988721D02*
X480591Y988721D01*
X480591Y977499D01*
X469369Y977499D01*
X469369Y982068D02*
X480591Y982068D01*
X480591Y986637D02*
X469369Y986637D01*
X507469Y1035789D02*
X507469Y1047011D01*
X518691Y1047011D01*
X518691Y1035789D01*
X507469Y1035789D01*
X507469Y1040358D02*
X518691Y1040358D01*
X518691Y1044927D02*
X507469Y1044927D01*
X507469Y1026821D02*
X507469Y1015599D01*
X507469Y1026821D02*
X518691Y1026821D01*
X518691Y1015599D01*
X507469Y1015599D01*
X507469Y1020168D02*
X518691Y1020168D01*
X518691Y1024737D02*
X507469Y1024737D01*
D19*
X153852Y825500D03*
X153852Y774700D03*
D20*
X284480Y739140D03*
X284480Y774700D03*
X180340Y916940D03*
X180340Y980440D03*
X716280Y1303020D03*
X716280Y1188720D03*
X789940Y508000D03*
X904240Y508000D03*
X723900Y822960D03*
X861060Y822960D03*
X1320800Y1130300D03*
X1381760Y1130300D03*
X1290320Y734060D03*
X1441830Y734060D03*
X1051560Y802640D03*
X1252220Y802640D03*
X947420Y396240D03*
X946689Y428529D03*
X614680Y368300D03*
X673100Y368300D03*
X426720Y701040D03*
X360680Y701040D03*
X238760Y810260D03*
X198120Y810260D03*
X144780Y866140D03*
X63500Y866140D03*
X226060Y642620D03*
X337820Y642620D03*
X373380Y863600D03*
X238760Y863600D03*
X515620Y693420D03*
X619760Y693420D03*
X861060Y764540D03*
X861060Y805180D03*
X955358Y1202180D03*
X911860Y1201420D03*
X891540Y1107440D03*
X891540Y934720D03*
X711200Y469900D03*
X769620Y469900D03*
X248920Y561340D03*
X330200Y561340D03*
X655320Y411480D03*
X784860Y411480D03*
X708660Y368300D03*
X708660Y302260D03*
X1000760Y962660D03*
X1000760Y1087120D03*
X1023620Y1109980D03*
X1292860Y1109980D03*
X688340Y426720D03*
X688340Y508000D03*
X838200Y1402080D03*
X985520Y1402080D03*
X1181100Y401320D03*
X1211580Y401320D03*
X1066800Y261620D03*
X1234440Y261620D03*
X627380Y1005840D03*
X332740Y1005840D03*
X530860Y292100D03*
X447040Y292100D03*
X736600Y1386840D03*
X812800Y1386840D03*
X916940Y1292860D03*
X792480Y1292860D03*
X879500Y1312520D03*
X788131Y1312449D03*
X786130Y1332230D03*
X862990Y1332230D03*
X1176020Y906780D03*
X1267460Y906780D03*
X556260Y292100D03*
X556260Y160020D03*
X1488440Y1059180D03*
X1021080Y1059180D03*
X878840Y289560D03*
X589280Y289560D03*
X1384300Y1158240D03*
X924560Y1158240D03*
X688340Y193040D03*
X914400Y195580D03*
X749300Y1330960D03*
X749300Y1153160D03*
X640080Y551180D03*
X640080Y469900D03*
X472440Y899160D03*
X472440Y924560D03*
X444500Y899160D03*
X444500Y767080D03*
X505460Y762000D03*
X619760Y762000D03*
X320040Y1104900D03*
X320040Y1275080D03*
X563880Y850900D03*
X561340Y924560D03*
X403860Y502920D03*
X292100Y502920D03*
X401320Y429260D03*
X325120Y429260D03*
X871220Y1104900D03*
X871220Y993140D03*
X1074420Y934720D03*
X1267460Y934720D03*
X1264920Y1018540D03*
X1016000Y1018540D03*
X828040Y1043940D03*
X828040Y1089660D03*
X1351280Y807720D03*
X1455420Y807720D03*
X1155700Y591820D03*
X1303020Y591820D03*
X205740Y642620D03*
X205740Y480060D03*
X1508760Y972820D03*
X1363980Y970280D03*
X289560Y1178560D03*
X289560Y1262380D03*
X949960Y1181100D03*
X1076960Y1181100D03*
X761110Y1236980D03*
X995680Y1236980D03*
X353060Y1033780D03*
X353060Y1148080D03*
X381000Y381000D03*
X381000Y337820D03*
X574040Y1160780D03*
X718820Y1160780D03*
D21*
X250000Y1300000D03*
X1350000Y1300000D03*
X250000Y300000D03*
X1350000Y300000D03*
D20*
X533400Y731520D03*
X198120Y830580D03*
X256540Y830580D03*
X360680Y731520D03*
M02*
