G04 EAGLE Gerber RS-274X export*
G75*
%MOMM*%
%FSLAX34Y34*%
%LPD*%
%INSoldermask Top*%
%IPPOS*%
%AMOC8*
5,1,8,0,0,1.08239X$1,22.5*%
G01*
%ADD10C,1.803200*%
%ADD11C,1.879600*%
%ADD12C,3.505200*%
%ADD13R,1.803200X1.803200*%
%ADD14C,2.387600*%
%ADD15C,2.203200*%
%ADD16C,0.959600*%
%ADD17C,5.703200*%


D10*
X876300Y363220D03*
X876300Y337820D03*
X518160Y795020D03*
X543560Y795020D03*
X421640Y469900D03*
X447040Y469900D03*
X515620Y474980D03*
X541020Y474980D03*
X152400Y612140D03*
X127000Y612140D03*
X279400Y622300D03*
X304800Y622300D03*
X924560Y779780D03*
X924560Y754380D03*
X1102360Y779780D03*
X1102360Y754380D03*
X495300Y177800D03*
X520700Y177800D03*
X622300Y139700D03*
X647700Y139700D03*
X952500Y139700D03*
X977900Y139700D03*
X1079500Y177800D03*
X1104900Y177800D03*
D11*
X1147318Y1295400D02*
X1164082Y1295400D01*
X1164082Y1320800D02*
X1147318Y1320800D01*
X1147318Y1346200D02*
X1164082Y1346200D01*
D12*
X980440Y1320800D03*
D13*
X436466Y1199729D03*
D10*
X461866Y1199729D03*
X487266Y1199729D03*
X512666Y1199729D03*
X538066Y1199729D03*
X563466Y1199729D03*
X588866Y1199729D03*
X614266Y1199729D03*
X614266Y1275929D03*
X588866Y1275929D03*
X563466Y1275929D03*
X538066Y1275929D03*
X512666Y1275929D03*
X487266Y1275929D03*
X461866Y1275929D03*
X436466Y1275929D03*
D13*
X1277620Y614680D03*
D10*
X1303020Y614680D03*
X1328420Y614680D03*
X1353820Y614680D03*
X1379220Y614680D03*
X1404620Y614680D03*
X1430020Y614680D03*
X1430020Y690880D03*
X1404620Y690880D03*
X1379220Y690880D03*
X1353820Y690880D03*
X1328420Y690880D03*
X1303020Y690880D03*
X1277620Y690880D03*
D13*
X876300Y698500D03*
D10*
X850900Y698500D03*
X825500Y698500D03*
X800100Y698500D03*
X774700Y698500D03*
X749300Y698500D03*
X723900Y698500D03*
X698500Y698500D03*
X698500Y622300D03*
X723900Y622300D03*
X749300Y622300D03*
X774700Y622300D03*
X800100Y622300D03*
X825500Y622300D03*
X850900Y622300D03*
X876300Y622300D03*
D13*
X1016000Y297180D03*
D10*
X1041400Y297180D03*
X1066800Y297180D03*
X1092200Y297180D03*
X1117600Y297180D03*
X1143000Y297180D03*
X1168400Y297180D03*
X1168400Y373380D03*
X1143000Y373380D03*
X1117600Y373380D03*
X1092200Y373380D03*
X1066800Y373380D03*
X1041400Y373380D03*
X1016000Y373380D03*
D13*
X787400Y889000D03*
D10*
X787400Y914400D03*
X787400Y939800D03*
X787400Y965200D03*
X787400Y990600D03*
X787400Y1016000D03*
X787400Y1041400D03*
X711200Y1041400D03*
X711200Y1016000D03*
X711200Y990600D03*
X711200Y965200D03*
X711200Y939800D03*
X711200Y914400D03*
X711200Y889000D03*
D13*
X975360Y822960D03*
D10*
X1000760Y822960D03*
X1026160Y822960D03*
X1051560Y822960D03*
X1076960Y822960D03*
X1102360Y822960D03*
X1127760Y822960D03*
X1127760Y899160D03*
X1102360Y899160D03*
X1076960Y899160D03*
X1051560Y899160D03*
X1026160Y899160D03*
X1000760Y899160D03*
X975360Y899160D03*
D14*
X750619Y88863D03*
X800619Y88863D03*
X850619Y88863D03*
D15*
X63500Y825500D03*
X63500Y774700D03*
D13*
X915060Y1473200D03*
D10*
X915060Y1447800D03*
X889660Y1473200D03*
X889660Y1447800D03*
X864260Y1473200D03*
X864260Y1447800D03*
X838860Y1473200D03*
X838860Y1447800D03*
X813460Y1473200D03*
X813460Y1447800D03*
X788060Y1473200D03*
X788060Y1447800D03*
X762660Y1473200D03*
X762660Y1447800D03*
X737260Y1473200D03*
X737260Y1447800D03*
X711860Y1473200D03*
X711860Y1447800D03*
X686460Y1473200D03*
X686460Y1447800D03*
D15*
X153852Y825500D03*
X153852Y774700D03*
D16*
X284480Y739140D03*
X284480Y774700D03*
X180340Y916940D03*
X180340Y980440D03*
X716280Y1303020D03*
X716280Y1188720D03*
X789940Y508000D03*
X904240Y508000D03*
X723900Y822960D03*
X861060Y822960D03*
X1320800Y1130300D03*
X1381760Y1130300D03*
X1290320Y734060D03*
X1441830Y734060D03*
X1051560Y802640D03*
X1252220Y802640D03*
X947420Y396240D03*
X946689Y428529D03*
X614680Y368300D03*
X673100Y368300D03*
X426720Y701040D03*
X360680Y701040D03*
X238760Y810260D03*
X198120Y810260D03*
X144780Y866140D03*
X63500Y866140D03*
X226060Y642620D03*
X337820Y642620D03*
X373380Y863600D03*
X238760Y863600D03*
X515620Y693420D03*
X619760Y693420D03*
X861060Y764540D03*
X861060Y805180D03*
X955358Y1202180D03*
X911860Y1201420D03*
X891540Y1107440D03*
X891540Y934720D03*
X711200Y469900D03*
X769620Y469900D03*
X248920Y561340D03*
X330200Y561340D03*
X655320Y411480D03*
X784860Y411480D03*
X708660Y368300D03*
X708660Y302260D03*
X1000760Y962660D03*
X1000760Y1087120D03*
X1023620Y1109980D03*
X1292860Y1109980D03*
X688340Y426720D03*
X688340Y508000D03*
X838200Y1402080D03*
X985520Y1402080D03*
X1181100Y401320D03*
X1211580Y401320D03*
X1066800Y261620D03*
X1234440Y261620D03*
X627380Y1005840D03*
X332740Y1005840D03*
X530860Y292100D03*
X447040Y292100D03*
X736600Y1386840D03*
X812800Y1386840D03*
X916940Y1292860D03*
X792480Y1292860D03*
X879500Y1312520D03*
X788131Y1312449D03*
X786130Y1332230D03*
X862990Y1332230D03*
X1176020Y906780D03*
X1267460Y906780D03*
X556260Y292100D03*
X556260Y160020D03*
X1488440Y1059180D03*
X1021080Y1059180D03*
X878840Y289560D03*
X589280Y289560D03*
X1384300Y1158240D03*
X924560Y1158240D03*
X688340Y193040D03*
X914400Y195580D03*
X749300Y1330960D03*
X749300Y1153160D03*
X640080Y551180D03*
X640080Y469900D03*
X472440Y899160D03*
X472440Y924560D03*
X444500Y899160D03*
X444500Y767080D03*
X505460Y762000D03*
X619760Y762000D03*
X320040Y1104900D03*
X320040Y1275080D03*
X563880Y850900D03*
X561340Y924560D03*
X403860Y502920D03*
X292100Y502920D03*
X401320Y429260D03*
X325120Y429260D03*
X871220Y1104900D03*
X871220Y993140D03*
X1074420Y934720D03*
X1267460Y934720D03*
X1264920Y1018540D03*
X1016000Y1018540D03*
X828040Y1043940D03*
X828040Y1089660D03*
X1351280Y807720D03*
X1455420Y807720D03*
X1155700Y591820D03*
X1303020Y591820D03*
X205740Y642620D03*
X205740Y480060D03*
X1508760Y972820D03*
X1363980Y970280D03*
X289560Y1178560D03*
X289560Y1262380D03*
X949960Y1181100D03*
X1076960Y1181100D03*
X761110Y1236980D03*
X995680Y1236980D03*
X353060Y1033780D03*
X353060Y1148080D03*
X381000Y381000D03*
X381000Y337820D03*
X574040Y1160780D03*
X718820Y1160780D03*
D17*
X250000Y1300000D03*
X1350000Y1300000D03*
X250000Y300000D03*
X1350000Y300000D03*
D16*
X533400Y731520D03*
X198120Y830580D03*
X256540Y830580D03*
X360680Y731520D03*
M02*
