M48
;GenerationSoftware,Autodesk,EAGLE,9.6.0*%
;CreationDate,2022-01-10T10:43:43Z*%
FMAT,2
ICI,OFF
METRIC,TZ,000.000
T2C0.800
T1C1.000
%
G90
M71
T1
X38190Y139150
X47080Y139150
T2
X47498Y112522
X28194Y67564
X28194Y94742
X36613Y68797
X36576Y78232
X32766Y83058
X39116Y83058
X39370Y65786
X27686Y62738
X33528Y62738
X39370Y79756
X45720Y86360
X45720Y110998
X15060Y62280
X15060Y59740
X25490Y93430
X53340Y112522
X64680Y66590
X64680Y69130
X30570Y75650
X30570Y73110
X60870Y89450
X60870Y91990
X51980Y117390
X51980Y119930
X35650Y125180
X35650Y122640
X57060Y42460
X57060Y45000
X2630Y29930
X2630Y27390
X50710Y99610
X50710Y102150
X25490Y90890
M30